<?xml version="1.0" encoding="UTF-8" standalone="no"?>
<!DOCTYPE svg PUBLIC "-//W3C//DTD SVG 1.1//EN"
 "http://www.w3.org/Graphics/SVG/1.1/DTD/svg11.dtd">
<!-- Generated by graphviz version 2.30.1 (20130712.1527)
 -->
<!-- Title: ip6_hdr_set_hop_limit Pages: 1 -->
<svg width="266pt" height="66pt"
 viewBox="0.00 0.00 266.00 66.00" xmlns="http://www.w3.org/2000/svg" xmlns:xlink="http://www.w3.org/1999/xlink">
<g id="graph0" class="graph" transform="scale(1 1) rotate(0) translate(4 62)">
<title>ip6_hdr_set_hop_limit</title>
<!-- Node1 -->
<g id="node1" class="node"><title>Node1</title>
<polygon fill="#bfbfbf" stroke="black" points="0.5,-19.5 0.5,-38.5 111.5,-38.5 111.5,-19.5 0.5,-19.5"/>
<text text-anchor="middle" x="56" y="-26.5" font-family="Helvetica,sans-Serif" font-size="10.00">ip6_hdr_set_hop_limit</text>
</g>
<!-- Node2 -->
<g id="node2" class="node"><title>Node2</title>
<g id="a_node2"><a xlink:href="../../de/df3/packet_8c_a65b5fff2654c7ea3bb5da793d18043ed.html#a65b5fff2654c7ea3bb5da793d18043ed" target="_top" xlink:title="Construire un paquet IPv6 + ICMP.">
<polygon fill="none" stroke="black" points="155.5,-38.5 155.5,-57.5 250.5,-57.5 250.5,-38.5 155.5,-38.5"/>
<text text-anchor="middle" x="203" y="-45.5" font-family="Helvetica,sans-Serif" font-size="10.00">icmp6_packet_init</text>
</a>
</g>
</g>
<!-- Node1&#45;&gt;Node2 -->
<g id="edge1" class="edge"><title>Node1&#45;&gt;Node2</title>
<path fill="none" stroke="midnightblue" d="M121.985,-37.5153C133.163,-38.98 144.582,-40.4763 155.164,-41.8628"/>
<polygon fill="midnightblue" stroke="midnightblue" points="122.188,-34.0121 111.818,-36.1831 121.279,-40.9527 122.188,-34.0121"/>
</g>
<!-- Node3 -->
<g id="node3" class="node"><title>Node3</title>
<g id="a_node3"><a xlink:href="../../de/df3/packet_8c_a05b6061852816ac13e20f03330f748b1.html#a05b6061852816ac13e20f03330f748b1" target="_top" xlink:title="Changer le TTL d&#39;un paquet IPv4 + ICMP.">
<polygon fill="none" stroke="black" points="148,-0.5 148,-19.5 258,-19.5 258,-0.5 148,-0.5"/>
<text text-anchor="middle" x="203" y="-7.5" font-family="Helvetica,sans-Serif" font-size="10.00">icmp6_packet_set_ttl</text>
</a>
</g>
</g>
<!-- Node1&#45;&gt;Node3 -->
<g id="edge2" class="edge"><title>Node1&#45;&gt;Node3</title>
<path fill="none" stroke="midnightblue" d="M121.824,-20.5059C130.429,-19.3783 139.18,-18.2315 147.585,-17.1302"/>
<polygon fill="midnightblue" stroke="midnightblue" points="121.279,-17.0473 111.818,-21.8169 122.188,-23.9879 121.279,-17.0473"/>
</g>
</g>
</svg>
