<?xml version="1.0" encoding="UTF-8" standalone="no"?>
<!DOCTYPE svg PUBLIC "-//W3C//DTD SVG 1.1//EN"
 "http://www.w3.org/Graphics/SVG/1.1/DTD/svg11.dtd">
<!-- Generated by graphviz version 2.30.1 (20130712.1527)
 -->
<!-- Title: fake_ip6_hdr_init Pages: 1 -->
<svg width="266pt" height="273pt"
 viewBox="0.00 0.00 266.00 273.00" xmlns="http://www.w3.org/2000/svg" xmlns:xlink="http://www.w3.org/1999/xlink">
<g id="graph0" class="graph" transform="scale(1 1) rotate(0) translate(4 269)">
<title>fake_ip6_hdr_init</title>
<!-- Node1 -->
<g id="node1" class="node"><title>Node1</title>
<polygon fill="#bfbfbf" stroke="black" points="0,-127.5 0,-146.5 90,-146.5 90,-127.5 0,-127.5"/>
<text text-anchor="middle" x="45" y="-134.5" font-family="Helvetica,sans-Serif" font-size="10.00">fake_ip6_hdr_init</text>
</g>
<!-- Node2 -->
<g id="node2" class="node"><title>Node2</title>
<g id="a_node2"><a xlink:href="../../d3/d5a/base_8h_a58ba35289e8c456e6beb956ae2057469.html#a58ba35289e8c456e6beb956ae2057469" target="_top" xlink:title="Vérifier qu&#39;un pointeur ne pointe pas vers NULL.">
<polygon fill="none" stroke="black" points="153.5,-245.5 153.5,-264.5 230.5,-264.5 230.5,-245.5 153.5,-245.5"/>
<text text-anchor="middle" x="192" y="-252.5" font-family="Helvetica,sans-Serif" font-size="10.00">check_pointer</text>
</a>
</g>
</g>
<!-- Node1&#45;&gt;Node2 -->
<g id="edge1" class="edge"><title>Node1&#45;&gt;Node2</title>
<path fill="none" stroke="midnightblue" d="M51.2382,-146.666C62.3646,-166.288 90.2862,-210.966 126,-235 131.335,-238.59 137.343,-241.558 143.495,-244.006"/>
<polygon fill="midnightblue" stroke="midnightblue" points="142.611,-247.406 153.206,-247.44 144.945,-240.806 142.611,-247.406"/>
</g>
<!-- Node3 -->
<g id="node3" class="node"><title>Node3</title>
<g id="a_node3"><a xlink:href="../../d0/d95/structfake__ip6__hdr_ac89b144477feb841b07b2b2d7fb575a5.html#ac89b144477feb841b07b2b2d7fb575a5" target="_top" xlink:title="Changer l&#39;adresse de destination.">
<polygon fill="none" stroke="black" points="129.5,-196 129.5,-226 254.5,-226 254.5,-196 129.5,-196"/>
<text text-anchor="start" x="137.5" y="-214" font-family="Helvetica,sans-Serif" font-size="10.00">fake_ip6_hdr::fake</text>
<text text-anchor="middle" x="192" y="-203" font-family="Helvetica,sans-Serif" font-size="10.00">_ip6_hdr_set_destination</text>
</a>
</g>
</g>
<!-- Node1&#45;&gt;Node3 -->
<g id="edge2" class="edge"><title>Node1&#45;&gt;Node3</title>
<path fill="none" stroke="midnightblue" d="M60.0037,-146.665C75.633,-157.191 101.9,-174.109 126,-186 130.249,-188.096 134.72,-190.137 139.246,-192.089"/>
<polygon fill="midnightblue" stroke="midnightblue" points="137.982,-195.354 148.559,-195.963 140.67,-188.891 137.982,-195.354"/>
</g>
<!-- Node4 -->
<g id="node4" class="node"><title>Node4</title>
<g id="a_node4"><a xlink:href="../../d0/d95/structfake__ip6__hdr_a9848c4a68a26feeee107c859d2f37002.html#a9848c4a68a26feeee107c859d2f37002" target="_top" xlink:title="Changer la taille.">
<polygon fill="none" stroke="black" points="140,-147 140,-177 244,-177 244,-147 140,-147"/>
<text text-anchor="start" x="148" y="-165" font-family="Helvetica,sans-Serif" font-size="10.00">fake_ip6_hdr::fake</text>
<text text-anchor="middle" x="192" y="-154" font-family="Helvetica,sans-Serif" font-size="10.00">_ip6_hdr_set_length</text>
</a>
</g>
</g>
<!-- Node1&#45;&gt;Node4 -->
<g id="edge3" class="edge"><title>Node1&#45;&gt;Node4</title>
<path fill="none" stroke="midnightblue" d="M90.2927,-144.637C102.77,-146.788 116.567,-149.167 129.845,-151.456"/>
<polygon fill="midnightblue" stroke="midnightblue" points="129.416,-154.934 139.866,-153.184 130.606,-148.035 129.416,-154.934"/>
</g>
<!-- Node5 -->
<g id="node5" class="node"><title>Node5</title>
<g id="a_node5"><a xlink:href="../../d0/d95/structfake__ip6__hdr_a68982beab82ab80e5a561e9b2b621868.html#a68982beab82ab80e5a561e9b2b621868" target="_top" xlink:title="Changer le header suivant.">
<polygon fill="none" stroke="black" points="126.5,-98 126.5,-128 257.5,-128 257.5,-98 126.5,-98"/>
<text text-anchor="start" x="134.5" y="-116" font-family="Helvetica,sans-Serif" font-size="10.00">fake_ip6_hdr::fake</text>
<text text-anchor="middle" x="192" y="-105" font-family="Helvetica,sans-Serif" font-size="10.00">_ip6_hdr_set_next_header</text>
</a>
</g>
</g>
<!-- Node1&#45;&gt;Node5 -->
<g id="edge4" class="edge"><title>Node1&#45;&gt;Node5</title>
<path fill="none" stroke="midnightblue" d="M90.2927,-129.669C98.5828,-128.297 107.456,-126.828 116.372,-125.352"/>
<polygon fill="midnightblue" stroke="midnightblue" points="117.134,-128.774 126.428,-123.688 115.99,-121.868 117.134,-128.774"/>
</g>
<!-- Node6 -->
<g id="node6" class="node"><title>Node6</title>
<g id="a_node6"><a xlink:href="../../d0/d95/structfake__ip6__hdr_a7d99013b213a4295cd4c9ba26942eab8.html#a7d99013b213a4295cd4c9ba26942eab8" target="_top" xlink:title="Changer l&#39;adresse source.">
<polygon fill="none" stroke="black" points="138.5,-49 138.5,-79 245.5,-79 245.5,-49 138.5,-49"/>
<text text-anchor="start" x="146.5" y="-67" font-family="Helvetica,sans-Serif" font-size="10.00">fake_ip6_hdr::fake</text>
<text text-anchor="middle" x="192" y="-56" font-family="Helvetica,sans-Serif" font-size="10.00">_ip6_hdr_set_source</text>
</a>
</g>
</g>
<!-- Node1&#45;&gt;Node6 -->
<g id="edge5" class="edge"><title>Node1&#45;&gt;Node6</title>
<path fill="none" stroke="midnightblue" d="M60.3197,-127.37C76.008,-117.069 102.125,-100.645 126,-89 130.258,-86.9229 134.736,-84.896 139.267,-82.9524"/>
<polygon fill="midnightblue" stroke="midnightblue" points="140.687,-86.1524 148.586,-79.0909 138.007,-79.6856 140.687,-86.1524"/>
</g>
<!-- Node7 -->
<g id="node7" class="node"><title>Node7</title>
<g id="a_node7"><a xlink:href="../../d0/d95/structfake__ip6__hdr_a0fbcd3f250cc290d3090fdbf323b1080.html#a0fbcd3f250cc290d3090fdbf323b1080" target="_top" xlink:title="Zeros.">
<polygon fill="none" stroke="black" points="141.5,-0 141.5,-30 242.5,-30 242.5,-0 141.5,-0"/>
<text text-anchor="start" x="149.5" y="-18" font-family="Helvetica,sans-Serif" font-size="10.00">fake_ip6_hdr::fake</text>
<text text-anchor="middle" x="192" y="-7" font-family="Helvetica,sans-Serif" font-size="10.00">_ip6_hdr_set_zeros</text>
</a>
</g>
</g>
<!-- Node1&#45;&gt;Node7 -->
<g id="edge6" class="edge"><title>Node1&#45;&gt;Node7</title>
<path fill="none" stroke="midnightblue" d="M51.5786,-127.34C63.1221,-108.136 91.4596,-64.8764 126,-40 128.649,-38.0922 131.462,-36.3087 134.376,-34.6446"/>
<polygon fill="midnightblue" stroke="midnightblue" points="136.075,-37.7059 143.352,-30.0051 132.861,-31.4873 136.075,-37.7059"/>
</g>
</g>
</svg>
