<?xml version="1.0" encoding="UTF-8" standalone="no"?>
<!DOCTYPE svg PUBLIC "-//W3C//DTD SVG 1.1//EN"
 "http://www.w3.org/Graphics/SVG/1.1/DTD/svg11.dtd">
<!-- Generated by graphviz version 2.30.1 (20130712.1527)
 -->
<!-- Title: ip6_hdr_set_payload_length Pages: 1 -->
<svg width="278pt" height="66pt"
 viewBox="0.00 0.00 278.00 66.00" xmlns="http://www.w3.org/2000/svg" xmlns:xlink="http://www.w3.org/1999/xlink">
<g id="graph0" class="graph" transform="scale(1 1) rotate(0) translate(4 62)">
<title>ip6_hdr_set_payload_length</title>
<!-- Node1 -->
<g id="node1" class="node"><title>Node1</title>
<polygon fill="#bfbfbf" stroke="black" points="0,-14 0,-44 106,-44 106,-14 0,-14"/>
<text text-anchor="start" x="8" y="-32" font-family="Helvetica,sans-Serif" font-size="10.00">ip6_hdr_set_payload</text>
<text text-anchor="middle" x="53" y="-21" font-family="Helvetica,sans-Serif" font-size="10.00">_length</text>
</g>
<!-- Node2 -->
<g id="node2" class="node"><title>Node2</title>
<g id="a_node2"><a xlink:href="../../de/df3/packet_8c_a65b5fff2654c7ea3bb5da793d18043ed.html#a65b5fff2654c7ea3bb5da793d18043ed" target="_top" xlink:title="Construire un paquet IPv6 + ICMP.">
<polygon fill="none" stroke="black" points="158.5,-38.5 158.5,-57.5 253.5,-57.5 253.5,-38.5 158.5,-38.5"/>
<text text-anchor="middle" x="206" y="-45.5" font-family="Helvetica,sans-Serif" font-size="10.00">icmp6_packet_init</text>
</a>
</g>
</g>
<!-- Node1&#45;&gt;Node2 -->
<g id="edge1" class="edge"><title>Node1&#45;&gt;Node2</title>
<path fill="none" stroke="midnightblue" d="M116.437,-36.8563C130.426,-38.6166 145.032,-40.4544 158.255,-42.1182"/>
<polygon fill="midnightblue" stroke="midnightblue" points="116.747,-33.3679 106.389,-35.592 115.873,-40.3131 116.747,-33.3679"/>
</g>
<!-- Node3 -->
<g id="node3" class="node"><title>Node3</title>
<g id="a_node3"><a xlink:href="../../de/df3/packet_8c_a67992623d0f053ab11810c539d475c56.html#a67992623d0f053ab11810c539d475c56" target="_top" xlink:title="Changer la taille d&#39;un paquet.">
<polygon fill="none" stroke="black" points="142,-0.5 142,-19.5 270,-19.5 270,-0.5 142,-0.5"/>
<text text-anchor="middle" x="206" y="-7.5" font-family="Helvetica,sans-Serif" font-size="10.00">icmp6_packet_set_length</text>
</a>
</g>
</g>
<!-- Node1&#45;&gt;Node3 -->
<g id="edge2" class="edge"><title>Node1&#45;&gt;Node3</title>
<path fill="none" stroke="midnightblue" d="M116.454,-21.1416C124.818,-20.0891 133.403,-19.0089 141.781,-17.9547"/>
<polygon fill="midnightblue" stroke="midnightblue" points="115.873,-17.6869 106.389,-22.408 116.747,-24.6321 115.873,-17.6869"/>
</g>
</g>
</svg>
