<?xml version="1.0" encoding="UTF-8" standalone="no"?>
<!DOCTYPE svg PUBLIC "-//W3C//DTD SVG 1.1//EN"
 "http://www.w3.org/Graphics/SVG/1.1/DTD/svg11.dtd">
<!-- Generated by graphviz version 2.30.1 (20130712.1527)
 -->
<!-- Title: init_domaine_IPv4 Pages: 1 -->
<svg width="366pt" height="230pt"
 viewBox="0.00 0.00 366.00 230.00" xmlns="http://www.w3.org/2000/svg" xmlns:xlink="http://www.w3.org/1999/xlink">
<g id="graph0" class="graph" transform="scale(1 1) rotate(0) translate(4 226)">
<title>init_domaine_IPv4</title>
<!-- Node1 -->
<g id="node1" class="node"><title>Node1</title>
<polygon fill="#bfbfbf" stroke="black" points="0.5,-107.5 0.5,-126.5 97.5,-126.5 97.5,-107.5 0.5,-107.5"/>
<text text-anchor="middle" x="49" y="-114.5" font-family="Helvetica,sans-Serif" font-size="10.00">init_domaine_IPv4</text>
</g>
<!-- Node2 -->
<g id="node2" class="node"><title>Node2</title>
<g id="a_node2"><a xlink:href="../../d6/dc8/ping__icmp_8h_a14a6ab2d3de563a4a3092278a645ee10.html#a14a6ab2d3de563a4a3092278a645ee10" target="_top" xlink:title="Renvoie l&#39;adresse IP d&#39;un domaine.">
<polygon fill="none" stroke="black" points="158,-202.5 158,-221.5 220,-221.5 220,-202.5 158,-202.5"/>
<text text-anchor="middle" x="189" y="-209.5" font-family="Helvetica,sans-Serif" font-size="10.00">char_to_ip</text>
</a>
</g>
</g>
<!-- Node1&#45;&gt;Node2 -->
<g id="edge1" class="edge"><title>Node1&#45;&gt;Node2</title>
<path fill="none" stroke="midnightblue" d="M58.3563,-126.743C72.467,-142.649 102.567,-174.291 134,-193 138.476,-195.664 143.382,-198.033 148.355,-200.117"/>
<polygon fill="midnightblue" stroke="midnightblue" points="147.314,-203.467 157.904,-203.775 149.818,-196.93 147.314,-203.467"/>
</g>
<!-- Node3 -->
<g id="node3" class="node"><title>Node3</title>
<g id="a_node3"><a xlink:href="../../d9/d9b/address_8h_a3e33868e46fd64d2522d50763b7b7df0.html#a3e33868e46fd64d2522d50763b7b7df0" target="_top" xlink:title="Créer une socket.">
<polygon fill="none" stroke="black" points="139.5,-164.5 139.5,-183.5 238.5,-183.5 238.5,-164.5 139.5,-164.5"/>
<text text-anchor="middle" x="189" y="-171.5" font-family="Helvetica,sans-Serif" font-size="10.00">create_raw_socket</text>
</a>
</g>
</g>
<!-- Node1&#45;&gt;Node3 -->
<g id="edge2" class="edge"><title>Node1&#45;&gt;Node3</title>
<path fill="none" stroke="midnightblue" d="M69.8177,-126.551C86.7082,-134.55 111.718,-146.059 134,-155 139.131,-157.059 144.581,-159.12 149.97,-161.085"/>
<polygon fill="midnightblue" stroke="midnightblue" points="148.927,-164.429 159.522,-164.498 151.283,-157.837 148.927,-164.429"/>
</g>
<!-- Node4 -->
<g id="node4" class="node"><title>Node4</title>
<g id="a_node4"><a xlink:href="../../d9/d9b/address_8h_a049129a0c931708a99bfbc0856b7a12f.html#a049129a0c931708a99bfbc0856b7a12f" target="_top" xlink:title="Extraire une IPv4.">
<polygon fill="none" stroke="black" points="154,-126.5 154,-145.5 224,-145.5 224,-126.5 154,-126.5"/>
<text text-anchor="middle" x="189" y="-133.5" font-family="Helvetica,sans-Serif" font-size="10.00">extract_ipv4</text>
</a>
</g>
</g>
<!-- Node1&#45;&gt;Node4 -->
<g id="edge3" class="edge"><title>Node1&#45;&gt;Node4</title>
<path fill="none" stroke="midnightblue" d="M97.8784,-123.592C112.662,-125.627 128.877,-127.86 143.428,-129.863"/>
<polygon fill="midnightblue" stroke="midnightblue" points="143.301,-133.379 153.685,-131.276 144.256,-126.444 143.301,-133.379"/>
</g>
<!-- Node6 -->
<g id="node6" class="node"><title>Node6</title>
<g id="a_node6"><a xlink:href="../../d9/d9b/address_8h_af637c541dd7ff290a03bef9fcc4d9a8f.html#af637c541dd7ff290a03bef9fcc4d9a8f" target="_top" xlink:title="Obtenir une adresse IPv4.">
<polygon fill="none" stroke="black" points="162.5,-88.5 162.5,-107.5 215.5,-107.5 215.5,-88.5 162.5,-88.5"/>
<text text-anchor="middle" x="189" y="-95.5" font-family="Helvetica,sans-Serif" font-size="10.00">get_ipv4</text>
</a>
</g>
</g>
<!-- Node1&#45;&gt;Node6 -->
<g id="edge5" class="edge"><title>Node1&#45;&gt;Node6</title>
<path fill="none" stroke="midnightblue" d="M97.8784,-110.408C115.631,-107.964 135.448,-105.235 151.969,-102.961"/>
<polygon fill="midnightblue" stroke="midnightblue" points="152.866,-106.37 162.295,-101.539 151.911,-99.4359 152.866,-106.37"/>
</g>
<!-- Node8 -->
<g id="node8" class="node"><title>Node8</title>
<g id="a_node8"><a xlink:href="../../d0/dd6/structicmp4__packet_a974a33d2edadacf13bcb4e2b4d9ec144.html#a974a33d2edadacf13bcb4e2b4d9ec144" target="_top" xlink:title="Construire un paquet IPv4 + ICMP.">
<polygon fill="none" stroke="black" points="134,-39 134,-69 244,-69 244,-39 134,-39"/>
<text text-anchor="start" x="142" y="-57" font-family="Helvetica,sans-Serif" font-size="10.00">icmp4_packet::icmp4</text>
<text text-anchor="middle" x="189" y="-46" font-family="Helvetica,sans-Serif" font-size="10.00">_packet_init</text>
</a>
</g>
</g>
<!-- Node1&#45;&gt;Node8 -->
<g id="edge7" class="edge"><title>Node1&#45;&gt;Node8</title>
<path fill="none" stroke="midnightblue" d="M70.9592,-107.432C90.7495,-98.397 121.007,-84.5837 145.799,-73.2655"/>
<polygon fill="midnightblue" stroke="midnightblue" points="147.357,-76.4019 155,-69.065 144.45,-70.0341 147.357,-76.4019"/>
</g>
<!-- Node9 -->
<g id="node9" class="node"><title>Node9</title>
<g id="a_node9"><a xlink:href="../../d9/d9b/address_8h_ac3cf1976c272170c2ab9be2418cd5a0f.html#ac3cf1976c272170c2ab9be2418cd5a0f" target="_top" xlink:title="Obtenir le nom d&#39;un hôte à partir de son adresse IPv4.">
<polygon fill="none" stroke="black" points="146,-0.5 146,-19.5 232,-19.5 232,-0.5 146,-0.5"/>
<text text-anchor="middle" x="189" y="-7.5" font-family="Helvetica,sans-Serif" font-size="10.00">reverse_dns_v4</text>
</a>
</g>
</g>
<!-- Node1&#45;&gt;Node9 -->
<g id="edge8" class="edge"><title>Node1&#45;&gt;Node9</title>
<path fill="none" stroke="midnightblue" d="M57.0036,-107.265C70.1941,-89.5689 100.431,-51.937 134,-30 137.578,-27.662 141.466,-25.5472 145.462,-23.6461"/>
<polygon fill="midnightblue" stroke="midnightblue" points="147.081,-26.7598 154.885,-19.5939 144.316,-20.3292 147.081,-26.7598"/>
</g>
<!-- Node5 -->
<g id="node5" class="node"><title>Node5</title>
<g id="a_node5"><a xlink:href="../../d3/d5a/base_8h_a58ba35289e8c456e6beb956ae2057469.html#a58ba35289e8c456e6beb956ae2057469" target="_top" xlink:title="Vérifier qu&#39;un pointeur ne pointe pas vers NULL.">
<polygon fill="none" stroke="black" points="280.5,-126.5 280.5,-145.5 357.5,-145.5 357.5,-126.5 280.5,-126.5"/>
<text text-anchor="middle" x="319" y="-133.5" font-family="Helvetica,sans-Serif" font-size="10.00">check_pointer</text>
</a>
</g>
</g>
<!-- Node4&#45;&gt;Node5 -->
<g id="edge4" class="edge"><title>Node4&#45;&gt;Node5</title>
<path fill="none" stroke="midnightblue" d="M224.302,-136C238.381,-136 254.924,-136 270.16,-136"/>
<polygon fill="midnightblue" stroke="midnightblue" points="270.453,-139.5 280.453,-136 270.453,-132.5 270.453,-139.5"/>
</g>
<!-- Node7 -->
<g id="node7" class="node"><title>Node7</title>
<g id="a_node7"><a xlink:href="../../d9/d9b/address_8h_ac2527f2c331db757a25840db6b1068b9.html#ac2527f2c331db757a25840db6b1068b9" target="_top" xlink:title="Obtenir une adresse IP.">
<polygon fill="none" stroke="black" points="297.5,-88.5 297.5,-107.5 340.5,-107.5 340.5,-88.5 297.5,-88.5"/>
<text text-anchor="middle" x="319" y="-95.5" font-family="Helvetica,sans-Serif" font-size="10.00">get_ip</text>
</a>
</g>
</g>
<!-- Node6&#45;&gt;Node7 -->
<g id="edge6" class="edge"><title>Node6&#45;&gt;Node7</title>
<path fill="none" stroke="midnightblue" d="M215.595,-98C236.16,-98 265.119,-98 286.997,-98"/>
<polygon fill="midnightblue" stroke="midnightblue" points="287.101,-101.5 297.101,-98 287.101,-94.5001 287.101,-101.5"/>
</g>
</g>
</svg>
