<?xml version="1.0" encoding="UTF-8" standalone="no"?>
<!DOCTYPE svg PUBLIC "-//W3C//DTD SVG 1.1//EN"
 "http://www.w3.org/Graphics/SVG/1.1/DTD/svg11.dtd">
<!-- Generated by graphviz version 2.30.1 (20130712.1527)
 -->
<!-- Title: pi_ng Pages: 1 -->
<svg width="450pt" height="268pt"
 viewBox="0.00 0.00 450.00 268.00" xmlns="http://www.w3.org/2000/svg" xmlns:xlink="http://www.w3.org/1999/xlink">
<g id="graph0" class="graph" transform="scale(1 1) rotate(0) translate(4 264)">
<title>pi_ng</title>
<!-- Node1 -->
<g id="node1" class="node"><title>Node1</title>
<polygon fill="#bfbfbf" stroke="black" points="0,-104.5 0,-123.5 40,-123.5 40,-104.5 0,-104.5"/>
<text text-anchor="middle" x="20" y="-111.5" font-family="Helvetica,sans-Serif" font-size="10.00">pi_ng</text>
</g>
<!-- Node2 -->
<g id="node2" class="node"><title>Node2</title>
<g id="a_node2"><a xlink:href="../../d6/dc8/ping__icmp_8h_adb099e6aac6f37e8b98243533c024332.html#adb099e6aac6f37e8b98243533c024332" target="_top" xlink:title="Réponse du paquet par une réception d&#39;un paquet ICMP_ECHO REPLY.">
<polygon fill="none" stroke="black" points="98,-202.5 98,-221.5 172,-221.5 172,-202.5 98,-202.5"/>
<text text-anchor="middle" x="135" y="-209.5" font-family="Helvetica,sans-Serif" font-size="10.00">answer_send</text>
</a>
</g>
</g>
<!-- Node1&#45;&gt;Node2 -->
<g id="edge1" class="edge"><title>Node1&#45;&gt;Node2</title>
<path fill="none" stroke="midnightblue" d="M25.1225,-123.527C32.7568,-140.072 50.6579,-174.148 76,-193 79.8363,-195.854 84.1223,-198.292 88.5802,-200.372"/>
<polygon fill="midnightblue" stroke="midnightblue" points="87.3015,-203.631 97.8832,-204.158 89.9402,-197.147 87.3015,-203.631"/>
</g>
<!-- Node7 -->
<g id="node7" class="node"><title>Node7</title>
<g id="a_node7"><a xlink:href="../../d0/d91/time__util_8h_a2051450189c832e81f2e123fe286f443.html#a2051450189c832e81f2e123fe286f443" target="_top" xlink:title="Faire la différence entre deux struct timeval.">
<polygon fill="none" stroke="black" points="101.5,-164.5 101.5,-183.5 168.5,-183.5 168.5,-164.5 101.5,-164.5"/>
<text text-anchor="middle" x="135" y="-171.5" font-family="Helvetica,sans-Serif" font-size="10.00">diff_timeval</text>
</a>
</g>
</g>
<!-- Node1&#45;&gt;Node7 -->
<g id="edge6" class="edge"><title>Node1&#45;&gt;Node7</title>
<path fill="none" stroke="midnightblue" d="M34.133,-123.604C45.0163,-131.312 61.0653,-142.111 76,-150 83.1817,-153.793 91.0979,-157.412 98.7121,-160.637"/>
<polygon fill="midnightblue" stroke="midnightblue" points="97.5369,-163.938 108.117,-164.493 100.193,-157.461 97.5369,-163.938"/>
</g>
<!-- Node8 -->
<g id="node8" class="node"><title>Node8</title>
<g id="a_node8"><a xlink:href="../../d0/d91/time__util_8h_a1f00814d12f1cb52dc007df592b0b7b6.html#a1f00814d12f1cb52dc007df592b0b7b6" target="_top" xlink:title="Extraire le temps en ms d&#39;une struct timeval.">
<polygon fill="none" stroke="black" points="239.5,-101.5 239.5,-120.5 310.5,-120.5 310.5,-101.5 239.5,-101.5"/>
<text text-anchor="middle" x="275" y="-108.5" font-family="Helvetica,sans-Serif" font-size="10.00">extract_time</text>
</a>
</g>
</g>
<!-- Node1&#45;&gt;Node8 -->
<g id="edge7" class="edge"><title>Node1&#45;&gt;Node8</title>
<path fill="none" stroke="midnightblue" d="M40.0856,-114.865C50.6654,-115.301 64.0583,-115.783 76,-116 128.436,-116.953 141.581,-117.636 194,-116 205.395,-115.644 217.689,-115.004 229.14,-114.298"/>
<polygon fill="midnightblue" stroke="midnightblue" points="229.616,-117.775 239.37,-113.638 229.165,-110.789 229.616,-117.775"/>
</g>
<!-- Node9 -->
<g id="node9" class="node"><title>Node9</title>
<g id="a_node9"><a xlink:href="../../d0/dd6/structicmp4__packet_af095ed91818f00ec8eb99f95ad89f6f9.html#af095ed91818f00ec8eb99f95ad89f6f9" target="_top" xlink:title="Changer la sequence d&#39;un paquet IPv4+ICMP ECHO_REQUEST.">
<polygon fill="none" stroke="black" points="76.5,-77 76.5,-107 193.5,-107 193.5,-77 76.5,-77"/>
<text text-anchor="start" x="84.5" y="-95" font-family="Helvetica,sans-Serif" font-size="10.00">icmp4_packet::icmp4</text>
<text text-anchor="middle" x="135" y="-84" font-family="Helvetica,sans-Serif" font-size="10.00">_packet_set_echo_seq</text>
</a>
</g>
</g>
<!-- Node1&#45;&gt;Node9 -->
<g id="edge8" class="edge"><title>Node1&#45;&gt;Node9</title>
<path fill="none" stroke="midnightblue" d="M40.1689,-110.268C47.6463,-108.812 56.7027,-107.049 66.2033,-105.199"/>
<polygon fill="midnightblue" stroke="midnightblue" points="67.0704,-108.596 76.2173,-103.25 65.7327,-101.725 67.0704,-108.596"/>
</g>
<!-- Node10 -->
<g id="node10" class="node"><title>Node10</title>
<g id="a_node10"><a xlink:href="../../d6/dc8/ping__icmp_8h_afbaa96f7fc7935f32e3c24246e7ce278.html#afbaa96f7fc7935f32e3c24246e7ce278" target="_top" xlink:title="Mise à jour des RTT de la structure compteur.">
<polygon fill="none" stroke="black" points="120.5,-38.5 120.5,-57.5 149.5,-57.5 149.5,-38.5 120.5,-38.5"/>
<text text-anchor="middle" x="135" y="-45.5" font-family="Helvetica,sans-Serif" font-size="10.00">rtt</text>
</a>
</g>
</g>
<!-- Node1&#45;&gt;Node10 -->
<g id="edge9" class="edge"><title>Node1&#45;&gt;Node10</title>
<path fill="none" stroke="midnightblue" d="M29.8736,-104.444C40.0929,-93.9425 57.8223,-77.212 76,-67 86.781,-60.9433 99.786,-56.4602 110.747,-53.3747"/>
<polygon fill="midnightblue" stroke="midnightblue" points="111.694,-56.7449 120.49,-50.8389 109.931,-49.9706 111.694,-56.7449"/>
</g>
<!-- Node11 -->
<g id="node11" class="node"><title>Node11</title>
<g id="a_node11"><a xlink:href="../../d6/dc8/ping__icmp_8h_a86be555ff5b36341867465a5cb0142d3.html#a86be555ff5b36341867465a5cb0142d3" target="_top" xlink:title="Envoie d&#39;un paquet ICMP_ECHO REQUEST.">
<polygon fill="none" stroke="black" points="99,-0.5 99,-19.5 171,-19.5 171,-0.5 99,-0.5"/>
<text text-anchor="middle" x="135" y="-7.5" font-family="Helvetica,sans-Serif" font-size="10.00">send_paquet</text>
</a>
</g>
</g>
<!-- Node1&#45;&gt;Node11 -->
<g id="edge11" class="edge"><title>Node1&#45;&gt;Node11</title>
<path fill="none" stroke="midnightblue" d="M24.6936,-104.306C31.8799,-86.7214 49.4074,-49.4912 76,-29 80.0917,-25.8471 84.7283,-23.206 89.5539,-20.9961"/>
<polygon fill="midnightblue" stroke="midnightblue" points="90.9703,-24.1996 98.9732,-17.2567 88.3874,-17.6936 90.9703,-24.1996"/>
</g>
<!-- Node3 -->
<g id="node3" class="node"><title>Node3</title>
<g id="a_node3"><a xlink:href="../../d9/d9b/address_8h_a81aae144fa0d9a0bd3da2e56e852b54a.html#a81aae144fa0d9a0bd3da2e56e852b54a" target="_top" xlink:title="Afficher un hôte.">
<polygon fill="none" stroke="black" points="237.5,-221.5 237.5,-240.5 312.5,-240.5 312.5,-221.5 237.5,-221.5"/>
<text text-anchor="middle" x="275" y="-228.5" font-family="Helvetica,sans-Serif" font-size="10.00">print_host_v4</text>
</a>
</g>
</g>
<!-- Node2&#45;&gt;Node3 -->
<g id="edge2" class="edge"><title>Node2&#45;&gt;Node3</title>
<path fill="none" stroke="midnightblue" d="M172.258,-216.992C189.025,-219.301 209.15,-222.071 227.059,-224.537"/>
<polygon fill="midnightblue" stroke="midnightblue" points="226.64,-228.012 237.024,-225.909 227.595,-221.078 226.64,-228.012"/>
</g>
<!-- Node6 -->
<g id="node6" class="node"><title>Node6</title>
<g id="a_node6"><a xlink:href="../../d3/d76/packet_8h_a2be7e8b585f620e44c817a77ce8cdfbc.html#a2be7e8b585f620e44c817a77ce8cdfbc" target="_top" xlink:title="Recevoir un paquet IPv4+ICMP.">
<polygon fill="none" stroke="black" points="230,-183.5 230,-202.5 320,-202.5 320,-183.5 230,-183.5"/>
<text text-anchor="middle" x="275" y="-190.5" font-family="Helvetica,sans-Serif" font-size="10.00">receive_icmp_v4</text>
</a>
</g>
</g>
<!-- Node2&#45;&gt;Node6 -->
<g id="edge5" class="edge"><title>Node2&#45;&gt;Node6</title>
<path fill="none" stroke="midnightblue" d="M172.258,-207.008C186.735,-205.015 203.716,-202.677 219.612,-200.488"/>
<polygon fill="midnightblue" stroke="midnightblue" points="220.435,-203.908 229.865,-199.077 219.481,-196.973 220.435,-203.908"/>
</g>
<!-- Node4 -->
<g id="node4" class="node"><title>Node4</title>
<g id="a_node4"><a xlink:href="../../d9/d9b/address_8h_a52138d7436e1d946641e32af4afc9788.html#a52138d7436e1d946641e32af4afc9788" target="_top" xlink:title="Afficher une addresse IP.">
<polygon fill="none" stroke="black" points="375,-240.5 375,-259.5 423,-259.5 423,-240.5 375,-240.5"/>
<text text-anchor="middle" x="399" y="-247.5" font-family="Helvetica,sans-Serif" font-size="10.00">print_ip</text>
</a>
</g>
</g>
<!-- Node3&#45;&gt;Node4 -->
<g id="edge3" class="edge"><title>Node3&#45;&gt;Node4</title>
<path fill="none" stroke="midnightblue" d="M312.604,-236.701C329.186,-239.283 348.647,-242.314 364.8,-244.829"/>
<polygon fill="midnightblue" stroke="midnightblue" points="364.454,-248.318 374.873,-246.398 365.531,-241.401 364.454,-248.318"/>
</g>
<!-- Node5 -->
<g id="node5" class="node"><title>Node5</title>
<g id="a_node5"><a xlink:href="../../d9/d9b/address_8h_ac3cf1976c272170c2ab9be2418cd5a0f.html#ac3cf1976c272170c2ab9be2418cd5a0f" target="_top" xlink:title="Obtenir le nom d&#39;un hôte à partir de son adresse IPv4.">
<polygon fill="none" stroke="black" points="356,-202.5 356,-221.5 442,-221.5 442,-202.5 356,-202.5"/>
<text text-anchor="middle" x="399" y="-209.5" font-family="Helvetica,sans-Serif" font-size="10.00">reverse_dns_v4</text>
</a>
</g>
</g>
<!-- Node3&#45;&gt;Node5 -->
<g id="edge4" class="edge"><title>Node3&#45;&gt;Node5</title>
<path fill="none" stroke="midnightblue" d="M312.604,-225.299C323.029,-223.676 334.592,-221.875 345.756,-220.136"/>
<polygon fill="midnightblue" stroke="midnightblue" points="346.509,-223.561 355.852,-218.564 345.432,-216.645 346.509,-223.561"/>
</g>
<!-- Node10&#45;&gt;Node8 -->
<g id="edge10" class="edge"><title>Node10&#45;&gt;Node8</title>
<path fill="none" stroke="midnightblue" d="M149.625,-51.683C161.55,-55.0891 179.227,-60.5844 194,-67 213.264,-75.3662 234.018,-86.8591 249.559,-96.0009"/>
<polygon fill="midnightblue" stroke="midnightblue" points="248.121,-99.2189 258.501,-101.34 251.71,-93.2086 248.121,-99.2189"/>
</g>
</g>
</svg>
