<?xml version="1.0" encoding="UTF-8" standalone="no"?>
<!DOCTYPE svg PUBLIC "-//W3C//DTD SVG 1.1//EN"
 "http://www.w3.org/Graphics/SVG/1.1/DTD/svg11.dtd">
<!-- Generated by graphviz version 2.30.1 (20130712.1527)
 -->
<!-- Title: src/packet.c Pages: 1 -->
<svg width="921pt" height="364pt"
 viewBox="0.00 0.00 921.20 364.00" xmlns="http://www.w3.org/2000/svg" xmlns:xlink="http://www.w3.org/1999/xlink">
<g id="graph0" class="graph" transform="scale(1 1) rotate(0) translate(4 360)">
<title>src/packet.c</title>
<!-- Node1 -->
<g id="node1" class="node"><title>Node1</title>
<polygon fill="#bfbfbf" stroke="black" points="473.5,-336.5 473.5,-355.5 544.5,-355.5 544.5,-336.5 473.5,-336.5"/>
<text text-anchor="middle" x="509" y="-343.5" font-family="Helvetica,sans-Serif" font-size="10.00">src/packet.c</text>
</g>
<!-- Node2 -->
<g id="node2" class="node"><title>Node2</title>
<g id="a_node2"><a xlink:href="../../d3/d76/packet_8h.html" target="_top" xlink:title="Utilitaires pour créer des paquets (header)">
<polygon fill="none" stroke="black" points="482,-280.5 482,-299.5 536,-299.5 536,-280.5 482,-280.5"/>
<text text-anchor="middle" x="509" y="-287.5" font-family="Helvetica,sans-Serif" font-size="10.00">packet.h</text>
</a>
</g>
</g>
<!-- Node1&#45;&gt;Node2 -->
<g id="edge1" class="edge"><title>Node1&#45;&gt;Node2</title>
<path fill="none" stroke="midnightblue" d="M509,-336.083C509,-329.006 509,-318.861 509,-309.986"/>
<polygon fill="midnightblue" stroke="midnightblue" points="512.5,-309.751 509,-299.751 505.5,-309.751 512.5,-309.751"/>
</g>
<!-- Node3 -->
<g id="node3" class="node"><title>Node3</title>
<polygon fill="none" stroke="#bfbfbf" points="66.5,-112.5 66.5,-131.5 157.5,-131.5 157.5,-112.5 66.5,-112.5"/>
<text text-anchor="middle" x="112" y="-119.5" font-family="Helvetica,sans-Serif" font-size="10.00">netinet/ip_icmp.h</text>
</g>
<!-- Node2&#45;&gt;Node3 -->
<g id="edge2" class="edge"><title>Node2&#45;&gt;Node3</title>
<path fill="none" stroke="midnightblue" d="M486.024,-280.479C462.353,-271.626 424.44,-257.241 392,-244 299.381,-206.195 190.987,-158.297 140.532,-135.787"/>
<polygon fill="midnightblue" stroke="midnightblue" points="141.793,-132.517 131.235,-131.634 138.938,-138.908 141.793,-132.517"/>
</g>
<!-- Node4 -->
<g id="node4" class="node"><title>Node4</title>
<polygon fill="none" stroke="#bfbfbf" points="175.5,-112.5 175.5,-131.5 258.5,-131.5 258.5,-112.5 175.5,-112.5"/>
<text text-anchor="middle" x="217" y="-119.5" font-family="Helvetica,sans-Serif" font-size="10.00">netinet/icmp6.h</text>
</g>
<!-- Node2&#45;&gt;Node4 -->
<g id="edge3" class="edge"><title>Node2&#45;&gt;Node4</title>
<path fill="none" stroke="midnightblue" d="M493.647,-280.402C477.53,-271.366 451.46,-256.726 429,-244 360.679,-205.288 280.193,-159.224 240.946,-136.732"/>
<polygon fill="midnightblue" stroke="midnightblue" points="242.306,-133.477 231.889,-131.541 238.825,-139.55 242.306,-133.477"/>
</g>
<!-- Node5 -->
<g id="node5" class="node"><title>Node5</title>
<polygon fill="none" stroke="#bfbfbf" points="835.5,-112.5 835.5,-131.5 900.5,-131.5 900.5,-112.5 835.5,-112.5"/>
<text text-anchor="middle" x="868" y="-119.5" font-family="Helvetica,sans-Serif" font-size="10.00">netinet/ip.h</text>
</g>
<!-- Node2&#45;&gt;Node5 -->
<g id="edge4" class="edge"><title>Node2&#45;&gt;Node5</title>
<path fill="none" stroke="midnightblue" d="M536.093,-287.371C577.736,-283.982 659.137,-273.801 721,-244 776.355,-217.334 828.825,-165.598 853.416,-139.258"/>
<polygon fill="midnightblue" stroke="midnightblue" points="856.204,-141.396 860.388,-131.662 851.047,-136.662 856.204,-141.396"/>
</g>
<!-- Node6 -->
<g id="node6" class="node"><title>Node6</title>
<polygon fill="none" stroke="#bfbfbf" points="747,-112.5 747,-131.5 817,-131.5 817,-112.5 747,-112.5"/>
<text text-anchor="middle" x="782" y="-119.5" font-family="Helvetica,sans-Serif" font-size="10.00">netinet/ip6.h</text>
</g>
<!-- Node2&#45;&gt;Node6 -->
<g id="edge5" class="edge"><title>Node2&#45;&gt;Node6</title>
<path fill="none" stroke="midnightblue" d="M536.113,-284.754C571.112,-278.658 633.405,-265.703 683,-244 725.127,-225.565 744.389,-226.192 770,-188 779.088,-174.448 781.782,-155.899 782.382,-142.083"/>
<polygon fill="midnightblue" stroke="midnightblue" points="785.885,-141.841 782.487,-131.806 778.885,-141.769 785.885,-141.841"/>
</g>
<!-- Node7 -->
<g id="node7" class="node"><title>Node7</title>
<polygon fill="none" stroke="#bfbfbf" points="150,-56.5 150,-75.5 218,-75.5 218,-56.5 150,-56.5"/>
<text text-anchor="middle" x="184" y="-63.5" font-family="Helvetica,sans-Serif" font-size="10.00">sys/types.h</text>
</g>
<!-- Node2&#45;&gt;Node7 -->
<g id="edge6" class="edge"><title>Node2&#45;&gt;Node7</title>
<path fill="none" stroke="midnightblue" d="M481.767,-289.563C400.004,-289.576 156.198,-277.013 57,-132 33.7279,-97.9798 94.3786,-80.7224 139.677,-72.8104"/>
<polygon fill="midnightblue" stroke="midnightblue" points="140.349,-76.2471 149.649,-71.1723 139.214,-69.3397 140.349,-76.2471"/>
</g>
<!-- Node8 -->
<g id="node8" class="node"><title>Node8</title>
<polygon fill="none" stroke="#bfbfbf" points="87.5,-0.5 87.5,-19.5 134.5,-19.5 134.5,-0.5 87.5,-0.5"/>
<text text-anchor="middle" x="111" y="-7.5" font-family="Helvetica,sans-Serif" font-size="10.00">errno.h</text>
</g>
<!-- Node2&#45;&gt;Node8 -->
<g id="edge7" class="edge"><title>Node2&#45;&gt;Node8</title>
<path fill="none" stroke="midnightblue" d="M481.993,-288.988C376.764,-288.23 0,-278.562 0,-179 0,-179 0,-179 0,-121 0,-74.8239 49.0635,-41.4259 81.9516,-24.2256"/>
<polygon fill="midnightblue" stroke="midnightblue" points="83.7863,-27.221 91.1554,-19.6087 80.6476,-20.9641 83.7863,-27.221"/>
</g>
<!-- Node9 -->
<g id="node9" class="node"><title>Node9</title>
<g id="a_node9"><a xlink:href="../../d3/d5a/base_8h.html" target="_top" xlink:title="Fonctions et inclusions de base. (header)">
<polygon fill="none" stroke="black" points="738,-56.5 738,-75.5 784,-75.5 784,-56.5 738,-56.5"/>
<text text-anchor="middle" x="761" y="-63.5" font-family="Helvetica,sans-Serif" font-size="10.00">base.h</text>
</a>
</g>
</g>
<!-- Node2&#45;&gt;Node9 -->
<g id="edge8" class="edge"><title>Node2&#45;&gt;Node9</title>
<path fill="none" stroke="midnightblue" d="M536.156,-289.105C614.057,-287.701 837.271,-271.279 909,-132 932.751,-85.8812 845.036,-72.4743 794.445,-68.5845"/>
<polygon fill="midnightblue" stroke="midnightblue" points="794.481,-65.0789 784.266,-67.8905 794.005,-72.0627 794.481,-65.0789"/>
</g>
<!-- Node16 -->
<g id="node16" class="node"><title>Node16</title>
<g id="a_node16"><a xlink:href="../../d7/d13/icmp__util_8h.html" target="_top" xlink:title="Utilitaires ICMP (header)">
<polygon fill="none" stroke="black" points="348,-168.5 348,-187.5 412,-187.5 412,-168.5 348,-168.5"/>
<text text-anchor="middle" x="380" y="-175.5" font-family="Helvetica,sans-Serif" font-size="10.00">icmp_util.h</text>
</a>
</g>
</g>
<!-- Node2&#45;&gt;Node16 -->
<g id="edge16" class="edge"><title>Node2&#45;&gt;Node16</title>
<path fill="none" stroke="midnightblue" d="M498.878,-280.368C477.024,-261.733 425.188,-217.532 397.748,-194.134"/>
<polygon fill="midnightblue" stroke="midnightblue" points="399.956,-191.417 390.075,-187.591 395.414,-196.743 399.956,-191.417"/>
</g>
<!-- Node25 -->
<g id="node25" class="node"><title>Node25</title>
<g id="a_node25"><a xlink:href="../../d4/dbd/ip__util_8h.html" target="_top" xlink:title="Utilitaires IP (header)">
<polygon fill="none" stroke="black" points="580,-168.5 580,-187.5 630,-187.5 630,-168.5 580,-168.5"/>
<text text-anchor="middle" x="605" y="-175.5" font-family="Helvetica,sans-Serif" font-size="10.00">ip_util.h</text>
</a>
</g>
</g>
<!-- Node2&#45;&gt;Node25 -->
<g id="edge34" class="edge"><title>Node2&#45;&gt;Node25</title>
<path fill="none" stroke="midnightblue" d="M516.533,-280.368C532.516,-262.055 570.048,-219.049 590.72,-195.362"/>
<polygon fill="midnightblue" stroke="midnightblue" points="593.564,-197.427 597.502,-187.591 588.29,-192.824 593.564,-197.427"/>
</g>
<!-- Node26 -->
<g id="node26" class="node"><title>Node26</title>
<g id="a_node26"><a xlink:href="../../da/d14/udp__util_8h.html" target="_top" xlink:title="Utilitaires IP (header)">
<polygon fill="none" stroke="black" points="615.5,-224.5 615.5,-243.5 674.5,-243.5 674.5,-224.5 615.5,-224.5"/>
<text text-anchor="middle" x="645" y="-231.5" font-family="Helvetica,sans-Serif" font-size="10.00">udp_util.h</text>
</a>
</g>
</g>
<!-- Node2&#45;&gt;Node26 -->
<g id="edge43" class="edge"><title>Node2&#45;&gt;Node26</title>
<path fill="none" stroke="midnightblue" d="M530.55,-280.444C553.031,-271.517 588.488,-257.439 613.98,-247.317"/>
<polygon fill="midnightblue" stroke="midnightblue" points="615.549,-250.46 623.551,-243.516 612.965,-243.954 615.549,-250.46"/>
</g>
<!-- Node18 -->
<g id="node18" class="node"><title>Node18</title>
<g id="a_node18"><a xlink:href="../../d9/d9b/address_8h.html" target="_top" xlink:title="Utilitaires pour obtenir des addresses. (header)">
<polygon fill="none" stroke="black" points="479.5,-112.5 479.5,-131.5 538.5,-131.5 538.5,-112.5 479.5,-112.5"/>
<text text-anchor="middle" x="509" y="-119.5" font-family="Helvetica,sans-Serif" font-size="10.00">address.h</text>
</a>
</g>
</g>
<!-- Node2&#45;&gt;Node18 -->
<g id="edge49" class="edge"><title>Node2&#45;&gt;Node18</title>
<path fill="none" stroke="midnightblue" d="M509,-280.075C509,-253.945 509,-177.211 509,-141.577"/>
<polygon fill="midnightblue" stroke="midnightblue" points="512.5,-141.568 509,-131.568 505.5,-141.568 512.5,-141.568"/>
</g>
<!-- Node10 -->
<g id="node10" class="node"><title>Node10</title>
<polygon fill="none" stroke="#bfbfbf" points="473,-0.5 473,-19.5 521,-19.5 521,-0.5 473,-0.5"/>
<text text-anchor="middle" x="497" y="-7.5" font-family="Helvetica,sans-Serif" font-size="10.00">stdlib.h</text>
</g>
<!-- Node9&#45;&gt;Node10 -->
<g id="edge9" class="edge"><title>Node9&#45;&gt;Node10</title>
<path fill="none" stroke="midnightblue" d="M737.943,-59.2297C733.333,-58.1217 728.519,-56.997 724,-56 655.898,-40.9743 575.783,-25.6357 531.258,-17.3169"/>
<polygon fill="midnightblue" stroke="midnightblue" points="531.732,-13.8451 521.26,-15.4553 530.45,-20.7268 531.732,-13.8451"/>
</g>
<!-- Node11 -->
<g id="node11" class="node"><title>Node11</title>
<polygon fill="none" stroke="#bfbfbf" points="219,-0.5 219,-19.5 265,-19.5 265,-0.5 219,-0.5"/>
<text text-anchor="middle" x="242" y="-7.5" font-family="Helvetica,sans-Serif" font-size="10.00">stdio.h</text>
</g>
<!-- Node9&#45;&gt;Node11 -->
<g id="edge10" class="edge"><title>Node9&#45;&gt;Node11</title>
<path fill="none" stroke="midnightblue" d="M737.618,-58.7684C733.123,-57.725 728.434,-56.7422 724,-56 556.956,-28.0389 354.221,-16.2141 275.5,-12.4476"/>
<polygon fill="midnightblue" stroke="midnightblue" points="275.384,-8.93843 265.231,-11.9687 275.057,-15.9308 275.384,-8.93843"/>
</g>
<!-- Node12 -->
<g id="node12" class="node"><title>Node12</title>
<polygon fill="none" stroke="#bfbfbf" points="768,-0.5 768,-19.5 824,-19.5 824,-0.5 768,-0.5"/>
<text text-anchor="middle" x="796" y="-7.5" font-family="Helvetica,sans-Serif" font-size="10.00">stdbool.h</text>
</g>
<!-- Node9&#45;&gt;Node12 -->
<g id="edge11" class="edge"><title>Node9&#45;&gt;Node12</title>
<path fill="none" stroke="midnightblue" d="M766.78,-56.083C771.672,-48.5341 778.827,-37.4948 784.833,-28.2298"/>
<polygon fill="midnightblue" stroke="midnightblue" points="787.826,-30.0463 790.328,-19.7511 781.952,-26.239 787.826,-30.0463"/>
</g>
<!-- Node13 -->
<g id="node13" class="node"><title>Node13</title>
<polygon fill="none" stroke="#bfbfbf" points="842,-0.5 842,-19.5 904,-19.5 904,-0.5 842,-0.5"/>
<text text-anchor="middle" x="873" y="-7.5" font-family="Helvetica,sans-Serif" font-size="10.00">sysexits.h</text>
</g>
<!-- Node9&#45;&gt;Node13 -->
<g id="edge12" class="edge"><title>Node9&#45;&gt;Node13</title>
<path fill="none" stroke="midnightblue" d="M778.995,-56.324C797.038,-47.6247 825.047,-34.1202 845.803,-24.113"/>
<polygon fill="midnightblue" stroke="midnightblue" points="847.562,-27.1502 855.05,-19.6545 844.522,-20.8449 847.562,-27.1502"/>
</g>
<!-- Node9&#45;&gt;Node8 -->
<g id="edge13" class="edge"><title>Node9&#45;&gt;Node8</title>
<path fill="none" stroke="midnightblue" d="M737.632,-58.6853C733.135,-57.6495 728.442,-56.6907 724,-56 497.715,-20.8122 438.266,-38.3675 210,-20 188.228,-18.2481 163.786,-16.0287 144.636,-14.2322"/>
<polygon fill="midnightblue" stroke="midnightblue" points="144.877,-10.7394 134.592,-13.2833 144.218,-17.7084 144.877,-10.7394"/>
</g>
<!-- Node14 -->
<g id="node14" class="node"><title>Node14</title>
<polygon fill="none" stroke="#bfbfbf" points="634.5,-0.5 634.5,-19.5 683.5,-19.5 683.5,-0.5 634.5,-0.5"/>
<text text-anchor="middle" x="659" y="-7.5" font-family="Helvetica,sans-Serif" font-size="10.00">string.h</text>
</g>
<!-- Node9&#45;&gt;Node14 -->
<g id="edge14" class="edge"><title>Node9&#45;&gt;Node14</title>
<path fill="none" stroke="midnightblue" d="M744.612,-56.324C728.329,-47.7034 703.133,-34.3643 684.284,-24.3855"/>
<polygon fill="midnightblue" stroke="midnightblue" points="685.823,-21.2402 675.347,-19.6545 682.548,-27.4267 685.823,-21.2402"/>
</g>
<!-- Node15 -->
<g id="node15" class="node"><title>Node15</title>
<polygon fill="none" stroke="#bfbfbf" points="702,-0.5 702,-19.5 750,-19.5 750,-0.5 702,-0.5"/>
<text text-anchor="middle" x="726" y="-7.5" font-family="Helvetica,sans-Serif" font-size="10.00">limits.h</text>
</g>
<!-- Node9&#45;&gt;Node15 -->
<g id="edge15" class="edge"><title>Node9&#45;&gt;Node15</title>
<path fill="none" stroke="midnightblue" d="M755.22,-56.083C750.328,-48.5341 743.173,-37.4948 737.167,-28.2298"/>
<polygon fill="midnightblue" stroke="midnightblue" points="740.048,-26.239 731.672,-19.7511 734.174,-30.0463 740.048,-26.239"/>
</g>
<!-- Node16&#45;&gt;Node3 -->
<g id="edge17" class="edge"><title>Node16&#45;&gt;Node3</title>
<path fill="none" stroke="midnightblue" d="M347.939,-170.54C302.422,-161.369 218.555,-144.47 164.052,-133.488"/>
<polygon fill="midnightblue" stroke="midnightblue" points="164.726,-130.054 154.232,-131.509 163.344,-136.916 164.726,-130.054"/>
</g>
<!-- Node16&#45;&gt;Node4 -->
<g id="edge18" class="edge"><title>Node16&#45;&gt;Node4</title>
<path fill="none" stroke="midnightblue" d="M354.172,-168.444C326.751,-159.359 283.223,-144.939 252.568,-134.783"/>
<polygon fill="midnightblue" stroke="midnightblue" points="253.3,-131.339 242.707,-131.516 251.099,-137.984 253.3,-131.339"/>
</g>
<!-- Node16&#45;&gt;Node7 -->
<g id="edge19" class="edge"><title>Node16&#45;&gt;Node7</title>
<path fill="none" stroke="midnightblue" d="M385.868,-168.387C394.279,-154.87 407.353,-128.518 394,-112 393.339,-111.182 289.265,-89.1578 227.897,-76.2299"/>
<polygon fill="midnightblue" stroke="midnightblue" points="228.577,-72.7964 218.07,-74.1607 227.135,-79.6462 228.577,-72.7964"/>
</g>
<!-- Node16&#45;&gt;Node8 -->
<g id="edge20" class="edge"><title>Node16&#45;&gt;Node8</title>
<path fill="none" stroke="midnightblue" d="M366.148,-168.301C340.707,-152.45 287.288,-119.774 267,-112 195.289,-84.5201 146.316,-135.693 98,-76 87.1756,-62.627 93.4273,-42.7058 100.502,-28.4452"/>
<polygon fill="midnightblue" stroke="midnightblue" points="103.598,-30.0788 105.332,-19.6268 97.4585,-26.7162 103.598,-30.0788"/>
</g>
<!-- Node16&#45;&gt;Node9 -->
<g id="edge21" class="edge"><title>Node16&#45;&gt;Node9</title>
<path fill="none" stroke="midnightblue" d="M412.098,-168.673C445.783,-159.86 500.238,-145.398 547,-132 611.484,-113.524 686.391,-90.3836 728.288,-77.2881"/>
<polygon fill="midnightblue" stroke="midnightblue" points="729.456,-80.5899 737.954,-74.262 727.365,-73.9097 729.456,-80.5899"/>
</g>
<!-- Node17 -->
<g id="node17" class="node"><title>Node17</title>
<g id="a_node17"><a xlink:href="../../dc/d31/checksum_8h.html" target="_top" xlink:title="Internet Checksum. (header)">
<polygon fill="none" stroke="black" points="315,-112.5 315,-131.5 385,-131.5 385,-112.5 315,-112.5"/>
<text text-anchor="middle" x="350" y="-119.5" font-family="Helvetica,sans-Serif" font-size="10.00">checksum.h</text>
</a>
</g>
</g>
<!-- Node16&#45;&gt;Node17 -->
<g id="edge22" class="edge"><title>Node16&#45;&gt;Node17</title>
<path fill="none" stroke="midnightblue" d="M375.046,-168.083C370.896,-160.613 364.847,-149.724 359.733,-140.52"/>
<polygon fill="midnightblue" stroke="midnightblue" points="362.778,-138.793 354.862,-131.751 356.659,-142.192 362.778,-138.793"/>
</g>
<!-- Node16&#45;&gt;Node18 -->
<g id="edge25" class="edge"><title>Node16&#45;&gt;Node18</title>
<path fill="none" stroke="midnightblue" d="M400.44,-168.444C421.67,-159.557 455.099,-145.563 479.255,-135.451"/>
<polygon fill="midnightblue" stroke="midnightblue" points="480.782,-138.606 488.655,-131.516 478.079,-132.149 480.782,-138.606"/>
</g>
<!-- Node17&#45;&gt;Node10 -->
<g id="edge23" class="edge"><title>Node17&#45;&gt;Node10</title>
<path fill="none" stroke="midnightblue" d="M314.645,-113.974C255.764,-102.192 143.747,-79.4019 141,-76 135.415,-69.0847 135.122,-62.6679 141,-56 162.111,-32.0521 377.662,-17.6036 462.735,-12.7959"/>
<polygon fill="midnightblue" stroke="midnightblue" points="463.119,-16.2801 472.909,-12.232 462.731,-9.29087 463.119,-16.2801"/>
</g>
<!-- Node17&#45;&gt;Node11 -->
<g id="edge24" class="edge"><title>Node17&#45;&gt;Node11</title>
<path fill="none" stroke="midnightblue" d="M314.883,-114.543C247.892,-102.216 108.415,-76.4994 108,-76 77.6662,-39.5056 159.7,-21.9299 208.575,-14.9037"/>
<polygon fill="midnightblue" stroke="midnightblue" points="209.301,-18.3373 218.74,-13.5242 208.36,-11.4008 209.301,-18.3373"/>
</g>
<!-- Node18&#45;&gt;Node7 -->
<g id="edge26" class="edge"><title>Node18&#45;&gt;Node7</title>
<path fill="none" stroke="midnightblue" d="M479.218,-114.691C474.47,-113.748 469.606,-112.819 465,-112 362.859,-93.8413 334.016,-94.882 228.358,-76.1587"/>
<polygon fill="midnightblue" stroke="midnightblue" points="228.694,-72.6632 218.234,-74.3462 227.46,-79.5537 228.694,-72.6632"/>
</g>
<!-- Node19 -->
<g id="node19" class="node"><title>Node19</title>
<polygon fill="none" stroke="#bfbfbf" points="236.5,-56.5 236.5,-75.5 309.5,-75.5 309.5,-56.5 236.5,-56.5"/>
<text text-anchor="middle" x="273" y="-63.5" font-family="Helvetica,sans-Serif" font-size="10.00">sys/socket.h</text>
</g>
<!-- Node18&#45;&gt;Node19 -->
<g id="edge27" class="edge"><title>Node18&#45;&gt;Node19</title>
<path fill="none" stroke="midnightblue" d="M479.11,-114.161C438.898,-104.96 366.968,-88.5011 319.613,-77.6657"/>
<polygon fill="midnightblue" stroke="midnightblue" points="320.137,-74.1951 309.608,-75.3764 318.575,-81.0188 320.137,-74.1951"/>
</g>
<!-- Node20 -->
<g id="node20" class="node"><title>Node20</title>
<polygon fill="none" stroke="#bfbfbf" points="327.5,-56.5 327.5,-75.5 376.5,-75.5 376.5,-56.5 327.5,-56.5"/>
<text text-anchor="middle" x="352" y="-63.5" font-family="Helvetica,sans-Serif" font-size="10.00">netdb.h</text>
</g>
<!-- Node18&#45;&gt;Node20 -->
<g id="edge28" class="edge"><title>Node18&#45;&gt;Node20</title>
<path fill="none" stroke="midnightblue" d="M484.123,-112.444C457.633,-103.332 415.538,-88.8539 385.998,-78.6936"/>
<polygon fill="midnightblue" stroke="midnightblue" points="387.097,-75.3704 376.502,-75.4275 384.82,-81.9898 387.097,-75.3704"/>
</g>
<!-- Node21 -->
<g id="node21" class="node"><title>Node21</title>
<polygon fill="none" stroke="#bfbfbf" points="630.5,-56.5 630.5,-75.5 681.5,-75.5 681.5,-56.5 630.5,-56.5"/>
<text text-anchor="middle" x="656" y="-63.5" font-family="Helvetica,sans-Serif" font-size="10.00">unistd.h</text>
</g>
<!-- Node18&#45;&gt;Node21 -->
<g id="edge29" class="edge"><title>Node18&#45;&gt;Node21</title>
<path fill="none" stroke="midnightblue" d="M532.293,-112.444C556.807,-103.438 595.596,-89.1891 623.2,-79.049"/>
<polygon fill="midnightblue" stroke="midnightblue" points="624.637,-82.25 632.816,-75.5164 622.223,-75.6793 624.637,-82.25"/>
</g>
<!-- Node22 -->
<g id="node22" class="node"><title>Node22</title>
<polygon fill="none" stroke="#bfbfbf" points="394.5,-56.5 394.5,-75.5 459.5,-75.5 459.5,-56.5 394.5,-56.5"/>
<text text-anchor="middle" x="427" y="-63.5" font-family="Helvetica,sans-Serif" font-size="10.00">netinet/in.h</text>
</g>
<!-- Node18&#45;&gt;Node22 -->
<g id="edge30" class="edge"><title>Node18&#45;&gt;Node22</title>
<path fill="none" stroke="midnightblue" d="M495.825,-112.324C483.153,-103.979 463.767,-91.2122 448.794,-81.3524"/>
<polygon fill="midnightblue" stroke="midnightblue" points="450.419,-78.2313 440.142,-75.6545 446.569,-84.0776 450.419,-78.2313"/>
</g>
<!-- Node23 -->
<g id="node23" class="node"><title>Node23</title>
<polygon fill="none" stroke="#bfbfbf" points="478,-56.5 478,-75.5 540,-75.5 540,-56.5 478,-56.5"/>
<text text-anchor="middle" x="509" y="-63.5" font-family="Helvetica,sans-Serif" font-size="10.00">arpa/inet.h</text>
</g>
<!-- Node18&#45;&gt;Node23 -->
<g id="edge31" class="edge"><title>Node18&#45;&gt;Node23</title>
<path fill="none" stroke="midnightblue" d="M509,-112.083C509,-105.006 509,-94.8611 509,-85.9865"/>
<polygon fill="midnightblue" stroke="midnightblue" points="512.5,-85.751 509,-75.7511 505.5,-85.7511 512.5,-85.751"/>
</g>
<!-- Node24 -->
<g id="node24" class="node"><title>Node24</title>
<polygon fill="none" stroke="#bfbfbf" points="558,-56.5 558,-75.5 612,-75.5 612,-56.5 558,-56.5"/>
<text text-anchor="middle" x="585" y="-63.5" font-family="Helvetica,sans-Serif" font-size="10.00">ifaddrs.h</text>
</g>
<!-- Node18&#45;&gt;Node24 -->
<g id="edge32" class="edge"><title>Node18&#45;&gt;Node24</title>
<path fill="none" stroke="midnightblue" d="M521.211,-112.324C532.776,-104.107 550.375,-91.6017 564.161,-81.8069"/>
<polygon fill="midnightblue" stroke="midnightblue" points="566.443,-84.4791 572.567,-75.8339 562.388,-78.7729 566.443,-84.4791"/>
</g>
<!-- Node18&#45;&gt;Node9 -->
<g id="edge33" class="edge"><title>Node18&#45;&gt;Node9</title>
<path fill="none" stroke="midnightblue" d="M538.897,-114.593C586.367,-104.421 678.642,-84.648 727.992,-74.0732"/>
<polygon fill="midnightblue" stroke="midnightblue" points="728.794,-77.4808 737.839,-71.9631 727.328,-70.6361 728.794,-77.4808"/>
</g>
<!-- Node25&#45;&gt;Node5 -->
<g id="edge35" class="edge"><title>Node25&#45;&gt;Node5</title>
<path fill="none" stroke="midnightblue" d="M630.206,-171.955C669.572,-164.056 748.289,-148.188 825.546,-132.078"/>
<polygon fill="midnightblue" stroke="midnightblue" points="826.374,-135.48 835.448,-130.01 824.943,-128.628 826.374,-135.48"/>
</g>
<!-- Node25&#45;&gt;Node6 -->
<g id="edge36" class="edge"><title>Node25&#45;&gt;Node6</title>
<path fill="none" stroke="midnightblue" d="M630.36,-169.263C660.201,-160.159 710.028,-144.957 744.375,-134.479"/>
<polygon fill="midnightblue" stroke="midnightblue" points="745.516,-137.79 754.059,-131.524 743.473,-131.095 745.516,-137.79"/>
</g>
<!-- Node25&#45;&gt;Node7 -->
<g id="edge37" class="edge"><title>Node25&#45;&gt;Node7</title>
<path fill="none" stroke="midnightblue" d="M579.857,-168.661C552.736,-159.657 508.288,-144.871 470,-132 443.755,-123.178 437.757,-119.119 411,-112 333.54,-91.3923 310.417,-92.4205 228.298,-76.2205"/>
<polygon fill="midnightblue" stroke="midnightblue" points="228.751,-72.7419 218.259,-74.2128 227.379,-79.606 228.751,-72.7419"/>
</g>
<!-- Node25&#45;&gt;Node8 -->
<g id="edge38" class="edge"><title>Node25&#45;&gt;Node8</title>
<path fill="none" stroke="midnightblue" d="M613.692,-168.317C633.731,-148.058 682.067,-97.7454 690,-76 693.046,-67.6494 696.046,-62.5162 690,-56 653.623,-16.793 263.3,-24.4212 210,-20 188.232,-18.1944 163.79,-15.9743 144.639,-14.191"/>
<polygon fill="midnightblue" stroke="midnightblue" points="144.877,-10.6981 134.594,-13.2506 144.225,-17.6676 144.877,-10.6981"/>
</g>
<!-- Node25&#45;&gt;Node21 -->
<g id="edge39" class="edge"><title>Node25&#45;&gt;Node21</title>
<path fill="none" stroke="midnightblue" d="M607.615,-168.378C611.577,-155.728 619.639,-131.525 629,-112 633.53,-102.552 639.438,-92.5118 644.573,-84.3177"/>
<polygon fill="midnightblue" stroke="midnightblue" points="647.654,-85.9976 650.116,-75.6928 641.765,-82.2131 647.654,-85.9976"/>
</g>
<!-- Node25&#45;&gt;Node9 -->
<g id="edge40" class="edge"><title>Node25&#45;&gt;Node9</title>
<path fill="none" stroke="midnightblue" d="M617.241,-168.368C643.897,-149.573 707.438,-104.768 740.389,-81.5334"/>
<polygon fill="midnightblue" stroke="midnightblue" points="742.66,-84.2146 748.816,-75.5914 738.626,-78.4938 742.66,-84.2146"/>
</g>
<!-- Node25&#45;&gt;Node17 -->
<g id="edge41" class="edge"><title>Node25&#45;&gt;Node17</title>
<path fill="none" stroke="midnightblue" d="M579.617,-171.625C536.657,-162.527 449.059,-143.977 395.345,-132.602"/>
<polygon fill="midnightblue" stroke="midnightblue" points="395.91,-129.145 385.402,-130.497 394.46,-135.993 395.91,-129.145"/>
</g>
<!-- Node25&#45;&gt;Node18 -->
<g id="edge42" class="edge"><title>Node25&#45;&gt;Node18</title>
<path fill="none" stroke="midnightblue" d="M589.576,-168.324C574.46,-159.822 551.185,-146.729 533.529,-136.797"/>
<polygon fill="midnightblue" stroke="midnightblue" points="534.817,-133.507 524.386,-131.655 531.386,-139.608 534.817,-133.507"/>
</g>
<!-- Node27 -->
<g id="node27" class="node"><title>Node27</title>
<polygon fill="none" stroke="#bfbfbf" points="688.5,-168.5 688.5,-187.5 761.5,-187.5 761.5,-168.5 688.5,-168.5"/>
<text text-anchor="middle" x="725" y="-175.5" font-family="Helvetica,sans-Serif" font-size="10.00">netinet/udp.h</text>
</g>
<!-- Node26&#45;&gt;Node27 -->
<g id="edge44" class="edge"><title>Node26&#45;&gt;Node27</title>
<path fill="none" stroke="midnightblue" d="M657.853,-224.324C670.216,-215.979 689.13,-203.212 703.737,-193.352"/>
<polygon fill="midnightblue" stroke="midnightblue" points="705.848,-196.15 712.179,-187.655 701.932,-190.348 705.848,-196.15"/>
</g>
<!-- Node26&#45;&gt;Node5 -->
<g id="edge45" class="edge"><title>Node26&#45;&gt;Node5</title>
<path fill="none" stroke="midnightblue" d="M674.618,-224.547C700.48,-216.653 738.673,-203.74 770,-188 798.978,-173.44 829.725,-151.924 848.889,-137.689"/>
<polygon fill="midnightblue" stroke="midnightblue" points="851.186,-140.341 857.07,-131.53 846.976,-134.749 851.186,-140.341"/>
</g>
<!-- Node26&#45;&gt;Node9 -->
<g id="edge46" class="edge"><title>Node26&#45;&gt;Node9</title>
<path fill="none" stroke="midnightblue" d="M648.879,-224.279C654.71,-211.505 666.4,-187.15 679,-168 699.871,-136.278 728.695,-102.662 746.024,-83.3199"/>
<polygon fill="midnightblue" stroke="midnightblue" points="748.784,-85.4864 752.899,-75.7234 743.594,-80.7891 748.784,-85.4864"/>
</g>
<!-- Node26&#45;&gt;Node25 -->
<g id="edge47" class="edge"><title>Node26&#45;&gt;Node25</title>
<path fill="none" stroke="midnightblue" d="M638.395,-224.083C632.745,-216.455 624.455,-205.264 617.549,-195.941"/>
<polygon fill="midnightblue" stroke="midnightblue" points="620.247,-193.703 611.482,-187.751 614.622,-197.87 620.247,-193.703"/>
</g>
<!-- Node26&#45;&gt;Node18 -->
<g id="edge48" class="edge"><title>Node26&#45;&gt;Node18</title>
<path fill="none" stroke="midnightblue" d="M628.312,-224.497C612.755,-216.2 589.273,-202.707 571,-188 552.689,-173.263 534.449,-153.348 522.543,-139.461"/>
<polygon fill="midnightblue" stroke="midnightblue" points="525.122,-137.089 516.004,-131.693 519.766,-141.597 525.122,-137.089"/>
</g>
</g>
</svg>
