<?xml version="1.0" encoding="UTF-8" standalone="no"?>
<!DOCTYPE svg PUBLIC "-//W3C//DTD SVG 1.1//EN"
 "http://www.w3.org/Graphics/SVG/1.1/DTD/svg11.dtd">
<!-- Generated by graphviz version 2.30.1 (20130712.1527)
 -->
<!-- Title: icmp4_packet_set_echo_seq Pages: 1 -->
<svg width="390pt" height="104pt"
 viewBox="0.00 0.00 390.00 104.00" xmlns="http://www.w3.org/2000/svg" xmlns:xlink="http://www.w3.org/1999/xlink">
<g id="graph0" class="graph" transform="scale(1 1) rotate(0) translate(4 100)">
<title>icmp4_packet_set_echo_seq</title>
<!-- Node1 -->
<g id="node1" class="node"><title>Node1</title>
<polygon fill="#bfbfbf" stroke="black" points="0.5,-38.5 0.5,-57.5 143.5,-57.5 143.5,-38.5 0.5,-38.5"/>
<text text-anchor="middle" x="72" y="-45.5" font-family="Helvetica,sans-Serif" font-size="10.00">icmp4_packet_set_echo_seq</text>
</g>
<!-- Node2 -->
<g id="node2" class="node"><title>Node2</title>
<g id="a_node2"><a xlink:href="../../d3/d5a/base_8h_a58ba35289e8c456e6beb956ae2057469.html#a58ba35289e8c456e6beb956ae2057469" target="_top" xlink:title="Vérifier qu&#39;un pointeur ne pointe pas vers NULL.">
<polygon fill="none" stroke="black" points="304.5,-76.5 304.5,-95.5 381.5,-95.5 381.5,-76.5 304.5,-76.5"/>
<text text-anchor="middle" x="343" y="-83.5" font-family="Helvetica,sans-Serif" font-size="10.00">check_pointer</text>
</a>
</g>
</g>
<!-- Node1&#45;&gt;Node2 -->
<g id="edge1" class="edge"><title>Node1&#45;&gt;Node2</title>
<path fill="none" stroke="midnightblue" d="M122.981,-57.5046C140.924,-60.75 161.334,-64.2506 180,-67 218.299,-72.6412 261.89,-77.6756 294.2,-81.1426"/>
<polygon fill="midnightblue" stroke="midnightblue" points="293.959,-84.6367 304.273,-82.212 294.698,-77.6758 293.959,-84.6367"/>
</g>
<!-- Node3 -->
<g id="node3" class="node"><title>Node3</title>
<g id="a_node3"><a xlink:href="../../d7/d13/icmp__util_8h_afe296c49e028d34dfdc018351fe39a2e.html#afe296c49e028d34dfdc018351fe39a2e" target="_top" xlink:title="Checksum.">
<polygon fill="none" stroke="black" points="180,-38.5 180,-57.5 268,-57.5 268,-38.5 180,-38.5"/>
<text text-anchor="middle" x="224" y="-45.5" font-family="Helvetica,sans-Serif" font-size="10.00">icmp_checksum</text>
</a>
</g>
</g>
<!-- Node1&#45;&gt;Node3 -->
<g id="edge2" class="edge"><title>Node1&#45;&gt;Node3</title>
<path fill="none" stroke="midnightblue" d="M143.608,-48C152.359,-48 161.191,-48 169.624,-48"/>
<polygon fill="midnightblue" stroke="midnightblue" points="169.68,-51.5001 179.68,-48 169.68,-44.5001 169.68,-51.5001"/>
</g>
<!-- Node5 -->
<g id="node5" class="node"><title>Node5</title>
<g id="a_node5"><a xlink:href="../../d7/d13/icmp__util_8h_a65554e8d1aed22d72e2554d184fe72d8.html#a65554e8d1aed22d72e2554d184fe72d8" target="_top" xlink:title="Modifier les infos pour un ICMP_ECHO.">
<polygon fill="none" stroke="black" points="182.5,-0.5 182.5,-19.5 265.5,-19.5 265.5,-0.5 182.5,-0.5"/>
<text text-anchor="middle" x="224" y="-7.5" font-family="Helvetica,sans-Serif" font-size="10.00">icmp_set_echo</text>
</a>
</g>
</g>
<!-- Node1&#45;&gt;Node5 -->
<g id="edge5" class="edge"><title>Node1&#45;&gt;Node5</title>
<path fill="none" stroke="midnightblue" d="M110.851,-38.411C130.467,-33.4417 154.619,-27.3233 175.479,-22.0387"/>
<polygon fill="midnightblue" stroke="midnightblue" points="176.587,-25.3687 185.421,-19.5201 174.868,-18.5831 176.587,-25.3687"/>
</g>
<!-- Node3&#45;&gt;Node2 -->
<g id="edge3" class="edge"><title>Node3&#45;&gt;Node2</title>
<path fill="none" stroke="midnightblue" d="M254.524,-57.589C269.212,-62.3594 287.16,-68.1888 302.968,-73.3229"/>
<polygon fill="midnightblue" stroke="midnightblue" points="301.893,-76.6538 312.485,-76.4141 304.056,-69.9961 301.893,-76.6538"/>
</g>
<!-- Node4 -->
<g id="node4" class="node"><title>Node4</title>
<g id="a_node4"><a xlink:href="../../dc/d31/checksum_8h_a7828c8e3be5232a22a919d3686d98b80.html#a7828c8e3be5232a22a919d3686d98b80" target="_top" xlink:title="Calculer l&#39;Internet Checksum (RFC 1071).">
<polygon fill="none" stroke="black" points="312,-38.5 312,-57.5 374,-57.5 374,-38.5 312,-38.5"/>
<text text-anchor="middle" x="343" y="-45.5" font-family="Helvetica,sans-Serif" font-size="10.00">checksum</text>
</a>
</g>
</g>
<!-- Node3&#45;&gt;Node4 -->
<g id="edge4" class="edge"><title>Node3&#45;&gt;Node4</title>
<path fill="none" stroke="midnightblue" d="M268.234,-48C279.185,-48 290.904,-48 301.704,-48"/>
<polygon fill="midnightblue" stroke="midnightblue" points="301.721,-51.5001 311.721,-48 301.721,-44.5001 301.721,-51.5001"/>
</g>
</g>
</svg>
