<?xml version="1.0" encoding="UTF-8" standalone="no"?>
<!DOCTYPE svg PUBLIC "-//W3C//DTD SVG 1.1//EN"
 "http://www.w3.org/Graphics/SVG/1.1/DTD/svg11.dtd">
<!-- Generated by graphviz version 2.30.1 (20130712.1527)
 -->
<!-- Title: icmp4_packet_init Pages: 1 -->
<svg width="342pt" height="180pt"
 viewBox="0.00 0.00 342.00 180.00" xmlns="http://www.w3.org/2000/svg" xmlns:xlink="http://www.w3.org/1999/xlink">
<g id="graph0" class="graph" transform="scale(1 1) rotate(0) translate(4 176)">
<title>icmp4_packet_init</title>
<!-- Node1 -->
<g id="node1" class="node"><title>Node1</title>
<polygon fill="#bfbfbf" stroke="black" points="0.5,-76.5 0.5,-95.5 95.5,-95.5 95.5,-76.5 0.5,-76.5"/>
<text text-anchor="middle" x="48" y="-83.5" font-family="Helvetica,sans-Serif" font-size="10.00">icmp4_packet_init</text>
</g>
<!-- Node2 -->
<g id="node2" class="node"><title>Node2</title>
<g id="a_node2"><a xlink:href="../../d3/d5a/base_8h_a58ba35289e8c456e6beb956ae2057469.html#a58ba35289e8c456e6beb956ae2057469" target="_top" xlink:title="Vérifier qu&#39;un pointeur ne pointe pas vers NULL.">
<polygon fill="none" stroke="black" points="256.5,-95.5 256.5,-114.5 333.5,-114.5 333.5,-95.5 256.5,-95.5"/>
<text text-anchor="middle" x="295" y="-102.5" font-family="Helvetica,sans-Serif" font-size="10.00">check_pointer</text>
</a>
</g>
</g>
<!-- Node1&#45;&gt;Node2 -->
<g id="edge1" class="edge"><title>Node1&#45;&gt;Node2</title>
<path fill="none" stroke="midnightblue" d="M95.6593,-89.6185C138.846,-92.9677 202.767,-97.9248 246.287,-101.3"/>
<polygon fill="midnightblue" stroke="midnightblue" points="246.099,-104.796 256.339,-102.079 246.64,-97.8166 246.099,-104.796"/>
</g>
<!-- Node3 -->
<g id="node3" class="node"><title>Node3</title>
<g id="a_node3"><a xlink:href="../../d7/d13/icmp__util_8h_afe296c49e028d34dfdc018351fe39a2e.html#afe296c49e028d34dfdc018351fe39a2e" target="_top" xlink:title="Checksum.">
<polygon fill="none" stroke="black" points="132,-0.5 132,-19.5 220,-19.5 220,-0.5 132,-0.5"/>
<text text-anchor="middle" x="176" y="-7.5" font-family="Helvetica,sans-Serif" font-size="10.00">icmp_checksum</text>
</a>
</g>
</g>
<!-- Node1&#45;&gt;Node3 -->
<g id="edge2" class="edge"><title>Node1&#45;&gt;Node3</title>
<path fill="none" stroke="midnightblue" d="M61.4637,-76.3482C77.3019,-64.3444 105.744,-43.6494 132,-29 135.087,-27.2776 138.36,-25.5942 141.668,-23.9858"/>
<polygon fill="midnightblue" stroke="midnightblue" points="143.356,-27.0614 150.958,-19.6818 140.414,-20.7099 143.356,-27.0614"/>
</g>
<!-- Node5 -->
<g id="node5" class="node"><title>Node5</title>
<g id="a_node5"><a xlink:href="../../d7/d13/icmp__util_8h_a7d45a65add662fd815d8ff7f68cc19a2.html#a7d45a65add662fd815d8ff7f68cc19a2" target="_top" xlink:title="Modifier le code.">
<polygon fill="none" stroke="black" points="134.5,-152.5 134.5,-171.5 217.5,-171.5 217.5,-152.5 134.5,-152.5"/>
<text text-anchor="middle" x="176" y="-159.5" font-family="Helvetica,sans-Serif" font-size="10.00">icmp_set_code</text>
</a>
</g>
</g>
<!-- Node1&#45;&gt;Node5 -->
<g id="edge5" class="edge"><title>Node1&#45;&gt;Node5</title>
<path fill="none" stroke="midnightblue" d="M61.4637,-95.6518C77.3019,-107.656 105.744,-128.351 132,-143 135.087,-144.722 138.36,-146.406 141.668,-148.014"/>
<polygon fill="midnightblue" stroke="midnightblue" points="140.414,-151.29 150.958,-152.318 143.356,-144.939 140.414,-151.29"/>
</g>
<!-- Node6 -->
<g id="node6" class="node"><title>Node6</title>
<g id="a_node6"><a xlink:href="../../d7/d13/icmp__util_8h_a65554e8d1aed22d72e2554d184fe72d8.html#a65554e8d1aed22d72e2554d184fe72d8" target="_top" xlink:title="Modifier les infos pour un ICMP_ECHO.">
<polygon fill="none" stroke="black" points="134.5,-38.5 134.5,-57.5 217.5,-57.5 217.5,-38.5 134.5,-38.5"/>
<text text-anchor="middle" x="176" y="-45.5" font-family="Helvetica,sans-Serif" font-size="10.00">icmp_set_echo</text>
</a>
</g>
</g>
<!-- Node1&#45;&gt;Node6 -->
<g id="edge7" class="edge"><title>Node1&#45;&gt;Node6</title>
<path fill="none" stroke="midnightblue" d="M80.7951,-76.411C96.7621,-71.5956 116.307,-65.7012 133.447,-60.532"/>
<polygon fill="midnightblue" stroke="midnightblue" points="134.652,-63.8244 143.215,-57.5859 132.63,-57.1225 134.652,-63.8244"/>
</g>
<!-- Node7 -->
<g id="node7" class="node"><title>Node7</title>
<g id="a_node7"><a xlink:href="../../d7/d13/icmp__util_8h_a3ad2a591351ec64d4e4ffe7e0c4972e7.html#a3ad2a591351ec64d4e4ffe7e0c4972e7" target="_top" xlink:title="Modifier le type.">
<polygon fill="none" stroke="black" points="136,-114.5 136,-133.5 216,-133.5 216,-114.5 136,-114.5"/>
<text text-anchor="middle" x="176" y="-121.5" font-family="Helvetica,sans-Serif" font-size="10.00">icmp_set_type</text>
</a>
</g>
</g>
<!-- Node1&#45;&gt;Node7 -->
<g id="edge8" class="edge"><title>Node1&#45;&gt;Node7</title>
<path fill="none" stroke="midnightblue" d="M80.7951,-95.589C96.7621,-100.404 116.307,-106.299 133.447,-111.468"/>
<polygon fill="midnightblue" stroke="midnightblue" points="132.63,-114.878 143.215,-114.414 134.652,-108.176 132.63,-114.878"/>
</g>
<!-- Node3&#45;&gt;Node2 -->
<g id="edge3" class="edge"><title>Node3&#45;&gt;Node2</title>
<path fill="none" stroke="midnightblue" d="M202.875,-19.5136C208.739,-22.1836 214.773,-25.3667 220,-29 243.952,-45.6477 266.593,-70.7884 280.376,-87.5397"/>
<polygon fill="midnightblue" stroke="midnightblue" points="277.741,-89.848 286.736,-95.4455 283.195,-85.46 277.741,-89.848"/>
</g>
<!-- Node4 -->
<g id="node4" class="node"><title>Node4</title>
<g id="a_node4"><a xlink:href="../../dc/d31/checksum_8h_a7828c8e3be5232a22a919d3686d98b80.html#a7828c8e3be5232a22a919d3686d98b80" target="_top" xlink:title="Calculer l&#39;Internet Checksum (RFC 1071).">
<polygon fill="none" stroke="black" points="264,-0.5 264,-19.5 326,-19.5 326,-0.5 264,-0.5"/>
<text text-anchor="middle" x="295" y="-7.5" font-family="Helvetica,sans-Serif" font-size="10.00">checksum</text>
</a>
</g>
</g>
<!-- Node3&#45;&gt;Node4 -->
<g id="edge4" class="edge"><title>Node3&#45;&gt;Node4</title>
<path fill="none" stroke="midnightblue" d="M220.234,-10C231.185,-10 242.904,-10 253.704,-10"/>
<polygon fill="midnightblue" stroke="midnightblue" points="253.721,-13.5001 263.721,-10 253.721,-6.5001 253.721,-13.5001"/>
</g>
<!-- Node5&#45;&gt;Node2 -->
<g id="edge6" class="edge"><title>Node5&#45;&gt;Node2</title>
<path fill="none" stroke="midnightblue" d="M199.431,-152.384C206.088,-149.451 213.371,-146.163 220,-143 235.779,-135.47 253.184,-126.564 267.147,-119.267"/>
<polygon fill="midnightblue" stroke="midnightblue" points="268.978,-122.259 276.202,-114.509 265.722,-116.062 268.978,-122.259"/>
</g>
<!-- Node7&#45;&gt;Node2 -->
<g id="edge9" class="edge"><title>Node7&#45;&gt;Node2</title>
<path fill="none" stroke="midnightblue" d="M216.285,-117.62C225.843,-116.068 236.172,-114.391 246.081,-112.782"/>
<polygon fill="midnightblue" stroke="midnightblue" points="246.897,-116.195 256.207,-111.137 245.775,-109.286 246.897,-116.195"/>
</g>
</g>
</svg>
