<?xml version="1.0" encoding="UTF-8" standalone="no"?>
<!DOCTYPE svg PUBLIC "-//W3C//DTD SVG 1.1//EN"
 "http://www.w3.org/Graphics/SVG/1.1/DTD/svg11.dtd">
<!-- Generated by graphviz version 2.30.1 (20130712.1527)
 -->
<!-- Title: icmp4_packet_set_ttl Pages: 1 -->
<svg width="340pt" height="104pt"
 viewBox="0.00 0.00 340.00 104.00" xmlns="http://www.w3.org/2000/svg" xmlns:xlink="http://www.w3.org/1999/xlink">
<g id="graph0" class="graph" transform="scale(1 1) rotate(0) translate(4 100)">
<title>icmp4_packet_set_ttl</title>
<!-- Node1 -->
<g id="node1" class="node"><title>Node1</title>
<polygon fill="#bfbfbf" stroke="black" points="0,-38.5 0,-57.5 110,-57.5 110,-38.5 0,-38.5"/>
<text text-anchor="middle" x="55" y="-45.5" font-family="Helvetica,sans-Serif" font-size="10.00">icmp4_packet_set_ttl</text>
</g>
<!-- Node2 -->
<g id="node2" class="node"><title>Node2</title>
<g id="a_node2"><a xlink:href="../../d3/d5a/base_8h_a58ba35289e8c456e6beb956ae2057469.html#a58ba35289e8c456e6beb956ae2057469" target="_top" xlink:title="Vérifier qu&#39;un pointeur ne pointe pas vers NULL.">
<polygon fill="none" stroke="black" points="151.5,-76.5 151.5,-95.5 228.5,-95.5 228.5,-76.5 151.5,-76.5"/>
<text text-anchor="middle" x="190" y="-83.5" font-family="Helvetica,sans-Serif" font-size="10.00">check_pointer</text>
</a>
</g>
</g>
<!-- Node1&#45;&gt;Node2 -->
<g id="edge1" class="edge"><title>Node1&#45;&gt;Node2</title>
<path fill="none" stroke="midnightblue" d="M89.5615,-57.589C106.573,-62.4494 127.432,-68.4091 145.645,-73.6127"/>
<polygon fill="midnightblue" stroke="midnightblue" points="144.872,-77.0321 155.449,-76.4141 146.796,-70.3014 144.872,-77.0321"/>
</g>
<!-- Node3 -->
<g id="node3" class="node"><title>Node3</title>
<g id="a_node3"><a xlink:href="../../d4/dbd/ip__util_8h_a72e243e899f4cc01d7316c041fc00c56.html#a72e243e899f4cc01d7316c041fc00c56" target="_top" xlink:title="Checksum.">
<polygon fill="none" stroke="black" points="146,-38.5 146,-57.5 234,-57.5 234,-38.5 146,-38.5"/>
<text text-anchor="middle" x="190" y="-45.5" font-family="Helvetica,sans-Serif" font-size="10.00">iphdr_checksum</text>
</a>
</g>
</g>
<!-- Node1&#45;&gt;Node3 -->
<g id="edge2" class="edge"><title>Node1&#45;&gt;Node3</title>
<path fill="none" stroke="midnightblue" d="M110.096,-48C118.584,-48 127.35,-48 135.817,-48"/>
<polygon fill="midnightblue" stroke="midnightblue" points="135.957,-51.5001 145.956,-48 135.956,-44.5001 135.957,-51.5001"/>
</g>
<!-- Node5 -->
<g id="node5" class="node"><title>Node5</title>
<g id="a_node5"><a xlink:href="../../d4/dbd/ip__util_8h_adc54766945281f7d5a95a1b26f0da373.html#adc54766945281f7d5a95a1b26f0da373" target="_top" xlink:title="Modifier le TTL.">
<polygon fill="none" stroke="black" points="155,-0.5 155,-19.5 225,-19.5 225,-0.5 155,-0.5"/>
<text text-anchor="middle" x="190" y="-7.5" font-family="Helvetica,sans-Serif" font-size="10.00">iphdr_set_ttl</text>
</a>
</g>
</g>
<!-- Node1&#45;&gt;Node5 -->
<g id="edge4" class="edge"><title>Node1&#45;&gt;Node5</title>
<path fill="none" stroke="midnightblue" d="M89.5615,-38.411C106.573,-33.5506 127.432,-27.5909 145.645,-22.3873"/>
<polygon fill="midnightblue" stroke="midnightblue" points="146.796,-25.6986 155.449,-19.5859 144.872,-18.9679 146.796,-25.6986"/>
</g>
<!-- Node4 -->
<g id="node4" class="node"><title>Node4</title>
<g id="a_node4"><a xlink:href="../../dc/d31/checksum_8h_a7828c8e3be5232a22a919d3686d98b80.html#a7828c8e3be5232a22a919d3686d98b80" target="_top" xlink:title="Calculer l&#39;Internet Checksum (RFC 1071).">
<polygon fill="none" stroke="black" points="270,-38.5 270,-57.5 332,-57.5 332,-38.5 270,-38.5"/>
<text text-anchor="middle" x="301" y="-45.5" font-family="Helvetica,sans-Serif" font-size="10.00">checksum</text>
</a>
</g>
</g>
<!-- Node3&#45;&gt;Node4 -->
<g id="edge3" class="edge"><title>Node3&#45;&gt;Node4</title>
<path fill="none" stroke="midnightblue" d="M234.08,-48C242.531,-48 251.367,-48 259.723,-48"/>
<polygon fill="midnightblue" stroke="midnightblue" points="259.985,-51.5001 269.985,-48 259.985,-44.5001 259.985,-51.5001"/>
</g>
</g>
</svg>
