<?xml version="1.0" encoding="UTF-8" standalone="no"?>
<!DOCTYPE svg PUBLIC "-//W3C//DTD SVG 1.1//EN"
 "http://www.w3.org/Graphics/SVG/1.1/DTD/svg11.dtd">
<!-- Generated by graphviz version 2.30.1 (20130712.1527)
 -->
<!-- Title: icmp4_packet_print Pages: 1 -->
<svg width="342pt" height="66pt"
 viewBox="0.00 0.00 342.00 66.00" xmlns="http://www.w3.org/2000/svg" xmlns:xlink="http://www.w3.org/1999/xlink">
<g id="graph0" class="graph" transform="scale(1 1) rotate(0) translate(4 62)">
<title>icmp4_packet_print</title>
<!-- Node1 -->
<g id="node1" class="node"><title>Node1</title>
<polygon fill="#bfbfbf" stroke="black" points="0.5,-19.5 0.5,-38.5 101.5,-38.5 101.5,-19.5 0.5,-19.5"/>
<text text-anchor="middle" x="51" y="-26.5" font-family="Helvetica,sans-Serif" font-size="10.00">icmp4_packet_print</text>
</g>
<!-- Node2 -->
<g id="node2" class="node"><title>Node2</title>
<g id="a_node2"><a xlink:href="../../d7/d13/icmp__util_8h_afe4ce415809b1afda860324e7a8edaaa.html#afe4ce415809b1afda860324e7a8edaaa" target="_top" xlink:title="Afficher un header.">
<polygon fill="none" stroke="black" points="138,-38.5 138,-57.5 200,-57.5 200,-38.5 138,-38.5"/>
<text text-anchor="middle" x="169" y="-45.5" font-family="Helvetica,sans-Serif" font-size="10.00">icmp_print</text>
</a>
</g>
</g>
<!-- Node1&#45;&gt;Node2 -->
<g id="edge1" class="edge"><title>Node1&#45;&gt;Node2</title>
<path fill="none" stroke="midnightblue" d="M101.531,-37.1128C110.287,-38.547 119.306,-40.0242 127.766,-41.41"/>
<polygon fill="midnightblue" stroke="midnightblue" points="127.32,-44.8835 137.754,-43.046 128.452,-37.9755 127.32,-44.8835"/>
</g>
<!-- Node4 -->
<g id="node4" class="node"><title>Node4</title>
<g id="a_node4"><a xlink:href="../../d4/dbd/ip__util_8h_aa1cb9d3b0826b26c1c4399da7076bd54.html#aa1cb9d3b0826b26c1c4399da7076bd54" target="_top" xlink:title="Afficher le contenu d&#39;un header.">
<polygon fill="none" stroke="black" points="138,-0.5 138,-19.5 200,-19.5 200,-0.5 138,-0.5"/>
<text text-anchor="middle" x="169" y="-7.5" font-family="Helvetica,sans-Serif" font-size="10.00">iphdr_print</text>
</a>
</g>
</g>
<!-- Node1&#45;&gt;Node4 -->
<g id="edge3" class="edge"><title>Node1&#45;&gt;Node4</title>
<path fill="none" stroke="midnightblue" d="M101.531,-20.8872C110.287,-19.453 119.306,-17.9758 127.766,-16.59"/>
<polygon fill="midnightblue" stroke="midnightblue" points="128.452,-20.0245 137.754,-14.954 127.32,-13.1165 128.452,-20.0245"/>
</g>
<!-- Node3 -->
<g id="node3" class="node"><title>Node3</title>
<g id="a_node3"><a xlink:href="../../d3/d5a/base_8h_a58ba35289e8c456e6beb956ae2057469.html#a58ba35289e8c456e6beb956ae2057469" target="_top" xlink:title="Vérifier qu&#39;un pointeur ne pointe pas vers NULL.">
<polygon fill="none" stroke="black" points="246.5,-38.5 246.5,-57.5 323.5,-57.5 323.5,-38.5 246.5,-38.5"/>
<text text-anchor="middle" x="285" y="-45.5" font-family="Helvetica,sans-Serif" font-size="10.00">check_pointer</text>
</a>
</g>
</g>
<!-- Node2&#45;&gt;Node3 -->
<g id="edge2" class="edge"><title>Node2&#45;&gt;Node3</title>
<path fill="none" stroke="midnightblue" d="M200.251,-48C211.279,-48 224.035,-48 236.214,-48"/>
<polygon fill="midnightblue" stroke="midnightblue" points="236.259,-51.5001 246.259,-48 236.259,-44.5001 236.259,-51.5001"/>
</g>
<!-- Node4&#45;&gt;Node3 -->
<g id="edge4" class="edge"><title>Node4&#45;&gt;Node3</title>
<path fill="none" stroke="midnightblue" d="M198.767,-19.589C212.943,-24.3144 230.237,-30.0789 245.532,-35.1774"/>
<polygon fill="midnightblue" stroke="midnightblue" points="244.649,-38.5721 255.242,-38.4141 246.862,-31.9313 244.649,-38.5721"/>
</g>
<!-- Node5 -->
<g id="node5" class="node"><title>Node5</title>
<g id="a_node5"><a xlink:href="../../d9/d9b/address_8h_af2b00f4de6da37f008018849f8153191.html#af2b00f4de6da37f008018849f8153191" target="_top" xlink:title="Afficher une adresse IPv4.">
<polygon fill="none" stroke="black" points="236,-0.5 236,-19.5 334,-19.5 334,-0.5 236,-0.5"/>
<text text-anchor="middle" x="285" y="-7.5" font-family="Helvetica,sans-Serif" font-size="10.00">print_ipv4_address</text>
</a>
</g>
</g>
<!-- Node4&#45;&gt;Node5 -->
<g id="edge5" class="edge"><title>Node4&#45;&gt;Node5</title>
<path fill="none" stroke="midnightblue" d="M200.251,-10C208.206,-10 217.061,-10 225.95,-10"/>
<polygon fill="midnightblue" stroke="midnightblue" points="225.955,-13.5001 235.954,-10 225.954,-6.5001 225.955,-13.5001"/>
</g>
</g>
</svg>
