<?xml version="1.0" encoding="UTF-8" standalone="no"?>
<!DOCTYPE svg PUBLIC "-//W3C//DTD SVG 1.1//EN"
 "http://www.w3.org/Graphics/SVG/1.1/DTD/svg11.dtd">
<!-- Generated by graphviz version 2.30.1 (20130712.1527)
 -->
<!-- Title: icmp6_checksum_packet_print Pages: 1 -->
<svg width="382pt" height="66pt"
 viewBox="0.00 0.00 382.00 66.00" xmlns="http://www.w3.org/2000/svg" xmlns:xlink="http://www.w3.org/1999/xlink">
<g id="graph0" class="graph" transform="scale(1 1) rotate(0) translate(4 62)">
<title>icmp6_checksum_packet_print</title>
<!-- Node1 -->
<g id="node1" class="node"><title>Node1</title>
<polygon fill="#bfbfbf" stroke="black" points="0,-14 0,-44 128,-44 128,-14 0,-14"/>
<text text-anchor="start" x="8" y="-32" font-family="Helvetica,sans-Serif" font-size="10.00">icmp6_checksum_packet</text>
<text text-anchor="middle" x="64" y="-21" font-family="Helvetica,sans-Serif" font-size="10.00">_print</text>
</g>
<!-- Node2 -->
<g id="node2" class="node"><title>Node2</title>
<g id="a_node2"><a xlink:href="../../d4/dbd/ip__util_8h_ac2d4373d14ffe78af20dfcd4e3a1bd01.html#ac2d4373d14ffe78af20dfcd4e3a1bd01" target="_top" xlink:title="Afficher un pseudo header IPv6.">
<polygon fill="none" stroke="black" points="164,-38.5 164,-57.5 260,-57.5 260,-38.5 164,-38.5"/>
<text text-anchor="middle" x="212" y="-45.5" font-family="Helvetica,sans-Serif" font-size="10.00">fake_ip6_hdr_print</text>
</a>
</g>
</g>
<!-- Node1&#45;&gt;Node2 -->
<g id="edge1" class="edge"><title>Node1&#45;&gt;Node2</title>
<path fill="none" stroke="midnightblue" d="M128.189,-37.2232C136.626,-38.3212 145.242,-39.4424 153.574,-40.5267"/>
<polygon fill="midnightblue" stroke="midnightblue" points="153.197,-44.0071 163.565,-41.8269 154.1,-37.0656 153.197,-44.0071"/>
</g>
<!-- Node4 -->
<g id="node4" class="node"><title>Node4</title>
<g id="a_node4"><a xlink:href="../../d7/d13/icmp__util_8h_afe4ce415809b1afda860324e7a8edaaa.html#afe4ce415809b1afda860324e7a8edaaa" target="_top" xlink:title="Afficher un header.">
<polygon fill="none" stroke="black" points="181,-0.5 181,-19.5 243,-19.5 243,-0.5 181,-0.5"/>
<text text-anchor="middle" x="212" y="-7.5" font-family="Helvetica,sans-Serif" font-size="10.00">icmp_print</text>
</a>
</g>
</g>
<!-- Node1&#45;&gt;Node4 -->
<g id="edge3" class="edge"><title>Node1&#45;&gt;Node4</title>
<path fill="none" stroke="midnightblue" d="M128.189,-20.7768C142.661,-18.8934 157.658,-16.9417 170.848,-15.2253"/>
<polygon fill="midnightblue" stroke="midnightblue" points="171.529,-18.6663 180.993,-13.905 170.625,-11.7248 171.529,-18.6663"/>
</g>
<!-- Node3 -->
<g id="node3" class="node"><title>Node3</title>
<g id="a_node3"><a xlink:href="../../d3/d5a/base_8h_a58ba35289e8c456e6beb956ae2057469.html#a58ba35289e8c456e6beb956ae2057469" target="_top" xlink:title="Vérifier qu&#39;un pointeur ne pointe pas vers NULL.">
<polygon fill="none" stroke="black" points="296.5,-19.5 296.5,-38.5 373.5,-38.5 373.5,-19.5 296.5,-19.5"/>
<text text-anchor="middle" x="335" y="-26.5" font-family="Helvetica,sans-Serif" font-size="10.00">check_pointer</text>
</a>
</g>
</g>
<!-- Node2&#45;&gt;Node3 -->
<g id="edge2" class="edge"><title>Node2&#45;&gt;Node3</title>
<path fill="none" stroke="midnightblue" d="M260.128,-40.5997C268.713,-39.2517 277.676,-37.8442 286.278,-36.4935"/>
<polygon fill="midnightblue" stroke="midnightblue" points="286.83,-39.9498 296.166,-34.9409 285.744,-33.0346 286.83,-39.9498"/>
</g>
<!-- Node4&#45;&gt;Node3 -->
<g id="edge4" class="edge"><title>Node4&#45;&gt;Node3</title>
<path fill="none" stroke="midnightblue" d="M243.221,-14.7455C256.177,-16.7798 271.628,-19.206 286.077,-21.4749"/>
<polygon fill="midnightblue" stroke="midnightblue" points="285.95,-24.9977 296.372,-23.0914 287.036,-18.0825 285.95,-24.9977"/>
</g>
</g>
</svg>
