<?xml version="1.0" encoding="UTF-8" standalone="no"?>
<!DOCTYPE svg PUBLIC "-//W3C//DTD SVG 1.1//EN"
 "http://www.w3.org/Graphics/SVG/1.1/DTD/svg11.dtd">
<!-- Generated by graphviz version 2.30.1 (20130712.1527)
 -->
<!-- Title: icmp6_packet_print Pages: 1 -->
<svg width="332pt" height="66pt"
 viewBox="0.00 0.00 332.00 66.00" xmlns="http://www.w3.org/2000/svg" xmlns:xlink="http://www.w3.org/1999/xlink">
<g id="graph0" class="graph" transform="scale(1 1) rotate(0) translate(4 62)">
<title>icmp6_packet_print</title>
<!-- Node1 -->
<g id="node1" class="node"><title>Node1</title>
<polygon fill="#bfbfbf" stroke="black" points="0.5,-19.5 0.5,-38.5 101.5,-38.5 101.5,-19.5 0.5,-19.5"/>
<text text-anchor="middle" x="51" y="-26.5" font-family="Helvetica,sans-Serif" font-size="10.00">icmp6_packet_print</text>
</g>
<!-- Node2 -->
<g id="node2" class="node"><title>Node2</title>
<g id="a_node2"><a xlink:href="../../d7/d13/icmp__util_8h_afe4ce415809b1afda860324e7a8edaaa.html#afe4ce415809b1afda860324e7a8edaaa" target="_top" xlink:title="Afficher un header.">
<polygon fill="none" stroke="black" points="143,-38.5 143,-57.5 205,-57.5 205,-38.5 143,-38.5"/>
<text text-anchor="middle" x="174" y="-45.5" font-family="Helvetica,sans-Serif" font-size="10.00">icmp_print</text>
</a>
</g>
</g>
<!-- Node1&#45;&gt;Node2 -->
<g id="edge1" class="edge"><title>Node1&#45;&gt;Node2</title>
<path fill="none" stroke="midnightblue" d="M101.564,-36.7828C111.93,-38.4106 122.739,-40.1078 132.719,-41.6749"/>
<polygon fill="midnightblue" stroke="midnightblue" points="132.343,-45.1587 142.765,-43.2524 133.429,-38.2435 132.343,-45.1587"/>
</g>
<!-- Node4 -->
<g id="node4" class="node"><title>Node4</title>
<g id="a_node4"><a xlink:href="../../d4/dbd/ip__util_8h_a86789a205822c146699049a3825072fe.html#a86789a205822c146699049a3825072fe" target="_top" xlink:title="Afficher un header IPv6.">
<polygon fill="none" stroke="black" points="138,-0.5 138,-19.5 210,-19.5 210,-0.5 138,-0.5"/>
<text text-anchor="middle" x="174" y="-7.5" font-family="Helvetica,sans-Serif" font-size="10.00">ip6_hdr_print</text>
</a>
</g>
</g>
<!-- Node1&#45;&gt;Node4 -->
<g id="edge3" class="edge"><title>Node1&#45;&gt;Node4</title>
<path fill="none" stroke="midnightblue" d="M101.564,-21.2172C110.195,-19.862 119.132,-18.4586 127.642,-17.1223"/>
<polygon fill="midnightblue" stroke="midnightblue" points="128.426,-20.5422 137.762,-15.5333 127.34,-13.627 128.426,-20.5422"/>
</g>
<!-- Node3 -->
<g id="node3" class="node"><title>Node3</title>
<g id="a_node3"><a xlink:href="../../d3/d5a/base_8h_a58ba35289e8c456e6beb956ae2057469.html#a58ba35289e8c456e6beb956ae2057469" target="_top" xlink:title="Vérifier qu&#39;un pointeur ne pointe pas vers NULL.">
<polygon fill="none" stroke="black" points="246.5,-19.5 246.5,-38.5 323.5,-38.5 323.5,-19.5 246.5,-19.5"/>
<text text-anchor="middle" x="285" y="-26.5" font-family="Helvetica,sans-Serif" font-size="10.00">check_pointer</text>
</a>
</g>
</g>
<!-- Node2&#45;&gt;Node3 -->
<g id="edge2" class="edge"><title>Node2&#45;&gt;Node3</title>
<path fill="none" stroke="midnightblue" d="M205.073,-42.7579C214.719,-41.0764 225.653,-39.1706 236.241,-37.3249"/>
<polygon fill="midnightblue" stroke="midnightblue" points="236.984,-40.7483 246.234,-35.583 235.782,-33.8523 236.984,-40.7483"/>
</g>
<!-- Node4&#45;&gt;Node3 -->
<g id="edge4" class="edge"><title>Node4&#45;&gt;Node3</title>
<path fill="none" stroke="midnightblue" d="M210.088,-16.1163C218.499,-17.5823 227.619,-19.172 236.487,-20.718"/>
<polygon fill="midnightblue" stroke="midnightblue" points="235.89,-24.1666 246.343,-22.4359 237.093,-17.2706 235.89,-24.1666"/>
</g>
</g>
</svg>
