<?xml version="1.0" encoding="UTF-8" standalone="no"?>
<!DOCTYPE svg PUBLIC "-//W3C//DTD SVG 1.1//EN"
 "http://www.w3.org/Graphics/SVG/1.1/DTD/svg11.dtd">
<!-- Generated by graphviz version 2.30.1 (20130712.1527)
 -->
<!-- Title: receive_icmp_v4 Pages: 1 -->
<svg width="454pt" height="82pt"
 viewBox="0.00 0.00 454.00 82.00" xmlns="http://www.w3.org/2000/svg" xmlns:xlink="http://www.w3.org/1999/xlink">
<g id="graph0" class="graph" transform="scale(1 1) rotate(0) translate(4 78)">
<title>receive_icmp_v4</title>
<!-- Node1 -->
<g id="node1" class="node"><title>Node1</title>
<polygon fill="#bfbfbf" stroke="black" points="0,-27.5 0,-46.5 90,-46.5 90,-27.5 0,-27.5"/>
<text text-anchor="middle" x="45" y="-34.5" font-family="Helvetica,sans-Serif" font-size="10.00">receive_icmp_v4</text>
</g>
<!-- Node2 -->
<g id="node2" class="node"><title>Node2</title>
<g id="a_node2"><a xlink:href="../../d5/d74/ping__icmp_8c_adb099e6aac6f37e8b98243533c024332.html#adb099e6aac6f37e8b98243533c024332" target="_top" xlink:title="Réponse du paquet par une réception d&#39;un paquet ICMP_ECHO REPLY.">
<polygon fill="none" stroke="black" points="138,-49.5 138,-68.5 212,-68.5 212,-49.5 138,-49.5"/>
<text text-anchor="middle" x="175" y="-56.5" font-family="Helvetica,sans-Serif" font-size="10.00">answer_send</text>
</a>
</g>
</g>
<!-- Node1&#45;&gt;Node2 -->
<g id="edge1" class="edge"><title>Node1&#45;&gt;Node2</title>
<path fill="none" stroke="midnightblue" d="M100.13,-46.3036C112.892,-48.4971 126.191,-50.7828 137.93,-52.8004"/>
<polygon fill="midnightblue" stroke="midnightblue" points="100.499,-42.8157 90.0503,-44.5712 99.3129,-49.7146 100.499,-42.8157"/>
</g>
<!-- Node5 -->
<g id="node5" class="node"><title>Node5</title>
<g id="a_node5"><a xlink:href="../../d1/d4c/traceroute_8c_a84d8aef6c34459b57288fb88a34aa987.html#a84d8aef6c34459b57288fb88a34aa987" target="_top" xlink:title="Recevoir un paquet IPv4+ICMP (traceroute).">
<polygon fill="none" stroke="black" points="126.5,-0 126.5,-30 223.5,-30 223.5,-0 126.5,-0"/>
<text text-anchor="start" x="134.5" y="-18" font-family="Helvetica,sans-Serif" font-size="10.00">traceroute_receive</text>
<text text-anchor="middle" x="175" y="-7" font-family="Helvetica,sans-Serif" font-size="10.00">_icmp_v4</text>
</a>
</g>
</g>
<!-- Node1&#45;&gt;Node5 -->
<g id="edge4" class="edge"><title>Node1&#45;&gt;Node5</title>
<path fill="none" stroke="midnightblue" d="M100.13,-27.6964C108.849,-26.1979 117.818,-24.6563 126.369,-23.1866"/>
<polygon fill="midnightblue" stroke="midnightblue" points="99.3129,-24.2854 90.0503,-29.4288 100.499,-31.1843 99.3129,-24.2854"/>
</g>
<!-- Node3 -->
<g id="node3" class="node"><title>Node3</title>
<g id="a_node3"><a xlink:href="../../d5/d74/ping__icmp_8c_a291ab2abf1ed6e77d7a8f41281d88a17.html#a291ab2abf1ed6e77d7a8f41281d88a17" target="_top" xlink:title="Fonction réalisant l&#39;affichage et l&#39;application de Ping.">
<polygon fill="none" stroke="black" points="260,-49.5 260,-68.5 300,-68.5 300,-49.5 260,-49.5"/>
<text text-anchor="middle" x="280" y="-56.5" font-family="Helvetica,sans-Serif" font-size="10.00">pi_ng</text>
</a>
</g>
</g>
<!-- Node2&#45;&gt;Node3 -->
<g id="edge2" class="edge"><title>Node2&#45;&gt;Node3</title>
<path fill="none" stroke="midnightblue" d="M222.068,-59C235.406,-59 249.236,-59 259.924,-59"/>
<polygon fill="midnightblue" stroke="midnightblue" points="222.024,-55.5001 212.024,-59 222.024,-62.5001 222.024,-55.5001"/>
</g>
<!-- Node4 -->
<g id="node4" class="node"><title>Node4</title>
<g id="a_node4"><a xlink:href="../../d5/d74/ping__icmp_8c_a21469bf5e3430dbf282e52280882d1af.html#a21469bf5e3430dbf282e52280882d1af" target="_top" xlink:title="Fonction réalisant l&#39;affichage et l&#39;application de Ping avec le choix précis des attentes.">
<polygon fill="none" stroke="black" points="336,-44 336,-74 446,-74 446,-44 336,-44"/>
<text text-anchor="start" x="344" y="-62" font-family="Helvetica,sans-Serif" font-size="10.00">pi_ng_choix_sleep_et</text>
<text text-anchor="middle" x="391" y="-51" font-family="Helvetica,sans-Serif" font-size="10.00">_attente_reception</text>
</a>
</g>
</g>
<!-- Node3&#45;&gt;Node4 -->
<g id="edge3" class="edge"><title>Node3&#45;&gt;Node4</title>
<path fill="none" stroke="midnightblue" d="M310.364,-59C318.264,-59 327.067,-59 335.857,-59"/>
<polygon fill="midnightblue" stroke="midnightblue" points="310.236,-55.5001 300.236,-59 310.236,-62.5001 310.236,-55.5001"/>
</g>
</g>
</svg>
