<?xml version="1.0" encoding="UTF-8" standalone="no"?>
<!DOCTYPE svg PUBLIC "-//W3C//DTD SVG 1.1//EN"
 "http://www.w3.org/Graphics/SVG/1.1/DTD/svg11.dtd">
<!-- Generated by graphviz version 2.30.1 (20130712.1527)
 -->
<!-- Title: icmp6_packet_init Pages: 1 -->
<!--zoomable 558 -->
<svg id="main" version="1.1" xmlns="http://www.w3.org/2000/svg" xmlns:xlink="http://www.w3.org/1999/xlink" xml:space="preserve" onload="init(evt)">
        <defs>
                <circle id="rim" cx="0" cy="0" r="7"/>
                <circle id="rim2" cx="0" cy="0" r="3.5"/>
                <g id="zoomPlus">
                        <use xlink:href="#rim" fill="#404040">
                                <set attributeName="fill" to="#808080" begin="zoomplus.mouseover" end="zoomplus.mouseout"/>
                        </use>
                        <path d="M-4,0h8M0,-4v8" fill="none" stroke="white" stroke-width="1.5" pointer-events="none"/>
                </g>
                <g id="zoomMin">
                        <use xlink:href="#rim" fill="#404040">
                                <set attributeName="fill" to="#808080" begin="zoomminus.mouseover" end="zoomminus.mouseout"/>
                        </use>
                        <path d="M-4,0h8" fill="none" stroke="white" stroke-width="1.5" pointer-events="none"/>
                </g>
                <g id="dirArrow">
                        <path fill="none" stroke="white" stroke-width="1.5" d="M0,-3.0v7 M-2.5,-0.5L0,-3.0L2.5,-0.5"/>
                </g>
               <g id="resetDef">
                       <use xlink:href="#rim2" fill="#404040">
                               <set attributeName="fill" to="#808080" begin="reset.mouseover" end="reset.mouseout"/>
                       </use>
               </g>
        </defs>

<script type="text/javascript">
var viewWidth = 460;
var viewHeight = 558;
var sectionId = 'dynsection-0';
</script>
<script xlink:href="../../svgpan.js"/>
<svg id="graph" class="graph">
<g id="viewport">
<title>icmp6_packet_init</title>
<!-- Node1 -->
<g id="node1" class="node"><title>Node1</title>
<polygon fill="#bfbfbf" stroke="black" points="0.5,-271.5 0.5,-290.5 95.5,-290.5 95.5,-271.5 0.5,-271.5"/>
<text text-anchor="middle" x="48" y="-278.5" font-family="Helvetica,sans-Serif" font-size="10.00">icmp6_packet_init</text>
</g>
<!-- Node2 -->
<g id="node2" class="node"><title>Node2</title>
<g id="a_node2"><a xlink:href="../../d3/d5a/base_8h_a58ba35289e8c456e6beb956ae2057469.html#a58ba35289e8c456e6beb956ae2057469" target="_top" xlink:title="Vérifier qu&#39;un pointeur ne pointe pas vers NULL.">
<polygon fill="none" stroke="black" points="294.5,-328.5 294.5,-347.5 371.5,-347.5 371.5,-328.5 294.5,-328.5"/>
<text text-anchor="middle" x="333" y="-335.5" font-family="Helvetica,sans-Serif" font-size="10.00">check_pointer</text>
</a>
</g>
</g>
<!-- Node1&#45;&gt;Node2 -->
<g id="edge1" class="edge"><title>Node1&#45;&gt;Node2</title>
<path fill="none" stroke="midnightblue" d="M49.4815,-290.867C51.7298,-324.736 64.2196,-436.657 132,-482 178.545,-513.137 210.202,-511.177 258,-482 302.853,-454.62 321.661,-390.431 328.543,-357.798"/>
<polygon fill="midnightblue" stroke="midnightblue" points="332.037,-358.167 330.503,-347.684 325.165,-356.835 332.037,-358.167"/>
</g>
<!-- Node3 -->
<g id="node3" class="node"><title>Node3</title>
<g id="a_node3"><a xlink:href="../../d9/d9b/address_8h_a4cd830d7caea78032021132d23d75bb9.html#a4cd830d7caea78032021132d23d75bb9" target="_top" xlink:title="Obtenir l&#39;adresse IPv6 de la machine.">
<polygon fill="none" stroke="black" points="151,-530.5 151,-549.5 239,-549.5 239,-530.5 151,-530.5"/>
<text text-anchor="middle" x="195" y="-537.5" font-family="Helvetica,sans-Serif" font-size="10.00">get_source_ipv6</text>
</a>
</g>
</g>
<!-- Node1&#45;&gt;Node3 -->
<g id="edge2" class="edge"><title>Node1&#45;&gt;Node3</title>
<path fill="none" stroke="midnightblue" d="M49.6009,-290.522C52.3082,-325.494 66.3036,-448.315 132,-516 135.819,-519.934 140.355,-523.235 145.21,-526.001"/>
<polygon fill="midnightblue" stroke="midnightblue" points="143.692,-529.155 154.21,-530.426 146.78,-522.873 143.692,-529.155"/>
</g>
<!-- Node6 -->
<g id="node6" class="node"><title>Node6</title>
<g id="a_node6"><a xlink:href="../../df/d91/structicmp6__packet_a56693b0f5270e1406a1da4f5a9907e14.html#a56693b0f5270e1406a1da4f5a9907e14" target="_top" xlink:title="Checksum d&#39;un paquet IPv6+ICMP.">
<polygon fill="none" stroke="black" points="140,-443 140,-473 250,-473 250,-443 140,-443"/>
<text text-anchor="start" x="148" y="-461" font-family="Helvetica,sans-Serif" font-size="10.00">icmp6_packet::icmp6</text>
<text text-anchor="middle" x="195" y="-450" font-family="Helvetica,sans-Serif" font-size="10.00">_packet_checksum</text>
</a>
</g>
</g>
<!-- Node1&#45;&gt;Node6 -->
<g id="edge5" class="edge"><title>Node1&#45;&gt;Node6</title>
<path fill="none" stroke="midnightblue" d="M51.732,-290.643C59.6864,-317.067 85.2783,-391.428 132,-433 133.897,-434.688 135.922,-436.269 138.04,-437.751"/>
<polygon fill="midnightblue" stroke="midnightblue" points="136.236,-440.75 146.593,-442.982 139.888,-434.779 136.236,-440.75"/>
</g>
<!-- Node7 -->
<g id="node7" class="node"><title>Node7</title>
<g id="a_node7"><a xlink:href="../../d7/d13/icmp__util_8h_a220ba97e672eedfb660f9c3b0cccf87f.html#a220ba97e672eedfb660f9c3b0cccf87f" target="_top" xlink:title="Changer le code d&#39;un header ICMPv6.">
<polygon fill="none" stroke="black" points="151,-404.5 151,-423.5 239,-423.5 239,-404.5 151,-404.5"/>
<text text-anchor="middle" x="195" y="-411.5" font-family="Helvetica,sans-Serif" font-size="10.00">icmp6_set_code</text>
</a>
</g>
</g>
<!-- Node1&#45;&gt;Node7 -->
<g id="edge6" class="edge"><title>Node1&#45;&gt;Node7</title>
<path fill="none" stroke="midnightblue" d="M53.2991,-290.569C63.6171,-312.447 91.9341,-366.432 132,-395 135.019,-397.153 138.288,-399.066 141.692,-400.766"/>
<polygon fill="midnightblue" stroke="midnightblue" points="140.373,-404.009 150.94,-404.785 143.163,-397.589 140.373,-404.009"/>
</g>
<!-- Node8 -->
<g id="node8" class="node"><title>Node8</title>
<g id="a_node8"><a xlink:href="../../d7/d13/icmp__util_8h_adf88119191ec068dc904d94c0c13c800.html#adf88119191ec068dc904d94c0c13c800" target="_top" xlink:title="Changer l&#39;identifiant et la séquence d&#39;un header ICMPv6.">
<polygon fill="none" stroke="black" points="151,-366.5 151,-385.5 239,-385.5 239,-366.5 151,-366.5"/>
<text text-anchor="middle" x="195" y="-373.5" font-family="Helvetica,sans-Serif" font-size="10.00">icmp6_set_echo</text>
</a>
</g>
</g>
<!-- Node1&#45;&gt;Node8 -->
<g id="edge8" class="edge"><title>Node1&#45;&gt;Node8</title>
<path fill="none" stroke="midnightblue" d="M56.9261,-290.635C70.6146,-306.672 100.282,-338.866 132,-357 135.842,-359.197 139.966,-361.167 144.195,-362.928"/>
<polygon fill="midnightblue" stroke="midnightblue" points="142.96,-366.203 153.552,-366.457 145.431,-359.653 142.96,-366.203"/>
</g>
<!-- Node9 -->
<g id="node9" class="node"><title>Node9</title>
<g id="a_node9"><a xlink:href="../../d7/d13/icmp__util_8h_a9f6d1d5377699ef543df48b357452f35.html#a9f6d1d5377699ef543df48b357452f35" target="_top" xlink:title="Changer le type d&#39;un header ICMPv6.">
<polygon fill="none" stroke="black" points="152,-328.5 152,-347.5 238,-347.5 238,-328.5 152,-328.5"/>
<text text-anchor="middle" x="195" y="-335.5" font-family="Helvetica,sans-Serif" font-size="10.00">icmp6_set_type</text>
</a>
</g>
</g>
<!-- Node1&#45;&gt;Node9 -->
<g id="edge10" class="edge"><title>Node1&#45;&gt;Node9</title>
<path fill="none" stroke="midnightblue" d="M68.1459,-290.642C84.7741,-298.802 109.632,-310.495 132,-319 137.87,-321.232 144.125,-323.393 150.32,-325.409"/>
<polygon fill="midnightblue" stroke="midnightblue" points="149.349,-328.773 159.939,-328.445 151.457,-322.097 149.349,-328.773"/>
</g>
<!-- Node10 -->
<g id="node10" class="node"><title>Node10</title>
<g id="a_node10"><a xlink:href="../../d4/dbd/ip__util_8h_a5a79f6fb2f62db4db66cdf11e9ad102c.html#a5a79f6fb2f62db4db66cdf11e9ad102c" target="_top" xlink:title="Changer l&#39;adresse de destination.">
<polygon fill="none" stroke="black" points="135.5,-290.5 135.5,-309.5 254.5,-309.5 254.5,-290.5 135.5,-290.5"/>
<text text-anchor="middle" x="195" y="-297.5" font-family="Helvetica,sans-Serif" font-size="10.00">ip6_hdr_set_destination</text>
</a>
</g>
</g>
<!-- Node1&#45;&gt;Node10 -->
<g id="edge12" class="edge"><title>Node1&#45;&gt;Node10</title>
<path fill="none" stroke="midnightblue" d="M95.6771,-287.116C105.177,-288.361 115.358,-289.695 125.436,-291.016"/>
<polygon fill="midnightblue" stroke="midnightblue" points="125.082,-294.499 135.452,-292.328 125.992,-287.559 125.082,-294.499"/>
</g>
<!-- Node11 -->
<g id="node11" class="node"><title>Node11</title>
<g id="a_node11"><a xlink:href="../../d4/dbd/ip__util_8h_a00918ad86fe73d8de709214231187c18.html#a00918ad86fe73d8de709214231187c18" target="_top" xlink:title="Changer le flow label.">
<polygon fill="none" stroke="black" points="137,-252.5 137,-271.5 253,-271.5 253,-252.5 137,-252.5"/>
<text text-anchor="middle" x="195" y="-259.5" font-family="Helvetica,sans-Serif" font-size="10.00">ip6_hdr_set_flow_label</text>
</a>
</g>
</g>
<!-- Node1&#45;&gt;Node11 -->
<g id="edge14" class="edge"><title>Node1&#45;&gt;Node11</title>
<path fill="none" stroke="midnightblue" d="M95.6771,-274.884C105.59,-273.585 116.243,-272.189 126.749,-270.812"/>
<polygon fill="midnightblue" stroke="midnightblue" points="127.287,-274.272 136.747,-269.502 126.377,-267.331 127.287,-274.272"/>
</g>
<!-- Node12 -->
<g id="node12" class="node"><title>Node12</title>
<g id="a_node12"><a xlink:href="../../d4/dbd/ip__util_8h_a2c916dee701ab564850d740f1ef69444.html#a2c916dee701ab564850d740f1ef69444" target="_top" xlink:title="Changer le nombre de sauts maximal.">
<polygon fill="none" stroke="black" points="139.5,-214.5 139.5,-233.5 250.5,-233.5 250.5,-214.5 139.5,-214.5"/>
<text text-anchor="middle" x="195" y="-221.5" font-family="Helvetica,sans-Serif" font-size="10.00">ip6_hdr_set_hop_limit</text>
</a>
</g>
</g>
<!-- Node1&#45;&gt;Node12 -->
<g id="edge15" class="edge"><title>Node1&#45;&gt;Node12</title>
<path fill="none" stroke="midnightblue" d="M68.1459,-271.358C84.7741,-263.198 109.632,-251.505 132,-243 137.87,-240.768 144.125,-238.607 150.32,-236.591"/>
<polygon fill="midnightblue" stroke="midnightblue" points="151.457,-239.903 159.939,-233.555 149.349,-233.227 151.457,-239.903"/>
</g>
<!-- Node13 -->
<g id="node13" class="node"><title>Node13</title>
<g id="a_node13"><a xlink:href="../../d4/dbd/ip__util_8h_aae14de17e88b8d5147962c587fe40924.html#aae14de17e88b8d5147962c587fe40924" target="_top" xlink:title="Changer le header suivant.">
<polygon fill="none" stroke="black" points="132.5,-176.5 132.5,-195.5 257.5,-195.5 257.5,-176.5 132.5,-176.5"/>
<text text-anchor="middle" x="195" y="-183.5" font-family="Helvetica,sans-Serif" font-size="10.00">ip6_hdr_set_next_header</text>
</a>
</g>
</g>
<!-- Node1&#45;&gt;Node13 -->
<g id="edge16" class="edge"><title>Node1&#45;&gt;Node13</title>
<path fill="none" stroke="midnightblue" d="M56.9261,-271.365C70.6146,-255.328 100.282,-223.134 132,-205 135.842,-202.803 139.966,-200.833 144.195,-199.072"/>
<polygon fill="midnightblue" stroke="midnightblue" points="145.431,-202.347 153.552,-195.543 142.96,-195.797 145.431,-202.347"/>
</g>
<!-- Node14 -->
<g id="node14" class="node"><title>Node14</title>
<g id="a_node14"><a xlink:href="../../d4/dbd/ip__util_8h_aef9a371aacfba7647436f472bbdd5e8c.html#aef9a371aacfba7647436f472bbdd5e8c" target="_top" xlink:title="Changer la taille.">
<polygon fill="none" stroke="black" points="142,-127 142,-157 248,-157 248,-127 142,-127"/>
<text text-anchor="start" x="150" y="-145" font-family="Helvetica,sans-Serif" font-size="10.00">ip6_hdr_set_payload</text>
<text text-anchor="middle" x="195" y="-134" font-family="Helvetica,sans-Serif" font-size="10.00">_length</text>
</a>
</g>
</g>
<!-- Node1&#45;&gt;Node14 -->
<g id="edge17" class="edge"><title>Node1&#45;&gt;Node14</title>
<path fill="none" stroke="midnightblue" d="M53.6349,-271.344C64.4494,-249.754 93.391,-197.112 132,-167 134.274,-165.227 136.69,-163.562 139.2,-162.002"/>
<polygon fill="midnightblue" stroke="midnightblue" points="140.985,-165.014 148.022,-157.093 137.582,-158.897 140.985,-165.014"/>
</g>
<!-- Node15 -->
<g id="node15" class="node"><title>Node15</title>
<g id="a_node15"><a xlink:href="../../d4/dbd/ip__util_8h_a1b672fc13cf82b1131ad3a85384d8c8b.html#a1b672fc13cf82b1131ad3a85384d8c8b" target="_top" xlink:title="Changer l&#39;adresse source.">
<polygon fill="none" stroke="black" points="144.5,-88.5 144.5,-107.5 245.5,-107.5 245.5,-88.5 144.5,-88.5"/>
<text text-anchor="middle" x="195" y="-95.5" font-family="Helvetica,sans-Serif" font-size="10.00">ip6_hdr_set_source</text>
</a>
</g>
</g>
<!-- Node1&#45;&gt;Node15 -->
<g id="edge18" class="edge"><title>Node1&#45;&gt;Node15</title>
<path fill="none" stroke="midnightblue" d="M51.1112,-271.198C57.726,-242.869 80.7381,-160.162 132,-117 134.035,-115.287 136.222,-113.728 138.516,-112.31"/>
<polygon fill="midnightblue" stroke="midnightblue" points="140.526,-115.211 147.798,-107.507 137.309,-108.994 140.526,-115.211"/>
</g>
<!-- Node16 -->
<g id="node16" class="node"><title>Node16</title>
<g id="a_node16"><a xlink:href="../../d4/dbd/ip__util_8h_a7619709c7054a35f7f3a086ffbdc0a0a.html#a7619709c7054a35f7f3a086ffbdc0a0a" target="_top" xlink:title="Changer la traffic class.">
<polygon fill="none" stroke="black" points="146.5,-39 146.5,-69 243.5,-69 243.5,-39 146.5,-39"/>
<text text-anchor="start" x="154.5" y="-57" font-family="Helvetica,sans-Serif" font-size="10.00">ip6_hdr_set_traffic</text>
<text text-anchor="middle" x="195" y="-46" font-family="Helvetica,sans-Serif" font-size="10.00">_class</text>
</a>
</g>
</g>
<!-- Node1&#45;&gt;Node16 -->
<g id="edge20" class="edge"><title>Node1&#45;&gt;Node16</title>
<path fill="none" stroke="midnightblue" d="M50.3211,-271.09C55.1132,-238.919 74.4392,-136.184 132,-79 133.837,-77.1749 135.825,-75.4781 137.923,-73.9009"/>
<polygon fill="midnightblue" stroke="midnightblue" points="139.965,-76.749 146.48,-68.3936 136.177,-70.8629 139.965,-76.749"/>
</g>
<!-- Node17 -->
<g id="node17" class="node"><title>Node17</title>
<g id="a_node17"><a xlink:href="../../d4/dbd/ip__util_8h_ad468ea1d71af7785f34b7e1fe5f50fea.html#ad468ea1d71af7785f34b7e1fe5f50fea" target="_top" xlink:title="Changer la version.">
<polygon fill="none" stroke="black" points="143,-0.5 143,-19.5 247,-19.5 247,-0.5 143,-0.5"/>
<text text-anchor="middle" x="195" y="-7.5" font-family="Helvetica,sans-Serif" font-size="10.00">ip6_hdr_set_version</text>
</a>
</g>
</g>
<!-- Node1&#45;&gt;Node17 -->
<g id="edge21" class="edge"><title>Node1&#45;&gt;Node17</title>
<path fill="none" stroke="midnightblue" d="M49.1755,-271.407C50.3831,-234.437 59.7673,-99.745 132,-29 133.478,-27.5525 135.063,-26.215 136.732,-24.979"/>
<polygon fill="midnightblue" stroke="midnightblue" points="138.905,-27.7569 145.675,-19.6071 135.301,-21.7563 138.905,-27.7569"/>
</g>
<!-- Node4 -->
<g id="node4" class="node"><title>Node4</title>
<g id="a_node4"><a xlink:href="../../d9/d9b/address_8h_a58de0fb218e18cdb0185b96c6171ed9d.html#a58de0fb218e18cdb0185b96c6171ed9d" target="_top" xlink:title="Obtenir une adresse IPv6.">
<polygon fill="none" stroke="black" points="306.5,-530.5 306.5,-549.5 359.5,-549.5 359.5,-530.5 306.5,-530.5"/>
<text text-anchor="middle" x="333" y="-537.5" font-family="Helvetica,sans-Serif" font-size="10.00">get_ipv6</text>
</a>
</g>
</g>
<!-- Node3&#45;&gt;Node4 -->
<g id="edge3" class="edge"><title>Node3&#45;&gt;Node4</title>
<path fill="none" stroke="midnightblue" d="M239.031,-540C257.333,-540 278.438,-540 295.909,-540"/>
<polygon fill="midnightblue" stroke="midnightblue" points="296.26,-543.5 306.26,-540 296.26,-536.5 296.26,-543.5"/>
</g>
<!-- Node5 -->
<g id="node5" class="node"><title>Node5</title>
<g id="a_node5"><a xlink:href="../../d9/d9b/address_8h_ac2527f2c331db757a25840db6b1068b9.html#ac2527f2c331db757a25840db6b1068b9" target="_top" xlink:title="Obtenir une adresse IP.">
<polygon fill="none" stroke="black" points="408.5,-530.5 408.5,-549.5 451.5,-549.5 451.5,-530.5 408.5,-530.5"/>
<text text-anchor="middle" x="430" y="-537.5" font-family="Helvetica,sans-Serif" font-size="10.00">get_ip</text>
</a>
</g>
</g>
<!-- Node4&#45;&gt;Node5 -->
<g id="edge4" class="edge"><title>Node4&#45;&gt;Node5</title>
<path fill="none" stroke="midnightblue" d="M359.959,-540C371.771,-540 385.839,-540 398.184,-540"/>
<polygon fill="midnightblue" stroke="midnightblue" points="398.489,-543.5 408.489,-540 398.489,-536.5 398.489,-543.5"/>
</g>
<!-- Node7&#45;&gt;Node2 -->
<g id="edge7" class="edge"><title>Node7&#45;&gt;Node2</title>
<path fill="none" stroke="midnightblue" d="M234.885,-404.429C242.744,-401.851 250.799,-398.72 258,-395 278.956,-384.174 299.988,-367.249 314.244,-354.651"/>
<polygon fill="midnightblue" stroke="midnightblue" points="316.736,-357.116 321.803,-347.812 312.039,-351.925 316.736,-357.116"/>
</g>
<!-- Node8&#45;&gt;Node2 -->
<g id="edge9" class="edge"><title>Node8&#45;&gt;Node2</title>
<path fill="none" stroke="midnightblue" d="M230.319,-366.411C247.794,-361.528 269.241,-355.536 287.925,-350.315"/>
<polygon fill="midnightblue" stroke="midnightblue" points="289.003,-353.648 297.692,-347.586 287.119,-346.906 289.003,-353.648"/>
</g>
<!-- Node9&#45;&gt;Node2 -->
<g id="edge11" class="edge"><title>Node9&#45;&gt;Node2</title>
<path fill="none" stroke="midnightblue" d="M238.286,-338C252.857,-338 269.276,-338 284.253,-338"/>
<polygon fill="midnightblue" stroke="midnightblue" points="284.351,-341.5 294.351,-338 284.351,-334.5 284.351,-341.5"/>
</g>
<!-- Node10&#45;&gt;Node2 -->
<g id="edge13" class="edge"><title>Node10&#45;&gt;Node2</title>
<path fill="none" stroke="midnightblue" d="M230.319,-309.589C247.794,-314.472 269.241,-320.464 287.925,-325.685"/>
<polygon fill="midnightblue" stroke="midnightblue" points="287.119,-329.094 297.692,-328.414 289.003,-322.352 287.119,-329.094"/>
</g>
<!-- Node15&#45;&gt;Node2 -->
<g id="edge19" class="edge"><title>Node15&#45;&gt;Node2</title>
<path fill="none" stroke="midnightblue" d="M244.306,-107.626C249.34,-110.077 254.049,-113.15 258,-117 315.599,-173.135 328.365,-275.337 331.194,-318.223"/>
<polygon fill="midnightblue" stroke="midnightblue" points="327.712,-318.647 331.749,-328.442 334.702,-318.267 327.712,-318.647"/>
</g>
<!-- Node17&#45;&gt;Node2 -->
<g id="edge22" class="edge"><title>Node17&#45;&gt;Node2</title>
<path fill="none" stroke="midnightblue" d="M245.253,-19.6032C249.994,-22.0631 254.377,-25.1438 258,-29 298.187,-71.7722 322.693,-256.924 329.821,-318.214"/>
<polygon fill="midnightblue" stroke="midnightblue" points="326.378,-318.908 330.983,-328.45 333.333,-318.119 326.378,-318.908"/>
</g>
</g>
</svg>
        <g id="navigator" transform="translate(0 0)" fill="#404254">
                <rect fill="#f2f5e9" fill-opacity="0.5" stroke="#606060" stroke-width=".5" x="0" y="0" width="60" height="60"/>
                <use id="zoomplus" xlink:href="#zoomPlus" x="17" y="9" onmousedown="handleZoom(evt,'in')"/>
                <use id="zoomminus" xlink:href="#zoomMin" x="42" y="9" onmousedown="handleZoom(evt,'out')"/>
                <use id="reset" xlink:href="#resetDef" x="30" y="36" onmousedown="handleReset()"/>
                <g id="arrowUp" xlink:href="#dirArrow" transform="translate(30 24)" onmousedown="handlePan(0,-1)">
                  <use xlink:href="#rim" fill="#404040">
                        <set attributeName="fill" to="#808080" begin="arrowUp.mouseover" end="arrowUp.mouseout"/>
                  </use>
                  <path fill="none" stroke="white" stroke-width="1.5" d="M0,-3.0v7 M-2.5,-0.5L0,-3.0L2.5,-0.5"/>
                </g>
                <g id="arrowRight" xlink:href="#dirArrow" transform="rotate(90) translate(36 -43)" onmousedown="handlePan(1,0)">
                  <use xlink:href="#rim" fill="#404040">
                        <set attributeName="fill" to="#808080" begin="arrowRight.mouseover" end="arrowRight.mouseout"/>
                  </use>
                  <path fill="none" stroke="white" stroke-width="1.5" d="M0,-3.0v7 M-2.5,-0.5L0,-3.0L2.5,-0.5"/>
                </g>
                <g id="arrowDown" xlink:href="#dirArrow" transform="rotate(180) translate(-30 -48)" onmousedown="handlePan(0,1)">
                  <use xlink:href="#rim" fill="#404040">
                        <set attributeName="fill" to="#808080" begin="arrowDown.mouseover" end="arrowDown.mouseout"/>
                  </use>
                  <path fill="none" stroke="white" stroke-width="1.5" d="M0,-3.0v7 M-2.5,-0.5L0,-3.0L2.5,-0.5"/>
                </g>
                <g id="arrowLeft" xlink:href="#dirArrow" transform="rotate(270) translate(-36 17)" onmousedown="handlePan(-1,0)">
                  <use xlink:href="#rim" fill="#404040">
                        <set attributeName="fill" to="#808080" begin="arrowLeft.mouseover" end="arrowLeft.mouseout"/>
                  </use>
                  <path fill="none" stroke="white" stroke-width="1.5" d="M0,-3.0v7 M-2.5,-0.5L0,-3.0L2.5,-0.5"/>
                </g>
        </g>
        <svg viewBox="0 0 15 15" width="100%" height="30px" preserveAspectRatio="xMaxYMin meet">
         <g id="arrow_out" transform="scale(0.3 0.3)">
          <a xlink:href="packet_8c_a65b5fff2654c7ea3bb5da793d18043ed_a65b5fff2654c7ea3bb5da793d18043ed_cgraph_org.svg" target="_base">
           <rect id="button" ry="5" rx="5" y="6" x="6" height="38" width="38"
                fill="#f2f5e9" fill-opacity="0.5" stroke="#606060" stroke-width="1.0"/>
           <path id="arrow"
             d="M 11.500037,31.436501 C 11.940474,20.09759 22.043105,11.32322 32.158766,21.979434 L 37.068811,17.246167 C 37.068811,17.246167 37.088388,32 37.088388,32 L 22.160133,31.978069 C 22.160133,31.978069 26.997745,27.140456 26.997745,27.140456 C 18.528582,18.264221 13.291696,25.230495 11.500037,31.436501 z"
             style="fill:#404040;"/>
          </a>
         </g>
        </svg>
</svg>
