<?xml version="1.0" encoding="UTF-8" standalone="no"?>
<!DOCTYPE svg PUBLIC "-//W3C//DTD SVG 1.1//EN"
 "http://www.w3.org/Graphics/SVG/1.1/DTD/svg11.dtd">
<!-- Generated by graphviz version 2.30.1 (20130712.1527)
 -->
<!-- Title: icmp4_packet_set_length Pages: 1 -->
<svg width="284pt" height="66pt"
 viewBox="0.00 0.00 284.00 66.00" xmlns="http://www.w3.org/2000/svg" xmlns:xlink="http://www.w3.org/1999/xlink">
<g id="graph0" class="graph" transform="scale(1 1) rotate(0) translate(4 62)">
<title>icmp4_packet_set_length</title>
<!-- Node1 -->
<g id="node1" class="node"><title>Node1</title>
<polygon fill="#bfbfbf" stroke="black" points="0,-19.5 0,-38.5 128,-38.5 128,-19.5 0,-19.5"/>
<text text-anchor="middle" x="64" y="-26.5" font-family="Helvetica,sans-Serif" font-size="10.00">icmp4_packet_set_length</text>
</g>
<!-- Node2 -->
<g id="node2" class="node"><title>Node2</title>
<g id="a_node2"><a xlink:href="../../d3/d5a/base_8h_a58ba35289e8c456e6beb956ae2057469.html#a58ba35289e8c456e6beb956ae2057469" target="_top" xlink:title="Vérifier qu&#39;un pointeur ne pointe pas vers NULL.">
<polygon fill="none" stroke="black" points="181.5,-38.5 181.5,-57.5 258.5,-57.5 258.5,-38.5 181.5,-38.5"/>
<text text-anchor="middle" x="220" y="-45.5" font-family="Helvetica,sans-Serif" font-size="10.00">check_pointer</text>
</a>
</g>
</g>
<!-- Node1&#45;&gt;Node2 -->
<g id="edge1" class="edge"><title>Node1&#45;&gt;Node2</title>
<path fill="none" stroke="midnightblue" d="M128.082,-36.7828C142.512,-38.5632 157.616,-40.4267 171.277,-42.112"/>
<polygon fill="midnightblue" stroke="midnightblue" points="171.053,-45.6109 181.406,-43.3618 171.91,-38.6635 171.053,-45.6109"/>
</g>
<!-- Node3 -->
<g id="node3" class="node"><title>Node3</title>
<g id="a_node3"><a xlink:href="../../d4/dbd/ip__util_8h_a9ee1bba27e0446b484c74ffeccc20e1d.html#a9ee1bba27e0446b484c74ffeccc20e1d" target="_top" xlink:title="Modifier la longueur totale.">
<polygon fill="none" stroke="black" points="164,-0.5 164,-19.5 276,-19.5 276,-0.5 164,-0.5"/>
<text text-anchor="middle" x="220" y="-7.5" font-family="Helvetica,sans-Serif" font-size="10.00">iphdr_set_total_length</text>
</a>
</g>
</g>
<!-- Node1&#45;&gt;Node3 -->
<g id="edge2" class="edge"><title>Node1&#45;&gt;Node3</title>
<path fill="none" stroke="midnightblue" d="M128.082,-21.2172C136.468,-20.1826 145.081,-19.1199 153.507,-18.0804"/>
<polygon fill="midnightblue" stroke="midnightblue" points="154.166,-21.5256 163.663,-16.8274 153.309,-14.5783 154.166,-21.5256"/>
</g>
</g>
</svg>
