<?xml version="1.0" encoding="UTF-8" standalone="no"?>
<!DOCTYPE svg PUBLIC "-//W3C//DTD SVG 1.1//EN"
 "http://www.w3.org/Graphics/SVG/1.1/DTD/svg11.dtd">
<!-- Generated by graphviz version 2.30.1 (20130712.1527)
 -->
<!-- Title: src/address.c Pages: 1 -->
<svg width="810pt" height="196pt"
 viewBox="0.00 0.00 810.00 196.00" xmlns="http://www.w3.org/2000/svg" xmlns:xlink="http://www.w3.org/1999/xlink">
<g id="graph0" class="graph" transform="scale(1 1) rotate(0) translate(4 192)">
<title>src/address.c</title>
<!-- Node1 -->
<g id="node1" class="node"><title>Node1</title>
<polygon fill="#bfbfbf" stroke="black" points="270,-168.5 270,-187.5 346,-187.5 346,-168.5 270,-168.5"/>
<text text-anchor="middle" x="308" y="-175.5" font-family="Helvetica,sans-Serif" font-size="10.00">src/address.c</text>
</g>
<!-- Node2 -->
<g id="node2" class="node"><title>Node2</title>
<g id="a_node2"><a xlink:href="../../d9/d9b/address_8h.html" target="_top" xlink:title="Utilitaires pour obtenir des addresses. (header)">
<polygon fill="none" stroke="black" points="278.5,-112.5 278.5,-131.5 337.5,-131.5 337.5,-112.5 278.5,-112.5"/>
<text text-anchor="middle" x="308" y="-119.5" font-family="Helvetica,sans-Serif" font-size="10.00">address.h</text>
</a>
</g>
</g>
<!-- Node1&#45;&gt;Node2 -->
<g id="edge1" class="edge"><title>Node1&#45;&gt;Node2</title>
<path fill="none" stroke="midnightblue" d="M308,-168.083C308,-161.006 308,-150.861 308,-141.986"/>
<polygon fill="midnightblue" stroke="midnightblue" points="311.5,-141.751 308,-131.751 304.5,-141.751 311.5,-141.751"/>
</g>
<!-- Node3 -->
<g id="node3" class="node"><title>Node3</title>
<polygon fill="none" stroke="#bfbfbf" points="0,-56.5 0,-75.5 68,-75.5 68,-56.5 0,-56.5"/>
<text text-anchor="middle" x="34" y="-63.5" font-family="Helvetica,sans-Serif" font-size="10.00">sys/types.h</text>
</g>
<!-- Node2&#45;&gt;Node3 -->
<g id="edge2" class="edge"><title>Node2&#45;&gt;Node3</title>
<path fill="none" stroke="midnightblue" d="M278.211,-115.256C234.348,-106.779 149.814,-90.3697 78,-76 77.8997,-75.9799 77.7992,-75.9598 77.6986,-75.9397"/>
<polygon fill="midnightblue" stroke="midnightblue" points="78.5984,-72.5507 68.1039,-74.0058 77.2152,-79.4127 78.5984,-72.5507"/>
</g>
<!-- Node4 -->
<g id="node4" class="node"><title>Node4</title>
<polygon fill="none" stroke="#bfbfbf" points="86.5,-56.5 86.5,-75.5 159.5,-75.5 159.5,-56.5 86.5,-56.5"/>
<text text-anchor="middle" x="123" y="-63.5" font-family="Helvetica,sans-Serif" font-size="10.00">sys/socket.h</text>
</g>
<!-- Node2&#45;&gt;Node4 -->
<g id="edge3" class="edge"><title>Node2&#45;&gt;Node4</title>
<path fill="none" stroke="midnightblue" d="M278.686,-112.444C247.158,-103.241 196.869,-88.5617 162.014,-78.3879"/>
<polygon fill="midnightblue" stroke="midnightblue" points="162.757,-74.9587 152.177,-75.5164 160.795,-81.6783 162.757,-74.9587"/>
</g>
<!-- Node5 -->
<g id="node5" class="node"><title>Node5</title>
<polygon fill="none" stroke="#bfbfbf" points="177.5,-56.5 177.5,-75.5 226.5,-75.5 226.5,-56.5 177.5,-56.5"/>
<text text-anchor="middle" x="202" y="-63.5" font-family="Helvetica,sans-Serif" font-size="10.00">netdb.h</text>
</g>
<!-- Node2&#45;&gt;Node5 -->
<g id="edge4" class="edge"><title>Node2&#45;&gt;Node5</title>
<path fill="none" stroke="midnightblue" d="M290.969,-112.324C273.97,-103.664 247.624,-90.2424 228.007,-80.249"/>
<polygon fill="midnightblue" stroke="midnightblue" points="229.488,-77.0752 218.988,-75.6545 226.31,-83.3125 229.488,-77.0752"/>
</g>
<!-- Node6 -->
<g id="node6" class="node"><title>Node6</title>
<polygon fill="none" stroke="#bfbfbf" points="244.5,-56.5 244.5,-75.5 295.5,-75.5 295.5,-56.5 244.5,-56.5"/>
<text text-anchor="middle" x="270" y="-63.5" font-family="Helvetica,sans-Serif" font-size="10.00">unistd.h</text>
</g>
<!-- Node2&#45;&gt;Node6 -->
<g id="edge5" class="edge"><title>Node2&#45;&gt;Node6</title>
<path fill="none" stroke="midnightblue" d="M301.725,-112.083C296.358,-104.455 288.482,-93.2645 281.921,-83.9408"/>
<polygon fill="midnightblue" stroke="midnightblue" points="284.775,-81.9149 276.158,-75.7511 279.051,-85.9434 284.775,-81.9149"/>
</g>
<!-- Node7 -->
<g id="node7" class="node"><title>Node7</title>
<polygon fill="none" stroke="#bfbfbf" points="313.5,-56.5 313.5,-75.5 378.5,-75.5 378.5,-56.5 313.5,-56.5"/>
<text text-anchor="middle" x="346" y="-63.5" font-family="Helvetica,sans-Serif" font-size="10.00">netinet/in.h</text>
</g>
<!-- Node2&#45;&gt;Node7 -->
<g id="edge6" class="edge"><title>Node2&#45;&gt;Node7</title>
<path fill="none" stroke="midnightblue" d="M314.275,-112.083C319.642,-104.455 327.518,-93.2645 334.079,-83.9408"/>
<polygon fill="midnightblue" stroke="midnightblue" points="336.949,-85.9434 339.842,-75.7511 331.225,-81.9149 336.949,-85.9434"/>
</g>
<!-- Node8 -->
<g id="node8" class="node"><title>Node8</title>
<polygon fill="none" stroke="#bfbfbf" points="397,-56.5 397,-75.5 459,-75.5 459,-56.5 397,-56.5"/>
<text text-anchor="middle" x="428" y="-63.5" font-family="Helvetica,sans-Serif" font-size="10.00">arpa/inet.h</text>
</g>
<!-- Node2&#45;&gt;Node8 -->
<g id="edge7" class="edge"><title>Node2&#45;&gt;Node8</title>
<path fill="none" stroke="midnightblue" d="M327.014,-112.444C346.588,-103.636 377.308,-89.8116 399.729,-79.722"/>
<polygon fill="midnightblue" stroke="midnightblue" points="401.392,-82.8119 409.075,-75.5164 398.519,-76.4284 401.392,-82.8119"/>
</g>
<!-- Node9 -->
<g id="node9" class="node"><title>Node9</title>
<polygon fill="none" stroke="#bfbfbf" points="477,-56.5 477,-75.5 531,-75.5 531,-56.5 477,-56.5"/>
<text text-anchor="middle" x="504" y="-63.5" font-family="Helvetica,sans-Serif" font-size="10.00">ifaddrs.h</text>
</g>
<!-- Node2&#45;&gt;Node9 -->
<g id="edge8" class="edge"><title>Node2&#45;&gt;Node9</title>
<path fill="none" stroke="midnightblue" d="M337.768,-112.799C372.322,-103.279 429.344,-87.5684 466.792,-77.2512"/>
<polygon fill="midnightblue" stroke="midnightblue" points="468.089,-80.5243 476.8,-74.4938 466.23,-73.7758 468.089,-80.5243"/>
</g>
<!-- Node10 -->
<g id="node10" class="node"><title>Node10</title>
<g id="a_node10"><a xlink:href="../../d3/d5a/base_8h.html" target="_top" xlink:title="Fonctions et inclusions de base. (header)">
<polygon fill="none" stroke="black" points="549,-56.5 549,-75.5 595,-75.5 595,-56.5 549,-56.5"/>
<text text-anchor="middle" x="572" y="-63.5" font-family="Helvetica,sans-Serif" font-size="10.00">base.h</text>
</a>
</g>
</g>
<!-- Node2&#45;&gt;Node10 -->
<g id="edge9" class="edge"><title>Node2&#45;&gt;Node10</title>
<path fill="none" stroke="midnightblue" d="M337.832,-116.026C380.344,-108.763 460.976,-94.3376 538.994,-76.0808"/>
<polygon fill="midnightblue" stroke="midnightblue" points="540.061,-79.4251 548.987,-73.7175 538.45,-72.613 540.061,-79.4251"/>
</g>
<!-- Node11 -->
<g id="node11" class="node"><title>Node11</title>
<polygon fill="none" stroke="#bfbfbf" points="337,-0.5 337,-19.5 385,-19.5 385,-0.5 337,-0.5"/>
<text text-anchor="middle" x="361" y="-7.5" font-family="Helvetica,sans-Serif" font-size="10.00">stdlib.h</text>
</g>
<!-- Node10&#45;&gt;Node11 -->
<g id="edge10" class="edge"><title>Node10&#45;&gt;Node11</title>
<path fill="none" stroke="midnightblue" d="M548.952,-58.4216C545.945,-57.5915 542.902,-56.7656 540,-56 478.408,-39.7497 460.358,-37.0286 395.112,-20.2375"/>
<polygon fill="midnightblue" stroke="midnightblue" points="395.69,-16.7719 385.132,-17.6548 393.936,-23.5487 395.69,-16.7719"/>
</g>
<!-- Node12 -->
<g id="node12" class="node"><title>Node12</title>
<polygon fill="none" stroke="#bfbfbf" points="403,-0.5 403,-19.5 449,-19.5 449,-0.5 403,-0.5"/>
<text text-anchor="middle" x="426" y="-7.5" font-family="Helvetica,sans-Serif" font-size="10.00">stdio.h</text>
</g>
<!-- Node10&#45;&gt;Node12 -->
<g id="edge11" class="edge"><title>Node10&#45;&gt;Node12</title>
<path fill="none" stroke="midnightblue" d="M548.866,-56.4435C524.518,-47.4381 485.993,-33.1891 458.577,-23.049"/>
<polygon fill="midnightblue" stroke="midnightblue" points="459.619,-19.7028 449.026,-19.5164 457.191,-26.2681 459.619,-19.7028"/>
</g>
<!-- Node13 -->
<g id="node13" class="node"><title>Node13</title>
<polygon fill="none" stroke="#bfbfbf" points="467,-0.5 467,-19.5 523,-19.5 523,-0.5 467,-0.5"/>
<text text-anchor="middle" x="495" y="-7.5" font-family="Helvetica,sans-Serif" font-size="10.00">stdbool.h</text>
</g>
<!-- Node10&#45;&gt;Node13 -->
<g id="edge12" class="edge"><title>Node10&#45;&gt;Node13</title>
<path fill="none" stroke="midnightblue" d="M559.629,-56.324C547.842,-48.0577 529.868,-35.4527 515.864,-25.6322"/>
<polygon fill="midnightblue" stroke="midnightblue" points="517.538,-22.5307 507.341,-19.6545 513.518,-28.2619 517.538,-22.5307"/>
</g>
<!-- Node14 -->
<g id="node14" class="node"><title>Node14</title>
<polygon fill="none" stroke="#bfbfbf" points="541,-0.5 541,-19.5 603,-19.5 603,-0.5 541,-0.5"/>
<text text-anchor="middle" x="572" y="-7.5" font-family="Helvetica,sans-Serif" font-size="10.00">sysexits.h</text>
</g>
<!-- Node10&#45;&gt;Node14 -->
<g id="edge13" class="edge"><title>Node10&#45;&gt;Node14</title>
<path fill="none" stroke="midnightblue" d="M572,-56.083C572,-49.0059 572,-38.8611 572,-29.9865"/>
<polygon fill="midnightblue" stroke="midnightblue" points="575.5,-29.751 572,-19.7511 568.5,-29.7511 575.5,-29.751"/>
</g>
<!-- Node15 -->
<g id="node15" class="node"><title>Node15</title>
<polygon fill="none" stroke="#bfbfbf" points="621.5,-0.5 621.5,-19.5 668.5,-19.5 668.5,-0.5 621.5,-0.5"/>
<text text-anchor="middle" x="645" y="-7.5" font-family="Helvetica,sans-Serif" font-size="10.00">errno.h</text>
</g>
<!-- Node10&#45;&gt;Node15 -->
<g id="edge14" class="edge"><title>Node10&#45;&gt;Node15</title>
<path fill="none" stroke="midnightblue" d="M583.729,-56.324C594.837,-48.1066 611.742,-35.6017 624.983,-25.8069"/>
<polygon fill="midnightblue" stroke="midnightblue" points="627.1,-28.5948 633.058,-19.8339 622.937,-22.9671 627.1,-28.5948"/>
</g>
<!-- Node16 -->
<g id="node16" class="node"><title>Node16</title>
<polygon fill="none" stroke="#bfbfbf" points="686.5,-0.5 686.5,-19.5 735.5,-19.5 735.5,-0.5 686.5,-0.5"/>
<text text-anchor="middle" x="711" y="-7.5" font-family="Helvetica,sans-Serif" font-size="10.00">string.h</text>
</g>
<!-- Node10&#45;&gt;Node16 -->
<g id="edge15" class="edge"><title>Node10&#45;&gt;Node16</title>
<path fill="none" stroke="midnightblue" d="M594.025,-56.4435C617.104,-47.4776 653.562,-33.314 679.641,-23.1827"/>
<polygon fill="midnightblue" stroke="midnightblue" points="681.024,-26.4002 689.078,-19.5164 678.489,-19.8753 681.024,-26.4002"/>
</g>
<!-- Node17 -->
<g id="node17" class="node"><title>Node17</title>
<polygon fill="none" stroke="#bfbfbf" points="754,-0.5 754,-19.5 802,-19.5 802,-0.5 754,-0.5"/>
<text text-anchor="middle" x="778" y="-7.5" font-family="Helvetica,sans-Serif" font-size="10.00">limits.h</text>
</g>
<!-- Node10&#45;&gt;Node17 -->
<g id="edge16" class="edge"><title>Node10&#45;&gt;Node17</title>
<path fill="none" stroke="midnightblue" d="M595.097,-58.9798C628.117,-50.368 690.718,-34.022 744,-20 744.1,-19.9738 744.199,-19.9475 744.299,-19.9212"/>
<polygon fill="midnightblue" stroke="midnightblue" points="745.08,-23.3351 753.856,-17.4002 743.294,-16.5667 745.08,-23.3351"/>
</g>
</g>
</svg>
