<?xml version="1.0" encoding="UTF-8" standalone="no"?>
<!DOCTYPE svg PUBLIC "-//W3C//DTD SVG 1.1//EN"
 "http://www.w3.org/Graphics/SVG/1.1/DTD/svg11.dtd">
<!-- Generated by graphviz version 2.30.1 (20130712.1527)
 -->
<!-- Title: iphdr_checksum Pages: 1 -->
<svg width="376pt" height="104pt"
 viewBox="0.00 0.00 376.00 104.00" xmlns="http://www.w3.org/2000/svg" xmlns:xlink="http://www.w3.org/1999/xlink">
<g id="graph0" class="graph" transform="scale(1 1) rotate(0) translate(4 100)">
<title>iphdr_checksum</title>
<!-- Node1 -->
<g id="node1" class="node"><title>Node1</title>
<polygon fill="#bfbfbf" stroke="black" points="0,-38.5 0,-57.5 88,-57.5 88,-38.5 0,-38.5"/>
<text text-anchor="middle" x="44" y="-45.5" font-family="Helvetica,sans-Serif" font-size="10.00">iphdr_checksum</text>
</g>
<!-- Node2 -->
<g id="node2" class="node"><title>Node2</title>
<g id="a_node2"><a xlink:href="../../de/df3/packet_8c_a240696fd8d3a5fec165bafed14adf2d2.html#a240696fd8d3a5fec165bafed14adf2d2" target="_top" xlink:title="Changer le TTL d&#39;un paquet IPv4 + ICMP.">
<polygon fill="none" stroke="black" points="124,-76.5 124,-95.5 234,-95.5 234,-76.5 124,-76.5"/>
<text text-anchor="middle" x="179" y="-83.5" font-family="Helvetica,sans-Serif" font-size="10.00">icmp4_packet_set_ttl</text>
</a>
</g>
</g>
<!-- Node1&#45;&gt;Node2 -->
<g id="edge1" class="edge"><title>Node1&#45;&gt;Node2</title>
<path fill="none" stroke="midnightblue" d="M88.3669,-60.3906C106.581,-65.5945 127.439,-71.5541 144.449,-76.4141"/>
<polygon fill="midnightblue" stroke="midnightblue" points="89.1383,-56.971 78.5615,-57.589 87.2152,-63.7016 89.1383,-56.971"/>
</g>
<!-- Node3 -->
<g id="node3" class="node"><title>Node3</title>
<g id="a_node3"><a xlink:href="../../de/df3/packet_8c_a4b88c80657bb9a94505d743b92db9652.html#a4b88c80657bb9a94505d743b92db9652" target="_top" xlink:title="Paquet UDP.">
<polygon fill="none" stroke="black" points="134,-38.5 134,-57.5 224,-57.5 224,-38.5 134,-38.5"/>
<text text-anchor="middle" x="179" y="-45.5" font-family="Helvetica,sans-Serif" font-size="10.00">udp4_packet_init</text>
</a>
</g>
</g>
<!-- Node1&#45;&gt;Node3 -->
<g id="edge2" class="edge"><title>Node1&#45;&gt;Node3</title>
<path fill="none" stroke="midnightblue" d="M98.3041,-48C110.034,-48 122.335,-48 133.667,-48"/>
<polygon fill="midnightblue" stroke="midnightblue" points="98.1813,-44.5001 88.1813,-48 98.1813,-51.5001 98.1813,-44.5001"/>
</g>
<!-- Node4 -->
<g id="node4" class="node"><title>Node4</title>
<g id="a_node4"><a xlink:href="../../de/df3/packet_8c_a2a4750ae57802f852e78f9c015e0cbca.html#a2a4750ae57802f852e78f9c015e0cbca" target="_top" xlink:title="Paquet UDP.">
<polygon fill="none" stroke="black" points="127,-0.5 127,-19.5 231,-19.5 231,-0.5 127,-0.5"/>
<text text-anchor="middle" x="179" y="-7.5" font-family="Helvetica,sans-Serif" font-size="10.00">udp4_packet_set_ttl</text>
</a>
</g>
</g>
<!-- Node1&#45;&gt;Node4 -->
<g id="edge3" class="edge"><title>Node1&#45;&gt;Node4</title>
<path fill="none" stroke="midnightblue" d="M88.3669,-35.6094C106.581,-30.4055 127.439,-24.4459 144.449,-19.5859"/>
<polygon fill="midnightblue" stroke="midnightblue" points="87.2152,-32.2984 78.5615,-38.411 89.1383,-39.029 87.2152,-32.2984"/>
</g>
<!-- Node5 -->
<g id="node5" class="node"><title>Node5</title>
<g id="a_node5"><a xlink:href="../../d1/d4c/traceroute_8c_a8b496d066de14ea5078c799a41849d49.html#a8b496d066de14ea5078c799a41849d49" target="_top" xlink:title="Traceroute IPv4+UDP.">
<polygon fill="none" stroke="black" points="270.5,-0.5 270.5,-19.5 367.5,-19.5 367.5,-0.5 270.5,-0.5"/>
<text text-anchor="middle" x="319" y="-7.5" font-family="Helvetica,sans-Serif" font-size="10.00">traceroute_udp_v4</text>
</a>
</g>
</g>
<!-- Node4&#45;&gt;Node5 -->
<g id="edge4" class="edge"><title>Node4&#45;&gt;Node5</title>
<path fill="none" stroke="midnightblue" d="M241.669,-10C251.247,-10 261.015,-10 270.224,-10"/>
<polygon fill="midnightblue" stroke="midnightblue" points="241.386,-6.5001 231.386,-10 241.386,-13.5001 241.386,-6.5001"/>
</g>
</g>
</svg>
