<?xml version="1.0" encoding="UTF-8" standalone="no"?>
<!DOCTYPE svg PUBLIC "-//W3C//DTD SVG 1.1//EN"
 "http://www.w3.org/Graphics/SVG/1.1/DTD/svg11.dtd">
<!-- Generated by graphviz version 2.30.1 (20130712.1527)
 -->
<!-- Title: iphdr_set_ttl Pages: 1 -->
<svg width="358pt" height="104pt"
 viewBox="0.00 0.00 358.00 104.00" xmlns="http://www.w3.org/2000/svg" xmlns:xlink="http://www.w3.org/1999/xlink">
<g id="graph0" class="graph" transform="scale(1 1) rotate(0) translate(4 100)">
<title>iphdr_set_ttl</title>
<!-- Node1 -->
<g id="node1" class="node"><title>Node1</title>
<polygon fill="#bfbfbf" stroke="black" points="0,-38.5 0,-57.5 70,-57.5 70,-38.5 0,-38.5"/>
<text text-anchor="middle" x="35" y="-45.5" font-family="Helvetica,sans-Serif" font-size="10.00">iphdr_set_ttl</text>
</g>
<!-- Node2 -->
<g id="node2" class="node"><title>Node2</title>
<g id="a_node2"><a xlink:href="../../de/df3/packet_8c_a240696fd8d3a5fec165bafed14adf2d2.html#a240696fd8d3a5fec165bafed14adf2d2" target="_top" xlink:title="Changer le TTL d&#39;un paquet IPv4 + ICMP.">
<polygon fill="none" stroke="black" points="106,-76.5 106,-95.5 216,-95.5 216,-76.5 106,-76.5"/>
<text text-anchor="middle" x="161" y="-83.5" font-family="Helvetica,sans-Serif" font-size="10.00">icmp4_packet_set_ttl</text>
</a>
</g>
</g>
<!-- Node1&#45;&gt;Node2 -->
<g id="edge1" class="edge"><title>Node1&#45;&gt;Node2</title>
<path fill="none" stroke="midnightblue" d="M76.9047,-60.5353C93.7734,-65.7048 113.008,-71.5991 128.72,-76.4141"/>
<polygon fill="midnightblue" stroke="midnightblue" points="77.8771,-57.1727 67.2904,-57.589 75.826,-63.8655 77.8771,-57.1727"/>
</g>
<!-- Node3 -->
<g id="node3" class="node"><title>Node3</title>
<g id="a_node3"><a xlink:href="../../de/df3/packet_8c_a4b88c80657bb9a94505d743b92db9652.html#a4b88c80657bb9a94505d743b92db9652" target="_top" xlink:title="Paquet UDP.">
<polygon fill="none" stroke="black" points="116,-38.5 116,-57.5 206,-57.5 206,-38.5 116,-38.5"/>
<text text-anchor="middle" x="161" y="-45.5" font-family="Helvetica,sans-Serif" font-size="10.00">udp4_packet_init</text>
</a>
</g>
</g>
<!-- Node1&#45;&gt;Node3 -->
<g id="edge2" class="edge"><title>Node1&#45;&gt;Node3</title>
<path fill="none" stroke="midnightblue" d="M80.4365,-48C91.8915,-48 104.218,-48 115.668,-48"/>
<polygon fill="midnightblue" stroke="midnightblue" points="80.2118,-44.5001 70.2118,-48 80.2118,-51.5001 80.2118,-44.5001"/>
</g>
<!-- Node4 -->
<g id="node4" class="node"><title>Node4</title>
<g id="a_node4"><a xlink:href="../../de/df3/packet_8c_a2a4750ae57802f852e78f9c015e0cbca.html#a2a4750ae57802f852e78f9c015e0cbca" target="_top" xlink:title="Paquet UDP.">
<polygon fill="none" stroke="black" points="109,-0.5 109,-19.5 213,-19.5 213,-0.5 109,-0.5"/>
<text text-anchor="middle" x="161" y="-7.5" font-family="Helvetica,sans-Serif" font-size="10.00">udp4_packet_set_ttl</text>
</a>
</g>
</g>
<!-- Node1&#45;&gt;Node4 -->
<g id="edge3" class="edge"><title>Node1&#45;&gt;Node4</title>
<path fill="none" stroke="midnightblue" d="M76.9047,-35.4647C93.7734,-30.2952 113.008,-24.4009 128.72,-19.5859"/>
<polygon fill="midnightblue" stroke="midnightblue" points="75.826,-32.1345 67.2904,-38.411 77.8771,-38.8273 75.826,-32.1345"/>
</g>
<!-- Node5 -->
<g id="node5" class="node"><title>Node5</title>
<g id="a_node5"><a xlink:href="../../d1/d4c/traceroute_8c_a8b496d066de14ea5078c799a41849d49.html#a8b496d066de14ea5078c799a41849d49" target="_top" xlink:title="Traceroute IPv4+UDP.">
<polygon fill="none" stroke="black" points="252.5,-0.5 252.5,-19.5 349.5,-19.5 349.5,-0.5 252.5,-0.5"/>
<text text-anchor="middle" x="301" y="-7.5" font-family="Helvetica,sans-Serif" font-size="10.00">traceroute_udp_v4</text>
</a>
</g>
</g>
<!-- Node4&#45;&gt;Node5 -->
<g id="edge4" class="edge"><title>Node4&#45;&gt;Node5</title>
<path fill="none" stroke="midnightblue" d="M223.669,-10C233.247,-10 243.015,-10 252.224,-10"/>
<polygon fill="midnightblue" stroke="midnightblue" points="223.386,-6.5001 213.386,-10 223.386,-13.5001 223.386,-6.5001"/>
</g>
</g>
</svg>
