<?xml version="1.0" encoding="UTF-8" standalone="no"?>
<!DOCTYPE svg PUBLIC "-//W3C//DTD SVG 1.1//EN"
 "http://www.w3.org/Graphics/SVG/1.1/DTD/svg11.dtd">
<!-- Generated by graphviz version 2.30.1 (20130712.1527)
 -->
<!-- Title: include/ip_util.h Pages: 1 -->
<!--zoomable 308 -->
<svg id="main" version="1.1" xmlns="http://www.w3.org/2000/svg" xmlns:xlink="http://www.w3.org/1999/xlink" xml:space="preserve" onload="init(evt)">
        <defs>
                <circle id="rim" cx="0" cy="0" r="7"/>
                <circle id="rim2" cx="0" cy="0" r="3.5"/>
                <g id="zoomPlus">
                        <use xlink:href="#rim" fill="#404040">
                                <set attributeName="fill" to="#808080" begin="zoomplus.mouseover" end="zoomplus.mouseout"/>
                        </use>
                        <path d="M-4,0h8M0,-4v8" fill="none" stroke="white" stroke-width="1.5" pointer-events="none"/>
                </g>
                <g id="zoomMin">
                        <use xlink:href="#rim" fill="#404040">
                                <set attributeName="fill" to="#808080" begin="zoomminus.mouseover" end="zoomminus.mouseout"/>
                        </use>
                        <path d="M-4,0h8" fill="none" stroke="white" stroke-width="1.5" pointer-events="none"/>
                </g>
                <g id="dirArrow">
                        <path fill="none" stroke="white" stroke-width="1.5" d="M0,-3.0v7 M-2.5,-0.5L0,-3.0L2.5,-0.5"/>
                </g>
               <g id="resetDef">
                       <use xlink:href="#rim2" fill="#404040">
                               <set attributeName="fill" to="#808080" begin="reset.mouseover" end="reset.mouseout"/>
                       </use>
               </g>
        </defs>

<script type="text/javascript">
var viewWidth = 769;
var viewHeight = 308;
var sectionId = 'dynsection-1';
</script>
<script xlink:href="../../svgpan.js"/>
<svg id="graph" class="graph">
<g id="viewport">
<title>include/ip_util.h</title>
<!-- Node1 -->
<g id="node1" class="node"><title>Node1</title>
<polygon fill="#bfbfbf" stroke="black" points="488,-280.5 488,-299.5 572,-299.5 572,-280.5 488,-280.5"/>
<text text-anchor="middle" x="530" y="-287.5" font-family="Helvetica,sans-Serif" font-size="10.00">include/ip_util.h</text>
</g>
<!-- Node2 -->
<g id="node2" class="node"><title>Node2</title>
<g id="a_node2"><a xlink:href="../../d3/d76/packet_8h.html" target="_top" xlink:title="Utilitaires pour créer des paquets (header)">
<polygon fill="none" stroke="black" points="258,-168.5 258,-187.5 346,-187.5 346,-168.5 258,-168.5"/>
<text text-anchor="middle" x="302" y="-175.5" font-family="Helvetica,sans-Serif" font-size="10.00">include/packet.h</text>
</a>
</g>
</g>
<!-- Node1&#45;&gt;Node2 -->
<g id="edge1" class="edge"><title>Node1&#45;&gt;Node2</title>
<path fill="none" stroke="midnightblue" d="M477.571,-286.012C438.603,-281.572 385.708,-270.663 347,-244 325.976,-229.518 311.747,-201.767 305.538,-187.674"/>
<polygon fill="midnightblue" stroke="midnightblue" points="477.358,-289.508 487.665,-287.054 478.077,-282.545 477.358,-289.508"/>
</g>
<!-- Node16 -->
<g id="node16" class="node"><title>Node16</title>
<g id="a_node16"><a xlink:href="../../da/d14/udp__util_8h.html" target="_top" xlink:title="Utilitaires IP (header)">
<polygon fill="none" stroke="black" points="356,-224.5 356,-243.5 448,-243.5 448,-224.5 356,-224.5"/>
<text text-anchor="middle" x="402" y="-231.5" font-family="Helvetica,sans-Serif" font-size="10.00">include/udp_util.h</text>
</a>
</g>
</g>
<!-- Node1&#45;&gt;Node16 -->
<g id="edge16" class="edge"><title>Node1&#45;&gt;Node16</title>
<path fill="none" stroke="midnightblue" d="M500.377,-276.503C476.381,-266.38 443.216,-252.388 422.187,-243.516"/>
<polygon fill="midnightblue" stroke="midnightblue" points="499.144,-279.781 509.718,-280.444 501.865,-273.332 499.144,-279.781"/>
</g>
<!-- Node9 -->
<g id="node9" class="node"><title>Node9</title>
<g id="a_node9"><a xlink:href="../../d6/dc8/ping__icmp_8h.html" target="_top" xlink:title="Implémentation de la fonction Ping. (header)">
<polygon fill="none" stroke="black" points="566.5,-112.5 566.5,-131.5 669.5,-131.5 669.5,-112.5 566.5,-112.5"/>
<text text-anchor="middle" x="618" y="-119.5" font-family="Helvetica,sans-Serif" font-size="10.00">include/ping_icmp.h</text>
</a>
</g>
</g>
<!-- Node1&#45;&gt;Node9 -->
<g id="edge19" class="edge"><title>Node1&#45;&gt;Node9</title>
<path fill="none" stroke="midnightblue" d="M554.599,-274.773C565.993,-267.023 578.796,-256.465 587,-244 611.202,-207.229 616.514,-152.69 617.676,-131.683"/>
<polygon fill="midnightblue" stroke="midnightblue" points="552.403,-272.023 545.877,-280.369 556.183,-277.915 552.403,-272.023"/>
</g>
<!-- Node18 -->
<g id="node18" class="node"><title>Node18</title>
<g id="a_node18"><a xlink:href="../../da/d7b/ip__util_8c.html" target="_top" xlink:title="Utilitaires IP (implémentation)">
<polygon fill="none" stroke="black" points="650.5,-224.5 650.5,-243.5 717.5,-243.5 717.5,-224.5 650.5,-224.5"/>
<text text-anchor="middle" x="684" y="-231.5" font-family="Helvetica,sans-Serif" font-size="10.00">src/ip_util.c</text>
</a>
</g>
</g>
<!-- Node1&#45;&gt;Node18 -->
<g id="edge20" class="edge"><title>Node1&#45;&gt;Node18</title>
<path fill="none" stroke="midnightblue" d="M564.111,-277.039C593.087,-266.879 633.962,-252.546 659.712,-243.516"/>
<polygon fill="midnightblue" stroke="midnightblue" points="562.68,-273.832 554.402,-280.444 564.997,-280.437 562.68,-273.832"/>
</g>
<!-- Node19 -->
<g id="node19" class="node"><title>Node19</title>
<g id="a_node19"><a xlink:href="../../dd/d42/test__ip__util_8h_source.html" target="_top" xlink:title="tests/test_ip_util.h">
<polygon fill="none" stroke="black" points="481.5,-224.5 481.5,-243.5 578.5,-243.5 578.5,-224.5 481.5,-224.5"/>
<text text-anchor="middle" x="530" y="-231.5" font-family="Helvetica,sans-Serif" font-size="10.00">tests/test_ip_util.h</text>
</a>
</g>
</g>
<!-- Node1&#45;&gt;Node19 -->
<g id="edge21" class="edge"><title>Node1&#45;&gt;Node19</title>
<path fill="none" stroke="midnightblue" d="M530,-269.805C530,-260.91 530,-250.78 530,-243.751"/>
<polygon fill="midnightblue" stroke="midnightblue" points="526.5,-270.083 530,-280.083 533.5,-270.083 526.5,-270.083"/>
</g>
<!-- Node3 -->
<g id="node3" class="node"><title>Node3</title>
<g id="a_node3"><a xlink:href="../../de/d71/traceroute_8h.html" target="_top" xlink:title="Traceroute (header)">
<polygon fill="none" stroke="black" points="172,-112.5 172,-131.5 274,-131.5 274,-112.5 172,-112.5"/>
<text text-anchor="middle" x="223" y="-119.5" font-family="Helvetica,sans-Serif" font-size="10.00">include/traceroute.h</text>
</a>
</g>
</g>
<!-- Node2&#45;&gt;Node3 -->
<g id="edge2" class="edge"><title>Node2&#45;&gt;Node3</title>
<path fill="none" stroke="midnightblue" d="M280.966,-162.622C266.534,-152.757 247.859,-139.992 235.661,-131.655"/>
<polygon fill="midnightblue" stroke="midnightblue" points="279.077,-165.57 289.307,-168.324 283.027,-159.791 279.077,-165.57"/>
</g>
<!-- Node2&#45;&gt;Node9 -->
<g id="edge8" class="edge"><title>Node2&#45;&gt;Node9</title>
<path fill="none" stroke="midnightblue" d="M356.225,-167.734C415.69,-157.572 510.32,-141.401 568.038,-131.538"/>
<polygon fill="midnightblue" stroke="midnightblue" points="355.539,-164.3 346.271,-169.435 356.718,-171.2 355.539,-164.3"/>
</g>
<!-- Node12 -->
<g id="node12" class="node"><title>Node12</title>
<g id="a_node12"><a xlink:href="../../de/df3/packet_8c.html" target="_top" xlink:title="Utilitaires pour créer des paquets (implémentation)">
<polygon fill="none" stroke="black" points="82.5,-112.5 82.5,-131.5 153.5,-131.5 153.5,-112.5 82.5,-112.5"/>
<text text-anchor="middle" x="118" y="-119.5" font-family="Helvetica,sans-Serif" font-size="10.00">src/packet.c</text>
</a>
</g>
</g>
<!-- Node2&#45;&gt;Node12 -->
<g id="edge11" class="edge"><title>Node2&#45;&gt;Node12</title>
<path fill="none" stroke="midnightblue" d="M263.046,-165.568C228.335,-155.381 178.323,-140.703 147.019,-131.516"/>
<polygon fill="midnightblue" stroke="midnightblue" points="262.264,-168.986 272.845,-168.444 264.235,-162.269 262.264,-168.986"/>
</g>
<!-- Node13 -->
<g id="node13" class="node"><title>Node13</title>
<g id="a_node13"><a xlink:href="../../da/d3e/test__packet_8h_source.html" target="_top" xlink:title="tests/test_packet.h">
<polygon fill="none" stroke="black" points="334.5,-112.5 334.5,-131.5 435.5,-131.5 435.5,-112.5 334.5,-112.5"/>
<text text-anchor="middle" x="385" y="-119.5" font-family="Helvetica,sans-Serif" font-size="10.00">tests/test_packet.h</text>
</a>
</g>
</g>
<!-- Node2&#45;&gt;Node13 -->
<g id="edge12" class="edge"><title>Node2&#45;&gt;Node13</title>
<path fill="none" stroke="midnightblue" d="M324.099,-162.622C339.262,-152.757 358.883,-139.992 371.698,-131.655"/>
<polygon fill="midnightblue" stroke="midnightblue" points="321.809,-159.937 315.335,-168.324 325.626,-165.804 321.809,-159.937"/>
</g>
<!-- Node8 -->
<g id="node8" class="node"><title>Node8</title>
<g id="a_node8"><a xlink:href="../../de/d12/test__traceroute_8c_source.html" target="_top" xlink:title="tests/test_traceroute.c">
<polygon fill="none" stroke="black" points="201.5,-56.5 201.5,-75.5 316.5,-75.5 316.5,-56.5 201.5,-56.5"/>
<text text-anchor="middle" x="259" y="-63.5" font-family="Helvetica,sans-Serif" font-size="10.00">tests/test_traceroute.c</text>
</a>
</g>
</g>
<!-- Node2&#45;&gt;Node8 -->
<g id="edge15" class="edge"><title>Node2&#45;&gt;Node8</title>
<path fill="none" stroke="midnightblue" d="M297.705,-158.622C294.36,-145.413 289.242,-127.309 283,-112 277.651,-98.8819 269.613,-84.5833 264.337,-75.7041"/>
<polygon fill="midnightblue" stroke="midnightblue" points="294.318,-159.507 300.083,-168.396 301.12,-157.852 294.318,-159.507"/>
</g>
<!-- Node4 -->
<g id="node4" class="node"><title>Node4</title>
<g id="a_node4"><a xlink:href="../../d9/d8d/anna_8h.html" target="_top" xlink:title="Anna. (implémentation)">
<polygon fill="none" stroke="black" points="103,-56.5 103,-75.5 183,-75.5 183,-56.5 103,-56.5"/>
<text text-anchor="middle" x="143" y="-63.5" font-family="Helvetica,sans-Serif" font-size="10.00">include/anna.h</text>
</a>
</g>
</g>
<!-- Node3&#45;&gt;Node4 -->
<g id="edge3" class="edge"><title>Node3&#45;&gt;Node4</title>
<path fill="none" stroke="midnightblue" d="M201.699,-106.622C187.085,-96.7574 168.173,-83.9919 155.821,-75.6545"/>
<polygon fill="midnightblue" stroke="midnightblue" points="199.9,-109.63 210.147,-112.324 203.816,-103.828 199.9,-109.63"/>
</g>
<!-- Node7 -->
<g id="node7" class="node"><title>Node7</title>
<g id="a_node7"><a xlink:href="../../d1/d4c/traceroute_8c.html" target="_top" xlink:title="Traceroute (implémentation)">
<polygon fill="none" stroke="black" points="-0.5,-56.5 -0.5,-75.5 84.5,-75.5 84.5,-56.5 -0.5,-56.5"/>
<text text-anchor="middle" x="42" y="-63.5" font-family="Helvetica,sans-Serif" font-size="10.00">src/traceroute.c</text>
</a>
</g>
</g>
<!-- Node3&#45;&gt;Node7 -->
<g id="edge6" class="edge"><title>Node3&#45;&gt;Node7</title>
<path fill="none" stroke="midnightblue" d="M184.681,-109.568C150.536,-99.381 101.339,-84.7034 70.5458,-75.5164"/>
<polygon fill="midnightblue" stroke="midnightblue" points="183.737,-112.938 194.32,-112.444 185.738,-106.231 183.737,-112.938"/>
</g>
<!-- Node3&#45;&gt;Node8 -->
<g id="edge7" class="edge"><title>Node3&#45;&gt;Node8</title>
<path fill="none" stroke="midnightblue" d="M234.623,-103.566C240.817,-94.2747 248.168,-83.2484 253.166,-75.7511"/>
<polygon fill="midnightblue" stroke="midnightblue" points="231.58,-101.821 228.945,-112.083 237.404,-105.704 231.58,-101.821"/>
</g>
<!-- Node5 -->
<g id="node5" class="node"><title>Node5</title>
<g id="a_node5"><a xlink:href="../../d2/da0/anna_8c.html" target="_top" xlink:title="Anna. (implémentation)">
<polygon fill="none" stroke="black" points="72,-0.5 72,-19.5 134,-19.5 134,-0.5 72,-0.5"/>
<text text-anchor="middle" x="103" y="-7.5" font-family="Helvetica,sans-Serif" font-size="10.00">src/anna.c</text>
</a>
</g>
</g>
<!-- Node4&#45;&gt;Node5 -->
<g id="edge4" class="edge"><title>Node4&#45;&gt;Node5</title>
<path fill="none" stroke="midnightblue" d="M130.3,-47.8554C123.374,-38.5048 115.094,-27.3265 109.482,-19.7511"/>
<polygon fill="midnightblue" stroke="midnightblue" points="127.63,-50.1307 136.395,-56.083 133.255,-45.9641 127.63,-50.1307"/>
</g>
<!-- Node6 -->
<g id="node6" class="node"><title>Node6</title>
<g id="a_node6"><a xlink:href="../../d0/d29/main_8c.html" target="_top" xlink:title="Main. (implémentation)">
<polygon fill="none" stroke="black" points="152,-0.5 152,-19.5 214,-19.5 214,-0.5 152,-0.5"/>
<text text-anchor="middle" x="183" y="-7.5" font-family="Helvetica,sans-Serif" font-size="10.00">src/main.c</text>
</a>
</g>
</g>
<!-- Node4&#45;&gt;Node6 -->
<g id="edge5" class="edge"><title>Node4&#45;&gt;Node6</title>
<path fill="none" stroke="midnightblue" d="M155.7,-47.8554C162.626,-38.5048 170.906,-27.3265 176.518,-19.7511"/>
<polygon fill="midnightblue" stroke="midnightblue" points="152.745,-45.9641 149.605,-56.083 158.37,-50.1307 152.745,-45.9641"/>
</g>
<!-- Node10 -->
<g id="node10" class="node"><title>Node10</title>
<g id="a_node10"><a xlink:href="../../d5/d74/ping__icmp_8c.html" target="_top" xlink:title="Implémentation de la fonction Ping. (implémentation)">
<polygon fill="none" stroke="black" points="675,-56.5 675,-75.5 761,-75.5 761,-56.5 675,-56.5"/>
<text text-anchor="middle" x="718" y="-63.5" font-family="Helvetica,sans-Serif" font-size="10.00">src/ping_icmp.c</text>
</a>
</g>
</g>
<!-- Node9&#45;&gt;Node10 -->
<g id="edge9" class="edge"><title>Node9&#45;&gt;Node10</title>
<path fill="none" stroke="midnightblue" d="M643.088,-107.453C661.549,-97.4835 686.097,-84.2279 701.973,-75.6545"/>
<polygon fill="midnightblue" stroke="midnightblue" points="641.203,-104.493 634.067,-112.324 644.529,-110.652 641.203,-104.493"/>
</g>
<!-- Node11 -->
<g id="node11" class="node"><title>Node11</title>
<g id="a_node11"><a xlink:href="../../d5/da8/test__ping_8c_source.html" target="_top" xlink:title="tests/test_ping.c">
<polygon fill="none" stroke="black" points="567.5,-56.5 567.5,-75.5 656.5,-75.5 656.5,-56.5 567.5,-56.5"/>
<text text-anchor="middle" x="612" y="-63.5" font-family="Helvetica,sans-Serif" font-size="10.00">tests/test_ping.c</text>
</a>
</g>
</g>
<!-- Node9&#45;&gt;Node11 -->
<g id="edge10" class="edge"><title>Node9&#45;&gt;Node11</title>
<path fill="none" stroke="midnightblue" d="M615.9,-102.101C614.904,-93.1357 613.762,-82.8579 612.972,-75.7511"/>
<polygon fill="midnightblue" stroke="midnightblue" points="612.426,-102.531 617.009,-112.083 619.383,-101.758 612.426,-102.531"/>
</g>
<!-- Node14 -->
<g id="node14" class="node"><title>Node14</title>
<g id="a_node14"><a xlink:href="../../d1/d26/test__packet_8c_source.html" target="_top" xlink:title="tests/test_packet.c">
<polygon fill="none" stroke="black" points="334.5,-56.5 334.5,-75.5 435.5,-75.5 435.5,-56.5 334.5,-56.5"/>
<text text-anchor="middle" x="385" y="-63.5" font-family="Helvetica,sans-Serif" font-size="10.00">tests/test_packet.c</text>
</a>
</g>
</g>
<!-- Node13&#45;&gt;Node14 -->
<g id="edge13" class="edge"><title>Node13&#45;&gt;Node14</title>
<path fill="none" stroke="midnightblue" d="M385,-101.805C385,-92.9102 385,-82.7798 385,-75.7511"/>
<polygon fill="midnightblue" stroke="midnightblue" points="381.5,-102.083 385,-112.083 388.5,-102.083 381.5,-102.083"/>
</g>
<!-- Node15 -->
<g id="node15" class="node"><title>Node15</title>
<g id="a_node15"><a xlink:href="../../d8/d2e/unit__tests_8c_source.html" target="_top" xlink:title="tests/unit_tests.c">
<polygon fill="none" stroke="black" points="454,-56.5 454,-75.5 546,-75.5 546,-56.5 454,-56.5"/>
<text text-anchor="middle" x="500" y="-63.5" font-family="Helvetica,sans-Serif" font-size="10.00">tests/unit_tests.c</text>
</a>
</g>
</g>
<!-- Node13&#45;&gt;Node15 -->
<g id="edge14" class="edge"><title>Node13&#45;&gt;Node15</title>
<path fill="none" stroke="midnightblue" d="M412.481,-108.096C433.966,-98.0073 463.222,-84.2697 481.863,-75.5164"/>
<polygon fill="midnightblue" stroke="midnightblue" points="410.786,-105.025 403.222,-112.444 413.762,-111.361 410.786,-105.025"/>
</g>
<!-- Node16&#45;&gt;Node2 -->
<g id="edge17" class="edge"><title>Node16&#45;&gt;Node2</title>
<path fill="none" stroke="midnightblue" d="M376.912,-219.453C358.451,-209.483 333.903,-196.228 318.027,-187.655"/>
<polygon fill="midnightblue" stroke="midnightblue" points="375.471,-222.652 385.933,-224.324 378.797,-216.493 375.471,-222.652"/>
</g>
<!-- Node17 -->
<g id="node17" class="node"><title>Node17</title>
<g id="a_node17"><a xlink:href="../../d4/de6/udp__util_8c.html" target="_top" xlink:title="Utilitaires IP (implémentation)">
<polygon fill="none" stroke="black" points="364.5,-168.5 364.5,-187.5 439.5,-187.5 439.5,-168.5 364.5,-168.5"/>
<text text-anchor="middle" x="402" y="-175.5" font-family="Helvetica,sans-Serif" font-size="10.00">src/udp_util.c</text>
</a>
</g>
</g>
<!-- Node16&#45;&gt;Node17 -->
<g id="edge18" class="edge"><title>Node16&#45;&gt;Node17</title>
<path fill="none" stroke="midnightblue" d="M402,-213.805C402,-204.91 402,-194.78 402,-187.751"/>
<polygon fill="midnightblue" stroke="midnightblue" points="398.5,-214.083 402,-224.083 405.5,-214.083 398.5,-214.083"/>
</g>
<!-- Node20 -->
<g id="node20" class="node"><title>Node20</title>
<g id="a_node20"><a xlink:href="../../d1/d9c/test__ip__util_8c_source.html" target="_top" xlink:title="tests/test_ip_util.c">
<polygon fill="none" stroke="black" points="496.5,-168.5 496.5,-187.5 593.5,-187.5 593.5,-168.5 496.5,-168.5"/>
<text text-anchor="middle" x="545" y="-175.5" font-family="Helvetica,sans-Serif" font-size="10.00">tests/test_ip_util.c</text>
</a>
</g>
</g>
<!-- Node19&#45;&gt;Node20 -->
<g id="edge22" class="edge"><title>Node19&#45;&gt;Node20</title>
<path fill="none" stroke="midnightblue" d="M535.168,-214.396C537.677,-205.362 540.573,-194.936 542.569,-187.751"/>
<polygon fill="midnightblue" stroke="midnightblue" points="531.781,-213.511 532.477,-224.083 538.526,-215.385 531.781,-213.511"/>
</g>
<!-- Node19&#45;&gt;Node15 -->
<g id="edge23" class="edge"><title>Node19&#45;&gt;Node15</title>
<path fill="none" stroke="midnightblue" d="M509.756,-217.859C500.991,-210.031 491.68,-199.672 487,-188 471.117,-148.387 488.393,-95.9515 496.389,-75.5926"/>
<polygon fill="midnightblue" stroke="midnightblue" points="507.576,-220.599 517.503,-224.302 512.052,-215.217 507.576,-220.599"/>
</g>
</g>
</svg>
        <g id="navigator" transform="translate(0 0)" fill="#404254">
                <rect fill="#f2f5e9" fill-opacity="0.5" stroke="#606060" stroke-width=".5" x="0" y="0" width="60" height="60"/>
                <use id="zoomplus" xlink:href="#zoomPlus" x="17" y="9" onmousedown="handleZoom(evt,'in')"/>
                <use id="zoomminus" xlink:href="#zoomMin" x="42" y="9" onmousedown="handleZoom(evt,'out')"/>
                <use id="reset" xlink:href="#resetDef" x="30" y="36" onmousedown="handleReset()"/>
                <g id="arrowUp" xlink:href="#dirArrow" transform="translate(30 24)" onmousedown="handlePan(0,-1)">
                  <use xlink:href="#rim" fill="#404040">
                        <set attributeName="fill" to="#808080" begin="arrowUp.mouseover" end="arrowUp.mouseout"/>
                  </use>
                  <path fill="none" stroke="white" stroke-width="1.5" d="M0,-3.0v7 M-2.5,-0.5L0,-3.0L2.5,-0.5"/>
                </g>
                <g id="arrowRight" xlink:href="#dirArrow" transform="rotate(90) translate(36 -43)" onmousedown="handlePan(1,0)">
                  <use xlink:href="#rim" fill="#404040">
                        <set attributeName="fill" to="#808080" begin="arrowRight.mouseover" end="arrowRight.mouseout"/>
                  </use>
                  <path fill="none" stroke="white" stroke-width="1.5" d="M0,-3.0v7 M-2.5,-0.5L0,-3.0L2.5,-0.5"/>
                </g>
                <g id="arrowDown" xlink:href="#dirArrow" transform="rotate(180) translate(-30 -48)" onmousedown="handlePan(0,1)">
                  <use xlink:href="#rim" fill="#404040">
                        <set attributeName="fill" to="#808080" begin="arrowDown.mouseover" end="arrowDown.mouseout"/>
                  </use>
                  <path fill="none" stroke="white" stroke-width="1.5" d="M0,-3.0v7 M-2.5,-0.5L0,-3.0L2.5,-0.5"/>
                </g>
                <g id="arrowLeft" xlink:href="#dirArrow" transform="rotate(270) translate(-36 17)" onmousedown="handlePan(-1,0)">
                  <use xlink:href="#rim" fill="#404040">
                        <set attributeName="fill" to="#808080" begin="arrowLeft.mouseover" end="arrowLeft.mouseout"/>
                  </use>
                  <path fill="none" stroke="white" stroke-width="1.5" d="M0,-3.0v7 M-2.5,-0.5L0,-3.0L2.5,-0.5"/>
                </g>
        </g>
        <svg viewBox="0 0 15 15" width="100%" height="30px" preserveAspectRatio="xMaxYMin meet">
         <g id="arrow_out" transform="scale(0.3 0.3)">
          <a xlink:href="ip__util_8h__dep__incl_org.svg" target="_base">
           <rect id="button" ry="5" rx="5" y="6" x="6" height="38" width="38"
                fill="#f2f5e9" fill-opacity="0.5" stroke="#606060" stroke-width="1.0"/>
           <path id="arrow"
             d="M 11.500037,31.436501 C 11.940474,20.09759 22.043105,11.32322 32.158766,21.979434 L 37.068811,17.246167 C 37.068811,17.246167 37.088388,32 37.088388,32 L 22.160133,31.978069 C 22.160133,31.978069 26.997745,27.140456 26.997745,27.140456 C 18.528582,18.264221 13.291696,25.230495 11.500037,31.436501 z"
             style="fill:#404040;"/>
          </a>
         </g>
        </svg>
</svg>
