<?xml version="1.0" encoding="UTF-8" standalone="no"?>
<!DOCTYPE svg PUBLIC "-//W3C//DTD SVG 1.1//EN"
 "http://www.w3.org/Graphics/SVG/1.1/DTD/svg11.dtd">
<!-- Generated by graphviz version 2.30.1 (20130712.1527)
 -->
<!-- Title: print_ipv4_address Pages: 1 -->
<svg width="342pt" height="28pt"
 viewBox="0.00 0.00 342.00 28.00" xmlns="http://www.w3.org/2000/svg" xmlns:xlink="http://www.w3.org/1999/xlink">
<g id="graph0" class="graph" transform="scale(1 1) rotate(0) translate(4 24)">
<title>print_ipv4_address</title>
<!-- Node1 -->
<g id="node1" class="node"><title>Node1</title>
<polygon fill="#bfbfbf" stroke="black" points="0,-0.5 0,-19.5 98,-19.5 98,-0.5 0,-0.5"/>
<text text-anchor="middle" x="49" y="-7.5" font-family="Helvetica,sans-Serif" font-size="10.00">print_ipv4_address</text>
</g>
<!-- Node2 -->
<g id="node2" class="node"><title>Node2</title>
<g id="a_node2"><a xlink:href="../../da/d7b/ip__util_8c_aa1cb9d3b0826b26c1c4399da7076bd54.html#aa1cb9d3b0826b26c1c4399da7076bd54" target="_top" xlink:title="Afficher le contenu d&#39;un header.">
<polygon fill="none" stroke="black" points="134,-0.5 134,-19.5 196,-19.5 196,-0.5 134,-0.5"/>
<text text-anchor="middle" x="165" y="-7.5" font-family="Helvetica,sans-Serif" font-size="10.00">iphdr_print</text>
</a>
</g>
</g>
<!-- Node1&#45;&gt;Node2 -->
<g id="edge1" class="edge"><title>Node1&#45;&gt;Node2</title>
<path fill="none" stroke="midnightblue" d="M108.078,-10C117.018,-10 125.923,-10 133.913,-10"/>
<polygon fill="midnightblue" stroke="midnightblue" points="108.016,-6.5001 98.0159,-10 108.016,-13.5001 108.016,-6.5001"/>
</g>
<!-- Node3 -->
<g id="node3" class="node"><title>Node3</title>
<g id="a_node3"><a xlink:href="../../de/df3/packet_8c_ab5510311e6fecab65716eea22ce3a941.html#ab5510311e6fecab65716eea22ce3a941" target="_top" xlink:title="Afficher un paquet.">
<polygon fill="none" stroke="black" points="232.5,-0.5 232.5,-19.5 333.5,-19.5 333.5,-0.5 232.5,-0.5"/>
<text text-anchor="middle" x="283" y="-7.5" font-family="Helvetica,sans-Serif" font-size="10.00">icmp4_packet_print</text>
</a>
</g>
</g>
<!-- Node2&#45;&gt;Node3 -->
<g id="edge2" class="edge"><title>Node2&#45;&gt;Node3</title>
<path fill="none" stroke="midnightblue" d="M206.384,-10C214.718,-10 223.587,-10 232.209,-10"/>
<polygon fill="midnightblue" stroke="midnightblue" points="206.175,-6.5001 196.175,-10 206.175,-13.5001 206.175,-6.5001"/>
</g>
</g>
</svg>
