<?xml version="1.0" encoding="UTF-8" standalone="no"?>
<!DOCTYPE svg PUBLIC "-//W3C//DTD SVG 1.1//EN"
 "http://www.w3.org/Graphics/SVG/1.1/DTD/svg11.dtd">
<!-- Generated by graphviz version 2.30.1 (20130712.1527)
 -->
<!-- Title: get_ipv6 Pages: 1 -->
<svg width="332pt" height="66pt"
 viewBox="0.00 0.00 332.00 66.00" xmlns="http://www.w3.org/2000/svg" xmlns:xlink="http://www.w3.org/1999/xlink">
<g id="graph0" class="graph" transform="scale(1 1) rotate(0) translate(4 62)">
<title>get_ipv6</title>
<!-- Node1 -->
<g id="node1" class="node"><title>Node1</title>
<polygon fill="#bfbfbf" stroke="black" points="0.5,-19.5 0.5,-38.5 53.5,-38.5 53.5,-19.5 0.5,-19.5"/>
<text text-anchor="middle" x="27" y="-26.5" font-family="Helvetica,sans-Serif" font-size="10.00">get_ipv6</text>
</g>
<!-- Node2 -->
<g id="node2" class="node"><title>Node2</title>
<g id="a_node2"><a xlink:href="../../d1/d3e/address_8c_a4cd830d7caea78032021132d23d75bb9.html#a4cd830d7caea78032021132d23d75bb9" target="_top" xlink:title="Obtenir l&#39;adresse IPv6 de la machine.">
<polygon fill="none" stroke="black" points="97,-38.5 97,-57.5 185,-57.5 185,-38.5 97,-38.5"/>
<text text-anchor="middle" x="141" y="-45.5" font-family="Helvetica,sans-Serif" font-size="10.00">get_source_ipv6</text>
</a>
</g>
</g>
<!-- Node1&#45;&gt;Node2 -->
<g id="edge1" class="edge"><title>Node1&#45;&gt;Node2</title>
<path fill="none" stroke="midnightblue" d="M63.7849,-35.0706C74.3077,-36.8558 85.9304,-38.8275 96.8618,-40.6819"/>
<polygon fill="midnightblue" stroke="midnightblue" points="64.1396,-31.5809 53.6951,-33.359 62.9688,-38.4823 64.1396,-31.5809"/>
</g>
<!-- Node4 -->
<g id="node4" class="node"><title>Node4</title>
<g id="a_node4"><a xlink:href="../../d1/d4c/traceroute_8c_a6466354b99f01aad9924d61294ed38cd.html#a6466354b99f01aad9924d61294ed38cd" target="_top" xlink:title="Traceroute IPv6+ICMP.">
<polygon fill="none" stroke="black" points="90,-0.5 90,-19.5 192,-19.5 192,-0.5 90,-0.5"/>
<text text-anchor="middle" x="141" y="-7.5" font-family="Helvetica,sans-Serif" font-size="10.00">traceroute_icmp_v6</text>
</a>
</g>
</g>
<!-- Node1&#45;&gt;Node4 -->
<g id="edge3" class="edge"><title>Node1&#45;&gt;Node4</title>
<path fill="none" stroke="midnightblue" d="M63.7384,-22.9372C72.0066,-21.5346 80.9559,-20.0164 89.7167,-18.5302"/>
<polygon fill="midnightblue" stroke="midnightblue" points="62.9688,-19.5177 53.6951,-24.641 64.1396,-26.4191 62.9688,-19.5177"/>
</g>
<!-- Node3 -->
<g id="node3" class="node"><title>Node3</title>
<g id="a_node3"><a xlink:href="../../de/df3/packet_8c_a65b5fff2654c7ea3bb5da793d18043ed.html#a65b5fff2654c7ea3bb5da793d18043ed" target="_top" xlink:title="Construire un paquet IPv6 + ICMP.">
<polygon fill="none" stroke="black" points="228.5,-38.5 228.5,-57.5 323.5,-57.5 323.5,-38.5 228.5,-38.5"/>
<text text-anchor="middle" x="276" y="-45.5" font-family="Helvetica,sans-Serif" font-size="10.00">icmp6_packet_init</text>
</a>
</g>
</g>
<!-- Node2&#45;&gt;Node3 -->
<g id="edge2" class="edge"><title>Node2&#45;&gt;Node3</title>
<path fill="none" stroke="midnightblue" d="M195.441,-48C206.34,-48 217.726,-48 228.365,-48"/>
<polygon fill="midnightblue" stroke="midnightblue" points="195.181,-44.5001 185.181,-48 195.181,-51.5001 195.181,-44.5001"/>
</g>
</g>
</svg>
