<?xml version="1.0" encoding="UTF-8" standalone="no"?>
<!DOCTYPE svg PUBLIC "-//W3C//DTD SVG 1.1//EN"
 "http://www.w3.org/Graphics/SVG/1.1/DTD/svg11.dtd">
<!-- Generated by graphviz version 2.30.1 (20130712.1527)
 -->
<!-- Title: get_ipv4 Pages: 1 -->
<svg width="322pt" height="66pt"
 viewBox="0.00 0.00 322.00 66.00" xmlns="http://www.w3.org/2000/svg" xmlns:xlink="http://www.w3.org/1999/xlink">
<g id="graph0" class="graph" transform="scale(1 1) rotate(0) translate(4 62)">
<title>get_ipv4</title>
<!-- Node1 -->
<g id="node1" class="node"><title>Node1</title>
<polygon fill="#bfbfbf" stroke="black" points="0.5,-19.5 0.5,-38.5 53.5,-38.5 53.5,-19.5 0.5,-19.5"/>
<text text-anchor="middle" x="27" y="-26.5" font-family="Helvetica,sans-Serif" font-size="10.00">get_ipv4</text>
</g>
<!-- Node2 -->
<g id="node2" class="node"><title>Node2</title>
<g id="a_node2"><a xlink:href="../../d1/d3e/address_8c_a79cf7a5008448aa62a64f8f1fe64fb4a.html#a79cf7a5008448aa62a64f8f1fe64fb4a" target="_top" xlink:title="Obtenir l&#39;adresse IPv4 de la machine.">
<polygon fill="none" stroke="black" points="95,-38.5 95,-57.5 183,-57.5 183,-38.5 95,-38.5"/>
<text text-anchor="middle" x="139" y="-45.5" font-family="Helvetica,sans-Serif" font-size="10.00">get_source_ipv4</text>
</a>
</g>
</g>
<!-- Node1&#45;&gt;Node2 -->
<g id="edge1" class="edge"><title>Node1&#45;&gt;Node2</title>
<path fill="none" stroke="midnightblue" d="M63.5272,-35.1365C73.5449,-36.8668 84.5521,-38.7681 94.9591,-40.5657"/>
<polygon fill="midnightblue" stroke="midnightblue" points="63.9625,-31.66 53.5127,-33.4067 62.771,-38.5578 63.9625,-31.66"/>
</g>
<!-- Node4 -->
<g id="node4" class="node"><title>Node4</title>
<g id="a_node4"><a xlink:href="../../d5/d74/ping__icmp_8c_a8840388a584c45eb700d7451452e2b72.html#a8840388a584c45eb700d7451452e2b72" target="_top" xlink:title="Initialisation des différentes structures et création d&#39;un paquet icmp4_packet.">
<polygon fill="none" stroke="black" points="90.5,-0.5 90.5,-19.5 187.5,-19.5 187.5,-0.5 90.5,-0.5"/>
<text text-anchor="middle" x="139" y="-7.5" font-family="Helvetica,sans-Serif" font-size="10.00">init_domaine_IPv4</text>
</a>
</g>
</g>
<!-- Node1&#45;&gt;Node4 -->
<g id="edge3" class="edge"><title>Node1&#45;&gt;Node4</title>
<path fill="none" stroke="midnightblue" d="M63.4653,-22.8742C71.9695,-21.4053 81.1898,-19.8127 90.1524,-18.2646"/>
<polygon fill="midnightblue" stroke="midnightblue" points="62.771,-19.4422 53.5127,-24.5933 63.9625,-26.34 62.771,-19.4422"/>
</g>
<!-- Node3 -->
<g id="node3" class="node"><title>Node3</title>
<g id="a_node3"><a xlink:href="../../de/df3/packet_8c_a4b88c80657bb9a94505d743b92db9652.html#a4b88c80657bb9a94505d743b92db9652" target="_top" xlink:title="Paquet UDP.">
<polygon fill="none" stroke="black" points="224,-38.5 224,-57.5 314,-57.5 314,-38.5 224,-38.5"/>
<text text-anchor="middle" x="269" y="-45.5" font-family="Helvetica,sans-Serif" font-size="10.00">udp4_packet_init</text>
</a>
</g>
</g>
<!-- Node2&#45;&gt;Node3 -->
<g id="edge2" class="edge"><title>Node2&#45;&gt;Node3</title>
<path fill="none" stroke="midnightblue" d="M193.645,-48C203.702,-48 214.109,-48 223.838,-48"/>
<polygon fill="midnightblue" stroke="midnightblue" points="193.335,-44.5001 183.335,-48 193.335,-51.5001 193.335,-44.5001"/>
</g>
</g>
</svg>
