<?xml version="1.0" encoding="UTF-8" standalone="no"?>
<!DOCTYPE svg PUBLIC "-//W3C//DTD SVG 1.1//EN"
 "http://www.w3.org/Graphics/SVG/1.1/DTD/svg11.dtd">
<!-- Generated by graphviz version 2.30.1 (20130712.1527)
 -->
<!-- Title: traceroute_icmp_v6 Pages: 1 -->
<svg width="342pt" height="164pt"
 viewBox="0.00 0.00 342.00 164.00" xmlns="http://www.w3.org/2000/svg" xmlns:xlink="http://www.w3.org/1999/xlink">
<g id="graph0" class="graph" transform="scale(1 1) rotate(0) translate(4 160)">
<title>traceroute_icmp_v6</title>
<!-- Node1 -->
<g id="node1" class="node"><title>Node1</title>
<polygon fill="#bfbfbf" stroke="black" points="0,-76.5 0,-95.5 102,-95.5 102,-76.5 0,-76.5"/>
<text text-anchor="middle" x="51" y="-83.5" font-family="Helvetica,sans-Serif" font-size="10.00">traceroute_icmp_v6</text>
</g>
<!-- Node2 -->
<g id="node2" class="node"><title>Node2</title>
<g id="a_node2"><a xlink:href="../../d9/d9b/address_8h_afbbca3802bd41a1857f94f2182379020.html#afbbca3802bd41a1857f94f2182379020" target="_top" xlink:title="Créer une socket.">
<polygon fill="none" stroke="black" points="138.5,-136.5 138.5,-155.5 253.5,-155.5 253.5,-136.5 138.5,-136.5"/>
<text text-anchor="middle" x="196" y="-143.5" font-family="Helvetica,sans-Serif" font-size="10.00">create_raw_socket_v6</text>
</a>
</g>
</g>
<!-- Node1&#45;&gt;Node2 -->
<g id="edge1" class="edge"><title>Node1&#45;&gt;Node2</title>
<path fill="none" stroke="midnightblue" d="M70.4932,-95.6325C87.7113,-104.404 114.223,-117.412 138,-127 143.2,-129.097 148.729,-131.151 154.22,-133.087"/>
<polygon fill="midnightblue" stroke="midnightblue" points="153.388,-136.502 163.983,-136.43 155.656,-129.88 153.388,-136.502"/>
</g>
<!-- Node3 -->
<g id="node3" class="node"><title>Node3</title>
<g id="a_node3"><a xlink:href="../../d9/d9b/address_8h_a58de0fb218e18cdb0185b96c6171ed9d.html#a58de0fb218e18cdb0185b96c6171ed9d" target="_top" xlink:title="Obtenir une adresse IPv6.">
<polygon fill="none" stroke="black" points="169.5,-98.5 169.5,-117.5 222.5,-117.5 222.5,-98.5 169.5,-98.5"/>
<text text-anchor="middle" x="196" y="-105.5" font-family="Helvetica,sans-Serif" font-size="10.00">get_ipv6</text>
</a>
</g>
</g>
<!-- Node1&#45;&gt;Node3 -->
<g id="edge2" class="edge"><title>Node1&#45;&gt;Node3</title>
<path fill="none" stroke="midnightblue" d="M102.014,-93.6945C120.823,-96.5882 141.819,-99.8183 159.094,-102.476"/>
<polygon fill="midnightblue" stroke="midnightblue" points="158.9,-105.987 169.316,-104.049 159.964,-99.0686 158.9,-105.987"/>
</g>
<!-- Node5 -->
<g id="node5" class="node"><title>Node5</title>
<g id="a_node5"><a xlink:href="../../df/d91/structicmp6__packet_a65b5fff2654c7ea3bb5da793d18043ed.html#a65b5fff2654c7ea3bb5da793d18043ed" target="_top" xlink:title="Construire un paquet IPv6 + ICMP.">
<polygon fill="none" stroke="black" points="141,-49 141,-79 251,-79 251,-49 141,-49"/>
<text text-anchor="start" x="149" y="-67" font-family="Helvetica,sans-Serif" font-size="10.00">icmp6_packet::icmp6</text>
<text text-anchor="middle" x="196" y="-56" font-family="Helvetica,sans-Serif" font-size="10.00">_packet_init</text>
</a>
</g>
</g>
<!-- Node1&#45;&gt;Node5 -->
<g id="edge4" class="edge"><title>Node1&#45;&gt;Node5</title>
<path fill="none" stroke="midnightblue" d="M102.014,-78.3055C111.34,-76.8708 121.202,-75.3535 130.883,-73.8642"/>
<polygon fill="midnightblue" stroke="midnightblue" points="131.523,-77.307 140.874,-72.3271 130.458,-70.3884 131.523,-77.307"/>
</g>
<!-- Node6 -->
<g id="node6" class="node"><title>Node6</title>
<g id="a_node6"><a xlink:href="../../df/d91/structicmp6__packet_a05b6061852816ac13e20f03330f748b1.html#a05b6061852816ac13e20f03330f748b1" target="_top" xlink:title="Changer le TTL d&#39;un paquet IPv4 + ICMP.">
<polygon fill="none" stroke="black" points="141,-0 141,-30 251,-30 251,-0 141,-0"/>
<text text-anchor="start" x="149" y="-18" font-family="Helvetica,sans-Serif" font-size="10.00">icmp6_packet::icmp6</text>
<text text-anchor="middle" x="196" y="-7" font-family="Helvetica,sans-Serif" font-size="10.00">_packet_set_ttl</text>
</a>
</g>
</g>
<!-- Node1&#45;&gt;Node6 -->
<g id="edge5" class="edge"><title>Node1&#45;&gt;Node6</title>
<path fill="none" stroke="midnightblue" d="M68.9307,-76.4397C86.1303,-66.8477 113.632,-51.8387 138,-40 141.99,-38.0618 146.165,-36.1024 150.365,-34.1784"/>
<polygon fill="midnightblue" stroke="midnightblue" points="151.855,-37.3458 159.533,-30.0451 148.978,-30.9643 151.855,-37.3458"/>
</g>
<!-- Node4 -->
<g id="node4" class="node"><title>Node4</title>
<g id="a_node4"><a xlink:href="../../d9/d9b/address_8h_ac2527f2c331db757a25840db6b1068b9.html#ac2527f2c331db757a25840db6b1068b9" target="_top" xlink:title="Obtenir une adresse IP.">
<polygon fill="none" stroke="black" points="290.5,-98.5 290.5,-117.5 333.5,-117.5 333.5,-98.5 290.5,-98.5"/>
<text text-anchor="middle" x="312" y="-105.5" font-family="Helvetica,sans-Serif" font-size="10.00">get_ip</text>
</a>
</g>
</g>
<!-- Node3&#45;&gt;Node4 -->
<g id="edge3" class="edge"><title>Node3&#45;&gt;Node4</title>
<path fill="none" stroke="midnightblue" d="M222.584,-108C239.705,-108 262.326,-108 280.401,-108"/>
<polygon fill="midnightblue" stroke="midnightblue" points="280.442,-111.5 290.442,-108 280.442,-104.5 280.442,-111.5"/>
</g>
</g>
</svg>
