<?xml version="1.0" encoding="UTF-8" standalone="no"?>
<!DOCTYPE svg PUBLIC "-//W3C//DTD SVG 1.1//EN"
 "http://www.w3.org/Graphics/SVG/1.1/DTD/svg11.dtd">
<!-- Generated by graphviz version 2.30.1 (20130712.1527)
 -->
<!-- Title: include/udp_util.h Pages: 1 -->
<svg width="797pt" height="252pt"
 viewBox="0.00 0.00 797.00 252.00" xmlns="http://www.w3.org/2000/svg" xmlns:xlink="http://www.w3.org/1999/xlink">
<g id="graph0" class="graph" transform="scale(1 1) rotate(0) translate(4 248)">
<title>include/udp_util.h</title>
<!-- Node1 -->
<g id="node1" class="node"><title>Node1</title>
<polygon fill="#bfbfbf" stroke="black" points="413,-224.5 413,-243.5 505,-243.5 505,-224.5 413,-224.5"/>
<text text-anchor="middle" x="459" y="-231.5" font-family="Helvetica,sans-Serif" font-size="10.00">include/udp_util.h</text>
</g>
<!-- Node2 -->
<g id="node2" class="node"><title>Node2</title>
<g id="a_node2"><a xlink:href="../../d3/d76/packet_8h.html" target="_top" xlink:title="Utilitaires pour créer des paquets (header)">
<polygon fill="none" stroke="black" points="365,-168.5 365,-187.5 453,-187.5 453,-168.5 365,-168.5"/>
<text text-anchor="middle" x="409" y="-175.5" font-family="Helvetica,sans-Serif" font-size="10.00">include/packet.h</text>
</a>
</g>
</g>
<!-- Node1&#45;&gt;Node2 -->
<g id="edge1" class="edge"><title>Node1&#45;&gt;Node2</title>
<path fill="none" stroke="midnightblue" d="M443.924,-216.718C435.111,-207.2 424.334,-195.561 417.103,-187.751"/>
<polygon fill="midnightblue" stroke="midnightblue" points="441.381,-219.123 450.744,-224.083 446.518,-214.367 441.381,-219.123"/>
</g>
<!-- Node16 -->
<g id="node16" class="node"><title>Node16</title>
<g id="a_node16"><a xlink:href="../../d4/de6/udp__util_8c.html" target="_top" xlink:title="Utilitaires IP (implémentation)">
<polygon fill="none" stroke="black" points="471.5,-168.5 471.5,-187.5 546.5,-187.5 546.5,-168.5 471.5,-168.5"/>
<text text-anchor="middle" x="509" y="-175.5" font-family="Helvetica,sans-Serif" font-size="10.00">src/udp_util.c</text>
</a>
</g>
</g>
<!-- Node1&#45;&gt;Node16 -->
<g id="edge16" class="edge"><title>Node1&#45;&gt;Node16</title>
<path fill="none" stroke="midnightblue" d="M474.076,-216.718C482.889,-207.2 493.666,-195.561 500.897,-187.751"/>
<polygon fill="midnightblue" stroke="midnightblue" points="471.482,-214.367 467.256,-224.083 476.619,-219.123 471.482,-214.367"/>
</g>
<!-- Node3 -->
<g id="node3" class="node"><title>Node3</title>
<g id="a_node3"><a xlink:href="../../de/d71/traceroute_8h.html" target="_top" xlink:title="Traceroute (header)">
<polygon fill="none" stroke="black" points="151,-112.5 151,-131.5 253,-131.5 253,-112.5 151,-112.5"/>
<text text-anchor="middle" x="202" y="-119.5" font-family="Helvetica,sans-Serif" font-size="10.00">include/traceroute.h</text>
</a>
</g>
</g>
<!-- Node2&#45;&gt;Node3 -->
<g id="edge2" class="edge"><title>Node2&#45;&gt;Node3</title>
<path fill="none" stroke="midnightblue" d="M366.178,-165.829C327.094,-155.633 270.165,-140.782 234.646,-131.516"/>
<polygon fill="midnightblue" stroke="midnightblue" points="365.641,-169.306 376.2,-168.444 367.408,-162.533 365.641,-169.306"/>
</g>
<!-- Node9 -->
<g id="node9" class="node"><title>Node9</title>
<g id="a_node9"><a xlink:href="../../d6/dc8/ping__icmp_8h.html" target="_top" xlink:title="Implémentation de la fonction Ping. (header)">
<polygon fill="none" stroke="black" points="357.5,-112.5 357.5,-131.5 460.5,-131.5 460.5,-112.5 357.5,-112.5"/>
<text text-anchor="middle" x="409" y="-119.5" font-family="Helvetica,sans-Serif" font-size="10.00">include/ping_icmp.h</text>
</a>
</g>
</g>
<!-- Node2&#45;&gt;Node9 -->
<g id="edge8" class="edge"><title>Node2&#45;&gt;Node9</title>
<path fill="none" stroke="midnightblue" d="M409,-157.805C409,-148.91 409,-138.78 409,-131.751"/>
<polygon fill="midnightblue" stroke="midnightblue" points="405.5,-158.083 409,-168.083 412.5,-158.083 405.5,-158.083"/>
</g>
<!-- Node12 -->
<g id="node12" class="node"><title>Node12</title>
<g id="a_node12"><a xlink:href="../../de/df3/packet_8c.html" target="_top" xlink:title="Utilitaires pour créer des paquets (implémentation)">
<polygon fill="none" stroke="black" points="478.5,-112.5 478.5,-131.5 549.5,-131.5 549.5,-112.5 478.5,-112.5"/>
<text text-anchor="middle" x="514" y="-119.5" font-family="Helvetica,sans-Serif" font-size="10.00">src/packet.c</text>
</a>
</g>
</g>
<!-- Node2&#45;&gt;Node12 -->
<g id="edge11" class="edge"><title>Node2&#45;&gt;Node12</title>
<path fill="none" stroke="midnightblue" d="M434.81,-163.726C454.253,-153.727 480.348,-140.307 497.172,-131.655"/>
<polygon fill="midnightblue" stroke="midnightblue" points="433.162,-160.638 425.87,-168.324 436.364,-166.863 433.162,-160.638"/>
</g>
<!-- Node13 -->
<g id="node13" class="node"><title>Node13</title>
<g id="a_node13"><a xlink:href="../../da/d3e/test__packet_8h_source.html" target="_top" xlink:title="tests/test_packet.h">
<polygon fill="none" stroke="black" points="577.5,-112.5 577.5,-131.5 678.5,-131.5 678.5,-112.5 577.5,-112.5"/>
<text text-anchor="middle" x="628" y="-119.5" font-family="Helvetica,sans-Serif" font-size="10.00">tests/test_packet.h</text>
</a>
</g>
</g>
<!-- Node2&#45;&gt;Node13 -->
<g id="edge12" class="edge"><title>Node2&#45;&gt;Node13</title>
<path fill="none" stroke="midnightblue" d="M453.515,-166.024C494.884,-155.823 555.643,-140.841 593.461,-131.516"/>
<polygon fill="midnightblue" stroke="midnightblue" points="452.572,-162.651 443.701,-168.444 454.248,-169.448 452.572,-162.651"/>
</g>
<!-- Node8 -->
<g id="node8" class="node"><title>Node8</title>
<g id="a_node8"><a xlink:href="../../de/d12/test__traceroute_8c_source.html" target="_top" xlink:title="tests/test_traceroute.c">
<polygon fill="none" stroke="black" points="232.5,-56.5 232.5,-75.5 347.5,-75.5 347.5,-56.5 232.5,-56.5"/>
<text text-anchor="middle" x="290" y="-63.5" font-family="Helvetica,sans-Serif" font-size="10.00">tests/test_traceroute.c</text>
</a>
</g>
</g>
<!-- Node2&#45;&gt;Node8 -->
<g id="edge15" class="edge"><title>Node2&#45;&gt;Node8</title>
<path fill="none" stroke="midnightblue" d="M387.241,-162.594C375.204,-154.227 360.248,-143.159 348,-132 327.653,-113.462 306.922,-88.4294 296.637,-75.5067"/>
<polygon fill="midnightblue" stroke="midnightblue" points="385.55,-165.677 395.784,-168.422 389.496,-159.895 385.55,-165.677"/>
</g>
<!-- Node4 -->
<g id="node4" class="node"><title>Node4</title>
<g id="a_node4"><a xlink:href="../../d9/d8d/anna_8h.html" target="_top" xlink:title="Anna. (implémentation)">
<polygon fill="none" stroke="black" points="31,-56.5 31,-75.5 111,-75.5 111,-56.5 31,-56.5"/>
<text text-anchor="middle" x="71" y="-63.5" font-family="Helvetica,sans-Serif" font-size="10.00">include/anna.h</text>
</a>
</g>
</g>
<!-- Node3&#45;&gt;Node4 -->
<g id="edge3" class="edge"><title>Node3&#45;&gt;Node4</title>
<path fill="none" stroke="midnightblue" d="M171.683,-108.503C147.124,-98.3795 113.182,-84.388 91.6602,-75.5164"/>
<polygon fill="midnightblue" stroke="midnightblue" points="170.663,-111.868 181.243,-112.444 173.331,-105.397 170.663,-111.868"/>
</g>
<!-- Node7 -->
<g id="node7" class="node"><title>Node7</title>
<g id="a_node7"><a xlink:href="../../d1/d4c/traceroute_8c.html" target="_top" xlink:title="Traceroute (implémentation)">
<polygon fill="none" stroke="black" points="129.5,-56.5 129.5,-75.5 214.5,-75.5 214.5,-56.5 129.5,-56.5"/>
<text text-anchor="middle" x="172" y="-63.5" font-family="Helvetica,sans-Serif" font-size="10.00">src/traceroute.c</text>
</a>
</g>
</g>
<!-- Node3&#45;&gt;Node7 -->
<g id="edge6" class="edge"><title>Node3&#45;&gt;Node7</title>
<path fill="none" stroke="midnightblue" d="M192.153,-103.275C187.025,-94.0454 180.984,-83.1703 176.862,-75.7511"/>
<polygon fill="midnightblue" stroke="midnightblue" points="189.13,-105.041 197.046,-112.083 195.249,-101.642 189.13,-105.041"/>
</g>
<!-- Node3&#45;&gt;Node8 -->
<g id="edge7" class="edge"><title>Node3&#45;&gt;Node8</title>
<path fill="none" stroke="midnightblue" d="M224.977,-106.901C241.113,-96.9986 262.181,-84.0705 275.896,-75.6545"/>
<polygon fill="midnightblue" stroke="midnightblue" points="222.831,-104.111 216.139,-112.324 226.493,-110.077 222.831,-104.111"/>
</g>
<!-- Node5 -->
<g id="node5" class="node"><title>Node5</title>
<g id="a_node5"><a xlink:href="../../d2/da0/anna_8c.html" target="_top" xlink:title="Anna. (implémentation)">
<polygon fill="none" stroke="black" points="0,-0.5 0,-19.5 62,-19.5 62,-0.5 0,-0.5"/>
<text text-anchor="middle" x="31" y="-7.5" font-family="Helvetica,sans-Serif" font-size="10.00">src/anna.c</text>
</a>
</g>
</g>
<!-- Node4&#45;&gt;Node5 -->
<g id="edge4" class="edge"><title>Node4&#45;&gt;Node5</title>
<path fill="none" stroke="midnightblue" d="M58.3003,-47.8554C51.374,-38.5048 43.0937,-27.3265 37.4823,-19.7511"/>
<polygon fill="midnightblue" stroke="midnightblue" points="55.63,-50.1307 64.3948,-56.083 61.255,-45.9641 55.63,-50.1307"/>
</g>
<!-- Node6 -->
<g id="node6" class="node"><title>Node6</title>
<g id="a_node6"><a xlink:href="../../d0/d29/main_8c.html" target="_top" xlink:title="Main. (implémentation)">
<polygon fill="none" stroke="black" points="80,-0.5 80,-19.5 142,-19.5 142,-0.5 80,-0.5"/>
<text text-anchor="middle" x="111" y="-7.5" font-family="Helvetica,sans-Serif" font-size="10.00">src/main.c</text>
</a>
</g>
</g>
<!-- Node4&#45;&gt;Node6 -->
<g id="edge5" class="edge"><title>Node4&#45;&gt;Node6</title>
<path fill="none" stroke="midnightblue" d="M83.6997,-47.8554C90.626,-38.5048 98.9063,-27.3265 104.518,-19.7511"/>
<polygon fill="midnightblue" stroke="midnightblue" points="80.745,-45.9641 77.6052,-56.083 86.37,-50.1307 80.745,-45.9641"/>
</g>
<!-- Node10 -->
<g id="node10" class="node"><title>Node10</title>
<g id="a_node10"><a xlink:href="../../d5/d74/ping__icmp_8c.html" target="_top" xlink:title="Implémentation de la fonction Ping. (implémentation)">
<polygon fill="none" stroke="black" points="366,-56.5 366,-75.5 452,-75.5 452,-56.5 366,-56.5"/>
<text text-anchor="middle" x="409" y="-63.5" font-family="Helvetica,sans-Serif" font-size="10.00">src/ping_icmp.c</text>
</a>
</g>
</g>
<!-- Node9&#45;&gt;Node10 -->
<g id="edge9" class="edge"><title>Node9&#45;&gt;Node10</title>
<path fill="none" stroke="midnightblue" d="M409,-101.805C409,-92.9102 409,-82.7798 409,-75.7511"/>
<polygon fill="midnightblue" stroke="midnightblue" points="405.5,-102.083 409,-112.083 412.5,-102.083 405.5,-102.083"/>
</g>
<!-- Node11 -->
<g id="node11" class="node"><title>Node11</title>
<g id="a_node11"><a xlink:href="../../d5/da8/test__ping_8c_source.html" target="_top" xlink:title="tests/test_ping.c">
<polygon fill="none" stroke="black" points="470.5,-56.5 470.5,-75.5 559.5,-75.5 559.5,-56.5 470.5,-56.5"/>
<text text-anchor="middle" x="515" y="-63.5" font-family="Helvetica,sans-Serif" font-size="10.00">tests/test_ping.c</text>
</a>
</g>
</g>
<!-- Node9&#45;&gt;Node11 -->
<g id="edge10" class="edge"><title>Node9&#45;&gt;Node11</title>
<path fill="none" stroke="midnightblue" d="M435.056,-107.726C454.684,-97.7271 481.028,-84.3065 498.012,-75.6545"/>
<polygon fill="midnightblue" stroke="midnightblue" points="433.352,-104.666 426.031,-112.324 436.53,-110.903 433.352,-104.666"/>
</g>
<!-- Node14 -->
<g id="node14" class="node"><title>Node14</title>
<g id="a_node14"><a xlink:href="../../d1/d26/test__packet_8c_source.html" target="_top" xlink:title="tests/test_packet.c">
<polygon fill="none" stroke="black" points="577.5,-56.5 577.5,-75.5 678.5,-75.5 678.5,-56.5 577.5,-56.5"/>
<text text-anchor="middle" x="628" y="-63.5" font-family="Helvetica,sans-Serif" font-size="10.00">tests/test_packet.c</text>
</a>
</g>
</g>
<!-- Node13&#45;&gt;Node14 -->
<g id="edge13" class="edge"><title>Node13&#45;&gt;Node14</title>
<path fill="none" stroke="midnightblue" d="M628,-101.805C628,-92.9102 628,-82.7798 628,-75.7511"/>
<polygon fill="midnightblue" stroke="midnightblue" points="624.5,-102.083 628,-112.083 631.5,-102.083 624.5,-102.083"/>
</g>
<!-- Node15 -->
<g id="node15" class="node"><title>Node15</title>
<g id="a_node15"><a xlink:href="../../d8/d2e/unit__tests_8c_source.html" target="_top" xlink:title="tests/unit_tests.c">
<polygon fill="none" stroke="black" points="697,-56.5 697,-75.5 789,-75.5 789,-56.5 697,-56.5"/>
<text text-anchor="middle" x="743" y="-63.5" font-family="Helvetica,sans-Serif" font-size="10.00">tests/unit_tests.c</text>
</a>
</g>
</g>
<!-- Node13&#45;&gt;Node15 -->
<g id="edge14" class="edge"><title>Node13&#45;&gt;Node15</title>
<path fill="none" stroke="midnightblue" d="M655.481,-108.096C676.966,-98.0073 706.222,-84.2697 724.863,-75.5164"/>
<polygon fill="midnightblue" stroke="midnightblue" points="653.786,-105.025 646.222,-112.444 656.762,-111.361 653.786,-105.025"/>
</g>
</g>
</svg>
