<?xml version="1.0" encoding="UTF-8" standalone="no"?>
<!DOCTYPE svg PUBLIC "-//W3C//DTD SVG 1.1//EN"
 "http://www.w3.org/Graphics/SVG/1.1/DTD/svg11.dtd">
<!-- Generated by graphviz version 2.30.1 (20130712.1527)
 -->
<!-- Title: checksum Pages: 1 -->
<!--zoomable 180 -->
<svg id="main" version="1.1" xmlns="http://www.w3.org/2000/svg" xmlns:xlink="http://www.w3.org/1999/xlink" xml:space="preserve" onload="init(evt)">
        <defs>
                <circle id="rim" cx="0" cy="0" r="7"/>
                <circle id="rim2" cx="0" cy="0" r="3.5"/>
                <g id="zoomPlus">
                        <use xlink:href="#rim" fill="#404040">
                                <set attributeName="fill" to="#808080" begin="zoomplus.mouseover" end="zoomplus.mouseout"/>
                        </use>
                        <path d="M-4,0h8M0,-4v8" fill="none" stroke="white" stroke-width="1.5" pointer-events="none"/>
                </g>
                <g id="zoomMin">
                        <use xlink:href="#rim" fill="#404040">
                                <set attributeName="fill" to="#808080" begin="zoomminus.mouseover" end="zoomminus.mouseout"/>
                        </use>
                        <path d="M-4,0h8" fill="none" stroke="white" stroke-width="1.5" pointer-events="none"/>
                </g>
                <g id="dirArrow">
                        <path fill="none" stroke="white" stroke-width="1.5" d="M0,-3.0v7 M-2.5,-0.5L0,-3.0L2.5,-0.5"/>
                </g>
               <g id="resetDef">
                       <use xlink:href="#rim2" fill="#404040">
                               <set attributeName="fill" to="#808080" begin="reset.mouseover" end="reset.mouseout"/>
                       </use>
               </g>
        </defs>

<script type="text/javascript">
var viewWidth = 548;
var viewHeight = 180;
var sectionId = 'dynsection-0';
</script>
<script xlink:href="../../svgpan.js"/>
<svg id="graph" class="graph">
<g id="viewport">
<title>checksum</title>
<!-- Node1 -->
<g id="node1" class="node"><title>Node1</title>
<polygon fill="#bfbfbf" stroke="black" points="0,-114.5 0,-133.5 62,-133.5 62,-114.5 0,-114.5"/>
<text text-anchor="middle" x="31" y="-121.5" font-family="Helvetica,sans-Serif" font-size="10.00">checksum</text>
</g>
<!-- Node2 -->
<g id="node2" class="node"><title>Node2</title>
<g id="a_node2"><a xlink:href="../../de/df3/packet_8c_a56693b0f5270e1406a1da4f5a9907e14.html#a56693b0f5270e1406a1da4f5a9907e14" target="_top" xlink:title="Checksum d&#39;un paquet IPv6+ICMP.">
<polygon fill="none" stroke="black" points="98,-152.5 98,-171.5 226,-171.5 226,-152.5 98,-152.5"/>
<text text-anchor="middle" x="162" y="-159.5" font-family="Helvetica,sans-Serif" font-size="10.00">icmp6_packet_checksum</text>
</a>
</g>
</g>
<!-- Node1&#45;&gt;Node2 -->
<g id="edge1" class="edge"><title>Node1&#45;&gt;Node2</title>
<path fill="none" stroke="midnightblue" d="M72.006,-135.785C90.2253,-141.152 111.507,-147.421 128.69,-152.482"/>
<polygon fill="midnightblue" stroke="midnightblue" points="72.8263,-132.378 62.2448,-132.909 70.8482,-139.092 72.8263,-132.378"/>
</g>
<!-- Node3 -->
<g id="node3" class="node"><title>Node3</title>
<g id="a_node3"><a xlink:href="../../d4/df1/icmp__util_8c_afe296c49e028d34dfdc018351fe39a2e.html#afe296c49e028d34dfdc018351fe39a2e" target="_top" xlink:title="Checksum.">
<polygon fill="none" stroke="black" points="118,-114.5 118,-133.5 206,-133.5 206,-114.5 118,-114.5"/>
<text text-anchor="middle" x="162" y="-121.5" font-family="Helvetica,sans-Serif" font-size="10.00">icmp_checksum</text>
</a>
</g>
</g>
<!-- Node1&#45;&gt;Node3 -->
<g id="edge2" class="edge"><title>Node1&#45;&gt;Node3</title>
<path fill="none" stroke="midnightblue" d="M72.3652,-124C86.7901,-124 103.097,-124 117.755,-124"/>
<polygon fill="midnightblue" stroke="midnightblue" points="72.2448,-120.5 62.2448,-124 72.2447,-127.5 72.2448,-120.5"/>
</g>
<!-- Node6 -->
<g id="node6" class="node"><title>Node6</title>
<g id="a_node6"><a xlink:href="../../da/d7b/ip__util_8c_a72e243e899f4cc01d7316c041fc00c56.html#a72e243e899f4cc01d7316c041fc00c56" target="_top" xlink:title="Checksum.">
<polygon fill="none" stroke="black" points="118,-57.5 118,-76.5 206,-76.5 206,-57.5 118,-57.5"/>
<text text-anchor="middle" x="162" y="-64.5" font-family="Helvetica,sans-Serif" font-size="10.00">iphdr_checksum</text>
</a>
</g>
</g>
<!-- Node1&#45;&gt;Node6 -->
<g id="edge5" class="edge"><title>Node1&#45;&gt;Node6</title>
<path fill="none" stroke="midnightblue" d="M62.8199,-110.382C86.421,-99.9535 118.384,-85.8303 139.338,-76.5716"/>
<polygon fill="midnightblue" stroke="midnightblue" points="61.324,-107.216 53.5917,-114.459 64.1532,-113.619 61.324,-107.216"/>
</g>
<!-- Node4 -->
<g id="node4" class="node"><title>Node4</title>
<g id="a_node4"><a xlink:href="../../de/df3/packet_8c_a974a33d2edadacf13bcb4e2b4d9ec144.html#a974a33d2edadacf13bcb4e2b4d9ec144" target="_top" xlink:title="Construire un paquet IPv4 + ICMP.">
<polygon fill="none" stroke="black" points="286.5,-152.5 286.5,-171.5 381.5,-171.5 381.5,-152.5 286.5,-152.5"/>
<text text-anchor="middle" x="334" y="-159.5" font-family="Helvetica,sans-Serif" font-size="10.00">icmp4_packet_init</text>
</a>
</g>
</g>
<!-- Node3&#45;&gt;Node4 -->
<g id="edge3" class="edge"><title>Node3&#45;&gt;Node4</title>
<path fill="none" stroke="midnightblue" d="M215.898,-135.824C239.865,-141.182 267.824,-147.431 290.41,-152.48"/>
<polygon fill="midnightblue" stroke="midnightblue" points="216.421,-132.355 205.898,-133.589 214.894,-139.186 216.421,-132.355"/>
</g>
<!-- Node5 -->
<g id="node5" class="node"><title>Node5</title>
<g id="a_node5"><a xlink:href="../../de/df3/packet_8c_af095ed91818f00ec8eb99f95ad89f6f9.html#af095ed91818f00ec8eb99f95ad89f6f9" target="_top" xlink:title="Changer la sequence d&#39;un paquet IPv4+ICMP ECHO_REQUEST.">
<polygon fill="none" stroke="black" points="262.5,-114.5 262.5,-133.5 405.5,-133.5 405.5,-114.5 262.5,-114.5"/>
<text text-anchor="middle" x="334" y="-121.5" font-family="Helvetica,sans-Serif" font-size="10.00">icmp4_packet_set_echo_seq</text>
</a>
</g>
</g>
<!-- Node3&#45;&gt;Node5 -->
<g id="edge4" class="edge"><title>Node3&#45;&gt;Node5</title>
<path fill="none" stroke="midnightblue" d="M216.619,-124C231.123,-124 247.045,-124 262.331,-124"/>
<polygon fill="midnightblue" stroke="midnightblue" points="216.338,-120.5 206.338,-124 216.338,-127.5 216.338,-120.5"/>
</g>
<!-- Node7 -->
<g id="node7" class="node"><title>Node7</title>
<g id="a_node7"><a xlink:href="../../de/df3/packet_8c_a240696fd8d3a5fec165bafed14adf2d2.html#a240696fd8d3a5fec165bafed14adf2d2" target="_top" xlink:title="Changer le TTL d&#39;un paquet IPv4 + ICMP.">
<polygon fill="none" stroke="black" points="279,-76.5 279,-95.5 389,-95.5 389,-76.5 279,-76.5"/>
<text text-anchor="middle" x="334" y="-83.5" font-family="Helvetica,sans-Serif" font-size="10.00">icmp4_packet_set_ttl</text>
</a>
</g>
</g>
<!-- Node6&#45;&gt;Node7 -->
<g id="edge6" class="edge"><title>Node6&#45;&gt;Node7</title>
<path fill="none" stroke="midnightblue" d="M216.451,-72.9739C236.309,-75.1934 258.845,-77.7121 278.773,-79.9393"/>
<polygon fill="midnightblue" stroke="midnightblue" points="216.665,-69.4761 206.338,-71.8437 215.887,-76.4328 216.665,-69.4761"/>
</g>
<!-- Node8 -->
<g id="node8" class="node"><title>Node8</title>
<g id="a_node8"><a xlink:href="../../de/df3/packet_8c_a4b88c80657bb9a94505d743b92db9652.html#a4b88c80657bb9a94505d743b92db9652" target="_top" xlink:title="Paquet UDP.">
<polygon fill="none" stroke="black" points="289,-38.5 289,-57.5 379,-57.5 379,-38.5 289,-38.5"/>
<text text-anchor="middle" x="334" y="-45.5" font-family="Helvetica,sans-Serif" font-size="10.00">udp4_packet_init</text>
</a>
</g>
</g>
<!-- Node6&#45;&gt;Node8 -->
<g id="edge7" class="edge"><title>Node6&#45;&gt;Node8</title>
<path fill="none" stroke="midnightblue" d="M216.413,-61.0303C239.716,-58.4259 266.711,-55.4088 288.854,-52.934"/>
<polygon fill="midnightblue" stroke="midnightblue" points="215.887,-57.5672 206.338,-62.1563 216.665,-64.5239 215.887,-57.5672"/>
</g>
<!-- Node9 -->
<g id="node9" class="node"><title>Node9</title>
<g id="a_node9"><a xlink:href="../../de/df3/packet_8c_a2a4750ae57802f852e78f9c015e0cbca.html#a2a4750ae57802f852e78f9c015e0cbca" target="_top" xlink:title="Paquet UDP.">
<polygon fill="none" stroke="black" points="282,-0.5 282,-19.5 386,-19.5 386,-0.5 282,-0.5"/>
<text text-anchor="middle" x="334" y="-7.5" font-family="Helvetica,sans-Serif" font-size="10.00">udp4_packet_set_ttl</text>
</a>
</g>
</g>
<!-- Node6&#45;&gt;Node9 -->
<g id="edge8" class="edge"><title>Node6&#45;&gt;Node9</title>
<path fill="none" stroke="midnightblue" d="M195.428,-53.564C214.61,-45.8652 239.485,-36.3115 262,-29 272.437,-25.6107 283.875,-22.3544 294.462,-19.5242"/>
<polygon fill="midnightblue" stroke="midnightblue" points="193.913,-50.4013 185.958,-57.3992 196.54,-56.8894 193.913,-50.4013"/>
</g>
<!-- Node10 -->
<g id="node10" class="node"><title>Node10</title>
<g id="a_node10"><a xlink:href="../../d1/d4c/traceroute_8c_a8b496d066de14ea5078c799a41849d49.html#a8b496d066de14ea5078c799a41849d49" target="_top" xlink:title="Traceroute IPv4+UDP.">
<polygon fill="none" stroke="black" points="442.5,-0.5 442.5,-19.5 539.5,-19.5 539.5,-0.5 442.5,-0.5"/>
<text text-anchor="middle" x="491" y="-7.5" font-family="Helvetica,sans-Serif" font-size="10.00">traceroute_udp_v4</text>
</a>
</g>
</g>
<!-- Node9&#45;&gt;Node10 -->
<g id="edge9" class="edge"><title>Node9&#45;&gt;Node10</title>
<path fill="none" stroke="midnightblue" d="M396.549,-10C411.764,-10 427.837,-10 442.282,-10"/>
<polygon fill="midnightblue" stroke="midnightblue" points="396.182,-6.5001 386.182,-10 396.182,-13.5001 396.182,-6.5001"/>
</g>
</g>
</svg>
        <g id="navigator" transform="translate(0 0)" fill="#404254">
                <rect fill="#f2f5e9" fill-opacity="0.5" stroke="#606060" stroke-width=".5" x="0" y="0" width="60" height="60"/>
                <use id="zoomplus" xlink:href="#zoomPlus" x="17" y="9" onmousedown="handleZoom(evt,'in')"/>
                <use id="zoomminus" xlink:href="#zoomMin" x="42" y="9" onmousedown="handleZoom(evt,'out')"/>
                <use id="reset" xlink:href="#resetDef" x="30" y="36" onmousedown="handleReset()"/>
                <g id="arrowUp" xlink:href="#dirArrow" transform="translate(30 24)" onmousedown="handlePan(0,-1)">
                  <use xlink:href="#rim" fill="#404040">
                        <set attributeName="fill" to="#808080" begin="arrowUp.mouseover" end="arrowUp.mouseout"/>
                  </use>
                  <path fill="none" stroke="white" stroke-width="1.5" d="M0,-3.0v7 M-2.5,-0.5L0,-3.0L2.5,-0.5"/>
                </g>
                <g id="arrowRight" xlink:href="#dirArrow" transform="rotate(90) translate(36 -43)" onmousedown="handlePan(1,0)">
                  <use xlink:href="#rim" fill="#404040">
                        <set attributeName="fill" to="#808080" begin="arrowRight.mouseover" end="arrowRight.mouseout"/>
                  </use>
                  <path fill="none" stroke="white" stroke-width="1.5" d="M0,-3.0v7 M-2.5,-0.5L0,-3.0L2.5,-0.5"/>
                </g>
                <g id="arrowDown" xlink:href="#dirArrow" transform="rotate(180) translate(-30 -48)" onmousedown="handlePan(0,1)">
                  <use xlink:href="#rim" fill="#404040">
                        <set attributeName="fill" to="#808080" begin="arrowDown.mouseover" end="arrowDown.mouseout"/>
                  </use>
                  <path fill="none" stroke="white" stroke-width="1.5" d="M0,-3.0v7 M-2.5,-0.5L0,-3.0L2.5,-0.5"/>
                </g>
                <g id="arrowLeft" xlink:href="#dirArrow" transform="rotate(270) translate(-36 17)" onmousedown="handlePan(-1,0)">
                  <use xlink:href="#rim" fill="#404040">
                        <set attributeName="fill" to="#808080" begin="arrowLeft.mouseover" end="arrowLeft.mouseout"/>
                  </use>
                  <path fill="none" stroke="white" stroke-width="1.5" d="M0,-3.0v7 M-2.5,-0.5L0,-3.0L2.5,-0.5"/>
                </g>
        </g>
        <svg viewBox="0 0 15 15" width="100%" height="30px" preserveAspectRatio="xMaxYMin meet">
         <g id="arrow_out" transform="scale(0.3 0.3)">
          <a xlink:href="checksum_8c_a7828c8e3be5232a22a919d3686d98b80_a7828c8e3be5232a22a919d3686d98b80_icgraph_org.svg" target="_base">
           <rect id="button" ry="5" rx="5" y="6" x="6" height="38" width="38"
                fill="#f2f5e9" fill-opacity="0.5" stroke="#606060" stroke-width="1.0"/>
           <path id="arrow"
             d="M 11.500037,31.436501 C 11.940474,20.09759 22.043105,11.32322 32.158766,21.979434 L 37.068811,17.246167 C 37.068811,17.246167 37.088388,32 37.088388,32 L 22.160133,31.978069 C 22.160133,31.978069 26.997745,27.140456 26.997745,27.140456 C 18.528582,18.264221 13.291696,25.230495 11.500037,31.436501 z"
             style="fill:#404040;"/>
          </a>
         </g>
        </svg>
</svg>
