<?xml version="1.0" encoding="UTF-8" standalone="no"?>
<!DOCTYPE svg PUBLIC "-//W3C//DTD SVG 1.1//EN"
 "http://www.w3.org/Graphics/SVG/1.1/DTD/svg11.dtd">
<!-- Generated by graphviz version 2.30.1 (20130712.1527)
 -->
<!-- Title: icmp6_set_echo Pages: 1 -->
<svg width="276pt" height="66pt"
 viewBox="0.00 0.00 276.00 66.00" xmlns="http://www.w3.org/2000/svg" xmlns:xlink="http://www.w3.org/1999/xlink">
<g id="graph0" class="graph" transform="scale(1 1) rotate(0) translate(4 62)">
<title>icmp6_set_echo</title>
<!-- Node1 -->
<g id="node1" class="node"><title>Node1</title>
<polygon fill="#bfbfbf" stroke="black" points="0,-19.5 0,-38.5 88,-38.5 88,-19.5 0,-19.5"/>
<text text-anchor="middle" x="44" y="-26.5" font-family="Helvetica,sans-Serif" font-size="10.00">icmp6_set_echo</text>
</g>
<!-- Node2 -->
<g id="node2" class="node"><title>Node2</title>
<g id="a_node2"><a xlink:href="../../de/df3/packet_8c_a65b5fff2654c7ea3bb5da793d18043ed.html#a65b5fff2654c7ea3bb5da793d18043ed" target="_top" xlink:title="Construire un paquet IPv6 + ICMP.">
<polygon fill="none" stroke="black" points="148.5,-38.5 148.5,-57.5 243.5,-57.5 243.5,-38.5 148.5,-38.5"/>
<text text-anchor="middle" x="196" y="-45.5" font-family="Helvetica,sans-Serif" font-size="10.00">icmp6_packet_init</text>
</a>
</g>
</g>
<!-- Node1&#45;&gt;Node2 -->
<g id="edge1" class="edge"><title>Node1&#45;&gt;Node2</title>
<path fill="none" stroke="midnightblue" d="M98.3232,-35.7543C114.643,-37.8215 132.462,-40.0785 148.305,-42.0853"/>
<polygon fill="midnightblue" stroke="midnightblue" points="98.7468,-32.28 88.3862,-34.4956 97.8671,-39.2246 98.7468,-32.28"/>
</g>
<!-- Node3 -->
<g id="node3" class="node"><title>Node3</title>
<g id="a_node3"><a xlink:href="../../de/df3/packet_8c_ab03d85c6bb5ab5cb2612f096e5b768c1.html#ab03d85c6bb5ab5cb2612f096e5b768c1" target="_top" xlink:title="Changer la sequence d&#39;un paquet IPv4+ICMP ECHO_REQUEST.">
<polygon fill="none" stroke="black" points="124.5,-0.5 124.5,-19.5 267.5,-19.5 267.5,-0.5 124.5,-0.5"/>
<text text-anchor="middle" x="196" y="-7.5" font-family="Helvetica,sans-Serif" font-size="10.00">icmp6_packet_set_echo_seq</text>
</a>
</g>
</g>
<!-- Node1&#45;&gt;Node3 -->
<g id="edge2" class="edge"><title>Node1&#45;&gt;Node3</title>
<path fill="none" stroke="midnightblue" d="M98.3999,-22.236C106.796,-21.1725 115.587,-20.059 124.3,-18.9554"/>
<polygon fill="midnightblue" stroke="midnightblue" points="97.8671,-18.7754 88.3862,-23.5044 98.7468,-25.72 97.8671,-18.7754"/>
</g>
</g>
</svg>
