<?xml version="1.0" encoding="UTF-8" standalone="no"?>
<!DOCTYPE svg PUBLIC "-//W3C//DTD SVG 1.1//EN"
 "http://www.w3.org/Graphics/SVG/1.1/DTD/svg11.dtd">
<!-- Generated by graphviz version 2.30.1 (20130712.1527)
 -->
<!-- Title: extract_time Pages: 1 -->
<svg width="410pt" height="142pt"
 viewBox="0.00 0.00 410.00 142.00" xmlns="http://www.w3.org/2000/svg" xmlns:xlink="http://www.w3.org/1999/xlink">
<g id="graph0" class="graph" transform="scale(1 1) rotate(0) translate(4 138)">
<title>extract_time</title>
<!-- Node1 -->
<g id="node1" class="node"><title>Node1</title>
<polygon fill="#bfbfbf" stroke="black" points="0.5,-57.5 0.5,-76.5 71.5,-76.5 71.5,-57.5 0.5,-57.5"/>
<text text-anchor="middle" x="36" y="-64.5" font-family="Helvetica,sans-Serif" font-size="10.00">extract_time</text>
</g>
<!-- Node2 -->
<g id="node2" class="node"><title>Node2</title>
<g id="a_node2"><a xlink:href="../../d5/d74/ping__icmp_8c_a6a3154a1a62bd6a94210cd147bfaee80.html#a6a3154a1a62bd6a94210cd147bfaee80" target="_top" xlink:title="Affichage des statistiques de la commande Ping traditionelle.">
<polygon fill="none" stroke="black" points="108,-114.5 108,-133.5 180,-133.5 180,-114.5 108,-114.5"/>
<text text-anchor="middle" x="144" y="-121.5" font-family="Helvetica,sans-Serif" font-size="10.00">affichage_fin</text>
</a>
</g>
</g>
<!-- Node1&#45;&gt;Node2 -->
<g id="edge1" class="edge"><title>Node1&#45;&gt;Node2</title>
<path fill="none" stroke="midnightblue" d="M63.8767,-81.4525C83.1321,-91.8069 108.522,-105.46 125.284,-114.474"/>
<polygon fill="midnightblue" stroke="midnightblue" points="65.4465,-78.3228 54.9815,-76.6693 62.1312,-84.488 65.4465,-78.3228"/>
</g>
<!-- Node3 -->
<g id="node3" class="node"><title>Node3</title>
<g id="a_node3"><a xlink:href="../../d5/d74/ping__icmp_8c_a291ab2abf1ed6e77d7a8f41281d88a17.html#a291ab2abf1ed6e77d7a8f41281d88a17" target="_top" xlink:title="Fonction réalisant l&#39;affichage et l&#39;application de Ping.">
<polygon fill="none" stroke="black" points="216,-38.5 216,-57.5 256,-57.5 256,-38.5 216,-38.5"/>
<text text-anchor="middle" x="236" y="-45.5" font-family="Helvetica,sans-Serif" font-size="10.00">pi_ng</text>
</a>
</g>
</g>
<!-- Node1&#45;&gt;Node3 -->
<g id="edge2" class="edge"><title>Node1&#45;&gt;Node3</title>
<path fill="none" stroke="midnightblue" d="M81.6659,-70.7806C110.028,-72.2521 147.4,-72.4722 180,-67 192.254,-64.943 205.43,-60.4765 215.812,-56.3907"/>
<polygon fill="midnightblue" stroke="midnightblue" points="81.8387,-67.2849 71.6501,-70.1901 81.4267,-74.2727 81.8387,-67.2849"/>
</g>
<!-- Node5 -->
<g id="node5" class="node"><title>Node5</title>
<g id="a_node5"><a xlink:href="../../d0/ddf/time__util_8c_a624184776617f30aeee74cbe3c9a3667.html#a624184776617f30aeee74cbe3c9a3667" target="_top" xlink:title="Afficher une struct timeval.">
<polygon fill="none" stroke="black" points="108,-38.5 108,-57.5 180,-57.5 180,-38.5 108,-38.5"/>
<text text-anchor="middle" x="144" y="-45.5" font-family="Helvetica,sans-Serif" font-size="10.00">print_timeval</text>
</a>
</g>
</g>
<!-- Node1&#45;&gt;Node5 -->
<g id="edge4" class="edge"><title>Node1&#45;&gt;Node5</title>
<path fill="none" stroke="midnightblue" d="M81.7471,-58.9793C90.468,-57.4161 99.4945,-55.7981 107.851,-54.3003"/>
<polygon fill="midnightblue" stroke="midnightblue" points="80.9339,-55.5692 71.7084,-60.7787 82.169,-62.4594 80.9339,-55.5692"/>
</g>
<!-- Node6 -->
<g id="node6" class="node"><title>Node6</title>
<g id="a_node6"><a xlink:href="../../d5/d74/ping__icmp_8c_a89e67a82ab92067d3bf8d721b6a03a81.html#a89e67a82ab92067d3bf8d721b6a03a81" target="_top" xlink:title="Mise à jour des RTT de la structure compteur.">
<polygon fill="none" stroke="black" points="129.5,-0.5 129.5,-19.5 158.5,-19.5 158.5,-0.5 129.5,-0.5"/>
<text text-anchor="middle" x="144" y="-7.5" font-family="Helvetica,sans-Serif" font-size="10.00">rtt</text>
</a>
</g>
</g>
<!-- Node1&#45;&gt;Node6 -->
<g id="edge5" class="edge"><title>Node1&#45;&gt;Node6</title>
<path fill="none" stroke="midnightblue" d="M63.997,-52.4828C84.8596,-41.2642 112.869,-26.2027 129.322,-17.3551"/>
<polygon fill="midnightblue" stroke="midnightblue" points="62.1312,-49.512 54.9815,-57.3307 65.4465,-55.6772 62.1312,-49.512"/>
</g>
<!-- Node4 -->
<g id="node4" class="node"><title>Node4</title>
<g id="a_node4"><a xlink:href="../../d5/d74/ping__icmp_8c_a21469bf5e3430dbf282e52280882d1af.html#a21469bf5e3430dbf282e52280882d1af" target="_top" xlink:title="Fonction réalisant l&#39;affichage et l&#39;application de Ping avec le choix précis des attentes.">
<polygon fill="none" stroke="black" points="292,-33 292,-63 402,-63 402,-33 292,-33"/>
<text text-anchor="start" x="300" y="-51" font-family="Helvetica,sans-Serif" font-size="10.00">pi_ng_choix_sleep_et</text>
<text text-anchor="middle" x="347" y="-40" font-family="Helvetica,sans-Serif" font-size="10.00">_attente_reception</text>
</a>
</g>
</g>
<!-- Node3&#45;&gt;Node4 -->
<g id="edge3" class="edge"><title>Node3&#45;&gt;Node4</title>
<path fill="none" stroke="midnightblue" d="M266.364,-48C274.264,-48 283.067,-48 291.857,-48"/>
<polygon fill="midnightblue" stroke="midnightblue" points="266.236,-44.5001 256.236,-48 266.236,-51.5001 266.236,-44.5001"/>
</g>
<!-- Node6&#45;&gt;Node3 -->
<g id="edge6" class="edge"><title>Node6&#45;&gt;Node3</title>
<path fill="none" stroke="midnightblue" d="M168.135,-19.7683C182.934,-26.0164 201.899,-34.0241 215.85,-39.9143"/>
<polygon fill="midnightblue" stroke="midnightblue" points="169.243,-16.4368 158.669,-15.7714 166.52,-22.8855 169.243,-16.4368"/>
</g>
</g>
</svg>
