<?xml version="1.0" encoding="UTF-8" standalone="no"?>
<!DOCTYPE svg PUBLIC "-//W3C//DTD SVG 1.1//EN"
 "http://www.w3.org/Graphics/SVG/1.1/DTD/svg11.dtd">
<!-- Generated by graphviz version 2.30.1 (20130712.1527)
 -->
<!-- Title: icmp6_packet_checksum Pages: 1 -->
<svg width="430pt" height="273pt"
 viewBox="0.00 0.00 430.00 273.00" xmlns="http://www.w3.org/2000/svg" xmlns:xlink="http://www.w3.org/1999/xlink">
<g id="graph0" class="graph" transform="scale(1 1) rotate(0) translate(4 269)">
<title>icmp6_packet_checksum</title>
<!-- Node1 -->
<g id="node1" class="node"><title>Node1</title>
<polygon fill="#bfbfbf" stroke="black" points="0,-198.5 0,-217.5 128,-217.5 128,-198.5 0,-198.5"/>
<text text-anchor="middle" x="64" y="-205.5" font-family="Helvetica,sans-Serif" font-size="10.00">icmp6_packet_checksum</text>
</g>
<!-- Node2 -->
<g id="node2" class="node"><title>Node2</title>
<g id="a_node2"><a xlink:href="../../d3/d5a/base_8h_a58ba35289e8c456e6beb956ae2057469.html#a58ba35289e8c456e6beb956ae2057469" target="_top" xlink:title="Vérifier qu&#39;un pointeur ne pointe pas vers NULL.">
<polygon fill="none" stroke="black" points="317.5,-245.5 317.5,-264.5 394.5,-264.5 394.5,-245.5 317.5,-245.5"/>
<text text-anchor="middle" x="356" y="-252.5" font-family="Helvetica,sans-Serif" font-size="10.00">check_pointer</text>
</a>
</g>
</g>
<!-- Node1&#45;&gt;Node2 -->
<g id="edge1" class="edge"><title>Node1&#45;&gt;Node2</title>
<path fill="none" stroke="midnightblue" d="M112.259,-217.509C128.618,-220.684 147.089,-224.139 164,-227 212.686,-235.236 268.596,-243.267 307.29,-248.6"/>
<polygon fill="midnightblue" stroke="midnightblue" points="306.85,-252.072 317.233,-249.963 307.801,-245.137 306.85,-252.072"/>
</g>
<!-- Node3 -->
<g id="node3" class="node"><title>Node3</title>
<g id="a_node3"><a xlink:href="../../dc/d31/checksum_8h_a7828c8e3be5232a22a919d3686d98b80.html#a7828c8e3be5232a22a919d3686d98b80" target="_top" xlink:title="Calculer l&#39;Internet Checksum (RFC 1071).">
<polygon fill="none" stroke="black" points="178,-198.5 178,-217.5 240,-217.5 240,-198.5 178,-198.5"/>
<text text-anchor="middle" x="209" y="-205.5" font-family="Helvetica,sans-Serif" font-size="10.00">checksum</text>
</a>
</g>
</g>
<!-- Node1&#45;&gt;Node3 -->
<g id="edge2" class="edge"><title>Node1&#45;&gt;Node3</title>
<path fill="none" stroke="midnightblue" d="M128.138,-208C141.448,-208 155.15,-208 167.364,-208"/>
<polygon fill="midnightblue" stroke="midnightblue" points="167.668,-211.5 177.668,-208 167.668,-204.5 167.668,-211.5"/>
</g>
<!-- Node4 -->
<g id="node4" class="node"><title>Node4</title>
<g id="a_node4"><a xlink:href="../../d4/dbd/ip__util_8h_a4ba1e2ac83002b70221c514724ec901f.html#a4ba1e2ac83002b70221c514724ec901f" target="_top" xlink:title="Initialiser un pseudo header IPv6.">
<polygon fill="none" stroke="black" points="164,-152.5 164,-171.5 254,-171.5 254,-152.5 164,-152.5"/>
<text text-anchor="middle" x="209" y="-159.5" font-family="Helvetica,sans-Serif" font-size="10.00">fake_ip6_hdr_init</text>
</a>
</g>
</g>
<!-- Node1&#45;&gt;Node4 -->
<g id="edge3" class="edge"><title>Node1&#45;&gt;Node4</title>
<path fill="none" stroke="midnightblue" d="M94.6297,-198.469C116.104,-191.561 145.359,-182.15 168.772,-174.619"/>
<polygon fill="midnightblue" stroke="midnightblue" points="169.96,-177.913 178.408,-171.519 167.817,-171.249 169.96,-177.913"/>
</g>
<!-- Node4&#45;&gt;Node2 -->
<g id="edge4" class="edge"><title>Node4&#45;&gt;Node2</title>
<path fill="none" stroke="midnightblue" d="M228.994,-171.674C237.152,-176.313 246.51,-182.317 254,-189 273.37,-206.285 268.612,-220.285 290,-235 295.362,-238.689 301.429,-241.717 307.648,-244.197"/>
<polygon fill="midnightblue" stroke="midnightblue" points="306.873,-247.635 317.467,-247.66 309.201,-241.033 306.873,-247.635"/>
</g>
<!-- Node5 -->
<g id="node5" class="node"><title>Node5</title>
<g id="a_node5"><a xlink:href="../../d0/d95/structfake__ip6__hdr_ac89b144477feb841b07b2b2d7fb575a5.html#ac89b144477feb841b07b2b2d7fb575a5" target="_top" xlink:title="Changer l&#39;adresse de destination.">
<polygon fill="none" stroke="black" points="293.5,-196 293.5,-226 418.5,-226 418.5,-196 293.5,-196"/>
<text text-anchor="start" x="301.5" y="-214" font-family="Helvetica,sans-Serif" font-size="10.00">fake_ip6_hdr::fake</text>
<text text-anchor="middle" x="356" y="-203" font-family="Helvetica,sans-Serif" font-size="10.00">_ip6_hdr_set_destination</text>
</a>
</g>
</g>
<!-- Node4&#45;&gt;Node5 -->
<g id="edge5" class="edge"><title>Node4&#45;&gt;Node5</title>
<path fill="none" stroke="midnightblue" d="M238.302,-171.564C256.098,-177.578 279.64,-185.533 300.916,-192.723"/>
<polygon fill="midnightblue" stroke="midnightblue" points="299.909,-196.077 310.503,-195.963 302.15,-189.446 299.909,-196.077"/>
</g>
<!-- Node6 -->
<g id="node6" class="node"><title>Node6</title>
<g id="a_node6"><a xlink:href="../../d0/d95/structfake__ip6__hdr_a9848c4a68a26feeee107c859d2f37002.html#a9848c4a68a26feeee107c859d2f37002" target="_top" xlink:title="Changer la taille.">
<polygon fill="none" stroke="black" points="304,-147 304,-177 408,-177 408,-147 304,-147"/>
<text text-anchor="start" x="312" y="-165" font-family="Helvetica,sans-Serif" font-size="10.00">fake_ip6_hdr::fake</text>
<text text-anchor="middle" x="356" y="-154" font-family="Helvetica,sans-Serif" font-size="10.00">_ip6_hdr_set_length</text>
</a>
</g>
</g>
<!-- Node4&#45;&gt;Node6 -->
<g id="edge6" class="edge"><title>Node4&#45;&gt;Node6</title>
<path fill="none" stroke="midnightblue" d="M254.293,-162C266.77,-162 280.567,-162 293.845,-162"/>
<polygon fill="midnightblue" stroke="midnightblue" points="293.866,-165.5 303.866,-162 293.866,-158.5 293.866,-165.5"/>
</g>
<!-- Node7 -->
<g id="node7" class="node"><title>Node7</title>
<g id="a_node7"><a xlink:href="../../d0/d95/structfake__ip6__hdr_a68982beab82ab80e5a561e9b2b621868.html#a68982beab82ab80e5a561e9b2b621868" target="_top" xlink:title="Changer le header suivant.">
<polygon fill="none" stroke="black" points="290.5,-98 290.5,-128 421.5,-128 421.5,-98 290.5,-98"/>
<text text-anchor="start" x="298.5" y="-116" font-family="Helvetica,sans-Serif" font-size="10.00">fake_ip6_hdr::fake</text>
<text text-anchor="middle" x="356" y="-105" font-family="Helvetica,sans-Serif" font-size="10.00">_ip6_hdr_set_next_header</text>
</a>
</g>
</g>
<!-- Node4&#45;&gt;Node7 -->
<g id="edge7" class="edge"><title>Node4&#45;&gt;Node7</title>
<path fill="none" stroke="midnightblue" d="M238.302,-152.436C256.098,-146.422 279.64,-138.467 300.916,-131.277"/>
<polygon fill="midnightblue" stroke="midnightblue" points="302.15,-134.554 310.503,-128.037 299.909,-127.923 302.15,-134.554"/>
</g>
<!-- Node8 -->
<g id="node8" class="node"><title>Node8</title>
<g id="a_node8"><a xlink:href="../../d0/d95/structfake__ip6__hdr_a7d99013b213a4295cd4c9ba26942eab8.html#a7d99013b213a4295cd4c9ba26942eab8" target="_top" xlink:title="Changer l&#39;adresse source.">
<polygon fill="none" stroke="black" points="302.5,-49 302.5,-79 409.5,-79 409.5,-49 302.5,-49"/>
<text text-anchor="start" x="310.5" y="-67" font-family="Helvetica,sans-Serif" font-size="10.00">fake_ip6_hdr::fake</text>
<text text-anchor="middle" x="356" y="-56" font-family="Helvetica,sans-Serif" font-size="10.00">_ip6_hdr_set_source</text>
</a>
</g>
</g>
<!-- Node4&#45;&gt;Node8 -->
<g id="edge8" class="edge"><title>Node4&#45;&gt;Node8</title>
<path fill="none" stroke="midnightblue" d="M218.382,-152.051C231.979,-136.465 260.323,-106.198 290,-88 292.633,-86.3856 295.391,-84.8537 298.223,-83.4039"/>
<polygon fill="midnightblue" stroke="midnightblue" points="299.903,-86.4815 307.457,-79.0528 296.919,-80.1493 299.903,-86.4815"/>
</g>
<!-- Node9 -->
<g id="node9" class="node"><title>Node9</title>
<g id="a_node9"><a xlink:href="../../d0/d95/structfake__ip6__hdr_a0fbcd3f250cc290d3090fdbf323b1080.html#a0fbcd3f250cc290d3090fdbf323b1080" target="_top" xlink:title="Zeros.">
<polygon fill="none" stroke="black" points="305.5,-0 305.5,-30 406.5,-30 406.5,-0 305.5,-0"/>
<text text-anchor="start" x="313.5" y="-18" font-family="Helvetica,sans-Serif" font-size="10.00">fake_ip6_hdr::fake</text>
<text text-anchor="middle" x="356" y="-7" font-family="Helvetica,sans-Serif" font-size="10.00">_ip6_hdr_set_zeros</text>
</a>
</g>
</g>
<!-- Node4&#45;&gt;Node9 -->
<g id="edge9" class="edge"><title>Node4&#45;&gt;Node9</title>
<path fill="none" stroke="midnightblue" d="M213.81,-152.177C223.228,-129.129 249.793,-71.1116 290,-39 292.015,-37.3907 294.148,-35.8826 296.366,-34.4701"/>
<polygon fill="midnightblue" stroke="midnightblue" points="298.253,-37.4248 305.267,-29.4837 294.832,-31.3179 298.253,-37.4248"/>
</g>
</g>
</svg>
