<?xml version="1.0" encoding="UTF-8" standalone="no"?>
<!DOCTYPE svg PUBLIC "-//W3C//DTD SVG 1.1//EN"
 "http://www.w3.org/Graphics/SVG/1.1/DTD/svg11.dtd">
<!-- Generated by graphviz version 2.30.1 (20130712.1527)
 -->
<!-- Title: udp4_packet_init Pages: 1 -->
<!--zoomable 534 -->
<svg id="main" version="1.1" xmlns="http://www.w3.org/2000/svg" xmlns:xlink="http://www.w3.org/1999/xlink" xml:space="preserve" onload="init(evt)">
        <defs>
                <circle id="rim" cx="0" cy="0" r="7"/>
                <circle id="rim2" cx="0" cy="0" r="3.5"/>
                <g id="zoomPlus">
                        <use xlink:href="#rim" fill="#404040">
                                <set attributeName="fill" to="#808080" begin="zoomplus.mouseover" end="zoomplus.mouseout"/>
                        </use>
                        <path d="M-4,0h8M0,-4v8" fill="none" stroke="white" stroke-width="1.5" pointer-events="none"/>
                </g>
                <g id="zoomMin">
                        <use xlink:href="#rim" fill="#404040">
                                <set attributeName="fill" to="#808080" begin="zoomminus.mouseover" end="zoomminus.mouseout"/>
                        </use>
                        <path d="M-4,0h8" fill="none" stroke="white" stroke-width="1.5" pointer-events="none"/>
                </g>
                <g id="dirArrow">
                        <path fill="none" stroke="white" stroke-width="1.5" d="M0,-3.0v7 M-2.5,-0.5L0,-3.0L2.5,-0.5"/>
                </g>
               <g id="resetDef">
                       <use xlink:href="#rim2" fill="#404040">
                               <set attributeName="fill" to="#808080" begin="reset.mouseover" end="reset.mouseout"/>
                       </use>
               </g>
        </defs>

<script type="text/javascript">
var viewWidth = 478;
var viewHeight = 534;
var sectionId = 'dynsection-0';
</script>
<script xlink:href="../../svgpan.js"/>
<svg id="graph" class="graph">
<g id="viewport">
<title>udp4_packet_init</title>
<!-- Node1 -->
<g id="node1" class="node"><title>Node1</title>
<polygon fill="#bfbfbf" stroke="black" points="0,-247.5 0,-266.5 90,-266.5 90,-247.5 0,-247.5"/>
<text text-anchor="middle" x="45" y="-254.5" font-family="Helvetica,sans-Serif" font-size="10.00">udp4_packet_init</text>
</g>
<!-- Node2 -->
<g id="node2" class="node"><title>Node2</title>
<g id="a_node2"><a xlink:href="../../d3/d5a/base_8h_a58ba35289e8c456e6beb956ae2057469.html#a58ba35289e8c456e6beb956ae2057469" target="_top" xlink:title="Vérifier qu&#39;un pointeur ne pointe pas vers NULL.">
<polygon fill="none" stroke="black" points="303.5,-468.5 303.5,-487.5 380.5,-487.5 380.5,-468.5 303.5,-468.5"/>
<text text-anchor="middle" x="342" y="-475.5" font-family="Helvetica,sans-Serif" font-size="10.00">check_pointer</text>
</a>
</g>
</g>
<!-- Node1&#45;&gt;Node2 -->
<g id="edge1" class="edge"><title>Node1&#45;&gt;Node2</title>
<path fill="none" stroke="midnightblue" d="M47.8429,-266.89C53.6986,-295.46 74.6096,-378.754 126,-421 132.57,-426.401 231.939,-451.367 293.257,-466.409"/>
<polygon fill="midnightblue" stroke="midnightblue" points="292.576,-469.846 303.121,-468.824 294.24,-463.047 292.576,-469.846"/>
</g>
<!-- Node3 -->
<g id="node3" class="node"><title>Node3</title>
<g id="a_node3"><a xlink:href="../../d9/d9b/address_8h_a049129a0c931708a99bfbc0856b7a12f.html#a049129a0c931708a99bfbc0856b7a12f" target="_top" xlink:title="Extraire une IPv4.">
<polygon fill="none" stroke="black" points="157,-506.5 157,-525.5 227,-525.5 227,-506.5 157,-506.5"/>
<text text-anchor="middle" x="192" y="-513.5" font-family="Helvetica,sans-Serif" font-size="10.00">extract_ipv4</text>
</a>
</g>
</g>
<!-- Node1&#45;&gt;Node3 -->
<g id="edge2" class="edge"><title>Node1&#45;&gt;Node3</title>
<path fill="none" stroke="midnightblue" d="M46.2067,-266.903C47.5159,-303.242 57.0438,-430.573 126,-497 131.834,-502.62 139.237,-506.592 146.942,-509.395"/>
<polygon fill="midnightblue" stroke="midnightblue" points="146.181,-512.821 156.766,-512.356 148.202,-506.119 146.181,-512.821"/>
</g>
<!-- Node4 -->
<g id="node4" class="node"><title>Node4</title>
<g id="a_node4"><a xlink:href="../../d9/d9b/address_8h_a79cf7a5008448aa62a64f8f1fe64fb4a.html#a79cf7a5008448aa62a64f8f1fe64fb4a" target="_top" xlink:title="Obtenir l&#39;adresse IPv4 de la machine.">
<polygon fill="none" stroke="black" points="148,-392.5 148,-411.5 236,-411.5 236,-392.5 148,-392.5"/>
<text text-anchor="middle" x="192" y="-399.5" font-family="Helvetica,sans-Serif" font-size="10.00">get_source_ipv4</text>
</a>
</g>
</g>
<!-- Node1&#45;&gt;Node4 -->
<g id="edge4" class="edge"><title>Node1&#45;&gt;Node4</title>
<path fill="none" stroke="midnightblue" d="M49.3319,-266.552C58.0357,-290.083 83.7514,-351.232 126,-383 129.85,-385.895 134.132,-388.35 138.61,-390.431"/>
<polygon fill="midnightblue" stroke="midnightblue" points="137.416,-393.723 148,-394.201 140.024,-387.227 137.416,-393.723"/>
</g>
<!-- Node8 -->
<g id="node8" class="node"><title>Node8</title>
<g id="a_node8"><a xlink:href="../../d4/dbd/ip__util_8h_a72e243e899f4cc01d7316c041fc00c56.html#a72e243e899f4cc01d7316c041fc00c56" target="_top" xlink:title="Checksum.">
<polygon fill="none" stroke="black" points="148,-0.5 148,-19.5 236,-19.5 236,-0.5 148,-0.5"/>
<text text-anchor="middle" x="192" y="-7.5" font-family="Helvetica,sans-Serif" font-size="10.00">iphdr_checksum</text>
</a>
</g>
</g>
<!-- Node1&#45;&gt;Node8 -->
<g id="edge8" class="edge"><title>Node1&#45;&gt;Node8</title>
<path fill="none" stroke="midnightblue" d="M46.4054,-247.099C48.3928,-211.908 59.9469,-91.6374 126,-29 129.596,-25.5896 133.771,-22.7872 138.236,-20.485"/>
<polygon fill="midnightblue" stroke="midnightblue" points="139.9,-23.58 147.716,-16.4274 137.145,-17.1447 139.9,-23.58"/>
</g>
<!-- Node10 -->
<g id="node10" class="node"><title>Node10</title>
<g id="a_node10"><a xlink:href="../../d4/dbd/ip__util_8h_a60160003f8340f58c821590762148eb6.html#a60160003f8340f58c821590762148eb6" target="_top" xlink:title="Modifier l&#39;addresse de destination.">
<polygon fill="none" stroke="black" points="132,-354.5 132,-373.5 252,-373.5 252,-354.5 132,-354.5"/>
<text text-anchor="middle" x="192" y="-361.5" font-family="Helvetica,sans-Serif" font-size="10.00">iphdr_set_dest_address</text>
</a>
</g>
</g>
<!-- Node1&#45;&gt;Node10 -->
<g id="edge10" class="edge"><title>Node1&#45;&gt;Node10</title>
<path fill="none" stroke="midnightblue" d="M52.2528,-266.652C64.3408,-284.551 92.6815,-322.976 126,-344 130.032,-346.544 134.408,-348.783 138.921,-350.75"/>
<polygon fill="midnightblue" stroke="midnightblue" points="137.72,-354.038 148.308,-354.416 140.266,-347.518 137.72,-354.038"/>
</g>
<!-- Node11 -->
<g id="node11" class="node"><title>Node11</title>
<g id="a_node11"><a xlink:href="../../d4/dbd/ip__util_8h_a392f3326ffc0fc540dfee514dbe7403f.html#a392f3326ffc0fc540dfee514dbe7403f" target="_top" xlink:title="Modifier le fragment offset.">
<polygon fill="none" stroke="black" points="142,-305 142,-335 242,-335 242,-305 142,-305"/>
<text text-anchor="start" x="150" y="-323" font-family="Helvetica,sans-Serif" font-size="10.00">iphdr_set_fragment</text>
<text text-anchor="middle" x="192" y="-312" font-family="Helvetica,sans-Serif" font-size="10.00">_offset</text>
</a>
</g>
</g>
<!-- Node1&#45;&gt;Node11 -->
<g id="edge11" class="edge"><title>Node1&#45;&gt;Node11</title>
<path fill="none" stroke="midnightblue" d="M65.2102,-266.632C81.2992,-274.576 104.946,-285.966 126,-295 130.74,-297.034 135.704,-299.084 140.688,-301.088"/>
<polygon fill="midnightblue" stroke="midnightblue" points="139.653,-304.443 150.239,-304.87 142.23,-297.934 139.653,-304.443"/>
</g>
<!-- Node12 -->
<g id="node12" class="node"><title>Node12</title>
<g id="a_node12"><a xlink:href="../../d4/dbd/ip__util_8h_a788c655e86ff6747198ca3b0064ceea3.html#a788c655e86ff6747198ca3b0064ceea3" target="_top" xlink:title="Modifier la longueur du header.">
<polygon fill="none" stroke="black" points="131,-266.5 131,-285.5 253,-285.5 253,-266.5 131,-266.5"/>
<text text-anchor="middle" x="192" y="-273.5" font-family="Helvetica,sans-Serif" font-size="10.00">iphdr_set_header_length</text>
</a>
</g>
</g>
<!-- Node1&#45;&gt;Node12 -->
<g id="edge12" class="edge"><title>Node1&#45;&gt;Node12</title>
<path fill="none" stroke="midnightblue" d="M90.2927,-262.804C100.012,-264.077 110.533,-265.456 120.985,-266.826"/>
<polygon fill="midnightblue" stroke="midnightblue" points="120.587,-270.303 130.957,-268.132 121.496,-263.363 120.587,-270.303"/>
</g>
<!-- Node13 -->
<g id="node13" class="node"><title>Node13</title>
<g id="a_node13"><a xlink:href="../../d4/dbd/ip__util_8h_abf62e1b5dd4dde6340ef82902945fcdf.html#abf62e1b5dd4dde6340ef82902945fcdf" target="_top" xlink:title="Modifier l&#39;ID.">
<polygon fill="none" stroke="black" points="157.5,-228.5 157.5,-247.5 226.5,-247.5 226.5,-228.5 157.5,-228.5"/>
<text text-anchor="middle" x="192" y="-235.5" font-family="Helvetica,sans-Serif" font-size="10.00">iphdr_set_id</text>
</a>
</g>
</g>
<!-- Node1&#45;&gt;Node13 -->
<g id="edge13" class="edge"><title>Node1&#45;&gt;Node13</title>
<path fill="none" stroke="midnightblue" d="M90.2927,-251.196C108.339,-248.831 129.147,-246.105 147.148,-243.746"/>
<polygon fill="midnightblue" stroke="midnightblue" points="147.641,-247.212 157.101,-242.442 146.731,-240.271 147.641,-247.212"/>
</g>
<!-- Node14 -->
<g id="node14" class="node"><title>Node14</title>
<g id="a_node14"><a xlink:href="../../d4/dbd/ip__util_8h_ab1cd53e095e2fc2166cfcfecc893d096.html#ab1cd53e095e2fc2166cfcfecc893d096" target="_top" xlink:title="Modifier le protocole.">
<polygon fill="none" stroke="black" points="144,-190.5 144,-209.5 240,-209.5 240,-190.5 144,-190.5"/>
<text text-anchor="middle" x="192" y="-197.5" font-family="Helvetica,sans-Serif" font-size="10.00">iphdr_set_protocol</text>
</a>
</g>
</g>
<!-- Node1&#45;&gt;Node14 -->
<g id="edge14" class="edge"><title>Node1&#45;&gt;Node14</title>
<path fill="none" stroke="midnightblue" d="M64.0679,-247.4C80.051,-239.156 104.159,-227.319 126,-219 131.984,-216.721 138.365,-214.551 144.702,-212.548"/>
<polygon fill="midnightblue" stroke="midnightblue" points="146.015,-215.807 154.561,-209.545 143.975,-209.11 146.015,-215.807"/>
</g>
<!-- Node15 -->
<g id="node15" class="node"><title>Node15</title>
<g id="a_node15"><a xlink:href="../../d4/dbd/ip__util_8h_a0ef833453c44003006f9449414ec5d6e.html#a0ef833453c44003006f9449414ec5d6e" target="_top" xlink:title="Modifier l&#39;addresse source.">
<polygon fill="none" stroke="black" points="126.5,-152.5 126.5,-171.5 257.5,-171.5 257.5,-152.5 126.5,-152.5"/>
<text text-anchor="middle" x="192" y="-159.5" font-family="Helvetica,sans-Serif" font-size="10.00">iphdr_set_source_address</text>
</a>
</g>
</g>
<!-- Node1&#45;&gt;Node15 -->
<g id="edge15" class="edge"><title>Node1&#45;&gt;Node15</title>
<path fill="none" stroke="midnightblue" d="M53.535,-247.306C66.5745,-231.183 94.9484,-198.865 126,-181 129.726,-178.856 133.714,-176.937 137.812,-175.223"/>
<polygon fill="midnightblue" stroke="midnightblue" points="139.374,-178.375 147.505,-171.583 136.913,-171.822 139.374,-178.375"/>
</g>
<!-- Node16 -->
<g id="node16" class="node"><title>Node16</title>
<g id="a_node16"><a xlink:href="../../d4/dbd/ip__util_8h_a9ee1bba27e0446b484c74ffeccc20e1d.html#a9ee1bba27e0446b484c74ffeccc20e1d" target="_top" xlink:title="Modifier la longueur totale.">
<polygon fill="none" stroke="black" points="136,-114.5 136,-133.5 248,-133.5 248,-114.5 136,-114.5"/>
<text text-anchor="middle" x="192" y="-121.5" font-family="Helvetica,sans-Serif" font-size="10.00">iphdr_set_total_length</text>
</a>
</g>
</g>
<!-- Node1&#45;&gt;Node16 -->
<g id="edge16" class="edge"><title>Node1&#45;&gt;Node16</title>
<path fill="none" stroke="midnightblue" d="M50.0205,-247.394C59.7065,-225.439 86.4925,-171.303 126,-143 128.724,-141.049 131.647,-139.296 134.691,-137.723"/>
<polygon fill="midnightblue" stroke="midnightblue" points="136.403,-140.791 144.108,-133.519 133.55,-134.399 136.403,-140.791"/>
</g>
<!-- Node17 -->
<g id="node17" class="node"><title>Node17</title>
<g id="a_node17"><a xlink:href="../../d4/dbd/ip__util_8h_adc54766945281f7d5a95a1b26f0da373.html#adc54766945281f7d5a95a1b26f0da373" target="_top" xlink:title="Modifier le TTL.">
<polygon fill="none" stroke="black" points="157,-76.5 157,-95.5 227,-95.5 227,-76.5 157,-76.5"/>
<text text-anchor="middle" x="192" y="-83.5" font-family="Helvetica,sans-Serif" font-size="10.00">iphdr_set_ttl</text>
</a>
</g>
</g>
<!-- Node1&#45;&gt;Node17 -->
<g id="edge17" class="edge"><title>Node1&#45;&gt;Node17</title>
<path fill="none" stroke="midnightblue" d="M48.3181,-247.113C55.1796,-220.066 77.9789,-144.26 126,-105 132.144,-99.977 139.567,-96.2819 147.167,-93.5637"/>
<polygon fill="midnightblue" stroke="midnightblue" points="148.267,-96.8875 156.806,-90.6166 146.22,-90.1934 148.267,-96.8875"/>
</g>
<!-- Node18 -->
<g id="node18" class="node"><title>Node18</title>
<g id="a_node18"><a xlink:href="../../d4/dbd/ip__util_8h_aa29972f8352daa4f412ba86bdba72a48.html#aa29972f8352daa4f412ba86bdba72a48" target="_top" xlink:title="Modifier le type de service.">
<polygon fill="none" stroke="black" points="126.5,-38.5 126.5,-57.5 257.5,-57.5 257.5,-38.5 126.5,-38.5"/>
<text text-anchor="middle" x="192" y="-45.5" font-family="Helvetica,sans-Serif" font-size="10.00">iphdr_set_type_of_service</text>
</a>
</g>
</g>
<!-- Node1&#45;&gt;Node18 -->
<g id="edge18" class="edge"><title>Node1&#45;&gt;Node18</title>
<path fill="none" stroke="midnightblue" d="M47.1378,-247.452C51.3411,-216.499 68.84,-117.982 126,-67 127.919,-65.2881 129.985,-63.7301 132.159,-62.3121"/>
<polygon fill="midnightblue" stroke="midnightblue" points="133.88,-65.3603 140.992,-57.5078 130.535,-59.211 133.88,-65.3603"/>
</g>
<!-- Node19 -->
<g id="node19" class="node"><title>Node19</title>
<g id="a_node19"><a xlink:href="../../d4/dbd/ip__util_8h_a2d6369cd5ac368993d95f6dca338c514.html#a2d6369cd5ac368993d95f6dca338c514" target="_top" xlink:title="Modifier la version du header.">
<polygon fill="none" stroke="black" points="145.5,-468.5 145.5,-487.5 238.5,-487.5 238.5,-468.5 145.5,-468.5"/>
<text text-anchor="middle" x="192" y="-475.5" font-family="Helvetica,sans-Serif" font-size="10.00">iphdr_set_version</text>
</a>
</g>
</g>
<!-- Node1&#45;&gt;Node19 -->
<g id="edge19" class="edge"><title>Node1&#45;&gt;Node19</title>
<path fill="none" stroke="midnightblue" d="M47.1712,-266.73C51.4768,-298.306 69.2538,-399.044 126,-454 130.051,-457.923 134.797,-461.214 139.849,-463.973"/>
<polygon fill="midnightblue" stroke="midnightblue" points="138.651,-467.277 149.187,-468.386 141.641,-460.949 138.651,-467.277"/>
</g>
<!-- Node3&#45;&gt;Node2 -->
<g id="edge3" class="edge"><title>Node3&#45;&gt;Node2</title>
<path fill="none" stroke="midnightblue" d="M227.326,-507.187C247.082,-502.114 272.195,-495.666 293.789,-490.122"/>
<polygon fill="midnightblue" stroke="midnightblue" points="294.934,-493.441 303.749,-487.564 293.193,-486.661 294.934,-493.441"/>
</g>
<!-- Node5 -->
<g id="node5" class="node"><title>Node5</title>
<g id="a_node5"><a xlink:href="../../d9/d9b/address_8h_a1f7b5c9308c7885935d49fd0816e1e2d.html#a1f7b5c9308c7885935d49fd0816e1e2d" target="_top" xlink:title="Rechercher une adresse IPv4 parmi celles des interfaces de la machine.">
<polygon fill="none" stroke="black" points="294,-411.5 294,-430.5 390,-430.5 390,-411.5 294,-411.5"/>
<text text-anchor="middle" x="342" y="-418.5" font-family="Helvetica,sans-Serif" font-size="10.00">get_interface_ipv4</text>
</a>
</g>
</g>
<!-- Node4&#45;&gt;Node5 -->
<g id="edge5" class="edge"><title>Node4&#45;&gt;Node5</title>
<path fill="none" stroke="midnightblue" d="M236.206,-407.547C251.043,-409.452 267.892,-411.614 283.673,-413.64"/>
<polygon fill="midnightblue" stroke="midnightblue" points="283.493,-417.146 293.857,-414.948 284.384,-410.203 283.493,-417.146"/>
</g>
<!-- Node6 -->
<g id="node6" class="node"><title>Node6</title>
<g id="a_node6"><a xlink:href="../../d9/d9b/address_8h_af637c541dd7ff290a03bef9fcc4d9a8f.html#af637c541dd7ff290a03bef9fcc4d9a8f" target="_top" xlink:title="Obtenir une adresse IPv4.">
<polygon fill="none" stroke="black" points="315.5,-373.5 315.5,-392.5 368.5,-392.5 368.5,-373.5 315.5,-373.5"/>
<text text-anchor="middle" x="342" y="-380.5" font-family="Helvetica,sans-Serif" font-size="10.00">get_ipv4</text>
</a>
</g>
</g>
<!-- Node4&#45;&gt;Node6 -->
<g id="edge6" class="edge"><title>Node4&#45;&gt;Node6</title>
<path fill="none" stroke="midnightblue" d="M236.206,-396.453C258.102,-393.642 284.377,-390.269 305.14,-387.604"/>
<polygon fill="midnightblue" stroke="midnightblue" points="305.671,-391.064 315.144,-386.319 304.779,-384.121 305.671,-391.064"/>
</g>
<!-- Node7 -->
<g id="node7" class="node"><title>Node7</title>
<g id="a_node7"><a xlink:href="../../d9/d9b/address_8h_ac2527f2c331db757a25840db6b1068b9.html#ac2527f2c331db757a25840db6b1068b9" target="_top" xlink:title="Obtenir une adresse IP.">
<polygon fill="none" stroke="black" points="426.5,-373.5 426.5,-392.5 469.5,-392.5 469.5,-373.5 426.5,-373.5"/>
<text text-anchor="middle" x="448" y="-380.5" font-family="Helvetica,sans-Serif" font-size="10.00">get_ip</text>
</a>
</g>
</g>
<!-- Node6&#45;&gt;Node7 -->
<g id="edge7" class="edge"><title>Node6&#45;&gt;Node7</title>
<path fill="none" stroke="midnightblue" d="M368.708,-383C383.035,-383 400.976,-383 416.068,-383"/>
<polygon fill="midnightblue" stroke="midnightblue" points="416.461,-386.5 426.461,-383 416.461,-379.5 416.461,-386.5"/>
</g>
<!-- Node9 -->
<g id="node9" class="node"><title>Node9</title>
<g id="a_node9"><a xlink:href="../../dc/d31/checksum_8h_a7828c8e3be5232a22a919d3686d98b80.html#a7828c8e3be5232a22a919d3686d98b80" target="_top" xlink:title="Calculer l&#39;Internet Checksum (RFC 1071).">
<polygon fill="none" stroke="black" points="311,-0.5 311,-19.5 373,-19.5 373,-0.5 311,-0.5"/>
<text text-anchor="middle" x="342" y="-7.5" font-family="Helvetica,sans-Serif" font-size="10.00">checksum</text>
</a>
</g>
</g>
<!-- Node8&#45;&gt;Node9 -->
<g id="edge9" class="edge"><title>Node8&#45;&gt;Node9</title>
<path fill="none" stroke="midnightblue" d="M236.206,-10C256.549,-10 280.672,-10 300.642,-10"/>
<polygon fill="midnightblue" stroke="midnightblue" points="300.665,-13.5001 310.665,-10 300.665,-6.5001 300.665,-13.5001"/>
</g>
<!-- Node19&#45;&gt;Node2 -->
<g id="edge20" class="edge"><title>Node19&#45;&gt;Node2</title>
<path fill="none" stroke="midnightblue" d="M238.613,-478C255.936,-478 275.707,-478 293.225,-478"/>
<polygon fill="midnightblue" stroke="midnightblue" points="293.243,-481.5 303.243,-478 293.243,-474.5 293.243,-481.5"/>
</g>
</g>
</svg>
        <g id="navigator" transform="translate(0 0)" fill="#404254">
                <rect fill="#f2f5e9" fill-opacity="0.5" stroke="#606060" stroke-width=".5" x="0" y="0" width="60" height="60"/>
                <use id="zoomplus" xlink:href="#zoomPlus" x="17" y="9" onmousedown="handleZoom(evt,'in')"/>
                <use id="zoomminus" xlink:href="#zoomMin" x="42" y="9" onmousedown="handleZoom(evt,'out')"/>
                <use id="reset" xlink:href="#resetDef" x="30" y="36" onmousedown="handleReset()"/>
                <g id="arrowUp" xlink:href="#dirArrow" transform="translate(30 24)" onmousedown="handlePan(0,-1)">
                  <use xlink:href="#rim" fill="#404040">
                        <set attributeName="fill" to="#808080" begin="arrowUp.mouseover" end="arrowUp.mouseout"/>
                  </use>
                  <path fill="none" stroke="white" stroke-width="1.5" d="M0,-3.0v7 M-2.5,-0.5L0,-3.0L2.5,-0.5"/>
                </g>
                <g id="arrowRight" xlink:href="#dirArrow" transform="rotate(90) translate(36 -43)" onmousedown="handlePan(1,0)">
                  <use xlink:href="#rim" fill="#404040">
                        <set attributeName="fill" to="#808080" begin="arrowRight.mouseover" end="arrowRight.mouseout"/>
                  </use>
                  <path fill="none" stroke="white" stroke-width="1.5" d="M0,-3.0v7 M-2.5,-0.5L0,-3.0L2.5,-0.5"/>
                </g>
                <g id="arrowDown" xlink:href="#dirArrow" transform="rotate(180) translate(-30 -48)" onmousedown="handlePan(0,1)">
                  <use xlink:href="#rim" fill="#404040">
                        <set attributeName="fill" to="#808080" begin="arrowDown.mouseover" end="arrowDown.mouseout"/>
                  </use>
                  <path fill="none" stroke="white" stroke-width="1.5" d="M0,-3.0v7 M-2.5,-0.5L0,-3.0L2.5,-0.5"/>
                </g>
                <g id="arrowLeft" xlink:href="#dirArrow" transform="rotate(270) translate(-36 17)" onmousedown="handlePan(-1,0)">
                  <use xlink:href="#rim" fill="#404040">
                        <set attributeName="fill" to="#808080" begin="arrowLeft.mouseover" end="arrowLeft.mouseout"/>
                  </use>
                  <path fill="none" stroke="white" stroke-width="1.5" d="M0,-3.0v7 M-2.5,-0.5L0,-3.0L2.5,-0.5"/>
                </g>
        </g>
        <svg viewBox="0 0 15 15" width="100%" height="30px" preserveAspectRatio="xMaxYMin meet">
         <g id="arrow_out" transform="scale(0.3 0.3)">
          <a xlink:href="packet_8h_a4b88c80657bb9a94505d743b92db9652_a4b88c80657bb9a94505d743b92db9652_cgraph_org.svg" target="_base">
           <rect id="button" ry="5" rx="5" y="6" x="6" height="38" width="38"
                fill="#f2f5e9" fill-opacity="0.5" stroke="#606060" stroke-width="1.0"/>
           <path id="arrow"
             d="M 11.500037,31.436501 C 11.940474,20.09759 22.043105,11.32322 32.158766,21.979434 L 37.068811,17.246167 C 37.068811,17.246167 37.088388,32 37.088388,32 L 22.160133,31.978069 C 22.160133,31.978069 26.997745,27.140456 26.997745,27.140456 C 18.528582,18.264221 13.291696,25.230495 11.500037,31.436501 z"
             style="fill:#404040;"/>
          </a>
         </g>
        </svg>
</svg>
