<?xml version="1.0" encoding="UTF-8" standalone="no"?>
<!DOCTYPE svg PUBLIC "-//W3C//DTD SVG 1.1//EN"
 "http://www.w3.org/Graphics/SVG/1.1/DTD/svg11.dtd">
<!-- Generated by graphviz version 2.30.1 (20130712.1527)
 -->
<!-- Title: icmp6_packet_set_echo_seq Pages: 1 -->
<svg width="412pt" height="91pt"
 viewBox="0.00 0.00 412.00 91.16" xmlns="http://www.w3.org/2000/svg" xmlns:xlink="http://www.w3.org/1999/xlink">
<g id="graph0" class="graph" transform="scale(1 1) rotate(0) translate(4 87.1631)">
<title>icmp6_packet_set_echo_seq</title>
<!-- Node1 -->
<g id="node1" class="node"><title>Node1</title>
<polygon fill="#bfbfbf" stroke="black" points="0.5,-44.5 0.5,-63.5 143.5,-63.5 143.5,-44.5 0.5,-44.5"/>
<text text-anchor="middle" x="72" y="-51.5" font-family="Helvetica,sans-Serif" font-size="10.00">icmp6_packet_set_echo_seq</text>
</g>
<!-- Node2 -->
<g id="node2" class="node"><title>Node2</title>
<g id="a_node2"><a xlink:href="../../d3/d5a/base_8h_a58ba35289e8c456e6beb956ae2057469.html#a58ba35289e8c456e6beb956ae2057469" target="_top" xlink:title="Vérifier qu&#39;un pointeur ne pointe pas vers NULL.">
<polygon fill="none" stroke="black" points="326.5,-44.5 326.5,-63.5 403.5,-63.5 403.5,-44.5 326.5,-44.5"/>
<text text-anchor="middle" x="365" y="-51.5" font-family="Helvetica,sans-Serif" font-size="10.00">check_pointer</text>
</a>
</g>
</g>
<!-- Node1&#45;&gt;Node2 -->
<g id="edge1" class="edge"><title>Node1&#45;&gt;Node2</title>
<path fill="none" stroke="midnightblue" d="M106.89,-63.6142C127.774,-69.034 155.212,-75.2541 180,-78 228.592,-83.3827 241.711,-85.6349 290,-78 303.789,-75.8198 318.508,-71.4873 331.157,-67.0961"/>
<polygon fill="midnightblue" stroke="midnightblue" points="332.591,-70.2993 340.8,-63.6019 330.206,-63.7181 332.591,-70.2993"/>
</g>
<!-- Node3 -->
<g id="node3" class="node"><title>Node3</title>
<g id="a_node3"><a xlink:href="../../df/d91/structicmp6__packet_a56693b0f5270e1406a1da4f5a9907e14.html#a56693b0f5270e1406a1da4f5a9907e14" target="_top" xlink:title="Checksum d&#39;un paquet IPv6+ICMP.">
<polygon fill="none" stroke="black" points="180,-39 180,-69 290,-69 290,-39 180,-39"/>
<text text-anchor="start" x="188" y="-57" font-family="Helvetica,sans-Serif" font-size="10.00">icmp6_packet::icmp6</text>
<text text-anchor="middle" x="235" y="-46" font-family="Helvetica,sans-Serif" font-size="10.00">_packet_checksum</text>
</a>
</g>
</g>
<!-- Node1&#45;&gt;Node3 -->
<g id="edge2" class="edge"><title>Node1&#45;&gt;Node3</title>
<path fill="none" stroke="midnightblue" d="M143.617,-54C152.267,-54 161.071,-54 169.622,-54"/>
<polygon fill="midnightblue" stroke="midnightblue" points="169.899,-57.5001 179.899,-54 169.899,-50.5001 169.899,-57.5001"/>
</g>
<!-- Node4 -->
<g id="node4" class="node"><title>Node4</title>
<g id="a_node4"><a xlink:href="../../d7/d13/icmp__util_8h_adf88119191ec068dc904d94c0c13c800.html#adf88119191ec068dc904d94c0c13c800" target="_top" xlink:title="Changer l&#39;identifiant et la séquence d&#39;un header ICMPv6.">
<polygon fill="none" stroke="black" points="191,-0.5 191,-19.5 279,-19.5 279,-0.5 191,-0.5"/>
<text text-anchor="middle" x="235" y="-7.5" font-family="Helvetica,sans-Serif" font-size="10.00">icmp6_set_echo</text>
</a>
</g>
</g>
<!-- Node1&#45;&gt;Node4 -->
<g id="edge3" class="edge"><title>Node1&#45;&gt;Node4</title>
<path fill="none" stroke="midnightblue" d="M107.935,-44.4527C131.775,-37.9373 163.566,-29.2492 189.258,-22.2278"/>
<polygon fill="midnightblue" stroke="midnightblue" points="190.41,-25.5412 199.134,-19.5287 188.565,-18.7888 190.41,-25.5412"/>
</g>
<!-- Node4&#45;&gt;Node2 -->
<g id="edge4" class="edge"><title>Node4&#45;&gt;Node2</title>
<path fill="none" stroke="midnightblue" d="M263.774,-19.5473C282.225,-25.8898 306.665,-34.2911 326.791,-41.2096"/>
<polygon fill="midnightblue" stroke="midnightblue" points="325.685,-44.5303 336.28,-44.4713 327.961,-37.9105 325.685,-44.5303"/>
</g>
</g>
</svg>
