<?xml version="1.0" encoding="UTF-8" standalone="no"?>
<!DOCTYPE svg PUBLIC "-//W3C//DTD SVG 1.1//EN"
 "http://www.w3.org/Graphics/SVG/1.1/DTD/svg11.dtd">
<!-- Generated by graphviz version 2.30.1 (20130712.1527)
 -->
<!-- Title: udp4_packet_set_ttl Pages: 1 -->
<svg width="334pt" height="104pt"
 viewBox="0.00 0.00 334.00 104.00" xmlns="http://www.w3.org/2000/svg" xmlns:xlink="http://www.w3.org/1999/xlink">
<g id="graph0" class="graph" transform="scale(1 1) rotate(0) translate(4 100)">
<title>udp4_packet_set_ttl</title>
<!-- Node1 -->
<g id="node1" class="node"><title>Node1</title>
<polygon fill="#bfbfbf" stroke="black" points="0,-38.5 0,-57.5 104,-57.5 104,-38.5 0,-38.5"/>
<text text-anchor="middle" x="52" y="-45.5" font-family="Helvetica,sans-Serif" font-size="10.00">udp4_packet_set_ttl</text>
</g>
<!-- Node2 -->
<g id="node2" class="node"><title>Node2</title>
<g id="a_node2"><a xlink:href="../../d3/d5a/base_8h_a58ba35289e8c456e6beb956ae2057469.html#a58ba35289e8c456e6beb956ae2057469" target="_top" xlink:title="Vérifier qu&#39;un pointeur ne pointe pas vers NULL.">
<polygon fill="none" stroke="black" points="145.5,-76.5 145.5,-95.5 222.5,-95.5 222.5,-76.5 145.5,-76.5"/>
<text text-anchor="middle" x="184" y="-83.5" font-family="Helvetica,sans-Serif" font-size="10.00">check_pointer</text>
</a>
</g>
</g>
<!-- Node1&#45;&gt;Node2 -->
<g id="edge1" class="edge"><title>Node1&#45;&gt;Node2</title>
<path fill="none" stroke="midnightblue" d="M85.8045,-57.589C102.278,-62.4044 122.443,-68.2988 140.127,-73.468"/>
<polygon fill="midnightblue" stroke="midnightblue" points="139.626,-76.9677 150.206,-76.4141 141.59,-70.2489 139.626,-76.9677"/>
</g>
<!-- Node3 -->
<g id="node3" class="node"><title>Node3</title>
<g id="a_node3"><a xlink:href="../../d4/dbd/ip__util_8h_a72e243e899f4cc01d7316c041fc00c56.html#a72e243e899f4cc01d7316c041fc00c56" target="_top" xlink:title="Checksum.">
<polygon fill="none" stroke="black" points="140,-38.5 140,-57.5 228,-57.5 228,-38.5 140,-38.5"/>
<text text-anchor="middle" x="184" y="-45.5" font-family="Helvetica,sans-Serif" font-size="10.00">iphdr_checksum</text>
</a>
</g>
</g>
<!-- Node1&#45;&gt;Node3 -->
<g id="edge2" class="edge"><title>Node1&#45;&gt;Node3</title>
<path fill="none" stroke="midnightblue" d="M104.006,-48C112.401,-48 121.123,-48 129.575,-48"/>
<polygon fill="midnightblue" stroke="midnightblue" points="129.711,-51.5001 139.71,-48 129.71,-44.5001 129.711,-51.5001"/>
</g>
<!-- Node5 -->
<g id="node5" class="node"><title>Node5</title>
<g id="a_node5"><a xlink:href="../../d4/dbd/ip__util_8h_adc54766945281f7d5a95a1b26f0da373.html#adc54766945281f7d5a95a1b26f0da373" target="_top" xlink:title="Modifier le TTL.">
<polygon fill="none" stroke="black" points="149,-0.5 149,-19.5 219,-19.5 219,-0.5 149,-0.5"/>
<text text-anchor="middle" x="184" y="-7.5" font-family="Helvetica,sans-Serif" font-size="10.00">iphdr_set_ttl</text>
</a>
</g>
</g>
<!-- Node1&#45;&gt;Node5 -->
<g id="edge4" class="edge"><title>Node1&#45;&gt;Node5</title>
<path fill="none" stroke="midnightblue" d="M85.8045,-38.411C102.278,-33.5956 122.443,-27.7012 140.127,-22.532"/>
<polygon fill="midnightblue" stroke="midnightblue" points="141.59,-25.7511 150.206,-19.5859 139.626,-19.0323 141.59,-25.7511"/>
</g>
<!-- Node4 -->
<g id="node4" class="node"><title>Node4</title>
<g id="a_node4"><a xlink:href="../../dc/d31/checksum_8h_a7828c8e3be5232a22a919d3686d98b80.html#a7828c8e3be5232a22a919d3686d98b80" target="_top" xlink:title="Calculer l&#39;Internet Checksum (RFC 1071).">
<polygon fill="none" stroke="black" points="264,-38.5 264,-57.5 326,-57.5 326,-38.5 264,-38.5"/>
<text text-anchor="middle" x="295" y="-45.5" font-family="Helvetica,sans-Serif" font-size="10.00">checksum</text>
</a>
</g>
</g>
<!-- Node3&#45;&gt;Node4 -->
<g id="edge3" class="edge"><title>Node3&#45;&gt;Node4</title>
<path fill="none" stroke="midnightblue" d="M228.08,-48C236.531,-48 245.367,-48 253.723,-48"/>
<polygon fill="midnightblue" stroke="midnightblue" points="253.985,-51.5001 263.985,-48 253.985,-44.5001 253.985,-51.5001"/>
</g>
</g>
</svg>
