<?xml version="1.0" encoding="UTF-8" standalone="no"?>
<!DOCTYPE svg PUBLIC "-//W3C//DTD SVG 1.1//EN"
 "http://www.w3.org/Graphics/SVG/1.1/DTD/svg11.dtd">
<!-- Generated by graphviz version 2.30.1 (20130712.1527)
 -->
<!-- Title: icmp6_packet_set_ttl Pages: 1 -->
<svg width="266pt" height="116pt"
 viewBox="0.00 0.00 266.00 116.00" xmlns="http://www.w3.org/2000/svg" xmlns:xlink="http://www.w3.org/1999/xlink">
<g id="graph0" class="graph" transform="scale(1 1) rotate(0) translate(4 112)">
<title>icmp6_packet_set_ttl</title>
<!-- Node1 -->
<g id="node1" class="node"><title>Node1</title>
<polygon fill="#bfbfbf" stroke="black" points="0,-44.5 0,-63.5 110,-63.5 110,-44.5 0,-44.5"/>
<text text-anchor="middle" x="55" y="-51.5" font-family="Helvetica,sans-Serif" font-size="10.00">icmp6_packet_set_ttl</text>
</g>
<!-- Node2 -->
<g id="node2" class="node"><title>Node2</title>
<g id="a_node2"><a xlink:href="../../d3/d5a/base_8h_a58ba35289e8c456e6beb956ae2057469.html#a58ba35289e8c456e6beb956ae2057469" target="_top" xlink:title="Vérifier qu&#39;un pointeur ne pointe pas vers NULL.">
<polygon fill="none" stroke="black" points="163.5,-88.5 163.5,-107.5 240.5,-107.5 240.5,-88.5 163.5,-88.5"/>
<text text-anchor="middle" x="202" y="-95.5" font-family="Helvetica,sans-Serif" font-size="10.00">check_pointer</text>
</a>
</g>
</g>
<!-- Node1&#45;&gt;Node2 -->
<g id="edge1" class="edge"><title>Node1&#45;&gt;Node2</title>
<path fill="none" stroke="midnightblue" d="M87.4628,-63.5473C108.649,-69.9763 136.806,-78.5206 159.78,-85.4918"/>
<polygon fill="midnightblue" stroke="midnightblue" points="159.013,-88.9167 169.599,-88.4713 161.046,-82.2183 159.013,-88.9167"/>
</g>
<!-- Node3 -->
<g id="node3" class="node"><title>Node3</title>
<g id="a_node3"><a xlink:href="../../df/d91/structicmp6__packet_a56693b0f5270e1406a1da4f5a9907e14.html#a56693b0f5270e1406a1da4f5a9907e14" target="_top" xlink:title="Checksum d&#39;un paquet IPv6+ICMP.">
<polygon fill="none" stroke="black" points="147,-39 147,-69 257,-69 257,-39 147,-39"/>
<text text-anchor="start" x="155" y="-57" font-family="Helvetica,sans-Serif" font-size="10.00">icmp6_packet::icmp6</text>
<text text-anchor="middle" x="202" y="-46" font-family="Helvetica,sans-Serif" font-size="10.00">_packet_checksum</text>
</a>
</g>
</g>
<!-- Node1&#45;&gt;Node3 -->
<g id="edge2" class="edge"><title>Node1&#45;&gt;Node3</title>
<path fill="none" stroke="midnightblue" d="M110.405,-54C118.953,-54 127.86,-54 136.608,-54"/>
<polygon fill="midnightblue" stroke="midnightblue" points="136.772,-57.5001 146.772,-54 136.772,-50.5001 136.772,-57.5001"/>
</g>
<!-- Node4 -->
<g id="node4" class="node"><title>Node4</title>
<g id="a_node4"><a xlink:href="../../d4/dbd/ip__util_8h_a2c916dee701ab564850d740f1ef69444.html#a2c916dee701ab564850d740f1ef69444" target="_top" xlink:title="Changer le nombre de sauts maximal.">
<polygon fill="none" stroke="black" points="146.5,-0.5 146.5,-19.5 257.5,-19.5 257.5,-0.5 146.5,-0.5"/>
<text text-anchor="middle" x="202" y="-7.5" font-family="Helvetica,sans-Serif" font-size="10.00">ip6_hdr_set_hop_limit</text>
</a>
</g>
</g>
<!-- Node1&#45;&gt;Node4 -->
<g id="edge3" class="edge"><title>Node1&#45;&gt;Node4</title>
<path fill="none" stroke="midnightblue" d="M87.4628,-44.4527C108.649,-38.0237 136.806,-29.4794 159.78,-22.5082"/>
<polygon fill="midnightblue" stroke="midnightblue" points="161.046,-25.7817 169.599,-19.5287 159.013,-19.0833 161.046,-25.7817"/>
</g>
</g>
</svg>
