<?xml version="1.0" encoding="UTF-8" standalone="no"?>
<!DOCTYPE svg PUBLIC "-//W3C//DTD SVG 1.1//EN"
 "http://www.w3.org/Graphics/SVG/1.1/DTD/svg11.dtd">
<!-- Generated by graphviz version 2.30.1 (20130712.1527)
 -->
<!-- Title: icmp6_packet_set_length Pages: 1 -->
<svg width="282pt" height="126pt"
 viewBox="0.00 0.00 282.00 126.00" xmlns="http://www.w3.org/2000/svg" xmlns:xlink="http://www.w3.org/1999/xlink">
<g id="graph0" class="graph" transform="scale(1 1) rotate(0) translate(4 122)">
<title>icmp6_packet_set_length</title>
<!-- Node1 -->
<g id="node1" class="node"><title>Node1</title>
<polygon fill="#bfbfbf" stroke="black" points="0,-54.5 0,-73.5 128,-73.5 128,-54.5 0,-54.5"/>
<text text-anchor="middle" x="64" y="-61.5" font-family="Helvetica,sans-Serif" font-size="10.00">icmp6_packet_set_length</text>
</g>
<!-- Node2 -->
<g id="node2" class="node"><title>Node2</title>
<g id="a_node2"><a xlink:href="../../d3/d5a/base_8h_a58ba35289e8c456e6beb956ae2057469.html#a58ba35289e8c456e6beb956ae2057469" target="_top" xlink:title="Vérifier qu&#39;un pointeur ne pointe pas vers NULL.">
<polygon fill="none" stroke="black" points="180.5,-98.5 180.5,-117.5 257.5,-117.5 257.5,-98.5 180.5,-98.5"/>
<text text-anchor="middle" x="219" y="-105.5" font-family="Helvetica,sans-Serif" font-size="10.00">check_pointer</text>
</a>
</g>
</g>
<!-- Node1&#45;&gt;Node2 -->
<g id="edge1" class="edge"><title>Node1&#45;&gt;Node2</title>
<path fill="none" stroke="midnightblue" d="M98.1987,-73.5473C120.754,-80.0339 150.798,-88.674 175.156,-95.6789"/>
<polygon fill="midnightblue" stroke="midnightblue" points="174.288,-99.0711 184.866,-98.4713 176.223,-92.3437 174.288,-99.0711"/>
</g>
<!-- Node3 -->
<g id="node3" class="node"><title>Node3</title>
<g id="a_node3"><a xlink:href="../../df/d91/structicmp6__packet_a56693b0f5270e1406a1da4f5a9907e14.html#a56693b0f5270e1406a1da4f5a9907e14" target="_top" xlink:title="Checksum d&#39;un paquet IPv6+ICMP.">
<polygon fill="none" stroke="black" points="164,-49 164,-79 274,-79 274,-49 164,-49"/>
<text text-anchor="start" x="172" y="-67" font-family="Helvetica,sans-Serif" font-size="10.00">icmp6_packet::icmp6</text>
<text text-anchor="middle" x="219" y="-56" font-family="Helvetica,sans-Serif" font-size="10.00">_packet_checksum</text>
</a>
</g>
</g>
<!-- Node1&#45;&gt;Node3 -->
<g id="edge2" class="edge"><title>Node1&#45;&gt;Node3</title>
<path fill="none" stroke="midnightblue" d="M128.114,-64C136.541,-64 145.192,-64 153.64,-64"/>
<polygon fill="midnightblue" stroke="midnightblue" points="153.816,-67.5001 163.816,-64 153.816,-60.5001 153.816,-67.5001"/>
</g>
<!-- Node4 -->
<g id="node4" class="node"><title>Node4</title>
<g id="a_node4"><a xlink:href="../../d4/dbd/ip__util_8h_aef9a371aacfba7647436f472bbdd5e8c.html#aef9a371aacfba7647436f472bbdd5e8c" target="_top" xlink:title="Changer la taille.">
<polygon fill="none" stroke="black" points="166,-0 166,-30 272,-30 272,-0 166,-0"/>
<text text-anchor="start" x="174" y="-18" font-family="Helvetica,sans-Serif" font-size="10.00">ip6_hdr_set_payload</text>
<text text-anchor="middle" x="219" y="-7" font-family="Helvetica,sans-Serif" font-size="10.00">_length</text>
</a>
</g>
</g>
<!-- Node1&#45;&gt;Node4 -->
<g id="edge3" class="edge"><title>Node1&#45;&gt;Node4</title>
<path fill="none" stroke="midnightblue" d="M94.8631,-54.436C113.726,-48.395 138.706,-40.3948 161.235,-33.1796"/>
<polygon fill="midnightblue" stroke="midnightblue" points="162.592,-36.4203 171.048,-30.037 160.457,-29.7538 162.592,-36.4203"/>
</g>
</g>
</svg>
