<?xml version="1.0" encoding="UTF-8" standalone="no"?>
<!DOCTYPE svg PUBLIC "-//W3C//DTD SVG 1.1//EN"
 "http://www.w3.org/Graphics/SVG/1.1/DTD/svg11.dtd">
<!-- Generated by graphviz version 2.30.1 (20130712.1527)
 -->
<!-- Title: include/address.h Pages: 1 -->
<svg width="1213pt" height="364pt"
 viewBox="0.00 0.00 1213.00 364.00" xmlns="http://www.w3.org/2000/svg" xmlns:xlink="http://www.w3.org/1999/xlink">
<g id="graph0" class="graph" transform="scale(1 1) rotate(0) translate(4 360)">
<title>include/address.h</title>
<!-- Node1 -->
<g id="node1" class="node"><title>Node1</title>
<polygon fill="#bfbfbf" stroke="black" points="534.5,-336.5 534.5,-355.5 627.5,-355.5 627.5,-336.5 534.5,-336.5"/>
<text text-anchor="middle" x="581" y="-343.5" font-family="Helvetica,sans-Serif" font-size="10.00">include/address.h</text>
</g>
<!-- Node2 -->
<g id="node2" class="node"><title>Node2</title>
<g id="a_node2"><a xlink:href="../../d9/d8d/anna_8h.html" target="_top" xlink:title="Anna. (implémentation)">
<polygon fill="none" stroke="black" points="31,-56.5 31,-75.5 111,-75.5 111,-56.5 31,-56.5"/>
<text text-anchor="middle" x="71" y="-63.5" font-family="Helvetica,sans-Serif" font-size="10.00">include/anna.h</text>
</a>
</g>
</g>
<!-- Node1&#45;&gt;Node2 -->
<g id="edge1" class="edge"><title>Node1&#45;&gt;Node2</title>
<path fill="none" stroke="midnightblue" d="M524.082,-344.5C392.03,-341.803 76,-325.858 76,-235 76,-235 76,-235 76,-177 76,-139.148 73.009,-94.0459 71.6537,-75.5518"/>
<polygon fill="midnightblue" stroke="midnightblue" points="524.333,-348.005 534.396,-344.691 524.463,-341.006 524.333,-348.005"/>
</g>
<!-- Node5 -->
<g id="node5" class="node"><title>Node5</title>
<g id="a_node5"><a xlink:href="../../de/d71/traceroute_8h.html" target="_top" xlink:title="Traceroute (header)">
<polygon fill="none" stroke="black" points="115,-112.5 115,-131.5 217,-131.5 217,-112.5 115,-112.5"/>
<text text-anchor="middle" x="166" y="-119.5" font-family="Helvetica,sans-Serif" font-size="10.00">include/traceroute.h</text>
</a>
</g>
</g>
<!-- Node1&#45;&gt;Node5 -->
<g id="edge4" class="edge"><title>Node1&#45;&gt;Node5</title>
<path fill="none" stroke="midnightblue" d="M524.266,-344.67C436.957,-343.036 275.11,-335.188 231,-300 175.98,-256.109 167.53,-161.096 166.234,-131.788"/>
<polygon fill="midnightblue" stroke="midnightblue" points="524.218,-348.17 534.274,-344.836 524.334,-341.171 524.218,-348.17"/>
</g>
<!-- Node8 -->
<g id="node8" class="node"><title>Node8</title>
<g id="a_node8"><a xlink:href="../../d7/d13/icmp__util_8h.html" target="_top" xlink:title="Utilitaires ICMP (header)">
<polygon fill="none" stroke="black" points="381,-224.5 381,-243.5 479,-243.5 479,-224.5 381,-224.5"/>
<text text-anchor="middle" x="430" y="-231.5" font-family="Helvetica,sans-Serif" font-size="10.00">include/icmp_util.h</text>
</a>
</g>
</g>
<!-- Node1&#45;&gt;Node8 -->
<g id="edge8" class="edge"><title>Node1&#45;&gt;Node8</title>
<path fill="none" stroke="midnightblue" d="M550.347,-332.343C532.744,-324.355 510.693,-313.087 493,-300 470.005,-282.991 447.864,-257.314 436.985,-243.89"/>
<polygon fill="midnightblue" stroke="midnightblue" points="549.051,-335.596 559.612,-336.433 551.878,-329.193 549.051,-335.596"/>
</g>
<!-- Node20 -->
<g id="node20" class="node"><title>Node20</title>
<g id="a_node20"><a xlink:href="../../d4/dbd/ip__util_8h.html" target="_top" xlink:title="Utilitaires IP (header)">
<polygon fill="none" stroke="black" points="644,-280.5 644,-299.5 728,-299.5 728,-280.5 644,-280.5"/>
<text text-anchor="middle" x="686" y="-287.5" font-family="Helvetica,sans-Serif" font-size="10.00">include/ip_util.h</text>
</a>
</g>
</g>
<!-- Node1&#45;&gt;Node20 -->
<g id="edge24" class="edge"><title>Node1&#45;&gt;Node20</title>
<path fill="none" stroke="midnightblue" d="M606.81,-331.726C626.253,-321.727 652.348,-308.307 669.172,-299.655"/>
<polygon fill="midnightblue" stroke="midnightblue" points="605.162,-328.638 597.87,-336.324 608.364,-334.863 605.162,-328.638"/>
</g>
<!-- Node21 -->
<g id="node21" class="node"><title>Node21</title>
<g id="a_node21"><a xlink:href="../../da/d14/udp__util_8h.html" target="_top" xlink:title="Utilitaires IP (header)">
<polygon fill="none" stroke="black" points="535,-224.5 535,-243.5 627,-243.5 627,-224.5 535,-224.5"/>
<text text-anchor="middle" x="581" y="-231.5" font-family="Helvetica,sans-Serif" font-size="10.00">include/udp_util.h</text>
</a>
</g>
</g>
<!-- Node1&#45;&gt;Node21 -->
<g id="edge34" class="edge"><title>Node1&#45;&gt;Node21</title>
<path fill="none" stroke="midnightblue" d="M581,-326.348C581,-302.254 581,-261.308 581,-243.591"/>
<polygon fill="midnightblue" stroke="midnightblue" points="577.5,-326.368 581,-336.368 584.5,-326.369 577.5,-326.368"/>
</g>
<!-- Node9 -->
<g id="node9" class="node"><title>Node9</title>
<g id="a_node9"><a xlink:href="../../d3/d76/packet_8h.html" target="_top" xlink:title="Utilitaires pour créer des paquets (header)">
<polygon fill="none" stroke="black" points="537,-168.5 537,-187.5 625,-187.5 625,-168.5 537,-168.5"/>
<text text-anchor="middle" x="581" y="-175.5" font-family="Helvetica,sans-Serif" font-size="10.00">include/packet.h</text>
</a>
</g>
</g>
<!-- Node1&#45;&gt;Node9 -->
<g id="edge35" class="edge"><title>Node1&#45;&gt;Node9</title>
<path fill="none" stroke="midnightblue" d="M568.384,-328.188C554.841,-308.995 534.171,-276.092 526,-244 523.807,-235.386 522.194,-232.033 526,-224 533.766,-207.611 550.749,-195.206 563.802,-187.614"/>
<polygon fill="midnightblue" stroke="midnightblue" points="565.669,-330.406 574.374,-336.445 571.335,-326.295 565.669,-330.406"/>
</g>
<!-- Node10 -->
<g id="node10" class="node"><title>Node10</title>
<g id="a_node10"><a xlink:href="../../d6/dc8/ping__icmp_8h.html" target="_top" xlink:title="Implémentation de la fonction Ping. (header)">
<polygon fill="none" stroke="black" points="665.5,-112.5 665.5,-131.5 768.5,-131.5 768.5,-112.5 665.5,-112.5"/>
<text text-anchor="middle" x="717" y="-119.5" font-family="Helvetica,sans-Serif" font-size="10.00">include/ping_icmp.h</text>
</a>
</g>
</g>
<!-- Node1&#45;&gt;Node10 -->
<g id="edge36" class="edge"><title>Node1&#45;&gt;Node10</title>
<path fill="none" stroke="midnightblue" d="M637.634,-336.077C723.554,-321.247 880.333,-288.675 913,-244 932.181,-217.769 895.78,-179.464 881,-168 848.689,-142.938 803.337,-131.822 768.512,-126.898"/>
<polygon fill="midnightblue" stroke="midnightblue" points="637.045,-332.627 627.773,-337.755 638.219,-339.528 637.045,-332.627"/>
</g>
<!-- Node26 -->
<g id="node26" class="node"><title>Node26</title>
<g id="a_node26"><a xlink:href="../../d1/d3e/address_8c.html" target="_top" xlink:title="Utilitaires pour obtenir des addresses. (implémentation)">
<polygon fill="none" stroke="black" points="1005,-280.5 1005,-299.5 1081,-299.5 1081,-280.5 1005,-280.5"/>
<text text-anchor="middle" x="1043" y="-287.5" font-family="Helvetica,sans-Serif" font-size="10.00">src/address.c</text>
</a>
</g>
</g>
<!-- Node1&#45;&gt;Node26 -->
<g id="edge37" class="edge"><title>Node1&#45;&gt;Node26</title>
<path fill="none" stroke="midnightblue" d="M637.792,-339.891C717.061,-332.503 865.294,-317.759 991,-300 995.536,-299.359 1000.28,-298.625 1004.99,-297.859"/>
<polygon fill="midnightblue" stroke="midnightblue" points="637.174,-336.433 627.54,-340.841 637.82,-343.403 637.174,-336.433"/>
</g>
<!-- Node27 -->
<g id="node27" class="node"><title>Node27</title>
<g id="a_node27"><a xlink:href="../../d1/d90/test__address_8c_source.html" target="_top" xlink:title="tests/test_address.c">
<polygon fill="none" stroke="black" points="1099,-280.5 1099,-299.5 1205,-299.5 1205,-280.5 1099,-280.5"/>
<text text-anchor="middle" x="1152" y="-287.5" font-family="Helvetica,sans-Serif" font-size="10.00">tests/test_address.c</text>
</a>
</g>
</g>
<!-- Node1&#45;&gt;Node27 -->
<g id="edge38" class="edge"><title>Node1&#45;&gt;Node27</title>
<path fill="none" stroke="midnightblue" d="M637.922,-341.013C732.122,-334.179 926.296,-319.103 1090,-300 1092.92,-299.66 1095.91,-299.291 1098.93,-298.904"/>
<polygon fill="midnightblue" stroke="midnightblue" points="637.479,-337.535 627.757,-341.746 637.983,-344.517 637.479,-337.535"/>
</g>
<!-- Node14 -->
<g id="node14" class="node"><title>Node14</title>
<g id="a_node14"><a xlink:href="../../da/d3e/test__packet_8h_source.html" target="_top" xlink:title="tests/test_packet.h">
<polygon fill="none" stroke="black" points="929.5,-112.5 929.5,-131.5 1030.5,-131.5 1030.5,-112.5 929.5,-112.5"/>
<text text-anchor="middle" x="980" y="-119.5" font-family="Helvetica,sans-Serif" font-size="10.00">tests/test_packet.h</text>
</a>
</g>
</g>
<!-- Node1&#45;&gt;Node14 -->
<g id="edge39" class="edge"><title>Node1&#45;&gt;Node14</title>
<path fill="none" stroke="midnightblue" d="M637.852,-342.028C692.38,-337.63 776.199,-326.767 844,-300 886.079,-283.388 900.079,-278.788 929,-244 958.73,-208.239 973.463,-152.636 978.222,-131.523"/>
<polygon fill="midnightblue" stroke="midnightblue" points="637.393,-338.552 627.687,-342.8 637.923,-345.532 637.393,-338.552"/>
</g>
<!-- Node7 -->
<g id="node7" class="node"><title>Node7</title>
<g id="a_node7"><a xlink:href="../../de/d12/test__traceroute_8c_source.html" target="_top" xlink:title="tests/test_traceroute.c">
<polygon fill="none" stroke="black" points="232.5,-56.5 232.5,-75.5 347.5,-75.5 347.5,-56.5 232.5,-56.5"/>
<text text-anchor="middle" x="290" y="-63.5" font-family="Helvetica,sans-Serif" font-size="10.00">tests/test_traceroute.c</text>
</a>
</g>
</g>
<!-- Node1&#45;&gt;Node7 -->
<g id="edge40" class="edge"><title>Node1&#45;&gt;Node7</title>
<path fill="none" stroke="midnightblue" d="M524.169,-338.282C428.352,-325.355 245,-293.037 245,-235 245,-235 245,-235 245,-177 245,-136.558 271.378,-93.563 283.743,-75.6305"/>
<polygon fill="midnightblue" stroke="midnightblue" points="523.908,-341.778 534.281,-339.618 524.825,-334.838 523.908,-341.778"/>
</g>
<!-- Node3 -->
<g id="node3" class="node"><title>Node3</title>
<g id="a_node3"><a xlink:href="../../d2/da0/anna_8c.html" target="_top" xlink:title="Anna. (implémentation)">
<polygon fill="none" stroke="black" points="0,-0.5 0,-19.5 62,-19.5 62,-0.5 0,-0.5"/>
<text text-anchor="middle" x="31" y="-7.5" font-family="Helvetica,sans-Serif" font-size="10.00">src/anna.c</text>
</a>
</g>
</g>
<!-- Node2&#45;&gt;Node3 -->
<g id="edge2" class="edge"><title>Node2&#45;&gt;Node3</title>
<path fill="none" stroke="midnightblue" d="M58.3003,-47.8554C51.374,-38.5048 43.0937,-27.3265 37.4823,-19.7511"/>
<polygon fill="midnightblue" stroke="midnightblue" points="55.63,-50.1307 64.3948,-56.083 61.255,-45.9641 55.63,-50.1307"/>
</g>
<!-- Node4 -->
<g id="node4" class="node"><title>Node4</title>
<g id="a_node4"><a xlink:href="../../d0/d29/main_8c.html" target="_top" xlink:title="Main. (implémentation)">
<polygon fill="none" stroke="black" points="80,-0.5 80,-19.5 142,-19.5 142,-0.5 80,-0.5"/>
<text text-anchor="middle" x="111" y="-7.5" font-family="Helvetica,sans-Serif" font-size="10.00">src/main.c</text>
</a>
</g>
</g>
<!-- Node2&#45;&gt;Node4 -->
<g id="edge3" class="edge"><title>Node2&#45;&gt;Node4</title>
<path fill="none" stroke="midnightblue" d="M83.6997,-47.8554C90.626,-38.5048 98.9063,-27.3265 104.518,-19.7511"/>
<polygon fill="midnightblue" stroke="midnightblue" points="80.745,-45.9641 77.6052,-56.083 86.37,-50.1307 80.745,-45.9641"/>
</g>
<!-- Node5&#45;&gt;Node2 -->
<g id="edge5" class="edge"><title>Node5&#45;&gt;Node2</title>
<path fill="none" stroke="midnightblue" d="M141.682,-107.177C124.201,-97.2407 101.17,-84.1492 86.2255,-75.6545"/>
<polygon fill="midnightblue" stroke="midnightblue" points="140.313,-110.425 150.737,-112.324 143.773,-104.339 140.313,-110.425"/>
</g>
<!-- Node6 -->
<g id="node6" class="node"><title>Node6</title>
<g id="a_node6"><a xlink:href="../../d1/d4c/traceroute_8c.html" target="_top" xlink:title="Traceroute (implémentation)">
<polygon fill="none" stroke="black" points="129.5,-56.5 129.5,-75.5 214.5,-75.5 214.5,-56.5 129.5,-56.5"/>
<text text-anchor="middle" x="172" y="-63.5" font-family="Helvetica,sans-Serif" font-size="10.00">src/traceroute.c</text>
</a>
</g>
</g>
<!-- Node5&#45;&gt;Node6 -->
<g id="edge6" class="edge"><title>Node5&#45;&gt;Node6</title>
<path fill="none" stroke="midnightblue" d="M168.1,-102.101C169.096,-93.1357 170.238,-82.8579 171.028,-75.7511"/>
<polygon fill="midnightblue" stroke="midnightblue" points="164.617,-101.758 166.991,-112.083 171.574,-102.531 164.617,-101.758"/>
</g>
<!-- Node5&#45;&gt;Node7 -->
<g id="edge7" class="edge"><title>Node5&#45;&gt;Node7</title>
<path fill="none" stroke="midnightblue" d="M195.007,-108.368C218.229,-98.2553 250.163,-84.3486 270.444,-75.5164"/>
<polygon fill="midnightblue" stroke="midnightblue" points="193.419,-105.242 185.648,-112.444 196.214,-111.66 193.419,-105.242"/>
</g>
<!-- Node8&#45;&gt;Node9 -->
<g id="edge9" class="edge"><title>Node8&#45;&gt;Node9</title>
<path fill="none" stroke="midnightblue" d="M463.446,-221.039C491.858,-210.879 531.937,-196.546 557.186,-187.516"/>
<polygon fill="midnightblue" stroke="midnightblue" points="462.164,-217.781 453.926,-224.444 464.521,-224.372 462.164,-217.781"/>
</g>
<!-- Node8&#45;&gt;Node10 -->
<g id="edge19" class="edge"><title>Node8&#45;&gt;Node10</title>
<path fill="none" stroke="midnightblue" d="M448.166,-218.081C467.027,-203.307 497.931,-181.058 528,-168 572.397,-148.72 626.407,-136.915 665.303,-130.263"/>
<polygon fill="midnightblue" stroke="midnightblue" points="445.793,-215.496 440.162,-224.471 450.161,-220.967 445.793,-215.496"/>
</g>
<!-- Node17 -->
<g id="node17" class="node"><title>Node17</title>
<g id="a_node17"><a xlink:href="../../d4/df1/icmp__util_8c.html" target="_top" xlink:title="Utilitaires ICMP (implémentation)">
<polygon fill="none" stroke="black" points="401,-168.5 401,-187.5 481,-187.5 481,-168.5 401,-168.5"/>
<text text-anchor="middle" x="441" y="-175.5" font-family="Helvetica,sans-Serif" font-size="10.00">src/icmp_util.c</text>
</a>
</g>
</g>
<!-- Node8&#45;&gt;Node17 -->
<g id="edge20" class="edge"><title>Node8&#45;&gt;Node17</title>
<path fill="none" stroke="midnightblue" d="M433.85,-214.101C435.676,-205.136 437.77,-194.858 439.217,-187.751"/>
<polygon fill="midnightblue" stroke="midnightblue" points="430.383,-213.586 431.816,-224.083 437.242,-214.983 430.383,-213.586"/>
</g>
<!-- Node18 -->
<g id="node18" class="node"><title>Node18</title>
<g id="a_node18"><a xlink:href="../../d3/d79/test__icmp__util_8h_source.html" target="_top" xlink:title="tests/test_icmp_util.h">
<polygon fill="none" stroke="black" points="273,-168.5 273,-187.5 383,-187.5 383,-168.5 273,-168.5"/>
<text text-anchor="middle" x="328" y="-175.5" font-family="Helvetica,sans-Serif" font-size="10.00">tests/test_icmp_util.h</text>
</a>
</g>
</g>
<!-- Node8&#45;&gt;Node18 -->
<g id="edge21" class="edge"><title>Node8&#45;&gt;Node18</title>
<path fill="none" stroke="midnightblue" d="M404.669,-219.59C385.81,-209.605 360.616,-196.267 344.347,-187.655"/>
<polygon fill="midnightblue" stroke="midnightblue" points="403.136,-222.738 413.612,-224.324 406.412,-216.552 403.136,-222.738"/>
</g>
<!-- Node9&#45;&gt;Node5 -->
<g id="edge10" class="edge"><title>Node9&#45;&gt;Node5</title>
<path fill="none" stroke="midnightblue" d="M527.052,-169.98C446.593,-159.511 296.194,-139.941 217.301,-129.675"/>
<polygon fill="midnightblue" stroke="midnightblue" points="526.613,-173.453 536.981,-171.272 527.516,-166.511 526.613,-173.453"/>
</g>
<!-- Node9&#45;&gt;Node10 -->
<g id="edge11" class="edge"><title>Node9&#45;&gt;Node10</title>
<path fill="none" stroke="midnightblue" d="M612.135,-164.638C637.657,-154.504 673.109,-140.427 695.551,-131.516"/>
<polygon fill="midnightblue" stroke="midnightblue" points="610.552,-161.5 602.55,-168.444 613.135,-168.006 610.552,-161.5"/>
</g>
<!-- Node13 -->
<g id="node13" class="node"><title>Node13</title>
<g id="a_node13"><a xlink:href="../../de/df3/packet_8c.html" target="_top" xlink:title="Utilitaires pour créer des paquets (implémentation)">
<polygon fill="none" stroke="black" points="545.5,-112.5 545.5,-131.5 616.5,-131.5 616.5,-112.5 545.5,-112.5"/>
<text text-anchor="middle" x="581" y="-119.5" font-family="Helvetica,sans-Serif" font-size="10.00">src/packet.c</text>
</a>
</g>
</g>
<!-- Node9&#45;&gt;Node13 -->
<g id="edge14" class="edge"><title>Node9&#45;&gt;Node13</title>
<path fill="none" stroke="midnightblue" d="M581,-157.805C581,-148.91 581,-138.78 581,-131.751"/>
<polygon fill="midnightblue" stroke="midnightblue" points="577.5,-158.083 581,-168.083 584.5,-158.083 577.5,-158.083"/>
</g>
<!-- Node9&#45;&gt;Node14 -->
<g id="edge15" class="edge"><title>Node9&#45;&gt;Node14</title>
<path fill="none" stroke="midnightblue" d="M635.234,-167.862C746.006,-151.4 864.004,-136.792 929.489,-128.945"/>
<polygon fill="midnightblue" stroke="midnightblue" points="634.599,-164.418 625.226,-169.358 635.633,-171.341 634.599,-164.418"/>
</g>
<!-- Node9&#45;&gt;Node7 -->
<g id="edge18" class="edge"><title>Node9&#45;&gt;Node7</title>
<path fill="none" stroke="midnightblue" d="M548.529,-164.726C489.057,-142.245 364.05,-94.9914 312.728,-75.5914"/>
<polygon fill="midnightblue" stroke="midnightblue" points="547.574,-168.106 558.166,-168.368 550.049,-161.559 547.574,-168.106"/>
</g>
<!-- Node11 -->
<g id="node11" class="node"><title>Node11</title>
<g id="a_node11"><a xlink:href="../../d5/d74/ping__icmp_8c.html" target="_top" xlink:title="Implémentation de la fonction Ping. (implémentation)">
<polygon fill="none" stroke="black" points="703,-56.5 703,-75.5 789,-75.5 789,-56.5 703,-56.5"/>
<text text-anchor="middle" x="746" y="-63.5" font-family="Helvetica,sans-Serif" font-size="10.00">src/ping_icmp.c</text>
</a>
</g>
</g>
<!-- Node10&#45;&gt;Node11 -->
<g id="edge12" class="edge"><title>Node10&#45;&gt;Node11</title>
<path fill="none" stroke="midnightblue" d="M726.676,-102.983C731.598,-93.8168 737.358,-83.0922 741.3,-75.7511"/>
<polygon fill="midnightblue" stroke="midnightblue" points="723.437,-101.617 721.789,-112.083 729.604,-104.929 723.437,-101.617"/>
</g>
<!-- Node12 -->
<g id="node12" class="node"><title>Node12</title>
<g id="a_node12"><a xlink:href="../../d5/da8/test__ping_8c_source.html" target="_top" xlink:title="tests/test_ping.c">
<polygon fill="none" stroke="black" points="595.5,-56.5 595.5,-75.5 684.5,-75.5 684.5,-56.5 595.5,-56.5"/>
<text text-anchor="middle" x="640" y="-63.5" font-family="Helvetica,sans-Serif" font-size="10.00">tests/test_ping.c</text>
</a>
</g>
</g>
<!-- Node10&#45;&gt;Node12 -->
<g id="edge13" class="edge"><title>Node10&#45;&gt;Node12</title>
<path fill="none" stroke="midnightblue" d="M696.099,-106.342C682.089,-96.5169 664.117,-83.9132 652.341,-75.6545"/>
<polygon fill="midnightblue" stroke="midnightblue" points="694.432,-109.448 704.629,-112.324 698.451,-103.717 694.432,-109.448"/>
</g>
<!-- Node15 -->
<g id="node15" class="node"><title>Node15</title>
<g id="a_node15"><a xlink:href="../../d1/d26/test__packet_8c_source.html" target="_top" xlink:title="tests/test_packet.c">
<polygon fill="none" stroke="black" points="947.5,-56.5 947.5,-75.5 1048.5,-75.5 1048.5,-56.5 947.5,-56.5"/>
<text text-anchor="middle" x="998" y="-63.5" font-family="Helvetica,sans-Serif" font-size="10.00">tests/test_packet.c</text>
</a>
</g>
</g>
<!-- Node14&#45;&gt;Node15 -->
<g id="edge16" class="edge"><title>Node14&#45;&gt;Node15</title>
<path fill="none" stroke="midnightblue" d="M986.201,-102.396C989.213,-93.362 992.688,-82.936 995.083,-75.7511"/>
<polygon fill="midnightblue" stroke="midnightblue" points="982.814,-101.489 982.972,-112.083 989.455,-103.703 982.814,-101.489"/>
</g>
<!-- Node16 -->
<g id="node16" class="node"><title>Node16</title>
<g id="a_node16"><a xlink:href="../../d8/d2e/unit__tests_8c_source.html" target="_top" xlink:title="tests/unit_tests.c">
<polygon fill="none" stroke="black" points="837,-56.5 837,-75.5 929,-75.5 929,-56.5 837,-56.5"/>
<text text-anchor="middle" x="883" y="-63.5" font-family="Helvetica,sans-Serif" font-size="10.00">tests/unit_tests.c</text>
</a>
</g>
</g>
<!-- Node14&#45;&gt;Node16 -->
<g id="edge17" class="edge"><title>Node14&#45;&gt;Node16</title>
<path fill="none" stroke="midnightblue" d="M955.665,-107.453C937.757,-97.4835 913.946,-84.2279 898.546,-75.6545"/>
<polygon fill="midnightblue" stroke="midnightblue" points="953.975,-110.518 964.415,-112.324 957.38,-104.402 953.975,-110.518"/>
</g>
<!-- Node19 -->
<g id="node19" class="node"><title>Node19</title>
<g id="a_node19"><a xlink:href="../../dd/d77/test__icmp__util_8c_source.html" target="_top" xlink:title="tests/test_icmp_util.c">
<polygon fill="none" stroke="black" points="273,-112.5 273,-131.5 383,-131.5 383,-112.5 273,-112.5"/>
<text text-anchor="middle" x="328" y="-119.5" font-family="Helvetica,sans-Serif" font-size="10.00">tests/test_icmp_util.c</text>
</a>
</g>
</g>
<!-- Node18&#45;&gt;Node19 -->
<g id="edge22" class="edge"><title>Node18&#45;&gt;Node19</title>
<path fill="none" stroke="midnightblue" d="M328,-157.805C328,-148.91 328,-138.78 328,-131.751"/>
<polygon fill="midnightblue" stroke="midnightblue" points="324.5,-158.083 328,-168.083 331.5,-158.083 324.5,-158.083"/>
</g>
<!-- Node18&#45;&gt;Node16 -->
<g id="edge23" class="edge"><title>Node18&#45;&gt;Node16</title>
<path fill="none" stroke="midnightblue" d="M360.332,-164.965C400.838,-150.34 472.634,-125.899 536,-112 592.37,-99.6356 756.208,-80.8367 836.94,-71.9653"/>
<polygon fill="midnightblue" stroke="midnightblue" points="358.932,-161.75 350.733,-168.46 361.327,-168.328 358.932,-161.75"/>
</g>
<!-- Node20&#45;&gt;Node9 -->
<g id="edge25" class="edge"><title>Node20&#45;&gt;Node9</title>
<path fill="none" stroke="midnightblue" d="M674.306,-271.643C664.752,-258.026 650.501,-238.943 636,-224 622.425,-210.011 604.656,-196.148 593.041,-187.585"/>
<polygon fill="midnightblue" stroke="midnightblue" points="671.56,-273.827 680.115,-280.078 677.326,-269.857 671.56,-273.827"/>
</g>
<!-- Node20&#45;&gt;Node21 -->
<g id="edge26" class="edge"><title>Node20&#45;&gt;Node21</title>
<path fill="none" stroke="midnightblue" d="M660.19,-275.726C640.747,-265.727 614.652,-252.307 597.828,-243.655"/>
<polygon fill="midnightblue" stroke="midnightblue" points="658.636,-278.863 669.13,-280.324 661.838,-272.638 658.636,-278.863"/>
</g>
<!-- Node20&#45;&gt;Node10 -->
<g id="edge29" class="edge"><title>Node20&#45;&gt;Node10</title>
<path fill="none" stroke="midnightblue" d="M721.446,-276.196C735.78,-269.064 750.844,-258.609 759,-244 780.896,-204.781 742.087,-152.117 724.741,-131.645"/>
<polygon fill="midnightblue" stroke="midnightblue" points="719.854,-273.076 712.211,-280.414 722.762,-279.443 719.854,-273.076"/>
</g>
<!-- Node23 -->
<g id="node23" class="node"><title>Node23</title>
<g id="a_node23"><a xlink:href="../../da/d7b/ip__util_8c.html" target="_top" xlink:title="Utilitaires IP (implémentation)">
<polygon fill="none" stroke="black" points="683.5,-224.5 683.5,-243.5 750.5,-243.5 750.5,-224.5 683.5,-224.5"/>
<text text-anchor="middle" x="717" y="-231.5" font-family="Helvetica,sans-Serif" font-size="10.00">src/ip_util.c</text>
</a>
</g>
</g>
<!-- Node20&#45;&gt;Node23 -->
<g id="edge30" class="edge"><title>Node20&#45;&gt;Node23</title>
<path fill="none" stroke="midnightblue" d="M696.176,-271.275C701.474,-262.045 707.717,-251.17 711.976,-243.751"/>
<polygon fill="midnightblue" stroke="midnightblue" points="693.062,-269.668 691.119,-280.083 699.133,-273.153 693.062,-269.668"/>
</g>
<!-- Node24 -->
<g id="node24" class="node"><title>Node24</title>
<g id="a_node24"><a xlink:href="../../dd/d42/test__ip__util_8h_source.html" target="_top" xlink:title="tests/test_ip_util.h">
<polygon fill="none" stroke="black" points="807.5,-224.5 807.5,-243.5 904.5,-243.5 904.5,-224.5 807.5,-224.5"/>
<text text-anchor="middle" x="856" y="-231.5" font-family="Helvetica,sans-Serif" font-size="10.00">tests/test_ip_util.h</text>
</a>
</g>
</g>
<!-- Node20&#45;&gt;Node24 -->
<g id="edge31" class="edge"><title>Node20&#45;&gt;Node24</title>
<path fill="none" stroke="midnightblue" d="M722.819,-277.304C754.852,-267.129 800.515,-252.625 829.189,-243.516"/>
<polygon fill="midnightblue" stroke="midnightblue" points="721.408,-274.08 712.937,-280.444 723.527,-280.752 721.408,-274.08"/>
</g>
<!-- Node21&#45;&gt;Node9 -->
<g id="edge27" class="edge"><title>Node21&#45;&gt;Node9</title>
<path fill="none" stroke="midnightblue" d="M581,-213.805C581,-204.91 581,-194.78 581,-187.751"/>
<polygon fill="midnightblue" stroke="midnightblue" points="577.5,-214.083 581,-224.083 584.5,-214.083 577.5,-214.083"/>
</g>
<!-- Node22 -->
<g id="node22" class="node"><title>Node22</title>
<g id="a_node22"><a xlink:href="../../d4/de6/udp__util_8c.html" target="_top" xlink:title="Utilitaires IP (implémentation)">
<polygon fill="none" stroke="black" points="643.5,-168.5 643.5,-187.5 718.5,-187.5 718.5,-168.5 643.5,-168.5"/>
<text text-anchor="middle" x="681" y="-175.5" font-family="Helvetica,sans-Serif" font-size="10.00">src/udp_util.c</text>
</a>
</g>
</g>
<!-- Node21&#45;&gt;Node22 -->
<g id="edge28" class="edge"><title>Node21&#45;&gt;Node22</title>
<path fill="none" stroke="midnightblue" d="M606.088,-219.453C624.549,-209.483 649.097,-196.228 664.973,-187.655"/>
<polygon fill="midnightblue" stroke="midnightblue" points="604.203,-216.493 597.067,-224.324 607.529,-222.652 604.203,-216.493"/>
</g>
<!-- Node25 -->
<g id="node25" class="node"><title>Node25</title>
<g id="a_node25"><a xlink:href="../../d1/d9c/test__ip__util_8c_source.html" target="_top" xlink:title="tests/test_ip_util.c">
<polygon fill="none" stroke="black" points="775.5,-168.5 775.5,-187.5 872.5,-187.5 872.5,-168.5 775.5,-168.5"/>
<text text-anchor="middle" x="824" y="-175.5" font-family="Helvetica,sans-Serif" font-size="10.00">tests/test_ip_util.c</text>
</a>
</g>
</g>
<!-- Node24&#45;&gt;Node25 -->
<g id="edge32" class="edge"><title>Node24&#45;&gt;Node25</title>
<path fill="none" stroke="midnightblue" d="M845.496,-215.275C840.027,-206.045 833.582,-195.17 829.186,-187.751"/>
<polygon fill="midnightblue" stroke="midnightblue" points="842.607,-217.264 850.716,-224.083 848.629,-213.696 842.607,-217.264"/>
</g>
<!-- Node24&#45;&gt;Node16 -->
<g id="edge33" class="edge"><title>Node24&#45;&gt;Node16</title>
<path fill="none" stroke="midnightblue" d="M868.166,-215.814C873.157,-207.764 878.373,-197.803 881,-188 891.93,-147.209 886.93,-95.8799 884.276,-75.707"/>
<polygon fill="midnightblue" stroke="midnightblue" points="865.176,-213.99 862.579,-224.262 871.015,-217.852 865.176,-213.99"/>
</g>
</g>
</svg>
