<?xml version="1.0" encoding="UTF-8" standalone="no"?>
<!DOCTYPE svg PUBLIC "-//W3C//DTD SVG 1.1//EN"
 "http://www.w3.org/Graphics/SVG/1.1/DTD/svg11.dtd">
<!-- Generated by graphviz version 2.30.1 (20130712.1527)
 -->
<!-- Title: include/checksum.h Pages: 1 -->
<!--zoomable 364 -->
<svg id="main" version="1.1" xmlns="http://www.w3.org/2000/svg" xmlns:xlink="http://www.w3.org/1999/xlink" xml:space="preserve" onload="init(evt)">
        <defs>
                <circle id="rim" cx="0" cy="0" r="7"/>
                <circle id="rim2" cx="0" cy="0" r="3.5"/>
                <g id="zoomPlus">
                        <use xlink:href="#rim" fill="#404040">
                                <set attributeName="fill" to="#808080" begin="zoomplus.mouseover" end="zoomplus.mouseout"/>
                        </use>
                        <path d="M-4,0h8M0,-4v8" fill="none" stroke="white" stroke-width="1.5" pointer-events="none"/>
                </g>
                <g id="zoomMin">
                        <use xlink:href="#rim" fill="#404040">
                                <set attributeName="fill" to="#808080" begin="zoomminus.mouseover" end="zoomminus.mouseout"/>
                        </use>
                        <path d="M-4,0h8" fill="none" stroke="white" stroke-width="1.5" pointer-events="none"/>
                </g>
                <g id="dirArrow">
                        <path fill="none" stroke="white" stroke-width="1.5" d="M0,-3.0v7 M-2.5,-0.5L0,-3.0L2.5,-0.5"/>
                </g>
               <g id="resetDef">
                       <use xlink:href="#rim2" fill="#404040">
                               <set attributeName="fill" to="#808080" begin="reset.mouseover" end="reset.mouseout"/>
                       </use>
               </g>
        </defs>

<script type="text/javascript">
var viewWidth = 919;
var viewHeight = 364;
var sectionId = 'dynsection-1';
</script>
<script xlink:href="../../svgpan.js"/>
<svg id="graph" class="graph">
<g id="viewport">
<title>include/checksum.h</title>
<!-- Node1 -->
<g id="node1" class="node"><title>Node1</title>
<polygon fill="#bfbfbf" stroke="black" points="577,-336.5 577,-355.5 681,-355.5 681,-336.5 577,-336.5"/>
<text text-anchor="middle" x="629" y="-343.5" font-family="Helvetica,sans-Serif" font-size="10.00">include/checksum.h</text>
</g>
<!-- Node2 -->
<g id="node2" class="node"><title>Node2</title>
<g id="a_node2"><a xlink:href="../../d7/d13/icmp__util_8h.html" target="_top" xlink:title="Utilitaires ICMP (header)">
<polygon fill="none" stroke="black" points="227,-224.5 227,-243.5 325,-243.5 325,-224.5 227,-224.5"/>
<text text-anchor="middle" x="276" y="-231.5" font-family="Helvetica,sans-Serif" font-size="10.00">include/icmp_util.h</text>
</a>
</g>
</g>
<!-- Node1&#45;&gt;Node2 -->
<g id="edge1" class="edge"><title>Node1&#45;&gt;Node2</title>
<path fill="none" stroke="midnightblue" d="M590.422,-333.524C560.311,-324.524 517.447,-311.62 480,-300 416.098,-280.171 341.204,-256.092 302.367,-243.542"/>
<polygon fill="midnightblue" stroke="midnightblue" points="589.535,-336.911 600.118,-336.418 591.537,-330.204 589.535,-336.911"/>
</g>
<!-- Node20 -->
<g id="node20" class="node"><title>Node20</title>
<g id="a_node20"><a xlink:href="../../d4/dbd/ip__util_8h.html" target="_top" xlink:title="Utilitaires IP (header)">
<polygon fill="none" stroke="black" points="489,-280.5 489,-299.5 573,-299.5 573,-280.5 489,-280.5"/>
<text text-anchor="middle" x="531" y="-287.5" font-family="Helvetica,sans-Serif" font-size="10.00">include/ip_util.h</text>
</a>
</g>
</g>
<!-- Node1&#45;&gt;Node20 -->
<g id="edge22" class="edge"><title>Node1&#45;&gt;Node20</title>
<path fill="none" stroke="midnightblue" d="M604.414,-331.453C586.322,-321.483 562.265,-308.228 546.706,-299.655"/>
<polygon fill="midnightblue" stroke="midnightblue" points="602.807,-334.563 613.255,-336.324 606.185,-328.432 602.807,-334.563"/>
</g>
<!-- Node26 -->
<g id="node26" class="node"><title>Node26</title>
<g id="a_node26"><a xlink:href="../../d1/d7f/checksum_8c.html" target="_top" xlink:title="Internet Checksum. (implémentation)">
<polygon fill="none" stroke="black" points="803,-280.5 803,-299.5 889,-299.5 889,-280.5 803,-280.5"/>
<text text-anchor="middle" x="846" y="-287.5" font-family="Helvetica,sans-Serif" font-size="10.00">src/checksum.c</text>
</a>
</g>
</g>
<!-- Node1&#45;&gt;Node26 -->
<g id="edge32" class="edge"><title>Node1&#45;&gt;Node26</title>
<path fill="none" stroke="midnightblue" d="M673.108,-334.024C714.1,-323.823 774.304,-308.841 811.777,-299.516"/>
<polygon fill="midnightblue" stroke="midnightblue" points="672.243,-330.632 663.384,-336.444 673.934,-337.425 672.243,-330.632"/>
</g>
<!-- Node27 -->
<g id="node27" class="node"><title>Node27</title>
<g id="a_node27"><a xlink:href="../../df/d22/test__checksum_8h_source.html" target="_top" xlink:title="tests/test_checksum.h">
<polygon fill="none" stroke="black" points="669,-280.5 669,-299.5 785,-299.5 785,-280.5 669,-280.5"/>
<text text-anchor="middle" x="727" y="-287.5" font-family="Helvetica,sans-Serif" font-size="10.00">tests/test_checksum.h</text>
</a>
</g>
</g>
<!-- Node1&#45;&gt;Node27 -->
<g id="edge33" class="edge"><title>Node1&#45;&gt;Node27</title>
<path fill="none" stroke="midnightblue" d="M653.586,-331.453C671.678,-321.483 695.735,-308.228 711.294,-299.655"/>
<polygon fill="midnightblue" stroke="midnightblue" points="651.815,-328.432 644.745,-336.324 655.193,-334.563 651.815,-328.432"/>
</g>
<!-- Node3 -->
<g id="node3" class="node"><title>Node3</title>
<g id="a_node3"><a xlink:href="../../d3/d76/packet_8h.html" target="_top" xlink:title="Utilitaires pour créer des paquets (header)">
<polygon fill="none" stroke="black" points="387,-168.5 387,-187.5 475,-187.5 475,-168.5 387,-168.5"/>
<text text-anchor="middle" x="431" y="-175.5" font-family="Helvetica,sans-Serif" font-size="10.00">include/packet.h</text>
</a>
</g>
</g>
<!-- Node2&#45;&gt;Node3 -->
<g id="edge2" class="edge"><title>Node2&#45;&gt;Node3</title>
<path fill="none" stroke="midnightblue" d="M310.332,-221.039C339.497,-210.879 380.637,-196.546 406.555,-187.516"/>
<polygon fill="midnightblue" stroke="midnightblue" points="308.852,-217.848 300.56,-224.444 311.155,-224.459 308.852,-217.848"/>
</g>
<!-- Node10 -->
<g id="node10" class="node"><title>Node10</title>
<g id="a_node10"><a xlink:href="../../d6/dc8/ping__icmp_8h.html" target="_top" xlink:title="Implémentation de la fonction Ping. (header)">
<polygon fill="none" stroke="black" points="138.5,-112.5 138.5,-131.5 241.5,-131.5 241.5,-112.5 138.5,-112.5"/>
<text text-anchor="middle" x="190" y="-119.5" font-family="Helvetica,sans-Serif" font-size="10.00">include/ping_icmp.h</text>
</a>
</g>
</g>
<!-- Node2&#45;&gt;Node10 -->
<g id="edge17" class="edge"><title>Node2&#45;&gt;Node10</title>
<path fill="none" stroke="midnightblue" d="M216.721,-224.179C175.831,-216.743 126.647,-204.638 114,-188 95.8243,-164.087 136.922,-142.81 165.482,-131.526"/>
<polygon fill="midnightblue" stroke="midnightblue" points="216.186,-227.639 226.641,-225.924 217.398,-220.745 216.186,-227.639"/>
</g>
<!-- Node17 -->
<g id="node17" class="node"><title>Node17</title>
<g id="a_node17"><a xlink:href="../../d4/df1/icmp__util_8c.html" target="_top" xlink:title="Utilitaires ICMP (implémentation)">
<polygon fill="none" stroke="black" points="123,-168.5 123,-187.5 203,-187.5 203,-168.5 123,-168.5"/>
<text text-anchor="middle" x="163" y="-175.5" font-family="Helvetica,sans-Serif" font-size="10.00">src/icmp_util.c</text>
</a>
</g>
</g>
<!-- Node2&#45;&gt;Node17 -->
<g id="edge18" class="edge"><title>Node2&#45;&gt;Node17</title>
<path fill="none" stroke="midnightblue" d="M248.997,-220.096C227.886,-210.007 199.138,-196.27 180.821,-187.516"/>
<polygon fill="midnightblue" stroke="midnightblue" points="247.563,-223.29 258.095,-224.444 250.581,-216.974 247.563,-223.29"/>
</g>
<!-- Node18 -->
<g id="node18" class="node"><title>Node18</title>
<g id="a_node18"><a xlink:href="../../d3/d79/test__icmp__util_8h_source.html" target="_top" xlink:title="tests/test_icmp_util.h">
<polygon fill="none" stroke="black" points="221,-168.5 221,-187.5 331,-187.5 331,-168.5 221,-168.5"/>
<text text-anchor="middle" x="276" y="-175.5" font-family="Helvetica,sans-Serif" font-size="10.00">tests/test_icmp_util.h</text>
</a>
</g>
</g>
<!-- Node2&#45;&gt;Node18 -->
<g id="edge19" class="edge"><title>Node2&#45;&gt;Node18</title>
<path fill="none" stroke="midnightblue" d="M276,-213.805C276,-204.91 276,-194.78 276,-187.751"/>
<polygon fill="midnightblue" stroke="midnightblue" points="272.5,-214.083 276,-224.083 279.5,-214.083 272.5,-214.083"/>
</g>
<!-- Node4 -->
<g id="node4" class="node"><title>Node4</title>
<g id="a_node4"><a xlink:href="../../de/d71/traceroute_8h.html" target="_top" xlink:title="Traceroute (header)">
<polygon fill="none" stroke="black" points="301,-112.5 301,-131.5 403,-131.5 403,-112.5 301,-112.5"/>
<text text-anchor="middle" x="352" y="-119.5" font-family="Helvetica,sans-Serif" font-size="10.00">include/traceroute.h</text>
</a>
</g>
</g>
<!-- Node3&#45;&gt;Node4 -->
<g id="edge3" class="edge"><title>Node3&#45;&gt;Node4</title>
<path fill="none" stroke="midnightblue" d="M409.966,-162.622C395.534,-152.757 376.859,-139.992 364.661,-131.655"/>
<polygon fill="midnightblue" stroke="midnightblue" points="408.077,-165.57 418.307,-168.324 412.027,-159.791 408.077,-165.57"/>
</g>
<!-- Node3&#45;&gt;Node10 -->
<g id="edge9" class="edge"><title>Node3&#45;&gt;Node10</title>
<path fill="none" stroke="midnightblue" d="M382.877,-166.217C337.338,-156.013 269.89,-140.901 228.009,-131.516"/>
<polygon fill="midnightblue" stroke="midnightblue" points="382.29,-169.672 392.813,-168.444 383.82,-162.842 382.29,-169.672"/>
</g>
<!-- Node13 -->
<g id="node13" class="node"><title>Node13</title>
<g id="a_node13"><a xlink:href="../../de/df3/packet_8c.html" target="_top" xlink:title="Utilitaires pour créer des paquets (implémentation)">
<polygon fill="none" stroke="black" points="616.5,-112.5 616.5,-131.5 687.5,-131.5 687.5,-112.5 616.5,-112.5"/>
<text text-anchor="middle" x="652" y="-119.5" font-family="Helvetica,sans-Serif" font-size="10.00">src/packet.c</text>
</a>
</g>
</g>
<!-- Node3&#45;&gt;Node13 -->
<g id="edge12" class="edge"><title>Node3&#45;&gt;Node13</title>
<path fill="none" stroke="midnightblue" d="M475.921,-166.024C517.668,-155.823 578.982,-140.841 617.146,-131.516"/>
<polygon fill="midnightblue" stroke="midnightblue" points="474.902,-162.67 466.018,-168.444 476.563,-169.47 474.902,-162.67"/>
</g>
<!-- Node14 -->
<g id="node14" class="node"><title>Node14</title>
<g id="a_node14"><a xlink:href="../../da/d3e/test__packet_8h_source.html" target="_top" xlink:title="tests/test_packet.h">
<polygon fill="none" stroke="black" points="497.5,-112.5 497.5,-131.5 598.5,-131.5 598.5,-112.5 497.5,-112.5"/>
<text text-anchor="middle" x="548" y="-119.5" font-family="Helvetica,sans-Serif" font-size="10.00">tests/test_packet.h</text>
</a>
</g>
</g>
<!-- Node3&#45;&gt;Node14 -->
<g id="edge13" class="edge"><title>Node3&#45;&gt;Node14</title>
<path fill="none" stroke="midnightblue" d="M458.664,-164.232C480.549,-154.131 510.497,-140.309 529.548,-131.516"/>
<polygon fill="midnightblue" stroke="midnightblue" points="457.152,-161.075 449.539,-168.444 460.085,-167.431 457.152,-161.075"/>
</g>
<!-- Node9 -->
<g id="node9" class="node"><title>Node9</title>
<g id="a_node9"><a xlink:href="../../de/d12/test__traceroute_8c_source.html" target="_top" xlink:title="tests/test_traceroute.c">
<polygon fill="none" stroke="black" points="412.5,-56.5 412.5,-75.5 527.5,-75.5 527.5,-56.5 412.5,-56.5"/>
<text text-anchor="middle" x="470" y="-63.5" font-family="Helvetica,sans-Serif" font-size="10.00">tests/test_traceroute.c</text>
</a>
</g>
</g>
<!-- Node3&#45;&gt;Node9 -->
<g id="edge16" class="edge"><title>Node3&#45;&gt;Node9</title>
<path fill="none" stroke="midnightblue" d="M437.497,-158.674C446.024,-134.625 460.644,-93.3881 466.954,-75.5914"/>
<polygon fill="midnightblue" stroke="midnightblue" points="434.103,-157.774 434.06,-168.368 440.701,-160.113 434.103,-157.774"/>
</g>
<!-- Node5 -->
<g id="node5" class="node"><title>Node5</title>
<g id="a_node5"><a xlink:href="../../d9/d8d/anna_8h.html" target="_top" xlink:title="Anna. (implémentation)">
<polygon fill="none" stroke="black" points="211,-56.5 211,-75.5 291,-75.5 291,-56.5 211,-56.5"/>
<text text-anchor="middle" x="251" y="-63.5" font-family="Helvetica,sans-Serif" font-size="10.00">include/anna.h</text>
</a>
</g>
</g>
<!-- Node4&#45;&gt;Node5 -->
<g id="edge4" class="edge"><title>Node4&#45;&gt;Node5</title>
<path fill="none" stroke="midnightblue" d="M326.917,-107.59C308.243,-97.6052 283.296,-84.2672 267.187,-75.6545"/>
<polygon fill="midnightblue" stroke="midnightblue" points="325.304,-110.696 335.773,-112.324 328.604,-104.522 325.304,-110.696"/>
</g>
<!-- Node8 -->
<g id="node8" class="node"><title>Node8</title>
<g id="a_node8"><a xlink:href="../../d1/d4c/traceroute_8c.html" target="_top" xlink:title="Traceroute (implémentation)">
<polygon fill="none" stroke="black" points="309.5,-56.5 309.5,-75.5 394.5,-75.5 394.5,-56.5 309.5,-56.5"/>
<text text-anchor="middle" x="352" y="-63.5" font-family="Helvetica,sans-Serif" font-size="10.00">src/traceroute.c</text>
</a>
</g>
</g>
<!-- Node4&#45;&gt;Node8 -->
<g id="edge7" class="edge"><title>Node4&#45;&gt;Node8</title>
<path fill="none" stroke="midnightblue" d="M352,-101.805C352,-92.9102 352,-82.7798 352,-75.7511"/>
<polygon fill="midnightblue" stroke="midnightblue" points="348.5,-102.083 352,-112.083 355.5,-102.083 348.5,-102.083"/>
</g>
<!-- Node4&#45;&gt;Node9 -->
<g id="edge8" class="edge"><title>Node4&#45;&gt;Node9</title>
<path fill="none" stroke="midnightblue" d="M379.9,-108.232C401.973,-98.1312 432.176,-84.3091 451.39,-75.5164"/>
<polygon fill="midnightblue" stroke="midnightblue" points="378.334,-105.1 370.697,-112.444 381.247,-111.465 378.334,-105.1"/>
</g>
<!-- Node6 -->
<g id="node6" class="node"><title>Node6</title>
<g id="a_node6"><a xlink:href="../../d2/da0/anna_8c.html" target="_top" xlink:title="Anna. (implémentation)">
<polygon fill="none" stroke="black" points="180,-0.5 180,-19.5 242,-19.5 242,-0.5 180,-0.5"/>
<text text-anchor="middle" x="211" y="-7.5" font-family="Helvetica,sans-Serif" font-size="10.00">src/anna.c</text>
</a>
</g>
</g>
<!-- Node5&#45;&gt;Node6 -->
<g id="edge5" class="edge"><title>Node5&#45;&gt;Node6</title>
<path fill="none" stroke="midnightblue" d="M238.3,-47.8554C231.374,-38.5048 223.094,-27.3265 217.482,-19.7511"/>
<polygon fill="midnightblue" stroke="midnightblue" points="235.63,-50.1307 244.395,-56.083 241.255,-45.9641 235.63,-50.1307"/>
</g>
<!-- Node7 -->
<g id="node7" class="node"><title>Node7</title>
<g id="a_node7"><a xlink:href="../../d0/d29/main_8c.html" target="_top" xlink:title="Main. (implémentation)">
<polygon fill="none" stroke="black" points="260,-0.5 260,-19.5 322,-19.5 322,-0.5 260,-0.5"/>
<text text-anchor="middle" x="291" y="-7.5" font-family="Helvetica,sans-Serif" font-size="10.00">src/main.c</text>
</a>
</g>
</g>
<!-- Node5&#45;&gt;Node7 -->
<g id="edge6" class="edge"><title>Node5&#45;&gt;Node7</title>
<path fill="none" stroke="midnightblue" d="M263.7,-47.8554C270.626,-38.5048 278.906,-27.3265 284.518,-19.7511"/>
<polygon fill="midnightblue" stroke="midnightblue" points="260.745,-45.9641 257.605,-56.083 266.37,-50.1307 260.745,-45.9641"/>
</g>
<!-- Node11 -->
<g id="node11" class="node"><title>Node11</title>
<g id="a_node11"><a xlink:href="../../d5/d74/ping__icmp_8c.html" target="_top" xlink:title="Implémentation de la fonction Ping. (implémentation)">
<polygon fill="none" stroke="black" points="107,-56.5 107,-75.5 193,-75.5 193,-56.5 107,-56.5"/>
<text text-anchor="middle" x="150" y="-63.5" font-family="Helvetica,sans-Serif" font-size="10.00">src/ping_icmp.c</text>
</a>
</g>
</g>
<!-- Node10&#45;&gt;Node11 -->
<g id="edge10" class="edge"><title>Node10&#45;&gt;Node11</title>
<path fill="none" stroke="midnightblue" d="M177.3,-103.855C170.374,-94.5048 162.094,-83.3265 156.482,-75.7511"/>
<polygon fill="midnightblue" stroke="midnightblue" points="174.63,-106.131 183.395,-112.083 180.255,-101.964 174.63,-106.131"/>
</g>
<!-- Node12 -->
<g id="node12" class="node"><title>Node12</title>
<g id="a_node12"><a xlink:href="../../d5/da8/test__ping_8c_source.html" target="_top" xlink:title="tests/test_ping.c">
<polygon fill="none" stroke="black" points="-0.5,-56.5 -0.5,-75.5 88.5,-75.5 88.5,-56.5 -0.5,-56.5"/>
<text text-anchor="middle" x="44" y="-63.5" font-family="Helvetica,sans-Serif" font-size="10.00">tests/test_ping.c</text>
</a>
</g>
</g>
<!-- Node10&#45;&gt;Node12 -->
<g id="edge11" class="edge"><title>Node10&#45;&gt;Node12</title>
<path fill="none" stroke="midnightblue" d="M157.301,-108.906C129.852,-98.7536 91.3318,-84.5063 67.0259,-75.5164"/>
<polygon fill="midnightblue" stroke="midnightblue" points="156.273,-112.257 166.866,-112.444 158.701,-105.692 156.273,-112.257"/>
</g>
<!-- Node15 -->
<g id="node15" class="node"><title>Node15</title>
<g id="a_node15"><a xlink:href="../../d1/d26/test__packet_8c_source.html" target="_top" xlink:title="tests/test_packet.c">
<polygon fill="none" stroke="black" points="545.5,-56.5 545.5,-75.5 646.5,-75.5 646.5,-56.5 545.5,-56.5"/>
<text text-anchor="middle" x="596" y="-63.5" font-family="Helvetica,sans-Serif" font-size="10.00">tests/test_packet.c</text>
</a>
</g>
</g>
<!-- Node14&#45;&gt;Node15 -->
<g id="edge14" class="edge"><title>Node14&#45;&gt;Node15</title>
<path fill="none" stroke="midnightblue" d="M562.728,-104.431C571.14,-94.9673 581.349,-83.4827 588.221,-75.7511"/>
<polygon fill="midnightblue" stroke="midnightblue" points="559.954,-102.284 555.926,-112.083 565.186,-106.934 559.954,-102.284"/>
</g>
<!-- Node16 -->
<g id="node16" class="node"><title>Node16</title>
<g id="a_node16"><a xlink:href="../../d8/d2e/unit__tests_8c_source.html" target="_top" xlink:title="tests/unit_tests.c">
<polygon fill="none" stroke="black" points="667,-56.5 667,-75.5 759,-75.5 759,-56.5 667,-56.5"/>
<text text-anchor="middle" x="713" y="-63.5" font-family="Helvetica,sans-Serif" font-size="10.00">tests/unit_tests.c</text>
</a>
</g>
</g>
<!-- Node14&#45;&gt;Node16 -->
<g id="edge15" class="edge"><title>Node14&#45;&gt;Node16</title>
<path fill="none" stroke="midnightblue" d="M583.736,-109.304C614.827,-99.1294 659.147,-84.6246 686.978,-75.5164"/>
<polygon fill="midnightblue" stroke="midnightblue" points="582.56,-106.007 574.145,-112.444 584.737,-112.659 582.56,-106.007"/>
</g>
<!-- Node19 -->
<g id="node19" class="node"><title>Node19</title>
<g id="a_node19"><a xlink:href="../../dd/d77/test__icmp__util_8c_source.html" target="_top" xlink:title="tests/test_icmp_util.c">
<polygon fill="none" stroke="black" points="10,-112.5 10,-131.5 120,-131.5 120,-112.5 10,-112.5"/>
<text text-anchor="middle" x="65" y="-119.5" font-family="Helvetica,sans-Serif" font-size="10.00">tests/test_icmp_util.c</text>
</a>
</g>
</g>
<!-- Node18&#45;&gt;Node19 -->
<g id="edge20" class="edge"><title>Node18&#45;&gt;Node19</title>
<path fill="none" stroke="midnightblue" d="M232.858,-165.959C193.006,-155.76 134.637,-140.822 98.2772,-131.516"/>
<polygon fill="midnightblue" stroke="midnightblue" points="232.011,-169.355 242.566,-168.444 233.746,-162.573 232.011,-169.355"/>
</g>
<!-- Node18&#45;&gt;Node16 -->
<g id="edge21" class="edge"><title>Node18&#45;&gt;Node16</title>
<path fill="none" stroke="midnightblue" d="M310.57,-165.231C352.29,-151.302 424.727,-127.984 488,-112 549.217,-96.5349 620.881,-82.9699 666.588,-74.8804"/>
<polygon fill="midnightblue" stroke="midnightblue" points="309.267,-161.977 300.9,-168.476 311.494,-168.613 309.267,-161.977"/>
</g>
<!-- Node20&#45;&gt;Node3 -->
<g id="edge23" class="edge"><title>Node20&#45;&gt;Node3</title>
<path fill="none" stroke="midnightblue" d="M483.442,-277.028C466.064,-270.222 447.991,-259.786 437,-244 425.215,-227.073 427.154,-201.361 429.26,-187.911"/>
<polygon fill="midnightblue" stroke="midnightblue" points="482.381,-280.366 492.976,-280.447 484.744,-273.776 482.381,-280.366"/>
</g>
<!-- Node21 -->
<g id="node21" class="node"><title>Node21</title>
<g id="a_node21"><a xlink:href="../../da/d14/udp__util_8h.html" target="_top" xlink:title="Utilitaires IP (header)">
<polygon fill="none" stroke="black" points="446,-224.5 446,-243.5 538,-243.5 538,-224.5 446,-224.5"/>
<text text-anchor="middle" x="492" y="-231.5" font-family="Helvetica,sans-Serif" font-size="10.00">include/udp_util.h</text>
</a>
</g>
</g>
<!-- Node20&#45;&gt;Node21 -->
<g id="edge24" class="edge"><title>Node20&#45;&gt;Node21</title>
<path fill="none" stroke="midnightblue" d="M518.618,-271.855C511.865,-262.505 503.791,-251.327 498.32,-243.751"/>
<polygon fill="midnightblue" stroke="midnightblue" points="515.868,-274.025 524.56,-280.083 521.542,-269.927 515.868,-274.025"/>
</g>
<!-- Node20&#45;&gt;Node10 -->
<g id="edge27" class="edge"><title>Node20&#45;&gt;Node10</title>
<path fill="none" stroke="midnightblue" d="M495.316,-276.956C474.313,-269.089 447.7,-257.736 426,-244 382.9,-216.718 384.577,-192.794 340,-168 307.686,-150.027 267.372,-138.45 236.677,-131.546"/>
<polygon fill="midnightblue" stroke="midnightblue" points="494.237,-280.288 504.831,-280.427 496.636,-273.712 494.237,-280.288"/>
</g>
<!-- Node23 -->
<g id="node23" class="node"><title>Node23</title>
<g id="a_node23"><a xlink:href="../../da/d7b/ip__util_8c.html" target="_top" xlink:title="Utilitaires IP (implémentation)">
<polygon fill="none" stroke="black" points="671.5,-224.5 671.5,-243.5 738.5,-243.5 738.5,-224.5 671.5,-224.5"/>
<text text-anchor="middle" x="705" y="-231.5" font-family="Helvetica,sans-Serif" font-size="10.00">src/ip_util.c</text>
</a>
</g>
</g>
<!-- Node20&#45;&gt;Node23 -->
<g id="edge28" class="edge"><title>Node20&#45;&gt;Node23</title>
<path fill="none" stroke="midnightblue" d="M568.261,-277.436C601.067,-267.255 648.083,-252.664 677.558,-243.516"/>
<polygon fill="midnightblue" stroke="midnightblue" points="567.084,-274.137 558.571,-280.444 569.159,-280.822 567.084,-274.137"/>
</g>
<!-- Node24 -->
<g id="node24" class="node"><title>Node24</title>
<g id="a_node24"><a xlink:href="../../dd/d42/test__ip__util_8h_source.html" target="_top" xlink:title="tests/test_ip_util.h">
<polygon fill="none" stroke="black" points="556.5,-224.5 556.5,-243.5 653.5,-243.5 653.5,-224.5 556.5,-224.5"/>
<text text-anchor="middle" x="605" y="-231.5" font-family="Helvetica,sans-Serif" font-size="10.00">tests/test_ip_util.h</text>
</a>
</g>
</g>
<!-- Node20&#45;&gt;Node24 -->
<g id="edge29" class="edge"><title>Node20&#45;&gt;Node24</title>
<path fill="none" stroke="midnightblue" d="M551.034,-274.38C564.409,-264.62 581.559,-252.106 592.894,-243.834"/>
<polygon fill="midnightblue" stroke="midnightblue" points="548.904,-271.602 542.889,-280.324 553.03,-277.257 548.904,-271.602"/>
</g>
<!-- Node21&#45;&gt;Node3 -->
<g id="edge25" class="edge"><title>Node21&#45;&gt;Node3</title>
<path fill="none" stroke="midnightblue" d="M474.533,-217.537C463.656,-207.909 450.056,-195.869 440.979,-187.834"/>
<polygon fill="midnightblue" stroke="midnightblue" points="472.392,-220.316 482.199,-224.324 477.032,-215.075 472.392,-220.316"/>
</g>
<!-- Node22 -->
<g id="node22" class="node"><title>Node22</title>
<g id="a_node22"><a xlink:href="../../d4/de6/udp__util_8c.html" target="_top" xlink:title="Utilitaires IP (implémentation)">
<polygon fill="none" stroke="black" points="493.5,-168.5 493.5,-187.5 568.5,-187.5 568.5,-168.5 493.5,-168.5"/>
<text text-anchor="middle" x="531" y="-175.5" font-family="Helvetica,sans-Serif" font-size="10.00">src/udp_util.c</text>
</a>
</g>
</g>
<!-- Node21&#45;&gt;Node22 -->
<g id="edge26" class="edge"><title>Node21&#45;&gt;Node22</title>
<path fill="none" stroke="midnightblue" d="M504.382,-215.855C511.135,-206.505 519.209,-195.327 524.68,-187.751"/>
<polygon fill="midnightblue" stroke="midnightblue" points="501.458,-213.927 498.44,-224.083 507.132,-218.025 501.458,-213.927"/>
</g>
<!-- Node25 -->
<g id="node25" class="node"><title>Node25</title>
<g id="a_node25"><a xlink:href="../../d1/d9c/test__ip__util_8c_source.html" target="_top" xlink:title="tests/test_ip_util.c">
<polygon fill="none" stroke="black" points="586.5,-168.5 586.5,-187.5 683.5,-187.5 683.5,-168.5 586.5,-168.5"/>
<text text-anchor="middle" x="635" y="-175.5" font-family="Helvetica,sans-Serif" font-size="10.00">tests/test_ip_util.c</text>
</a>
</g>
</g>
<!-- Node24&#45;&gt;Node25 -->
<g id="edge30" class="edge"><title>Node24&#45;&gt;Node25</title>
<path fill="none" stroke="midnightblue" d="M614.847,-215.275C619.975,-206.045 626.016,-195.17 630.138,-187.751"/>
<polygon fill="midnightblue" stroke="midnightblue" points="611.751,-213.642 609.954,-224.083 617.87,-217.041 611.751,-213.642"/>
</g>
<!-- Node24&#45;&gt;Node16 -->
<g id="edge31" class="edge"><title>Node24&#45;&gt;Node16</title>
<path fill="none" stroke="midnightblue" d="M646.293,-220.729C662.943,-213.738 680.821,-203.247 692,-188 717.718,-152.923 715.783,-96.9138 713.936,-75.6073"/>
<polygon fill="midnightblue" stroke="midnightblue" points="644.751,-217.573 636.691,-224.45 647.28,-224.1 644.751,-217.573"/>
</g>
<!-- Node28 -->
<g id="node28" class="node"><title>Node28</title>
<g id="a_node28"><a xlink:href="../../d7/d2f/test__checksum_8c_source.html" target="_top" xlink:title="tests/test_checksum.c">
<polygon fill="none" stroke="black" points="795,-224.5 795,-243.5 911,-243.5 911,-224.5 795,-224.5"/>
<text text-anchor="middle" x="853" y="-231.5" font-family="Helvetica,sans-Serif" font-size="10.00">tests/test_checksum.c</text>
</a>
</g>
</g>
<!-- Node27&#45;&gt;Node28 -->
<g id="edge34" class="edge"><title>Node27&#45;&gt;Node28</title>
<path fill="none" stroke="midnightblue" d="M756.16,-276.503C779.781,-266.38 812.428,-252.388 833.128,-243.516"/>
<polygon fill="midnightblue" stroke="midnightblue" points="754.778,-273.287 746.965,-280.444 757.535,-279.721 754.778,-273.287"/>
</g>
<!-- Node27&#45;&gt;Node16 -->
<g id="edge35" class="edge"><title>Node27&#45;&gt;Node16</title>
<path fill="none" stroke="midnightblue" d="M736.925,-271.302C740.899,-263.238 745.003,-253.409 747,-244 760.641,-179.72 729.023,-101.794 717.22,-75.8646"/>
<polygon fill="midnightblue" stroke="midnightblue" points="733.693,-269.928 732.13,-280.407 739.887,-273.19 733.693,-269.928"/>
</g>
</g>
</svg>
        <g id="navigator" transform="translate(0 0)" fill="#404254">
                <rect fill="#f2f5e9" fill-opacity="0.5" stroke="#606060" stroke-width=".5" x="0" y="0" width="60" height="60"/>
                <use id="zoomplus" xlink:href="#zoomPlus" x="17" y="9" onmousedown="handleZoom(evt,'in')"/>
                <use id="zoomminus" xlink:href="#zoomMin" x="42" y="9" onmousedown="handleZoom(evt,'out')"/>
                <use id="reset" xlink:href="#resetDef" x="30" y="36" onmousedown="handleReset()"/>
                <g id="arrowUp" xlink:href="#dirArrow" transform="translate(30 24)" onmousedown="handlePan(0,-1)">
                  <use xlink:href="#rim" fill="#404040">
                        <set attributeName="fill" to="#808080" begin="arrowUp.mouseover" end="arrowUp.mouseout"/>
                  </use>
                  <path fill="none" stroke="white" stroke-width="1.5" d="M0,-3.0v7 M-2.5,-0.5L0,-3.0L2.5,-0.5"/>
                </g>
                <g id="arrowRight" xlink:href="#dirArrow" transform="rotate(90) translate(36 -43)" onmousedown="handlePan(1,0)">
                  <use xlink:href="#rim" fill="#404040">
                        <set attributeName="fill" to="#808080" begin="arrowRight.mouseover" end="arrowRight.mouseout"/>
                  </use>
                  <path fill="none" stroke="white" stroke-width="1.5" d="M0,-3.0v7 M-2.5,-0.5L0,-3.0L2.5,-0.5"/>
                </g>
                <g id="arrowDown" xlink:href="#dirArrow" transform="rotate(180) translate(-30 -48)" onmousedown="handlePan(0,1)">
                  <use xlink:href="#rim" fill="#404040">
                        <set attributeName="fill" to="#808080" begin="arrowDown.mouseover" end="arrowDown.mouseout"/>
                  </use>
                  <path fill="none" stroke="white" stroke-width="1.5" d="M0,-3.0v7 M-2.5,-0.5L0,-3.0L2.5,-0.5"/>
                </g>
                <g id="arrowLeft" xlink:href="#dirArrow" transform="rotate(270) translate(-36 17)" onmousedown="handlePan(-1,0)">
                  <use xlink:href="#rim" fill="#404040">
                        <set attributeName="fill" to="#808080" begin="arrowLeft.mouseover" end="arrowLeft.mouseout"/>
                  </use>
                  <path fill="none" stroke="white" stroke-width="1.5" d="M0,-3.0v7 M-2.5,-0.5L0,-3.0L2.5,-0.5"/>
                </g>
        </g>
        <svg viewBox="0 0 15 15" width="100%" height="30px" preserveAspectRatio="xMaxYMin meet">
         <g id="arrow_out" transform="scale(0.3 0.3)">
          <a xlink:href="checksum_8h__dep__incl_org.svg" target="_base">
           <rect id="button" ry="5" rx="5" y="6" x="6" height="38" width="38"
                fill="#f2f5e9" fill-opacity="0.5" stroke="#606060" stroke-width="1.0"/>
           <path id="arrow"
             d="M 11.500037,31.436501 C 11.940474,20.09759 22.043105,11.32322 32.158766,21.979434 L 37.068811,17.246167 C 37.068811,17.246167 37.088388,32 37.088388,32 L 22.160133,31.978069 C 22.160133,31.978069 26.997745,27.140456 26.997745,27.140456 C 18.528582,18.264221 13.291696,25.230495 11.500037,31.436501 z"
             style="fill:#404040;"/>
          </a>
         </g>
        </svg>
</svg>
