<?xml version="1.0" encoding="UTF-8" standalone="no"?>
<!DOCTYPE svg PUBLIC "-//W3C//DTD SVG 1.1//EN"
 "http://www.w3.org/Graphics/SVG/1.1/DTD/svg11.dtd">
<!-- Generated by graphviz version 2.30.1 (20130712.1527)
 -->
<!-- Title: src/traceroute.c Pages: 1 -->
<svg width="1202pt" height="420pt"
 viewBox="0.00 0.00 1202.00 420.00" xmlns="http://www.w3.org/2000/svg" xmlns:xlink="http://www.w3.org/1999/xlink">
<g id="graph0" class="graph" transform="scale(1 1) rotate(0) translate(4 416)">
<title>src/traceroute.c</title>
<!-- Node1 -->
<g id="node1" class="node"><title>Node1</title>
<polygon fill="#bfbfbf" stroke="black" points="547.5,-392.5 547.5,-411.5 632.5,-411.5 632.5,-392.5 547.5,-392.5"/>
<text text-anchor="middle" x="590" y="-399.5" font-family="Helvetica,sans-Serif" font-size="10.00">src/traceroute.c</text>
</g>
<!-- Node2 -->
<g id="node2" class="node"><title>Node2</title>
<g id="a_node2"><a xlink:href="../../de/d71/traceroute_8h.html" target="_top" xlink:title="Traceroute (header)">
<polygon fill="none" stroke="black" points="556,-336.5 556,-355.5 624,-355.5 624,-336.5 556,-336.5"/>
<text text-anchor="middle" x="590" y="-343.5" font-family="Helvetica,sans-Serif" font-size="10.00">traceroute.h</text>
</a>
</g>
</g>
<!-- Node1&#45;&gt;Node2 -->
<g id="edge1" class="edge"><title>Node1&#45;&gt;Node2</title>
<path fill="none" stroke="midnightblue" d="M590,-392.083C590,-385.006 590,-374.861 590,-365.986"/>
<polygon fill="midnightblue" stroke="midnightblue" points="593.5,-365.751 590,-355.751 586.5,-365.751 593.5,-365.751"/>
</g>
<!-- Node3 -->
<g id="node3" class="node"><title>Node3</title>
<polygon fill="none" stroke="#bfbfbf" points="66,-224.5 66,-243.5 128,-243.5 128,-224.5 66,-224.5"/>
<text text-anchor="middle" x="97" y="-231.5" font-family="Helvetica,sans-Serif" font-size="10.00">sys/time.h</text>
</g>
<!-- Node2&#45;&gt;Node3 -->
<g id="edge2" class="edge"><title>Node2&#45;&gt;Node3</title>
<path fill="none" stroke="midnightblue" d="M555.725,-337.352C467.553,-317.679 233.144,-265.377 137.996,-244.147"/>
<polygon fill="midnightblue" stroke="midnightblue" points="138.686,-240.715 128.164,-241.953 137.162,-247.547 138.686,-240.715"/>
</g>
<!-- Node4 -->
<g id="node4" class="node"><title>Node4</title>
<g id="a_node4"><a xlink:href="../../d3/d5a/base_8h.html" target="_top" xlink:title="Fonctions et inclusions de base. (header)">
<polygon fill="none" stroke="black" points="1043,-56.5 1043,-75.5 1089,-75.5 1089,-56.5 1043,-56.5"/>
<text text-anchor="middle" x="1066" y="-63.5" font-family="Helvetica,sans-Serif" font-size="10.00">base.h</text>
</a>
</g>
</g>
<!-- Node2&#45;&gt;Node4 -->
<g id="edge3" class="edge"><title>Node2&#45;&gt;Node4</title>
<path fill="none" stroke="midnightblue" d="M624.092,-344.736C736.153,-342.959 1086,-329.819 1086,-235 1086,-235 1086,-235 1086,-177 1086,-144.438 1077.41,-107.315 1071.49,-85.5922"/>
<polygon fill="midnightblue" stroke="midnightblue" points="1074.79,-84.4076 1068.7,-75.7419 1068.06,-86.3175 1074.79,-84.4076"/>
</g>
<!-- Node12 -->
<g id="node12" class="node"><title>Node12</title>
<g id="a_node12"><a xlink:href="../../d9/d9b/address_8h.html" target="_top" xlink:title="Utilitaires pour obtenir des addresses. (header)">
<polygon fill="none" stroke="black" points="757.5,-112.5 757.5,-131.5 816.5,-131.5 816.5,-112.5 757.5,-112.5"/>
<text text-anchor="middle" x="787" y="-119.5" font-family="Helvetica,sans-Serif" font-size="10.00">address.h</text>
</a>
</g>
</g>
<!-- Node2&#45;&gt;Node12 -->
<g id="edge11" class="edge"><title>Node2&#45;&gt;Node12</title>
<path fill="none" stroke="midnightblue" d="M624.132,-342.325C699.384,-334.358 878.681,-303.535 952,-188 982.207,-140.401 884.792,-127.639 826.865,-124.231"/>
<polygon fill="midnightblue" stroke="midnightblue" points="826.715,-120.719 816.548,-123.697 826.354,-127.71 826.715,-120.719"/>
</g>
<!-- Node20 -->
<g id="node20" class="node"><title>Node20</title>
<g id="a_node20"><a xlink:href="../../d3/d76/packet_8h.html" target="_top" xlink:title="Utilitaires pour créer des paquets (header)">
<polygon fill="none" stroke="black" points="563,-280.5 563,-299.5 617,-299.5 617,-280.5 563,-280.5"/>
<text text-anchor="middle" x="590" y="-287.5" font-family="Helvetica,sans-Serif" font-size="10.00">packet.h</text>
</a>
</g>
</g>
<!-- Node2&#45;&gt;Node20 -->
<g id="edge20" class="edge"><title>Node2&#45;&gt;Node20</title>
<path fill="none" stroke="midnightblue" d="M590,-336.083C590,-329.006 590,-318.861 590,-309.986"/>
<polygon fill="midnightblue" stroke="midnightblue" points="593.5,-309.751 590,-299.751 586.5,-309.751 593.5,-309.751"/>
</g>
<!-- Node30 -->
<g id="node30" class="node"><title>Node30</title>
<g id="a_node30"><a xlink:href="../../d0/d91/time__util_8h.html" target="_top" xlink:title="Utilitaires temps (header)">
<polygon fill="none" stroke="black" points="37,-280.5 37,-299.5 99,-299.5 99,-280.5 37,-280.5"/>
<text text-anchor="middle" x="68" y="-287.5" font-family="Helvetica,sans-Serif" font-size="10.00">time_util.h</text>
</a>
</g>
</g>
<!-- Node2&#45;&gt;Node30 -->
<g id="edge54" class="edge"><title>Node2&#45;&gt;Node30</title>
<path fill="none" stroke="midnightblue" d="M555.75,-341.457C463.304,-331.894 208.958,-305.582 109.054,-295.247"/>
<polygon fill="midnightblue" stroke="midnightblue" points="109.349,-291.759 99.0419,-294.211 108.629,-298.722 109.349,-291.759"/>
</g>
<!-- Node5 -->
<g id="node5" class="node"><title>Node5</title>
<polygon fill="none" stroke="#bfbfbf" points="430,-0.5 430,-19.5 478,-19.5 478,-0.5 430,-0.5"/>
<text text-anchor="middle" x="454" y="-7.5" font-family="Helvetica,sans-Serif" font-size="10.00">stdlib.h</text>
</g>
<!-- Node4&#45;&gt;Node5 -->
<g id="edge4" class="edge"><title>Node4&#45;&gt;Node5</title>
<path fill="none" stroke="midnightblue" d="M1042.69,-58.057C1039.45,-57.2661 1036.16,-56.5486 1033,-56 828.482,-20.4913 578.438,-12.9916 488.371,-11.416"/>
<polygon fill="midnightblue" stroke="midnightblue" points="488.249,-7.91369 478.194,-11.2518 488.136,-14.9128 488.249,-7.91369"/>
</g>
<!-- Node6 -->
<g id="node6" class="node"><title>Node6</title>
<polygon fill="none" stroke="#bfbfbf" points="300,-0.5 300,-19.5 346,-19.5 346,-0.5 300,-0.5"/>
<text text-anchor="middle" x="323" y="-7.5" font-family="Helvetica,sans-Serif" font-size="10.00">stdio.h</text>
</g>
<!-- Node4&#45;&gt;Node6 -->
<g id="edge5" class="edge"><title>Node4&#45;&gt;Node6</title>
<path fill="none" stroke="midnightblue" d="M1042.7,-57.9846C1039.46,-57.205 1036.17,-56.5098 1033,-56 738.425,-8.56756 654.605,-67.7908 356.525,-19.8659"/>
<polygon fill="midnightblue" stroke="midnightblue" points="356.718,-16.3511 346.284,-18.1911 355.588,-23.2594 356.718,-16.3511"/>
</g>
<!-- Node7 -->
<g id="node7" class="node"><title>Node7</title>
<polygon fill="none" stroke="#bfbfbf" points="924,-0.5 924,-19.5 980,-19.5 980,-0.5 924,-0.5"/>
<text text-anchor="middle" x="952" y="-7.5" font-family="Helvetica,sans-Serif" font-size="10.00">stdbool.h</text>
</g>
<!-- Node4&#45;&gt;Node7 -->
<g id="edge6" class="edge"><title>Node4&#45;&gt;Node7</title>
<path fill="none" stroke="midnightblue" d="M1047.94,-56.4435C1029.43,-47.6751 1000.42,-33.9355 979.145,-23.8579"/>
<polygon fill="midnightblue" stroke="midnightblue" points="980.515,-20.6343 969.979,-19.5164 977.518,-26.9604 980.515,-20.6343"/>
</g>
<!-- Node8 -->
<g id="node8" class="node"><title>Node8</title>
<polygon fill="none" stroke="#bfbfbf" points="998,-0.5 998,-19.5 1060,-19.5 1060,-0.5 998,-0.5"/>
<text text-anchor="middle" x="1029" y="-7.5" font-family="Helvetica,sans-Serif" font-size="10.00">sysexits.h</text>
</g>
<!-- Node4&#45;&gt;Node8 -->
<g id="edge7" class="edge"><title>Node4&#45;&gt;Node8</title>
<path fill="none" stroke="midnightblue" d="M1059.89,-56.083C1054.72,-48.5341 1047.15,-37.4948 1040.81,-28.2298"/>
<polygon fill="midnightblue" stroke="midnightblue" points="1043.54,-26.0221 1035,-19.7511 1037.76,-29.9787 1043.54,-26.0221"/>
</g>
<!-- Node9 -->
<g id="node9" class="node"><title>Node9</title>
<polygon fill="none" stroke="#bfbfbf" points="364.5,-0.5 364.5,-19.5 411.5,-19.5 411.5,-0.5 364.5,-0.5"/>
<text text-anchor="middle" x="388" y="-7.5" font-family="Helvetica,sans-Serif" font-size="10.00">errno.h</text>
</g>
<!-- Node4&#45;&gt;Node9 -->
<g id="edge8" class="edge"><title>Node4&#45;&gt;Node9</title>
<path fill="none" stroke="midnightblue" d="M1042.7,-58.0015C1039.46,-57.2192 1036.16,-56.5188 1033,-56 767.402,-12.4553 691.722,-62.8236 421.761,-19.726"/>
<polygon fill="midnightblue" stroke="midnightblue" points="422.095,-16.2345 411.663,-18.0851 420.972,-23.1438 422.095,-16.2345"/>
</g>
<!-- Node10 -->
<g id="node10" class="node"><title>Node10</title>
<polygon fill="none" stroke="#bfbfbf" points="1078.5,-0.5 1078.5,-19.5 1127.5,-19.5 1127.5,-0.5 1078.5,-0.5"/>
<text text-anchor="middle" x="1103" y="-7.5" font-family="Helvetica,sans-Serif" font-size="10.00">string.h</text>
</g>
<!-- Node4&#45;&gt;Node10 -->
<g id="edge9" class="edge"><title>Node4&#45;&gt;Node10</title>
<path fill="none" stroke="midnightblue" d="M1072.11,-56.083C1077.28,-48.5341 1084.85,-37.4948 1091.19,-28.2298"/>
<polygon fill="midnightblue" stroke="midnightblue" points="1094.24,-29.9787 1097,-19.7511 1088.46,-26.0221 1094.24,-29.9787"/>
</g>
<!-- Node11 -->
<g id="node11" class="node"><title>Node11</title>
<polygon fill="none" stroke="#bfbfbf" points="1146,-0.5 1146,-19.5 1194,-19.5 1194,-0.5 1146,-0.5"/>
<text text-anchor="middle" x="1170" y="-7.5" font-family="Helvetica,sans-Serif" font-size="10.00">limits.h</text>
</g>
<!-- Node4&#45;&gt;Node11 -->
<g id="edge10" class="edge"><title>Node4&#45;&gt;Node11</title>
<path fill="none" stroke="midnightblue" d="M1082.71,-56.324C1099.31,-47.7034 1125,-34.3643 1144.22,-24.3855"/>
<polygon fill="midnightblue" stroke="midnightblue" points="1146.07,-27.3689 1153.33,-19.6545 1142.84,-21.1565 1146.07,-27.3689"/>
</g>
<!-- Node13 -->
<g id="node13" class="node"><title>Node13</title>
<polygon fill="none" stroke="#bfbfbf" points="455,-56.5 455,-75.5 523,-75.5 523,-56.5 455,-56.5"/>
<text text-anchor="middle" x="489" y="-63.5" font-family="Helvetica,sans-Serif" font-size="10.00">sys/types.h</text>
</g>
<!-- Node12&#45;&gt;Node13 -->
<g id="edge12" class="edge"><title>Node12&#45;&gt;Node13</title>
<path fill="none" stroke="midnightblue" d="M757.337,-115.625C704.732,-106.092 594.854,-86.1816 533.268,-75.0217"/>
<polygon fill="midnightblue" stroke="midnightblue" points="533.548,-71.5156 523.085,-73.1764 532.3,-78.4034 533.548,-71.5156"/>
</g>
<!-- Node14 -->
<g id="node14" class="node"><title>Node14</title>
<polygon fill="none" stroke="#bfbfbf" points="801.5,-56.5 801.5,-75.5 874.5,-75.5 874.5,-56.5 801.5,-56.5"/>
<text text-anchor="middle" x="838" y="-63.5" font-family="Helvetica,sans-Serif" font-size="10.00">sys/socket.h</text>
</g>
<!-- Node12&#45;&gt;Node14 -->
<g id="edge13" class="edge"><title>Node12&#45;&gt;Node14</title>
<path fill="none" stroke="midnightblue" d="M795.422,-112.083C802.848,-104.22 813.852,-92.5688 822.812,-83.0813"/>
<polygon fill="midnightblue" stroke="midnightblue" points="825.413,-85.4244 829.735,-75.7511 820.324,-80.618 825.413,-85.4244"/>
</g>
<!-- Node15 -->
<g id="node15" class="node"><title>Node15</title>
<polygon fill="none" stroke="#bfbfbf" points="892.5,-56.5 892.5,-75.5 941.5,-75.5 941.5,-56.5 892.5,-56.5"/>
<text text-anchor="middle" x="917" y="-63.5" font-family="Helvetica,sans-Serif" font-size="10.00">netdb.h</text>
</g>
<!-- Node12&#45;&gt;Node15 -->
<g id="edge14" class="edge"><title>Node12&#45;&gt;Node15</title>
<path fill="none" stroke="midnightblue" d="M807.599,-112.444C828.993,-103.557 862.681,-89.5632 887.024,-79.4514"/>
<polygon fill="midnightblue" stroke="midnightblue" points="888.605,-82.5848 896.497,-75.5164 885.92,-76.1203 888.605,-82.5848"/>
</g>
<!-- Node16 -->
<g id="node16" class="node"><title>Node16</title>
<polygon fill="none" stroke="#bfbfbf" points="579.5,-56.5 579.5,-75.5 630.5,-75.5 630.5,-56.5 579.5,-56.5"/>
<text text-anchor="middle" x="605" y="-63.5" font-family="Helvetica,sans-Serif" font-size="10.00">unistd.h</text>
</g>
<!-- Node12&#45;&gt;Node16 -->
<g id="edge15" class="edge"><title>Node12&#45;&gt;Node16</title>
<path fill="none" stroke="midnightblue" d="M758.162,-112.444C726.232,-102.97 674.745,-87.6935 640.396,-77.5022"/>
<polygon fill="midnightblue" stroke="midnightblue" points="641.343,-74.1324 630.761,-74.6433 639.352,-80.8433 641.343,-74.1324"/>
</g>
<!-- Node17 -->
<g id="node17" class="node"><title>Node17</title>
<polygon fill="none" stroke="#bfbfbf" points="959.5,-56.5 959.5,-75.5 1024.5,-75.5 1024.5,-56.5 959.5,-56.5"/>
<text text-anchor="middle" x="992" y="-63.5" font-family="Helvetica,sans-Serif" font-size="10.00">netinet/in.h</text>
</g>
<!-- Node12&#45;&gt;Node17 -->
<g id="edge16" class="edge"><title>Node12&#45;&gt;Node17</title>
<path fill="none" stroke="midnightblue" d="M816.809,-113.148C851.746,-103.945 909.896,-88.6274 949.54,-78.1846"/>
<polygon fill="midnightblue" stroke="midnightblue" points="950.666,-81.5074 959.445,-75.5756 948.883,-74.7383 950.666,-81.5074"/>
</g>
<!-- Node18 -->
<g id="node18" class="node"><title>Node18</title>
<polygon fill="none" stroke="#bfbfbf" points="649,-56.5 649,-75.5 711,-75.5 711,-56.5 649,-56.5"/>
<text text-anchor="middle" x="680" y="-63.5" font-family="Helvetica,sans-Serif" font-size="10.00">arpa/inet.h</text>
</g>
<!-- Node12&#45;&gt;Node18 -->
<g id="edge17" class="edge"><title>Node12&#45;&gt;Node18</title>
<path fill="none" stroke="midnightblue" d="M769.809,-112.324C752.649,-103.664 726.054,-90.2424 706.253,-80.249"/>
<polygon fill="midnightblue" stroke="midnightblue" points="707.653,-77.0354 697.149,-75.6545 704.499,-83.2847 707.653,-77.0354"/>
</g>
<!-- Node19 -->
<g id="node19" class="node"><title>Node19</title>
<polygon fill="none" stroke="#bfbfbf" points="729,-56.5 729,-75.5 783,-75.5 783,-56.5 729,-56.5"/>
<text text-anchor="middle" x="756" y="-63.5" font-family="Helvetica,sans-Serif" font-size="10.00">ifaddrs.h</text>
</g>
<!-- Node12&#45;&gt;Node19 -->
<g id="edge18" class="edge"><title>Node12&#45;&gt;Node19</title>
<path fill="none" stroke="midnightblue" d="M781.881,-112.083C777.592,-104.613 771.342,-93.7244 766.058,-84.5199"/>
<polygon fill="midnightblue" stroke="midnightblue" points="769.038,-82.6811 761.024,-75.7511 762.967,-86.1662 769.038,-82.6811"/>
</g>
<!-- Node12&#45;&gt;Node4 -->
<g id="edge19" class="edge"><title>Node12&#45;&gt;Node4</title>
<path fill="none" stroke="midnightblue" d="M816.802,-114.798C821.547,-113.841 826.405,-112.879 831,-112 920.567,-94.8613 944.032,-96.0174 1033,-76 1033.1,-75.9772 1033.2,-75.9543 1033.3,-75.9312"/>
<polygon fill="midnightblue" stroke="midnightblue" points="1034.11,-79.3383 1042.99,-73.5598 1032.44,-72.5392 1034.11,-79.3383"/>
</g>
<!-- Node21 -->
<g id="node21" class="node"><title>Node21</title>
<polygon fill="none" stroke="#bfbfbf" points="142.5,-112.5 142.5,-131.5 233.5,-131.5 233.5,-112.5 142.5,-112.5"/>
<text text-anchor="middle" x="188" y="-119.5" font-family="Helvetica,sans-Serif" font-size="10.00">netinet/ip_icmp.h</text>
</g>
<!-- Node20&#45;&gt;Node21 -->
<g id="edge21" class="edge"><title>Node20&#45;&gt;Node21</title>
<path fill="none" stroke="midnightblue" d="M566.835,-280.466C542.967,-271.603 504.735,-257.21 472,-244 378.113,-206.114 268.144,-158.254 216.951,-135.77"/>
<polygon fill="midnightblue" stroke="midnightblue" points="218.081,-132.444 207.518,-131.622 215.263,-138.852 218.081,-132.444"/>
</g>
<!-- Node22 -->
<g id="node22" class="node"><title>Node22</title>
<polygon fill="none" stroke="#bfbfbf" points="251.5,-112.5 251.5,-131.5 334.5,-131.5 334.5,-112.5 251.5,-112.5"/>
<text text-anchor="middle" x="293" y="-119.5" font-family="Helvetica,sans-Serif" font-size="10.00">netinet/icmp6.h</text>
</g>
<!-- Node20&#45;&gt;Node22 -->
<g id="edge22" class="edge"><title>Node20&#45;&gt;Node22</title>
<path fill="none" stroke="midnightblue" d="M574.463,-280.389C558.15,-271.344 531.759,-256.696 509,-244 439.15,-205.033 356.72,-158.784 316.904,-136.427"/>
<polygon fill="midnightblue" stroke="midnightblue" points="318.612,-133.372 308.179,-131.527 315.184,-139.475 318.612,-133.372"/>
</g>
<!-- Node23 -->
<g id="node23" class="node"><title>Node23</title>
<polygon fill="none" stroke="#bfbfbf" points="911.5,-112.5 911.5,-131.5 976.5,-131.5 976.5,-112.5 911.5,-112.5"/>
<text text-anchor="middle" x="944" y="-119.5" font-family="Helvetica,sans-Serif" font-size="10.00">netinet/ip.h</text>
</g>
<!-- Node20&#45;&gt;Node23 -->
<g id="edge23" class="edge"><title>Node20&#45;&gt;Node23</title>
<path fill="none" stroke="midnightblue" d="M617.164,-286.273C662.675,-281.198 756.833,-268.523 833,-244 888.64,-226.086 920.68,-237.353 952,-188 960.836,-174.077 957.092,-155.068 952.187,-141.204"/>
<polygon fill="midnightblue" stroke="midnightblue" points="955.374,-139.748 948.398,-131.774 948.879,-142.358 955.374,-139.748"/>
</g>
<!-- Node24 -->
<g id="node24" class="node"><title>Node24</title>
<polygon fill="none" stroke="#bfbfbf" points="555,-112.5 555,-131.5 625,-131.5 625,-112.5 555,-112.5"/>
<text text-anchor="middle" x="590" y="-119.5" font-family="Helvetica,sans-Serif" font-size="10.00">netinet/ip6.h</text>
</g>
<!-- Node20&#45;&gt;Node24 -->
<g id="edge24" class="edge"><title>Node20&#45;&gt;Node24</title>
<path fill="none" stroke="midnightblue" d="M590,-280.075C590,-253.945 590,-177.211 590,-141.577"/>
<polygon fill="midnightblue" stroke="midnightblue" points="593.5,-141.568 590,-131.568 586.5,-141.568 593.5,-141.568"/>
</g>
<!-- Node20&#45;&gt;Node13 -->
<g id="edge25" class="edge"><title>Node20&#45;&gt;Node13</title>
<path fill="none" stroke="midnightblue" d="M562.771,-289.675C480.429,-290.041 233.552,-278.443 133,-132 127.969,-124.672 127.122,-118.668 133,-112 138.125,-106.187 350.482,-82.2106 444.729,-71.8288"/>
<polygon fill="midnightblue" stroke="midnightblue" points="445.256,-75.2921 454.813,-70.7202 444.491,-68.334 445.256,-75.2921"/>
</g>
<!-- Node20&#45;&gt;Node9 -->
<g id="edge26" class="edge"><title>Node20&#45;&gt;Node9</title>
<path fill="none" stroke="midnightblue" d="M562.853,-289.703C502.984,-290.361 355.964,-287.046 243,-244 175.433,-218.253 145.376,-201.376 125,-132 122.495,-123.471 119.966,-119.326 125,-112 138.635,-92.1578 286.869,-43.0925 354.594,-21.4931"/>
<polygon fill="midnightblue" stroke="midnightblue" points="355.887,-24.7548 364.358,-18.3915 353.768,-18.0832 355.887,-24.7548"/>
</g>
<!-- Node20&#45;&gt;Node4 -->
<g id="edge27" class="edge"><title>Node20&#45;&gt;Node4</title>
<path fill="none" stroke="midnightblue" d="M617.256,-288.877C670.835,-287.782 792.849,-281.036 887,-244 968.015,-212.132 1031.33,-122.689 1055.44,-84.5677"/>
<polygon fill="midnightblue" stroke="midnightblue" points="1058.67,-86.0016 1060.95,-75.655 1052.71,-82.3213 1058.67,-86.0016"/>
</g>
<!-- Node25 -->
<g id="node25" class="node"><title>Node25</title>
<g id="a_node25"><a xlink:href="../../d7/d13/icmp__util_8h.html" target="_top" xlink:title="Utilitaires ICMP (header)">
<polygon fill="none" stroke="black" points="426,-168.5 426,-187.5 490,-187.5 490,-168.5 426,-168.5"/>
<text text-anchor="middle" x="458" y="-175.5" font-family="Helvetica,sans-Serif" font-size="10.00">icmp_util.h</text>
</a>
</g>
</g>
<!-- Node20&#45;&gt;Node25 -->
<g id="edge28" class="edge"><title>Node20&#45;&gt;Node25</title>
<path fill="none" stroke="midnightblue" d="M579.642,-280.368C557.28,-261.733 504.239,-217.532 476.161,-194.134"/>
<polygon fill="midnightblue" stroke="midnightblue" points="478.233,-191.305 468.31,-187.591 473.751,-196.682 478.233,-191.305"/>
</g>
<!-- Node27 -->
<g id="node27" class="node"><title>Node27</title>
<g id="a_node27"><a xlink:href="../../d4/dbd/ip__util_8h.html" target="_top" xlink:title="Utilitaires IP (header)">
<polygon fill="none" stroke="black" points="650,-168.5 650,-187.5 700,-187.5 700,-168.5 650,-168.5"/>
<text text-anchor="middle" x="675" y="-175.5" font-family="Helvetica,sans-Serif" font-size="10.00">ip_util.h</text>
</a>
</g>
</g>
<!-- Node20&#45;&gt;Node27 -->
<g id="edge38" class="edge"><title>Node20&#45;&gt;Node27</title>
<path fill="none" stroke="midnightblue" d="M596.67,-280.368C610.759,-262.135 643.762,-219.426 662.115,-195.675"/>
<polygon fill="midnightblue" stroke="midnightblue" points="665.016,-197.644 668.361,-187.591 659.477,-193.364 665.016,-197.644"/>
</g>
<!-- Node28 -->
<g id="node28" class="node"><title>Node28</title>
<g id="a_node28"><a xlink:href="../../da/d14/udp__util_8h.html" target="_top" xlink:title="Utilitaires IP (header)">
<polygon fill="none" stroke="black" points="765.5,-224.5 765.5,-243.5 824.5,-243.5 824.5,-224.5 765.5,-224.5"/>
<text text-anchor="middle" x="795" y="-231.5" font-family="Helvetica,sans-Serif" font-size="10.00">udp_util.h</text>
</a>
</g>
</g>
<!-- Node20&#45;&gt;Node28 -->
<g id="edge47" class="edge"><title>Node20&#45;&gt;Node28</title>
<path fill="none" stroke="midnightblue" d="M617.222,-281.829C652.665,-272.493 714.872,-256.107 755.502,-245.404"/>
<polygon fill="midnightblue" stroke="midnightblue" points="756.559,-248.745 765.338,-242.814 754.776,-241.976 756.559,-248.745"/>
</g>
<!-- Node20&#45;&gt;Node12 -->
<g id="edge53" class="edge"><title>Node20&#45;&gt;Node12</title>
<path fill="none" stroke="midnightblue" d="M601.474,-280.182C613.071,-271.215 631.448,-256.849 647,-244 691.919,-206.888 743.462,-161.627 769.696,-138.392"/>
<polygon fill="midnightblue" stroke="midnightblue" points="772.126,-140.915 777.284,-131.66 767.48,-135.679 772.126,-140.915"/>
</g>
<!-- Node25&#45;&gt;Node21 -->
<g id="edge29" class="edge"><title>Node25&#45;&gt;Node21</title>
<path fill="none" stroke="midnightblue" d="M425.967,-170.593C380.204,-161.441 295.576,-144.515 240.556,-133.511"/>
<polygon fill="midnightblue" stroke="midnightblue" points="241.135,-130.058 230.643,-131.529 239.762,-136.922 241.135,-130.058"/>
</g>
<!-- Node25&#45;&gt;Node22 -->
<g id="edge30" class="edge"><title>Node25&#45;&gt;Node22</title>
<path fill="none" stroke="midnightblue" d="M431.855,-168.444C403.977,-159.32 359.652,-144.813 328.6,-134.651"/>
<polygon fill="midnightblue" stroke="midnightblue" points="329.615,-131.3 319.022,-131.516 327.438,-137.953 329.615,-131.3"/>
</g>
<!-- Node25&#45;&gt;Node13 -->
<g id="edge31" class="edge"><title>Node25&#45;&gt;Node13</title>
<path fill="none" stroke="midnightblue" d="M460.433,-168.368C465.458,-150.537 477.08,-109.295 483.851,-85.2717"/>
<polygon fill="midnightblue" stroke="midnightblue" points="487.235,-86.1659 486.579,-75.5914 480.497,-84.2671 487.235,-86.1659"/>
</g>
<!-- Node25&#45;&gt;Node9 -->
<g id="edge32" class="edge"><title>Node25&#45;&gt;Node9</title>
<path fill="none" stroke="midnightblue" d="M429.985,-168.397C412.826,-161.515 392.252,-149.984 382,-132 363.581,-99.6885 373.471,-54.2819 381.349,-29.2881"/>
<polygon fill="midnightblue" stroke="midnightblue" points="384.723,-30.2361 384.616,-19.6418 378.093,-27.9905 384.723,-30.2361"/>
</g>
<!-- Node25&#45;&gt;Node4 -->
<g id="edge33" class="edge"><title>Node25&#45;&gt;Node4</title>
<path fill="none" stroke="midnightblue" d="M466.241,-168.305C480.754,-153.648 512.518,-124.411 546,-112 746.423,-37.705 816.957,-110.452 1032.64,-75.6365"/>
<polygon fill="midnightblue" stroke="midnightblue" points="1033.4,-79.0574 1042.69,-73.9541 1032.25,-72.1535 1033.4,-79.0574"/>
</g>
<!-- Node26 -->
<g id="node26" class="node"><title>Node26</title>
<g id="a_node26"><a xlink:href="../../dc/d31/checksum_8h.html" target="_top" xlink:title="Internet Checksum. (header)">
<polygon fill="none" stroke="black" points="391,-112.5 391,-131.5 461,-131.5 461,-112.5 391,-112.5"/>
<text text-anchor="middle" x="426" y="-119.5" font-family="Helvetica,sans-Serif" font-size="10.00">checksum.h</text>
</a>
</g>
</g>
<!-- Node25&#45;&gt;Node26 -->
<g id="edge34" class="edge"><title>Node25&#45;&gt;Node26</title>
<path fill="none" stroke="midnightblue" d="M452.716,-168.083C448.289,-160.613 441.837,-149.724 436.382,-140.52"/>
<polygon fill="midnightblue" stroke="midnightblue" points="439.295,-138.57 431.186,-131.751 433.273,-142.138 439.295,-138.57"/>
</g>
<!-- Node25&#45;&gt;Node12 -->
<g id="edge37" class="edge"><title>Node25&#45;&gt;Node12</title>
<path fill="none" stroke="midnightblue" d="M490.145,-171.724C550.615,-161.799 681.135,-140.376 747.103,-129.548"/>
<polygon fill="midnightblue" stroke="midnightblue" points="747.815,-132.978 757.116,-127.905 746.681,-126.071 747.815,-132.978"/>
</g>
<!-- Node26&#45;&gt;Node5 -->
<g id="edge35" class="edge"><title>Node26&#45;&gt;Node5</title>
<path fill="none" stroke="midnightblue" d="M428.197,-112.368C432.716,-94.617 443.139,-53.6664 449.266,-29.5974"/>
<polygon fill="midnightblue" stroke="midnightblue" points="452.738,-30.1458 451.813,-19.5914 445.954,-28.419 452.738,-30.1458"/>
</g>
<!-- Node26&#45;&gt;Node6 -->
<g id="edge36" class="edge"><title>Node26&#45;&gt;Node6</title>
<path fill="none" stroke="midnightblue" d="M417.918,-112.368C400.694,-93.9744 360.147,-50.6712 338.03,-27.0519"/>
<polygon fill="midnightblue" stroke="midnightblue" points="340.435,-24.4987 331.045,-19.5914 335.325,-29.2832 340.435,-24.4987"/>
</g>
<!-- Node27&#45;&gt;Node23 -->
<g id="edge39" class="edge"><title>Node27&#45;&gt;Node23</title>
<path fill="none" stroke="midnightblue" d="M700.307,-171.92C746.356,-162.676 844.311,-143.012 901.008,-131.63"/>
<polygon fill="midnightblue" stroke="midnightblue" points="901.978,-135.006 911.093,-129.606 900.6,-128.143 901.978,-135.006"/>
</g>
<!-- Node27&#45;&gt;Node24 -->
<g id="edge40" class="edge"><title>Node27&#45;&gt;Node24</title>
<path fill="none" stroke="midnightblue" d="M661.343,-168.324C648.084,-159.9 627.732,-146.971 612.154,-137.074"/>
<polygon fill="midnightblue" stroke="midnightblue" points="613.94,-134.063 603.623,-131.655 610.187,-139.971 613.94,-134.063"/>
</g>
<!-- Node27&#45;&gt;Node13 -->
<g id="edge41" class="edge"><title>Node27&#45;&gt;Node13</title>
<path fill="none" stroke="midnightblue" d="M671.896,-168.467C666.411,-154.575 653.688,-127.107 634,-112 618.04,-99.7533 569.558,-86.1117 533.013,-77.0931"/>
<polygon fill="midnightblue" stroke="midnightblue" points="533.603,-73.6346 523.059,-74.6769 531.952,-80.4371 533.603,-73.6346"/>
</g>
<!-- Node27&#45;&gt;Node9 -->
<g id="edge42" class="edge"><title>Node27&#45;&gt;Node9</title>
<path fill="none" stroke="midnightblue" d="M675.077,-168.299C674.735,-154.662 672.138,-128.148 658,-112 630.163,-80.2069 608.297,-93.8612 570,-76 552.703,-67.9331 549.625,-63.3209 532,-56 511.966,-47.6786 457.567,-31.285 421.664,-20.7498"/>
<polygon fill="midnightblue" stroke="midnightblue" points="422.203,-17.2611 411.623,-17.8146 420.239,-23.9799 422.203,-17.2611"/>
</g>
<!-- Node27&#45;&gt;Node16 -->
<g id="edge43" class="edge"><title>Node27&#45;&gt;Node16</title>
<path fill="none" stroke="midnightblue" d="M684.574,-168.182C697.381,-155.29 717.147,-130.787 705,-112 697.438,-100.305 665.856,-87.2791 640.18,-78.2638"/>
<polygon fill="midnightblue" stroke="midnightblue" points="641.286,-74.9429 630.691,-75.0161 639.019,-81.5658 641.286,-74.9429"/>
</g>
<!-- Node27&#45;&gt;Node4 -->
<g id="edge44" class="edge"><title>Node27&#45;&gt;Node4</title>
<path fill="none" stroke="midnightblue" d="M700.026,-170.605C730.085,-162.67 781.854,-148.193 825,-132 845.111,-124.452 848.619,-118.785 869,-112 939.804,-88.4296 960.535,-93.8231 1033,-76 1033.1,-75.9752 1033.2,-75.9503 1033.3,-75.9253"/>
<polygon fill="midnightblue" stroke="midnightblue" points="1034.15,-79.3225 1042.96,-73.4421 1032.4,-72.543 1034.15,-79.3225"/>
</g>
<!-- Node27&#45;&gt;Node26 -->
<g id="edge45" class="edge"><title>Node27&#45;&gt;Node26</title>
<path fill="none" stroke="midnightblue" d="M649.754,-171.525C607.91,-162.45 523.619,-144.17 471.279,-132.82"/>
<polygon fill="midnightblue" stroke="midnightblue" points="471.774,-129.346 461.26,-130.647 470.291,-136.187 471.774,-129.346"/>
</g>
<!-- Node27&#45;&gt;Node12 -->
<g id="edge46" class="edge"><title>Node27&#45;&gt;Node12</title>
<path fill="none" stroke="midnightblue" d="M692.995,-168.324C711.038,-159.625 739.047,-146.12 759.803,-136.113"/>
<polygon fill="midnightblue" stroke="midnightblue" points="761.562,-139.15 769.05,-131.655 758.522,-132.845 761.562,-139.15"/>
</g>
<!-- Node29 -->
<g id="node29" class="node"><title>Node29</title>
<polygon fill="none" stroke="#bfbfbf" points="870.5,-168.5 870.5,-187.5 943.5,-187.5 943.5,-168.5 870.5,-168.5"/>
<text text-anchor="middle" x="907" y="-175.5" font-family="Helvetica,sans-Serif" font-size="10.00">netinet/udp.h</text>
</g>
<!-- Node28&#45;&gt;Node29 -->
<g id="edge48" class="edge"><title>Node28&#45;&gt;Node29</title>
<path fill="none" stroke="midnightblue" d="M812.995,-224.324C831.038,-215.625 859.047,-202.12 879.803,-192.113"/>
<polygon fill="midnightblue" stroke="midnightblue" points="881.562,-195.15 889.05,-187.655 878.522,-188.845 881.562,-195.15"/>
</g>
<!-- Node28&#45;&gt;Node23 -->
<g id="edge49" class="edge"><title>Node28&#45;&gt;Node23</title>
<path fill="none" stroke="midnightblue" d="M802.459,-224.212C814.041,-210.922 837.476,-185.416 861,-168 877.959,-155.444 898.851,-144.137 915.431,-135.997"/>
<polygon fill="midnightblue" stroke="midnightblue" points="917.129,-139.065 924.633,-131.586 914.103,-132.753 917.129,-139.065"/>
</g>
<!-- Node28&#45;&gt;Node4 -->
<g id="edge50" class="edge"><title>Node28&#45;&gt;Node4</title>
<path fill="none" stroke="midnightblue" d="M798.973,-224.395C805.25,-211.344 818.367,-186.146 834,-168 859.554,-138.338 867.243,-130.022 902,-112 902.746,-111.613 985.445,-88.9984 1033.11,-75.9804"/>
<polygon fill="midnightblue" stroke="midnightblue" points="1034.26,-79.2934 1042.98,-73.2824 1032.42,-72.5407 1034.26,-79.2934"/>
</g>
<!-- Node28&#45;&gt;Node27 -->
<g id="edge51" class="edge"><title>Node28&#45;&gt;Node27</title>
<path fill="none" stroke="midnightblue" d="M775.986,-224.444C756.412,-215.636 725.692,-201.812 703.271,-191.722"/>
<polygon fill="midnightblue" stroke="midnightblue" points="704.481,-188.428 693.925,-187.516 701.608,-194.812 704.481,-188.428"/>
</g>
<!-- Node28&#45;&gt;Node12 -->
<g id="edge52" class="edge"><title>Node28&#45;&gt;Node12</title>
<path fill="none" stroke="midnightblue" d="M793.876,-224.389C792.735,-215.343 790.997,-200.695 790,-188 788.782,-172.495 788.007,-154.868 787.55,-141.886"/>
<polygon fill="midnightblue" stroke="midnightblue" points="791.046,-141.725 787.227,-131.843 784.05,-141.95 791.046,-141.725"/>
</g>
<!-- Node30&#45;&gt;Node5 -->
<g id="edge55" class="edge"><title>Node30&#45;&gt;Node5</title>
<path fill="none" stroke="midnightblue" d="M64.1994,-280.461C59.1422,-267.915 51.4489,-243.839 57,-224 72.6915,-167.92 79.0491,-147.773 125,-112 128.016,-109.652 336.587,-46.4749 420.038,-21.2547"/>
<polygon fill="midnightblue" stroke="midnightblue" points="421.243,-24.5471 429.803,-18.3043 419.218,-17.8463 421.243,-24.5471"/>
</g>
<!-- Node30&#45;&gt;Node6 -->
<g id="edge56" class="edge"><title>Node30&#45;&gt;Node6</title>
<path fill="none" stroke="midnightblue" d="M57.2743,-280.36C47.4568,-271.965 33.111,-258.406 24,-244 7.53951,-217.973 0,-209.795 0,-179 0,-179 0,-179 0,-121 0,-60.2759 207.152,-26.2648 289.666,-15.1258"/>
<polygon fill="midnightblue" stroke="midnightblue" points="290.314,-18.5707 299.771,-13.7926 289.399,-11.6309 290.314,-18.5707"/>
</g>
<!-- Node30&#45;&gt;Node3 -->
<g id="edge57" class="edge"><title>Node30&#45;&gt;Node3</title>
<path fill="none" stroke="midnightblue" d="M72.7888,-280.083C76.7584,-272.691 82.5251,-261.953 87.4348,-252.811"/>
<polygon fill="midnightblue" stroke="midnightblue" points="90.6525,-254.217 92.3003,-243.751 84.4855,-250.905 90.6525,-254.217"/>
</g>
</g>
</svg>
