<?xml version="1.0" encoding="UTF-8" standalone="no"?>
<!DOCTYPE svg PUBLIC "-//W3C//DTD SVG 1.1//EN"
 "http://www.w3.org/Graphics/SVG/1.1/DTD/svg11.dtd">
<!-- Generated by graphviz version 2.30.1 (20130712.1527)
 -->
<!-- Title: include/ip_util.h Pages: 1 -->
<!--zoomable 196 -->
<svg id="main" version="1.1" xmlns="http://www.w3.org/2000/svg" xmlns:xlink="http://www.w3.org/1999/xlink" xml:space="preserve" onload="init(evt)">
        <defs>
                <circle id="rim" cx="0" cy="0" r="7"/>
                <circle id="rim2" cx="0" cy="0" r="3.5"/>
                <g id="zoomPlus">
                        <use xlink:href="#rim" fill="#404040">
                                <set attributeName="fill" to="#808080" begin="zoomplus.mouseover" end="zoomplus.mouseout"/>
                        </use>
                        <path d="M-4,0h8M0,-4v8" fill="none" stroke="white" stroke-width="1.5" pointer-events="none"/>
                </g>
                <g id="zoomMin">
                        <use xlink:href="#rim" fill="#404040">
                                <set attributeName="fill" to="#808080" begin="zoomminus.mouseover" end="zoomminus.mouseout"/>
                        </use>
                        <path d="M-4,0h8" fill="none" stroke="white" stroke-width="1.5" pointer-events="none"/>
                </g>
                <g id="dirArrow">
                        <path fill="none" stroke="white" stroke-width="1.5" d="M0,-3.0v7 M-2.5,-0.5L0,-3.0L2.5,-0.5"/>
                </g>
               <g id="resetDef">
                       <use xlink:href="#rim2" fill="#404040">
                               <set attributeName="fill" to="#808080" begin="reset.mouseover" end="reset.mouseout"/>
                       </use>
               </g>
        </defs>

<script type="text/javascript">
var viewWidth = 933;
var viewHeight = 196;
var sectionId = 'dynsection-0';
</script>
<script xlink:href="../../svgpan.js"/>
<svg id="graph" class="graph">
<g id="viewport">
<title>include/ip_util.h</title>
<!-- Node1 -->
<g id="node1" class="node"><title>Node1</title>
<polygon fill="#bfbfbf" stroke="black" points="275,-168.5 275,-187.5 359,-187.5 359,-168.5 275,-168.5"/>
<text text-anchor="middle" x="317" y="-175.5" font-family="Helvetica,sans-Serif" font-size="10.00">include/ip_util.h</text>
</g>
<!-- Node2 -->
<g id="node2" class="node"><title>Node2</title>
<polygon fill="none" stroke="#bfbfbf" points="68.5,-112.5 68.5,-131.5 133.5,-131.5 133.5,-112.5 68.5,-112.5"/>
<text text-anchor="middle" x="101" y="-119.5" font-family="Helvetica,sans-Serif" font-size="10.00">netinet/ip.h</text>
</g>
<!-- Node1&#45;&gt;Node2 -->
<g id="edge1" class="edge"><title>Node1&#45;&gt;Node2</title>
<path fill="none" stroke="midnightblue" d="M282.774,-168.444C245.05,-159.012 184.322,-143.83 143.559,-133.64"/>
<polygon fill="midnightblue" stroke="midnightblue" points="144.202,-130.193 133.652,-131.163 142.504,-136.984 144.202,-130.193"/>
</g>
<!-- Node3 -->
<g id="node3" class="node"><title>Node3</title>
<polygon fill="none" stroke="#bfbfbf" points="152,-112.5 152,-131.5 222,-131.5 222,-112.5 152,-112.5"/>
<text text-anchor="middle" x="187" y="-119.5" font-family="Helvetica,sans-Serif" font-size="10.00">netinet/ip6.h</text>
</g>
<!-- Node1&#45;&gt;Node3 -->
<g id="edge2" class="edge"><title>Node1&#45;&gt;Node3</title>
<path fill="none" stroke="midnightblue" d="M296.401,-168.444C275.007,-159.557 241.319,-145.563 216.976,-135.451"/>
<polygon fill="midnightblue" stroke="midnightblue" points="218.08,-132.12 207.503,-131.516 215.395,-138.585 218.08,-132.12"/>
</g>
<!-- Node4 -->
<g id="node4" class="node"><title>Node4</title>
<polygon fill="none" stroke="#bfbfbf" points="0,-56.5 0,-75.5 68,-75.5 68,-56.5 0,-56.5"/>
<text text-anchor="middle" x="34" y="-63.5" font-family="Helvetica,sans-Serif" font-size="10.00">sys/types.h</text>
</g>
<!-- Node1&#45;&gt;Node4 -->
<g id="edge3" class="edge"><title>Node1&#45;&gt;Node4</title>
<path fill="none" stroke="midnightblue" d="M306.616,-168.266C287.518,-152.355 247.287,-119.586 231,-112 224.021,-108.749 133.953,-88.7911 78.0492,-76.5715"/>
<polygon fill="midnightblue" stroke="midnightblue" points="78.5523,-73.099 68.0359,-74.3856 77.0594,-79.9379 78.5523,-73.099"/>
</g>
<!-- Node5 -->
<g id="node5" class="node"><title>Node5</title>
<polygon fill="none" stroke="#bfbfbf" points="878.5,-0.5 878.5,-19.5 925.5,-19.5 925.5,-0.5 878.5,-0.5"/>
<text text-anchor="middle" x="902" y="-7.5" font-family="Helvetica,sans-Serif" font-size="10.00">errno.h</text>
</g>
<!-- Node1&#45;&gt;Node5 -->
<g id="edge4" class="edge"><title>Node1&#45;&gt;Node5</title>
<path fill="none" stroke="midnightblue" d="M356.112,-168.474C394.65,-159.9 455.122,-145.981 507,-132 642.033,-95.6087 800.524,-44.4555 868.398,-22.1407"/>
<polygon fill="midnightblue" stroke="midnightblue" points="869.716,-25.3915 878.119,-18.938 867.526,-18.743 869.716,-25.3915"/>
</g>
<!-- Node6 -->
<g id="node6" class="node"><title>Node6</title>
<polygon fill="none" stroke="#bfbfbf" points="86.5,-56.5 86.5,-75.5 137.5,-75.5 137.5,-56.5 86.5,-56.5"/>
<text text-anchor="middle" x="112" y="-63.5" font-family="Helvetica,sans-Serif" font-size="10.00">unistd.h</text>
</g>
<!-- Node1&#45;&gt;Node6 -->
<g id="edge5" class="edge"><title>Node1&#45;&gt;Node6</title>
<path fill="none" stroke="midnightblue" d="M312.336,-168.444C304.308,-154.52 286.545,-127.007 264,-112 259.019,-108.684 190.627,-89.0975 147.298,-76.8828"/>
<polygon fill="midnightblue" stroke="midnightblue" points="148.246,-73.5135 137.671,-74.1738 146.349,-80.2518 148.246,-73.5135"/>
</g>
<!-- Node7 -->
<g id="node7" class="node"><title>Node7</title>
<g id="a_node7"><a xlink:href="../../d3/d5a/base_8h.html" target="_top" xlink:title="Fonctions et inclusions de base. (header)">
<polygon fill="none" stroke="black" points="637,-56.5 637,-75.5 683,-75.5 683,-56.5 637,-56.5"/>
<text text-anchor="middle" x="660" y="-63.5" font-family="Helvetica,sans-Serif" font-size="10.00">base.h</text>
</a>
</g>
</g>
<!-- Node1&#45;&gt;Node7 -->
<g id="edge6" class="edge"><title>Node1&#45;&gt;Node7</title>
<path fill="none" stroke="midnightblue" d="M345.516,-168.484C375.177,-159.576 422.933,-145.094 464,-132 521.535,-113.656 588.215,-91.3102 627.094,-78.1712"/>
<polygon fill="midnightblue" stroke="midnightblue" points="628.474,-81.3992 636.825,-74.8788 626.23,-74.7685 628.474,-81.3992"/>
</g>
<!-- Node14 -->
<g id="node14" class="node"><title>Node14</title>
<g id="a_node14"><a xlink:href="../../dc/d31/checksum_8h.html" target="_top" xlink:title="Internet Checksum. (header)">
<polygon fill="none" stroke="black" points="549,-56.5 549,-75.5 619,-75.5 619,-56.5 549,-56.5"/>
<text text-anchor="middle" x="584" y="-63.5" font-family="Helvetica,sans-Serif" font-size="10.00">checksum.h</text>
</a>
</g>
</g>
<!-- Node1&#45;&gt;Node14 -->
<g id="edge14" class="edge"><title>Node1&#45;&gt;Node14</title>
<path fill="none" stroke="midnightblue" d="M337.951,-168.368C384.938,-149.01 498.889,-102.065 553.641,-79.5074"/>
<polygon fill="midnightblue" stroke="midnightblue" points="555.233,-82.6368 563.146,-75.5914 552.567,-76.1646 555.233,-82.6368"/>
</g>
<!-- Node15 -->
<g id="node15" class="node"><title>Node15</title>
<g id="a_node15"><a xlink:href="../../d9/d9b/address_8h.html" target="_top" xlink:title="Utilitaires pour obtenir des addresses. (header)">
<polygon fill="none" stroke="black" points="316.5,-112.5 316.5,-131.5 375.5,-131.5 375.5,-112.5 316.5,-112.5"/>
<text text-anchor="middle" x="346" y="-119.5" font-family="Helvetica,sans-Serif" font-size="10.00">address.h</text>
</a>
</g>
</g>
<!-- Node1&#45;&gt;Node15 -->
<g id="edge17" class="edge"><title>Node1&#45;&gt;Node15</title>
<path fill="none" stroke="midnightblue" d="M321.789,-168.083C325.758,-160.691 331.525,-149.953 336.435,-140.811"/>
<polygon fill="midnightblue" stroke="midnightblue" points="339.653,-142.217 341.3,-131.751 333.486,-138.905 339.653,-142.217"/>
</g>
<!-- Node8 -->
<g id="node8" class="node"><title>Node8</title>
<polygon fill="none" stroke="#bfbfbf" points="524,-0.5 524,-19.5 572,-19.5 572,-0.5 524,-0.5"/>
<text text-anchor="middle" x="548" y="-7.5" font-family="Helvetica,sans-Serif" font-size="10.00">stdlib.h</text>
</g>
<!-- Node7&#45;&gt;Node8 -->
<g id="edge7" class="edge"><title>Node7&#45;&gt;Node8</title>
<path fill="none" stroke="midnightblue" d="M642.005,-56.324C623.962,-47.6247 595.953,-34.1202 575.197,-24.113"/>
<polygon fill="midnightblue" stroke="midnightblue" points="576.478,-20.8449 565.95,-19.6545 573.438,-27.1502 576.478,-20.8449"/>
</g>
<!-- Node9 -->
<g id="node9" class="node"><title>Node9</title>
<polygon fill="none" stroke="#bfbfbf" points="460,-0.5 460,-19.5 506,-19.5 506,-0.5 460,-0.5"/>
<text text-anchor="middle" x="483" y="-7.5" font-family="Helvetica,sans-Serif" font-size="10.00">stdio.h</text>
</g>
<!-- Node7&#45;&gt;Node9 -->
<g id="edge8" class="edge"><title>Node7&#45;&gt;Node9</title>
<path fill="none" stroke="midnightblue" d="M636.86,-57.9404C605.986,-48.5212 551.133,-31.7865 515.948,-21.052"/>
<polygon fill="midnightblue" stroke="midnightblue" points="516.731,-17.6318 506.145,-18.0613 514.689,-24.3271 516.731,-17.6318"/>
</g>
<!-- Node10 -->
<g id="node10" class="node"><title>Node10</title>
<polygon fill="none" stroke="#bfbfbf" points="804,-0.5 804,-19.5 860,-19.5 860,-0.5 804,-0.5"/>
<text text-anchor="middle" x="832" y="-7.5" font-family="Helvetica,sans-Serif" font-size="10.00">stdbool.h</text>
</g>
<!-- Node7&#45;&gt;Node10 -->
<g id="edge9" class="edge"><title>Node7&#45;&gt;Node10</title>
<path fill="none" stroke="midnightblue" d="M683.197,-57.7173C711.906,-48.7038 761.148,-33.2443 795.074,-22.5929"/>
<polygon fill="midnightblue" stroke="midnightblue" points="796.147,-25.9248 804.639,-19.59 794.05,-19.2462 796.147,-25.9248"/>
</g>
<!-- Node11 -->
<g id="node11" class="node"><title>Node11</title>
<polygon fill="none" stroke="#bfbfbf" points="590,-0.5 590,-19.5 652,-19.5 652,-0.5 590,-0.5"/>
<text text-anchor="middle" x="621" y="-7.5" font-family="Helvetica,sans-Serif" font-size="10.00">sysexits.h</text>
</g>
<!-- Node7&#45;&gt;Node11 -->
<g id="edge10" class="edge"><title>Node7&#45;&gt;Node11</title>
<path fill="none" stroke="midnightblue" d="M653.56,-56.083C648.051,-48.4554 639.969,-37.2645 633.235,-27.9408"/>
<polygon fill="midnightblue" stroke="midnightblue" points="636.013,-25.8087 627.32,-19.7511 630.338,-29.9071 636.013,-25.8087"/>
</g>
<!-- Node7&#45;&gt;Node5 -->
<g id="edge11" class="edge"><title>Node7&#45;&gt;Node5</title>
<path fill="none" stroke="midnightblue" d="M683.289,-60.4146C720.328,-53.0303 795.135,-37.7426 868.392,-20.0416"/>
<polygon fill="midnightblue" stroke="midnightblue" points="869.358,-23.4088 878.247,-17.6433 867.703,-16.6074 869.358,-23.4088"/>
</g>
<!-- Node12 -->
<g id="node12" class="node"><title>Node12</title>
<polygon fill="none" stroke="#bfbfbf" points="670.5,-0.5 670.5,-19.5 719.5,-19.5 719.5,-0.5 670.5,-0.5"/>
<text text-anchor="middle" x="695" y="-7.5" font-family="Helvetica,sans-Serif" font-size="10.00">string.h</text>
</g>
<!-- Node7&#45;&gt;Node12 -->
<g id="edge12" class="edge"><title>Node7&#45;&gt;Node12</title>
<path fill="none" stroke="midnightblue" d="M665.78,-56.083C670.672,-48.5341 677.827,-37.4948 683.833,-28.2298"/>
<polygon fill="midnightblue" stroke="midnightblue" points="686.826,-30.0463 689.328,-19.7511 680.952,-26.239 686.826,-30.0463"/>
</g>
<!-- Node13 -->
<g id="node13" class="node"><title>Node13</title>
<polygon fill="none" stroke="#bfbfbf" points="738,-0.5 738,-19.5 786,-19.5 786,-0.5 738,-0.5"/>
<text text-anchor="middle" x="762" y="-7.5" font-family="Helvetica,sans-Serif" font-size="10.00">limits.h</text>
</g>
<!-- Node7&#45;&gt;Node13 -->
<g id="edge13" class="edge"><title>Node7&#45;&gt;Node13</title>
<path fill="none" stroke="midnightblue" d="M676.388,-56.324C692.671,-47.7034 717.867,-34.3643 736.716,-24.3855"/>
<polygon fill="midnightblue" stroke="midnightblue" points="738.452,-27.4267 745.653,-19.6545 735.177,-21.2402 738.452,-27.4267"/>
</g>
<!-- Node14&#45;&gt;Node8 -->
<g id="edge15" class="edge"><title>Node14&#45;&gt;Node8</title>
<path fill="none" stroke="midnightblue" d="M578.055,-56.083C573.023,-48.5341 565.663,-37.4948 559.487,-28.2298"/>
<polygon fill="midnightblue" stroke="midnightblue" points="562.293,-26.1301 553.834,-19.7511 556.469,-30.0131 562.293,-26.1301"/>
</g>
<!-- Node14&#45;&gt;Node9 -->
<g id="edge16" class="edge"><title>Node14&#45;&gt;Node9</title>
<path fill="none" stroke="midnightblue" d="M567.773,-56.324C551.649,-47.7034 526.7,-34.3643 508.036,-24.3855"/>
<polygon fill="midnightblue" stroke="midnightblue" points="509.656,-21.283 499.187,-19.6545 506.356,-27.456 509.656,-21.283"/>
</g>
<!-- Node15&#45;&gt;Node4 -->
<g id="edge18" class="edge"><title>Node15&#45;&gt;Node4</title>
<path fill="none" stroke="midnightblue" d="M316.475,-116.462C268.632,-109.023 170.968,-93.4777 78.3447,-76.1937"/>
<polygon fill="midnightblue" stroke="midnightblue" points="78.7166,-72.7025 68.2426,-74.2977 77.4254,-79.5823 78.7166,-72.7025"/>
</g>
<!-- Node16 -->
<g id="node16" class="node"><title>Node16</title>
<polygon fill="none" stroke="#bfbfbf" points="155.5,-56.5 155.5,-75.5 228.5,-75.5 228.5,-56.5 155.5,-56.5"/>
<text text-anchor="middle" x="192" y="-63.5" font-family="Helvetica,sans-Serif" font-size="10.00">sys/socket.h</text>
</g>
<!-- Node15&#45;&gt;Node16 -->
<g id="edge19" class="edge"><title>Node15&#45;&gt;Node16</title>
<path fill="none" stroke="midnightblue" d="M321.598,-112.444C295.803,-103.399 254.923,-89.064 225.982,-78.9158"/>
<polygon fill="midnightblue" stroke="midnightblue" points="226.882,-75.5226 216.288,-75.5164 224.566,-82.1283 226.882,-75.5226"/>
</g>
<!-- Node17 -->
<g id="node17" class="node"><title>Node17</title>
<polygon fill="none" stroke="#bfbfbf" points="246.5,-56.5 246.5,-75.5 295.5,-75.5 295.5,-56.5 246.5,-56.5"/>
<text text-anchor="middle" x="271" y="-63.5" font-family="Helvetica,sans-Serif" font-size="10.00">netdb.h</text>
</g>
<!-- Node15&#45;&gt;Node17 -->
<g id="edge20" class="edge"><title>Node15&#45;&gt;Node17</title>
<path fill="none" stroke="midnightblue" d="M333.95,-112.324C322.537,-104.107 305.169,-91.6017 291.565,-81.8069"/>
<polygon fill="midnightblue" stroke="midnightblue" points="293.43,-78.8366 283.269,-75.8339 289.34,-84.5174 293.43,-78.8366"/>
</g>
<!-- Node15&#45;&gt;Node6 -->
<g id="edge21" class="edge"><title>Node15&#45;&gt;Node6</title>
<path fill="none" stroke="midnightblue" d="M316.437,-114.711C279.246,-106.72 213.183,-92.2661 147.674,-76.3471"/>
<polygon fill="midnightblue" stroke="midnightblue" points="148.138,-72.8577 137.594,-73.8846 146.477,-79.6578 148.138,-72.8577"/>
</g>
<!-- Node18 -->
<g id="node18" class="node"><title>Node18</title>
<polygon fill="none" stroke="#bfbfbf" points="313.5,-56.5 313.5,-75.5 378.5,-75.5 378.5,-56.5 313.5,-56.5"/>
<text text-anchor="middle" x="346" y="-63.5" font-family="Helvetica,sans-Serif" font-size="10.00">netinet/in.h</text>
</g>
<!-- Node15&#45;&gt;Node18 -->
<g id="edge22" class="edge"><title>Node15&#45;&gt;Node18</title>
<path fill="none" stroke="midnightblue" d="M346,-112.083C346,-105.006 346,-94.8611 346,-85.9865"/>
<polygon fill="midnightblue" stroke="midnightblue" points="349.5,-85.751 346,-75.7511 342.5,-85.7511 349.5,-85.751"/>
</g>
<!-- Node19 -->
<g id="node19" class="node"><title>Node19</title>
<polygon fill="none" stroke="#bfbfbf" points="397,-56.5 397,-75.5 459,-75.5 459,-56.5 397,-56.5"/>
<text text-anchor="middle" x="428" y="-63.5" font-family="Helvetica,sans-Serif" font-size="10.00">arpa/inet.h</text>
</g>
<!-- Node15&#45;&gt;Node19 -->
<g id="edge23" class="edge"><title>Node15&#45;&gt;Node19</title>
<path fill="none" stroke="midnightblue" d="M359.175,-112.324C371.847,-103.979 391.233,-91.2122 406.206,-81.3524"/>
<polygon fill="midnightblue" stroke="midnightblue" points="408.431,-84.0776 414.858,-75.6545 404.581,-78.2313 408.431,-84.0776"/>
</g>
<!-- Node20 -->
<g id="node20" class="node"><title>Node20</title>
<polygon fill="none" stroke="#bfbfbf" points="477,-56.5 477,-75.5 531,-75.5 531,-56.5 477,-56.5"/>
<text text-anchor="middle" x="504" y="-63.5" font-family="Helvetica,sans-Serif" font-size="10.00">ifaddrs.h</text>
</g>
<!-- Node15&#45;&gt;Node20 -->
<g id="edge24" class="edge"><title>Node15&#45;&gt;Node20</title>
<path fill="none" stroke="midnightblue" d="M371.036,-112.444C397.616,-103.359 439.809,-88.9388 469.523,-78.7831"/>
<polygon fill="midnightblue" stroke="midnightblue" points="470.751,-82.0625 479.082,-75.5164 468.487,-75.4386 470.751,-82.0625"/>
</g>
<!-- Node15&#45;&gt;Node7 -->
<g id="edge25" class="edge"><title>Node15&#45;&gt;Node7</title>
<path fill="none" stroke="midnightblue" d="M375.851,-117.394C425.836,-111.107 529.762,-96.9749 626.7,-76.0785"/>
<polygon fill="midnightblue" stroke="midnightblue" points="627.638,-79.4561 636.66,-73.9017 626.143,-72.6176 627.638,-79.4561"/>
</g>
</g>
</svg>
        <g id="navigator" transform="translate(0 0)" fill="#404254">
                <rect fill="#f2f5e9" fill-opacity="0.5" stroke="#606060" stroke-width=".5" x="0" y="0" width="60" height="60"/>
                <use id="zoomplus" xlink:href="#zoomPlus" x="17" y="9" onmousedown="handleZoom(evt,'in')"/>
                <use id="zoomminus" xlink:href="#zoomMin" x="42" y="9" onmousedown="handleZoom(evt,'out')"/>
                <use id="reset" xlink:href="#resetDef" x="30" y="36" onmousedown="handleReset()"/>
                <g id="arrowUp" xlink:href="#dirArrow" transform="translate(30 24)" onmousedown="handlePan(0,-1)">
                  <use xlink:href="#rim" fill="#404040">
                        <set attributeName="fill" to="#808080" begin="arrowUp.mouseover" end="arrowUp.mouseout"/>
                  </use>
                  <path fill="none" stroke="white" stroke-width="1.5" d="M0,-3.0v7 M-2.5,-0.5L0,-3.0L2.5,-0.5"/>
                </g>
                <g id="arrowRight" xlink:href="#dirArrow" transform="rotate(90) translate(36 -43)" onmousedown="handlePan(1,0)">
                  <use xlink:href="#rim" fill="#404040">
                        <set attributeName="fill" to="#808080" begin="arrowRight.mouseover" end="arrowRight.mouseout"/>
                  </use>
                  <path fill="none" stroke="white" stroke-width="1.5" d="M0,-3.0v7 M-2.5,-0.5L0,-3.0L2.5,-0.5"/>
                </g>
                <g id="arrowDown" xlink:href="#dirArrow" transform="rotate(180) translate(-30 -48)" onmousedown="handlePan(0,1)">
                  <use xlink:href="#rim" fill="#404040">
                        <set attributeName="fill" to="#808080" begin="arrowDown.mouseover" end="arrowDown.mouseout"/>
                  </use>
                  <path fill="none" stroke="white" stroke-width="1.5" d="M0,-3.0v7 M-2.5,-0.5L0,-3.0L2.5,-0.5"/>
                </g>
                <g id="arrowLeft" xlink:href="#dirArrow" transform="rotate(270) translate(-36 17)" onmousedown="handlePan(-1,0)">
                  <use xlink:href="#rim" fill="#404040">
                        <set attributeName="fill" to="#808080" begin="arrowLeft.mouseover" end="arrowLeft.mouseout"/>
                  </use>
                  <path fill="none" stroke="white" stroke-width="1.5" d="M0,-3.0v7 M-2.5,-0.5L0,-3.0L2.5,-0.5"/>
                </g>
        </g>
        <svg viewBox="0 0 15 15" width="100%" height="30px" preserveAspectRatio="xMaxYMin meet">
         <g id="arrow_out" transform="scale(0.3 0.3)">
          <a xlink:href="ip__util_8h__incl_org.svg" target="_base">
           <rect id="button" ry="5" rx="5" y="6" x="6" height="38" width="38"
                fill="#f2f5e9" fill-opacity="0.5" stroke="#606060" stroke-width="1.0"/>
           <path id="arrow"
             d="M 11.500037,31.436501 C 11.940474,20.09759 22.043105,11.32322 32.158766,21.979434 L 37.068811,17.246167 C 37.068811,17.246167 37.088388,32 37.088388,32 L 22.160133,31.978069 C 22.160133,31.978069 26.997745,27.140456 26.997745,27.140456 C 18.528582,18.264221 13.291696,25.230495 11.500037,31.436501 z"
             style="fill:#404040;"/>
          </a>
         </g>
        </svg>
</svg>
