<?xml version="1.0" encoding="UTF-8" standalone="no"?>
<!DOCTYPE svg PUBLIC "-//W3C//DTD SVG 1.1//EN"
 "http://www.w3.org/Graphics/SVG/1.1/DTD/svg11.dtd">
<!-- Generated by graphviz version 2.30.1 (20130712.1527)
 -->
<!-- Title: pq_error Pages: 1 -->
<svg width="162pt" height="104pt"
 viewBox="0.00 0.00 162.00 104.00" xmlns="http://www.w3.org/2000/svg" xmlns:xlink="http://www.w3.org/1999/xlink">
<g id="graph0" class="graph" transform="scale(1 1) rotate(0) translate(4 100)">
<title>pq_error</title>
<!-- Node1 -->
<g id="node1" class="node"><title>Node1</title>
<polygon fill="#bfbfbf" stroke="black" points="0,-38.5 0,-57.5 52,-57.5 52,-38.5 0,-38.5"/>
<text text-anchor="middle" x="26" y="-45.5" font-family="Helvetica,sans-Serif" font-size="10.00">pq_error</text>
</g>
<!-- Node2 -->
<g id="node2" class="node"><title>Node2</title>
<g id="a_node2"><a xlink:href="../../d3/d5a/base_8h_ae623276cbf1bde50b7a575831daf76f4.html#ae623276cbf1bde50b7a575831daf76f4" target="_top" xlink:title="Allouer et initialiser à 0 une zone mémoire de taille n * size, et quitter en cas d&#39;erreur...">
<polygon fill="none" stroke="black" points="94.5,-76.5 94.5,-95.5 147.5,-95.5 147.5,-76.5 94.5,-76.5"/>
<text text-anchor="middle" x="121" y="-83.5" font-family="Helvetica,sans-Serif" font-size="10.00">q_calloc</text>
</a>
</g>
</g>
<!-- Node1&#45;&gt;Node2 -->
<g id="edge1" class="edge"><title>Node1&#45;&gt;Node2</title>
<path fill="none" stroke="midnightblue" d="M59.8228,-61.4114C71.9396,-66.3624 85.4165,-71.8691 96.5397,-76.4141"/>
<polygon fill="midnightblue" stroke="midnightblue" points="61.0488,-58.1315 50.4678,-57.589 58.401,-64.6115 61.0488,-58.1315"/>
</g>
<!-- Node3 -->
<g id="node3" class="node"><title>Node3</title>
<g id="a_node3"><a xlink:href="../../d3/d5a/base_8h_af9352e37b985cf43cf620dc7685822cf.html#af9352e37b985cf43cf620dc7685822cf" target="_top" xlink:title="Allouer une zone mémoire, et quitter en cas d&#39;erreur.">
<polygon fill="none" stroke="black" points="93,-38.5 93,-57.5 149,-57.5 149,-38.5 93,-38.5"/>
<text text-anchor="middle" x="121" y="-45.5" font-family="Helvetica,sans-Serif" font-size="10.00">q_malloc</text>
</a>
</g>
</g>
<!-- Node1&#45;&gt;Node3 -->
<g id="edge2" class="edge"><title>Node1&#45;&gt;Node3</title>
<path fill="none" stroke="midnightblue" d="M62.5814,-48C72.6745,-48 83.495,-48 92.9912,-48"/>
<polygon fill="midnightblue" stroke="midnightblue" points="62.4127,-44.5001 52.4127,-48 62.4126,-51.5001 62.4127,-44.5001"/>
</g>
<!-- Node4 -->
<g id="node4" class="node"><title>Node4</title>
<g id="a_node4"><a xlink:href="../../d3/d5a/base_8h_a7bf26965f66da3c226bea76cb09ef6ff.html#a7bf26965f66da3c226bea76cb09ef6ff" target="_top" xlink:title="Allouer une zone mémoire de taille n * size, et quitter en cas d&#39;erreur.">
<polygon fill="none" stroke="black" points="88,-0.5 88,-19.5 154,-19.5 154,-0.5 88,-0.5"/>
<text text-anchor="middle" x="121" y="-7.5" font-family="Helvetica,sans-Serif" font-size="10.00">q_malloc_n</text>
</a>
</g>
</g>
<!-- Node1&#45;&gt;Node4 -->
<g id="edge3" class="edge"><title>Node1&#45;&gt;Node4</title>
<path fill="none" stroke="midnightblue" d="M59.8228,-34.5886C71.9396,-29.6376 85.4165,-24.1309 96.5397,-19.5859"/>
<polygon fill="midnightblue" stroke="midnightblue" points="58.401,-31.3885 50.4678,-38.411 61.0488,-37.8685 58.401,-31.3885"/>
</g>
</g>
</svg>
