<?xml version="1.0" encoding="UTF-8" standalone="no"?>
<!DOCTYPE svg PUBLIC "-//W3C//DTD SVG 1.1//EN"
 "http://www.w3.org/Graphics/SVG/1.1/DTD/svg11.dtd">
<!-- Generated by graphviz version 2.30.1 (20130712.1527)
 -->
<!-- Title: q_malloc_n Pages: 1 -->
<svg width="166pt" height="66pt"
 viewBox="0.00 0.00 166.00 66.00" xmlns="http://www.w3.org/2000/svg" xmlns:xlink="http://www.w3.org/1999/xlink">
<g id="graph0" class="graph" transform="scale(1 1) rotate(0) translate(4 62)">
<title>q_malloc_n</title>
<!-- Node1 -->
<g id="node1" class="node"><title>Node1</title>
<polygon fill="#bfbfbf" stroke="black" points="0,-19.5 0,-38.5 66,-38.5 66,-19.5 0,-19.5"/>
<text text-anchor="middle" x="33" y="-26.5" font-family="Helvetica,sans-Serif" font-size="10.00">q_malloc_n</text>
</g>
<!-- Node2 -->
<g id="node2" class="node"><title>Node2</title>
<g id="a_node2"><a xlink:href="../../d3/d5a/base_8h_a365a74c7ca19d16351d437c6a7f8beb8.html#a365a74c7ca19d16351d437c6a7f8beb8" target="_top" xlink:title="Allouer une zone mémoire de taille n * size.">
<polygon fill="none" stroke="black" points="102,-38.5 102,-57.5 158,-57.5 158,-38.5 102,-38.5"/>
<text text-anchor="middle" x="130" y="-45.5" font-family="Helvetica,sans-Serif" font-size="10.00">malloc_n</text>
</a>
</g>
</g>
<!-- Node1&#45;&gt;Node2 -->
<g id="edge1" class="edge"><title>Node1&#45;&gt;Node2</title>
<path fill="none" stroke="midnightblue" d="M66.1627,-35.4325C74.4287,-37.0857 83.3889,-38.8778 91.8834,-40.5767"/>
<polygon fill="midnightblue" stroke="midnightblue" points="91.4435,-44.0579 101.936,-42.5871 92.8163,-37.1939 91.4435,-44.0579"/>
</g>
<!-- Node3 -->
<g id="node3" class="node"><title>Node3</title>
<g id="a_node3"><a xlink:href="../../d3/d5a/base_8h_a6f35a5b2b2bcf4abc5dc896d4daa5642.html#a6f35a5b2b2bcf4abc5dc896d4daa5642" target="_top" xlink:title="Afficher un message d&#39;erreur, puis quitter.">
<polygon fill="none" stroke="black" points="104,-0.5 104,-19.5 156,-19.5 156,-0.5 104,-0.5"/>
<text text-anchor="middle" x="130" y="-7.5" font-family="Helvetica,sans-Serif" font-size="10.00">pq_error</text>
</a>
</g>
</g>
<!-- Node1&#45;&gt;Node3 -->
<g id="edge2" class="edge"><title>Node1&#45;&gt;Node3</title>
<path fill="none" stroke="midnightblue" d="M66.1627,-22.5675C75.0797,-20.7841 84.8046,-18.8391 93.8811,-17.0238"/>
<polygon fill="midnightblue" stroke="midnightblue" points="94.6562,-20.4382 103.776,-15.0449 93.2833,-13.5741 94.6562,-20.4382"/>
</g>
</g>
</svg>
