<?xml version="1.0" encoding="UTF-8" standalone="no"?>
<!DOCTYPE svg PUBLIC "-//W3C//DTD SVG 1.1//EN"
 "http://www.w3.org/Graphics/SVG/1.1/DTD/svg11.dtd">
<!-- Generated by graphviz version 2.30.1 (20130712.1527)
 -->
<!-- Title: check_pointer Pages: 1 -->
<!--zoomable 1446 -->
<svg id="main" version="1.1" xmlns="http://www.w3.org/2000/svg" xmlns:xlink="http://www.w3.org/1999/xlink" xml:space="preserve" onload="init(evt)">
        <defs>
                <circle id="rim" cx="0" cy="0" r="7"/>
                <circle id="rim2" cx="0" cy="0" r="3.5"/>
                <g id="zoomPlus">
                        <use xlink:href="#rim" fill="#404040">
                                <set attributeName="fill" to="#808080" begin="zoomplus.mouseover" end="zoomplus.mouseout"/>
                        </use>
                        <path d="M-4,0h8M0,-4v8" fill="none" stroke="white" stroke-width="1.5" pointer-events="none"/>
                </g>
                <g id="zoomMin">
                        <use xlink:href="#rim" fill="#404040">
                                <set attributeName="fill" to="#808080" begin="zoomminus.mouseover" end="zoomminus.mouseout"/>
                        </use>
                        <path d="M-4,0h8" fill="none" stroke="white" stroke-width="1.5" pointer-events="none"/>
                </g>
                <g id="dirArrow">
                        <path fill="none" stroke="white" stroke-width="1.5" d="M0,-3.0v7 M-2.5,-0.5L0,-3.0L2.5,-0.5"/>
                </g>
               <g id="resetDef">
                       <use xlink:href="#rim2" fill="#404040">
                               <set attributeName="fill" to="#808080" begin="reset.mouseover" end="reset.mouseout"/>
                       </use>
               </g>
        </defs>

<script type="text/javascript">
var viewWidth = 446;
var viewHeight = 1446;
var sectionId = 'dynsection-0';
</script>
<script xlink:href="../../svgpan.js"/>
<svg id="graph" class="graph">
<g id="viewport">
<title>check_pointer</title>
<!-- Node1 -->
<g id="node1" class="node"><title>Node1</title>
<polygon fill="#bfbfbf" stroke="black" points="0.5,-703.5 0.5,-722.5 77.5,-722.5 77.5,-703.5 0.5,-703.5"/>
<text text-anchor="middle" x="39" y="-710.5" font-family="Helvetica,sans-Serif" font-size="10.00">check_pointer</text>
</g>
<!-- Node2 -->
<g id="node2" class="node"><title>Node2</title>
<g id="a_node2"><a xlink:href="../../d1/d3e/address_8c_a049129a0c931708a99bfbc0856b7a12f.html#a049129a0c931708a99bfbc0856b7a12f" target="_top" xlink:title="Extraire une IPv4.">
<polygon fill="none" stroke="black" points="151,-1342.5 151,-1361.5 221,-1361.5 221,-1342.5 151,-1342.5"/>
<text text-anchor="middle" x="186" y="-1349.5" font-family="Helvetica,sans-Serif" font-size="10.00">extract_ipv4</text>
</a>
</g>
</g>
<!-- Node1&#45;&gt;Node2 -->
<g id="edge1" class="edge"><title>Node1&#45;&gt;Node2</title>
<path fill="none" stroke="midnightblue" d="M39.6466,-732.986C38.3645,-828.063 37.511,-1233.85 114,-1328 123.025,-1339.11 137.403,-1345.1 150.868,-1348.32"/>
<polygon fill="midnightblue" stroke="midnightblue" points="43.1496,-732.809 39.8037,-722.756 36.1504,-732.702 43.1496,-732.809"/>
</g>
<!-- Node5 -->
<g id="node5" class="node"><title>Node5</title>
<g id="a_node5"><a xlink:href="../../da/d7b/ip__util_8c_a4ba1e2ac83002b70221c514724ec901f.html#a4ba1e2ac83002b70221c514724ec901f" target="_top" xlink:title="Initialiser un pseudo header IPv6.">
<polygon fill="none" stroke="black" points="141,-1266.5 141,-1285.5 231,-1285.5 231,-1266.5 141,-1266.5"/>
<text text-anchor="middle" x="186" y="-1273.5" font-family="Helvetica,sans-Serif" font-size="10.00">fake_ip6_hdr_init</text>
</a>
</g>
</g>
<!-- Node1&#45;&gt;Node5 -->
<g id="edge4" class="edge"><title>Node1&#45;&gt;Node5</title>
<path fill="none" stroke="midnightblue" d="M39.8715,-732.685C39.7027,-820.65 43.4455,-1176.92 114,-1257 120.917,-1264.85 130.688,-1269.62 140.774,-1272.48"/>
<polygon fill="midnightblue" stroke="midnightblue" points="43.3721,-732.522 39.9122,-722.508 36.3722,-732.494 43.3721,-732.522"/>
</g>
<!-- Node7 -->
<g id="node7" class="node"><title>Node7</title>
<g id="a_node7"><a xlink:href="../../da/d7b/ip__util_8c_ac2d4373d14ffe78af20dfcd4e3a1bd01.html#ac2d4373d14ffe78af20dfcd4e3a1bd01" target="_top" xlink:title="Afficher un pseudo header IPv6.">
<polygon fill="none" stroke="black" points="138,-1228.5 138,-1247.5 234,-1247.5 234,-1228.5 138,-1228.5"/>
<text text-anchor="middle" x="186" y="-1235.5" font-family="Helvetica,sans-Serif" font-size="10.00">fake_ip6_hdr_print</text>
</a>
</g>
</g>
<!-- Node1&#45;&gt;Node7 -->
<g id="edge6" class="edge"><title>Node1&#45;&gt;Node7</title>
<path fill="none" stroke="midnightblue" d="M40.0962,-732.899C40.912,-817.357 48.3252,-1145.21 114,-1219 120.278,-1226.05 128.859,-1230.62 137.887,-1233.54"/>
<polygon fill="midnightblue" stroke="midnightblue" points="43.5943,-732.622 40.0195,-722.648 36.5945,-732.674 43.5943,-732.622"/>
</g>
<!-- Node9 -->
<g id="node9" class="node"><title>Node9</title>
<g id="a_node9"><a xlink:href="../../da/d7b/ip__util_8c_ac89b144477feb841b07b2b2d7fb575a5.html#ac89b144477feb841b07b2b2d7fb575a5" target="_top" xlink:title="Changer l&#39;adresse de destination.">
<polygon fill="none" stroke="black" points="114.5,-1076.5 114.5,-1095.5 257.5,-1095.5 257.5,-1076.5 114.5,-1076.5"/>
<text text-anchor="middle" x="186" y="-1083.5" font-family="Helvetica,sans-Serif" font-size="10.00">fake_ip6_hdr_set_destination</text>
</a>
</g>
</g>
<!-- Node1&#45;&gt;Node9 -->
<g id="edge8" class="edge"><title>Node1&#45;&gt;Node9</title>
<path fill="none" stroke="midnightblue" d="M41.4418,-732.615C46.7544,-799.581 67.397,-1017.74 114,-1067 117.595,-1070.8 121.86,-1073.87 126.488,-1076.35"/>
<polygon fill="midnightblue" stroke="midnightblue" points="44.9262,-732.276 40.6716,-722.573 37.9467,-732.812 44.9262,-732.276"/>
</g>
<!-- Node10 -->
<g id="node10" class="node"><title>Node10</title>
<g id="a_node10"><a xlink:href="../../da/d7b/ip__util_8c_a9848c4a68a26feeee107c859d2f37002.html#a9848c4a68a26feeee107c859d2f37002" target="_top" xlink:title="Changer la taille.">
<polygon fill="none" stroke="black" points="125,-1038.5 125,-1057.5 247,-1057.5 247,-1038.5 125,-1038.5"/>
<text text-anchor="middle" x="186" y="-1045.5" font-family="Helvetica,sans-Serif" font-size="10.00">fake_ip6_hdr_set_length</text>
</a>
</g>
</g>
<!-- Node1&#45;&gt;Node10 -->
<g id="edge9" class="edge"><title>Node1&#45;&gt;Node10</title>
<path fill="none" stroke="midnightblue" d="M42.0388,-732.818C48.8238,-795.007 72.5884,-984.732 114,-1028 118.162,-1032.35 123.188,-1035.77 128.622,-1038.47"/>
<polygon fill="midnightblue" stroke="midnightblue" points="45.5066,-732.328 40.9691,-722.754 38.5458,-733.068 45.5066,-732.328"/>
</g>
<!-- Node11 -->
<g id="node11" class="node"><title>Node11</title>
<g id="a_node11"><a xlink:href="../../da/d7b/ip__util_8c_a68982beab82ab80e5a561e9b2b621868.html#a68982beab82ab80e5a561e9b2b621868" target="_top" xlink:title="Changer le header suivant.">
<polygon fill="none" stroke="black" points="128.5,-989 128.5,-1019 243.5,-1019 243.5,-989 128.5,-989"/>
<text text-anchor="start" x="136.5" y="-1007" font-family="Helvetica,sans-Serif" font-size="10.00">fake_ip6_hdr_set_next</text>
<text text-anchor="middle" x="186" y="-996" font-family="Helvetica,sans-Serif" font-size="10.00">_header</text>
</a>
</g>
</g>
<!-- Node1&#45;&gt;Node11 -->
<g id="edge10" class="edge"><title>Node1&#45;&gt;Node11</title>
<path fill="none" stroke="midnightblue" d="M39.6542,-732.86C39.9027,-781.476 47.3249,-907.685 114,-979 118.105,-983.391 123.028,-987.011 128.341,-989.996"/>
<polygon fill="midnightblue" stroke="midnightblue" points="43.1547,-732.749 39.7059,-722.731 36.1548,-732.713 43.1547,-732.749"/>
</g>
<!-- Node12 -->
<g id="node12" class="node"><title>Node12</title>
<g id="a_node12"><a xlink:href="../../da/d7b/ip__util_8c_a7d99013b213a4295cd4c9ba26942eab8.html#a7d99013b213a4295cd4c9ba26942eab8" target="_top" xlink:title="Changer l&#39;adresse source.">
<polygon fill="none" stroke="black" points="123.5,-950.5 123.5,-969.5 248.5,-969.5 248.5,-950.5 123.5,-950.5"/>
<text text-anchor="middle" x="186" y="-957.5" font-family="Helvetica,sans-Serif" font-size="10.00">fake_ip6_hdr_set_source</text>
</a>
</g>
</g>
<!-- Node1&#45;&gt;Node12 -->
<g id="edge11" class="edge"><title>Node1&#45;&gt;Node12</title>
<path fill="none" stroke="midnightblue" d="M40.4183,-732.982C42.4627,-777.177 53.7395,-883.815 114,-941 118.073,-944.865 122.843,-947.962 127.95,-950.442"/>
<polygon fill="midnightblue" stroke="midnightblue" points="43.9144,-732.806 40.0681,-722.934 36.9187,-733.05 43.9144,-732.806"/>
</g>
<!-- Node13 -->
<g id="node13" class="node"><title>Node13</title>
<g id="a_node13"><a xlink:href="../../da/d7b/ip__util_8c_a0fbcd3f250cc290d3090fdbf323b1080.html#a0fbcd3f250cc290d3090fdbf323b1080" target="_top" xlink:title="Zeros.">
<polygon fill="none" stroke="black" points="126,-912.5 126,-931.5 246,-931.5 246,-912.5 126,-912.5"/>
<text text-anchor="middle" x="186" y="-919.5" font-family="Helvetica,sans-Serif" font-size="10.00">fake_ip6_hdr_set_zeros</text>
</a>
</g>
</g>
<!-- Node1&#45;&gt;Node13 -->
<g id="edge12" class="edge"><title>Node1&#45;&gt;Node13</title>
<path fill="none" stroke="midnightblue" d="M41.9221,-733.01C46.7355,-771.748 62.8615,-857.195 114,-903 118.277,-906.831 123.244,-909.902 128.527,-912.363"/>
<polygon fill="midnightblue" stroke="midnightblue" points="45.3467,-732.136 40.7653,-722.583 38.3894,-732.908 45.3467,-732.136"/>
</g>
<!-- Node14 -->
<g id="node14" class="node"><title>Node14</title>
<g id="a_node14"><a xlink:href="../../da/d7b/ip__util_8c_a3525fdaa8240437e22de4fae5a7403e7.html#a3525fdaa8240437e22de4fae5a7403e7" target="_top" xlink:title="Changer l&#39;adresse destination d&#39;un pseudo header IPv4.">
<polygon fill="none" stroke="black" points="119.5,-874.5 119.5,-893.5 252.5,-893.5 252.5,-874.5 119.5,-874.5"/>
<text text-anchor="middle" x="186" y="-881.5" font-family="Helvetica,sans-Serif" font-size="10.00">fake_iphdr_set_destination</text>
</a>
</g>
</g>
<!-- Node1&#45;&gt;Node14 -->
<g id="edge13" class="edge"><title>Node1&#45;&gt;Node14</title>
<path fill="none" stroke="midnightblue" d="M44.0067,-732.587C51.6982,-765.101 71.6664,-830.089 114,-865 118.725,-868.897 124.175,-872 129.911,-874.471"/>
<polygon fill="midnightblue" stroke="midnightblue" points="47.3617,-731.549 41.7815,-722.543 40.5274,-733.063 47.3617,-731.549"/>
</g>
<!-- Node15 -->
<g id="node15" class="node"><title>Node15</title>
<g id="a_node15"><a xlink:href="../../da/d7b/ip__util_8c_ad51c69641fa2675e74e17238f6c4cac0.html#ad51c69641fa2675e74e17238f6c4cac0" target="_top" xlink:title="Changer l&#39;adresse source d&#39;un pseudo header IPv4.">
<polygon fill="none" stroke="black" points="130,-836.5 130,-855.5 242,-855.5 242,-836.5 130,-836.5"/>
<text text-anchor="middle" x="186" y="-843.5" font-family="Helvetica,sans-Serif" font-size="10.00">fake_iphdr_set_length</text>
</a>
</g>
</g>
<!-- Node1&#45;&gt;Node15 -->
<g id="edge14" class="edge"><title>Node1&#45;&gt;Node15</title>
<path fill="none" stroke="midnightblue" d="M47.1997,-732.003C57.8565,-757.526 80.2752,-802.501 114,-827 119.368,-830.9 125.485,-833.999 131.825,-836.463"/>
<polygon fill="midnightblue" stroke="midnightblue" points="50.4286,-730.651 43.4659,-722.665 43.929,-733.25 50.4286,-730.651"/>
</g>
<!-- Node16 -->
<g id="node16" class="node"><title>Node16</title>
<g id="a_node16"><a xlink:href="../../da/d7b/ip__util_8c_a5a3a00349fa462a9d3be59ce957fcefb.html#a5a3a00349fa462a9d3be59ce957fcefb" target="_top" xlink:title="Changer le protocole d&#39;un pseudo header IPv4.">
<polygon fill="none" stroke="black" points="126,-798.5 126,-817.5 246,-817.5 246,-798.5 126,-798.5"/>
<text text-anchor="middle" x="186" y="-805.5" font-family="Helvetica,sans-Serif" font-size="10.00">fake_iphdr_set_protocol</text>
</a>
</g>
</g>
<!-- Node1&#45;&gt;Node16 -->
<g id="edge15" class="edge"><title>Node1&#45;&gt;Node16</title>
<path fill="none" stroke="midnightblue" d="M52.666,-730.731C66.0013,-748.108 88.5637,-774.093 114,-789 120.605,-792.871 128.015,-795.971 135.488,-798.449"/>
<polygon fill="midnightblue" stroke="midnightblue" points="55.3441,-728.467 46.5672,-722.533 49.7277,-732.645 55.3441,-728.467"/>
</g>
<!-- Node17 -->
<g id="node17" class="node"><title>Node17</title>
<g id="a_node17"><a xlink:href="../../da/d7b/ip__util_8c_a80aebae96e06ed3ec2480a4e570a797f.html#a80aebae96e06ed3ec2480a4e570a797f" target="_top" xlink:title="Changer l&#39;adresse source d&#39;un pseudo header IPv4.">
<polygon fill="none" stroke="black" points="128.5,-760.5 128.5,-779.5 243.5,-779.5 243.5,-760.5 128.5,-760.5"/>
<text text-anchor="middle" x="186" y="-767.5" font-family="Helvetica,sans-Serif" font-size="10.00">fake_iphdr_set_source</text>
</a>
</g>
</g>
<!-- Node1&#45;&gt;Node17 -->
<g id="edge16" class="edge"><title>Node1&#45;&gt;Node17</title>
<path fill="none" stroke="midnightblue" d="M65.3003,-727.694C79.3162,-735.396 97.2483,-744.542 114,-751 123.287,-754.58 133.506,-757.742 143.227,-760.409"/>
<polygon fill="midnightblue" stroke="midnightblue" points="66.7202,-724.478 56.2853,-722.645 63.2992,-730.585 66.7202,-724.478"/>
</g>
<!-- Node18 -->
<g id="node18" class="node"><title>Node18</title>
<g id="a_node18"><a xlink:href="../../da/d7b/ip__util_8c_ab50f6092f5db61bfba784bad47143158.html#ab50f6092f5db61bfba784bad47143158" target="_top" xlink:title="ZEROS !">
<polygon fill="none" stroke="black" points="131,-722.5 131,-741.5 241,-741.5 241,-722.5 131,-722.5"/>
<text text-anchor="middle" x="186" y="-729.5" font-family="Helvetica,sans-Serif" font-size="10.00">fake_iphdr_set_zeros</text>
</a>
</g>
</g>
<!-- Node1&#45;&gt;Node18 -->
<g id="edge17" class="edge"><title>Node1&#45;&gt;Node18</title>
<path fill="none" stroke="midnightblue" d="M87.9245,-719.28C101.661,-721.08 116.733,-723.055 130.818,-724.9"/>
<polygon fill="midnightblue" stroke="midnightblue" points="88.0885,-715.771 77.7185,-717.942 87.179,-722.712 88.0885,-715.771"/>
</g>
<!-- Node19 -->
<g id="node19" class="node"><title>Node19</title>
<g id="a_node19"><a xlink:href="../../de/df3/packet_8c_a974a33d2edadacf13bcb4e2b4d9ec144.html#a974a33d2edadacf13bcb4e2b4d9ec144" target="_top" xlink:title="Construire un paquet IPv4 + ICMP.">
<polygon fill="none" stroke="black" points="318.5,-627.5 318.5,-646.5 413.5,-646.5 413.5,-627.5 318.5,-627.5"/>
<text text-anchor="middle" x="366" y="-634.5" font-family="Helvetica,sans-Serif" font-size="10.00">icmp4_packet_init</text>
</a>
</g>
</g>
<!-- Node1&#45;&gt;Node19 -->
<g id="edge18" class="edge"><title>Node1&#45;&gt;Node19</title>
<path fill="none" stroke="midnightblue" d="M87.7889,-707.035C132.292,-700.924 200.26,-690.169 258,-675 287.362,-667.286 320.119,-655.102 341.56,-646.617"/>
<polygon fill="midnightblue" stroke="midnightblue" points="87.2745,-703.572 77.8322,-708.378 88.2104,-710.51 87.2745,-703.572"/>
</g>
<!-- Node20 -->
<g id="node20" class="node"><title>Node20</title>
<g id="a_node20"><a xlink:href="../../de/df3/packet_8c_af095ed91818f00ec8eb99f95ad89f6f9.html#af095ed91818f00ec8eb99f95ad89f6f9" target="_top" xlink:title="Changer la sequence d&#39;un paquet IPv4+ICMP ECHO_REQUEST.">
<polygon fill="none" stroke="black" points="294.5,-551.5 294.5,-570.5 437.5,-570.5 437.5,-551.5 294.5,-551.5"/>
<text text-anchor="middle" x="366" y="-558.5" font-family="Helvetica,sans-Serif" font-size="10.00">icmp4_packet_set_echo_seq</text>
</a>
</g>
</g>
<!-- Node1&#45;&gt;Node20 -->
<g id="edge19" class="edge"><title>Node1&#45;&gt;Node20</title>
<path fill="none" stroke="midnightblue" d="M42.9207,-693.082C49.1096,-659.006 67.0497,-590.361 114,-561 182.905,-517.909 284.628,-537.603 334.782,-551.472"/>
<polygon fill="midnightblue" stroke="midnightblue" points="39.4249,-692.769 41.2474,-703.206 46.3312,-693.911 39.4249,-692.769"/>
</g>
<!-- Node21 -->
<g id="node21" class="node"><title>Node21</title>
<g id="a_node21"><a xlink:href="../../de/df3/packet_8c_a78f2571ca3a9de9c544c5660e240bcc3.html#a78f2571ca3a9de9c544c5660e240bcc3" target="_top" xlink:title="Changer la taille d&#39;un paquet.">
<polygon fill="none" stroke="black" points="122,-494.5 122,-513.5 250,-513.5 250,-494.5 122,-494.5"/>
<text text-anchor="middle" x="186" y="-501.5" font-family="Helvetica,sans-Serif" font-size="10.00">icmp4_packet_set_length</text>
</a>
</g>
</g>
<!-- Node1&#45;&gt;Node21 -->
<g id="edge20" class="edge"><title>Node1&#45;&gt;Node21</title>
<path fill="none" stroke="midnightblue" d="M42.4284,-693.261C48.0743,-655.769 65.514,-573.911 114,-528 120.708,-521.648 129.157,-516.973 137.864,-513.534"/>
<polygon fill="midnightblue" stroke="midnightblue" points="38.9316,-692.999 41.0336,-703.383 45.866,-693.954 38.9316,-692.999"/>
</g>
<!-- Node22 -->
<g id="node22" class="node"><title>Node22</title>
<g id="a_node22"><a xlink:href="../../de/df3/packet_8c_a240696fd8d3a5fec165bafed14adf2d2.html#a240696fd8d3a5fec165bafed14adf2d2" target="_top" xlink:title="Changer le TTL d&#39;un paquet IPv4 + ICMP.">
<polygon fill="none" stroke="black" points="131,-456.5 131,-475.5 241,-475.5 241,-456.5 131,-456.5"/>
<text text-anchor="middle" x="186" y="-463.5" font-family="Helvetica,sans-Serif" font-size="10.00">icmp4_packet_set_ttl</text>
</a>
</g>
</g>
<!-- Node1&#45;&gt;Node22 -->
<g id="edge21" class="edge"><title>Node1&#45;&gt;Node22</title>
<path fill="none" stroke="midnightblue" d="M40.4183,-693.018C42.4627,-648.823 53.7395,-542.185 114,-485 118.813,-480.433 124.6,-476.937 130.767,-474.266"/>
<polygon fill="midnightblue" stroke="midnightblue" points="36.9187,-692.95 40.0681,-703.066 43.9144,-693.194 36.9187,-692.95"/>
</g>
<!-- Node6 -->
<g id="node6" class="node"><title>Node6</title>
<g id="a_node6"><a xlink:href="../../de/df3/packet_8c_a56693b0f5270e1406a1da4f5a9907e14.html#a56693b0f5270e1406a1da4f5a9907e14" target="_top" xlink:title="Checksum d&#39;un paquet IPv6+ICMP.">
<polygon fill="none" stroke="black" points="302,-1275.5 302,-1294.5 430,-1294.5 430,-1275.5 302,-1275.5"/>
<text text-anchor="middle" x="366" y="-1282.5" font-family="Helvetica,sans-Serif" font-size="10.00">icmp6_packet_checksum</text>
</a>
</g>
</g>
<!-- Node1&#45;&gt;Node6 -->
<g id="edge22" class="edge"><title>Node1&#45;&gt;Node6</title>
<path fill="none" stroke="midnightblue" d="M40.9953,-732.845C46.091,-830.502 70.7158,-1256.87 114,-1295 179.449,-1352.65 295.832,-1314.12 343.618,-1294.5"/>
<polygon fill="midnightblue" stroke="midnightblue" points="44.4897,-732.644 40.4819,-722.836 37.4988,-733.002 44.4897,-732.644"/>
</g>
<!-- Node23 -->
<g id="node23" class="node"><title>Node23</title>
<g id="a_node23"><a xlink:href="../../de/df3/packet_8c_a65b5fff2654c7ea3bb5da793d18043ed.html#a65b5fff2654c7ea3bb5da793d18043ed" target="_top" xlink:title="Construire un paquet IPv6 + ICMP.">
<polygon fill="none" stroke="black" points="318.5,-304.5 318.5,-323.5 413.5,-323.5 413.5,-304.5 318.5,-304.5"/>
<text text-anchor="middle" x="366" y="-311.5" font-family="Helvetica,sans-Serif" font-size="10.00">icmp6_packet_init</text>
</a>
</g>
</g>
<!-- Node1&#45;&gt;Node23 -->
<g id="edge23" class="edge"><title>Node1&#45;&gt;Node23</title>
<path fill="none" stroke="midnightblue" d="M39.3049,-693.132C38.7251,-643.984 44.3497,-515.728 114,-447 161.115,-400.509 199.661,-440.27 258,-409 300.695,-386.115 340.43,-342.974 356.942,-323.713"/>
<polygon fill="midnightblue" stroke="midnightblue" points="35.8107,-693.437 39.5341,-703.356 42.809,-693.28 35.8107,-693.437"/>
</g>
<!-- Node24 -->
<g id="node24" class="node"><title>Node24</title>
<g id="a_node24"><a xlink:href="../../de/df3/packet_8c_ab03d85c6bb5ab5cb2612f096e5b768c1.html#ab03d85c6bb5ab5cb2612f096e5b768c1" target="_top" xlink:title="Changer la sequence d&#39;un paquet IPv4+ICMP ECHO_REQUEST.">
<polygon fill="none" stroke="black" points="294.5,-171.5 294.5,-190.5 437.5,-190.5 437.5,-171.5 294.5,-171.5"/>
<text text-anchor="middle" x="366" y="-178.5" font-family="Helvetica,sans-Serif" font-size="10.00">icmp6_packet_set_echo_seq</text>
</a>
</g>
</g>
<!-- Node1&#45;&gt;Node24 -->
<g id="edge24" class="edge"><title>Node1&#45;&gt;Node24</title>
<path fill="none" stroke="midnightblue" d="M41.2433,-693.138C47.2284,-600.678 74.4179,-215.457 114,-181 178.091,-125.207 290.178,-154.411 339.955,-171.497"/>
<polygon fill="midnightblue" stroke="midnightblue" points="37.7495,-692.93 40.6057,-703.133 44.7353,-693.376 37.7495,-692.93"/>
</g>
<!-- Node25 -->
<g id="node25" class="node"><title>Node25</title>
<g id="a_node25"><a xlink:href="../../de/df3/packet_8c_a67992623d0f053ab11810c539d475c56.html#a67992623d0f053ab11810c539d475c56" target="_top" xlink:title="Changer la taille d&#39;un paquet.">
<polygon fill="none" stroke="black" points="122,-114.5 122,-133.5 250,-133.5 250,-114.5 122,-114.5"/>
<text text-anchor="middle" x="186" y="-121.5" font-family="Helvetica,sans-Serif" font-size="10.00">icmp6_packet_set_length</text>
</a>
</g>
</g>
<!-- Node1&#45;&gt;Node25 -->
<g id="edge25" class="edge"><title>Node1&#45;&gt;Node25</title>
<path fill="none" stroke="midnightblue" d="M39.8839,-692.947C39.7586,-602.557 43.6289,-233.694 114,-148 119.202,-141.665 126.144,-136.995 133.654,-133.553"/>
<polygon fill="midnightblue" stroke="midnightblue" points="36.3846,-693.193 39.9181,-703.181 43.3845,-693.169 36.3846,-693.193"/>
</g>
<!-- Node26 -->
<g id="node26" class="node"><title>Node26</title>
<g id="a_node26"><a xlink:href="../../de/df3/packet_8c_a05b6061852816ac13e20f03330f748b1.html#a05b6061852816ac13e20f03330f748b1" target="_top" xlink:title="Changer le TTL d&#39;un paquet IPv4 + ICMP.">
<polygon fill="none" stroke="black" points="131,-76.5 131,-95.5 241,-95.5 241,-76.5 131,-76.5"/>
<text text-anchor="middle" x="186" y="-83.5" font-family="Helvetica,sans-Serif" font-size="10.00">icmp6_packet_set_ttl</text>
</a>
</g>
</g>
<!-- Node1&#45;&gt;Node26 -->
<g id="edge26" class="edge"><title>Node1&#45;&gt;Node26</title>
<path fill="none" stroke="midnightblue" d="M39.5549,-693.134C37.85,-598.647 35.3454,-195.549 114,-105 118.602,-99.7017 124.504,-95.803 130.935,-92.9471"/>
<polygon fill="midnightblue" stroke="midnightblue" points="36.0589,-693.373 39.7581,-703.301 43.0575,-693.234 36.0589,-693.373"/>
</g>
<!-- Node27 -->
<g id="node27" class="node"><title>Node27</title>
<g id="a_node27"><a xlink:href="../../d4/df1/icmp__util_8c_a220ba97e672eedfb660f9c3b0cccf87f.html#a220ba97e672eedfb660f9c3b0cccf87f" target="_top" xlink:title="Changer le code d&#39;un header ICMPv6.">
<polygon fill="none" stroke="black" points="142,-380.5 142,-399.5 230,-399.5 230,-380.5 142,-380.5"/>
<text text-anchor="middle" x="186" y="-387.5" font-family="Helvetica,sans-Serif" font-size="10.00">icmp6_set_code</text>
</a>
</g>
</g>
<!-- Node1&#45;&gt;Node27 -->
<g id="edge27" class="edge"><title>Node1&#45;&gt;Node27</title>
<path fill="none" stroke="midnightblue" d="M42.3714,-693.502C49.983,-633.922 75.5656,-455.779 114,-414 121.4,-405.956 131.588,-400.607 141.937,-397.051"/>
<polygon fill="midnightblue" stroke="midnightblue" points="38.8921,-693.119 41.125,-703.476 45.8381,-693.987 38.8921,-693.119"/>
</g>
<!-- Node28 -->
<g id="node28" class="node"><title>Node28</title>
<g id="a_node28"><a xlink:href="../../d4/df1/icmp__util_8c_adf88119191ec068dc904d94c0c13c800.html#adf88119191ec068dc904d94c0c13c800" target="_top" xlink:title="Changer l&#39;identifiant et la séquence d&#39;un header ICMPv6.">
<polygon fill="none" stroke="black" points="142,-190.5 142,-209.5 230,-209.5 230,-190.5 142,-190.5"/>
<text text-anchor="middle" x="186" y="-197.5" font-family="Helvetica,sans-Serif" font-size="10.00">icmp6_set_echo</text>
</a>
</g>
</g>
<!-- Node1&#45;&gt;Node28 -->
<g id="edge29" class="edge"><title>Node1&#45;&gt;Node28</title>
<path fill="none" stroke="midnightblue" d="M40.1752,-693.035C41.3144,-609.725 49.8624,-290.812 114,-219 121.225,-210.911 131.479,-206.098 141.955,-203.279"/>
<polygon fill="midnightblue" stroke="midnightblue" points="36.6739,-693.137 40.0586,-703.177 43.6734,-693.218 36.6739,-693.137"/>
</g>
<!-- Node29 -->
<g id="node29" class="node"><title>Node29</title>
<g id="a_node29"><a xlink:href="../../d4/df1/icmp__util_8c_a9f6d1d5377699ef543df48b357452f35.html#a9f6d1d5377699ef543df48b357452f35" target="_top" xlink:title="Changer le type d&#39;un header ICMPv6.">
<polygon fill="none" stroke="black" points="143,-342.5 143,-361.5 229,-361.5 229,-342.5 143,-342.5"/>
<text text-anchor="middle" x="186" y="-349.5" font-family="Helvetica,sans-Serif" font-size="10.00">icmp6_set_type</text>
</a>
</g>
</g>
<!-- Node1&#45;&gt;Node29 -->
<g id="edge32" class="edge"><title>Node1&#45;&gt;Node29</title>
<path fill="none" stroke="midnightblue" d="M41.613,-693.21C47.3586,-627.537 68.9349,-418.3 114,-371 121.57,-363.055 132.066,-358.304 142.669,-355.497"/>
<polygon fill="midnightblue" stroke="midnightblue" points="38.1048,-693.161 40.7477,-703.421 45.0798,-693.752 38.1048,-693.161"/>
</g>
<!-- Node30 -->
<g id="node30" class="node"><title>Node30</title>
<g id="a_node30"><a xlink:href="../../d4/df1/icmp__util_8c_afe296c49e028d34dfdc018351fe39a2e.html#afe296c49e028d34dfdc018351fe39a2e" target="_top" xlink:title="Checksum.">
<polygon fill="none" stroke="black" points="142,-570.5 142,-589.5 230,-589.5 230,-570.5 142,-570.5"/>
<text text-anchor="middle" x="186" y="-577.5" font-family="Helvetica,sans-Serif" font-size="10.00">icmp_checksum</text>
</a>
</g>
</g>
<!-- Node1&#45;&gt;Node30 -->
<g id="edge34" class="edge"><title>Node1&#45;&gt;Node30</title>
<path fill="none" stroke="midnightblue" d="M47.1997,-693.997C57.8565,-668.474 80.2752,-623.499 114,-599 122.156,-593.075 132.039,-588.998 141.807,-586.192"/>
<polygon fill="midnightblue" stroke="midnightblue" points="43.929,-692.75 43.4659,-703.335 50.4286,-695.349 43.929,-692.75"/>
</g>
<!-- Node31 -->
<g id="node31" class="node"><title>Node31</title>
<g id="a_node31"><a xlink:href="../../d4/df1/icmp__util_8c_afe4ce415809b1afda860324e7a8edaaa.html#afe4ce415809b1afda860324e7a8edaaa" target="_top" xlink:title="Afficher un header.">
<polygon fill="none" stroke="black" points="155,-1190.5 155,-1209.5 217,-1209.5 217,-1190.5 155,-1190.5"/>
<text text-anchor="middle" x="186" y="-1197.5" font-family="Helvetica,sans-Serif" font-size="10.00">icmp_print</text>
</a>
</g>
</g>
<!-- Node1&#45;&gt;Node31 -->
<g id="edge37" class="edge"><title>Node1&#45;&gt;Node31</title>
<path fill="none" stroke="midnightblue" d="M40.3575,-732.927C42.2073,-813.412 53.1418,-1113.41 114,-1181 124.246,-1192.38 140.487,-1197.26 154.851,-1199.24"/>
<polygon fill="midnightblue" stroke="midnightblue" points="43.8521,-732.624 40.1456,-722.699 36.8536,-732.769 43.8521,-732.624"/>
</g>
<!-- Node34 -->
<g id="node34" class="node"><title>Node34</title>
<g id="a_node34"><a xlink:href="../../d4/df1/icmp__util_8c_a970c671c681a944129ca761685c89c4e.html#a970c671c681a944129ca761685c89c4e" target="_top" xlink:title="Modifier le code.">
<polygon fill="none" stroke="black" points="144.5,-646.5 144.5,-665.5 227.5,-665.5 227.5,-646.5 144.5,-646.5"/>
<text text-anchor="middle" x="186" y="-653.5" font-family="Helvetica,sans-Serif" font-size="10.00">icmp_set_code</text>
</a>
</g>
</g>
<!-- Node1&#45;&gt;Node34 -->
<g id="edge41" class="edge"><title>Node1&#45;&gt;Node34</title>
<path fill="none" stroke="midnightblue" d="M69.4522,-699.106C82.9112,-692.954 99.1355,-685.812 114,-680 127.209,-674.835 142.041,-669.718 154.72,-665.543"/>
<polygon fill="midnightblue" stroke="midnightblue" points="67.8119,-696.008 60.1997,-703.378 70.7459,-702.364 67.8119,-696.008"/>
</g>
<!-- Node35 -->
<g id="node35" class="node"><title>Node35</title>
<g id="a_node35"><a xlink:href="../../d4/df1/icmp__util_8c_a8037d0cbd9c4aa9471d43363df3dd40f.html#a8037d0cbd9c4aa9471d43363df3dd40f" target="_top" xlink:title="Modifier le type.">
<polygon fill="none" stroke="black" points="146,-608.5 146,-627.5 226,-627.5 226,-608.5 146,-608.5"/>
<text text-anchor="middle" x="186" y="-615.5" font-family="Helvetica,sans-Serif" font-size="10.00">icmp_set_type</text>
</a>
</g>
</g>
<!-- Node1&#45;&gt;Node35 -->
<g id="edge43" class="edge"><title>Node1&#45;&gt;Node35</title>
<path fill="none" stroke="midnightblue" d="M52.666,-695.269C66.0013,-677.892 88.5637,-651.907 114,-637 123.688,-631.322 135.105,-627.303 145.918,-624.473"/>
<polygon fill="midnightblue" stroke="midnightblue" points="49.7277,-693.355 46.5672,-703.467 55.3441,-697.533 49.7277,-693.355"/>
</g>
<!-- Node36 -->
<g id="node36" class="node"><title>Node36</title>
<g id="a_node36"><a xlink:href="../../da/d7b/ip__util_8c_a86789a205822c146699049a3825072fe.html#a86789a205822c146699049a3825072fe" target="_top" xlink:title="Afficher un header IPv6.">
<polygon fill="none" stroke="black" points="150,-1114.5 150,-1133.5 222,-1133.5 222,-1114.5 150,-1114.5"/>
<text text-anchor="middle" x="186" y="-1121.5" font-family="Helvetica,sans-Serif" font-size="10.00">ip6_hdr_print</text>
</a>
</g>
</g>
<!-- Node1&#45;&gt;Node36 -->
<g id="edge45" class="edge"><title>Node1&#45;&gt;Node36</title>
<path fill="none" stroke="midnightblue" d="M41.0208,-732.817C45.1163,-804.598 62.6864,-1049.69 114,-1105 123.199,-1114.92 136.953,-1119.88 149.913,-1122.29"/>
<polygon fill="midnightblue" stroke="midnightblue" points="44.4978,-732.297 40.4586,-722.502 37.5081,-732.678 44.4978,-732.297"/>
</g>
<!-- Node37 -->
<g id="node37" class="node"><title>Node37</title>
<g id="a_node37"><a xlink:href="../../da/d7b/ip__util_8c_a5a79f6fb2f62db4db66cdf11e9ad102c.html#a5a79f6fb2f62db4db66cdf11e9ad102c" target="_top" xlink:title="Changer l&#39;adresse de destination.">
<polygon fill="none" stroke="black" points="126.5,-304.5 126.5,-323.5 245.5,-323.5 245.5,-304.5 126.5,-304.5"/>
<text text-anchor="middle" x="186" y="-311.5" font-family="Helvetica,sans-Serif" font-size="10.00">ip6_hdr_set_destination</text>
</a>
</g>
</g>
<!-- Node1&#45;&gt;Node37 -->
<g id="edge47" class="edge"><title>Node1&#45;&gt;Node37</title>
<path fill="none" stroke="midnightblue" d="M41.1404,-693.328C45.6027,-623.148 64.1568,-386.415 114,-333 117.569,-329.175 121.816,-326.088 126.433,-323.6"/>
<polygon fill="midnightblue" stroke="midnightblue" points="37.639,-693.245 40.5232,-703.44 44.626,-693.672 37.639,-693.245"/>
</g>
<!-- Node38 -->
<g id="node38" class="node"><title>Node38</title>
<g id="a_node38"><a xlink:href="../../da/d7b/ip__util_8c_a1b672fc13cf82b1131ad3a85384d8c8b.html#a1b672fc13cf82b1131ad3a85384d8c8b" target="_top" xlink:title="Changer l&#39;adresse source.">
<polygon fill="none" stroke="black" points="135.5,-266.5 135.5,-285.5 236.5,-285.5 236.5,-266.5 135.5,-266.5"/>
<text text-anchor="middle" x="186" y="-273.5" font-family="Helvetica,sans-Serif" font-size="10.00">ip6_hdr_set_source</text>
</a>
</g>
</g>
<!-- Node1&#45;&gt;Node38 -->
<g id="edge49" class="edge"><title>Node1&#45;&gt;Node38</title>
<path fill="none" stroke="midnightblue" d="M40.7814,-692.845C44.1054,-617.601 59.5016,-354.415 114,-295 119.779,-288.7 127.396,-284.396 135.494,-281.475"/>
<polygon fill="midnightblue" stroke="midnightblue" points="37.2674,-693.11 40.3474,-703.247 44.2613,-693.402 37.2674,-693.11"/>
</g>
<!-- Node39 -->
<g id="node39" class="node"><title>Node39</title>
<g id="a_node39"><a xlink:href="../../da/d7b/ip__util_8c_ad468ea1d71af7785f34b7e1fe5f50fea.html#ad468ea1d71af7785f34b7e1fe5f50fea" target="_top" xlink:title="Changer la version.">
<polygon fill="none" stroke="black" points="134,-228.5 134,-247.5 238,-247.5 238,-228.5 134,-228.5"/>
<text text-anchor="middle" x="186" y="-235.5" font-family="Helvetica,sans-Serif" font-size="10.00">ip6_hdr_set_version</text>
</a>
</g>
</g>
<!-- Node1&#45;&gt;Node39 -->
<g id="edge51" class="edge"><title>Node1&#45;&gt;Node39</title>
<path fill="none" stroke="midnightblue" d="M40.4488,-693.069C42.6373,-613.883 54.6583,-322.633 114,-257 119.391,-251.037 126.429,-246.858 133.976,-243.947"/>
<polygon fill="midnightblue" stroke="midnightblue" points="36.9476,-693.076 40.1928,-703.162 43.9454,-693.254 36.9476,-693.076"/>
</g>
<!-- Node40 -->
<g id="node40" class="node"><title>Node40</title>
<g id="a_node40"><a xlink:href="../../da/d7b/ip__util_8c_aa1cb9d3b0826b26c1c4399da7076bd54.html#aa1cb9d3b0826b26c1c4399da7076bd54" target="_top" xlink:title="Afficher le contenu d&#39;un header.">
<polygon fill="none" stroke="black" points="155,-1152.5 155,-1171.5 217,-1171.5 217,-1152.5 155,-1152.5"/>
<text text-anchor="middle" x="186" y="-1159.5" font-family="Helvetica,sans-Serif" font-size="10.00">iphdr_print</text>
</a>
</g>
</g>
<!-- Node1&#45;&gt;Node40 -->
<g id="edge53" class="edge"><title>Node1&#45;&gt;Node40</title>
<path fill="none" stroke="midnightblue" d="M40.6569,-732.757C43.5856,-808.82 57.8941,-1081.54 114,-1143 124.323,-1154.31 140.569,-1159.19 154.917,-1161.19"/>
<polygon fill="midnightblue" stroke="midnightblue" points="44.1507,-732.52 40.2917,-722.653 37.1553,-732.773 44.1507,-732.52"/>
</g>
<!-- Node41 -->
<g id="node41" class="node"><title>Node41</title>
<g id="a_node41"><a xlink:href="../../da/d7b/ip__util_8c_a2d6369cd5ac368993d95f6dca338c514.html#a2d6369cd5ac368993d95f6dca338c514" target="_top" xlink:title="Modifier la version du header.">
<polygon fill="none" stroke="black" points="139.5,-1380.5 139.5,-1399.5 232.5,-1399.5 232.5,-1380.5 139.5,-1380.5"/>
<text text-anchor="middle" x="186" y="-1387.5" font-family="Helvetica,sans-Serif" font-size="10.00">iphdr_set_version</text>
</a>
</g>
</g>
<!-- Node1&#45;&gt;Node41 -->
<g id="edge55" class="edge"><title>Node1&#45;&gt;Node41</title>
<path fill="none" stroke="midnightblue" d="M40.9311,-733.173C45.9621,-838.394 71.2646,-1321.35 114,-1371 120.493,-1378.54 129.62,-1383.25 139.174,-1386.16"/>
<polygon fill="midnightblue" stroke="midnightblue" points="44.4175,-732.799 40.4509,-722.975 37.4252,-733.129 44.4175,-732.799"/>
</g>
<!-- Node3 -->
<g id="node3" class="node"><title>Node3</title>
<g id="a_node3"><a xlink:href="../../de/df3/packet_8c_a4b88c80657bb9a94505d743b92db9652.html#a4b88c80657bb9a94505d743b92db9652" target="_top" xlink:title="Paquet UDP.">
<polygon fill="none" stroke="black" points="321,-1380.5 321,-1399.5 411,-1399.5 411,-1380.5 321,-1380.5"/>
<text text-anchor="middle" x="366" y="-1387.5" font-family="Helvetica,sans-Serif" font-size="10.00">udp4_packet_init</text>
</a>
</g>
</g>
<!-- Node1&#45;&gt;Node3 -->
<g id="edge57" class="edge"><title>Node1&#45;&gt;Node3</title>
<path fill="none" stroke="midnightblue" d="M40.5632,-732.826C43.851,-841.574 62.2397,-1362.45 114,-1409 180.125,-1468.47 299.729,-1421.38 346.004,-1399.57"/>
<polygon fill="midnightblue" stroke="midnightblue" points="44.0556,-732.516 40.263,-722.623 37.0587,-732.722 44.0556,-732.516"/>
</g>
<!-- Node42 -->
<g id="node42" class="node"><title>Node42</title>
<g id="a_node42"><a xlink:href="../../de/df3/packet_8c_a2a4750ae57802f852e78f9c015e0cbca.html#a2a4750ae57802f852e78f9c015e0cbca" target="_top" xlink:title="Paquet UDP.">
<polygon fill="none" stroke="black" points="134,-38.5 134,-57.5 238,-57.5 238,-38.5 134,-38.5"/>
<text text-anchor="middle" x="186" y="-45.5" font-family="Helvetica,sans-Serif" font-size="10.00">udp4_packet_set_ttl</text>
</a>
</g>
</g>
<!-- Node1&#45;&gt;Node42 -->
<g id="edge58" class="edge"><title>Node1&#45;&gt;Node42</title>
<path fill="none" stroke="midnightblue" d="M40.957,-693.193C46.1197,-589.885 71.9838,-115.716 114,-67 119.25,-60.9125 126.216,-56.6705 133.736,-53.7343"/>
<polygon fill="midnightblue" stroke="midnightblue" points="37.4601,-693.046 40.4639,-703.206 44.4516,-693.39 37.4601,-693.046"/>
</g>
<!-- Node44 -->
<g id="node44" class="node"><title>Node44</title>
<g id="a_node44"><a xlink:href="../../d3/d5a/base_8h_a51b5a364b5ed4256f37bc196e02730fd.html#a51b5a364b5ed4256f37bc196e02730fd" target="_top" xlink:title="Vérifier l&#39;appartenance d&#39;un entier positif à un tableau.">
<polygon fill="none" stroke="black" points="150,-0.5 150,-19.5 222,-19.5 222,-0.5 150,-0.5"/>
<text text-anchor="middle" x="186" y="-7.5" font-family="Helvetica,sans-Serif" font-size="10.00">uint_in_array</text>
</a>
</g>
</g>
<!-- Node1&#45;&gt;Node44 -->
<g id="edge60" class="edge"><title>Node1&#45;&gt;Node44</title>
<path fill="none" stroke="midnightblue" d="M40.831,-693.047C45.47,-585.812 69.567,-80.8472 114,-29 122.885,-18.6329 136.746,-13.6128 149.871,-11.281"/>
<polygon fill="midnightblue" stroke="midnightblue" points="37.3297,-693.004 40.4013,-703.144 44.3234,-693.302 37.3297,-693.004"/>
</g>
<!-- Node2&#45;&gt;Node3 -->
<g id="edge2" class="edge"><title>Node2&#45;&gt;Node3</title>
<path fill="none" stroke="midnightblue" d="M231.402,-1361.48C258.76,-1367.32 293.7,-1374.78 320.986,-1380.6"/>
<polygon fill="midnightblue" stroke="midnightblue" points="231.831,-1357.99 221.32,-1359.33 230.369,-1364.84 231.831,-1357.99"/>
</g>
<!-- Node4 -->
<g id="node4" class="node"><title>Node4</title>
<g id="a_node4"><a xlink:href="../../d5/d74/ping__icmp_8c_a8840388a584c45eb700d7451452e2b72.html#a8840388a584c45eb700d7451452e2b72" target="_top" xlink:title="Initialisation des différentes structures et création d&#39;un paquet icmp4_packet.">
<polygon fill="none" stroke="black" points="317.5,-1342.5 317.5,-1361.5 414.5,-1361.5 414.5,-1342.5 317.5,-1342.5"/>
<text text-anchor="middle" x="366" y="-1349.5" font-family="Helvetica,sans-Serif" font-size="10.00">init_domaine_IPv4</text>
</a>
</g>
</g>
<!-- Node2&#45;&gt;Node4 -->
<g id="edge3" class="edge"><title>Node2&#45;&gt;Node4</title>
<path fill="none" stroke="midnightblue" d="M231.339,-1352C257.499,-1352 290.608,-1352 317.329,-1352"/>
<polygon fill="midnightblue" stroke="midnightblue" points="231.32,-1348.5 221.32,-1352 231.32,-1355.5 231.32,-1348.5"/>
</g>
<!-- Node5&#45;&gt;Node6 -->
<g id="edge5" class="edge"><title>Node5&#45;&gt;Node6</title>
<path fill="none" stroke="midnightblue" d="M241.039,-1278.73C260.167,-1279.7 281.857,-1280.8 301.686,-1281.8"/>
<polygon fill="midnightblue" stroke="midnightblue" points="241.164,-1275.23 231,-1278.22 240.81,-1282.23 241.164,-1275.23"/>
</g>
<!-- Node8 -->
<g id="node8" class="node"><title>Node8</title>
<g id="a_node8"><a xlink:href="../../de/df3/packet_8c_af1dcd3182fecbb0714e99719d9466ff7.html#af1dcd3182fecbb0714e99719d9466ff7" target="_top" xlink:title="Afficher un pseudo paquet IPv6+ICMPv6.">
<polygon fill="none" stroke="black" points="302,-1213 302,-1243 430,-1243 430,-1213 302,-1213"/>
<text text-anchor="start" x="310" y="-1231" font-family="Helvetica,sans-Serif" font-size="10.00">icmp6_checksum_packet</text>
<text text-anchor="middle" x="366" y="-1220" font-family="Helvetica,sans-Serif" font-size="10.00">_print</text>
</a>
</g>
</g>
<!-- Node7&#45;&gt;Node8 -->
<g id="edge7" class="edge"><title>Node7&#45;&gt;Node8</title>
<path fill="none" stroke="midnightblue" d="M244.454,-1234.77C262.755,-1233.74 283.1,-1232.6 301.785,-1231.55"/>
<polygon fill="midnightblue" stroke="midnightblue" points="244.021,-1231.29 234.233,-1235.35 244.414,-1238.28 244.021,-1231.29"/>
</g>
<!-- Node27&#45;&gt;Node23 -->
<g id="edge28" class="edge"><title>Node27&#45;&gt;Node23</title>
<path fill="none" stroke="midnightblue" d="M239.2,-377.498C245.605,-375.536 252.001,-373.365 258,-371 292.072,-357.57 329.259,-336.064 349.586,-323.664"/>
<polygon fill="midnightblue" stroke="midnightblue" points="237.813,-374.256 229.187,-380.407 239.766,-380.978 237.813,-374.256"/>
</g>
<!-- Node28&#45;&gt;Node23 -->
<g id="edge30" class="edge"><title>Node28&#45;&gt;Node23</title>
<path fill="none" stroke="midnightblue" d="M240.066,-211.251C246.281,-213.422 252.396,-215.984 258,-219 300.655,-241.959 340.411,-285.062 356.935,-304.299"/>
<polygon fill="midnightblue" stroke="midnightblue" points="240.868,-207.834 230.278,-208.154 238.756,-214.508 240.868,-207.834"/>
</g>
<!-- Node28&#45;&gt;Node24 -->
<g id="edge31" class="edge"><title>Node28&#45;&gt;Node24</title>
<path fill="none" stroke="midnightblue" d="M240.331,-194.307C257.254,-192.501 276.238,-190.475 294.19,-188.558"/>
<polygon fill="midnightblue" stroke="midnightblue" points="239.661,-190.859 230.089,-195.401 240.404,-197.819 239.661,-190.859"/>
</g>
<!-- Node29&#45;&gt;Node23 -->
<g id="edge33" class="edge"><title>Node29&#45;&gt;Node23</title>
<path fill="none" stroke="midnightblue" d="M239.15,-340.867C264.906,-335.368 295.662,-328.803 320.322,-323.538"/>
<polygon fill="midnightblue" stroke="midnightblue" points="238.232,-337.484 229.184,-342.995 239.694,-344.33 238.232,-337.484"/>
</g>
<!-- Node30&#45;&gt;Node19 -->
<g id="edge35" class="edge"><title>Node30&#45;&gt;Node19</title>
<path fill="none" stroke="midnightblue" d="M234.556,-592.164C242.418,-594.336 250.46,-596.656 258,-599 286.237,-607.777 318.119,-619.315 339.681,-627.365"/>
<polygon fill="midnightblue" stroke="midnightblue" points="235.313,-588.743 224.745,-589.502 233.48,-595.499 235.313,-588.743"/>
</g>
<!-- Node30&#45;&gt;Node20 -->
<g id="edge36" class="edge"><title>Node30&#45;&gt;Node20</title>
<path fill="none" stroke="midnightblue" d="M240.331,-574.307C257.254,-572.501 276.238,-570.475 294.19,-568.558"/>
<polygon fill="midnightblue" stroke="midnightblue" points="239.661,-570.859 230.089,-575.401 240.404,-577.819 239.661,-570.859"/>
</g>
<!-- Node32 -->
<g id="node32" class="node"><title>Node32</title>
<g id="a_node32"><a xlink:href="../../de/df3/packet_8c_ab5510311e6fecab65716eea22ce3a941.html#ab5510311e6fecab65716eea22ce3a941" target="_top" xlink:title="Afficher un paquet.">
<polygon fill="none" stroke="black" points="315.5,-1163.5 315.5,-1182.5 416.5,-1182.5 416.5,-1163.5 315.5,-1163.5"/>
<text text-anchor="middle" x="366" y="-1170.5" font-family="Helvetica,sans-Serif" font-size="10.00">icmp4_packet_print</text>
</a>
</g>
</g>
<!-- Node31&#45;&gt;Node32 -->
<g id="edge38" class="edge"><title>Node31&#45;&gt;Node32</title>
<path fill="none" stroke="midnightblue" d="M227.145,-1193.91C253.297,-1189.94 287.605,-1184.74 315.452,-1180.52"/>
<polygon fill="midnightblue" stroke="midnightblue" points="226.557,-1190.46 217.195,-1195.42 227.607,-1197.38 226.557,-1190.46"/>
</g>
<!-- Node33 -->
<g id="node33" class="node"><title>Node33</title>
<g id="a_node33"><a xlink:href="../../de/df3/packet_8c_adf938a45656c566ff1bf5c119d045a70.html#adf938a45656c566ff1bf5c119d045a70" target="_top" xlink:title="Afficher un paquet.">
<polygon fill="none" stroke="black" points="315.5,-1119.5 315.5,-1138.5 416.5,-1138.5 416.5,-1119.5 315.5,-1119.5"/>
<text text-anchor="middle" x="366" y="-1126.5" font-family="Helvetica,sans-Serif" font-size="10.00">icmp6_packet_print</text>
</a>
</g>
</g>
<!-- Node31&#45;&gt;Node33 -->
<g id="edge39" class="edge"><title>Node31&#45;&gt;Node33</title>
<path fill="none" stroke="midnightblue" d="M226.986,-1192.15C237.372,-1189.35 248.347,-1185.69 258,-1181 275.987,-1172.26 276.363,-1163.43 294,-1154 305.639,-1147.78 319.146,-1142.57 331.235,-1138.55"/>
<polygon fill="midnightblue" stroke="midnightblue" points="226.125,-1188.76 217.271,-1194.58 227.821,-1195.55 226.125,-1188.76"/>
</g>
<!-- Node31&#45;&gt;Node8 -->
<g id="edge40" class="edge"><title>Node31&#45;&gt;Node8</title>
<path fill="none" stroke="midnightblue" d="M227.177,-1206.32C249.17,-1209.78 276.924,-1214.15 301.752,-1218.05"/>
<polygon fill="midnightblue" stroke="midnightblue" points="227.618,-1202.85 217.195,-1204.75 226.53,-1209.76 227.618,-1202.85"/>
</g>
<!-- Node34&#45;&gt;Node19 -->
<g id="edge42" class="edge"><title>Node34&#45;&gt;Node19</title>
<path fill="none" stroke="midnightblue" d="M237.987,-650.558C263.31,-647.855 293.687,-644.612 318.384,-641.976"/>
<polygon fill="midnightblue" stroke="midnightblue" points="237.409,-647.099 227.837,-651.641 238.152,-654.06 237.409,-647.099"/>
</g>
<!-- Node35&#45;&gt;Node19 -->
<g id="edge44" class="edge"><title>Node35&#45;&gt;Node19</title>
<path fill="none" stroke="midnightblue" d="M236.327,-623.265C261.997,-626.005 293.201,-629.336 318.452,-632.031"/>
<polygon fill="midnightblue" stroke="midnightblue" points="236.378,-619.751 226.063,-622.17 235.635,-626.711 236.378,-619.751"/>
</g>
<!-- Node36&#45;&gt;Node33 -->
<g id="edge46" class="edge"><title>Node36&#45;&gt;Node33</title>
<path fill="none" stroke="midnightblue" d="M232.27,-1125.27C257.657,-1125.98 289.363,-1126.88 315.419,-1127.61"/>
<polygon fill="midnightblue" stroke="midnightblue" points="232.261,-1121.77 222.167,-1124.99 232.065,-1128.77 232.261,-1121.77"/>
</g>
<!-- Node37&#45;&gt;Node23 -->
<g id="edge48" class="edge"><title>Node37&#45;&gt;Node23</title>
<path fill="none" stroke="midnightblue" d="M255.9,-314C276.821,-314 299.306,-314 318.395,-314"/>
<polygon fill="midnightblue" stroke="midnightblue" points="255.777,-310.5 245.777,-314 255.777,-317.5 255.777,-310.5"/>
</g>
<!-- Node38&#45;&gt;Node23 -->
<g id="edge50" class="edge"><title>Node38&#45;&gt;Node23</title>
<path fill="none" stroke="midnightblue" d="M241.716,-287.681C266.959,-293.07 296.545,-299.386 320.406,-304.48"/>
<polygon fill="midnightblue" stroke="midnightblue" points="242.427,-284.254 231.917,-285.589 240.966,-291.1 242.427,-284.254"/>
</g>
<!-- Node39&#45;&gt;Node23 -->
<g id="edge52" class="edge"><title>Node39&#45;&gt;Node23</title>
<path fill="none" stroke="midnightblue" d="M239.2,-250.502C245.605,-252.464 252.001,-254.635 258,-257 292.072,-270.43 329.259,-291.936 349.586,-304.336"/>
<polygon fill="midnightblue" stroke="midnightblue" points="239.766,-247.022 229.187,-247.593 237.813,-253.744 239.766,-247.022"/>
</g>
<!-- Node40&#45;&gt;Node32 -->
<g id="edge54" class="edge"><title>Node40&#45;&gt;Node32</title>
<path fill="none" stroke="midnightblue" d="M227.492,-1164.5C253.601,-1166.12 287.728,-1168.22 315.452,-1169.94"/>
<polygon fill="midnightblue" stroke="midnightblue" points="227.392,-1160.99 217.195,-1163.87 226.96,-1167.98 227.392,-1160.99"/>
</g>
<!-- Node41&#45;&gt;Node3 -->
<g id="edge56" class="edge"><title>Node41&#45;&gt;Node3</title>
<path fill="none" stroke="midnightblue" d="M242.965,-1390C268.089,-1390 297.306,-1390 320.852,-1390"/>
<polygon fill="midnightblue" stroke="midnightblue" points="242.839,-1386.5 232.839,-1390 242.839,-1393.5 242.839,-1386.5"/>
</g>
<!-- Node43 -->
<g id="node43" class="node"><title>Node43</title>
<g id="a_node43"><a xlink:href="../../d1/d4c/traceroute_8c_a8b496d066de14ea5078c799a41849d49.html#a8b496d066de14ea5078c799a41849d49" target="_top" xlink:title="Traceroute IPv4+UDP.">
<polygon fill="none" stroke="black" points="317.5,-38.5 317.5,-57.5 414.5,-57.5 414.5,-38.5 317.5,-38.5"/>
<text text-anchor="middle" x="366" y="-45.5" font-family="Helvetica,sans-Serif" font-size="10.00">traceroute_udp_v4</text>
</a>
</g>
</g>
<!-- Node42&#45;&gt;Node43 -->
<g id="edge59" class="edge"><title>Node42&#45;&gt;Node43</title>
<path fill="none" stroke="midnightblue" d="M248.19,-48C270.812,-48 296.099,-48 317.344,-48"/>
<polygon fill="midnightblue" stroke="midnightblue" points="248.008,-44.5001 238.008,-48 248.008,-51.5001 248.008,-44.5001"/>
</g>
</g>
</svg>
        <g id="navigator" transform="translate(0 0)" fill="#404254">
                <rect fill="#f2f5e9" fill-opacity="0.5" stroke="#606060" stroke-width=".5" x="0" y="0" width="60" height="60"/>
                <use id="zoomplus" xlink:href="#zoomPlus" x="17" y="9" onmousedown="handleZoom(evt,'in')"/>
                <use id="zoomminus" xlink:href="#zoomMin" x="42" y="9" onmousedown="handleZoom(evt,'out')"/>
                <use id="reset" xlink:href="#resetDef" x="30" y="36" onmousedown="handleReset()"/>
                <g id="arrowUp" xlink:href="#dirArrow" transform="translate(30 24)" onmousedown="handlePan(0,-1)">
                  <use xlink:href="#rim" fill="#404040">
                        <set attributeName="fill" to="#808080" begin="arrowUp.mouseover" end="arrowUp.mouseout"/>
                  </use>
                  <path fill="none" stroke="white" stroke-width="1.5" d="M0,-3.0v7 M-2.5,-0.5L0,-3.0L2.5,-0.5"/>
                </g>
                <g id="arrowRight" xlink:href="#dirArrow" transform="rotate(90) translate(36 -43)" onmousedown="handlePan(1,0)">
                  <use xlink:href="#rim" fill="#404040">
                        <set attributeName="fill" to="#808080" begin="arrowRight.mouseover" end="arrowRight.mouseout"/>
                  </use>
                  <path fill="none" stroke="white" stroke-width="1.5" d="M0,-3.0v7 M-2.5,-0.5L0,-3.0L2.5,-0.5"/>
                </g>
                <g id="arrowDown" xlink:href="#dirArrow" transform="rotate(180) translate(-30 -48)" onmousedown="handlePan(0,1)">
                  <use xlink:href="#rim" fill="#404040">
                        <set attributeName="fill" to="#808080" begin="arrowDown.mouseover" end="arrowDown.mouseout"/>
                  </use>
                  <path fill="none" stroke="white" stroke-width="1.5" d="M0,-3.0v7 M-2.5,-0.5L0,-3.0L2.5,-0.5"/>
                </g>
                <g id="arrowLeft" xlink:href="#dirArrow" transform="rotate(270) translate(-36 17)" onmousedown="handlePan(-1,0)">
                  <use xlink:href="#rim" fill="#404040">
                        <set attributeName="fill" to="#808080" begin="arrowLeft.mouseover" end="arrowLeft.mouseout"/>
                  </use>
                  <path fill="none" stroke="white" stroke-width="1.5" d="M0,-3.0v7 M-2.5,-0.5L0,-3.0L2.5,-0.5"/>
                </g>
        </g>
        <svg viewBox="0 0 15 15" width="100%" height="30px" preserveAspectRatio="xMaxYMin meet">
         <g id="arrow_out" transform="scale(0.3 0.3)">
          <a xlink:href="base_8h_a58ba35289e8c456e6beb956ae2057469_a58ba35289e8c456e6beb956ae2057469_icgraph_org.svg" target="_base">
           <rect id="button" ry="5" rx="5" y="6" x="6" height="38" width="38"
                fill="#f2f5e9" fill-opacity="0.5" stroke="#606060" stroke-width="1.0"/>
           <path id="arrow"
             d="M 11.500037,31.436501 C 11.940474,20.09759 22.043105,11.32322 32.158766,21.979434 L 37.068811,17.246167 C 37.068811,17.246167 37.088388,32 37.088388,32 L 22.160133,31.978069 C 22.160133,31.978069 26.997745,27.140456 26.997745,27.140456 C 18.528582,18.264221 13.291696,25.230495 11.500037,31.436501 z"
             style="fill:#404040;"/>
          </a>
         </g>
        </svg>
</svg>
