<?xml version="1.0" encoding="UTF-8" standalone="no"?>
<!DOCTYPE svg PUBLIC "-//W3C//DTD SVG 1.1//EN"
 "http://www.w3.org/Graphics/SVG/1.1/DTD/svg11.dtd">
<!-- Generated by graphviz version 2.30.1 (20130712.1527)
 -->
<!-- Title: src/main.c Pages: 1 -->
<svg width="1290pt" height="476pt"
 viewBox="0.00 0.00 1290.00 476.00" xmlns="http://www.w3.org/2000/svg" xmlns:xlink="http://www.w3.org/1999/xlink">
<g id="graph0" class="graph" transform="scale(1 1) rotate(0) translate(4 472)">
<title>src/main.c</title>
<!-- Node1 -->
<g id="node1" class="node"><title>Node1</title>
<polygon fill="#bfbfbf" stroke="black" points="249,-448.5 249,-467.5 311,-467.5 311,-448.5 249,-448.5"/>
<text text-anchor="middle" x="280" y="-455.5" font-family="Helvetica,sans-Serif" font-size="10.00">src/main.c</text>
</g>
<!-- Node2 -->
<g id="node2" class="node"><title>Node2</title>
<polygon fill="none" stroke="#bfbfbf" points="1068,-0.5 1068,-19.5 1114,-19.5 1114,-0.5 1068,-0.5"/>
<text text-anchor="middle" x="1091" y="-7.5" font-family="Helvetica,sans-Serif" font-size="10.00">stdio.h</text>
</g>
<!-- Node1&#45;&gt;Node2 -->
<g id="edge1" class="edge"><title>Node1&#45;&gt;Node2</title>
<path fill="none" stroke="midnightblue" d="M311.254,-456.793C476.825,-455.297 1244,-443.173 1244,-347 1244,-347 1244,-347 1244,-289 1244,-176.643 1146.89,-66.8657 1107.4,-26.8698"/>
<polygon fill="midnightblue" stroke="midnightblue" points="1109.67,-24.1892 1100.11,-19.6191 1104.73,-29.1524 1109.67,-24.1892"/>
</g>
<!-- Node3 -->
<g id="node3" class="node"><title>Node3</title>
<polygon fill="none" stroke="#bfbfbf" points="1182,-0.5 1182,-19.5 1230,-19.5 1230,-0.5 1182,-0.5"/>
<text text-anchor="middle" x="1206" y="-7.5" font-family="Helvetica,sans-Serif" font-size="10.00">stdlib.h</text>
</g>
<!-- Node1&#45;&gt;Node3 -->
<g id="edge2" class="edge"><title>Node1&#45;&gt;Node3</title>
<path fill="none" stroke="midnightblue" d="M311.375,-456.866C445.848,-456.06 973.978,-450.46 1135,-412 1204.48,-395.405 1282,-418.435 1282,-347 1282,-347 1282,-347 1282,-121 1282,-81.2757 1248.04,-45.5045 1225.52,-26.1536"/>
<polygon fill="midnightblue" stroke="midnightblue" points="1227.48,-23.2364 1217.54,-19.5672 1223.02,-28.6337 1227.48,-23.2364"/>
</g>
<!-- Node4 -->
<g id="node4" class="node"><title>Node4</title>
<polygon fill="none" stroke="#bfbfbf" points="0,-0.5 0,-19.5 62,-19.5 62,-0.5 0,-0.5"/>
<text text-anchor="middle" x="31" y="-7.5" font-family="Helvetica,sans-Serif" font-size="10.00">sysexits.h</text>
</g>
<!-- Node1&#45;&gt;Node4 -->
<g id="edge3" class="edge"><title>Node1&#45;&gt;Node4</title>
<path fill="none" stroke="midnightblue" d="M248.703,-457.28C203.631,-456.284 119.348,-449.079 60,-412 29.0896,-392.688 10,-383.447 10,-347 10,-347 10,-347 10,-121 10,-88.3843 19.0179,-51.2785 25.2347,-29.5732"/>
<polygon fill="midnightblue" stroke="midnightblue" points="28.6657,-30.3151 28.1678,-19.7319 21.9573,-28.3156 28.6657,-30.3151"/>
</g>
<!-- Node5 -->
<g id="node5" class="node"><title>Node5</title>
<polygon fill="none" stroke="#bfbfbf" points="120.5,-0.5 120.5,-19.5 169.5,-19.5 169.5,-0.5 120.5,-0.5"/>
<text text-anchor="middle" x="145" y="-7.5" font-family="Helvetica,sans-Serif" font-size="10.00">string.h</text>
</g>
<!-- Node1&#45;&gt;Node5 -->
<g id="edge4" class="edge"><title>Node1&#45;&gt;Node5</title>
<path fill="none" stroke="midnightblue" d="M248.711,-456.158C185.385,-452.617 48,-434.814 48,-347 48,-347 48,-347 48,-121 48,-77.3471 91.5054,-42.8276 120.244,-24.7868"/>
<polygon fill="midnightblue" stroke="midnightblue" points="122.226,-27.6789 128.982,-19.5177 118.611,-21.6844 122.226,-27.6789"/>
</g>
<!-- Node6 -->
<g id="node6" class="node"><title>Node6</title>
<g id="a_node6"><a xlink:href="../../d2/d6f/constants_8h.html" target="_top" xlink:title="Constantes.">
<polygon fill="none" stroke="black" points="321,-392.5 321,-411.5 389,-411.5 389,-392.5 321,-392.5"/>
<text text-anchor="middle" x="355" y="-399.5" font-family="Helvetica,sans-Serif" font-size="10.00">constants.h</text>
</a>
</g>
</g>
<!-- Node1&#45;&gt;Node6 -->
<g id="edge5" class="edge"><title>Node1&#45;&gt;Node6</title>
<path fill="none" stroke="midnightblue" d="M292.05,-448.324C303.463,-440.107 320.831,-427.602 334.435,-417.807"/>
<polygon fill="midnightblue" stroke="midnightblue" points="336.66,-420.517 342.731,-411.834 332.57,-414.837 336.66,-420.517"/>
</g>
<!-- Node7 -->
<g id="node7" class="node"><title>Node7</title>
<g id="a_node7"><a xlink:href="../../d3/d5a/base_8h.html" target="_top" xlink:title="Fonctions et inclusions de base. (header)">
<polygon fill="none" stroke="black" points="274,-56.5 274,-75.5 320,-75.5 320,-56.5 274,-56.5"/>
<text text-anchor="middle" x="297" y="-63.5" font-family="Helvetica,sans-Serif" font-size="10.00">base.h</text>
</a>
</g>
</g>
<!-- Node1&#45;&gt;Node7 -->
<g id="edge6" class="edge"><title>Node1&#45;&gt;Node7</title>
<path fill="none" stroke="midnightblue" d="M248.831,-453.629C193.991,-445.786 86,-420.951 86,-347 86,-347 86,-347 86,-177 86,-97.8885 204.073,-75.582 263.568,-69.3637"/>
<polygon fill="midnightblue" stroke="midnightblue" points="263.989,-72.8396 273.613,-68.4088 263.327,-65.871 263.989,-72.8396"/>
</g>
<!-- Node11 -->
<g id="node11" class="node"><title>Node11</title>
<g id="a_node11"><a xlink:href="../../d9/d8d/anna_8h.html" target="_top" xlink:title="Anna. (implémentation)">
<polygon fill="none" stroke="black" points="257,-392.5 257,-411.5 303,-411.5 303,-392.5 257,-392.5"/>
<text text-anchor="middle" x="280" y="-399.5" font-family="Helvetica,sans-Serif" font-size="10.00">anna.h</text>
</a>
</g>
</g>
<!-- Node1&#45;&gt;Node11 -->
<g id="edge14" class="edge"><title>Node1&#45;&gt;Node11</title>
<path fill="none" stroke="midnightblue" d="M280,-448.083C280,-441.006 280,-430.861 280,-421.986"/>
<polygon fill="midnightblue" stroke="midnightblue" points="283.5,-421.751 280,-411.751 276.5,-421.751 283.5,-421.751"/>
</g>
<!-- Node7&#45;&gt;Node3 -->
<g id="edge7" class="edge"><title>Node7&#45;&gt;Node3</title>
<path fill="none" stroke="midnightblue" d="M320.158,-62.8474C342.016,-60.8685 375.714,-57.9539 405,-56 723.803,-34.7301 804.486,-45.2326 1123,-20 1138.93,-18.7381 1156.53,-16.8941 1171.41,-15.2032"/>
<polygon fill="midnightblue" stroke="midnightblue" points="1172.17,-18.6385 1181.7,-14.0096 1171.36,-11.6851 1172.17,-18.6385"/>
</g>
<!-- Node7&#45;&gt;Node2 -->
<g id="edge8" class="edge"><title>Node7&#45;&gt;Node2</title>
<path fill="none" stroke="midnightblue" d="M320.165,-62.9507C342.028,-61.0447 375.73,-58.1795 405,-56 655.924,-37.3163 958.794,-18.8875 1057.89,-12.9644"/>
<polygon fill="midnightblue" stroke="midnightblue" points="1058.12,-16.4568 1067.89,-12.3673 1057.7,-9.46918 1058.12,-16.4568"/>
</g>
<!-- Node8 -->
<g id="node8" class="node"><title>Node8</title>
<polygon fill="none" stroke="#bfbfbf" points="274,-0.5 274,-19.5 330,-19.5 330,-0.5 274,-0.5"/>
<text text-anchor="middle" x="302" y="-7.5" font-family="Helvetica,sans-Serif" font-size="10.00">stdbool.h</text>
</g>
<!-- Node7&#45;&gt;Node8 -->
<g id="edge9" class="edge"><title>Node7&#45;&gt;Node8</title>
<path fill="none" stroke="midnightblue" d="M297.826,-56.083C298.481,-49.0059 299.42,-38.8611 300.242,-29.9865"/>
<polygon fill="midnightblue" stroke="midnightblue" points="303.753,-30.0312 301.19,-19.7511 296.783,-29.3858 303.753,-30.0312"/>
</g>
<!-- Node7&#45;&gt;Node4 -->
<g id="edge10" class="edge"><title>Node7&#45;&gt;Node4</title>
<path fill="none" stroke="midnightblue" d="M273.86,-60.3023C228.88,-51.1712 129.109,-30.917 72.4372,-19.4121"/>
<polygon fill="midnightblue" stroke="midnightblue" points="72.8762,-15.9299 62.3798,-17.3703 71.4835,-22.7899 72.8762,-15.9299"/>
</g>
<!-- Node9 -->
<g id="node9" class="node"><title>Node9</title>
<polygon fill="none" stroke="#bfbfbf" points="353.5,-0.5 353.5,-19.5 400.5,-19.5 400.5,-0.5 353.5,-0.5"/>
<text text-anchor="middle" x="377" y="-7.5" font-family="Helvetica,sans-Serif" font-size="10.00">errno.h</text>
</g>
<!-- Node7&#45;&gt;Node9 -->
<g id="edge11" class="edge"><title>Node7&#45;&gt;Node9</title>
<path fill="none" stroke="midnightblue" d="M309.853,-56.324C322.216,-47.979 341.13,-35.2122 355.737,-25.3524"/>
<polygon fill="midnightblue" stroke="midnightblue" points="357.848,-28.1503 364.179,-19.6545 353.932,-22.3483 357.848,-28.1503"/>
</g>
<!-- Node7&#45;&gt;Node5 -->
<g id="edge12" class="edge"><title>Node7&#45;&gt;Node5</title>
<path fill="none" stroke="midnightblue" d="M273.914,-56.7986C248.581,-47.7986 207.676,-33.2666 178.746,-22.9887"/>
<polygon fill="midnightblue" stroke="midnightblue" points="179.652,-19.5963 169.057,-19.5467 177.309,-26.1925 179.652,-19.5963"/>
</g>
<!-- Node10 -->
<g id="node10" class="node"><title>Node10</title>
<polygon fill="none" stroke="#bfbfbf" points="208,-0.5 208,-19.5 256,-19.5 256,-0.5 208,-0.5"/>
<text text-anchor="middle" x="232" y="-7.5" font-family="Helvetica,sans-Serif" font-size="10.00">limits.h</text>
</g>
<!-- Node7&#45;&gt;Node10 -->
<g id="edge13" class="edge"><title>Node7&#45;&gt;Node10</title>
<path fill="none" stroke="midnightblue" d="M286.557,-56.324C276.854,-48.2631 262.185,-36.0765 250.5,-26.3695"/>
<polygon fill="midnightblue" stroke="midnightblue" points="252.562,-23.532 242.633,-19.8339 248.089,-28.9163 252.562,-23.532"/>
</g>
<!-- Node12 -->
<g id="node12" class="node"><title>Node12</title>
<polygon fill="none" stroke="#bfbfbf" points="282,-336.5 282,-355.5 332,-355.5 332,-336.5 282,-336.5"/>
<text text-anchor="middle" x="307" y="-343.5" font-family="Helvetica,sans-Serif" font-size="10.00">signal.h</text>
</g>
<!-- Node11&#45;&gt;Node12 -->
<g id="edge15" class="edge"><title>Node11&#45;&gt;Node12</title>
<path fill="none" stroke="midnightblue" d="M284.459,-392.083C288.154,-384.691 293.523,-373.953 298.094,-364.811"/>
<polygon fill="midnightblue" stroke="midnightblue" points="301.283,-366.261 302.624,-355.751 295.022,-363.13 301.283,-366.261"/>
</g>
<!-- Node13 -->
<g id="node13" class="node"><title>Node13</title>
<polygon fill="none" stroke="#bfbfbf" points="350,-336.5 350,-355.5 394,-355.5 394,-336.5 350,-336.5"/>
<text text-anchor="middle" x="372" y="-343.5" font-family="Helvetica,sans-Serif" font-size="10.00">time.h</text>
</g>
<!-- Node11&#45;&gt;Node13 -->
<g id="edge16" class="edge"><title>Node11&#45;&gt;Node13</title>
<path fill="none" stroke="midnightblue" d="M294.781,-392.324C309.267,-383.822 331.573,-370.729 348.493,-360.797"/>
<polygon fill="midnightblue" stroke="midnightblue" points="350.403,-363.735 357.255,-355.655 346.859,-357.698 350.403,-363.735"/>
</g>
<!-- Node11&#45;&gt;Node7 -->
<g id="edge17" class="edge"><title>Node11&#45;&gt;Node7</title>
<path fill="none" stroke="midnightblue" d="M256.982,-396.082C213.588,-385.311 124,-355.29 124,-291 124,-291 124,-291 124,-177 124,-111.54 213.292,-83.3613 263.577,-72.6825"/>
<polygon fill="midnightblue" stroke="midnightblue" points="264.55,-76.0571 273.668,-70.6622 263.176,-69.1933 264.55,-76.0571"/>
</g>
<!-- Node14 -->
<g id="node14" class="node"><title>Node14</title>
<g id="a_node14"><a xlink:href="../../d9/d9b/address_8h.html" target="_top" xlink:title="Utilitaires pour obtenir des addresses. (header)">
<polygon fill="none" stroke="black" points="630.5,-112.5 630.5,-131.5 689.5,-131.5 689.5,-112.5 630.5,-112.5"/>
<text text-anchor="middle" x="660" y="-119.5" font-family="Helvetica,sans-Serif" font-size="10.00">address.h</text>
</a>
</g>
</g>
<!-- Node11&#45;&gt;Node14 -->
<g id="edge18" class="edge"><title>Node11&#45;&gt;Node14</title>
<path fill="none" stroke="midnightblue" d="M275.949,-392.304C270.461,-379.134 262.489,-353.783 273,-336 293.786,-300.833 548.044,-176.66 632.747,-135.997"/>
<polygon fill="midnightblue" stroke="midnightblue" points="634.48,-139.048 641.986,-131.571 631.455,-132.735 634.48,-139.048"/>
</g>
<!-- Node22 -->
<g id="node22" class="node"><title>Node22</title>
<g id="a_node22"><a xlink:href="../../de/d71/traceroute_8h.html" target="_top" xlink:title="Traceroute (header)">
<polygon fill="none" stroke="black" points="466,-336.5 466,-355.5 534,-355.5 534,-336.5 466,-336.5"/>
<text text-anchor="middle" x="500" y="-343.5" font-family="Helvetica,sans-Serif" font-size="10.00">traceroute.h</text>
</a>
</g>
</g>
<!-- Node11&#45;&gt;Node22 -->
<g id="edge27" class="edge"><title>Node11&#45;&gt;Node22</title>
<path fill="none" stroke="midnightblue" d="M303.043,-394.403C306.051,-393.576 309.096,-392.756 312,-392 361.195,-379.2 417.988,-365.793 456.167,-356.979"/>
<polygon fill="midnightblue" stroke="midnightblue" points="456.978,-360.384 465.938,-354.73 455.407,-353.563 456.978,-360.384"/>
</g>
<!-- Node15 -->
<g id="node15" class="node"><title>Node15</title>
<polygon fill="none" stroke="#bfbfbf" points="878,-56.5 878,-75.5 946,-75.5 946,-56.5 878,-56.5"/>
<text text-anchor="middle" x="912" y="-63.5" font-family="Helvetica,sans-Serif" font-size="10.00">sys/types.h</text>
</g>
<!-- Node14&#45;&gt;Node15 -->
<g id="edge19" class="edge"><title>Node14&#45;&gt;Node15</title>
<path fill="none" stroke="midnightblue" d="M689.897,-114.593C733.929,-105.158 816.512,-87.4617 867.627,-76.5084"/>
<polygon fill="midnightblue" stroke="midnightblue" points="868.676,-79.8632 877.721,-74.3455 867.21,-73.0185 868.676,-79.8632"/>
</g>
<!-- Node16 -->
<g id="node16" class="node"><title>Node16</title>
<polygon fill="none" stroke="#bfbfbf" points="486.5,-56.5 486.5,-75.5 559.5,-75.5 559.5,-56.5 486.5,-56.5"/>
<text text-anchor="middle" x="523" y="-63.5" font-family="Helvetica,sans-Serif" font-size="10.00">sys/socket.h</text>
</g>
<!-- Node14&#45;&gt;Node16 -->
<g id="edge20" class="edge"><title>Node14&#45;&gt;Node16</title>
<path fill="none" stroke="midnightblue" d="M638.292,-112.444C615.645,-103.517 579.928,-89.4387 554.248,-79.3168"/>
<polygon fill="midnightblue" stroke="midnightblue" points="555.193,-75.9273 544.606,-75.5164 552.626,-82.4397 555.193,-75.9273"/>
</g>
<!-- Node17 -->
<g id="node17" class="node"><title>Node17</title>
<polygon fill="none" stroke="#bfbfbf" points="577.5,-56.5 577.5,-75.5 626.5,-75.5 626.5,-56.5 577.5,-56.5"/>
<text text-anchor="middle" x="602" y="-63.5" font-family="Helvetica,sans-Serif" font-size="10.00">netdb.h</text>
</g>
<!-- Node14&#45;&gt;Node17 -->
<g id="edge21" class="edge"><title>Node14&#45;&gt;Node17</title>
<path fill="none" stroke="midnightblue" d="M650.681,-112.324C642.107,-104.341 629.188,-92.3128 618.812,-82.6529"/>
<polygon fill="midnightblue" stroke="midnightblue" points="621.192,-80.0865 611.488,-75.8339 616.422,-85.2098 621.192,-80.0865"/>
</g>
<!-- Node18 -->
<g id="node18" class="node"><title>Node18</title>
<polygon fill="none" stroke="#bfbfbf" points="808.5,-56.5 808.5,-75.5 859.5,-75.5 859.5,-56.5 808.5,-56.5"/>
<text text-anchor="middle" x="834" y="-63.5" font-family="Helvetica,sans-Serif" font-size="10.00">unistd.h</text>
</g>
<!-- Node14&#45;&gt;Node18 -->
<g id="edge22" class="edge"><title>Node14&#45;&gt;Node18</title>
<path fill="none" stroke="midnightblue" d="M687.571,-112.444C717.618,-103.118 765.783,-88.1708 798.604,-77.985"/>
<polygon fill="midnightblue" stroke="midnightblue" points="799.747,-81.2951 808.26,-74.9883 797.672,-74.6096 799.747,-81.2951"/>
</g>
<!-- Node19 -->
<g id="node19" class="node"><title>Node19</title>
<polygon fill="none" stroke="#bfbfbf" points="644.5,-56.5 644.5,-75.5 709.5,-75.5 709.5,-56.5 644.5,-56.5"/>
<text text-anchor="middle" x="677" y="-63.5" font-family="Helvetica,sans-Serif" font-size="10.00">netinet/in.h</text>
</g>
<!-- Node14&#45;&gt;Node19 -->
<g id="edge23" class="edge"><title>Node14&#45;&gt;Node19</title>
<path fill="none" stroke="midnightblue" d="M662.807,-112.083C665.085,-104.849 668.371,-94.4087 671.208,-85.3968"/>
<polygon fill="midnightblue" stroke="midnightblue" points="674.581,-86.3406 674.245,-75.7511 667.904,-84.2385 674.581,-86.3406"/>
</g>
<!-- Node20 -->
<g id="node20" class="node"><title>Node20</title>
<polygon fill="none" stroke="#bfbfbf" points="728,-56.5 728,-75.5 790,-75.5 790,-56.5 728,-56.5"/>
<text text-anchor="middle" x="759" y="-63.5" font-family="Helvetica,sans-Serif" font-size="10.00">arpa/inet.h</text>
</g>
<!-- Node14&#45;&gt;Node20 -->
<g id="edge24" class="edge"><title>Node14&#45;&gt;Node20</title>
<path fill="none" stroke="midnightblue" d="M675.906,-112.324C691.638,-103.743 715.942,-90.486 734.209,-80.5224"/>
<polygon fill="midnightblue" stroke="midnightblue" points="736.03,-83.5157 743.133,-75.6545 732.678,-77.3704 736.03,-83.5157"/>
</g>
<!-- Node21 -->
<g id="node21" class="node"><title>Node21</title>
<polygon fill="none" stroke="#bfbfbf" points="414,-56.5 414,-75.5 468,-75.5 468,-56.5 414,-56.5"/>
<text text-anchor="middle" x="441" y="-63.5" font-family="Helvetica,sans-Serif" font-size="10.00">ifaddrs.h</text>
</g>
<!-- Node14&#45;&gt;Node21 -->
<g id="edge25" class="edge"><title>Node14&#45;&gt;Node21</title>
<path fill="none" stroke="midnightblue" d="M630.196,-113.709C595.88,-105.305 537.553,-90.9969 478.066,-76.2576"/>
<polygon fill="midnightblue" stroke="midnightblue" points="478.672,-72.8021 468.124,-73.7929 476.988,-79.5964 478.672,-72.8021"/>
</g>
<!-- Node14&#45;&gt;Node7 -->
<g id="edge26" class="edge"><title>Node14&#45;&gt;Node7</title>
<path fill="none" stroke="midnightblue" d="M630.225,-114.651C625.476,-113.713 620.61,-112.796 616,-112 512.229,-94.0853 388.546,-78.1807 330.372,-71.0199"/>
<polygon fill="midnightblue" stroke="midnightblue" points="330.643,-67.527 320.292,-69.7861 329.792,-74.4752 330.643,-67.527"/>
</g>
<!-- Node23 -->
<g id="node23" class="node"><title>Node23</title>
<polygon fill="none" stroke="#bfbfbf" points="1078,-224.5 1078,-243.5 1140,-243.5 1140,-224.5 1078,-224.5"/>
<text text-anchor="middle" x="1109" y="-231.5" font-family="Helvetica,sans-Serif" font-size="10.00">sys/time.h</text>
</g>
<!-- Node22&#45;&gt;Node23 -->
<g id="edge28" class="edge"><title>Node22&#45;&gt;Node23</title>
<path fill="none" stroke="midnightblue" d="M534.057,-339.148C621.917,-323.998 863.4,-282.018 1064,-244 1065.1,-243.792 1066.21,-243.58 1067.33,-243.365"/>
<polygon fill="midnightblue" stroke="midnightblue" points="1068.4,-246.723 1077.54,-241.375 1067.06,-239.852 1068.4,-246.723"/>
</g>
<!-- Node22&#45;&gt;Node7 -->
<g id="edge29" class="edge"><title>Node22&#45;&gt;Node7</title>
<path fill="none" stroke="midnightblue" d="M465.731,-341.249C379.801,-330.898 162,-298.407 162,-235 162,-235 162,-235 162,-177 162,-124.463 224.204,-92.5658 264.164,-77.495"/>
<polygon fill="midnightblue" stroke="midnightblue" points="265.572,-80.7078 273.793,-74.0236 263.198,-74.1227 265.572,-80.7078"/>
</g>
<!-- Node22&#45;&gt;Node14 -->
<g id="edge30" class="edge"><title>Node22&#45;&gt;Node14</title>
<path fill="none" stroke="midnightblue" d="M500.981,-336.107C502.703,-323.121 507.076,-298.502 517,-280 549.496,-219.417 610.522,-163.793 641.275,-138.047"/>
<polygon fill="midnightblue" stroke="midnightblue" points="643.607,-140.66 649.097,-131.598 639.155,-135.258 643.607,-140.66"/>
</g>
<!-- Node24 -->
<g id="node24" class="node"><title>Node24</title>
<g id="a_node24"><a xlink:href="../../d3/d76/packet_8h.html" target="_top" xlink:title="Utilitaires pour créer des paquets (header)">
<polygon fill="none" stroke="black" points="526,-280.5 526,-299.5 580,-299.5 580,-280.5 526,-280.5"/>
<text text-anchor="middle" x="553" y="-287.5" font-family="Helvetica,sans-Serif" font-size="10.00">packet.h</text>
</a>
</g>
</g>
<!-- Node22&#45;&gt;Node24 -->
<g id="edge31" class="edge"><title>Node22&#45;&gt;Node24</title>
<path fill="none" stroke="midnightblue" d="M508.752,-336.083C516.47,-328.22 527.905,-316.569 537.217,-307.081"/>
<polygon fill="midnightblue" stroke="midnightblue" points="539.904,-309.34 544.411,-299.751 534.908,-304.436 539.904,-309.34"/>
</g>
<!-- Node34 -->
<g id="node34" class="node"><title>Node34</title>
<g id="a_node34"><a xlink:href="../../d0/d91/time__util_8h.html" target="_top" xlink:title="Utilitaires temps (header)">
<polygon fill="none" stroke="black" points="1107,-280.5 1107,-299.5 1169,-299.5 1169,-280.5 1107,-280.5"/>
<text text-anchor="middle" x="1138" y="-287.5" font-family="Helvetica,sans-Serif" font-size="10.00">time_util.h</text>
</a>
</g>
</g>
<!-- Node22&#45;&gt;Node34 -->
<g id="edge65" class="edge"><title>Node22&#45;&gt;Node34</title>
<path fill="none" stroke="midnightblue" d="M534.302,-342.097C642.965,-332.9 979.331,-304.43 1096.92,-294.477"/>
<polygon fill="midnightblue" stroke="midnightblue" points="1097.28,-297.959 1106.95,-293.628 1096.69,-290.984 1097.28,-297.959"/>
</g>
<!-- Node25 -->
<g id="node25" class="node"><title>Node25</title>
<polygon fill="none" stroke="#bfbfbf" points="228.5,-112.5 228.5,-131.5 319.5,-131.5 319.5,-112.5 228.5,-112.5"/>
<text text-anchor="middle" x="274" y="-119.5" font-family="Helvetica,sans-Serif" font-size="10.00">netinet/ip_icmp.h</text>
</g>
<!-- Node24&#45;&gt;Node25 -->
<g id="edge32" class="edge"><title>Node24&#45;&gt;Node25</title>
<path fill="none" stroke="midnightblue" d="M530.547,-280.483C509.492,-272.176 477.387,-258.676 451,-244 390.638,-210.428 324.789,-161.954 293.12,-137.818"/>
<polygon fill="midnightblue" stroke="midnightblue" points="295.192,-134.997 285.127,-131.689 290.932,-140.551 295.192,-134.997"/>
</g>
<!-- Node26 -->
<g id="node26" class="node"><title>Node26</title>
<polygon fill="none" stroke="#bfbfbf" points="376.5,-112.5 376.5,-131.5 459.5,-131.5 459.5,-112.5 376.5,-112.5"/>
<text text-anchor="middle" x="418" y="-119.5" font-family="Helvetica,sans-Serif" font-size="10.00">netinet/icmp6.h</text>
</g>
<!-- Node24&#45;&gt;Node26 -->
<g id="edge33" class="edge"><title>Node24&#45;&gt;Node26</title>
<path fill="none" stroke="midnightblue" d="M534.3,-280.343C505.3,-265.817 450.2,-233.583 425,-188 417.192,-173.876 415.898,-155.39 416.291,-141.744"/>
<polygon fill="midnightblue" stroke="midnightblue" points="419.793,-141.818 416.911,-131.622 412.806,-141.389 419.793,-141.818"/>
</g>
<!-- Node27 -->
<g id="node27" class="node"><title>Node27</title>
<polygon fill="none" stroke="#bfbfbf" points="1036.5,-112.5 1036.5,-131.5 1101.5,-131.5 1101.5,-112.5 1036.5,-112.5"/>
<text text-anchor="middle" x="1069" y="-119.5" font-family="Helvetica,sans-Serif" font-size="10.00">netinet/ip.h</text>
</g>
<!-- Node24&#45;&gt;Node27 -->
<g id="edge34" class="edge"><title>Node24&#45;&gt;Node27</title>
<path fill="none" stroke="midnightblue" d="M580.308,-287.749C632.302,-284.714 748.572,-274.779 841,-244 922.084,-216.999 1008.89,-163.076 1047.9,-137.328"/>
<polygon fill="midnightblue" stroke="midnightblue" points="1049.95,-140.166 1056.33,-131.707 1046.07,-134.341 1049.95,-140.166"/>
</g>
<!-- Node28 -->
<g id="node28" class="node"><title>Node28</title>
<polygon fill="none" stroke="#bfbfbf" points="746,-112.5 746,-131.5 816,-131.5 816,-112.5 746,-112.5"/>
<text text-anchor="middle" x="781" y="-119.5" font-family="Helvetica,sans-Serif" font-size="10.00">netinet/ip6.h</text>
</g>
<!-- Node24&#45;&gt;Node28 -->
<g id="edge35" class="edge"><title>Node24&#45;&gt;Node28</title>
<path fill="none" stroke="midnightblue" d="M564.937,-280.309C601.874,-253.416 714.589,-171.352 760.856,-137.666"/>
<polygon fill="midnightblue" stroke="midnightblue" points="763.157,-140.321 769.181,-131.605 759.037,-134.662 763.157,-140.321"/>
</g>
<!-- Node24&#45;&gt;Node15 -->
<g id="edge36" class="edge"><title>Node24&#45;&gt;Node15</title>
<path fill="none" stroke="midnightblue" d="M580.212,-288.042C636.923,-285.443 771.424,-276.118 879,-244 934.624,-227.393 944.769,-213.334 997,-188 1047.43,-163.539 1080.45,-179.628 1110,-132 1145.47,-74.8327 1024.94,-66.42 956.325,-66.0962"/>
<polygon fill="midnightblue" stroke="midnightblue" points="956.194,-62.5962 946.197,-66.1048 956.2,-69.5962 956.194,-62.5962"/>
</g>
<!-- Node24&#45;&gt;Node9 -->
<g id="edge37" class="edge"><title>Node24&#45;&gt;Node9</title>
<path fill="none" stroke="midnightblue" d="M534.025,-280.482C493.554,-261.078 399.778,-209.211 367,-132 352.571,-98.0122 362.571,-53.8833 370.324,-29.4054"/>
<polygon fill="midnightblue" stroke="midnightblue" points="373.735,-30.2429 373.632,-19.6486 367.106,-27.9951 373.735,-30.2429"/>
</g>
<!-- Node24&#45;&gt;Node7 -->
<g id="edge38" class="edge"><title>Node24&#45;&gt;Node7</title>
<path fill="none" stroke="midnightblue" d="M525.872,-286.254C458.595,-277.783 284.767,-245.328 219,-132 205.21,-108.238 237.124,-89.3161 264.201,-78.1489"/>
<polygon fill="midnightblue" stroke="midnightblue" points="265.813,-81.2774 273.865,-74.3909 263.276,-74.7533 265.813,-81.2774"/>
</g>
<!-- Node29 -->
<g id="node29" class="node"><title>Node29</title>
<g id="a_node29"><a xlink:href="../../d7/d13/icmp__util_8h.html" target="_top" xlink:title="Utilitaires ICMP (header)">
<polygon fill="none" stroke="black" points="434,-168.5 434,-187.5 498,-187.5 498,-168.5 434,-168.5"/>
<text text-anchor="middle" x="466" y="-175.5" font-family="Helvetica,sans-Serif" font-size="10.00">icmp_util.h</text>
</a>
</g>
</g>
<!-- Node24&#45;&gt;Node29 -->
<g id="edge39" class="edge"><title>Node24&#45;&gt;Node29</title>
<path fill="none" stroke="midnightblue" d="M546.173,-280.368C531.752,-262.135 497.973,-219.426 479.189,-195.675"/>
<polygon fill="midnightblue" stroke="midnightblue" points="481.744,-193.264 472.795,-187.591 476.253,-197.606 481.744,-193.264"/>
</g>
<!-- Node31 -->
<g id="node31" class="node"><title>Node31</title>
<g id="a_node31"><a xlink:href="../../d4/dbd/ip__util_8h.html" target="_top" xlink:title="Utilitaires IP (header)">
<polygon fill="none" stroke="black" points="836,-168.5 836,-187.5 886,-187.5 886,-168.5 836,-168.5"/>
<text text-anchor="middle" x="861" y="-175.5" font-family="Helvetica,sans-Serif" font-size="10.00">ip_util.h</text>
</a>
</g>
</g>
<!-- Node24&#45;&gt;Node31 -->
<g id="edge49" class="edge"><title>Node24&#45;&gt;Node31</title>
<path fill="none" stroke="midnightblue" d="M580.083,-287.02C639.078,-282.29 777.032,-268.832 816,-244 833.492,-232.853 846.014,-212.215 853.338,-197.176"/>
<polygon fill="midnightblue" stroke="midnightblue" points="856.628,-198.397 857.575,-187.845 850.254,-195.503 856.628,-198.397"/>
</g>
<!-- Node32 -->
<g id="node32" class="node"><title>Node32</title>
<g id="a_node32"><a xlink:href="../../da/d14/udp__util_8h.html" target="_top" xlink:title="Utilitaires IP (header)">
<polygon fill="none" stroke="black" points="748.5,-224.5 748.5,-243.5 807.5,-243.5 807.5,-224.5 748.5,-224.5"/>
<text text-anchor="middle" x="778" y="-231.5" font-family="Helvetica,sans-Serif" font-size="10.00">udp_util.h</text>
</a>
</g>
</g>
<!-- Node24&#45;&gt;Node32 -->
<g id="edge58" class="edge"><title>Node24&#45;&gt;Node32</title>
<path fill="none" stroke="midnightblue" d="M580.14,-282.486C619.585,-273.02 692.993,-255.402 738.454,-244.491"/>
<polygon fill="midnightblue" stroke="midnightblue" points="739.355,-247.874 748.262,-242.137 737.722,-241.067 739.355,-247.874"/>
</g>
<!-- Node24&#45;&gt;Node14 -->
<g id="edge64" class="edge"><title>Node24&#45;&gt;Node14</title>
<path fill="none" stroke="midnightblue" d="M558.753,-280.075C575.814,-253.606 626.347,-175.209 648.907,-140.21"/>
<polygon fill="midnightblue" stroke="midnightblue" points="652.001,-141.87 654.477,-131.568 646.118,-138.077 652.001,-141.87"/>
</g>
<!-- Node29&#45;&gt;Node25 -->
<g id="edge40" class="edge"><title>Node29&#45;&gt;Node25</title>
<path fill="none" stroke="midnightblue" d="M435.577,-168.444C402.715,-159.201 350.215,-144.436 314.026,-134.257"/>
<polygon fill="midnightblue" stroke="midnightblue" points="314.855,-130.855 304.281,-131.516 312.96,-137.593 314.855,-130.855"/>
</g>
<!-- Node29&#45;&gt;Node26 -->
<g id="edge41" class="edge"><title>Node29&#45;&gt;Node26</title>
<path fill="none" stroke="midnightblue" d="M458.074,-168.083C451.154,-160.298 440.935,-148.801 432.548,-139.367"/>
<polygon fill="midnightblue" stroke="midnightblue" points="435.038,-136.9 425.779,-131.751 429.806,-141.55 435.038,-136.9"/>
</g>
<!-- Node29&#45;&gt;Node15 -->
<g id="edge42" class="edge"><title>Node29&#45;&gt;Node15</title>
<path fill="none" stroke="midnightblue" d="M498.264,-173.656C543.775,-168.291 628.975,-155.853 698,-132 716.411,-125.638 718.788,-118.913 737,-112 760.74,-102.989 824.438,-87.379 868.063,-77.1197"/>
<polygon fill="midnightblue" stroke="midnightblue" points="868.925,-80.5127 877.864,-74.8253 867.329,-73.697 868.925,-80.5127"/>
</g>
<!-- Node29&#45;&gt;Node9 -->
<g id="edge43" class="edge"><title>Node29&#45;&gt;Node9</title>
<path fill="none" stroke="midnightblue" d="M472.982,-168.363C482.661,-155.27 497.709,-130.018 486,-112 464.533,-78.9672 432.696,-104.016 405,-76 392.334,-63.1878 384.992,-43.729 381.03,-29.4404"/>
<polygon fill="midnightblue" stroke="midnightblue" points="384.424,-28.5854 378.627,-19.7173 377.628,-30.2649 384.424,-28.5854"/>
</g>
<!-- Node29&#45;&gt;Node7 -->
<g id="edge44" class="edge"><title>Node29&#45;&gt;Node7</title>
<path fill="none" stroke="midnightblue" d="M469.395,-168.372C474.101,-154.834 480.683,-128.453 468,-112 451.299,-90.3358 374.981,-77.0267 330.144,-70.9388"/>
<polygon fill="midnightblue" stroke="midnightblue" points="330.384,-67.4404 320.014,-69.6132 329.476,-74.3812 330.384,-67.4404"/>
</g>
<!-- Node30 -->
<g id="node30" class="node"><title>Node30</title>
<g id="a_node30"><a xlink:href="../../dc/d31/checksum_8h.html" target="_top" xlink:title="Internet Checksum. (header)">
<polygon fill="none" stroke="black" points="948,-112.5 948,-131.5 1018,-131.5 1018,-112.5 948,-112.5"/>
<text text-anchor="middle" x="983" y="-119.5" font-family="Helvetica,sans-Serif" font-size="10.00">checksum.h</text>
</a>
</g>
</g>
<!-- Node29&#45;&gt;Node30 -->
<g id="edge45" class="edge"><title>Node29&#45;&gt;Node30</title>
<path fill="none" stroke="midnightblue" d="M498.341,-173.622C587.249,-164.336 835.535,-138.403 937.949,-127.706"/>
<polygon fill="midnightblue" stroke="midnightblue" points="938.39,-131.179 947.972,-126.659 937.663,-124.216 938.39,-131.179"/>
</g>
<!-- Node29&#45;&gt;Node14 -->
<g id="edge48" class="edge"><title>Node29&#45;&gt;Node14</title>
<path fill="none" stroke="midnightblue" d="M496.74,-168.444C530.237,-159.12 583.928,-144.175 620.522,-133.989"/>
<polygon fill="midnightblue" stroke="midnightblue" points="621.663,-137.304 630.358,-131.251 619.786,-130.561 621.663,-137.304"/>
</g>
<!-- Node30&#45;&gt;Node3 -->
<g id="edge46" class="edge"><title>Node30&#45;&gt;Node3</title>
<path fill="none" stroke="midnightblue" d="M1000.5,-112.368C1039.42,-93.1711 1133.34,-46.8418 1179.5,-24.074"/>
<polygon fill="midnightblue" stroke="midnightblue" points="1181.16,-27.1542 1188.58,-19.5914 1178.07,-20.8764 1181.16,-27.1542"/>
</g>
<!-- Node30&#45;&gt;Node2 -->
<g id="edge47" class="edge"><title>Node30&#45;&gt;Node2</title>
<path fill="none" stroke="midnightblue" d="M991.475,-112.368C1009.61,-93.8941 1052.42,-50.2926 1075.54,-26.7436"/>
<polygon fill="midnightblue" stroke="midnightblue" points="1078.06,-29.1792 1082.56,-19.5914 1073.06,-24.275 1078.06,-29.1792"/>
</g>
<!-- Node31&#45;&gt;Node27 -->
<g id="edge50" class="edge"><title>Node31&#45;&gt;Node27</title>
<path fill="none" stroke="midnightblue" d="M886.09,-170.486C920.9,-161.449 984.325,-144.983 1026.57,-134.015"/>
<polygon fill="midnightblue" stroke="midnightblue" points="1027.5,-137.391 1036.3,-131.49 1025.74,-130.616 1027.5,-137.391"/>
</g>
<!-- Node31&#45;&gt;Node28 -->
<g id="edge51" class="edge"><title>Node31&#45;&gt;Node28</title>
<path fill="none" stroke="midnightblue" d="M848.147,-168.324C835.784,-159.979 816.87,-147.212 802.263,-137.352"/>
<polygon fill="midnightblue" stroke="midnightblue" points="804.068,-134.348 793.821,-131.655 800.152,-140.15 804.068,-134.348"/>
</g>
<!-- Node31&#45;&gt;Node15 -->
<g id="edge52" class="edge"><title>Node31&#45;&gt;Node15</title>
<path fill="none" stroke="midnightblue" d="M865.002,-168.368C873.307,-150.456 892.563,-108.923 903.679,-84.9482"/>
<polygon fill="midnightblue" stroke="midnightblue" points="906.986,-86.136 908.017,-75.5914 900.635,-83.1916 906.986,-86.136"/>
</g>
<!-- Node31&#45;&gt;Node9 -->
<g id="edge53" class="edge"><title>Node31&#45;&gt;Node9</title>
<path fill="none" stroke="midnightblue" d="M871.251,-168.325C899.279,-144.141 973.878,-76.4048 955,-56 917.964,-15.9685 529.351,-11.4655 411.009,-11.0259"/>
<polygon fill="midnightblue" stroke="midnightblue" points="410.745,-7.52521 400.735,-10.9957 410.725,-14.5252 410.745,-7.52521"/>
</g>
<!-- Node31&#45;&gt;Node18 -->
<g id="edge54" class="edge"><title>Node31&#45;&gt;Node18</title>
<path fill="none" stroke="midnightblue" d="M858.881,-168.368C854.524,-150.617 844.473,-109.666 838.565,-85.5974"/>
<polygon fill="midnightblue" stroke="midnightblue" points="841.892,-84.4688 836.109,-75.5914 835.094,-86.1375 841.892,-84.4688"/>
</g>
<!-- Node31&#45;&gt;Node7 -->
<g id="edge55" class="edge"><title>Node31&#45;&gt;Node7</title>
<path fill="none" stroke="midnightblue" d="M835.821,-170.276C832.526,-169.469 829.189,-168.689 826,-168 735.581,-148.466 711.512,-151.099 621,-132 584.718,-124.344 576.246,-119.824 540,-112 465.334,-95.8831 376.994,-80.4189 330.111,-72.4945"/>
<polygon fill="midnightblue" stroke="midnightblue" points="330.651,-69.0363 320.209,-70.8289 329.49,-75.9393 330.651,-69.0363"/>
</g>
<!-- Node31&#45;&gt;Node30 -->
<g id="edge56" class="edge"><title>Node31&#45;&gt;Node30</title>
<path fill="none" stroke="midnightblue" d="M880.331,-168.444C900.32,-159.596 931.743,-145.687 954.564,-135.586"/>
<polygon fill="midnightblue" stroke="midnightblue" points="956.032,-138.764 963.759,-131.516 953.198,-132.363 956.032,-138.764"/>
</g>
<!-- Node31&#45;&gt;Node14 -->
<g id="edge57" class="edge"><title>Node31&#45;&gt;Node14</title>
<path fill="none" stroke="midnightblue" d="M835.95,-170.27C801.703,-161.069 739.911,-144.469 699.423,-133.591"/>
<polygon fill="midnightblue" stroke="midnightblue" points="700.184,-130.172 689.619,-130.957 698.368,-136.932 700.184,-130.172"/>
</g>
<!-- Node33 -->
<g id="node33" class="node"><title>Node33</title>
<polygon fill="none" stroke="#bfbfbf" points="744.5,-168.5 744.5,-187.5 817.5,-187.5 817.5,-168.5 744.5,-168.5"/>
<text text-anchor="middle" x="781" y="-175.5" font-family="Helvetica,sans-Serif" font-size="10.00">netinet/udp.h</text>
</g>
<!-- Node32&#45;&gt;Node33 -->
<g id="edge59" class="edge"><title>Node32&#45;&gt;Node33</title>
<path fill="none" stroke="midnightblue" d="M778.495,-224.083C778.889,-217.006 779.452,-206.861 779.945,-197.986"/>
<polygon fill="midnightblue" stroke="midnightblue" points="783.454,-197.93 780.514,-187.751 776.464,-197.542 783.454,-197.93"/>
</g>
<!-- Node32&#45;&gt;Node27 -->
<g id="edge60" class="edge"><title>Node32&#45;&gt;Node27</title>
<path fill="none" stroke="midnightblue" d="M800.834,-224.368C852.257,-204.93 977.27,-157.674 1036.65,-135.228"/>
<polygon fill="midnightblue" stroke="midnightblue" points="1038.16,-138.401 1046.27,-131.591 1035.68,-131.853 1038.16,-138.401"/>
</g>
<!-- Node32&#45;&gt;Node7 -->
<g id="edge61" class="edge"><title>Node32&#45;&gt;Node7</title>
<path fill="none" stroke="midnightblue" d="M758.414,-224.404C702.189,-199.804 540.814,-129.758 486,-112 432.325,-94.6114 368.101,-80.734 330.03,-73.2033"/>
<polygon fill="midnightblue" stroke="midnightblue" points="330.501,-69.7293 320.016,-71.2499 329.161,-76.5998 330.501,-69.7293"/>
</g>
<!-- Node32&#45;&gt;Node31 -->
<g id="edge62" class="edge"><title>Node32&#45;&gt;Node31</title>
<path fill="none" stroke="midnightblue" d="M791.335,-224.324C804.162,-215.979 823.785,-203.212 838.94,-193.352"/>
<polygon fill="midnightblue" stroke="midnightblue" points="841.224,-196.042 847.698,-187.655 837.407,-190.174 841.224,-196.042"/>
</g>
<!-- Node32&#45;&gt;Node14 -->
<g id="edge63" class="edge"><title>Node32&#45;&gt;Node14</title>
<path fill="none" stroke="midnightblue" d="M768.741,-224.368C748.837,-205.814 701.743,-161.913 676.56,-138.438"/>
<polygon fill="midnightblue" stroke="midnightblue" points="678.918,-135.85 669.216,-131.591 674.144,-140.97 678.918,-135.85"/>
</g>
<!-- Node34&#45;&gt;Node3 -->
<g id="edge66" class="edge"><title>Node34&#45;&gt;Node3</title>
<path fill="none" stroke="midnightblue" d="M1143.47,-280.277C1148.89,-271.383 1157.21,-257.074 1163,-244 1194.94,-171.912 1207.16,-153.795 1220,-76 1222.61,-60.1615 1218.26,-42.3502 1213.73,-29.3829"/>
<polygon fill="midnightblue" stroke="midnightblue" points="1216.89,-27.8574 1210.04,-19.7794 1210.36,-30.3694 1216.89,-27.8574"/>
</g>
<!-- Node34&#45;&gt;Node2 -->
<g id="edge67" class="edge"><title>Node34&#45;&gt;Node2</title>
<path fill="none" stroke="midnightblue" d="M1140.73,-280.486C1143.45,-271.52 1147.44,-256.935 1149,-244 1150.06,-235.175 1149.86,-232.847 1149,-224 1144.09,-173.509 1140.44,-160.916 1127,-112 1118.85,-82.3301 1106.21,-48.8679 1098.29,-28.8798"/>
<polygon fill="midnightblue" stroke="midnightblue" points="1101.5,-27.4826 1094.52,-19.5088 1095,-30.0927 1101.5,-27.4826"/>
</g>
<!-- Node34&#45;&gt;Node23 -->
<g id="edge68" class="edge"><title>Node34&#45;&gt;Node23</title>
<path fill="none" stroke="midnightblue" d="M1133.21,-280.083C1129.24,-272.691 1123.47,-261.953 1118.57,-252.811"/>
<polygon fill="midnightblue" stroke="midnightblue" points="1121.51,-250.905 1113.7,-243.751 1115.35,-254.217 1121.51,-250.905"/>
</g>
</g>
</svg>
