<?xml version="1.0" encoding="UTF-8" standalone="no"?>
<!DOCTYPE svg PUBLIC "-//W3C//DTD SVG 1.1//EN"
 "http://www.w3.org/Graphics/SVG/1.1/DTD/svg11.dtd">
<!-- Generated by graphviz version 2.30.1 (20130712.1527)
 -->
<!-- Title: include/base.h Pages: 1 -->
<svg width="473pt" height="84pt"
 viewBox="0.00 0.00 473.00 84.00" xmlns="http://www.w3.org/2000/svg" xmlns:xlink="http://www.w3.org/1999/xlink">
<g id="graph0" class="graph" transform="scale(1 1) rotate(0) translate(4 80)">
<title>include/base.h</title>
<!-- Node1 -->
<g id="node1" class="node"><title>Node1</title>
<polygon fill="#bfbfbf" stroke="black" points="195,-56.5 195,-75.5 275,-75.5 275,-56.5 195,-56.5"/>
<text text-anchor="middle" x="235" y="-63.5" font-family="Helvetica,sans-Serif" font-size="10.00">include/base.h</text>
</g>
<!-- Node2 -->
<g id="node2" class="node"><title>Node2</title>
<polygon fill="none" stroke="#bfbfbf" points="0,-0.5 0,-19.5 48,-19.5 48,-0.5 0,-0.5"/>
<text text-anchor="middle" x="24" y="-7.5" font-family="Helvetica,sans-Serif" font-size="10.00">stdlib.h</text>
</g>
<!-- Node1&#45;&gt;Node2 -->
<g id="edge1" class="edge"><title>Node1&#45;&gt;Node2</title>
<path fill="none" stroke="midnightblue" d="M200.495,-56.479C166.632,-48.0719 113.267,-34.7046 58.0909,-20.2525"/>
<polygon fill="midnightblue" stroke="midnightblue" points="58.6977,-16.7932 48.1366,-17.6384 56.9197,-23.5637 58.6977,-16.7932"/>
</g>
<!-- Node3 -->
<g id="node3" class="node"><title>Node3</title>
<polygon fill="none" stroke="#bfbfbf" points="66,-0.5 66,-19.5 112,-19.5 112,-0.5 66,-0.5"/>
<text text-anchor="middle" x="89" y="-7.5" font-family="Helvetica,sans-Serif" font-size="10.00">stdio.h</text>
</g>
<!-- Node1&#45;&gt;Node3 -->
<g id="edge2" class="edge"><title>Node1&#45;&gt;Node3</title>
<path fill="none" stroke="midnightblue" d="M211.866,-56.4435C187.518,-47.4381 148.993,-33.1891 121.577,-23.049"/>
<polygon fill="midnightblue" stroke="midnightblue" points="122.619,-19.7028 112.026,-19.5164 120.191,-26.2681 122.619,-19.7028"/>
</g>
<!-- Node4 -->
<g id="node4" class="node"><title>Node4</title>
<polygon fill="none" stroke="#bfbfbf" points="130,-0.5 130,-19.5 186,-19.5 186,-0.5 130,-0.5"/>
<text text-anchor="middle" x="158" y="-7.5" font-family="Helvetica,sans-Serif" font-size="10.00">stdbool.h</text>
</g>
<!-- Node1&#45;&gt;Node4 -->
<g id="edge3" class="edge"><title>Node1&#45;&gt;Node4</title>
<path fill="none" stroke="midnightblue" d="M222.629,-56.324C210.842,-48.0577 192.868,-35.4527 178.864,-25.6322"/>
<polygon fill="midnightblue" stroke="midnightblue" points="180.538,-22.5307 170.341,-19.6545 176.518,-28.2619 180.538,-22.5307"/>
</g>
<!-- Node5 -->
<g id="node5" class="node"><title>Node5</title>
<polygon fill="none" stroke="#bfbfbf" points="204,-0.5 204,-19.5 266,-19.5 266,-0.5 204,-0.5"/>
<text text-anchor="middle" x="235" y="-7.5" font-family="Helvetica,sans-Serif" font-size="10.00">sysexits.h</text>
</g>
<!-- Node1&#45;&gt;Node5 -->
<g id="edge4" class="edge"><title>Node1&#45;&gt;Node5</title>
<path fill="none" stroke="midnightblue" d="M235,-56.083C235,-49.0059 235,-38.8611 235,-29.9865"/>
<polygon fill="midnightblue" stroke="midnightblue" points="238.5,-29.751 235,-19.7511 231.5,-29.7511 238.5,-29.751"/>
</g>
<!-- Node6 -->
<g id="node6" class="node"><title>Node6</title>
<polygon fill="none" stroke="#bfbfbf" points="284.5,-0.5 284.5,-19.5 331.5,-19.5 331.5,-0.5 284.5,-0.5"/>
<text text-anchor="middle" x="308" y="-7.5" font-family="Helvetica,sans-Serif" font-size="10.00">errno.h</text>
</g>
<!-- Node1&#45;&gt;Node6 -->
<g id="edge5" class="edge"><title>Node1&#45;&gt;Node6</title>
<path fill="none" stroke="midnightblue" d="M246.729,-56.324C257.837,-48.1066 274.742,-35.6017 287.983,-25.8069"/>
<polygon fill="midnightblue" stroke="midnightblue" points="290.1,-28.5948 296.058,-19.8339 285.937,-22.9671 290.1,-28.5948"/>
</g>
<!-- Node7 -->
<g id="node7" class="node"><title>Node7</title>
<polygon fill="none" stroke="#bfbfbf" points="349.5,-0.5 349.5,-19.5 398.5,-19.5 398.5,-0.5 349.5,-0.5"/>
<text text-anchor="middle" x="374" y="-7.5" font-family="Helvetica,sans-Serif" font-size="10.00">string.h</text>
</g>
<!-- Node1&#45;&gt;Node7 -->
<g id="edge6" class="edge"><title>Node1&#45;&gt;Node7</title>
<path fill="none" stroke="midnightblue" d="M257.025,-56.4435C280.104,-47.4776 316.562,-33.314 342.641,-23.1827"/>
<polygon fill="midnightblue" stroke="midnightblue" points="344.024,-26.4002 352.078,-19.5164 341.489,-19.8753 344.024,-26.4002"/>
</g>
<!-- Node8 -->
<g id="node8" class="node"><title>Node8</title>
<polygon fill="none" stroke="#bfbfbf" points="417,-0.5 417,-19.5 465,-19.5 465,-0.5 417,-0.5"/>
<text text-anchor="middle" x="441" y="-7.5" font-family="Helvetica,sans-Serif" font-size="10.00">limits.h</text>
</g>
<!-- Node1&#45;&gt;Node8 -->
<g id="edge7" class="edge"><title>Node1&#45;&gt;Node8</title>
<path fill="none" stroke="midnightblue" d="M267.661,-56.4849C302.264,-47.4563 358.494,-32.7651 407,-20 407.1,-19.9738 407.199,-19.9475 407.299,-19.9212"/>
<polygon fill="midnightblue" stroke="midnightblue" points="408.08,-23.3351 416.856,-17.4002 406.294,-16.5667 408.08,-23.3351"/>
</g>
</g>
</svg>
