<?xml version="1.0" encoding="UTF-8" standalone="no"?>
<!DOCTYPE svg PUBLIC "-//W3C//DTD SVG 1.1//EN"
 "http://www.w3.org/Graphics/SVG/1.1/DTD/svg11.dtd">
<!-- Generated by graphviz version 2.30.1 (20130712.1527)
 -->
<!-- Title: src/udp_util.c Pages: 1 -->
<!--zoomable 308 -->
<svg id="main" version="1.1" xmlns="http://www.w3.org/2000/svg" xmlns:xlink="http://www.w3.org/1999/xlink" xml:space="preserve" onload="init(evt)">
        <defs>
                <circle id="rim" cx="0" cy="0" r="7"/>
                <circle id="rim2" cx="0" cy="0" r="3.5"/>
                <g id="zoomPlus">
                        <use xlink:href="#rim" fill="#404040">
                                <set attributeName="fill" to="#808080" begin="zoomplus.mouseover" end="zoomplus.mouseout"/>
                        </use>
                        <path d="M-4,0h8M0,-4v8" fill="none" stroke="white" stroke-width="1.5" pointer-events="none"/>
                </g>
                <g id="zoomMin">
                        <use xlink:href="#rim" fill="#404040">
                                <set attributeName="fill" to="#808080" begin="zoomminus.mouseover" end="zoomminus.mouseout"/>
                        </use>
                        <path d="M-4,0h8" fill="none" stroke="white" stroke-width="1.5" pointer-events="none"/>
                </g>
                <g id="dirArrow">
                        <path fill="none" stroke="white" stroke-width="1.5" d="M0,-3.0v7 M-2.5,-0.5L0,-3.0L2.5,-0.5"/>
                </g>
               <g id="resetDef">
                       <use xlink:href="#rim2" fill="#404040">
                               <set attributeName="fill" to="#808080" begin="reset.mouseover" end="reset.mouseout"/>
                       </use>
               </g>
        </defs>

<script type="text/javascript">
var viewWidth = 940;
var viewHeight = 308;
var sectionId = 'dynsection-0';
</script>
<script xlink:href="../../svgpan.js"/>
<svg id="graph" class="graph">
<g id="viewport">
<title>src/udp_util.c</title>
<!-- Node1 -->
<g id="node1" class="node"><title>Node1</title>
<polygon fill="#bfbfbf" stroke="black" points="396.5,-280.5 396.5,-299.5 471.5,-299.5 471.5,-280.5 396.5,-280.5"/>
<text text-anchor="middle" x="434" y="-287.5" font-family="Helvetica,sans-Serif" font-size="10.00">src/udp_util.c</text>
</g>
<!-- Node2 -->
<g id="node2" class="node"><title>Node2</title>
<g id="a_node2"><a xlink:href="../../da/d14/udp__util_8h.html" target="_top" xlink:title="Utilitaires IP (header)">
<polygon fill="none" stroke="black" points="404.5,-224.5 404.5,-243.5 463.5,-243.5 463.5,-224.5 404.5,-224.5"/>
<text text-anchor="middle" x="434" y="-231.5" font-family="Helvetica,sans-Serif" font-size="10.00">udp_util.h</text>
</a>
</g>
</g>
<!-- Node1&#45;&gt;Node2 -->
<g id="edge1" class="edge"><title>Node1&#45;&gt;Node2</title>
<path fill="none" stroke="midnightblue" d="M434,-280.083C434,-273.006 434,-262.861 434,-253.986"/>
<polygon fill="midnightblue" stroke="midnightblue" points="437.5,-253.751 434,-243.751 430.5,-253.751 437.5,-253.751"/>
</g>
<!-- Node3 -->
<g id="node3" class="node"><title>Node3</title>
<polygon fill="none" stroke="#bfbfbf" points="294.5,-168.5 294.5,-187.5 367.5,-187.5 367.5,-168.5 294.5,-168.5"/>
<text text-anchor="middle" x="331" y="-175.5" font-family="Helvetica,sans-Serif" font-size="10.00">netinet/udp.h</text>
</g>
<!-- Node2&#45;&gt;Node3 -->
<g id="edge2" class="edge"><title>Node2&#45;&gt;Node3</title>
<path fill="none" stroke="midnightblue" d="M417.451,-224.324C401.008,-215.703 375.565,-202.364 356.532,-192.386"/>
<polygon fill="midnightblue" stroke="midnightblue" points="357.989,-189.198 347.508,-187.655 354.739,-195.398 357.989,-189.198"/>
</g>
<!-- Node4 -->
<g id="node4" class="node"><title>Node4</title>
<polygon fill="none" stroke="#bfbfbf" points="299.5,-112.5 299.5,-131.5 364.5,-131.5 364.5,-112.5 299.5,-112.5"/>
<text text-anchor="middle" x="332" y="-119.5" font-family="Helvetica,sans-Serif" font-size="10.00">netinet/ip.h</text>
</g>
<!-- Node2&#45;&gt;Node4 -->
<g id="edge3" class="edge"><title>Node2&#45;&gt;Node4</title>
<path fill="none" stroke="midnightblue" d="M426.613,-224.475C415.708,-211.947 394.584,-187.894 376,-168 366.749,-158.097 356.134,-147.226 347.648,-138.651"/>
<polygon fill="midnightblue" stroke="midnightblue" points="350.085,-136.139 340.553,-131.514 345.121,-141.074 350.085,-136.139"/>
</g>
<!-- Node5 -->
<g id="node5" class="node"><title>Node5</title>
<g id="a_node5"><a xlink:href="../../d3/d5a/base_8h.html" target="_top" xlink:title="Fonctions et inclusions de base. (header)">
<polygon fill="none" stroke="black" points="638,-56.5 638,-75.5 684,-75.5 684,-56.5 638,-56.5"/>
<text text-anchor="middle" x="661" y="-63.5" font-family="Helvetica,sans-Serif" font-size="10.00">base.h</text>
</a>
</g>
</g>
<!-- Node2&#45;&gt;Node5 -->
<g id="edge4" class="edge"><title>Node2&#45;&gt;Node5</title>
<path fill="none" stroke="midnightblue" d="M463.566,-231.552C519.283,-227.038 638.897,-208.459 691,-132 701.433,-116.69 689.545,-97.1716 677.792,-83.5362"/>
<polygon fill="midnightblue" stroke="midnightblue" points="680.064,-80.8396 670.693,-75.8967 674.937,-85.6047 680.064,-80.8396"/>
</g>
<!-- Node13 -->
<g id="node13" class="node"><title>Node13</title>
<g id="a_node13"><a xlink:href="../../d4/dbd/ip__util_8h.html" target="_top" xlink:title="Utilitaires IP (header)">
<polygon fill="none" stroke="black" points="483,-168.5 483,-187.5 533,-187.5 533,-168.5 483,-168.5"/>
<text text-anchor="middle" x="508" y="-175.5" font-family="Helvetica,sans-Serif" font-size="10.00">ip_util.h</text>
</a>
</g>
</g>
<!-- Node2&#45;&gt;Node13 -->
<g id="edge12" class="edge"><title>Node2&#45;&gt;Node13</title>
<path fill="none" stroke="midnightblue" d="M445.889,-224.324C457.15,-216.107 474.287,-203.602 487.709,-193.807"/>
<polygon fill="midnightblue" stroke="midnightblue" points="489.88,-196.556 495.894,-187.834 485.753,-190.901 489.88,-196.556"/>
</g>
<!-- Node18 -->
<g id="node18" class="node"><title>Node18</title>
<g id="a_node18"><a xlink:href="../../d9/d9b/address_8h.html" target="_top" xlink:title="Utilitaires pour obtenir des addresses. (header)">
<polygon fill="none" stroke="black" points="382.5,-112.5 382.5,-131.5 441.5,-131.5 441.5,-112.5 382.5,-112.5"/>
<text text-anchor="middle" x="412" y="-119.5" font-family="Helvetica,sans-Serif" font-size="10.00">address.h</text>
</a>
</g>
</g>
<!-- Node2&#45;&gt;Node18 -->
<g id="edge31" class="edge"><title>Node2&#45;&gt;Node18</title>
<path fill="none" stroke="midnightblue" d="M432.274,-224.368C428.723,-206.617 420.533,-165.666 415.719,-141.597"/>
<polygon fill="midnightblue" stroke="midnightblue" points="419.112,-140.711 413.718,-131.591 412.247,-142.084 419.112,-140.711"/>
</g>
<!-- Node6 -->
<g id="node6" class="node"><title>Node6</title>
<polygon fill="none" stroke="#bfbfbf" points="467,-0.5 467,-19.5 515,-19.5 515,-0.5 467,-0.5"/>
<text text-anchor="middle" x="491" y="-7.5" font-family="Helvetica,sans-Serif" font-size="10.00">stdlib.h</text>
</g>
<!-- Node5&#45;&gt;Node6 -->
<g id="edge5" class="edge"><title>Node5&#45;&gt;Node6</title>
<path fill="none" stroke="midnightblue" d="M637.719,-57.6048C608.546,-48.338 558.328,-32.3866 524.892,-21.7657"/>
<polygon fill="midnightblue" stroke="midnightblue" points="525.686,-18.3458 515.096,-18.6541 523.567,-25.0173 525.686,-18.3458"/>
</g>
<!-- Node7 -->
<g id="node7" class="node"><title>Node7</title>
<polygon fill="none" stroke="#bfbfbf" points="533,-0.5 533,-19.5 579,-19.5 579,-0.5 533,-0.5"/>
<text text-anchor="middle" x="556" y="-7.5" font-family="Helvetica,sans-Serif" font-size="10.00">stdio.h</text>
</g>
<!-- Node5&#45;&gt;Node7 -->
<g id="edge6" class="edge"><title>Node5&#45;&gt;Node7</title>
<path fill="none" stroke="midnightblue" d="M644.13,-56.324C627.291,-47.6641 601.193,-34.2424 581.762,-24.249"/>
<polygon fill="midnightblue" stroke="midnightblue" points="583.322,-21.1155 572.828,-19.6545 580.12,-27.3405 583.322,-21.1155"/>
</g>
<!-- Node8 -->
<g id="node8" class="node"><title>Node8</title>
<polygon fill="none" stroke="#bfbfbf" points="731,-0.5 731,-19.5 787,-19.5 787,-0.5 731,-0.5"/>
<text text-anchor="middle" x="759" y="-7.5" font-family="Helvetica,sans-Serif" font-size="10.00">stdbool.h</text>
</g>
<!-- Node5&#45;&gt;Node8 -->
<g id="edge7" class="edge"><title>Node5&#45;&gt;Node8</title>
<path fill="none" stroke="midnightblue" d="M676.745,-56.324C692.319,-47.7428 716.377,-34.486 734.459,-24.5224"/>
<polygon fill="midnightblue" stroke="midnightblue" points="736.224,-27.546 743.294,-19.6545 732.846,-21.4152 736.224,-27.546"/>
</g>
<!-- Node9 -->
<g id="node9" class="node"><title>Node9</title>
<polygon fill="none" stroke="#bfbfbf" points="805,-0.5 805,-19.5 867,-19.5 867,-0.5 805,-0.5"/>
<text text-anchor="middle" x="836" y="-7.5" font-family="Helvetica,sans-Serif" font-size="10.00">sysexits.h</text>
</g>
<!-- Node5&#45;&gt;Node9 -->
<g id="edge8" class="edge"><title>Node5&#45;&gt;Node9</title>
<path fill="none" stroke="midnightblue" d="M684.239,-57.8292C713.433,-48.8206 763.899,-33.2482 798.565,-22.5513"/>
<polygon fill="midnightblue" stroke="midnightblue" points="799.81,-25.8301 808.333,-19.5371 797.746,-19.1413 799.81,-25.8301"/>
</g>
<!-- Node10 -->
<g id="node10" class="node"><title>Node10</title>
<polygon fill="none" stroke="#bfbfbf" points="885.5,-0.5 885.5,-19.5 932.5,-19.5 932.5,-0.5 885.5,-0.5"/>
<text text-anchor="middle" x="909" y="-7.5" font-family="Helvetica,sans-Serif" font-size="10.00">errno.h</text>
</g>
<!-- Node5&#45;&gt;Node10 -->
<g id="edge9" class="edge"><title>Node5&#45;&gt;Node10</title>
<path fill="none" stroke="midnightblue" d="M684.06,-59.2435C688.67,-58.1344 693.483,-57.0057 698,-56 773.706,-39.1436 795.762,-38.6425 875.267,-20.0398"/>
<polygon fill="midnightblue" stroke="midnightblue" points="876.329,-23.3855 885.255,-17.6791 874.718,-16.5731 876.329,-23.3855"/>
</g>
<!-- Node11 -->
<g id="node11" class="node"><title>Node11</title>
<polygon fill="none" stroke="#bfbfbf" points="597.5,-0.5 597.5,-19.5 646.5,-19.5 646.5,-0.5 597.5,-0.5"/>
<text text-anchor="middle" x="622" y="-7.5" font-family="Helvetica,sans-Serif" font-size="10.00">string.h</text>
</g>
<!-- Node5&#45;&gt;Node11 -->
<g id="edge10" class="edge"><title>Node5&#45;&gt;Node11</title>
<path fill="none" stroke="midnightblue" d="M654.56,-56.083C649.051,-48.4554 640.969,-37.2645 634.235,-27.9408"/>
<polygon fill="midnightblue" stroke="midnightblue" points="637.013,-25.8087 628.32,-19.7511 631.338,-29.9071 637.013,-25.8087"/>
</g>
<!-- Node12 -->
<g id="node12" class="node"><title>Node12</title>
<polygon fill="none" stroke="#bfbfbf" points="665,-0.5 665,-19.5 713,-19.5 713,-0.5 665,-0.5"/>
<text text-anchor="middle" x="689" y="-7.5" font-family="Helvetica,sans-Serif" font-size="10.00">limits.h</text>
</g>
<!-- Node5&#45;&gt;Node12 -->
<g id="edge11" class="edge"><title>Node5&#45;&gt;Node12</title>
<path fill="none" stroke="midnightblue" d="M665.624,-56.083C669.456,-48.6913 675.024,-37.9533 679.765,-28.8111"/>
<polygon fill="midnightblue" stroke="midnightblue" points="682.966,-30.2398 684.462,-19.7511 676.752,-27.0175 682.966,-30.2398"/>
</g>
<!-- Node13&#45;&gt;Node4 -->
<g id="edge13" class="edge"><title>Node13&#45;&gt;Node4</title>
<path fill="none" stroke="midnightblue" d="M482.783,-169.263C453.11,-160.159 403.565,-144.957 369.413,-134.479"/>
<polygon fill="midnightblue" stroke="midnightblue" points="370.37,-131.112 359.783,-131.524 368.317,-137.804 370.37,-131.112"/>
</g>
<!-- Node14 -->
<g id="node14" class="node"><title>Node14</title>
<polygon fill="none" stroke="#bfbfbf" points="612,-112.5 612,-131.5 682,-131.5 682,-112.5 612,-112.5"/>
<text text-anchor="middle" x="647" y="-119.5" font-family="Helvetica,sans-Serif" font-size="10.00">netinet/ip6.h</text>
</g>
<!-- Node13&#45;&gt;Node14 -->
<g id="edge14" class="edge"><title>Node13&#45;&gt;Node14</title>
<path fill="none" stroke="midnightblue" d="M530.025,-168.444C553.104,-159.478 589.562,-145.314 615.641,-135.183"/>
<polygon fill="midnightblue" stroke="midnightblue" points="617.024,-138.4 625.078,-131.516 614.489,-131.875 617.024,-138.4"/>
</g>
<!-- Node15 -->
<g id="node15" class="node"><title>Node15</title>
<polygon fill="none" stroke="#bfbfbf" points="394,-56.5 394,-75.5 462,-75.5 462,-56.5 394,-56.5"/>
<text text-anchor="middle" x="428" y="-63.5" font-family="Helvetica,sans-Serif" font-size="10.00">sys/types.h</text>
</g>
<!-- Node13&#45;&gt;Node15 -->
<g id="edge15" class="edge"><title>Node13&#45;&gt;Node15</title>
<path fill="none" stroke="midnightblue" d="M501.723,-168.368C488.52,-150.215 457.674,-107.802 440.356,-83.9902"/>
<polygon fill="midnightblue" stroke="midnightblue" points="442.961,-81.6202 434.248,-75.5914 437.299,-85.7374 442.961,-81.6202"/>
</g>
<!-- Node13&#45;&gt;Node10 -->
<g id="edge16" class="edge"><title>Node13&#45;&gt;Node10</title>
<path fill="none" stroke="midnightblue" d="M533.213,-172.99C569.113,-166.794 636.635,-153.331 691,-132 767.152,-102.12 849.673,-50.4148 887.66,-25.3917"/>
<polygon fill="midnightblue" stroke="midnightblue" points="889.934,-28.083 896.327,-19.6343 886.06,-22.2522 889.934,-28.083"/>
</g>
<!-- Node16 -->
<g id="node16" class="node"><title>Node16</title>
<polygon fill="none" stroke="#bfbfbf" points="480.5,-56.5 480.5,-75.5 531.5,-75.5 531.5,-56.5 480.5,-56.5"/>
<text text-anchor="middle" x="506" y="-63.5" font-family="Helvetica,sans-Serif" font-size="10.00">unistd.h</text>
</g>
<!-- Node13&#45;&gt;Node16 -->
<g id="edge17" class="edge"><title>Node13&#45;&gt;Node16</title>
<path fill="none" stroke="midnightblue" d="M507.843,-168.368C507.52,-150.617 506.776,-109.666 506.338,-85.5974"/>
<polygon fill="midnightblue" stroke="midnightblue" points="509.838,-85.5261 506.156,-75.5914 502.839,-85.6534 509.838,-85.5261"/>
</g>
<!-- Node13&#45;&gt;Node5 -->
<g id="edge18" class="edge"><title>Node13&#45;&gt;Node5</title>
<path fill="none" stroke="midnightblue" d="M520.006,-168.368C546.149,-149.573 608.468,-104.768 640.785,-81.5334"/>
<polygon fill="midnightblue" stroke="midnightblue" points="642.974,-84.2707 649.05,-75.5914 638.888,-78.5871 642.974,-84.2707"/>
</g>
<!-- Node17 -->
<g id="node17" class="node"><title>Node17</title>
<g id="a_node17"><a xlink:href="../../dc/d31/checksum_8h.html" target="_top" xlink:title="Internet Checksum. (header)">
<polygon fill="none" stroke="black" points="550,-56.5 550,-75.5 620,-75.5 620,-56.5 550,-56.5"/>
<text text-anchor="middle" x="585" y="-63.5" font-family="Helvetica,sans-Serif" font-size="10.00">checksum.h</text>
</a>
</g>
</g>
<!-- Node13&#45;&gt;Node17 -->
<g id="edge19" class="edge"><title>Node13&#45;&gt;Node17</title>
<path fill="none" stroke="midnightblue" d="M514.042,-168.368C526.749,-150.215 556.439,-107.802 573.107,-83.9902"/>
<polygon fill="midnightblue" stroke="midnightblue" points="576.119,-85.7909 578.986,-75.5914 570.384,-81.7766 576.119,-85.7909"/>
</g>
<!-- Node13&#45;&gt;Node18 -->
<g id="edge22" class="edge"><title>Node13&#45;&gt;Node18</title>
<path fill="none" stroke="midnightblue" d="M492.576,-168.324C477.46,-159.822 454.185,-146.729 436.529,-136.797"/>
<polygon fill="midnightblue" stroke="midnightblue" points="437.817,-133.507 427.386,-131.655 434.386,-139.608 437.817,-133.507"/>
</g>
<!-- Node17&#45;&gt;Node6 -->
<g id="edge20" class="edge"><title>Node17&#45;&gt;Node6</title>
<path fill="none" stroke="midnightblue" d="M569.897,-56.324C555.097,-47.8215 532.306,-34.7288 515.018,-24.7975"/>
<polygon fill="midnightblue" stroke="midnightblue" points="516.48,-21.6009 506.065,-19.6545 512.993,-27.6707 516.48,-21.6009"/>
</g>
<!-- Node17&#45;&gt;Node7 -->
<g id="edge21" class="edge"><title>Node17&#45;&gt;Node7</title>
<path fill="none" stroke="midnightblue" d="M580.211,-56.083C576.242,-48.6913 570.475,-37.9533 565.565,-28.8111"/>
<polygon fill="midnightblue" stroke="midnightblue" points="568.514,-26.9051 560.7,-19.7511 562.347,-30.217 568.514,-26.9051"/>
</g>
<!-- Node18&#45;&gt;Node15 -->
<g id="edge23" class="edge"><title>Node18&#45;&gt;Node15</title>
<path fill="none" stroke="midnightblue" d="M414.642,-112.083C416.786,-104.849 419.879,-94.4087 422.549,-85.3968"/>
<polygon fill="midnightblue" stroke="midnightblue" points="425.922,-86.3334 425.407,-75.7511 419.21,-84.3447 425.922,-86.3334"/>
</g>
<!-- Node19 -->
<g id="node19" class="node"><title>Node19</title>
<polygon fill="none" stroke="#bfbfbf" points="72.5,-56.5 72.5,-75.5 145.5,-75.5 145.5,-56.5 72.5,-56.5"/>
<text text-anchor="middle" x="109" y="-63.5" font-family="Helvetica,sans-Serif" font-size="10.00">sys/socket.h</text>
</g>
<!-- Node18&#45;&gt;Node19 -->
<g id="edge24" class="edge"><title>Node18&#45;&gt;Node19</title>
<path fill="none" stroke="midnightblue" d="M382.232,-113.924C379.12,-113.246 376,-112.592 373,-112 279.346,-93.5158 252.741,-93.6457 155.746,-76.2666"/>
<polygon fill="midnightblue" stroke="midnightblue" points="156.28,-72.8065 145.817,-74.4708 155.035,-79.6948 156.28,-72.8065"/>
</g>
<!-- Node20 -->
<g id="node20" class="node"><title>Node20</title>
<polygon fill="none" stroke="#bfbfbf" points="163.5,-56.5 163.5,-75.5 212.5,-75.5 212.5,-56.5 163.5,-56.5"/>
<text text-anchor="middle" x="188" y="-63.5" font-family="Helvetica,sans-Serif" font-size="10.00">netdb.h</text>
</g>
<!-- Node18&#45;&gt;Node20 -->
<g id="edge25" class="edge"><title>Node18&#45;&gt;Node20</title>
<path fill="none" stroke="midnightblue" d="M382.382,-114.155C340.322,-104.414 264.475,-86.7662 222.69,-76.3561"/>
<polygon fill="midnightblue" stroke="midnightblue" points="223.394,-72.9242 212.842,-73.8747 221.683,-79.712 223.394,-72.9242"/>
</g>
<!-- Node18&#45;&gt;Node16 -->
<g id="edge26" class="edge"><title>Node18&#45;&gt;Node16</title>
<path fill="none" stroke="midnightblue" d="M427.103,-112.324C441.903,-103.822 464.694,-90.7288 481.982,-80.7975"/>
<polygon fill="midnightblue" stroke="midnightblue" points="484.007,-83.6707 490.935,-75.6545 480.52,-77.6009 484.007,-83.6707"/>
</g>
<!-- Node21 -->
<g id="node21" class="node"><title>Node21</title>
<polygon fill="none" stroke="#bfbfbf" points="230.5,-56.5 230.5,-75.5 295.5,-75.5 295.5,-56.5 230.5,-56.5"/>
<text text-anchor="middle" x="263" y="-63.5" font-family="Helvetica,sans-Serif" font-size="10.00">netinet/in.h</text>
</g>
<!-- Node18&#45;&gt;Node21 -->
<g id="edge27" class="edge"><title>Node18&#45;&gt;Node21</title>
<path fill="none" stroke="midnightblue" d="M388.391,-112.444C363.542,-103.438 324.226,-89.1891 296.246,-79.049"/>
<polygon fill="midnightblue" stroke="midnightblue" points="297.093,-75.6332 286.499,-75.5164 294.708,-82.2144 297.093,-75.6332"/>
</g>
<!-- Node22 -->
<g id="node22" class="node"><title>Node22</title>
<polygon fill="none" stroke="#bfbfbf" points="314,-56.5 314,-75.5 376,-75.5 376,-56.5 314,-56.5"/>
<text text-anchor="middle" x="345" y="-63.5" font-family="Helvetica,sans-Serif" font-size="10.00">arpa/inet.h</text>
</g>
<!-- Node18&#45;&gt;Node22 -->
<g id="edge28" class="edge"><title>Node18&#45;&gt;Node22</title>
<path fill="none" stroke="midnightblue" d="M401.235,-112.324C391.234,-104.263 376.113,-92.0765 364.07,-82.3695"/>
<polygon fill="midnightblue" stroke="midnightblue" points="365.943,-79.3841 355.961,-75.8339 361.55,-84.8343 365.943,-79.3841"/>
</g>
<!-- Node23 -->
<g id="node23" class="node"><title>Node23</title>
<polygon fill="none" stroke="#bfbfbf" points="0,-56.5 0,-75.5 54,-75.5 54,-56.5 0,-56.5"/>
<text text-anchor="middle" x="27" y="-63.5" font-family="Helvetica,sans-Serif" font-size="10.00">ifaddrs.h</text>
</g>
<!-- Node18&#45;&gt;Node23 -->
<g id="edge29" class="edge"><title>Node18&#45;&gt;Node23</title>
<path fill="none" stroke="midnightblue" d="M382.259,-113.778C379.142,-113.129 376.013,-112.521 373,-112 239.527,-88.9229 201.238,-100.306 64.0931,-75.9744"/>
<polygon fill="midnightblue" stroke="midnightblue" points="64.508,-72.4928 54.0451,-74.1599 63.2639,-79.3814 64.508,-72.4928"/>
</g>
<!-- Node18&#45;&gt;Node5 -->
<g id="edge30" class="edge"><title>Node18&#45;&gt;Node5</title>
<path fill="none" stroke="midnightblue" d="M441.629,-115.534C481.744,-107.987 555.752,-93.5448 628.229,-76.0555"/>
<polygon fill="midnightblue" stroke="midnightblue" points="629.09,-79.448 637.979,-73.6817 627.434,-72.6467 629.09,-79.448"/>
</g>
</g>
</svg>
        <g id="navigator" transform="translate(0 0)" fill="#404254">
                <rect fill="#f2f5e9" fill-opacity="0.5" stroke="#606060" stroke-width=".5" x="0" y="0" width="60" height="60"/>
                <use id="zoomplus" xlink:href="#zoomPlus" x="17" y="9" onmousedown="handleZoom(evt,'in')"/>
                <use id="zoomminus" xlink:href="#zoomMin" x="42" y="9" onmousedown="handleZoom(evt,'out')"/>
                <use id="reset" xlink:href="#resetDef" x="30" y="36" onmousedown="handleReset()"/>
                <g id="arrowUp" xlink:href="#dirArrow" transform="translate(30 24)" onmousedown="handlePan(0,-1)">
                  <use xlink:href="#rim" fill="#404040">
                        <set attributeName="fill" to="#808080" begin="arrowUp.mouseover" end="arrowUp.mouseout"/>
                  </use>
                  <path fill="none" stroke="white" stroke-width="1.5" d="M0,-3.0v7 M-2.5,-0.5L0,-3.0L2.5,-0.5"/>
                </g>
                <g id="arrowRight" xlink:href="#dirArrow" transform="rotate(90) translate(36 -43)" onmousedown="handlePan(1,0)">
                  <use xlink:href="#rim" fill="#404040">
                        <set attributeName="fill" to="#808080" begin="arrowRight.mouseover" end="arrowRight.mouseout"/>
                  </use>
                  <path fill="none" stroke="white" stroke-width="1.5" d="M0,-3.0v7 M-2.5,-0.5L0,-3.0L2.5,-0.5"/>
                </g>
                <g id="arrowDown" xlink:href="#dirArrow" transform="rotate(180) translate(-30 -48)" onmousedown="handlePan(0,1)">
                  <use xlink:href="#rim" fill="#404040">
                        <set attributeName="fill" to="#808080" begin="arrowDown.mouseover" end="arrowDown.mouseout"/>
                  </use>
                  <path fill="none" stroke="white" stroke-width="1.5" d="M0,-3.0v7 M-2.5,-0.5L0,-3.0L2.5,-0.5"/>
                </g>
                <g id="arrowLeft" xlink:href="#dirArrow" transform="rotate(270) translate(-36 17)" onmousedown="handlePan(-1,0)">
                  <use xlink:href="#rim" fill="#404040">
                        <set attributeName="fill" to="#808080" begin="arrowLeft.mouseover" end="arrowLeft.mouseout"/>
                  </use>
                  <path fill="none" stroke="white" stroke-width="1.5" d="M0,-3.0v7 M-2.5,-0.5L0,-3.0L2.5,-0.5"/>
                </g>
        </g>
        <svg viewBox="0 0 15 15" width="100%" height="30px" preserveAspectRatio="xMaxYMin meet">
         <g id="arrow_out" transform="scale(0.3 0.3)">
          <a xlink:href="udp__util_8c__incl_org.svg" target="_base">
           <rect id="button" ry="5" rx="5" y="6" x="6" height="38" width="38"
                fill="#f2f5e9" fill-opacity="0.5" stroke="#606060" stroke-width="1.0"/>
           <path id="arrow"
             d="M 11.500037,31.436501 C 11.940474,20.09759 22.043105,11.32322 32.158766,21.979434 L 37.068811,17.246167 C 37.068811,17.246167 37.088388,32 37.088388,32 L 22.160133,31.978069 C 22.160133,31.978069 26.997745,27.140456 26.997745,27.140456 C 18.528582,18.264221 13.291696,25.230495 11.500037,31.436501 z"
             style="fill:#404040;"/>
          </a>
         </g>
        </svg>
</svg>
