<?xml version="1.0" encoding="UTF-8" standalone="no"?>
<!DOCTYPE svg PUBLIC "-//W3C//DTD SVG 1.1//EN"
 "http://www.w3.org/Graphics/SVG/1.1/DTD/svg11.dtd">
<!-- Generated by graphviz version 2.30.1 (20130712.1527)
 -->
<!-- Title: include/base.h Pages: 1 -->
<svg width="1370pt" height="420pt"
 viewBox="0.00 0.00 1370.00 420.00" xmlns="http://www.w3.org/2000/svg" xmlns:xlink="http://www.w3.org/1999/xlink">
<g id="graph0" class="graph" transform="scale(1 1) rotate(0) translate(4 416)">
<title>include/base.h</title>
<!-- Node1 -->
<g id="node1" class="node"><title>Node1</title>
<polygon fill="#bfbfbf" stroke="black" points="609,-392.5 609,-411.5 689,-411.5 689,-392.5 609,-392.5"/>
<text text-anchor="middle" x="649" y="-399.5" font-family="Helvetica,sans-Serif" font-size="10.00">include/base.h</text>
</g>
<!-- Node2 -->
<g id="node2" class="node"><title>Node2</title>
<g id="a_node2"><a xlink:href="../../d9/d9b/address_8h.html" target="_top" xlink:title="Utilitaires pour obtenir des addresses. (header)">
<polygon fill="none" stroke="black" points="431.5,-336.5 431.5,-355.5 524.5,-355.5 524.5,-336.5 431.5,-336.5"/>
<text text-anchor="middle" x="478" y="-343.5" font-family="Helvetica,sans-Serif" font-size="10.00">include/address.h</text>
</a>
</g>
</g>
<!-- Node1&#45;&gt;Node2 -->
<g id="edge1" class="edge"><title>Node1&#45;&gt;Node2</title>
<path fill="none" stroke="midnightblue" d="M611.964,-389.304C579.743,-379.129 533.811,-364.625 504.969,-355.516"/>
<polygon fill="midnightblue" stroke="midnightblue" points="611.315,-392.77 621.905,-392.444 613.423,-386.095 611.315,-392.77"/>
</g>
<!-- Node3 -->
<g id="node3" class="node"><title>Node3</title>
<g id="a_node3"><a xlink:href="../../d9/d8d/anna_8h.html" target="_top" xlink:title="Anna. (implémentation)">
<polygon fill="none" stroke="black" points="0,-56.5 0,-75.5 80,-75.5 80,-56.5 0,-56.5"/>
<text text-anchor="middle" x="40" y="-63.5" font-family="Helvetica,sans-Serif" font-size="10.00">include/anna.h</text>
</a>
</g>
</g>
<!-- Node1&#45;&gt;Node3 -->
<g id="edge42" class="edge"><title>Node1&#45;&gt;Node3</title>
<path fill="none" stroke="midnightblue" d="M598.392,-397.581C447.806,-386.739 13,-350.297 13,-291 13,-291 13,-291 13,-177 13,-138.262 28.9888,-94.0045 36.3587,-75.6622"/>
<polygon fill="midnightblue" stroke="midnightblue" points="598.509,-401.098 608.733,-398.318 599.007,-394.116 598.509,-401.098"/>
</g>
<!-- Node6 -->
<g id="node6" class="node"><title>Node6</title>
<g id="a_node6"><a xlink:href="../../de/d71/traceroute_8h.html" target="_top" xlink:title="Traceroute (header)">
<polygon fill="none" stroke="black" points="79,-112.5 79,-131.5 181,-131.5 181,-112.5 79,-112.5"/>
<text text-anchor="middle" x="130" y="-119.5" font-family="Helvetica,sans-Serif" font-size="10.00">include/traceroute.h</text>
</a>
</g>
</g>
<!-- Node1&#45;&gt;Node6 -->
<g id="edge43" class="edge"><title>Node1&#45;&gt;Node6</title>
<path fill="none" stroke="midnightblue" d="M598.566,-398.301C511.167,-393.058 335.494,-379.861 279,-356 205.915,-325.132 181.011,-311.915 140,-244 117.881,-207.371 124.553,-152.749 128.264,-131.701"/>
<polygon fill="midnightblue" stroke="midnightblue" points="598.585,-401.808 608.773,-398.901 598.996,-394.82 598.585,-401.808"/>
</g>
<!-- Node10 -->
<g id="node10" class="node"><title>Node10</title>
<g id="a_node10"><a xlink:href="../../d3/d76/packet_8h.html" target="_top" xlink:title="Utilitaires pour créer des paquets (header)">
<polygon fill="none" stroke="black" points="525,-168.5 525,-187.5 613,-187.5 613,-168.5 525,-168.5"/>
<text text-anchor="middle" x="569" y="-175.5" font-family="Helvetica,sans-Serif" font-size="10.00">include/packet.h</text>
</a>
</g>
</g>
<!-- Node1&#45;&gt;Node10 -->
<g id="edge44" class="edge"><title>Node1&#45;&gt;Node10</title>
<path fill="none" stroke="midnightblue" d="M642.467,-382.872C626.163,-337.627 584.133,-220.993 572.201,-187.884"/>
<polygon fill="midnightblue" stroke="midnightblue" points="639.181,-384.076 645.864,-392.297 645.766,-381.703 639.181,-384.076"/>
</g>
<!-- Node9 -->
<g id="node9" class="node"><title>Node9</title>
<g id="a_node9"><a xlink:href="../../d7/d13/icmp__util_8h.html" target="_top" xlink:title="Utilitaires ICMP (header)">
<polygon fill="none" stroke="black" points="677,-224.5 677,-243.5 775,-243.5 775,-224.5 677,-224.5"/>
<text text-anchor="middle" x="726" y="-231.5" font-family="Helvetica,sans-Serif" font-size="10.00">include/icmp_util.h</text>
</a>
</g>
</g>
<!-- Node1&#45;&gt;Node9 -->
<g id="edge45" class="edge"><title>Node1&#45;&gt;Node9</title>
<path fill="none" stroke="midnightblue" d="M657.416,-382.856C673.931,-347.252 710.019,-269.453 722.026,-243.568"/>
<polygon fill="midnightblue" stroke="midnightblue" points="654.173,-381.531 653.14,-392.075 660.523,-384.476 654.173,-381.531"/>
</g>
<!-- Node21 -->
<g id="node21" class="node"><title>Node21</title>
<g id="a_node21"><a xlink:href="../../d4/dbd/ip__util_8h.html" target="_top" xlink:title="Utilitaires IP (header)">
<polygon fill="none" stroke="black" points="715,-280.5 715,-299.5 799,-299.5 799,-280.5 715,-280.5"/>
<text text-anchor="middle" x="757" y="-287.5" font-family="Helvetica,sans-Serif" font-size="10.00">include/ip_util.h</text>
</a>
</g>
</g>
<!-- Node1&#45;&gt;Node21 -->
<g id="edge46" class="edge"><title>Node1&#45;&gt;Node21</title>
<path fill="none" stroke="midnightblue" d="M667.633,-386.008C677.814,-377.541 690.459,-366.564 701,-356 719.938,-337.021 739.93,-312.596 750.131,-299.767"/>
<polygon fill="midnightblue" stroke="midnightblue" points="665.272,-383.418 659.761,-392.466 669.712,-388.83 665.272,-383.418"/>
</g>
<!-- Node22 -->
<g id="node22" class="node"><title>Node22</title>
<g id="a_node22"><a xlink:href="../../da/d14/udp__util_8h.html" target="_top" xlink:title="Utilitaires IP (header)">
<polygon fill="none" stroke="black" points="377,-224.5 377,-243.5 469,-243.5 469,-224.5 377,-224.5"/>
<text text-anchor="middle" x="423" y="-231.5" font-family="Helvetica,sans-Serif" font-size="10.00">include/udp_util.h</text>
</a>
</g>
</g>
<!-- Node1&#45;&gt;Node22 -->
<g id="edge47" class="edge"><title>Node1&#45;&gt;Node22</title>
<path fill="none" stroke="midnightblue" d="M598.615,-396.903C495.726,-387.363 267.34,-359.78 222,-300 180.777,-245.649 305.563,-235.964 376.887,-234.731"/>
<polygon fill="midnightblue" stroke="midnightblue" points="598.484,-400.405 608.759,-397.823 599.116,-393.434 598.484,-400.405"/>
</g>
<!-- Node11 -->
<g id="node11" class="node"><title>Node11</title>
<g id="a_node11"><a xlink:href="../../d6/dc8/ping__icmp_8h.html" target="_top" xlink:title="Implémentation de la fonction Ping. (header)">
<polygon fill="none" stroke="black" points="730.5,-112.5 730.5,-131.5 833.5,-131.5 833.5,-112.5 730.5,-112.5"/>
<text text-anchor="middle" x="782" y="-119.5" font-family="Helvetica,sans-Serif" font-size="10.00">include/ping_icmp.h</text>
</a>
</g>
</g>
<!-- Node1&#45;&gt;Node11 -->
<g id="edge48" class="edge"><title>Node1&#45;&gt;Node11</title>
<path fill="none" stroke="midnightblue" d="M687.166,-389.159C743.247,-369.418 845.724,-323.853 887,-244 898.598,-221.562 874.103,-175.131 868,-168 852.879,-150.333 829.07,-138.637 810.333,-131.608"/>
<polygon fill="midnightblue" stroke="midnightblue" points="685.917,-385.887 677.59,-392.437 688.184,-392.51 685.917,-385.887"/>
</g>
<!-- Node5 -->
<g id="node5" class="node"><title>Node5</title>
<g id="a_node5"><a xlink:href="../../d0/d29/main_8c.html" target="_top" xlink:title="Main. (implémentation)">
<polygon fill="none" stroke="black" points="710,-0.5 710,-19.5 772,-19.5 772,-0.5 710,-0.5"/>
<text text-anchor="middle" x="741" y="-7.5" font-family="Helvetica,sans-Serif" font-size="10.00">src/main.c</text>
</a>
</g>
</g>
<!-- Node1&#45;&gt;Node5 -->
<g id="edge49" class="edge"><title>Node1&#45;&gt;Node5</title>
<path fill="none" stroke="midnightblue" d="M699.711,-400.769C828.342,-399.636 1164.52,-393.104 1269,-356 1316.52,-339.124 1362,-341.428 1362,-291 1362,-291 1362,-291 1362,-121 1362,-40.1099 1270.72,-74.6242 1192,-56 1037.32,-19.4035 845.944,-12.543 772.088,-11.277"/>
<polygon fill="midnightblue" stroke="midnightblue" points="699.336,-397.272 689.365,-400.853 699.393,-404.272 699.336,-397.272"/>
</g>
<!-- Node29 -->
<g id="node29" class="node"><title>Node29</title>
<g id="a_node29"><a xlink:href="../../dc/d74/test__base_8h_source.html" target="_top" xlink:title="tests/test_base.h">
<polygon fill="none" stroke="black" points="1168,-336.5 1168,-355.5 1260,-355.5 1260,-336.5 1168,-336.5"/>
<text text-anchor="middle" x="1214" y="-343.5" font-family="Helvetica,sans-Serif" font-size="10.00">tests/test_base.h</text>
</a>
</g>
</g>
<!-- Node1&#45;&gt;Node29 -->
<g id="edge50" class="edge"><title>Node1&#45;&gt;Node29</title>
<path fill="none" stroke="midnightblue" d="M699.219,-396.2C807.778,-385.825 1062.96,-361.436 1167.79,-351.416"/>
<polygon fill="midnightblue" stroke="midnightblue" points="698.802,-392.724 689.18,-397.16 699.468,-399.692 698.802,-392.724"/>
</g>
<!-- Node2&#45;&gt;Node3 -->
<g id="edge2" class="edge"><title>Node2&#45;&gt;Node3</title>
<path fill="none" stroke="midnightblue" d="M421.328,-342.603C343.42,-338.34 208.289,-327.177 168,-300 83.4404,-242.961 49.4856,-110.759 41.7817,-75.6763"/>
<polygon fill="midnightblue" stroke="midnightblue" points="421.292,-346.106 431.462,-343.137 421.66,-339.116 421.292,-346.106"/>
</g>
<!-- Node2&#45;&gt;Node6 -->
<g id="edge5" class="edge"><title>Node2&#45;&gt;Node6</title>
<path fill="none" stroke="midnightblue" d="M421.236,-343.028C347.225,-339.324 223.167,-328.882 189,-300 135.814,-255.042 130.349,-160.755 129.963,-131.706"/>
<polygon fill="midnightblue" stroke="midnightblue" points="421.178,-346.529 431.333,-343.507 421.51,-339.537 421.178,-346.529"/>
</g>
<!-- Node2&#45;&gt;Node9 -->
<g id="edge9" class="edge"><title>Node2&#45;&gt;Node9</title>
<path fill="none" stroke="midnightblue" d="M508.878,-332.692C530.79,-323.851 560.837,-311.511 587,-300 630.892,-280.689 681.78,-256.399 708.127,-243.679"/>
<polygon fill="midnightblue" stroke="midnightblue" points="507.399,-329.514 499.426,-336.492 510.01,-336.009 507.399,-329.514"/>
</g>
<!-- Node2&#45;&gt;Node21 -->
<g id="edge25" class="edge"><title>Node2&#45;&gt;Node21</title>
<path fill="none" stroke="midnightblue" d="M532.178,-334.514C585.568,-324.18 666.029,-308.607 714.825,-299.163"/>
<polygon fill="midnightblue" stroke="midnightblue" points="531.361,-331.107 522.208,-336.444 532.691,-337.979 531.361,-331.107"/>
</g>
<!-- Node2&#45;&gt;Node22 -->
<g id="edge35" class="edge"><title>Node2&#45;&gt;Node22</title>
<path fill="none" stroke="midnightblue" d="M469.16,-327.32C457.185,-303.37 436.274,-261.548 427.296,-243.591"/>
<polygon fill="midnightblue" stroke="midnightblue" points="466.082,-328.989 473.684,-336.368 472.343,-325.859 466.082,-328.989"/>
</g>
<!-- Node2&#45;&gt;Node10 -->
<g id="edge36" class="edge"><title>Node2&#45;&gt;Node10</title>
<path fill="none" stroke="midnightblue" d="M491.388,-328.312C497.717,-320.045 505.149,-309.764 511,-300 535.069,-259.835 557.097,-208.149 565.452,-187.794"/>
<polygon fill="midnightblue" stroke="midnightblue" points="488.487,-326.339 485.08,-336.371 494,-330.653 488.487,-326.339"/>
</g>
<!-- Node2&#45;&gt;Node11 -->
<g id="edge37" class="edge"><title>Node2&#45;&gt;Node11</title>
<path fill="none" stroke="midnightblue" d="M496.686,-329.709C506.97,-321.152 519.867,-310.184 531,-300 592.683,-243.574 594.733,-213.29 665,-168 691.341,-151.022 725.068,-138.906 749.537,-131.554"/>
<polygon fill="midnightblue" stroke="midnightblue" points="494.237,-327.193 488.758,-336.261 498.696,-332.589 494.237,-327.193"/>
</g>
<!-- Node27 -->
<g id="node27" class="node"><title>Node27</title>
<g id="a_node27"><a xlink:href="../../d1/d3e/address_8c.html" target="_top" xlink:title="Utilitaires pour obtenir des addresses. (implémentation)">
<polygon fill="none" stroke="black" points="231,-280.5 231,-299.5 307,-299.5 307,-280.5 231,-280.5"/>
<text text-anchor="middle" x="269" y="-287.5" font-family="Helvetica,sans-Serif" font-size="10.00">src/address.c</text>
</a>
</g>
</g>
<!-- Node2&#45;&gt;Node27 -->
<g id="edge38" class="edge"><title>Node2&#45;&gt;Node27</title>
<path fill="none" stroke="midnightblue" d="M435.016,-333.894C395.548,-323.697 337.9,-308.802 301.962,-299.516"/>
<polygon fill="midnightblue" stroke="midnightblue" points="434.326,-337.331 444.883,-336.444 436.077,-330.553 434.326,-337.331"/>
</g>
<!-- Node28 -->
<g id="node28" class="node"><title>Node28</title>
<g id="a_node28"><a xlink:href="../../d1/d90/test__address_8c_source.html" target="_top" xlink:title="tests/test_address.c">
<polygon fill="none" stroke="black" points="325,-280.5 325,-299.5 431,-299.5 431,-280.5 325,-280.5"/>
<text text-anchor="middle" x="378" y="-287.5" font-family="Helvetica,sans-Serif" font-size="10.00">tests/test_address.c</text>
</a>
</g>
</g>
<!-- Node2&#45;&gt;Node28 -->
<g id="edge39" class="edge"><title>Node2&#45;&gt;Node28</title>
<path fill="none" stroke="midnightblue" d="M452.912,-331.453C434.451,-321.483 409.903,-308.228 394.027,-299.655"/>
<polygon fill="midnightblue" stroke="midnightblue" points="451.471,-334.652 461.933,-336.324 454.797,-328.493 451.471,-334.652"/>
</g>
<!-- Node15 -->
<g id="node15" class="node"><title>Node15</title>
<g id="a_node15"><a xlink:href="../../da/d3e/test__packet_8h_source.html" target="_top" xlink:title="tests/test_packet.h">
<polygon fill="none" stroke="black" points="514.5,-112.5 514.5,-131.5 615.5,-131.5 615.5,-112.5 514.5,-112.5"/>
<text text-anchor="middle" x="565" y="-119.5" font-family="Helvetica,sans-Serif" font-size="10.00">tests/test_packet.h</text>
</a>
</g>
</g>
<!-- Node2&#45;&gt;Node15 -->
<g id="edge40" class="edge"><title>Node2&#45;&gt;Node15</title>
<path fill="none" stroke="midnightblue" d="M478.37,-325.915C479.801,-291.951 486.4,-219.733 516,-168 524.719,-152.762 540.358,-139.755 551.627,-131.701"/>
<polygon fill="midnightblue" stroke="midnightblue" points="474.861,-326.133 478.049,-336.236 481.858,-326.35 474.861,-326.133"/>
</g>
<!-- Node8 -->
<g id="node8" class="node"><title>Node8</title>
<g id="a_node8"><a xlink:href="../../de/d12/test__traceroute_8c_source.html" target="_top" xlink:title="tests/test_traceroute.c">
<polygon fill="none" stroke="black" points="201.5,-56.5 201.5,-75.5 316.5,-75.5 316.5,-56.5 201.5,-56.5"/>
<text text-anchor="middle" x="259" y="-63.5" font-family="Helvetica,sans-Serif" font-size="10.00">tests/test_traceroute.c</text>
</a>
</g>
</g>
<!-- Node2&#45;&gt;Node8 -->
<g id="edge41" class="edge"><title>Node2&#45;&gt;Node8</title>
<path fill="none" stroke="midnightblue" d="M421.371,-343.24C353.844,-339.81 246.942,-329.709 222,-300 164.325,-231.302 232.406,-109.626 253.29,-75.8895"/>
<polygon fill="midnightblue" stroke="midnightblue" points="421.288,-346.74 431.443,-343.718 421.62,-339.748 421.288,-346.74"/>
</g>
<!-- Node4 -->
<g id="node4" class="node"><title>Node4</title>
<g id="a_node4"><a xlink:href="../../d2/da0/anna_8c.html" target="_top" xlink:title="Anna. (implémentation)">
<polygon fill="none" stroke="black" points="9,-0.5 9,-19.5 71,-19.5 71,-0.5 9,-0.5"/>
<text text-anchor="middle" x="40" y="-7.5" font-family="Helvetica,sans-Serif" font-size="10.00">src/anna.c</text>
</a>
</g>
</g>
<!-- Node3&#45;&gt;Node4 -->
<g id="edge3" class="edge"><title>Node3&#45;&gt;Node4</title>
<path fill="none" stroke="midnightblue" d="M40,-45.8045C40,-36.9102 40,-26.7798 40,-19.7511"/>
<polygon fill="midnightblue" stroke="midnightblue" points="36.5001,-46.083 40,-56.083 43.5001,-46.083 36.5001,-46.083"/>
</g>
<!-- Node3&#45;&gt;Node5 -->
<g id="edge4" class="edge"><title>Node3&#45;&gt;Node5</title>
<path fill="none" stroke="midnightblue" d="M90.1984,-55.9941C334.688,-25.7464 617.403,-14.8458 709.997,-11.8989"/>
<polygon fill="midnightblue" stroke="midnightblue" points="89.5424,-52.5488 80.0542,-57.2631 90.4113,-59.4946 89.5424,-52.5488"/>
</g>
<!-- Node6&#45;&gt;Node3 -->
<g id="edge6" class="edge"><title>Node6&#45;&gt;Node3</title>
<path fill="none" stroke="midnightblue" d="M106.962,-107.177C90.4011,-97.2407 68.582,-84.1492 54.4242,-75.6545"/>
<polygon fill="midnightblue" stroke="midnightblue" points="105.164,-110.18 115.54,-112.324 108.766,-104.178 105.164,-110.18"/>
</g>
<!-- Node7 -->
<g id="node7" class="node"><title>Node7</title>
<g id="a_node7"><a xlink:href="../../d1/d4c/traceroute_8c.html" target="_top" xlink:title="Traceroute (implémentation)">
<polygon fill="none" stroke="black" points="98.5,-56.5 98.5,-75.5 183.5,-75.5 183.5,-56.5 98.5,-56.5"/>
<text text-anchor="middle" x="141" y="-63.5" font-family="Helvetica,sans-Serif" font-size="10.00">src/traceroute.c</text>
</a>
</g>
</g>
<!-- Node6&#45;&gt;Node7 -->
<g id="edge7" class="edge"><title>Node6&#45;&gt;Node7</title>
<path fill="none" stroke="midnightblue" d="M133.85,-102.101C135.676,-93.1357 137.77,-82.8579 139.217,-75.7511"/>
<polygon fill="midnightblue" stroke="midnightblue" points="130.383,-101.586 131.816,-112.083 137.242,-102.983 130.383,-101.586"/>
</g>
<!-- Node6&#45;&gt;Node8 -->
<g id="edge8" class="edge"><title>Node6&#45;&gt;Node8</title>
<path fill="none" stroke="midnightblue" d="M159.854,-108.503C184.038,-98.3795 217.462,-84.388 238.655,-75.5164"/>
<polygon fill="midnightblue" stroke="midnightblue" points="158.313,-105.354 150.44,-112.444 161.016,-111.811 158.313,-105.354"/>
</g>
<!-- Node9&#45;&gt;Node10 -->
<g id="edge10" class="edge"><title>Node9&#45;&gt;Node10</title>
<path fill="none" stroke="midnightblue" d="M691.611,-221.172C662.048,-211.004 620.127,-196.585 593.761,-187.516"/>
<polygon fill="midnightblue" stroke="midnightblue" points="690.528,-224.501 701.123,-224.444 692.805,-217.881 690.528,-224.501"/>
</g>
<!-- Node9&#45;&gt;Node11 -->
<g id="edge20" class="edge"><title>Node9&#45;&gt;Node11</title>
<path fill="none" stroke="midnightblue" d="M741.708,-217.17C749.055,-209.025 757.399,-198.596 763,-188 772.89,-169.291 778.265,-144.756 780.585,-131.838"/>
<polygon fill="midnightblue" stroke="midnightblue" points="739.137,-214.796 734.832,-224.477 744.234,-219.593 739.137,-214.796"/>
</g>
<!-- Node18 -->
<g id="node18" class="node"><title>Node18</title>
<g id="a_node18"><a xlink:href="../../d4/df1/icmp__util_8c.html" target="_top" xlink:title="Utilitaires ICMP (implémentation)">
<polygon fill="none" stroke="black" points="674,-168.5 674,-187.5 754,-187.5 754,-168.5 674,-168.5"/>
<text text-anchor="middle" x="714" y="-175.5" font-family="Helvetica,sans-Serif" font-size="10.00">src/icmp_util.c</text>
</a>
</g>
</g>
<!-- Node9&#45;&gt;Node18 -->
<g id="edge21" class="edge"><title>Node9&#45;&gt;Node18</title>
<path fill="none" stroke="midnightblue" d="M721.8,-214.101C719.808,-205.136 717.524,-194.858 715.945,-187.751"/>
<polygon fill="midnightblue" stroke="midnightblue" points="718.432,-215.08 724.018,-224.083 725.266,-213.562 718.432,-215.08"/>
</g>
<!-- Node19 -->
<g id="node19" class="node"><title>Node19</title>
<g id="a_node19"><a xlink:href="../../d3/d79/test__icmp__util_8h_source.html" target="_top" xlink:title="tests/test_icmp_util.h">
<polygon fill="none" stroke="black" points="922,-168.5 922,-187.5 1032,-187.5 1032,-168.5 922,-168.5"/>
<text text-anchor="middle" x="977" y="-175.5" font-family="Helvetica,sans-Serif" font-size="10.00">tests/test_icmp_util.h</text>
</a>
</g>
</g>
<!-- Node9&#45;&gt;Node19 -->
<g id="edge22" class="edge"><title>Node9&#45;&gt;Node19</title>
<path fill="none" stroke="midnightblue" d="M775.821,-222.281C823.253,-212.077 893.704,-196.92 937.414,-187.516"/>
<polygon fill="midnightblue" stroke="midnightblue" points="774.812,-218.918 765.772,-224.444 776.284,-225.762 774.812,-218.918"/>
</g>
<!-- Node10&#45;&gt;Node6 -->
<g id="edge11" class="edge"><title>Node10&#45;&gt;Node6</title>
<path fill="none" stroke="midnightblue" d="M514.888,-170.344C429.497,-159.84 264.636,-139.561 181.134,-129.29"/>
<polygon fill="midnightblue" stroke="midnightblue" points="514.544,-173.828 524.897,-171.575 515.399,-166.88 514.544,-173.828"/>
</g>
<!-- Node10&#45;&gt;Node11 -->
<g id="edge12" class="edge"><title>Node10&#45;&gt;Node11</title>
<path fill="none" stroke="midnightblue" d="M612.551,-165.959C652.781,-155.76 711.703,-140.822 748.407,-131.516"/>
<polygon fill="midnightblue" stroke="midnightblue" points="611.584,-162.593 602.75,-168.444 613.304,-169.379 611.584,-162.593"/>
</g>
<!-- Node14 -->
<g id="node14" class="node"><title>Node14</title>
<g id="a_node14"><a xlink:href="../../de/df3/packet_8c.html" target="_top" xlink:title="Utilitaires pour créer des paquets (implémentation)">
<polygon fill="none" stroke="black" points="633.5,-112.5 633.5,-131.5 704.5,-131.5 704.5,-112.5 633.5,-112.5"/>
<text text-anchor="middle" x="669" y="-119.5" font-family="Helvetica,sans-Serif" font-size="10.00">src/packet.c</text>
</a>
</g>
</g>
<!-- Node10&#45;&gt;Node14 -->
<g id="edge15" class="edge"><title>Node10&#45;&gt;Node14</title>
<path fill="none" stroke="midnightblue" d="M594.088,-163.453C612.549,-153.483 637.097,-140.228 652.973,-131.655"/>
<polygon fill="midnightblue" stroke="midnightblue" points="592.203,-160.493 585.067,-168.324 595.529,-166.652 592.203,-160.493"/>
</g>
<!-- Node10&#45;&gt;Node15 -->
<g id="edge16" class="edge"><title>Node10&#45;&gt;Node15</title>
<path fill="none" stroke="midnightblue" d="M567.6,-158.101C566.936,-149.136 566.175,-138.858 565.648,-131.751"/>
<polygon fill="midnightblue" stroke="midnightblue" points="564.11,-158.369 568.339,-168.083 571.091,-157.852 564.11,-158.369"/>
</g>
<!-- Node10&#45;&gt;Node8 -->
<g id="edge19" class="edge"><title>Node10&#45;&gt;Node8</title>
<path fill="none" stroke="midnightblue" d="M535.475,-165.104C472.58,-142.786 338.28,-95.1318 283.266,-75.6104"/>
<polygon fill="midnightblue" stroke="midnightblue" points="534.338,-168.414 544.933,-168.46 536.679,-161.817 534.338,-168.414"/>
</g>
<!-- Node12 -->
<g id="node12" class="node"><title>Node12</title>
<g id="a_node12"><a xlink:href="../../d5/d74/ping__icmp_8c.html" target="_top" xlink:title="Implémentation de la fonction Ping. (implémentation)">
<polygon fill="none" stroke="black" points="793,-56.5 793,-75.5 879,-75.5 879,-56.5 793,-56.5"/>
<text text-anchor="middle" x="836" y="-63.5" font-family="Helvetica,sans-Serif" font-size="10.00">src/ping_icmp.c</text>
</a>
</g>
</g>
<!-- Node11&#45;&gt;Node12 -->
<g id="edge13" class="edge"><title>Node11&#45;&gt;Node12</title>
<path fill="none" stroke="midnightblue" d="M797.998,-105.002C807.567,-95.4329 819.361,-83.6389 827.249,-75.7511"/>
<polygon fill="midnightblue" stroke="midnightblue" points="795.513,-102.537 790.917,-112.083 800.463,-107.487 795.513,-102.537"/>
</g>
<!-- Node13 -->
<g id="node13" class="node"><title>Node13</title>
<g id="a_node13"><a xlink:href="../../d5/da8/test__ping_8c_source.html" target="_top" xlink:title="tests/test_ping.c">
<polygon fill="none" stroke="black" points="685.5,-56.5 685.5,-75.5 774.5,-75.5 774.5,-56.5 685.5,-56.5"/>
<text text-anchor="middle" x="730" y="-63.5" font-family="Helvetica,sans-Serif" font-size="10.00">tests/test_ping.c</text>
</a>
</g>
</g>
<!-- Node11&#45;&gt;Node13 -->
<g id="edge14" class="edge"><title>Node11&#45;&gt;Node13</title>
<path fill="none" stroke="midnightblue" d="M766.321,-104.718C757.155,-95.1997 745.947,-83.5608 738.427,-75.7511"/>
<polygon fill="midnightblue" stroke="midnightblue" points="763.956,-107.308 773.413,-112.083 768.998,-102.452 763.956,-107.308"/>
</g>
<!-- Node16 -->
<g id="node16" class="node"><title>Node16</title>
<g id="a_node16"><a xlink:href="../../d1/d26/test__packet_8c_source.html" target="_top" xlink:title="tests/test_packet.c">
<polygon fill="none" stroke="black" points="514.5,-56.5 514.5,-75.5 615.5,-75.5 615.5,-56.5 514.5,-56.5"/>
<text text-anchor="middle" x="565" y="-63.5" font-family="Helvetica,sans-Serif" font-size="10.00">tests/test_packet.c</text>
</a>
</g>
</g>
<!-- Node15&#45;&gt;Node16 -->
<g id="edge17" class="edge"><title>Node15&#45;&gt;Node16</title>
<path fill="none" stroke="midnightblue" d="M565,-101.805C565,-92.9102 565,-82.7798 565,-75.7511"/>
<polygon fill="midnightblue" stroke="midnightblue" points="561.5,-102.083 565,-112.083 568.5,-102.083 561.5,-102.083"/>
</g>
<!-- Node17 -->
<g id="node17" class="node"><title>Node17</title>
<g id="a_node17"><a xlink:href="../../d8/d2e/unit__tests_8c_source.html" target="_top" xlink:title="tests/unit_tests.c">
<polygon fill="none" stroke="black" points="1091,-56.5 1091,-75.5 1183,-75.5 1183,-56.5 1091,-56.5"/>
<text text-anchor="middle" x="1137" y="-63.5" font-family="Helvetica,sans-Serif" font-size="10.00">tests/unit_tests.c</text>
</a>
</g>
</g>
<!-- Node15&#45;&gt;Node17 -->
<g id="edge18" class="edge"><title>Node15&#45;&gt;Node17</title>
<path fill="none" stroke="midnightblue" d="M625.561,-111.879C803.34,-90.8275 1002.63,-76.111 1090.91,-70.0511"/>
<polygon fill="midnightblue" stroke="midnightblue" points="625.016,-108.419 615.502,-113.079 625.846,-115.369 625.016,-108.419"/>
</g>
<!-- Node20 -->
<g id="node20" class="node"><title>Node20</title>
<g id="a_node20"><a xlink:href="../../dd/d77/test__icmp__util_8c_source.html" target="_top" xlink:title="tests/test_icmp_util.c">
<polygon fill="none" stroke="black" points="922,-112.5 922,-131.5 1032,-131.5 1032,-112.5 922,-112.5"/>
<text text-anchor="middle" x="977" y="-119.5" font-family="Helvetica,sans-Serif" font-size="10.00">tests/test_icmp_util.c</text>
</a>
</g>
</g>
<!-- Node19&#45;&gt;Node20 -->
<g id="edge23" class="edge"><title>Node19&#45;&gt;Node20</title>
<path fill="none" stroke="midnightblue" d="M977,-157.805C977,-148.91 977,-138.78 977,-131.751"/>
<polygon fill="midnightblue" stroke="midnightblue" points="973.5,-158.083 977,-168.083 980.5,-158.083 973.5,-158.083"/>
</g>
<!-- Node19&#45;&gt;Node17 -->
<g id="edge24" class="edge"><title>Node19&#45;&gt;Node17</title>
<path fill="none" stroke="midnightblue" d="M998.212,-162.417C1032.05,-139.151 1097.22,-94.3501 1124.5,-75.5914"/>
<polygon fill="midnightblue" stroke="midnightblue" points="995.813,-159.819 989.555,-168.368 999.778,-165.587 995.813,-159.819"/>
</g>
<!-- Node21&#45;&gt;Node10 -->
<g id="edge26" class="edge"><title>Node21&#45;&gt;Node10</title>
<path fill="none" stroke="midnightblue" d="M729.371,-276.028C711.58,-267.432 688.105,-255.633 668,-244 635.788,-225.361 599.637,-200.586 581.219,-187.669"/>
<polygon fill="midnightblue" stroke="midnightblue" points="728.082,-279.291 738.613,-280.452 731.105,-272.977 728.082,-279.291"/>
</g>
<!-- Node21&#45;&gt;Node22 -->
<g id="edge27" class="edge"><title>Node21&#45;&gt;Node22</title>
<path fill="none" stroke="midnightblue" d="M704.716,-280.547C640.051,-270.092 530.979,-252.458 469.238,-242.476"/>
<polygon fill="midnightblue" stroke="midnightblue" points="704.268,-284.02 714.699,-282.161 705.386,-277.11 704.268,-284.02"/>
</g>
<!-- Node21&#45;&gt;Node11 -->
<g id="edge30" class="edge"><title>Node21&#45;&gt;Node11</title>
<path fill="none" stroke="midnightblue" d="M808.976,-281.322C831.358,-275.155 855.456,-264.038 869,-244 897.978,-201.128 828.577,-151.391 796.828,-131.683"/>
<polygon fill="midnightblue" stroke="midnightblue" points="808.056,-277.944 799.192,-283.747 809.741,-284.738 808.056,-277.944"/>
</g>
<!-- Node24 -->
<g id="node24" class="node"><title>Node24</title>
<g id="a_node24"><a xlink:href="../../da/d7b/ip__util_8c.html" target="_top" xlink:title="Utilitaires IP (implémentation)">
<polygon fill="none" stroke="black" points="793.5,-224.5 793.5,-243.5 860.5,-243.5 860.5,-224.5 793.5,-224.5"/>
<text text-anchor="middle" x="827" y="-231.5" font-family="Helvetica,sans-Serif" font-size="10.00">src/ip_util.c</text>
</a>
</g>
</g>
<!-- Node21&#45;&gt;Node24 -->
<g id="edge31" class="edge"><title>Node21&#45;&gt;Node24</title>
<path fill="none" stroke="midnightblue" d="M776.314,-274.101C788.912,-264.382 804.928,-252.027 815.549,-243.834"/>
<polygon fill="midnightblue" stroke="midnightblue" points="774.027,-271.445 768.247,-280.324 778.302,-276.987 774.027,-271.445"/>
</g>
<!-- Node25 -->
<g id="node25" class="node"><title>Node25</title>
<g id="a_node25"><a xlink:href="../../dd/d42/test__ip__util_8h_source.html" target="_top" xlink:title="tests/test_ip_util.h">
<polygon fill="none" stroke="black" points="1050.5,-224.5 1050.5,-243.5 1147.5,-243.5 1147.5,-224.5 1050.5,-224.5"/>
<text text-anchor="middle" x="1099" y="-231.5" font-family="Helvetica,sans-Serif" font-size="10.00">tests/test_ip_util.h</text>
</a>
</g>
</g>
<!-- Node21&#45;&gt;Node25 -->
<g id="edge32" class="edge"><title>Node21&#45;&gt;Node25</title>
<path fill="none" stroke="midnightblue" d="M809.408,-280.725C875.072,-270.357 986.702,-252.731 1050.48,-242.66"/>
<polygon fill="midnightblue" stroke="midnightblue" points="808.611,-277.308 799.279,-282.324 809.702,-284.222 808.611,-277.308"/>
</g>
<!-- Node22&#45;&gt;Node10 -->
<g id="edge28" class="edge"><title>Node22&#45;&gt;Node10</title>
<path fill="none" stroke="midnightblue" d="M455.699,-220.906C483.148,-210.754 521.668,-196.506 545.974,-187.516"/>
<polygon fill="midnightblue" stroke="midnightblue" points="454.299,-217.692 446.134,-224.444 456.727,-224.257 454.299,-217.692"/>
</g>
<!-- Node23 -->
<g id="node23" class="node"><title>Node23</title>
<g id="a_node23"><a xlink:href="../../d4/de6/udp__util_8c.html" target="_top" xlink:title="Utilitaires IP (implémentation)">
<polygon fill="none" stroke="black" points="385.5,-168.5 385.5,-187.5 460.5,-187.5 460.5,-168.5 385.5,-168.5"/>
<text text-anchor="middle" x="423" y="-175.5" font-family="Helvetica,sans-Serif" font-size="10.00">src/udp_util.c</text>
</a>
</g>
</g>
<!-- Node22&#45;&gt;Node23 -->
<g id="edge29" class="edge"><title>Node22&#45;&gt;Node23</title>
<path fill="none" stroke="midnightblue" d="M423,-213.805C423,-204.91 423,-194.78 423,-187.751"/>
<polygon fill="midnightblue" stroke="midnightblue" points="419.5,-214.083 423,-224.083 426.5,-214.083 419.5,-214.083"/>
</g>
<!-- Node26 -->
<g id="node26" class="node"><title>Node26</title>
<g id="a_node26"><a xlink:href="../../d1/d9c/test__ip__util_8c_source.html" target="_top" xlink:title="tests/test_ip_util.c">
<polygon fill="none" stroke="black" points="1050.5,-168.5 1050.5,-187.5 1147.5,-187.5 1147.5,-168.5 1050.5,-168.5"/>
<text text-anchor="middle" x="1099" y="-175.5" font-family="Helvetica,sans-Serif" font-size="10.00">tests/test_ip_util.c</text>
</a>
</g>
</g>
<!-- Node25&#45;&gt;Node26 -->
<g id="edge33" class="edge"><title>Node25&#45;&gt;Node26</title>
<path fill="none" stroke="midnightblue" d="M1099,-213.805C1099,-204.91 1099,-194.78 1099,-187.751"/>
<polygon fill="midnightblue" stroke="midnightblue" points="1095.5,-214.083 1099,-224.083 1102.5,-214.083 1095.5,-214.083"/>
</g>
<!-- Node25&#45;&gt;Node17 -->
<g id="edge34" class="edge"><title>Node25&#45;&gt;Node17</title>
<path fill="none" stroke="midnightblue" d="M1125.67,-219.221C1137.25,-211.697 1149.6,-201.2 1156,-188 1174.73,-149.346 1152.07,-96.3557 1141.68,-75.7205"/>
<polygon fill="midnightblue" stroke="midnightblue" points="1123.84,-216.235 1117.08,-224.39 1127.45,-222.232 1123.84,-216.235"/>
</g>
<!-- Node30 -->
<g id="node30" class="node"><title>Node30</title>
<g id="a_node30"><a xlink:href="../../d3/d23/test__base_8c_source.html" target="_top" xlink:title="tests/test_base.c">
<polygon fill="none" stroke="black" points="1242,-280.5 1242,-299.5 1334,-299.5 1334,-280.5 1242,-280.5"/>
<text text-anchor="middle" x="1288" y="-287.5" font-family="Helvetica,sans-Serif" font-size="10.00">tests/test_base.c</text>
</a>
</g>
</g>
<!-- Node29&#45;&gt;Node30 -->
<g id="edge51" class="edge"><title>Node29&#45;&gt;Node30</title>
<path fill="none" stroke="midnightblue" d="M1234.03,-330.38C1247.41,-320.62 1264.56,-308.106 1275.89,-299.834"/>
<polygon fill="midnightblue" stroke="midnightblue" points="1231.9,-327.602 1225.89,-336.324 1236.03,-333.257 1231.9,-327.602"/>
</g>
<!-- Node29&#45;&gt;Node17 -->
<g id="edge52" class="edge"><title>Node29&#45;&gt;Node17</title>
<path fill="none" stroke="midnightblue" d="M1214,-326.251C1214,-304.357 1214,-267.052 1214,-235 1214,-235 1214,-235 1214,-177 1214,-132.01 1170.24,-92.335 1148.69,-75.5325"/>
<polygon fill="midnightblue" stroke="midnightblue" points="1210.5,-326.442 1214,-336.442 1217.5,-326.442 1210.5,-326.442"/>
</g>
</g>
</svg>
