<?xml version="1.0" encoding="UTF-8" standalone="no"?>
<!DOCTYPE svg PUBLIC "-//W3C//DTD SVG 1.1//EN"
 "http://www.w3.org/Graphics/SVG/1.1/DTD/svg11.dtd">
<!-- Generated by graphviz version 2.30.1 (20130712.1527)
 -->
<!-- Title: include/icmp_util.h Pages: 1 -->
<!--zoomable 252 -->
<svg id="main" version="1.1" xmlns="http://www.w3.org/2000/svg" xmlns:xlink="http://www.w3.org/1999/xlink" xml:space="preserve" onload="init(evt)">
        <defs>
                <circle id="rim" cx="0" cy="0" r="7"/>
                <circle id="rim2" cx="0" cy="0" r="3.5"/>
                <g id="zoomPlus">
                        <use xlink:href="#rim" fill="#404040">
                                <set attributeName="fill" to="#808080" begin="zoomplus.mouseover" end="zoomplus.mouseout"/>
                        </use>
                        <path d="M-4,0h8M0,-4v8" fill="none" stroke="white" stroke-width="1.5" pointer-events="none"/>
                </g>
                <g id="zoomMin">
                        <use xlink:href="#rim" fill="#404040">
                                <set attributeName="fill" to="#808080" begin="zoomminus.mouseover" end="zoomminus.mouseout"/>
                        </use>
                        <path d="M-4,0h8" fill="none" stroke="white" stroke-width="1.5" pointer-events="none"/>
                </g>
                <g id="dirArrow">
                        <path fill="none" stroke="white" stroke-width="1.5" d="M0,-3.0v7 M-2.5,-0.5L0,-3.0L2.5,-0.5"/>
                </g>
               <g id="resetDef">
                       <use xlink:href="#rim2" fill="#404040">
                               <set attributeName="fill" to="#808080" begin="reset.mouseover" end="reset.mouseout"/>
                       </use>
               </g>
        </defs>

<script type="text/javascript">
var viewWidth = 853;
var viewHeight = 252;
var sectionId = 'dynsection-1';
</script>
<script xlink:href="../../svgpan.js"/>
<svg id="graph" class="graph">
<g id="viewport">
<title>include/icmp_util.h</title>
<!-- Node1 -->
<g id="node1" class="node"><title>Node1</title>
<polygon fill="#bfbfbf" stroke="black" points="558,-224.5 558,-243.5 656,-243.5 656,-224.5 558,-224.5"/>
<text text-anchor="middle" x="607" y="-231.5" font-family="Helvetica,sans-Serif" font-size="10.00">include/icmp_util.h</text>
</g>
<!-- Node2 -->
<g id="node2" class="node"><title>Node2</title>
<g id="a_node2"><a xlink:href="../../d3/d76/packet_8h.html" target="_top" xlink:title="Utilitaires pour créer des paquets (header)">
<polygon fill="none" stroke="black" points="375,-168.5 375,-187.5 463,-187.5 463,-168.5 375,-168.5"/>
<text text-anchor="middle" x="419" y="-175.5" font-family="Helvetica,sans-Serif" font-size="10.00">include/packet.h</text>
</a>
</g>
</g>
<!-- Node1&#45;&gt;Node2 -->
<g id="edge1" class="edge"><title>Node1&#45;&gt;Node2</title>
<path fill="none" stroke="midnightblue" d="M567.199,-221.568C531.734,-211.381 480.634,-196.703 448.65,-187.516"/>
<polygon fill="midnightblue" stroke="midnightblue" points="566.633,-225.047 577.211,-224.444 568.566,-218.319 566.633,-225.047"/>
</g>
<!-- Node9 -->
<g id="node9" class="node"><title>Node9</title>
<g id="a_node9"><a xlink:href="../../d6/dc8/ping__icmp_8h.html" target="_top" xlink:title="Implémentation de la fonction Ping. (header)">
<polygon fill="none" stroke="black" points="456.5,-112.5 456.5,-131.5 559.5,-131.5 559.5,-112.5 456.5,-112.5"/>
<text text-anchor="middle" x="508" y="-119.5" font-family="Helvetica,sans-Serif" font-size="10.00">include/ping_icmp.h</text>
</a>
</g>
</g>
<!-- Node1&#45;&gt;Node9 -->
<g id="edge16" class="edge"><title>Node1&#45;&gt;Node9</title>
<path fill="none" stroke="midnightblue" d="M592.507,-216.897C571.224,-193.249 532.254,-149.949 515.732,-131.591"/>
<polygon fill="midnightblue" stroke="midnightblue" points="589.94,-219.277 599.232,-224.368 595.143,-214.594 589.94,-219.277"/>
</g>
<!-- Node16 -->
<g id="node16" class="node"><title>Node16</title>
<g id="a_node16"><a xlink:href="../../d4/df1/icmp__util_8c.html" target="_top" xlink:title="Utilitaires ICMP (implémentation)">
<polygon fill="none" stroke="black" points="751,-168.5 751,-187.5 831,-187.5 831,-168.5 751,-168.5"/>
<text text-anchor="middle" x="791" y="-175.5" font-family="Helvetica,sans-Serif" font-size="10.00">src/icmp_util.c</text>
</a>
</g>
</g>
<!-- Node1&#45;&gt;Node16 -->
<g id="edge17" class="edge"><title>Node1&#45;&gt;Node16</title>
<path fill="none" stroke="midnightblue" d="M645.954,-221.568C680.665,-211.381 730.677,-196.703 761.981,-187.516"/>
<polygon fill="midnightblue" stroke="midnightblue" points="644.765,-218.269 636.155,-224.444 646.736,-224.986 644.765,-218.269"/>
</g>
<!-- Node17 -->
<g id="node17" class="node"><title>Node17</title>
<g id="a_node17"><a xlink:href="../../d3/d79/test__icmp__util_8h_source.html" target="_top" xlink:title="tests/test_icmp_util.h">
<polygon fill="none" stroke="black" points="623,-168.5 623,-187.5 733,-187.5 733,-168.5 623,-168.5"/>
<text text-anchor="middle" x="678" y="-175.5" font-family="Helvetica,sans-Serif" font-size="10.00">tests/test_icmp_util.h</text>
</a>
</g>
</g>
<!-- Node1&#45;&gt;Node17 -->
<g id="edge18" class="edge"><title>Node1&#45;&gt;Node17</title>
<path fill="none" stroke="midnightblue" d="M626.59,-218.101C639.368,-208.382 655.613,-196.027 666.385,-187.834"/>
<polygon fill="midnightblue" stroke="midnightblue" points="624.248,-215.484 618.407,-224.324 628.486,-221.056 624.248,-215.484"/>
</g>
<!-- Node3 -->
<g id="node3" class="node"><title>Node3</title>
<g id="a_node3"><a xlink:href="../../de/d71/traceroute_8h.html" target="_top" xlink:title="Traceroute (header)">
<polygon fill="none" stroke="black" points="152,-112.5 152,-131.5 254,-131.5 254,-112.5 152,-112.5"/>
<text text-anchor="middle" x="203" y="-119.5" font-family="Helvetica,sans-Serif" font-size="10.00">include/traceroute.h</text>
</a>
</g>
</g>
<!-- Node2&#45;&gt;Node3 -->
<g id="edge2" class="edge"><title>Node2&#45;&gt;Node3</title>
<path fill="none" stroke="midnightblue" d="M374.836,-165.959C334.039,-155.76 274.287,-140.822 237.066,-131.516"/>
<polygon fill="midnightblue" stroke="midnightblue" points="374.224,-169.414 384.774,-168.444 375.922,-162.623 374.224,-169.414"/>
</g>
<!-- Node2&#45;&gt;Node9 -->
<g id="edge8" class="edge"><title>Node2&#45;&gt;Node9</title>
<path fill="none" stroke="midnightblue" d="M442.238,-162.901C458.558,-152.999 479.865,-140.071 493.736,-131.655"/>
<polygon fill="midnightblue" stroke="midnightblue" points="440.033,-160.144 433.299,-168.324 443.664,-166.129 440.033,-160.144"/>
</g>
<!-- Node12 -->
<g id="node12" class="node"><title>Node12</title>
<g id="a_node12"><a xlink:href="../../de/df3/packet_8c.html" target="_top" xlink:title="Utilitaires pour créer des paquets (implémentation)">
<polygon fill="none" stroke="black" points="367.5,-112.5 367.5,-131.5 438.5,-131.5 438.5,-112.5 367.5,-112.5"/>
<text text-anchor="middle" x="403" y="-119.5" font-family="Helvetica,sans-Serif" font-size="10.00">src/packet.c</text>
</a>
</g>
</g>
<!-- Node2&#45;&gt;Node12 -->
<g id="edge11" class="edge"><title>Node2&#45;&gt;Node12</title>
<path fill="none" stroke="midnightblue" d="M413.488,-158.396C410.811,-149.362 407.722,-138.936 405.593,-131.751"/>
<polygon fill="midnightblue" stroke="midnightblue" points="410.161,-159.489 416.358,-168.083 416.873,-157.501 410.161,-159.489"/>
</g>
<!-- Node13 -->
<g id="node13" class="node"><title>Node13</title>
<g id="a_node13"><a xlink:href="../../da/d3e/test__packet_8h_source.html" target="_top" xlink:title="tests/test_packet.h">
<polygon fill="none" stroke="black" points="577.5,-112.5 577.5,-131.5 678.5,-131.5 678.5,-112.5 577.5,-112.5"/>
<text text-anchor="middle" x="628" y="-119.5" font-family="Helvetica,sans-Serif" font-size="10.00">tests/test_packet.h</text>
</a>
</g>
</g>
<!-- Node2&#45;&gt;Node13 -->
<g id="edge12" class="edge"><title>Node2&#45;&gt;Node13</title>
<path fill="none" stroke="midnightblue" d="M461.984,-165.894C501.452,-155.697 559.1,-140.802 595.038,-131.516"/>
<polygon fill="midnightblue" stroke="midnightblue" points="460.923,-162.553 452.117,-168.444 462.674,-169.331 460.923,-162.553"/>
</g>
<!-- Node8 -->
<g id="node8" class="node"><title>Node8</title>
<g id="a_node8"><a xlink:href="../../de/d12/test__traceroute_8c_source.html" target="_top" xlink:title="tests/test_traceroute.c">
<polygon fill="none" stroke="black" points="232.5,-56.5 232.5,-75.5 347.5,-75.5 347.5,-56.5 232.5,-56.5"/>
<text text-anchor="middle" x="290" y="-63.5" font-family="Helvetica,sans-Serif" font-size="10.00">tests/test_traceroute.c</text>
</a>
</g>
</g>
<!-- Node2&#45;&gt;Node8 -->
<g id="edge15" class="edge"><title>Node2&#45;&gt;Node8</title>
<path fill="none" stroke="midnightblue" d="M398.028,-162.531C386.023,-154.004 370.842,-142.799 358,-132 335.501,-113.08 311.023,-88.6311 298.472,-75.7823"/>
<polygon fill="midnightblue" stroke="midnightblue" points="396.303,-165.596 406.498,-168.479 400.326,-159.868 396.303,-165.596"/>
</g>
<!-- Node4 -->
<g id="node4" class="node"><title>Node4</title>
<g id="a_node4"><a xlink:href="../../d9/d8d/anna_8h.html" target="_top" xlink:title="Anna. (implémentation)">
<polygon fill="none" stroke="black" points="31,-56.5 31,-75.5 111,-75.5 111,-56.5 31,-56.5"/>
<text text-anchor="middle" x="71" y="-63.5" font-family="Helvetica,sans-Serif" font-size="10.00">include/anna.h</text>
</a>
</g>
</g>
<!-- Node3&#45;&gt;Node4 -->
<g id="edge3" class="edge"><title>Node3&#45;&gt;Node4</title>
<path fill="none" stroke="midnightblue" d="M172.781,-108.638C148.01,-98.504 113.6,-84.4274 91.8179,-75.5164"/>
<polygon fill="midnightblue" stroke="midnightblue" points="171.503,-111.897 182.084,-112.444 174.154,-105.418 171.503,-111.897"/>
</g>
<!-- Node7 -->
<g id="node7" class="node"><title>Node7</title>
<g id="a_node7"><a xlink:href="../../d1/d4c/traceroute_8c.html" target="_top" xlink:title="Traceroute (implémentation)">
<polygon fill="none" stroke="black" points="129.5,-56.5 129.5,-75.5 214.5,-75.5 214.5,-56.5 129.5,-56.5"/>
<text text-anchor="middle" x="172" y="-63.5" font-family="Helvetica,sans-Serif" font-size="10.00">src/traceroute.c</text>
</a>
</g>
</g>
<!-- Node3&#45;&gt;Node7 -->
<g id="edge6" class="edge"><title>Node3&#45;&gt;Node7</title>
<path fill="none" stroke="midnightblue" d="M192.824,-103.275C187.526,-94.0454 181.283,-83.1703 177.024,-75.7511"/>
<polygon fill="midnightblue" stroke="midnightblue" points="189.867,-105.153 197.881,-112.083 195.938,-101.668 189.867,-105.153"/>
</g>
<!-- Node3&#45;&gt;Node8 -->
<g id="edge7" class="edge"><title>Node3&#45;&gt;Node8</title>
<path fill="none" stroke="midnightblue" d="M225.716,-106.901C241.669,-96.9986 262.497,-84.0705 276.057,-75.6545"/>
<polygon fill="midnightblue" stroke="midnightblue" points="223.629,-104.077 216.978,-112.324 227.32,-110.024 223.629,-104.077"/>
</g>
<!-- Node5 -->
<g id="node5" class="node"><title>Node5</title>
<g id="a_node5"><a xlink:href="../../d2/da0/anna_8c.html" target="_top" xlink:title="Anna. (implémentation)">
<polygon fill="none" stroke="black" points="0,-0.5 0,-19.5 62,-19.5 62,-0.5 0,-0.5"/>
<text text-anchor="middle" x="31" y="-7.5" font-family="Helvetica,sans-Serif" font-size="10.00">src/anna.c</text>
</a>
</g>
</g>
<!-- Node4&#45;&gt;Node5 -->
<g id="edge4" class="edge"><title>Node4&#45;&gt;Node5</title>
<path fill="none" stroke="midnightblue" d="M58.3003,-47.8554C51.374,-38.5048 43.0937,-27.3265 37.4823,-19.7511"/>
<polygon fill="midnightblue" stroke="midnightblue" points="55.63,-50.1307 64.3948,-56.083 61.255,-45.9641 55.63,-50.1307"/>
</g>
<!-- Node6 -->
<g id="node6" class="node"><title>Node6</title>
<g id="a_node6"><a xlink:href="../../d0/d29/main_8c.html" target="_top" xlink:title="Main. (implémentation)">
<polygon fill="none" stroke="black" points="80,-0.5 80,-19.5 142,-19.5 142,-0.5 80,-0.5"/>
<text text-anchor="middle" x="111" y="-7.5" font-family="Helvetica,sans-Serif" font-size="10.00">src/main.c</text>
</a>
</g>
</g>
<!-- Node4&#45;&gt;Node6 -->
<g id="edge5" class="edge"><title>Node4&#45;&gt;Node6</title>
<path fill="none" stroke="midnightblue" d="M83.6997,-47.8554C90.626,-38.5048 98.9063,-27.3265 104.518,-19.7511"/>
<polygon fill="midnightblue" stroke="midnightblue" points="80.745,-45.9641 77.6052,-56.083 86.37,-50.1307 80.745,-45.9641"/>
</g>
<!-- Node10 -->
<g id="node10" class="node"><title>Node10</title>
<g id="a_node10"><a xlink:href="../../d5/d74/ping__icmp_8c.html" target="_top" xlink:title="Implémentation de la fonction Ping. (implémentation)">
<polygon fill="none" stroke="black" points="366,-56.5 366,-75.5 452,-75.5 452,-56.5 366,-56.5"/>
<text text-anchor="middle" x="409" y="-63.5" font-family="Helvetica,sans-Serif" font-size="10.00">src/ping_icmp.c</text>
</a>
</g>
</g>
<!-- Node9&#45;&gt;Node10 -->
<g id="edge9" class="edge"><title>Node9&#45;&gt;Node10</title>
<path fill="none" stroke="midnightblue" d="M483.163,-107.453C464.886,-97.4835 440.584,-84.2279 424.867,-75.6545"/>
<polygon fill="midnightblue" stroke="midnightblue" points="481.639,-110.608 492.094,-112.324 484.991,-104.463 481.639,-110.608"/>
</g>
<!-- Node11 -->
<g id="node11" class="node"><title>Node11</title>
<g id="a_node11"><a xlink:href="../../d5/da8/test__ping_8c_source.html" target="_top" xlink:title="tests/test_ping.c">
<polygon fill="none" stroke="black" points="470.5,-56.5 470.5,-75.5 559.5,-75.5 559.5,-56.5 470.5,-56.5"/>
<text text-anchor="middle" x="515" y="-63.5" font-family="Helvetica,sans-Serif" font-size="10.00">tests/test_ping.c</text>
</a>
</g>
</g>
<!-- Node9&#45;&gt;Node11 -->
<g id="edge10" class="edge"><title>Node9&#45;&gt;Node11</title>
<path fill="none" stroke="midnightblue" d="M510.45,-102.101C511.612,-93.1357 512.944,-82.8579 513.866,-75.7511"/>
<polygon fill="midnightblue" stroke="midnightblue" points="506.971,-101.716 509.156,-112.083 513.912,-102.616 506.971,-101.716"/>
</g>
<!-- Node14 -->
<g id="node14" class="node"><title>Node14</title>
<g id="a_node14"><a xlink:href="../../d1/d26/test__packet_8c_source.html" target="_top" xlink:title="tests/test_packet.c">
<polygon fill="none" stroke="black" points="577.5,-56.5 577.5,-75.5 678.5,-75.5 678.5,-56.5 577.5,-56.5"/>
<text text-anchor="middle" x="628" y="-63.5" font-family="Helvetica,sans-Serif" font-size="10.00">tests/test_packet.c</text>
</a>
</g>
</g>
<!-- Node13&#45;&gt;Node14 -->
<g id="edge13" class="edge"><title>Node13&#45;&gt;Node14</title>
<path fill="none" stroke="midnightblue" d="M628,-101.805C628,-92.9102 628,-82.7798 628,-75.7511"/>
<polygon fill="midnightblue" stroke="midnightblue" points="624.5,-102.083 628,-112.083 631.5,-102.083 624.5,-102.083"/>
</g>
<!-- Node15 -->
<g id="node15" class="node"><title>Node15</title>
<g id="a_node15"><a xlink:href="../../d8/d2e/unit__tests_8c_source.html" target="_top" xlink:title="tests/unit_tests.c">
<polygon fill="none" stroke="black" points="697,-56.5 697,-75.5 789,-75.5 789,-56.5 697,-56.5"/>
<text text-anchor="middle" x="743" y="-63.5" font-family="Helvetica,sans-Serif" font-size="10.00">tests/unit_tests.c</text>
</a>
</g>
</g>
<!-- Node13&#45;&gt;Node15 -->
<g id="edge14" class="edge"><title>Node13&#45;&gt;Node15</title>
<path fill="none" stroke="midnightblue" d="M655.481,-108.096C676.966,-98.0073 706.222,-84.2697 724.863,-75.5164"/>
<polygon fill="midnightblue" stroke="midnightblue" points="653.786,-105.025 646.222,-112.444 656.762,-111.361 653.786,-105.025"/>
</g>
<!-- Node18 -->
<g id="node18" class="node"><title>Node18</title>
<g id="a_node18"><a xlink:href="../../dd/d77/test__icmp__util_8c_source.html" target="_top" xlink:title="tests/test_icmp_util.c">
<polygon fill="none" stroke="black" points="735,-112.5 735,-131.5 845,-131.5 845,-112.5 735,-112.5"/>
<text text-anchor="middle" x="790" y="-119.5" font-family="Helvetica,sans-Serif" font-size="10.00">tests/test_icmp_util.c</text>
</a>
</g>
</g>
<!-- Node17&#45;&gt;Node18 -->
<g id="edge19" class="edge"><title>Node17&#45;&gt;Node18</title>
<path fill="none" stroke="midnightblue" d="M705.249,-163.862C726.016,-153.849 754.023,-140.346 772.05,-131.655"/>
<polygon fill="midnightblue" stroke="midnightblue" points="703.482,-160.828 695.995,-168.324 706.523,-167.134 703.482,-160.828"/>
</g>
<!-- Node17&#45;&gt;Node15 -->
<g id="edge20" class="edge"><title>Node17&#45;&gt;Node15</title>
<path fill="none" stroke="midnightblue" d="M688.258,-159.64C702.379,-135.744 727.265,-93.6286 737.923,-75.5914"/>
<polygon fill="midnightblue" stroke="midnightblue" points="685.175,-157.979 683.1,-168.368 691.201,-161.54 685.175,-157.979"/>
</g>
</g>
</svg>
        <g id="navigator" transform="translate(0 0)" fill="#404254">
                <rect fill="#f2f5e9" fill-opacity="0.5" stroke="#606060" stroke-width=".5" x="0" y="0" width="60" height="60"/>
                <use id="zoomplus" xlink:href="#zoomPlus" x="17" y="9" onmousedown="handleZoom(evt,'in')"/>
                <use id="zoomminus" xlink:href="#zoomMin" x="42" y="9" onmousedown="handleZoom(evt,'out')"/>
                <use id="reset" xlink:href="#resetDef" x="30" y="36" onmousedown="handleReset()"/>
                <g id="arrowUp" xlink:href="#dirArrow" transform="translate(30 24)" onmousedown="handlePan(0,-1)">
                  <use xlink:href="#rim" fill="#404040">
                        <set attributeName="fill" to="#808080" begin="arrowUp.mouseover" end="arrowUp.mouseout"/>
                  </use>
                  <path fill="none" stroke="white" stroke-width="1.5" d="M0,-3.0v7 M-2.5,-0.5L0,-3.0L2.5,-0.5"/>
                </g>
                <g id="arrowRight" xlink:href="#dirArrow" transform="rotate(90) translate(36 -43)" onmousedown="handlePan(1,0)">
                  <use xlink:href="#rim" fill="#404040">
                        <set attributeName="fill" to="#808080" begin="arrowRight.mouseover" end="arrowRight.mouseout"/>
                  </use>
                  <path fill="none" stroke="white" stroke-width="1.5" d="M0,-3.0v7 M-2.5,-0.5L0,-3.0L2.5,-0.5"/>
                </g>
                <g id="arrowDown" xlink:href="#dirArrow" transform="rotate(180) translate(-30 -48)" onmousedown="handlePan(0,1)">
                  <use xlink:href="#rim" fill="#404040">
                        <set attributeName="fill" to="#808080" begin="arrowDown.mouseover" end="arrowDown.mouseout"/>
                  </use>
                  <path fill="none" stroke="white" stroke-width="1.5" d="M0,-3.0v7 M-2.5,-0.5L0,-3.0L2.5,-0.5"/>
                </g>
                <g id="arrowLeft" xlink:href="#dirArrow" transform="rotate(270) translate(-36 17)" onmousedown="handlePan(-1,0)">
                  <use xlink:href="#rim" fill="#404040">
                        <set attributeName="fill" to="#808080" begin="arrowLeft.mouseover" end="arrowLeft.mouseout"/>
                  </use>
                  <path fill="none" stroke="white" stroke-width="1.5" d="M0,-3.0v7 M-2.5,-0.5L0,-3.0L2.5,-0.5"/>
                </g>
        </g>
        <svg viewBox="0 0 15 15" width="100%" height="30px" preserveAspectRatio="xMaxYMin meet">
         <g id="arrow_out" transform="scale(0.3 0.3)">
          <a xlink:href="icmp__util_8h__dep__incl_org.svg" target="_base">
           <rect id="button" ry="5" rx="5" y="6" x="6" height="38" width="38"
                fill="#f2f5e9" fill-opacity="0.5" stroke="#606060" stroke-width="1.0"/>
           <path id="arrow"
             d="M 11.500037,31.436501 C 11.940474,20.09759 22.043105,11.32322 32.158766,21.979434 L 37.068811,17.246167 C 37.068811,17.246167 37.088388,32 37.088388,32 L 22.160133,31.978069 C 22.160133,31.978069 26.997745,27.140456 26.997745,27.140456 C 18.528582,18.264221 13.291696,25.230495 11.500037,31.436501 z"
             style="fill:#404040;"/>
          </a>
         </g>
        </svg>
</svg>
