<?xml version="1.0" encoding="UTF-8" standalone="no"?>
<!DOCTYPE svg PUBLIC "-//W3C//DTD SVG 1.1//EN"
 "http://www.w3.org/Graphics/SVG/1.1/DTD/svg11.dtd">
<!-- Generated by graphviz version 2.30.1 (20130712.1527)
 -->
<!-- Title: icmp6_packet::icmp6_packet_checksum Pages: 1 -->
<svg width="298pt" height="142pt"
 viewBox="0.00 0.00 298.00 142.00" xmlns="http://www.w3.org/2000/svg" xmlns:xlink="http://www.w3.org/1999/xlink">
<g id="graph0" class="graph" transform="scale(1 1) rotate(0) translate(4 138)">
<title>icmp6_packet::icmp6_packet_checksum</title>
<!-- Node1 -->
<g id="node1" class="node"><title>Node1</title>
<polygon fill="#bfbfbf" stroke="black" points="0,-52 0,-82 110,-82 110,-52 0,-52"/>
<text text-anchor="start" x="8" y="-70" font-family="Helvetica,sans-Serif" font-size="10.00">icmp6_packet::icmp6</text>
<text text-anchor="middle" x="55" y="-59" font-family="Helvetica,sans-Serif" font-size="10.00">_packet_checksum</text>
</g>
<!-- Node2 -->
<g id="node2" class="node"><title>Node2</title>
<g id="a_node2"><a xlink:href="../../de/df3/packet_8c_a65b5fff2654c7ea3bb5da793d18043ed.html#a65b5fff2654c7ea3bb5da793d18043ed" target="_top" xlink:title="Construire un paquet IPv6 + ICMP.">
<polygon fill="none" stroke="black" points="170.5,-114.5 170.5,-133.5 265.5,-133.5 265.5,-114.5 170.5,-114.5"/>
<text text-anchor="middle" x="218" y="-121.5" font-family="Helvetica,sans-Serif" font-size="10.00">icmp6_packet_init</text>
</a>
</g>
</g>
<!-- Node1&#45;&gt;Node2 -->
<g id="edge1" class="edge"><title>Node1&#45;&gt;Node2</title>
<path fill="none" stroke="midnightblue" d="M97.9939,-86.148C112.971,-92.5976 130.076,-99.5369 146,-105 156.018,-108.437 167.003,-111.642 177.275,-114.405"/>
<polygon fill="midnightblue" stroke="midnightblue" points="99.0581,-82.7937 88.493,-82.0009 96.2578,-89.2092 99.0581,-82.7937"/>
</g>
<!-- Node3 -->
<g id="node3" class="node"><title>Node3</title>
<g id="a_node3"><a xlink:href="../../de/df3/packet_8c_ab03d85c6bb5ab5cb2612f096e5b768c1.html#ab03d85c6bb5ab5cb2612f096e5b768c1" target="_top" xlink:title="Changer la sequence d&#39;un paquet IPv4+ICMP ECHO_REQUEST.">
<polygon fill="none" stroke="black" points="146.5,-76.5 146.5,-95.5 289.5,-95.5 289.5,-76.5 146.5,-76.5"/>
<text text-anchor="middle" x="218" y="-83.5" font-family="Helvetica,sans-Serif" font-size="10.00">icmp6_packet_set_echo_seq</text>
</a>
</g>
</g>
<!-- Node1&#45;&gt;Node3 -->
<g id="edge2" class="edge"><title>Node1&#45;&gt;Node3</title>
<path fill="none" stroke="midnightblue" d="M120.018,-74.5549C128.626,-75.5708 137.497,-76.6177 146.214,-77.6463"/>
<polygon fill="midnightblue" stroke="midnightblue" points="120.4,-71.0758 110.059,-73.3796 119.579,-78.0275 120.4,-71.0758"/>
</g>
<!-- Node4 -->
<g id="node4" class="node"><title>Node4</title>
<g id="a_node4"><a xlink:href="../../de/df3/packet_8c_a67992623d0f053ab11810c539d475c56.html#a67992623d0f053ab11810c539d475c56" target="_top" xlink:title="Changer la taille d&#39;un paquet.">
<polygon fill="none" stroke="black" points="154,-38.5 154,-57.5 282,-57.5 282,-38.5 154,-38.5"/>
<text text-anchor="middle" x="218" y="-45.5" font-family="Helvetica,sans-Serif" font-size="10.00">icmp6_packet_set_length</text>
</a>
</g>
</g>
<!-- Node1&#45;&gt;Node4 -->
<g id="edge3" class="edge"><title>Node1&#45;&gt;Node4</title>
<path fill="none" stroke="midnightblue" d="M120.124,-59.4325C131.246,-58.12 142.803,-56.7561 153.897,-55.4469"/>
<polygon fill="midnightblue" stroke="midnightblue" points="119.579,-55.9725 110.059,-60.6204 120.4,-62.9242 119.579,-55.9725"/>
</g>
<!-- Node5 -->
<g id="node5" class="node"><title>Node5</title>
<g id="a_node5"><a xlink:href="../../de/df3/packet_8c_a05b6061852816ac13e20f03330f748b1.html#a05b6061852816ac13e20f03330f748b1" target="_top" xlink:title="Changer le TTL d&#39;un paquet IPv4 + ICMP.">
<polygon fill="none" stroke="black" points="163,-0.5 163,-19.5 273,-19.5 273,-0.5 163,-0.5"/>
<text text-anchor="middle" x="218" y="-7.5" font-family="Helvetica,sans-Serif" font-size="10.00">icmp6_packet_set_ttl</text>
</a>
</g>
</g>
<!-- Node1&#45;&gt;Node5 -->
<g id="edge4" class="edge"><title>Node1&#45;&gt;Node5</title>
<path fill="none" stroke="midnightblue" d="M97.9939,-47.852C112.971,-41.4024 130.076,-34.4631 146,-29 156.018,-25.5631 167.003,-22.3576 177.275,-19.5947"/>
<polygon fill="midnightblue" stroke="midnightblue" points="96.2578,-44.7908 88.493,-51.9991 99.0581,-51.2063 96.2578,-44.7908"/>
</g>
</g>
</svg>
