<?xml version="1.0" encoding="UTF-8" standalone="no"?>
<!DOCTYPE svg PUBLIC "-//W3C//DTD SVG 1.1//EN"
 "http://www.w3.org/Graphics/SVG/1.1/DTD/svg11.dtd">
<!-- Generated by graphviz version 2.30.1 (20130712.1527)
 -->
<!-- Title: rtt Pages: 1 -->
<svg width="260pt" height="38pt"
 viewBox="0.00 0.00 260.00 38.00" xmlns="http://www.w3.org/2000/svg" xmlns:xlink="http://www.w3.org/1999/xlink">
<g id="graph0" class="graph" transform="scale(1 1) rotate(0) translate(4 34)">
<title>rtt</title>
<!-- Node1 -->
<g id="node1" class="node"><title>Node1</title>
<polygon fill="#bfbfbf" stroke="black" points="0.5,-5.5 0.5,-24.5 29.5,-24.5 29.5,-5.5 0.5,-5.5"/>
<text text-anchor="middle" x="15" y="-12.5" font-family="Helvetica,sans-Serif" font-size="10.00">rtt</text>
</g>
<!-- Node2 -->
<g id="node2" class="node"><title>Node2</title>
<g id="a_node2"><a xlink:href="../../d5/d74/ping__icmp_8c_a291ab2abf1ed6e77d7a8f41281d88a17.html#a291ab2abf1ed6e77d7a8f41281d88a17" target="_top" xlink:title="Fonction réalisant l&#39;affichage et l&#39;application de Ping.">
<polygon fill="none" stroke="black" points="66,-5.5 66,-24.5 106,-24.5 106,-5.5 66,-5.5"/>
<text text-anchor="middle" x="86" y="-12.5" font-family="Helvetica,sans-Serif" font-size="10.00">pi_ng</text>
</a>
</g>
</g>
<!-- Node1&#45;&gt;Node2 -->
<g id="edge1" class="edge"><title>Node1&#45;&gt;Node2</title>
<path fill="none" stroke="midnightblue" d="M39.7509,-15C48.2946,-15 57.8155,-15 65.9113,-15"/>
<polygon fill="midnightblue" stroke="midnightblue" points="39.6322,-11.5001 29.6322,-15 39.6321,-18.5001 39.6322,-11.5001"/>
</g>
<!-- Node3 -->
<g id="node3" class="node"><title>Node3</title>
<g id="a_node3"><a xlink:href="../../d5/d74/ping__icmp_8c_a21469bf5e3430dbf282e52280882d1af.html#a21469bf5e3430dbf282e52280882d1af" target="_top" xlink:title="Fonction réalisant l&#39;affichage et l&#39;application de Ping avec le choix précis des attentes.">
<polygon fill="none" stroke="black" points="142,-0 142,-30 252,-30 252,-0 142,-0"/>
<text text-anchor="start" x="150" y="-18" font-family="Helvetica,sans-Serif" font-size="10.00">pi_ng_choix_sleep_et</text>
<text text-anchor="middle" x="197" y="-7" font-family="Helvetica,sans-Serif" font-size="10.00">_attente_reception</text>
</a>
</g>
</g>
<!-- Node2&#45;&gt;Node3 -->
<g id="edge2" class="edge"><title>Node2&#45;&gt;Node3</title>
<path fill="none" stroke="midnightblue" d="M116.364,-15C124.264,-15 133.067,-15 141.857,-15"/>
<polygon fill="midnightblue" stroke="midnightblue" points="116.236,-11.5001 106.236,-15 116.236,-18.5001 116.236,-11.5001"/>
</g>
</g>
</svg>
