<?xml version="1.0" encoding="UTF-8" standalone="no"?>
<!DOCTYPE svg PUBLIC "-//W3C//DTD SVG 1.1//EN"
 "http://www.w3.org/Graphics/SVG/1.1/DTD/svg11.dtd">
<!-- Generated by graphviz version 2.30.1 (20130712.1527)
 -->
<!-- Title: answer_send Pages: 1 -->
<svg width="330pt" height="85pt"
 viewBox="0.00 0.00 330.00 85.00" xmlns="http://www.w3.org/2000/svg" xmlns:xlink="http://www.w3.org/1999/xlink">
<g id="graph0" class="graph" transform="scale(1 1) rotate(0) translate(4 81)">
<title>answer_send</title>
<!-- Node1 -->
<g id="node1" class="node"><title>Node1</title>
<polygon fill="#bfbfbf" stroke="black" points="0,-19.5 0,-38.5 74,-38.5 74,-19.5 0,-19.5"/>
<text text-anchor="middle" x="37" y="-26.5" font-family="Helvetica,sans-Serif" font-size="10.00">answer_send</text>
</g>
<!-- Node2 -->
<g id="node2" class="node"><title>Node2</title>
<g id="a_node2"><a xlink:href="../../d9/d9b/address_8h_a81aae144fa0d9a0bd3da2e56e852b54a.html#a81aae144fa0d9a0bd3da2e56e852b54a" target="_top" xlink:title="Afficher un hôte.">
<polygon fill="none" stroke="black" points="117.5,-38.5 117.5,-57.5 192.5,-57.5 192.5,-38.5 117.5,-38.5"/>
<text text-anchor="middle" x="155" y="-45.5" font-family="Helvetica,sans-Serif" font-size="10.00">print_host_v4</text>
</a>
</g>
</g>
<!-- Node1&#45;&gt;Node2 -->
<g id="edge1" class="edge"><title>Node1&#45;&gt;Node2</title>
<path fill="none" stroke="midnightblue" d="M74.0673,-34.9076C84.5568,-36.6257 96.1688,-38.5276 107.216,-40.3372"/>
<polygon fill="midnightblue" stroke="midnightblue" points="106.721,-43.8025 117.155,-41.965 107.852,-36.8946 106.721,-43.8025"/>
</g>
<!-- Node5 -->
<g id="node5" class="node"><title>Node5</title>
<g id="a_node5"><a xlink:href="../../d3/d76/packet_8h_a2be7e8b585f620e44c817a77ce8cdfbc.html#a2be7e8b585f620e44c817a77ce8cdfbc" target="_top" xlink:title="Recevoir un paquet IPv4+ICMP.">
<polygon fill="none" stroke="black" points="110,-0.5 110,-19.5 200,-19.5 200,-0.5 110,-0.5"/>
<text text-anchor="middle" x="155" y="-7.5" font-family="Helvetica,sans-Serif" font-size="10.00">receive_icmp_v4</text>
</a>
</g>
</g>
<!-- Node1&#45;&gt;Node5 -->
<g id="edge4" class="edge"><title>Node1&#45;&gt;Node5</title>
<path fill="none" stroke="midnightblue" d="M74.0673,-23.0924C82.1937,-21.7614 90.9938,-20.32 99.6832,-18.8967"/>
<polygon fill="midnightblue" stroke="midnightblue" points="100.483,-22.3124 109.786,-17.2419 99.3517,-15.4044 100.483,-22.3124"/>
</g>
<!-- Node3 -->
<g id="node3" class="node"><title>Node3</title>
<g id="a_node3"><a xlink:href="../../d9/d9b/address_8h_a52138d7436e1d946641e32af4afc9788.html#a52138d7436e1d946641e32af4afc9788" target="_top" xlink:title="Afficher une addresse IP.">
<polygon fill="none" stroke="black" points="255,-57.5 255,-76.5 303,-76.5 303,-57.5 255,-57.5"/>
<text text-anchor="middle" x="279" y="-64.5" font-family="Helvetica,sans-Serif" font-size="10.00">print_ip</text>
</a>
</g>
</g>
<!-- Node2&#45;&gt;Node3 -->
<g id="edge2" class="edge"><title>Node2&#45;&gt;Node3</title>
<path fill="none" stroke="midnightblue" d="M192.604,-53.7006C209.186,-56.283 228.647,-59.3139 244.8,-61.8295"/>
<polygon fill="midnightblue" stroke="midnightblue" points="244.454,-65.3177 254.873,-63.3983 245.531,-58.4011 244.454,-65.3177"/>
</g>
<!-- Node4 -->
<g id="node4" class="node"><title>Node4</title>
<g id="a_node4"><a xlink:href="../../d9/d9b/address_8h_ac3cf1976c272170c2ab9be2418cd5a0f.html#ac3cf1976c272170c2ab9be2418cd5a0f" target="_top" xlink:title="Obtenir le nom d&#39;un hôte à partir de son adresse IPv4.">
<polygon fill="none" stroke="black" points="236,-19.5 236,-38.5 322,-38.5 322,-19.5 236,-19.5"/>
<text text-anchor="middle" x="279" y="-26.5" font-family="Helvetica,sans-Serif" font-size="10.00">reverse_dns_v4</text>
</a>
</g>
</g>
<!-- Node2&#45;&gt;Node4 -->
<g id="edge3" class="edge"><title>Node2&#45;&gt;Node4</title>
<path fill="none" stroke="midnightblue" d="M192.604,-42.2994C203.029,-40.6758 214.592,-38.875 225.756,-37.1364"/>
<polygon fill="midnightblue" stroke="midnightblue" points="226.509,-40.5613 235.852,-35.5641 225.432,-33.6447 226.509,-40.5613"/>
</g>
</g>
</svg>
