<?xml version="1.0" encoding="UTF-8" standalone="no"?>
<!DOCTYPE svg PUBLIC "-//W3C//DTD SVG 1.1//EN"
 "http://www.w3.org/Graphics/SVG/1.1/DTD/svg11.dtd">
<!-- Generated by graphviz version 2.30.1 (20130712.1527)
 -->
<!-- Title: send_paquet Pages: 1 -->
<svg width="302pt" height="38pt"
 viewBox="0.00 0.00 302.00 38.00" xmlns="http://www.w3.org/2000/svg" xmlns:xlink="http://www.w3.org/1999/xlink">
<g id="graph0" class="graph" transform="scale(1 1) rotate(0) translate(4 34)">
<title>send_paquet</title>
<!-- Node1 -->
<g id="node1" class="node"><title>Node1</title>
<polygon fill="#bfbfbf" stroke="black" points="0,-5.5 0,-24.5 72,-24.5 72,-5.5 0,-5.5"/>
<text text-anchor="middle" x="36" y="-12.5" font-family="Helvetica,sans-Serif" font-size="10.00">send_paquet</text>
</g>
<!-- Node2 -->
<g id="node2" class="node"><title>Node2</title>
<g id="a_node2"><a xlink:href="../../d5/d74/ping__icmp_8c_a291ab2abf1ed6e77d7a8f41281d88a17.html#a291ab2abf1ed6e77d7a8f41281d88a17" target="_top" xlink:title="Fonction réalisant l&#39;affichage et l&#39;application de Ping.">
<polygon fill="none" stroke="black" points="108,-5.5 108,-24.5 148,-24.5 148,-5.5 108,-5.5"/>
<text text-anchor="middle" x="128" y="-12.5" font-family="Helvetica,sans-Serif" font-size="10.00">pi_ng</text>
</a>
</g>
</g>
<!-- Node1&#45;&gt;Node2 -->
<g id="edge1" class="edge"><title>Node1&#45;&gt;Node2</title>
<path fill="none" stroke="midnightblue" d="M82.1648,-15C91.1852,-15 100.197,-15 107.75,-15"/>
<polygon fill="midnightblue" stroke="midnightblue" points="82.0541,-11.5001 72.0541,-15 82.054,-18.5001 82.0541,-11.5001"/>
</g>
<!-- Node3 -->
<g id="node3" class="node"><title>Node3</title>
<g id="a_node3"><a xlink:href="../../d5/d74/ping__icmp_8c_a21469bf5e3430dbf282e52280882d1af.html#a21469bf5e3430dbf282e52280882d1af" target="_top" xlink:title="Fonction réalisant l&#39;affichage et l&#39;application de Ping avec le choix précis des attentes.">
<polygon fill="none" stroke="black" points="184,-0 184,-30 294,-30 294,-0 184,-0"/>
<text text-anchor="start" x="192" y="-18" font-family="Helvetica,sans-Serif" font-size="10.00">pi_ng_choix_sleep_et</text>
<text text-anchor="middle" x="239" y="-7" font-family="Helvetica,sans-Serif" font-size="10.00">_attente_reception</text>
</a>
</g>
</g>
<!-- Node2&#45;&gt;Node3 -->
<g id="edge2" class="edge"><title>Node2&#45;&gt;Node3</title>
<path fill="none" stroke="midnightblue" d="M158.364,-15C166.264,-15 175.067,-15 183.857,-15"/>
<polygon fill="midnightblue" stroke="midnightblue" points="158.236,-11.5001 148.236,-15 158.236,-18.5001 158.236,-11.5001"/>
</g>
</g>
</svg>
