<?xml version="1.0" encoding="UTF-8" standalone="no"?>
<!DOCTYPE svg PUBLIC "-//W3C//DTD SVG 1.1//EN"
 "http://www.w3.org/Graphics/SVG/1.1/DTD/svg11.dtd">
<!-- Generated by graphviz version 2.30.1 (20130712.1527)
 -->
<!-- Title: pi_ng_choix_sleep_et_attente_reception Pages: 1 -->
<svg width="596pt" height="268pt"
 viewBox="0.00 0.00 596.00 268.00" xmlns="http://www.w3.org/2000/svg" xmlns:xlink="http://www.w3.org/1999/xlink">
<g id="graph0" class="graph" transform="scale(1 1) rotate(0) translate(4 264)">
<title>pi_ng_choix_sleep_et_attente_reception</title>
<!-- Node1 -->
<g id="node1" class="node"><title>Node1</title>
<polygon fill="#bfbfbf" stroke="black" points="0,-99 0,-129 110,-129 110,-99 0,-99"/>
<text text-anchor="start" x="8" y="-117" font-family="Helvetica,sans-Serif" font-size="10.00">pi_ng_choix_sleep_et</text>
<text text-anchor="middle" x="55" y="-106" font-family="Helvetica,sans-Serif" font-size="10.00">_attente_reception</text>
</g>
<!-- Node2 -->
<g id="node2" class="node"><title>Node2</title>
<g id="a_node2"><a xlink:href="../../d6/dc8/ping__icmp_8h_a291ab2abf1ed6e77d7a8f41281d88a17.html#a291ab2abf1ed6e77d7a8f41281d88a17" target="_top" xlink:title="Fonction réalisant l&#39;affichage et l&#39;application de Ping.">
<polygon fill="none" stroke="black" points="146,-104.5 146,-123.5 186,-123.5 186,-104.5 146,-104.5"/>
<text text-anchor="middle" x="166" y="-111.5" font-family="Helvetica,sans-Serif" font-size="10.00">pi_ng</text>
</a>
</g>
</g>
<!-- Node1&#45;&gt;Node2 -->
<g id="edge1" class="edge"><title>Node1&#45;&gt;Node2</title>
<path fill="none" stroke="midnightblue" d="M110.181,-114C118.997,-114 127.824,-114 135.739,-114"/>
<polygon fill="midnightblue" stroke="midnightblue" points="135.881,-117.5 145.881,-114 135.881,-110.5 135.881,-117.5"/>
</g>
<!-- Node3 -->
<g id="node3" class="node"><title>Node3</title>
<g id="a_node3"><a xlink:href="../../d6/dc8/ping__icmp_8h_adb099e6aac6f37e8b98243533c024332.html#adb099e6aac6f37e8b98243533c024332" target="_top" xlink:title="Réponse du paquet par une réception d&#39;un paquet ICMP_ECHO REPLY.">
<polygon fill="none" stroke="black" points="244,-202.5 244,-221.5 318,-221.5 318,-202.5 244,-202.5"/>
<text text-anchor="middle" x="281" y="-209.5" font-family="Helvetica,sans-Serif" font-size="10.00">answer_send</text>
</a>
</g>
</g>
<!-- Node2&#45;&gt;Node3 -->
<g id="edge2" class="edge"><title>Node2&#45;&gt;Node3</title>
<path fill="none" stroke="midnightblue" d="M171.122,-123.527C178.757,-140.072 196.658,-174.148 222,-193 225.836,-195.854 230.122,-198.292 234.58,-200.372"/>
<polygon fill="midnightblue" stroke="midnightblue" points="233.302,-203.631 243.883,-204.158 235.94,-197.147 233.302,-203.631"/>
</g>
<!-- Node8 -->
<g id="node8" class="node"><title>Node8</title>
<g id="a_node8"><a xlink:href="../../d0/d91/time__util_8h_a2051450189c832e81f2e123fe286f443.html#a2051450189c832e81f2e123fe286f443" target="_top" xlink:title="Faire la différence entre deux struct timeval.">
<polygon fill="none" stroke="black" points="247.5,-164.5 247.5,-183.5 314.5,-183.5 314.5,-164.5 247.5,-164.5"/>
<text text-anchor="middle" x="281" y="-171.5" font-family="Helvetica,sans-Serif" font-size="10.00">diff_timeval</text>
</a>
</g>
</g>
<!-- Node2&#45;&gt;Node8 -->
<g id="edge7" class="edge"><title>Node2&#45;&gt;Node8</title>
<path fill="none" stroke="midnightblue" d="M180.133,-123.604C191.016,-131.312 207.065,-142.111 222,-150 229.182,-153.793 237.098,-157.412 244.712,-160.637"/>
<polygon fill="midnightblue" stroke="midnightblue" points="243.537,-163.938 254.117,-164.493 246.193,-157.461 243.537,-163.938"/>
</g>
<!-- Node9 -->
<g id="node9" class="node"><title>Node9</title>
<g id="a_node9"><a xlink:href="../../d0/d91/time__util_8h_a1f00814d12f1cb52dc007df592b0b7b6.html#a1f00814d12f1cb52dc007df592b0b7b6" target="_top" xlink:title="Extraire le temps en ms d&#39;une struct timeval.">
<polygon fill="none" stroke="black" points="385.5,-101.5 385.5,-120.5 456.5,-120.5 456.5,-101.5 385.5,-101.5"/>
<text text-anchor="middle" x="421" y="-108.5" font-family="Helvetica,sans-Serif" font-size="10.00">extract_time</text>
</a>
</g>
</g>
<!-- Node2&#45;&gt;Node9 -->
<g id="edge8" class="edge"><title>Node2&#45;&gt;Node9</title>
<path fill="none" stroke="midnightblue" d="M186.086,-114.865C196.665,-115.301 210.058,-115.783 222,-116 274.436,-116.953 287.581,-117.636 340,-116 351.395,-115.644 363.689,-115.004 375.14,-114.298"/>
<polygon fill="midnightblue" stroke="midnightblue" points="375.616,-117.775 385.37,-113.638 375.165,-110.789 375.616,-117.775"/>
</g>
<!-- Node10 -->
<g id="node10" class="node"><title>Node10</title>
<g id="a_node10"><a xlink:href="../../d0/dd6/structicmp4__packet_af095ed91818f00ec8eb99f95ad89f6f9.html#af095ed91818f00ec8eb99f95ad89f6f9" target="_top" xlink:title="Changer la sequence d&#39;un paquet IPv4+ICMP ECHO_REQUEST.">
<polygon fill="none" stroke="black" points="222.5,-77 222.5,-107 339.5,-107 339.5,-77 222.5,-77"/>
<text text-anchor="start" x="230.5" y="-95" font-family="Helvetica,sans-Serif" font-size="10.00">icmp4_packet::icmp4</text>
<text text-anchor="middle" x="281" y="-84" font-family="Helvetica,sans-Serif" font-size="10.00">_packet_set_echo_seq</text>
</a>
</g>
</g>
<!-- Node2&#45;&gt;Node10 -->
<g id="edge9" class="edge"><title>Node2&#45;&gt;Node10</title>
<path fill="none" stroke="midnightblue" d="M186.169,-110.268C193.646,-108.812 202.703,-107.049 212.203,-105.199"/>
<polygon fill="midnightblue" stroke="midnightblue" points="213.07,-108.596 222.217,-103.25 211.733,-101.725 213.07,-108.596"/>
</g>
<!-- Node11 -->
<g id="node11" class="node"><title>Node11</title>
<g id="a_node11"><a xlink:href="../../d6/dc8/ping__icmp_8h_afbaa96f7fc7935f32e3c24246e7ce278.html#afbaa96f7fc7935f32e3c24246e7ce278" target="_top" xlink:title="Mise à jour des RTT de la structure compteur.">
<polygon fill="none" stroke="black" points="266.5,-38.5 266.5,-57.5 295.5,-57.5 295.5,-38.5 266.5,-38.5"/>
<text text-anchor="middle" x="281" y="-45.5" font-family="Helvetica,sans-Serif" font-size="10.00">rtt</text>
</a>
</g>
</g>
<!-- Node2&#45;&gt;Node11 -->
<g id="edge10" class="edge"><title>Node2&#45;&gt;Node11</title>
<path fill="none" stroke="midnightblue" d="M175.874,-104.444C186.093,-93.9425 203.822,-77.212 222,-67 232.781,-60.9433 245.786,-56.4602 256.747,-53.3747"/>
<polygon fill="midnightblue" stroke="midnightblue" points="257.694,-56.7449 266.49,-50.8389 255.931,-49.9706 257.694,-56.7449"/>
</g>
<!-- Node12 -->
<g id="node12" class="node"><title>Node12</title>
<g id="a_node12"><a xlink:href="../../d6/dc8/ping__icmp_8h_a86be555ff5b36341867465a5cb0142d3.html#a86be555ff5b36341867465a5cb0142d3" target="_top" xlink:title="Envoie d&#39;un paquet ICMP_ECHO REQUEST.">
<polygon fill="none" stroke="black" points="245,-0.5 245,-19.5 317,-19.5 317,-0.5 245,-0.5"/>
<text text-anchor="middle" x="281" y="-7.5" font-family="Helvetica,sans-Serif" font-size="10.00">send_paquet</text>
</a>
</g>
</g>
<!-- Node2&#45;&gt;Node12 -->
<g id="edge12" class="edge"><title>Node2&#45;&gt;Node12</title>
<path fill="none" stroke="midnightblue" d="M170.694,-104.306C177.88,-86.7214 195.407,-49.4912 222,-29 226.092,-25.8471 230.728,-23.206 235.554,-20.9961"/>
<polygon fill="midnightblue" stroke="midnightblue" points="236.97,-24.1996 244.973,-17.2567 234.387,-17.6936 236.97,-24.1996"/>
</g>
<!-- Node4 -->
<g id="node4" class="node"><title>Node4</title>
<g id="a_node4"><a xlink:href="../../d9/d9b/address_8h_a81aae144fa0d9a0bd3da2e56e852b54a.html#a81aae144fa0d9a0bd3da2e56e852b54a" target="_top" xlink:title="Afficher un hôte.">
<polygon fill="none" stroke="black" points="383.5,-221.5 383.5,-240.5 458.5,-240.5 458.5,-221.5 383.5,-221.5"/>
<text text-anchor="middle" x="421" y="-228.5" font-family="Helvetica,sans-Serif" font-size="10.00">print_host_v4</text>
</a>
</g>
</g>
<!-- Node3&#45;&gt;Node4 -->
<g id="edge3" class="edge"><title>Node3&#45;&gt;Node4</title>
<path fill="none" stroke="midnightblue" d="M318.258,-216.992C335.025,-219.301 355.15,-222.071 373.059,-224.537"/>
<polygon fill="midnightblue" stroke="midnightblue" points="372.64,-228.012 383.024,-225.909 373.595,-221.078 372.64,-228.012"/>
</g>
<!-- Node7 -->
<g id="node7" class="node"><title>Node7</title>
<g id="a_node7"><a xlink:href="../../d3/d76/packet_8h_a2be7e8b585f620e44c817a77ce8cdfbc.html#a2be7e8b585f620e44c817a77ce8cdfbc" target="_top" xlink:title="Recevoir un paquet IPv4+ICMP.">
<polygon fill="none" stroke="black" points="376,-183.5 376,-202.5 466,-202.5 466,-183.5 376,-183.5"/>
<text text-anchor="middle" x="421" y="-190.5" font-family="Helvetica,sans-Serif" font-size="10.00">receive_icmp_v4</text>
</a>
</g>
</g>
<!-- Node3&#45;&gt;Node7 -->
<g id="edge6" class="edge"><title>Node3&#45;&gt;Node7</title>
<path fill="none" stroke="midnightblue" d="M318.258,-207.008C332.735,-205.015 349.716,-202.677 365.612,-200.488"/>
<polygon fill="midnightblue" stroke="midnightblue" points="366.435,-203.908 375.865,-199.077 365.481,-196.973 366.435,-203.908"/>
</g>
<!-- Node5 -->
<g id="node5" class="node"><title>Node5</title>
<g id="a_node5"><a xlink:href="../../d9/d9b/address_8h_a52138d7436e1d946641e32af4afc9788.html#a52138d7436e1d946641e32af4afc9788" target="_top" xlink:title="Afficher une addresse IP.">
<polygon fill="none" stroke="black" points="521,-240.5 521,-259.5 569,-259.5 569,-240.5 521,-240.5"/>
<text text-anchor="middle" x="545" y="-247.5" font-family="Helvetica,sans-Serif" font-size="10.00">print_ip</text>
</a>
</g>
</g>
<!-- Node4&#45;&gt;Node5 -->
<g id="edge4" class="edge"><title>Node4&#45;&gt;Node5</title>
<path fill="none" stroke="midnightblue" d="M458.604,-236.701C475.186,-239.283 494.647,-242.314 510.8,-244.829"/>
<polygon fill="midnightblue" stroke="midnightblue" points="510.454,-248.318 520.873,-246.398 511.531,-241.401 510.454,-248.318"/>
</g>
<!-- Node6 -->
<g id="node6" class="node"><title>Node6</title>
<g id="a_node6"><a xlink:href="../../d9/d9b/address_8h_ac3cf1976c272170c2ab9be2418cd5a0f.html#ac3cf1976c272170c2ab9be2418cd5a0f" target="_top" xlink:title="Obtenir le nom d&#39;un hôte à partir de son adresse IPv4.">
<polygon fill="none" stroke="black" points="502,-202.5 502,-221.5 588,-221.5 588,-202.5 502,-202.5"/>
<text text-anchor="middle" x="545" y="-209.5" font-family="Helvetica,sans-Serif" font-size="10.00">reverse_dns_v4</text>
</a>
</g>
</g>
<!-- Node4&#45;&gt;Node6 -->
<g id="edge5" class="edge"><title>Node4&#45;&gt;Node6</title>
<path fill="none" stroke="midnightblue" d="M458.604,-225.299C469.029,-223.676 480.592,-221.875 491.756,-220.136"/>
<polygon fill="midnightblue" stroke="midnightblue" points="492.509,-223.561 501.852,-218.564 491.432,-216.645 492.509,-223.561"/>
</g>
<!-- Node11&#45;&gt;Node9 -->
<g id="edge11" class="edge"><title>Node11&#45;&gt;Node9</title>
<path fill="none" stroke="midnightblue" d="M295.625,-51.683C307.55,-55.0891 325.227,-60.5844 340,-67 359.264,-75.3662 380.018,-86.8591 395.559,-96.0009"/>
<polygon fill="midnightblue" stroke="midnightblue" points="394.121,-99.2189 404.501,-101.34 397.71,-93.2086 394.121,-99.2189"/>
</g>
</g>
</svg>
