<?xml version="1.0" encoding="UTF-8" standalone="no"?>
<!DOCTYPE svg PUBLIC "-//W3C//DTD SVG 1.1//EN"
 "http://www.w3.org/Graphics/SVG/1.1/DTD/svg11.dtd">
<!-- Generated by graphviz version 2.30.1 (20130712.1527)
 -->
<!-- Title: include/ping_icmp.h Pages: 1 -->
<!--zoomable 364 -->
<svg id="main" version="1.1" xmlns="http://www.w3.org/2000/svg" xmlns:xlink="http://www.w3.org/1999/xlink" xml:space="preserve" onload="init(evt)">
        <defs>
                <circle id="rim" cx="0" cy="0" r="7"/>
                <circle id="rim2" cx="0" cy="0" r="3.5"/>
                <g id="zoomPlus">
                        <use xlink:href="#rim" fill="#404040">
                                <set attributeName="fill" to="#808080" begin="zoomplus.mouseover" end="zoomplus.mouseout"/>
                        </use>
                        <path d="M-4,0h8M0,-4v8" fill="none" stroke="white" stroke-width="1.5" pointer-events="none"/>
                </g>
                <g id="zoomMin">
                        <use xlink:href="#rim" fill="#404040">
                                <set attributeName="fill" to="#808080" begin="zoomminus.mouseover" end="zoomminus.mouseout"/>
                        </use>
                        <path d="M-4,0h8" fill="none" stroke="white" stroke-width="1.5" pointer-events="none"/>
                </g>
                <g id="dirArrow">
                        <path fill="none" stroke="white" stroke-width="1.5" d="M0,-3.0v7 M-2.5,-0.5L0,-3.0L2.5,-0.5"/>
                </g>
               <g id="resetDef">
                       <use xlink:href="#rim2" fill="#404040">
                               <set attributeName="fill" to="#808080" begin="reset.mouseover" end="reset.mouseout"/>
                       </use>
               </g>
        </defs>

<script type="text/javascript">
var viewWidth = 1576;
var viewHeight = 364;
var sectionId = 'dynsection-0';
</script>
<script xlink:href="../../svgpan.js"/>
<svg id="graph" class="graph">
<g id="viewport">
<title>include/ping_icmp.h</title>
<!-- Node1 -->
<g id="node1" class="node"><title>Node1</title>
<polygon fill="#bfbfbf" stroke="black" points="1148.68,-336.5 1148.68,-355.5 1251.68,-355.5 1251.68,-336.5 1148.68,-336.5"/>
<text text-anchor="middle" x="1200.18" y="-343.5" font-family="Helvetica,sans-Serif" font-size="10.00">include/ping_icmp.h</text>
</g>
<!-- Node2 -->
<g id="node2" class="node"><title>Node2</title>
<polygon fill="none" stroke="#bfbfbf" points="95.179,-0.5 95.179,-19.5 141.179,-19.5 141.179,-0.5 95.179,-0.5"/>
<text text-anchor="middle" x="118.179" y="-7.5" font-family="Helvetica,sans-Serif" font-size="10.00">stdio.h</text>
</g>
<!-- Node1&#45;&gt;Node2 -->
<g id="edge1" class="edge"><title>Node1&#45;&gt;Node2</title>
<path fill="none" stroke="midnightblue" d="M1148.63,-344.419C945.354,-341.917 205.449,-330.764 105.179,-300 52.7082,-283.902 0.179047,-289.885 0.179047,-235 0.179047,-235 0.179047,-235 0.179047,-121 0.179047,-90.9022 -0.537142,-78.7409 19.179,-56 28.3504,-45.4217 60.1235,-31.9965 85.2316,-22.5736"/>
<polygon fill="midnightblue" stroke="midnightblue" points="86.6338,-25.7871 94.8096,-19.0487 84.2161,-19.2179 86.6338,-25.7871"/>
</g>
<!-- Node3 -->
<g id="node3" class="node"><title>Node3</title>
<polygon fill="none" stroke="#bfbfbf" points="164.179,-0.5 164.179,-19.5 212.179,-19.5 212.179,-0.5 164.179,-0.5"/>
<text text-anchor="middle" x="188.179" y="-7.5" font-family="Helvetica,sans-Serif" font-size="10.00">stdlib.h</text>
</g>
<!-- Node1&#45;&gt;Node3 -->
<g id="edge2" class="edge"><title>Node1&#45;&gt;Node3</title>
<path fill="none" stroke="midnightblue" d="M1148.41,-345.044C937.749,-344.551 156.179,-335.923 156.179,-235 156.179,-235 156.179,-235 156.179,-121 156.179,-87.3287 170.174,-50.0849 179.654,-28.7194"/>
<polygon fill="midnightblue" stroke="midnightblue" points="182.853,-30.1383 183.863,-19.5917 176.497,-27.2065 182.853,-30.1383"/>
</g>
<!-- Node4 -->
<g id="node4" class="node"><title>Node4</title>
<polygon fill="none" stroke="#bfbfbf" points="870.179,-56.5 870.179,-75.5 938.179,-75.5 938.179,-56.5 870.179,-56.5"/>
<text text-anchor="middle" x="904.179" y="-63.5" font-family="Helvetica,sans-Serif" font-size="10.00">sys/types.h</text>
</g>
<!-- Node1&#45;&gt;Node4 -->
<g id="edge3" class="edge"><title>Node1&#45;&gt;Node4</title>
<path fill="none" stroke="midnightblue" d="M1196.1,-336.415C1179.71,-302.766 1115.18,-178.452 1026.18,-112 1003.13,-94.7869 972.791,-83.5598 948.137,-76.6246"/>
<polygon fill="midnightblue" stroke="midnightblue" points="948.869,-73.1974 938.304,-73.998 947.062,-79.9603 948.869,-73.1974"/>
</g>
<!-- Node5 -->
<g id="node5" class="node"><title>Node5</title>
<polygon fill="none" stroke="#bfbfbf" points="1096.68,-56.5 1096.68,-75.5 1169.68,-75.5 1169.68,-56.5 1096.68,-56.5"/>
<text text-anchor="middle" x="1133.18" y="-63.5" font-family="Helvetica,sans-Serif" font-size="10.00">sys/socket.h</text>
</g>
<!-- Node1&#45;&gt;Node5 -->
<g id="edge4" class="edge"><title>Node1&#45;&gt;Node5</title>
<path fill="none" stroke="midnightblue" d="M1213.38,-336.46C1225.02,-328.33 1241.71,-315.116 1252.18,-300 1269.71,-274.681 1276.18,-265.795 1276.18,-235 1276.18,-235 1276.18,-235 1276.18,-177 1276.18,-146.205 1273.87,-133.861 1252.18,-112 1240.82,-100.554 1203.72,-87.5279 1173.92,-78.4461"/>
<polygon fill="midnightblue" stroke="midnightblue" points="1174.73,-75.0347 1164.15,-75.5254 1172.73,-81.7417 1174.73,-75.0347"/>
</g>
<!-- Node6 -->
<g id="node6" class="node"><title>Node6</title>
<polygon fill="none" stroke="#bfbfbf" points="1254.68,-56.5 1254.68,-75.5 1319.68,-75.5 1319.68,-56.5 1254.68,-56.5"/>
<text text-anchor="middle" x="1287.18" y="-63.5" font-family="Helvetica,sans-Serif" font-size="10.00">netinet/in.h</text>
</g>
<!-- Node1&#45;&gt;Node6 -->
<g id="edge5" class="edge"><title>Node1&#45;&gt;Node6</title>
<path fill="none" stroke="midnightblue" d="M1235.05,-336.398C1279.93,-322.997 1352.18,-292.493 1352.18,-235 1352.18,-235 1352.18,-235 1352.18,-177 1352.18,-139.178 1323.34,-102.94 1304.08,-82.9551"/>
<polygon fill="midnightblue" stroke="midnightblue" points="1306.32,-80.2429 1296.77,-75.6585 1301.38,-85.1988 1306.32,-80.2429"/>
</g>
<!-- Node7 -->
<g id="node7" class="node"><title>Node7</title>
<polygon fill="none" stroke="#bfbfbf" points="1338.18,-56.5 1338.18,-75.5 1400.18,-75.5 1400.18,-56.5 1338.18,-56.5"/>
<text text-anchor="middle" x="1369.18" y="-63.5" font-family="Helvetica,sans-Serif" font-size="10.00">arpa/inet.h</text>
</g>
<!-- Node1&#45;&gt;Node7 -->
<g id="edge6" class="edge"><title>Node1&#45;&gt;Node7</title>
<path fill="none" stroke="midnightblue" d="M1251.85,-337.692C1308.11,-326.478 1390.18,-299.129 1390.18,-235 1390.18,-235 1390.18,-235 1390.18,-177 1390.18,-144.384 1381.16,-107.278 1374.94,-85.5732"/>
<polygon fill="midnightblue" stroke="midnightblue" points="1378.22,-84.3156 1372.01,-75.7319 1371.51,-86.3151 1378.22,-84.3156"/>
</g>
<!-- Node8 -->
<g id="node8" class="node"><title>Node8</title>
<polygon fill="none" stroke="#bfbfbf" points="1187.68,-56.5 1187.68,-75.5 1236.68,-75.5 1236.68,-56.5 1187.68,-56.5"/>
<text text-anchor="middle" x="1212.18" y="-63.5" font-family="Helvetica,sans-Serif" font-size="10.00">netdb.h</text>
</g>
<!-- Node1&#45;&gt;Node8 -->
<g id="edge7" class="edge"><title>Node1&#45;&gt;Node8</title>
<path fill="none" stroke="midnightblue" d="M1230.09,-336.426C1249.56,-329.462 1274.21,-317.827 1290.18,-300 1310.73,-277.061 1314.18,-265.795 1314.18,-235 1314.18,-235 1314.18,-235 1314.18,-177 1314.18,-146.205 1310.03,-135.541 1290.18,-112 1278.24,-97.8472 1260.66,-87.1589 1245.21,-79.7582"/>
<polygon fill="midnightblue" stroke="midnightblue" points="1246.49,-76.4952 1235.93,-75.5735 1243.61,-82.876 1246.49,-76.4952"/>
</g>
<!-- Node9 -->
<g id="node9" class="node"><title>Node9</title>
<polygon fill="none" stroke="#bfbfbf" points="1250.68,-0.5 1250.68,-19.5 1299.68,-19.5 1299.68,-0.5 1250.68,-0.5"/>
<text text-anchor="middle" x="1275.18" y="-7.5" font-family="Helvetica,sans-Serif" font-size="10.00">string.h</text>
</g>
<!-- Node1&#45;&gt;Node9 -->
<g id="edge8" class="edge"><title>Node1&#45;&gt;Node9</title>
<path fill="none" stroke="midnightblue" d="M1251.92,-342.263C1319.19,-335.596 1428.18,-312.79 1428.18,-235 1428.18,-235 1428.18,-235 1428.18,-121 1428.18,-90.9022 1430.04,-77.6996 1409.18,-56 1383.09,-28.8567 1340.15,-18.0851 1309.92,-13.8109"/>
<polygon fill="midnightblue" stroke="midnightblue" points="1310.16,-10.3142 1299.81,-12.5539 1309.3,-17.2608 1310.16,-10.3142"/>
</g>
<!-- Node10 -->
<g id="node10" class="node"><title>Node10</title>
<polygon fill="none" stroke="#bfbfbf" points="800.679,-56.5 800.679,-75.5 851.679,-75.5 851.679,-56.5 800.679,-56.5"/>
<text text-anchor="middle" x="826.179" y="-63.5" font-family="Helvetica,sans-Serif" font-size="10.00">unistd.h</text>
</g>
<!-- Node1&#45;&gt;Node10 -->
<g id="edge9" class="edge"><title>Node1&#45;&gt;Node10</title>
<path fill="none" stroke="midnightblue" d="M1148.48,-344.609C947.884,-342.418 232.179,-328.078 232.179,-235 232.179,-235 232.179,-235 232.179,-177 232.179,-146.902 227.819,-130.978 251.179,-112 293.001,-78.0235 671.018,-69.3691 790.294,-67.4749"/>
<polygon fill="midnightblue" stroke="midnightblue" points="790.424,-70.9734 800.37,-67.3214 790.318,-63.9742 790.424,-70.9734"/>
</g>
<!-- Node11 -->
<g id="node11" class="node"><title>Node11</title>
<polygon fill="none" stroke="#bfbfbf" points="1456.18,-280.5 1456.18,-299.5 1506.18,-299.5 1506.18,-280.5 1456.18,-280.5"/>
<text text-anchor="middle" x="1481.18" y="-287.5" font-family="Helvetica,sans-Serif" font-size="10.00">signal.h</text>
</g>
<!-- Node1&#45;&gt;Node11 -->
<g id="edge10" class="edge"><title>Node1&#45;&gt;Node11</title>
<path fill="none" stroke="midnightblue" d="M1249.43,-336.481C1298.42,-327.857 1375.66,-313.853 1442.18,-300 1443.44,-299.737 1444.73,-299.465 1446.02,-299.186"/>
<polygon fill="midnightblue" stroke="midnightblue" points="1447.03,-302.548 1456.04,-296.969 1445.52,-295.713 1447.03,-302.548"/>
</g>
<!-- Node12 -->
<g id="node12" class="node"><title>Node12</title>
<polygon fill="none" stroke="#bfbfbf" points="1524.18,-280.5 1524.18,-299.5 1568.18,-299.5 1568.18,-280.5 1524.18,-280.5"/>
<text text-anchor="middle" x="1546.18" y="-287.5" font-family="Helvetica,sans-Serif" font-size="10.00">time.h</text>
</g>
<!-- Node1&#45;&gt;Node12 -->
<g id="edge11" class="edge"><title>Node1&#45;&gt;Node12</title>
<path fill="none" stroke="midnightblue" d="M1251.86,-339.874C1312.51,-333.358 1416.2,-320.661 1513.88,-300.022"/>
<polygon fill="midnightblue" stroke="midnightblue" points="1514.88,-303.388 1523.92,-297.867 1513.41,-296.543 1514.88,-303.388"/>
</g>
<!-- Node13 -->
<g id="node13" class="node"><title>Node13</title>
<g id="a_node13"><a xlink:href="../../d3/d5a/base_8h.html" target="_top" xlink:title="Fonctions et inclusions de base. (header)">
<polygon fill="none" stroke="black" points="958.179,-56.5 958.179,-75.5 1004.18,-75.5 1004.18,-56.5 958.179,-56.5"/>
<text text-anchor="middle" x="981.179" y="-63.5" font-family="Helvetica,sans-Serif" font-size="10.00">base.h</text>
</a>
</g>
</g>
<!-- Node1&#45;&gt;Node13 -->
<g id="edge12" class="edge"><title>Node1&#45;&gt;Node13</title>
<path fill="none" stroke="midnightblue" d="M1205.46,-336.231C1215.9,-318.043 1238.18,-274.601 1238.18,-235 1238.18,-235 1238.18,-235 1238.18,-177 1238.18,-146.775 1240.82,-132.019 1218.18,-112 1149.53,-51.312 1104.66,-95.7408 1015.18,-76 1014.96,-75.9523 1014.75,-75.9042 1014.53,-75.8556"/>
<polygon fill="midnightblue" stroke="midnightblue" points="1015.07,-72.3858 1004.53,-73.4541 1013.43,-79.1924 1015.07,-72.3858"/>
</g>
<!-- Node18 -->
<g id="node18" class="node"><title>Node18</title>
<g id="a_node18"><a xlink:href="../../d7/d13/icmp__util_8h.html" target="_top" xlink:title="Utilitaires ICMP (header)">
<polygon fill="none" stroke="black" points="540.179,-168.5 540.179,-187.5 604.179,-187.5 604.179,-168.5 540.179,-168.5"/>
<text text-anchor="middle" x="572.179" y="-175.5" font-family="Helvetica,sans-Serif" font-size="10.00">icmp_util.h</text>
</a>
</g>
</g>
<!-- Node1&#45;&gt;Node18 -->
<g id="edge20" class="edge"><title>Node1&#45;&gt;Node18</title>
<path fill="none" stroke="midnightblue" d="M1148.36,-343.625C1042.54,-340.235 805.228,-329.498 730.179,-300 669.857,-276.29 613.099,-222.355 587.073,-195.223"/>
<polygon fill="midnightblue" stroke="midnightblue" points="589.417,-192.607 580.013,-187.727 584.321,-197.406 589.417,-192.607"/>
</g>
<!-- Node24 -->
<g id="node24" class="node"><title>Node24</title>
<g id="a_node24"><a xlink:href="../../d4/dbd/ip__util_8h.html" target="_top" xlink:title="Utilitaires IP (header)">
<polygon fill="none" stroke="black" points="726.179,-168.5 726.179,-187.5 776.179,-187.5 776.179,-168.5 726.179,-168.5"/>
<text text-anchor="middle" x="751.179" y="-175.5" font-family="Helvetica,sans-Serif" font-size="10.00">ip_util.h</text>
</a>
</g>
</g>
<!-- Node1&#45;&gt;Node24 -->
<g id="edge38" class="edge"><title>Node1&#45;&gt;Node24</title>
<path fill="none" stroke="midnightblue" d="M1148.64,-343.717C1035.2,-340.361 771.86,-329.45 745.179,-300 719.735,-271.916 733.079,-223.426 743.215,-197.166"/>
<polygon fill="midnightblue" stroke="midnightblue" points="746.546,-198.269 747.113,-187.689 740.072,-195.606 746.546,-198.269"/>
</g>
<!-- Node22 -->
<g id="node22" class="node"><title>Node22</title>
<g id="a_node22"><a xlink:href="../../d9/d9b/address_8h.html" target="_top" xlink:title="Utilitaires pour obtenir des addresses. (header)">
<polygon fill="none" stroke="black" points="1150.68,-112.5 1150.68,-131.5 1209.68,-131.5 1209.68,-112.5 1150.68,-112.5"/>
<text text-anchor="middle" x="1180.18" y="-119.5" font-family="Helvetica,sans-Serif" font-size="10.00">address.h</text>
</a>
</g>
</g>
<!-- Node1&#45;&gt;Node22 -->
<g id="edge47" class="edge"><title>Node1&#45;&gt;Node22</title>
<path fill="none" stroke="midnightblue" d="M1199.4,-336.297C1196.45,-303.633 1186.02,-187.866 1181.89,-141.957"/>
<polygon fill="midnightblue" stroke="midnightblue" points="1185.36,-141.529 1180.98,-131.884 1178.39,-142.157 1185.36,-141.529"/>
</g>
<!-- Node27 -->
<g id="node27" class="node"><title>Node27</title>
<g id="a_node27"><a xlink:href="../../d3/d76/packet_8h.html" target="_top" xlink:title="Utilitaires pour créer des paquets (header)">
<polygon fill="none" stroke="black" points="754.179,-280.5 754.179,-299.5 808.179,-299.5 808.179,-280.5 754.179,-280.5"/>
<text text-anchor="middle" x="781.179" y="-287.5" font-family="Helvetica,sans-Serif" font-size="10.00">packet.h</text>
</a>
</g>
</g>
<!-- Node1&#45;&gt;Node27 -->
<g id="edge48" class="edge"><title>Node1&#45;&gt;Node27</title>
<path fill="none" stroke="midnightblue" d="M1148.38,-338.324C1062.64,-327.275 893.263,-305.445 818.332,-295.788"/>
<polygon fill="midnightblue" stroke="midnightblue" points="818.77,-292.316 808.405,-294.509 817.875,-299.258 818.77,-292.316"/>
</g>
<!-- Node30 -->
<g id="node30" class="node"><title>Node30</title>
<g id="a_node30"><a xlink:href="../../d0/d91/time__util_8h.html" target="_top" xlink:title="Utilitaires temps (header)">
<polygon fill="none" stroke="black" points="28.179,-56.5 28.179,-75.5 90.179,-75.5 90.179,-56.5 28.179,-56.5"/>
<text text-anchor="middle" x="59.179" y="-63.5" font-family="Helvetica,sans-Serif" font-size="10.00">time_util.h</text>
</a>
</g>
</g>
<!-- Node1&#45;&gt;Node30 -->
<g id="edge65" class="edge"><title>Node1&#45;&gt;Node30</title>
<path fill="none" stroke="midnightblue" d="M1148.66,-345.269C948.963,-345.977 232.575,-345.309 142.179,-300 108.856,-283.297 89.179,-272.275 89.179,-235 89.179,-235 89.179,-235 89.179,-177 89.179,-143.64 76.1779,-106.532 67.2932,-85.0673"/>
<polygon fill="midnightblue" stroke="midnightblue" points="70.3951,-83.4213 63.225,-75.6212 63.966,-86.1901 70.3951,-83.4213"/>
</g>
<!-- Node13&#45;&gt;Node3 -->
<g id="edge13" class="edge"><title>Node13&#45;&gt;Node3</title>
<path fill="none" stroke="midnightblue" d="M957.899,-58.1829C954.333,-57.3293 950.676,-56.5607 947.179,-56 804.559,-33.1311 351.099,-16.4758 222.485,-12.1233"/>
<polygon fill="midnightblue" stroke="midnightblue" points="222.534,-8.62303 212.422,-11.7855 222.299,-15.6191 222.534,-8.62303"/>
</g>
<!-- Node13&#45;&gt;Node2 -->
<g id="edge14" class="edge"><title>Node13&#45;&gt;Node2</title>
<path fill="none" stroke="midnightblue" d="M957.906,-58.1396C954.339,-57.292 950.68,-56.5366 947.179,-56 598.883,-2.61294 503.995,-69.8733 155.179,-20 153.927,-19.821 152.656,-19.6186 151.376,-19.3972"/>
<polygon fill="midnightblue" stroke="midnightblue" points="152.03,-15.9587 141.534,-17.4029 150.64,-22.8193 152.03,-15.9587"/>
</g>
<!-- Node14 -->
<g id="node14" class="node"><title>Node14</title>
<polygon fill="none" stroke="#bfbfbf" points="1023.18,-0.5 1023.18,-19.5 1079.18,-19.5 1079.18,-0.5 1023.18,-0.5"/>
<text text-anchor="middle" x="1051.18" y="-7.5" font-family="Helvetica,sans-Serif" font-size="10.00">stdbool.h</text>
</g>
<!-- Node13&#45;&gt;Node14 -->
<g id="edge15" class="edge"><title>Node13&#45;&gt;Node14</title>
<path fill="none" stroke="midnightblue" d="M992.426,-56.324C1002.98,-48.1849 1018.98,-35.8395 1031.62,-26.0874"/>
<polygon fill="midnightblue" stroke="midnightblue" points="1033.95,-28.7132 1039.73,-19.8339 1029.67,-23.1707 1033.95,-28.7132"/>
</g>
<!-- Node15 -->
<g id="node15" class="node"><title>Node15</title>
<polygon fill="none" stroke="#bfbfbf" points="877.179,-0.5 877.179,-19.5 939.179,-19.5 939.179,-0.5 877.179,-0.5"/>
<text text-anchor="middle" x="908.179" y="-7.5" font-family="Helvetica,sans-Serif" font-size="10.00">sysexits.h</text>
</g>
<!-- Node13&#45;&gt;Node15 -->
<g id="edge16" class="edge"><title>Node13&#45;&gt;Node15</title>
<path fill="none" stroke="midnightblue" d="M969.45,-56.324C958.342,-48.1066 941.437,-35.6017 928.196,-25.8069"/>
<polygon fill="midnightblue" stroke="midnightblue" points="930.242,-22.9671 920.121,-19.8339 926.079,-28.5948 930.242,-22.9671"/>
</g>
<!-- Node16 -->
<g id="node16" class="node"><title>Node16</title>
<polygon fill="none" stroke="#bfbfbf" points="596.679,-0.5 596.679,-19.5 643.679,-19.5 643.679,-0.5 596.679,-0.5"/>
<text text-anchor="middle" x="620.179" y="-7.5" font-family="Helvetica,sans-Serif" font-size="10.00">errno.h</text>
</g>
<!-- Node13&#45;&gt;Node16 -->
<g id="edge17" class="edge"><title>Node13&#45;&gt;Node16</title>
<path fill="none" stroke="midnightblue" d="M957.856,-58.4253C954.296,-57.5383 950.652,-56.6958 947.179,-56 840.901,-34.7038 713.163,-20.3117 653.692,-14.247"/>
<polygon fill="midnightblue" stroke="midnightblue" points="654.038,-10.7642 643.738,-13.2449 653.337,-17.729 654.038,-10.7642"/>
</g>
<!-- Node13&#45;&gt;Node9 -->
<g id="edge18" class="edge"><title>Node13&#45;&gt;Node9</title>
<path fill="none" stroke="midnightblue" d="M1004.52,-58.533C1008.08,-57.6312 1011.72,-56.7558 1015.18,-56 1095.4,-38.4751 1190.75,-23.4296 1240.71,-15.9834"/>
<polygon fill="midnightblue" stroke="midnightblue" points="1241.29,-19.4371 1250.67,-14.5116 1240.26,-12.5125 1241.29,-19.4371"/>
</g>
<!-- Node17 -->
<g id="node17" class="node"><title>Node17</title>
<polygon fill="none" stroke="#bfbfbf" points="957.179,-0.5 957.179,-19.5 1005.18,-19.5 1005.18,-0.5 957.179,-0.5"/>
<text text-anchor="middle" x="981.179" y="-7.5" font-family="Helvetica,sans-Serif" font-size="10.00">limits.h</text>
</g>
<!-- Node13&#45;&gt;Node17 -->
<g id="edge19" class="edge"><title>Node13&#45;&gt;Node17</title>
<path fill="none" stroke="midnightblue" d="M981.179,-56.083C981.179,-49.0059 981.179,-38.8611 981.179,-29.9865"/>
<polygon fill="midnightblue" stroke="midnightblue" points="984.679,-29.751 981.179,-19.7511 977.679,-29.7511 984.679,-29.751"/>
</g>
<!-- Node19 -->
<g id="node19" class="node"><title>Node19</title>
<polygon fill="none" stroke="#bfbfbf" points="260.679,-112.5 260.679,-131.5 351.679,-131.5 351.679,-112.5 260.679,-112.5"/>
<text text-anchor="middle" x="306.179" y="-119.5" font-family="Helvetica,sans-Serif" font-size="10.00">netinet/ip_icmp.h</text>
</g>
<!-- Node18&#45;&gt;Node19 -->
<g id="edge21" class="edge"><title>Node18&#45;&gt;Node19</title>
<path fill="none" stroke="midnightblue" d="M540.093,-170.486C495.048,-161.342 412.538,-144.592 358.531,-133.628"/>
<polygon fill="midnightblue" stroke="midnightblue" points="358.958,-130.143 348.462,-131.584 357.566,-137.003 358.958,-130.143"/>
</g>
<!-- Node20 -->
<g id="node20" class="node"><title>Node20</title>
<polygon fill="none" stroke="#bfbfbf" points="572.679,-112.5 572.679,-131.5 655.679,-131.5 655.679,-112.5 572.679,-112.5"/>
<text text-anchor="middle" x="614.179" y="-119.5" font-family="Helvetica,sans-Serif" font-size="10.00">netinet/icmp6.h</text>
</g>
<!-- Node18&#45;&gt;Node20 -->
<g id="edge22" class="edge"><title>Node18&#45;&gt;Node20</title>
<path fill="none" stroke="midnightblue" d="M579.114,-168.083C585.108,-160.377 593.931,-149.033 601.227,-139.653"/>
<polygon fill="midnightblue" stroke="midnightblue" points="603.996,-141.793 607.373,-131.751 598.47,-137.496 603.996,-141.793"/>
</g>
<!-- Node18&#45;&gt;Node4 -->
<g id="edge23" class="edge"><title>Node18&#45;&gt;Node4</title>
<path fill="none" stroke="midnightblue" d="M559.587,-168.41C541.969,-155.377 513.853,-130.204 530.179,-112 579.432,-57.0822 787.297,-87.4038 860.179,-76 860.28,-75.9842 860.381,-75.9683 860.483,-75.9523"/>
<polygon fill="midnightblue" stroke="midnightblue" points="860.865,-79.4381 870.126,-74.2915 859.677,-72.5396 860.865,-79.4381"/>
</g>
<!-- Node18&#45;&gt;Node16 -->
<g id="edge24" class="edge"><title>Node18&#45;&gt;Node16</title>
<path fill="none" stroke="midnightblue" d="M557.227,-168.474C545.247,-160.702 529.306,-148.002 522.179,-132 518.563,-123.88 518.839,-120.238 522.179,-112 537.481,-74.2545 574.411,-42.8394 598.311,-25.5159"/>
<polygon fill="midnightblue" stroke="midnightblue" points="600.589,-28.1935 606.762,-19.5826 596.566,-22.4646 600.589,-28.1935"/>
</g>
<!-- Node18&#45;&gt;Node13 -->
<g id="edge25" class="edge"><title>Node18&#45;&gt;Node13</title>
<path fill="none" stroke="midnightblue" d="M567.095,-168.145C559.89,-154.297 549.065,-127.499 563.179,-112 592.032,-80.3151 904.988,-83.5086 947.179,-76 947.397,-75.9612 947.616,-75.9217 947.835,-75.8816"/>
<polygon fill="midnightblue" stroke="midnightblue" points="948.847,-79.2437 957.881,-73.7098 947.368,-72.4018 948.847,-79.2437"/>
</g>
<!-- Node21 -->
<g id="node21" class="node"><title>Node21</title>
<g id="a_node21"><a xlink:href="../../dc/d31/checksum_8h.html" target="_top" xlink:title="Internet Checksum. (header)">
<polygon fill="none" stroke="black" points="370.179,-112.5 370.179,-131.5 440.179,-131.5 440.179,-112.5 370.179,-112.5"/>
<text text-anchor="middle" x="405.179" y="-119.5" font-family="Helvetica,sans-Serif" font-size="10.00">checksum.h</text>
</a>
</g>
</g>
<!-- Node18&#45;&gt;Node21 -->
<g id="edge26" class="edge"><title>Node18&#45;&gt;Node21</title>
<path fill="none" stroke="midnightblue" d="M545.717,-168.444C517.501,-159.32 472.639,-144.813 441.211,-134.651"/>
<polygon fill="midnightblue" stroke="midnightblue" points="442.109,-131.263 431.517,-131.516 439.955,-137.923 442.109,-131.263"/>
</g>
<!-- Node18&#45;&gt;Node22 -->
<g id="edge29" class="edge"><title>Node18&#45;&gt;Node22</title>
<path fill="none" stroke="midnightblue" d="M604.438,-174.135C707.299,-164.999 1027.36,-136.572 1140.26,-126.545"/>
<polygon fill="midnightblue" stroke="midnightblue" points="1140.88,-130.005 1150.53,-125.634 1140.26,-123.032 1140.88,-130.005"/>
</g>
<!-- Node21&#45;&gt;Node3 -->
<g id="edge27" class="edge"><title>Node21&#45;&gt;Node3</title>
<path fill="none" stroke="midnightblue" d="M388.151,-112.368C350.36,-93.2113 259.267,-47.0355 214.253,-24.2172"/>
<polygon fill="midnightblue" stroke="midnightblue" points="215.63,-20.991 205.128,-19.5914 212.465,-27.2347 215.63,-20.991"/>
</g>
<!-- Node21&#45;&gt;Node2 -->
<g id="edge28" class="edge"><title>Node21&#45;&gt;Node2</title>
<path fill="none" stroke="midnightblue" d="M378.655,-112.441C352.066,-103.732 310.038,-89.6135 274.179,-76 229.379,-58.9919 178.247,-37.229 147.096,-23.701"/>
<polygon fill="midnightblue" stroke="midnightblue" points="148.284,-20.4006 137.718,-19.6146 145.488,-26.8179 148.284,-20.4006"/>
</g>
<!-- Node22&#45;&gt;Node4 -->
<g id="edge30" class="edge"><title>Node22&#45;&gt;Node4</title>
<path fill="none" stroke="midnightblue" d="M1150.37,-114.853C1145.62,-113.889 1140.77,-112.911 1136.18,-112 1053.16,-95.5192 1032.23,-92.2995 949.179,-76 948.964,-75.9578 948.748,-75.9155 948.532,-75.873"/>
<polygon fill="midnightblue" stroke="midnightblue" points="949.059,-72.4096 938.571,-73.9048 947.703,-79.2768 949.059,-72.4096"/>
</g>
<!-- Node22&#45;&gt;Node5 -->
<g id="edge31" class="edge"><title>Node22&#45;&gt;Node5</title>
<path fill="none" stroke="midnightblue" d="M1172.42,-112.083C1165.64,-104.298 1155.64,-92.8015 1147.42,-83.3665"/>
<polygon fill="midnightblue" stroke="midnightblue" points="1150,-80.9963 1140.8,-75.7511 1144.72,-85.592 1150,-80.9963"/>
</g>
<!-- Node22&#45;&gt;Node8 -->
<g id="edge32" class="edge"><title>Node22&#45;&gt;Node8</title>
<path fill="none" stroke="midnightblue" d="M1185.46,-112.083C1189.89,-104.613 1196.34,-93.7244 1201.8,-84.5199"/>
<polygon fill="midnightblue" stroke="midnightblue" points="1204.91,-86.1383 1206.99,-75.7511 1198.88,-82.5697 1204.91,-86.1383"/>
</g>
<!-- Node22&#45;&gt;Node10 -->
<g id="edge33" class="edge"><title>Node22&#45;&gt;Node10</title>
<path fill="none" stroke="midnightblue" d="M1150.53,-117.936C1095.6,-112.021 974.175,-97.8232 861.86,-75.9219"/>
<polygon fill="midnightblue" stroke="midnightblue" points="862.207,-72.4228 851.718,-73.9179 860.85,-79.29 862.207,-72.4228"/>
</g>
<!-- Node22&#45;&gt;Node6 -->
<g id="edge34" class="edge"><title>Node22&#45;&gt;Node6</title>
<path fill="none" stroke="midnightblue" d="M1197.37,-112.324C1214.53,-103.664 1241.12,-90.2424 1260.93,-80.249"/>
<polygon fill="midnightblue" stroke="midnightblue" points="1262.68,-83.2847 1270.03,-75.6545 1259.53,-77.0354 1262.68,-83.2847"/>
</g>
<!-- Node22&#45;&gt;Node7 -->
<g id="edge35" class="edge"><title>Node22&#45;&gt;Node7</title>
<path fill="none" stroke="midnightblue" d="M1209.71,-112.562C1241.98,-103.344 1293.83,-88.5293 1329.6,-78.3089"/>
<polygon fill="midnightblue" stroke="midnightblue" points="1330.58,-81.6691 1339.23,-75.5565 1328.65,-74.9384 1330.58,-81.6691"/>
</g>
<!-- Node23 -->
<g id="node23" class="node"><title>Node23</title>
<polygon fill="none" stroke="#bfbfbf" points="1024.18,-56.5 1024.18,-75.5 1078.18,-75.5 1078.18,-56.5 1024.18,-56.5"/>
<text text-anchor="middle" x="1051.18" y="-63.5" font-family="Helvetica,sans-Serif" font-size="10.00">ifaddrs.h</text>
</g>
<!-- Node22&#45;&gt;Node23 -->
<g id="edge36" class="edge"><title>Node22&#45;&gt;Node23</title>
<path fill="none" stroke="midnightblue" d="M1159.74,-112.444C1138.51,-103.557 1105.08,-89.5632 1080.92,-79.4514"/>
<polygon fill="midnightblue" stroke="midnightblue" points="1082.1,-76.1493 1071.52,-75.5164 1079.4,-82.6064 1082.1,-76.1493"/>
</g>
<!-- Node22&#45;&gt;Node13 -->
<g id="edge37" class="edge"><title>Node22&#45;&gt;Node13</title>
<path fill="none" stroke="midnightblue" d="M1150.39,-112.916C1113.91,-103.019 1052.33,-86.3076 1014.37,-76.0077"/>
<polygon fill="midnightblue" stroke="midnightblue" points="1014.9,-72.5247 1004.34,-73.2836 1013.07,-79.2804 1014.9,-72.5247"/>
</g>
<!-- Node25 -->
<g id="node25" class="node"><title>Node25</title>
<polygon fill="none" stroke="#bfbfbf" points="952.679,-112.5 952.679,-131.5 1017.68,-131.5 1017.68,-112.5 952.679,-112.5"/>
<text text-anchor="middle" x="985.179" y="-119.5" font-family="Helvetica,sans-Serif" font-size="10.00">netinet/ip.h</text>
</g>
<!-- Node24&#45;&gt;Node25 -->
<g id="edge39" class="edge"><title>Node24&#45;&gt;Node25</title>
<path fill="none" stroke="midnightblue" d="M776.221,-171.221C815.957,-162.051 893.922,-144.059 942.569,-132.833"/>
<polygon fill="midnightblue" stroke="midnightblue" points="943.524,-136.205 952.481,-130.546 941.95,-129.384 943.524,-136.205"/>
</g>
<!-- Node26 -->
<g id="node26" class="node"><title>Node26</title>
<polygon fill="none" stroke="#bfbfbf" points="674.179,-112.5 674.179,-131.5 744.179,-131.5 744.179,-112.5 674.179,-112.5"/>
<text text-anchor="middle" x="709.179" y="-119.5" font-family="Helvetica,sans-Serif" font-size="10.00">netinet/ip6.h</text>
</g>
<!-- Node24&#45;&gt;Node26 -->
<g id="edge40" class="edge"><title>Node24&#45;&gt;Node26</title>
<path fill="none" stroke="midnightblue" d="M744.244,-168.083C738.25,-160.377 729.427,-149.033 722.131,-139.653"/>
<polygon fill="midnightblue" stroke="midnightblue" points="724.888,-137.496 715.985,-131.751 719.362,-141.793 724.888,-137.496"/>
</g>
<!-- Node24&#45;&gt;Node4 -->
<g id="edge41" class="edge"><title>Node24&#45;&gt;Node4</title>
<path fill="none" stroke="midnightblue" d="M763.185,-168.368C789.328,-149.573 851.647,-104.768 883.964,-81.5334"/>
<polygon fill="midnightblue" stroke="midnightblue" points="886.153,-84.2707 892.229,-75.5914 882.067,-78.5871 886.153,-84.2707"/>
</g>
<!-- Node24&#45;&gt;Node16 -->
<g id="edge42" class="edge"><title>Node24&#45;&gt;Node16</title>
<path fill="none" stroke="midnightblue" d="M753.873,-168.46C757.449,-155.494 762.313,-130.406 753.179,-112 731.921,-69.1635 682.846,-39.5993 650.623,-23.9868"/>
<polygon fill="midnightblue" stroke="midnightblue" points="651.755,-20.6524 641.214,-19.5902 648.792,-26.9943 651.755,-20.6524"/>
</g>
<!-- Node24&#45;&gt;Node10 -->
<g id="edge43" class="edge"><title>Node24&#45;&gt;Node10</title>
<path fill="none" stroke="midnightblue" d="M758.446,-168.251C765.739,-159.338 777.155,-145.013 786.179,-132 797.01,-116.382 808.261,-97.8598 816.062,-84.5907"/>
<polygon fill="midnightblue" stroke="midnightblue" points="819.287,-86.0066 821.29,-75.6028 813.236,-82.4869 819.287,-86.0066"/>
</g>
<!-- Node24&#45;&gt;Node13 -->
<g id="edge44" class="edge"><title>Node24&#45;&gt;Node13</title>
<path fill="none" stroke="midnightblue" d="M769.227,-168.368C809.451,-149.131 906.643,-102.648 954.141,-79.9314"/>
<polygon fill="midnightblue" stroke="midnightblue" points="955.704,-83.0635 963.215,-75.5914 952.684,-76.7486 955.704,-83.0635"/>
</g>
<!-- Node24&#45;&gt;Node21 -->
<g id="edge45" class="edge"><title>Node24&#45;&gt;Node21</title>
<path fill="none" stroke="midnightblue" d="M726.017,-173.073C667.944,-164.01 523.906,-141.53 450.197,-130.026"/>
<polygon fill="midnightblue" stroke="midnightblue" points="450.699,-126.562 440.279,-128.478 449.62,-133.478 450.699,-126.562"/>
</g>
<!-- Node24&#45;&gt;Node22 -->
<g id="edge46" class="edge"><title>Node24&#45;&gt;Node22</title>
<path fill="none" stroke="midnightblue" d="M776.413,-173.824C848.125,-164.797 1053.53,-138.942 1140.51,-127.994"/>
<polygon fill="midnightblue" stroke="midnightblue" points="1141.02,-131.456 1150.51,-126.735 1140.15,-124.511 1141.02,-131.456"/>
</g>
<!-- Node27&#45;&gt;Node19 -->
<g id="edge49" class="edge"><title>Node27&#45;&gt;Node19</title>
<path fill="none" stroke="midnightblue" d="M754.053,-282.539C721.141,-274.486 664.106,-259.84 616.179,-244 511.089,-209.268 389.68,-158.757 335.229,-135.533"/>
<polygon fill="midnightblue" stroke="midnightblue" points="336.431,-132.241 325.86,-131.525 333.677,-138.676 336.431,-132.241"/>
</g>
<!-- Node27&#45;&gt;Node20 -->
<g id="edge50" class="edge"><title>Node27&#45;&gt;Node20</title>
<path fill="none" stroke="midnightblue" d="M771.27,-280.191C761.266,-271.231 745.441,-256.87 732.179,-244 694.319,-207.258 651.432,-162.439 629.256,-139.013"/>
<polygon fill="midnightblue" stroke="midnightblue" points="631.729,-136.534 622.318,-131.668 626.64,-141.341 631.729,-136.534"/>
</g>
<!-- Node27&#45;&gt;Node25 -->
<g id="edge51" class="edge"><title>Node27&#45;&gt;Node25</title>
<path fill="none" stroke="midnightblue" d="M788.317,-280.414C808.855,-255.843 868.163,-185.865 892.179,-168 910.356,-154.479 933.234,-143.346 951.75,-135.536"/>
<polygon fill="midnightblue" stroke="midnightblue" points="953.324,-138.674 961.258,-131.653 950.677,-132.194 953.324,-138.674"/>
</g>
<!-- Node27&#45;&gt;Node26 -->
<g id="edge52" class="edge"><title>Node27&#45;&gt;Node26</title>
<path fill="none" stroke="midnightblue" d="M773.697,-280.255C759.893,-263.576 730.607,-225.527 717.179,-188 711.846,-173.096 709.948,-155.179 709.325,-141.934"/>
<polygon fill="midnightblue" stroke="midnightblue" points="712.817,-141.593 709.053,-131.69 705.82,-141.78 712.817,-141.593"/>
</g>
<!-- Node27&#45;&gt;Node4 -->
<g id="edge53" class="edge"><title>Node27&#45;&gt;Node4</title>
<path fill="none" stroke="midnightblue" d="M786.001,-280.297C804.252,-247.356 869.33,-129.898 894.314,-84.8052"/>
<polygon fill="midnightblue" stroke="midnightblue" points="897.472,-86.3272 899.257,-75.8837 891.349,-82.9346 897.472,-86.3272"/>
</g>
<!-- Node27&#45;&gt;Node16 -->
<g id="edge54" class="edge"><title>Node27&#45;&gt;Node16</title>
<path fill="none" stroke="midnightblue" d="M753.917,-285.365C654.087,-271.427 311.168,-217.838 251.179,-132 210.377,-73.6164 488.321,-29.1775 586.626,-15.4388"/>
<polygon fill="midnightblue" stroke="midnightblue" points="587.204,-18.8924 596.633,-14.0601 586.248,-11.9579 587.204,-18.8924"/>
</g>
<!-- Node27&#45;&gt;Node13 -->
<g id="edge55" class="edge"><title>Node27&#45;&gt;Node13</title>
<path fill="none" stroke="midnightblue" d="M808.274,-286.977C845.131,-283.21 912.095,-272.69 961.179,-244 990.764,-226.707 994.526,-216.073 1014.18,-188 1034.82,-158.511 1058.4,-144.133 1042.18,-112 1035.37,-98.5199 1022.41,-88.083 1010.18,-80.6696"/>
<polygon fill="midnightblue" stroke="midnightblue" points="1011.52,-77.4099 1001.09,-75.5896 1008.11,-83.5214 1011.52,-77.4099"/>
</g>
<!-- Node27&#45;&gt;Node18 -->
<g id="edge56" class="edge"><title>Node27&#45;&gt;Node18</title>
<path fill="none" stroke="midnightblue" d="M753.98,-283.315C725.728,-276.656 680.887,-263.93 646.179,-244 623.157,-230.781 600.843,-209.689 586.845,-195.136"/>
<polygon fill="midnightblue" stroke="midnightblue" points="589.368,-192.71 579.972,-187.815 584.265,-197.501 589.368,-192.71"/>
</g>
<!-- Node27&#45;&gt;Node24 -->
<g id="edge57" class="edge"><title>Node27&#45;&gt;Node24</title>
<path fill="none" stroke="midnightblue" d="M778.825,-280.368C773.962,-262.537 762.714,-221.295 756.162,-197.272"/>
<polygon fill="midnightblue" stroke="midnightblue" points="759.53,-196.318 753.522,-187.591 752.777,-198.16 759.53,-196.318"/>
</g>
<!-- Node28 -->
<g id="node28" class="node"><title>Node28</title>
<g id="a_node28"><a xlink:href="../../da/d14/udp__util_8h.html" target="_top" xlink:title="Utilitaires IP (header)">
<polygon fill="none" stroke="black" points="893.679,-224.5 893.679,-243.5 952.679,-243.5 952.679,-224.5 893.679,-224.5"/>
<text text-anchor="middle" x="923.179" y="-231.5" font-family="Helvetica,sans-Serif" font-size="10.00">udp_util.h</text>
</a>
</g>
</g>
<!-- Node27&#45;&gt;Node28 -->
<g id="edge58" class="edge"><title>Node27&#45;&gt;Node28</title>
<path fill="none" stroke="midnightblue" d="M803.679,-280.444C827.256,-271.478 864.501,-257.314 891.143,-247.183"/>
<polygon fill="midnightblue" stroke="midnightblue" points="892.681,-250.342 900.784,-243.516 890.193,-243.8 892.681,-250.342"/>
</g>
<!-- Node27&#45;&gt;Node22 -->
<g id="edge64" class="edge"><title>Node27&#45;&gt;Node22</title>
<path fill="none" stroke="midnightblue" d="M808.345,-287.999C876.308,-285.055 1051.71,-274.616 1100.18,-244 1139.09,-219.423 1163.21,-168.277 1173.83,-141.017"/>
<polygon fill="midnightblue" stroke="midnightblue" points="1177.15,-142.135 1177.35,-131.542 1170.59,-139.698 1177.15,-142.135"/>
</g>
<!-- Node29 -->
<g id="node29" class="node"><title>Node29</title>
<polygon fill="none" stroke="#bfbfbf" points="908.679,-168.5 908.679,-187.5 981.679,-187.5 981.679,-168.5 908.679,-168.5"/>
<text text-anchor="middle" x="945.179" y="-175.5" font-family="Helvetica,sans-Serif" font-size="10.00">netinet/udp.h</text>
</g>
<!-- Node28&#45;&gt;Node29 -->
<g id="edge59" class="edge"><title>Node28&#45;&gt;Node29</title>
<path fill="none" stroke="midnightblue" d="M926.812,-224.083C929.791,-216.77 934.105,-206.181 937.804,-197.103"/>
<polygon fill="midnightblue" stroke="midnightblue" points="941.082,-198.333 941.614,-187.751 934.599,-195.691 941.082,-198.333"/>
</g>
<!-- Node28&#45;&gt;Node25 -->
<g id="edge60" class="edge"><title>Node28&#45;&gt;Node25</title>
<path fill="none" stroke="midnightblue" d="M915.124,-224.113C904.386,-211.133 887.966,-186.523 899.179,-168 908.808,-152.094 926.114,-141.539 942.69,-134.678"/>
<polygon fill="midnightblue" stroke="midnightblue" points="944.181,-137.857 952.302,-131.052 941.71,-131.307 944.181,-137.857"/>
</g>
<!-- Node28&#45;&gt;Node13 -->
<g id="edge61" class="edge"><title>Node28&#45;&gt;Node13</title>
<path fill="none" stroke="midnightblue" d="M939.702,-224.444C954.172,-216.394 975.173,-203.311 990.179,-188 1010.89,-166.869 1017.84,-160.389 1026.18,-132 1028.68,-123.471 1029.58,-120.212 1026.18,-112 1021.26,-100.121 1011.51,-89.7428 1002.34,-81.9557"/>
<polygon fill="midnightblue" stroke="midnightblue" points="1004.26,-79.0101 994.243,-75.5641 999.926,-84.5058 1004.26,-79.0101"/>
</g>
<!-- Node28&#45;&gt;Node24 -->
<g id="edge62" class="edge"><title>Node28&#45;&gt;Node24</title>
<path fill="none" stroke="midnightblue" d="M895.925,-224.444C866.265,-215.132 818.748,-200.214 786.308,-190.029"/>
<polygon fill="midnightblue" stroke="midnightblue" points="786.936,-186.558 776.347,-186.902 784.839,-193.236 786.936,-186.558"/>
</g>
<!-- Node28&#45;&gt;Node22 -->
<g id="edge63" class="edge"><title>Node28&#45;&gt;Node22</title>
<path fill="none" stroke="midnightblue" d="M943.345,-224.368C988.479,-205.051 1097.8,-158.259 1150.63,-135.648"/>
<polygon fill="midnightblue" stroke="midnightblue" points="1152.29,-138.744 1160.11,-131.591 1149.54,-132.309 1152.29,-138.744"/>
</g>
<!-- Node30&#45;&gt;Node3 -->
<g id="edge66" class="edge"><title>Node30&#45;&gt;Node3</title>
<path fill="none" stroke="midnightblue" d="M79.6195,-56.4435C100.849,-47.5566 134.278,-33.5632 158.434,-23.4514"/>
<polygon fill="midnightblue" stroke="midnightblue" points="159.961,-26.6064 167.834,-19.5164 157.258,-20.1493 159.961,-26.6064"/>
</g>
<!-- Node30&#45;&gt;Node2 -->
<g id="edge67" class="edge"><title>Node30&#45;&gt;Node2</title>
<path fill="none" stroke="midnightblue" d="M68.6584,-56.324C77.3801,-48.3414 90.5225,-36.3128 101.077,-26.6529"/>
<polygon fill="midnightblue" stroke="midnightblue" points="103.514,-29.1674 108.527,-19.8339 98.7874,-24.0036 103.514,-29.1674"/>
</g>
<!-- Node31 -->
<g id="node31" class="node"><title>Node31</title>
<polygon fill="none" stroke="#bfbfbf" points="15.179,-0.5 15.179,-19.5 77.179,-19.5 77.179,-0.5 15.179,-0.5"/>
<text text-anchor="middle" x="46.179" y="-7.5" font-family="Helvetica,sans-Serif" font-size="10.00">sys/time.h</text>
</g>
<!-- Node30&#45;&gt;Node31 -->
<g id="edge68" class="edge"><title>Node30&#45;&gt;Node31</title>
<path fill="none" stroke="midnightblue" d="M57.0324,-56.083C55.3097,-48.9272 52.832,-38.6353 50.6788,-29.6911"/>
<polygon fill="midnightblue" stroke="midnightblue" points="54.0292,-28.6541 48.2858,-19.7511 47.2236,-30.2925 54.0292,-28.6541"/>
</g>
</g>
</svg>
        <g id="navigator" transform="translate(0 0)" fill="#404254">
                <rect fill="#f2f5e9" fill-opacity="0.5" stroke="#606060" stroke-width=".5" x="0" y="0" width="60" height="60"/>
                <use id="zoomplus" xlink:href="#zoomPlus" x="17" y="9" onmousedown="handleZoom(evt,'in')"/>
                <use id="zoomminus" xlink:href="#zoomMin" x="42" y="9" onmousedown="handleZoom(evt,'out')"/>
                <use id="reset" xlink:href="#resetDef" x="30" y="36" onmousedown="handleReset()"/>
                <g id="arrowUp" xlink:href="#dirArrow" transform="translate(30 24)" onmousedown="handlePan(0,-1)">
                  <use xlink:href="#rim" fill="#404040">
                        <set attributeName="fill" to="#808080" begin="arrowUp.mouseover" end="arrowUp.mouseout"/>
                  </use>
                  <path fill="none" stroke="white" stroke-width="1.5" d="M0,-3.0v7 M-2.5,-0.5L0,-3.0L2.5,-0.5"/>
                </g>
                <g id="arrowRight" xlink:href="#dirArrow" transform="rotate(90) translate(36 -43)" onmousedown="handlePan(1,0)">
                  <use xlink:href="#rim" fill="#404040">
                        <set attributeName="fill" to="#808080" begin="arrowRight.mouseover" end="arrowRight.mouseout"/>
                  </use>
                  <path fill="none" stroke="white" stroke-width="1.5" d="M0,-3.0v7 M-2.5,-0.5L0,-3.0L2.5,-0.5"/>
                </g>
                <g id="arrowDown" xlink:href="#dirArrow" transform="rotate(180) translate(-30 -48)" onmousedown="handlePan(0,1)">
                  <use xlink:href="#rim" fill="#404040">
                        <set attributeName="fill" to="#808080" begin="arrowDown.mouseover" end="arrowDown.mouseout"/>
                  </use>
                  <path fill="none" stroke="white" stroke-width="1.5" d="M0,-3.0v7 M-2.5,-0.5L0,-3.0L2.5,-0.5"/>
                </g>
                <g id="arrowLeft" xlink:href="#dirArrow" transform="rotate(270) translate(-36 17)" onmousedown="handlePan(-1,0)">
                  <use xlink:href="#rim" fill="#404040">
                        <set attributeName="fill" to="#808080" begin="arrowLeft.mouseover" end="arrowLeft.mouseout"/>
                  </use>
                  <path fill="none" stroke="white" stroke-width="1.5" d="M0,-3.0v7 M-2.5,-0.5L0,-3.0L2.5,-0.5"/>
                </g>
        </g>
        <svg viewBox="0 0 15 15" width="100%" height="30px" preserveAspectRatio="xMaxYMin meet">
         <g id="arrow_out" transform="scale(0.3 0.3)">
          <a xlink:href="ping__icmp_8h__incl_org.svg" target="_base">
           <rect id="button" ry="5" rx="5" y="6" x="6" height="38" width="38"
                fill="#f2f5e9" fill-opacity="0.5" stroke="#606060" stroke-width="1.0"/>
           <path id="arrow"
             d="M 11.500037,31.436501 C 11.940474,20.09759 22.043105,11.32322 32.158766,21.979434 L 37.068811,17.246167 C 37.068811,17.246167 37.088388,32 37.088388,32 L 22.160133,31.978069 C 22.160133,31.978069 26.997745,27.140456 26.997745,27.140456 C 18.528582,18.264221 13.291696,25.230495 11.500037,31.436501 z"
             style="fill:#404040;"/>
          </a>
         </g>
        </svg>
</svg>
