<?xml version="1.0" encoding="UTF-8" standalone="no"?>
<!DOCTYPE svg PUBLIC "-//W3C//DTD SVG 1.1//EN"
 "http://www.w3.org/Graphics/SVG/1.1/DTD/svg11.dtd">
<!-- Generated by graphviz version 2.30.1 (20130712.1527)
 -->
<!-- Title: include/icmp_util.h Pages: 1 -->
<!--zoomable 196 -->
<svg id="main" version="1.1" xmlns="http://www.w3.org/2000/svg" xmlns:xlink="http://www.w3.org/1999/xlink" xml:space="preserve" onload="init(evt)">
        <defs>
                <circle id="rim" cx="0" cy="0" r="7"/>
                <circle id="rim2" cx="0" cy="0" r="3.5"/>
                <g id="zoomPlus">
                        <use xlink:href="#rim" fill="#404040">
                                <set attributeName="fill" to="#808080" begin="zoomplus.mouseover" end="zoomplus.mouseout"/>
                        </use>
                        <path d="M-4,0h8M0,-4v8" fill="none" stroke="white" stroke-width="1.5" pointer-events="none"/>
                </g>
                <g id="zoomMin">
                        <use xlink:href="#rim" fill="#404040">
                                <set attributeName="fill" to="#808080" begin="zoomminus.mouseover" end="zoomminus.mouseout"/>
                        </use>
                        <path d="M-4,0h8" fill="none" stroke="white" stroke-width="1.5" pointer-events="none"/>
                </g>
                <g id="dirArrow">
                        <path fill="none" stroke="white" stroke-width="1.5" d="M0,-3.0v7 M-2.5,-0.5L0,-3.0L2.5,-0.5"/>
                </g>
               <g id="resetDef">
                       <use xlink:href="#rim2" fill="#404040">
                               <set attributeName="fill" to="#808080" begin="reset.mouseover" end="reset.mouseout"/>
                       </use>
               </g>
        </defs>

<script type="text/javascript">
var viewWidth = 933;
var viewHeight = 196;
var sectionId = 'dynsection-0';
</script>
<script xlink:href="../../svgpan.js"/>
<svg id="graph" class="graph">
<g id="viewport">
<title>include/icmp_util.h</title>
<!-- Node1 -->
<g id="node1" class="node"><title>Node1</title>
<polygon fill="#bfbfbf" stroke="black" points="338,-168.5 338,-187.5 436,-187.5 436,-168.5 338,-168.5"/>
<text text-anchor="middle" x="387" y="-175.5" font-family="Helvetica,sans-Serif" font-size="10.00">include/icmp_util.h</text>
</g>
<!-- Node2 -->
<g id="node2" class="node"><title>Node2</title>
<polygon fill="none" stroke="#bfbfbf" points="108.5,-112.5 108.5,-131.5 199.5,-131.5 199.5,-112.5 108.5,-112.5"/>
<text text-anchor="middle" x="154" y="-119.5" font-family="Helvetica,sans-Serif" font-size="10.00">netinet/ip_icmp.h</text>
</g>
<!-- Node1&#45;&gt;Node2 -->
<g id="edge1" class="edge"><title>Node1&#45;&gt;Node2</title>
<path fill="none" stroke="midnightblue" d="M350.08,-168.444C309.605,-159.063 244.579,-143.993 200.616,-133.804"/>
<polygon fill="midnightblue" stroke="midnightblue" points="201.279,-130.365 190.747,-131.516 199.698,-137.184 201.279,-130.365"/>
</g>
<!-- Node3 -->
<g id="node3" class="node"><title>Node3</title>
<polygon fill="none" stroke="#bfbfbf" points="217.5,-112.5 217.5,-131.5 300.5,-131.5 300.5,-112.5 217.5,-112.5"/>
<text text-anchor="middle" x="259" y="-119.5" font-family="Helvetica,sans-Serif" font-size="10.00">netinet/icmp6.h</text>
</g>
<!-- Node1&#45;&gt;Node3 -->
<g id="edge2" class="edge"><title>Node1&#45;&gt;Node3</title>
<path fill="none" stroke="midnightblue" d="M366.718,-168.444C345.653,-159.557 312.483,-145.563 288.514,-135.451"/>
<polygon fill="midnightblue" stroke="midnightblue" points="289.761,-132.179 279.187,-131.516 287.04,-138.628 289.761,-132.179"/>
</g>
<!-- Node4 -->
<g id="node4" class="node"><title>Node4</title>
<polygon fill="none" stroke="#bfbfbf" points="0,-56.5 0,-75.5 68,-75.5 68,-56.5 0,-56.5"/>
<text text-anchor="middle" x="34" y="-63.5" font-family="Helvetica,sans-Serif" font-size="10.00">sys/types.h</text>
</g>
<!-- Node1&#45;&gt;Node4 -->
<g id="edge3" class="edge"><title>Node1&#45;&gt;Node4</title>
<path fill="none" stroke="midnightblue" d="M379.396,-168.106C366.516,-153.695 338.879,-125.499 309,-112 216.788,-70.3395 181.786,-93.2042 78.1468,-76.0601"/>
<polygon fill="midnightblue" stroke="midnightblue" points="78.688,-72.6018 68.2358,-74.3343 77.4871,-79.498 78.688,-72.6018"/>
</g>
<!-- Node5 -->
<g id="node5" class="node"><title>Node5</title>
<polygon fill="none" stroke="#bfbfbf" points="878.5,-0.5 878.5,-19.5 925.5,-19.5 925.5,-0.5 878.5,-0.5"/>
<text text-anchor="middle" x="902" y="-7.5" font-family="Helvetica,sans-Serif" font-size="10.00">errno.h</text>
</g>
<!-- Node1&#45;&gt;Node5 -->
<g id="edge4" class="edge"><title>Node1&#45;&gt;Node5</title>
<path fill="none" stroke="midnightblue" d="M416.394,-168.452C446.691,-159.579 495.257,-145.177 537,-132 659.672,-93.2746 804.467,-44.2929 868.58,-22.435"/>
<polygon fill="midnightblue" stroke="midnightblue" points="869.828,-25.7075 878.162,-19.1655 867.567,-19.0826 869.828,-25.7075"/>
</g>
<!-- Node6 -->
<g id="node6" class="node"><title>Node6</title>
<g id="a_node6"><a xlink:href="../../d3/d5a/base_8h.html" target="_top" xlink:title="Fonctions et inclusions de base. (header)">
<polygon fill="none" stroke="black" points="637,-56.5 637,-75.5 683,-75.5 683,-56.5 637,-56.5"/>
<text text-anchor="middle" x="660" y="-63.5" font-family="Helvetica,sans-Serif" font-size="10.00">base.h</text>
</a>
</g>
</g>
<!-- Node1&#45;&gt;Node6 -->
<g id="edge5" class="edge"><title>Node1&#45;&gt;Node6</title>
<path fill="none" stroke="midnightblue" d="M408.475,-168.384C431.024,-159.334 467.511,-144.683 499,-132 544.484,-113.681 597.172,-92.3974 629.544,-79.3137"/>
<polygon fill="midnightblue" stroke="midnightblue" points="630.947,-82.5214 638.907,-75.5289 628.324,-76.0315 630.947,-82.5214"/>
</g>
<!-- Node13 -->
<g id="node13" class="node"><title>Node13</title>
<g id="a_node13"><a xlink:href="../../dc/d31/checksum_8h.html" target="_top" xlink:title="Internet Checksum. (header)">
<polygon fill="none" stroke="black" points="549,-56.5 549,-75.5 619,-75.5 619,-56.5 549,-56.5"/>
<text text-anchor="middle" x="584" y="-63.5" font-family="Helvetica,sans-Serif" font-size="10.00">checksum.h</text>
</a>
</g>
</g>
<!-- Node1&#45;&gt;Node13 -->
<g id="edge13" class="edge"><title>Node1&#45;&gt;Node13</title>
<path fill="none" stroke="midnightblue" d="M402.458,-168.368C436.623,-149.292 518.771,-103.422 559.813,-80.5054"/>
<polygon fill="midnightblue" stroke="midnightblue" points="561.589,-83.5226 568.614,-75.5914 558.176,-77.4108 561.589,-83.5226"/>
</g>
<!-- Node14 -->
<g id="node14" class="node"><title>Node14</title>
<g id="a_node14"><a xlink:href="../../d9/d9b/address_8h.html" target="_top" xlink:title="Utilitaires pour obtenir des addresses. (header)">
<polygon fill="none" stroke="black" points="357.5,-112.5 357.5,-131.5 416.5,-131.5 416.5,-112.5 357.5,-112.5"/>
<text text-anchor="middle" x="387" y="-119.5" font-family="Helvetica,sans-Serif" font-size="10.00">address.h</text>
</a>
</g>
</g>
<!-- Node1&#45;&gt;Node14 -->
<g id="edge16" class="edge"><title>Node1&#45;&gt;Node14</title>
<path fill="none" stroke="midnightblue" d="M387,-168.083C387,-161.006 387,-150.861 387,-141.986"/>
<polygon fill="midnightblue" stroke="midnightblue" points="390.5,-141.751 387,-131.751 383.5,-141.751 390.5,-141.751"/>
</g>
<!-- Node7 -->
<g id="node7" class="node"><title>Node7</title>
<polygon fill="none" stroke="#bfbfbf" points="524,-0.5 524,-19.5 572,-19.5 572,-0.5 524,-0.5"/>
<text text-anchor="middle" x="548" y="-7.5" font-family="Helvetica,sans-Serif" font-size="10.00">stdlib.h</text>
</g>
<!-- Node6&#45;&gt;Node7 -->
<g id="edge6" class="edge"><title>Node6&#45;&gt;Node7</title>
<path fill="none" stroke="midnightblue" d="M642.005,-56.324C623.962,-47.6247 595.953,-34.1202 575.197,-24.113"/>
<polygon fill="midnightblue" stroke="midnightblue" points="576.478,-20.8449 565.95,-19.6545 573.438,-27.1502 576.478,-20.8449"/>
</g>
<!-- Node8 -->
<g id="node8" class="node"><title>Node8</title>
<polygon fill="none" stroke="#bfbfbf" points="460,-0.5 460,-19.5 506,-19.5 506,-0.5 460,-0.5"/>
<text text-anchor="middle" x="483" y="-7.5" font-family="Helvetica,sans-Serif" font-size="10.00">stdio.h</text>
</g>
<!-- Node6&#45;&gt;Node8 -->
<g id="edge7" class="edge"><title>Node6&#45;&gt;Node8</title>
<path fill="none" stroke="midnightblue" d="M636.86,-57.9404C605.986,-48.5212 551.133,-31.7865 515.948,-21.052"/>
<polygon fill="midnightblue" stroke="midnightblue" points="516.731,-17.6318 506.145,-18.0613 514.689,-24.3271 516.731,-17.6318"/>
</g>
<!-- Node9 -->
<g id="node9" class="node"><title>Node9</title>
<polygon fill="none" stroke="#bfbfbf" points="804,-0.5 804,-19.5 860,-19.5 860,-0.5 804,-0.5"/>
<text text-anchor="middle" x="832" y="-7.5" font-family="Helvetica,sans-Serif" font-size="10.00">stdbool.h</text>
</g>
<!-- Node6&#45;&gt;Node9 -->
<g id="edge8" class="edge"><title>Node6&#45;&gt;Node9</title>
<path fill="none" stroke="midnightblue" d="M683.197,-57.7173C711.906,-48.7038 761.148,-33.2443 795.074,-22.5929"/>
<polygon fill="midnightblue" stroke="midnightblue" points="796.147,-25.9248 804.639,-19.59 794.05,-19.2462 796.147,-25.9248"/>
</g>
<!-- Node10 -->
<g id="node10" class="node"><title>Node10</title>
<polygon fill="none" stroke="#bfbfbf" points="590,-0.5 590,-19.5 652,-19.5 652,-0.5 590,-0.5"/>
<text text-anchor="middle" x="621" y="-7.5" font-family="Helvetica,sans-Serif" font-size="10.00">sysexits.h</text>
</g>
<!-- Node6&#45;&gt;Node10 -->
<g id="edge9" class="edge"><title>Node6&#45;&gt;Node10</title>
<path fill="none" stroke="midnightblue" d="M653.56,-56.083C648.051,-48.4554 639.969,-37.2645 633.235,-27.9408"/>
<polygon fill="midnightblue" stroke="midnightblue" points="636.013,-25.8087 627.32,-19.7511 630.338,-29.9071 636.013,-25.8087"/>
</g>
<!-- Node6&#45;&gt;Node5 -->
<g id="edge10" class="edge"><title>Node6&#45;&gt;Node5</title>
<path fill="none" stroke="midnightblue" d="M683.289,-60.4146C720.328,-53.0303 795.135,-37.7426 868.392,-20.0416"/>
<polygon fill="midnightblue" stroke="midnightblue" points="869.358,-23.4088 878.247,-17.6433 867.703,-16.6074 869.358,-23.4088"/>
</g>
<!-- Node11 -->
<g id="node11" class="node"><title>Node11</title>
<polygon fill="none" stroke="#bfbfbf" points="670.5,-0.5 670.5,-19.5 719.5,-19.5 719.5,-0.5 670.5,-0.5"/>
<text text-anchor="middle" x="695" y="-7.5" font-family="Helvetica,sans-Serif" font-size="10.00">string.h</text>
</g>
<!-- Node6&#45;&gt;Node11 -->
<g id="edge11" class="edge"><title>Node6&#45;&gt;Node11</title>
<path fill="none" stroke="midnightblue" d="M665.78,-56.083C670.672,-48.5341 677.827,-37.4948 683.833,-28.2298"/>
<polygon fill="midnightblue" stroke="midnightblue" points="686.826,-30.0463 689.328,-19.7511 680.952,-26.239 686.826,-30.0463"/>
</g>
<!-- Node12 -->
<g id="node12" class="node"><title>Node12</title>
<polygon fill="none" stroke="#bfbfbf" points="738,-0.5 738,-19.5 786,-19.5 786,-0.5 738,-0.5"/>
<text text-anchor="middle" x="762" y="-7.5" font-family="Helvetica,sans-Serif" font-size="10.00">limits.h</text>
</g>
<!-- Node6&#45;&gt;Node12 -->
<g id="edge12" class="edge"><title>Node6&#45;&gt;Node12</title>
<path fill="none" stroke="midnightblue" d="M676.388,-56.324C692.671,-47.7034 717.867,-34.3643 736.716,-24.3855"/>
<polygon fill="midnightblue" stroke="midnightblue" points="738.452,-27.4267 745.653,-19.6545 735.177,-21.2402 738.452,-27.4267"/>
</g>
<!-- Node13&#45;&gt;Node7 -->
<g id="edge14" class="edge"><title>Node13&#45;&gt;Node7</title>
<path fill="none" stroke="midnightblue" d="M578.055,-56.083C573.023,-48.5341 565.663,-37.4948 559.487,-28.2298"/>
<polygon fill="midnightblue" stroke="midnightblue" points="562.293,-26.1301 553.834,-19.7511 556.469,-30.0131 562.293,-26.1301"/>
</g>
<!-- Node13&#45;&gt;Node8 -->
<g id="edge15" class="edge"><title>Node13&#45;&gt;Node8</title>
<path fill="none" stroke="midnightblue" d="M567.773,-56.324C551.649,-47.7034 526.7,-34.3643 508.036,-24.3855"/>
<polygon fill="midnightblue" stroke="midnightblue" points="509.656,-21.283 499.187,-19.6545 506.356,-27.456 509.656,-21.283"/>
</g>
<!-- Node14&#45;&gt;Node4 -->
<g id="edge17" class="edge"><title>Node14&#45;&gt;Node4</title>
<path fill="none" stroke="midnightblue" d="M357.229,-114.628C352.48,-113.693 347.612,-112.783 343,-112 228.599,-92.581 196.322,-96.0216 78.3789,-76.1287"/>
<polygon fill="midnightblue" stroke="midnightblue" points="78.6717,-72.6281 68.2251,-74.3946 77.4932,-79.5282 78.6717,-72.6281"/>
</g>
<!-- Node15 -->
<g id="node15" class="node"><title>Node15</title>
<polygon fill="none" stroke="#bfbfbf" points="86.5,-56.5 86.5,-75.5 159.5,-75.5 159.5,-56.5 86.5,-56.5"/>
<text text-anchor="middle" x="123" y="-63.5" font-family="Helvetica,sans-Serif" font-size="10.00">sys/socket.h</text>
</g>
<!-- Node14&#45;&gt;Node15 -->
<g id="edge18" class="edge"><title>Node14&#45;&gt;Node15</title>
<path fill="none" stroke="midnightblue" d="M357.484,-114.963C311.979,-105.655 224.278,-87.716 169.982,-76.61"/>
<polygon fill="midnightblue" stroke="midnightblue" points="170.419,-73.127 159.921,-74.552 169.017,-79.985 170.419,-73.127"/>
</g>
<!-- Node16 -->
<g id="node16" class="node"><title>Node16</title>
<polygon fill="none" stroke="#bfbfbf" points="177.5,-56.5 177.5,-75.5 226.5,-75.5 226.5,-56.5 177.5,-56.5"/>
<text text-anchor="middle" x="202" y="-63.5" font-family="Helvetica,sans-Serif" font-size="10.00">netdb.h</text>
</g>
<!-- Node14&#45;&gt;Node16 -->
<g id="edge19" class="edge"><title>Node14&#45;&gt;Node16</title>
<path fill="none" stroke="midnightblue" d="M357.686,-112.444C324.767,-102.835 271.395,-87.2558 236.494,-77.0686"/>
<polygon fill="midnightblue" stroke="midnightblue" points="237.316,-73.6626 226.736,-74.2203 235.355,-80.3822 237.316,-73.6626"/>
</g>
<!-- Node17 -->
<g id="node17" class="node"><title>Node17</title>
<polygon fill="none" stroke="#bfbfbf" points="244.5,-56.5 244.5,-75.5 295.5,-75.5 295.5,-56.5 244.5,-56.5"/>
<text text-anchor="middle" x="270" y="-63.5" font-family="Helvetica,sans-Serif" font-size="10.00">unistd.h</text>
</g>
<!-- Node14&#45;&gt;Node17 -->
<g id="edge20" class="edge"><title>Node14&#45;&gt;Node17</title>
<path fill="none" stroke="midnightblue" d="M368.461,-112.444C349.377,-103.636 319.425,-89.8116 297.564,-79.722"/>
<polygon fill="midnightblue" stroke="midnightblue" points="298.999,-76.5292 288.452,-75.5164 296.065,-82.8849 298.999,-76.5292"/>
</g>
<!-- Node18 -->
<g id="node18" class="node"><title>Node18</title>
<polygon fill="none" stroke="#bfbfbf" points="313.5,-56.5 313.5,-75.5 378.5,-75.5 378.5,-56.5 313.5,-56.5"/>
<text text-anchor="middle" x="346" y="-63.5" font-family="Helvetica,sans-Serif" font-size="10.00">netinet/in.h</text>
</g>
<!-- Node14&#45;&gt;Node18 -->
<g id="edge21" class="edge"><title>Node14&#45;&gt;Node18</title>
<path fill="none" stroke="midnightblue" d="M380.23,-112.083C374.438,-104.455 365.942,-93.2645 358.862,-83.9408"/>
<polygon fill="midnightblue" stroke="midnightblue" points="361.479,-81.5991 352.644,-75.7511 355.904,-85.8321 361.479,-81.5991"/>
</g>
<!-- Node19 -->
<g id="node19" class="node"><title>Node19</title>
<polygon fill="none" stroke="#bfbfbf" points="397,-56.5 397,-75.5 459,-75.5 459,-56.5 397,-56.5"/>
<text text-anchor="middle" x="428" y="-63.5" font-family="Helvetica,sans-Serif" font-size="10.00">arpa/inet.h</text>
</g>
<!-- Node14&#45;&gt;Node19 -->
<g id="edge22" class="edge"><title>Node14&#45;&gt;Node19</title>
<path fill="none" stroke="midnightblue" d="M393.77,-112.083C399.562,-104.455 408.058,-93.2645 415.138,-83.9408"/>
<polygon fill="midnightblue" stroke="midnightblue" points="418.096,-85.8321 421.356,-75.7511 412.521,-81.5991 418.096,-85.8321"/>
</g>
<!-- Node20 -->
<g id="node20" class="node"><title>Node20</title>
<polygon fill="none" stroke="#bfbfbf" points="477,-56.5 477,-75.5 531,-75.5 531,-56.5 477,-56.5"/>
<text text-anchor="middle" x="504" y="-63.5" font-family="Helvetica,sans-Serif" font-size="10.00">ifaddrs.h</text>
</g>
<!-- Node14&#45;&gt;Node20 -->
<g id="edge23" class="edge"><title>Node14&#45;&gt;Node20</title>
<path fill="none" stroke="midnightblue" d="M405.539,-112.444C424.623,-103.636 454.575,-89.8116 476.436,-79.722"/>
<polygon fill="midnightblue" stroke="midnightblue" points="477.935,-82.8849 485.548,-75.5164 475.001,-76.5292 477.935,-82.8849"/>
</g>
<!-- Node14&#45;&gt;Node6 -->
<g id="edge24" class="edge"><title>Node14&#45;&gt;Node6</title>
<path fill="none" stroke="midnightblue" d="M416.86,-116.309C460.793,-109.216 545.601,-94.798 627.075,-76.0452"/>
<polygon fill="midnightblue" stroke="midnightblue" points="628.046,-79.413 636.992,-73.7369 626.459,-72.5952 628.046,-79.413"/>
</g>
</g>
</svg>
        <g id="navigator" transform="translate(0 0)" fill="#404254">
                <rect fill="#f2f5e9" fill-opacity="0.5" stroke="#606060" stroke-width=".5" x="0" y="0" width="60" height="60"/>
                <use id="zoomplus" xlink:href="#zoomPlus" x="17" y="9" onmousedown="handleZoom(evt,'in')"/>
                <use id="zoomminus" xlink:href="#zoomMin" x="42" y="9" onmousedown="handleZoom(evt,'out')"/>
                <use id="reset" xlink:href="#resetDef" x="30" y="36" onmousedown="handleReset()"/>
                <g id="arrowUp" xlink:href="#dirArrow" transform="translate(30 24)" onmousedown="handlePan(0,-1)">
                  <use xlink:href="#rim" fill="#404040">
                        <set attributeName="fill" to="#808080" begin="arrowUp.mouseover" end="arrowUp.mouseout"/>
                  </use>
                  <path fill="none" stroke="white" stroke-width="1.5" d="M0,-3.0v7 M-2.5,-0.5L0,-3.0L2.5,-0.5"/>
                </g>
                <g id="arrowRight" xlink:href="#dirArrow" transform="rotate(90) translate(36 -43)" onmousedown="handlePan(1,0)">
                  <use xlink:href="#rim" fill="#404040">
                        <set attributeName="fill" to="#808080" begin="arrowRight.mouseover" end="arrowRight.mouseout"/>
                  </use>
                  <path fill="none" stroke="white" stroke-width="1.5" d="M0,-3.0v7 M-2.5,-0.5L0,-3.0L2.5,-0.5"/>
                </g>
                <g id="arrowDown" xlink:href="#dirArrow" transform="rotate(180) translate(-30 -48)" onmousedown="handlePan(0,1)">
                  <use xlink:href="#rim" fill="#404040">
                        <set attributeName="fill" to="#808080" begin="arrowDown.mouseover" end="arrowDown.mouseout"/>
                  </use>
                  <path fill="none" stroke="white" stroke-width="1.5" d="M0,-3.0v7 M-2.5,-0.5L0,-3.0L2.5,-0.5"/>
                </g>
                <g id="arrowLeft" xlink:href="#dirArrow" transform="rotate(270) translate(-36 17)" onmousedown="handlePan(-1,0)">
                  <use xlink:href="#rim" fill="#404040">
                        <set attributeName="fill" to="#808080" begin="arrowLeft.mouseover" end="arrowLeft.mouseout"/>
                  </use>
                  <path fill="none" stroke="white" stroke-width="1.5" d="M0,-3.0v7 M-2.5,-0.5L0,-3.0L2.5,-0.5"/>
                </g>
        </g>
        <svg viewBox="0 0 15 15" width="100%" height="30px" preserveAspectRatio="xMaxYMin meet">
         <g id="arrow_out" transform="scale(0.3 0.3)">
          <a xlink:href="icmp__util_8h__incl_org.svg" target="_base">
           <rect id="button" ry="5" rx="5" y="6" x="6" height="38" width="38"
                fill="#f2f5e9" fill-opacity="0.5" stroke="#606060" stroke-width="1.0"/>
           <path id="arrow"
             d="M 11.500037,31.436501 C 11.940474,20.09759 22.043105,11.32322 32.158766,21.979434 L 37.068811,17.246167 C 37.068811,17.246167 37.088388,32 37.088388,32 L 22.160133,31.978069 C 22.160133,31.978069 26.997745,27.140456 26.997745,27.140456 C 18.528582,18.264221 13.291696,25.230495 11.500037,31.436501 z"
             style="fill:#404040;"/>
          </a>
         </g>
        </svg>
</svg>
