<?xml version="1.0" encoding="UTF-8" standalone="no"?>
<!DOCTYPE svg PUBLIC "-//W3C//DTD SVG 1.1//EN"
 "http://www.w3.org/Graphics/SVG/1.1/DTD/svg11.dtd">
<!-- Generated by graphviz version 2.30.1 (20130712.1527)
 -->
<!-- Title: include/checksum.h Pages: 1 -->
<svg width="120pt" height="84pt"
 viewBox="0.00 0.00 120.00 84.00" xmlns="http://www.w3.org/2000/svg" xmlns:xlink="http://www.w3.org/1999/xlink">
<g id="graph0" class="graph" transform="scale(1 1) rotate(0) translate(4 80)">
<title>include/checksum.h</title>
<!-- Node1 -->
<g id="node1" class="node"><title>Node1</title>
<polygon fill="#bfbfbf" stroke="black" points="4,-56.5 4,-75.5 108,-75.5 108,-56.5 4,-56.5"/>
<text text-anchor="middle" x="56" y="-63.5" font-family="Helvetica,sans-Serif" font-size="10.00">include/checksum.h</text>
</g>
<!-- Node2 -->
<g id="node2" class="node"><title>Node2</title>
<polygon fill="none" stroke="#bfbfbf" points="0,-0.5 0,-19.5 48,-19.5 48,-0.5 0,-0.5"/>
<text text-anchor="middle" x="24" y="-7.5" font-family="Helvetica,sans-Serif" font-size="10.00">stdlib.h</text>
</g>
<!-- Node1&#45;&gt;Node2 -->
<g id="edge1" class="edge"><title>Node1&#45;&gt;Node2</title>
<path fill="none" stroke="midnightblue" d="M50.7159,-56.083C46.289,-48.6127 39.8367,-37.7244 34.3821,-28.5199"/>
<polygon fill="midnightblue" stroke="midnightblue" points="37.2949,-26.5697 29.1858,-19.7511 31.2729,-30.1383 37.2949,-26.5697"/>
</g>
<!-- Node3 -->
<g id="node3" class="node"><title>Node3</title>
<polygon fill="none" stroke="#bfbfbf" points="66,-0.5 66,-19.5 112,-19.5 112,-0.5 66,-0.5"/>
<text text-anchor="middle" x="89" y="-7.5" font-family="Helvetica,sans-Serif" font-size="10.00">stdio.h</text>
</g>
<!-- Node1&#45;&gt;Node3 -->
<g id="edge2" class="edge"><title>Node1&#45;&gt;Node3</title>
<path fill="none" stroke="midnightblue" d="M61.4493,-56.083C66.0145,-48.6127 72.6684,-37.7244 78.2934,-28.5199"/>
<polygon fill="midnightblue" stroke="midnightblue" points="81.4241,-30.109 83.6521,-19.7511 75.4511,-26.4588 81.4241,-30.109"/>
</g>
</g>
</svg>
