<?xml version="1.0" encoding="UTF-8" standalone="no"?>
<!DOCTYPE svg PUBLIC "-//W3C//DTD SVG 1.1//EN"
 "http://www.w3.org/Graphics/SVG/1.1/DTD/svg11.dtd">
<!-- Generated by graphviz version 2.30.1 (20130712.1527)
 -->
<!-- Title: fake_ip6_hdr::fake_ip6_hdr_set_zeros Pages: 1 -->
<svg width="400pt" height="38pt"
 viewBox="0.00 0.00 400.00 38.00" xmlns="http://www.w3.org/2000/svg" xmlns:xlink="http://www.w3.org/1999/xlink">
<g id="graph0" class="graph" transform="scale(1 1) rotate(0) translate(4 34)">
<title>fake_ip6_hdr::fake_ip6_hdr_set_zeros</title>
<!-- Node1 -->
<g id="node1" class="node"><title>Node1</title>
<polygon fill="#bfbfbf" stroke="black" points="0.5,-0 0.5,-30 101.5,-30 101.5,-0 0.5,-0"/>
<text text-anchor="start" x="8.5" y="-18" font-family="Helvetica,sans-Serif" font-size="10.00">fake_ip6_hdr::fake</text>
<text text-anchor="middle" x="51" y="-7" font-family="Helvetica,sans-Serif" font-size="10.00">_ip6_hdr_set_zeros</text>
</g>
<!-- Node2 -->
<g id="node2" class="node"><title>Node2</title>
<g id="a_node2"><a xlink:href="../../da/d7b/ip__util_8c_a4ba1e2ac83002b70221c514724ec901f.html#a4ba1e2ac83002b70221c514724ec901f" target="_top" xlink:title="Initialiser un pseudo header IPv6.">
<polygon fill="none" stroke="black" points="138,-5.5 138,-24.5 228,-24.5 228,-5.5 138,-5.5"/>
<text text-anchor="middle" x="183" y="-12.5" font-family="Helvetica,sans-Serif" font-size="10.00">fake_ip6_hdr_init</text>
</a>
</g>
</g>
<!-- Node1&#45;&gt;Node2 -->
<g id="edge1" class="edge"><title>Node1&#45;&gt;Node2</title>
<path fill="none" stroke="midnightblue" d="M111.705,-15C120.465,-15 129.355,-15 137.731,-15"/>
<polygon fill="midnightblue" stroke="midnightblue" points="111.518,-11.5001 101.518,-15 111.518,-18.5001 111.518,-11.5001"/>
</g>
<!-- Node3 -->
<g id="node3" class="node"><title>Node3</title>
<g id="a_node3"><a xlink:href="../../de/df3/packet_8c_a56693b0f5270e1406a1da4f5a9907e14.html#a56693b0f5270e1406a1da4f5a9907e14" target="_top" xlink:title="Checksum d&#39;un paquet IPv6+ICMP.">
<polygon fill="none" stroke="black" points="264,-5.5 264,-24.5 392,-24.5 392,-5.5 264,-5.5"/>
<text text-anchor="middle" x="328" y="-12.5" font-family="Helvetica,sans-Serif" font-size="10.00">icmp6_packet_checksum</text>
</a>
</g>
</g>
<!-- Node2&#45;&gt;Node3 -->
<g id="edge2" class="edge"><title>Node2&#45;&gt;Node3</title>
<path fill="none" stroke="midnightblue" d="M238.13,-15C246.542,-15 255.296,-15 263.886,-15"/>
<polygon fill="midnightblue" stroke="midnightblue" points="238.072,-11.5001 228.072,-15 238.072,-18.5001 238.072,-11.5001"/>
</g>
</g>
</svg>
