<?xml version="1.0" encoding="UTF-8" standalone="no"?>
<!DOCTYPE svg PUBLIC "-//W3C//DTD SVG 1.1//EN"
 "http://www.w3.org/Graphics/SVG/1.1/DTD/svg11.dtd">
<!-- Generated by graphviz version 2.30.1 (20130712.1527)
 -->
<!-- Title: include/traceroute.h Pages: 1 -->
<svg width="355pt" height="140pt"
 viewBox="0.00 0.00 355.00 140.00" xmlns="http://www.w3.org/2000/svg" xmlns:xlink="http://www.w3.org/1999/xlink">
<g id="graph0" class="graph" transform="scale(1 1) rotate(0) translate(4 136)">
<title>include/traceroute.h</title>
<!-- Node1 -->
<g id="node1" class="node"><title>Node1</title>
<polygon fill="#bfbfbf" stroke="black" points="121,-112.5 121,-131.5 223,-131.5 223,-112.5 121,-112.5"/>
<text text-anchor="middle" x="172" y="-119.5" font-family="Helvetica,sans-Serif" font-size="10.00">include/traceroute.h</text>
</g>
<!-- Node2 -->
<g id="node2" class="node"><title>Node2</title>
<g id="a_node2"><a xlink:href="../../d9/d8d/anna_8h.html" target="_top" xlink:title="Anna. (implémentation)">
<polygon fill="none" stroke="black" points="31,-56.5 31,-75.5 111,-75.5 111,-56.5 31,-56.5"/>
<text text-anchor="middle" x="71" y="-63.5" font-family="Helvetica,sans-Serif" font-size="10.00">include/anna.h</text>
</a>
</g>
</g>
<!-- Node1&#45;&gt;Node2 -->
<g id="edge1" class="edge"><title>Node1&#45;&gt;Node2</title>
<path fill="none" stroke="midnightblue" d="M146.917,-107.59C128.243,-97.6052 103.296,-84.2672 87.1871,-75.6545"/>
<polygon fill="midnightblue" stroke="midnightblue" points="145.304,-110.696 155.773,-112.324 148.604,-104.522 145.304,-110.696"/>
</g>
<!-- Node5 -->
<g id="node5" class="node"><title>Node5</title>
<g id="a_node5"><a xlink:href="../../d1/d4c/traceroute_8c.html" target="_top" xlink:title="Traceroute (implémentation)">
<polygon fill="none" stroke="black" points="129.5,-56.5 129.5,-75.5 214.5,-75.5 214.5,-56.5 129.5,-56.5"/>
<text text-anchor="middle" x="172" y="-63.5" font-family="Helvetica,sans-Serif" font-size="10.00">src/traceroute.c</text>
</a>
</g>
</g>
<!-- Node1&#45;&gt;Node5 -->
<g id="edge4" class="edge"><title>Node1&#45;&gt;Node5</title>
<path fill="none" stroke="midnightblue" d="M172,-101.805C172,-92.9102 172,-82.7798 172,-75.7511"/>
<polygon fill="midnightblue" stroke="midnightblue" points="168.5,-102.083 172,-112.083 175.5,-102.083 168.5,-102.083"/>
</g>
<!-- Node6 -->
<g id="node6" class="node"><title>Node6</title>
<g id="a_node6"><a xlink:href="../../de/d12/test__traceroute_8c_source.html" target="_top" xlink:title="tests/test_traceroute.c">
<polygon fill="none" stroke="black" points="232.5,-56.5 232.5,-75.5 347.5,-75.5 347.5,-56.5 232.5,-56.5"/>
<text text-anchor="middle" x="290" y="-63.5" font-family="Helvetica,sans-Serif" font-size="10.00">tests/test_traceroute.c</text>
</a>
</g>
</g>
<!-- Node1&#45;&gt;Node6 -->
<g id="edge5" class="edge"><title>Node1&#45;&gt;Node6</title>
<path fill="none" stroke="midnightblue" d="M199.9,-108.232C221.973,-98.1312 252.176,-84.3091 271.39,-75.5164"/>
<polygon fill="midnightblue" stroke="midnightblue" points="198.334,-105.1 190.697,-112.444 201.247,-111.465 198.334,-105.1"/>
</g>
<!-- Node3 -->
<g id="node3" class="node"><title>Node3</title>
<g id="a_node3"><a xlink:href="../../d2/da0/anna_8c.html" target="_top" xlink:title="Anna. (implémentation)">
<polygon fill="none" stroke="black" points="0,-0.5 0,-19.5 62,-19.5 62,-0.5 0,-0.5"/>
<text text-anchor="middle" x="31" y="-7.5" font-family="Helvetica,sans-Serif" font-size="10.00">src/anna.c</text>
</a>
</g>
</g>
<!-- Node2&#45;&gt;Node3 -->
<g id="edge2" class="edge"><title>Node2&#45;&gt;Node3</title>
<path fill="none" stroke="midnightblue" d="M58.3003,-47.8554C51.374,-38.5048 43.0937,-27.3265 37.4823,-19.7511"/>
<polygon fill="midnightblue" stroke="midnightblue" points="55.63,-50.1307 64.3948,-56.083 61.255,-45.9641 55.63,-50.1307"/>
</g>
<!-- Node4 -->
<g id="node4" class="node"><title>Node4</title>
<g id="a_node4"><a xlink:href="../../d0/d29/main_8c.html" target="_top" xlink:title="Main. (implémentation)">
<polygon fill="none" stroke="black" points="80,-0.5 80,-19.5 142,-19.5 142,-0.5 80,-0.5"/>
<text text-anchor="middle" x="111" y="-7.5" font-family="Helvetica,sans-Serif" font-size="10.00">src/main.c</text>
</a>
</g>
</g>
<!-- Node2&#45;&gt;Node4 -->
<g id="edge3" class="edge"><title>Node2&#45;&gt;Node4</title>
<path fill="none" stroke="midnightblue" d="M83.6997,-47.8554C90.626,-38.5048 98.9063,-27.3265 104.518,-19.7511"/>
<polygon fill="midnightblue" stroke="midnightblue" points="80.745,-45.9641 77.6052,-56.083 86.37,-50.1307 80.745,-45.9641"/>
</g>
</g>
</svg>
