<?xml version="1.0" encoding="UTF-8" standalone="no"?>
<!DOCTYPE svg PUBLIC "-//W3C//DTD SVG 1.1//EN"
 "http://www.w3.org/Graphics/SVG/1.1/DTD/svg11.dtd">
<!-- Generated by graphviz version 2.30.1 (20130712.1527)
 -->
<!-- Title: icmp_print Pages: 1 -->
<svg width="234pt" height="116pt"
 viewBox="0.00 0.00 234.00 116.00" xmlns="http://www.w3.org/2000/svg" xmlns:xlink="http://www.w3.org/1999/xlink">
<g id="graph0" class="graph" transform="scale(1 1) rotate(0) translate(4 112)">
<title>icmp_print</title>
<!-- Node1 -->
<g id="node1" class="node"><title>Node1</title>
<polygon fill="#bfbfbf" stroke="black" points="0,-44.5 0,-63.5 62,-63.5 62,-44.5 0,-44.5"/>
<text text-anchor="middle" x="31" y="-51.5" font-family="Helvetica,sans-Serif" font-size="10.00">icmp_print</text>
</g>
<!-- Node2 -->
<g id="node2" class="node"><title>Node2</title>
<g id="a_node2"><a xlink:href="../../de/df3/packet_8c_ab5510311e6fecab65716eea22ce3a941.html#ab5510311e6fecab65716eea22ce3a941" target="_top" xlink:title="Afficher un paquet.">
<polygon fill="none" stroke="black" points="111.5,-88.5 111.5,-107.5 212.5,-107.5 212.5,-88.5 111.5,-88.5"/>
<text text-anchor="middle" x="162" y="-95.5" font-family="Helvetica,sans-Serif" font-size="10.00">icmp4_packet_print</text>
</a>
</g>
</g>
<!-- Node1&#45;&gt;Node2 -->
<g id="edge1" class="edge"><title>Node1&#45;&gt;Node2</title>
<path fill="none" stroke="midnightblue" d="M67.1846,-67.0997C77.1194,-70.7153 87.9584,-74.582 98,-78 108.429,-81.5498 119.895,-85.2498 130.155,-88.4881"/>
<polygon fill="midnightblue" stroke="midnightblue" points="68.2081,-63.7472 57.6144,-63.5936 65.8001,-70.32 68.2081,-63.7472"/>
</g>
<!-- Node3 -->
<g id="node3" class="node"><title>Node3</title>
<g id="a_node3"><a xlink:href="../../de/df3/packet_8c_af1dcd3182fecbb0714e99719d9466ff7.html#af1dcd3182fecbb0714e99719d9466ff7" target="_top" xlink:title="Afficher un pseudo paquet IPv6+ICMPv6.">
<polygon fill="none" stroke="black" points="98,-39 98,-69 226,-69 226,-39 98,-39"/>
<text text-anchor="start" x="106" y="-57" font-family="Helvetica,sans-Serif" font-size="10.00">icmp6_checksum_packet</text>
<text text-anchor="middle" x="162" y="-46" font-family="Helvetica,sans-Serif" font-size="10.00">_print</text>
</a>
</g>
</g>
<!-- Node1&#45;&gt;Node3 -->
<g id="edge2" class="edge"><title>Node1&#45;&gt;Node3</title>
<path fill="none" stroke="midnightblue" d="M72.4902,-54C80.5811,-54 89.2601,-54 97.9053,-54"/>
<polygon fill="midnightblue" stroke="midnightblue" points="72.2448,-50.5001 62.2448,-54 72.2447,-57.5001 72.2448,-50.5001"/>
</g>
<!-- Node4 -->
<g id="node4" class="node"><title>Node4</title>
<g id="a_node4"><a xlink:href="../../de/df3/packet_8c_adf938a45656c566ff1bf5c119d045a70.html#adf938a45656c566ff1bf5c119d045a70" target="_top" xlink:title="Afficher un paquet.">
<polygon fill="none" stroke="black" points="111.5,-0.5 111.5,-19.5 212.5,-19.5 212.5,-0.5 111.5,-0.5"/>
<text text-anchor="middle" x="162" y="-7.5" font-family="Helvetica,sans-Serif" font-size="10.00">icmp6_packet_print</text>
</a>
</g>
</g>
<!-- Node1&#45;&gt;Node4 -->
<g id="edge3" class="edge"><title>Node1&#45;&gt;Node4</title>
<path fill="none" stroke="midnightblue" d="M67.1846,-40.9003C77.1194,-37.2847 87.9584,-33.418 98,-30 108.429,-26.4502 119.895,-22.7502 130.155,-19.5119"/>
<polygon fill="midnightblue" stroke="midnightblue" points="65.8001,-37.68 57.6144,-44.4064 68.2081,-44.2528 65.8001,-37.68"/>
</g>
</g>
</svg>
