<?xml version="1.0" encoding="UTF-8" standalone="no"?>
<!DOCTYPE svg PUBLIC "-//W3C//DTD SVG 1.1//EN"
 "http://www.w3.org/Graphics/SVG/1.1/DTD/svg11.dtd">
<!-- Generated by graphviz version 2.30.1 (20130712.1527)
 -->
<!-- Title: include/anna.h Pages: 1 -->
<svg width="1264pt" height="420pt"
 viewBox="0.00 0.00 1264.00 420.00" xmlns="http://www.w3.org/2000/svg" xmlns:xlink="http://www.w3.org/1999/xlink">
<g id="graph0" class="graph" transform="scale(1 1) rotate(0) translate(4 416)">
<title>include/anna.h</title>
<!-- Node1 -->
<g id="node1" class="node"><title>Node1</title>
<polygon fill="#bfbfbf" stroke="black" points="100,-392.5 100,-411.5 180,-411.5 180,-392.5 100,-392.5"/>
<text text-anchor="middle" x="140" y="-399.5" font-family="Helvetica,sans-Serif" font-size="10.00">include/anna.h</text>
</g>
<!-- Node2 -->
<g id="node2" class="node"><title>Node2</title>
<polygon fill="none" stroke="#bfbfbf" points="0,-336.5 0,-355.5 50,-355.5 50,-336.5 0,-336.5"/>
<text text-anchor="middle" x="25" y="-343.5" font-family="Helvetica,sans-Serif" font-size="10.00">signal.h</text>
</g>
<!-- Node1&#45;&gt;Node2 -->
<g id="edge1" class="edge"><title>Node1&#45;&gt;Node2</title>
<path fill="none" stroke="midnightblue" d="M121.778,-392.444C103.104,-383.675 73.844,-369.935 52.3826,-359.858"/>
<polygon fill="midnightblue" stroke="midnightblue" points="53.6763,-356.599 43.1368,-355.516 50.7009,-362.935 53.6763,-356.599"/>
</g>
<!-- Node3 -->
<g id="node3" class="node"><title>Node3</title>
<polygon fill="none" stroke="#bfbfbf" points="68,-336.5 68,-355.5 112,-355.5 112,-336.5 68,-336.5"/>
<text text-anchor="middle" x="90" y="-343.5" font-family="Helvetica,sans-Serif" font-size="10.00">time.h</text>
</g>
<!-- Node1&#45;&gt;Node3 -->
<g id="edge2" class="edge"><title>Node1&#45;&gt;Node3</title>
<path fill="none" stroke="midnightblue" d="M131.744,-392.083C124.535,-384.298 113.89,-372.801 105.154,-363.367"/>
<polygon fill="midnightblue" stroke="midnightblue" points="107.465,-360.711 98.1028,-355.751 102.329,-365.467 107.465,-360.711"/>
</g>
<!-- Node4 -->
<g id="node4" class="node"><title>Node4</title>
<g id="a_node4"><a xlink:href="../../d3/d5a/base_8h.html" target="_top" xlink:title="Fonctions et inclusions de base. (header)">
<polygon fill="none" stroke="black" points="898,-56.5 898,-75.5 944,-75.5 944,-56.5 898,-56.5"/>
<text text-anchor="middle" x="921" y="-63.5" font-family="Helvetica,sans-Serif" font-size="10.00">base.h</text>
</a>
</g>
</g>
<!-- Node1&#45;&gt;Node4 -->
<g id="edge3" class="edge"><title>Node1&#45;&gt;Node4</title>
<path fill="none" stroke="midnightblue" d="M180.132,-401.048C371.26,-400.756 1180,-393.469 1180,-291 1180,-291 1180,-291 1180,-177 1180,-80.1158 1024.56,-67.326 954.521,-66.4811"/>
<polygon fill="midnightblue" stroke="midnightblue" points="954.457,-62.9808 944.441,-66.4356 954.425,-69.9808 954.457,-62.9808"/>
</g>
<!-- Node12 -->
<g id="node12" class="node"><title>Node12</title>
<g id="a_node12"><a xlink:href="../../d9/d9b/address_8h.html" target="_top" xlink:title="Utilitaires pour obtenir des addresses. (header)">
<polygon fill="none" stroke="black" points="545.5,-112.5 545.5,-131.5 604.5,-131.5 604.5,-112.5 545.5,-112.5"/>
<text text-anchor="middle" x="575" y="-119.5" font-family="Helvetica,sans-Serif" font-size="10.00">address.h</text>
</a>
</g>
</g>
<!-- Node1&#45;&gt;Node12 -->
<g id="edge11" class="edge"><title>Node1&#45;&gt;Node12</title>
<path fill="none" stroke="midnightblue" d="M153.496,-392.375C215.783,-352.569 475.73,-186.442 553.151,-136.964"/>
<polygon fill="midnightblue" stroke="midnightblue" points="555.12,-139.859 561.662,-131.524 551.351,-133.96 555.12,-139.859"/>
</g>
<!-- Node20 -->
<g id="node20" class="node"><title>Node20</title>
<g id="a_node20"><a xlink:href="../../de/d71/traceroute_8h.html" target="_top" xlink:title="Traceroute (header)">
<polygon fill="none" stroke="black" points="922,-336.5 922,-355.5 990,-355.5 990,-336.5 922,-336.5"/>
<text text-anchor="middle" x="956" y="-343.5" font-family="Helvetica,sans-Serif" font-size="10.00">traceroute.h</text>
</a>
</g>
</g>
<!-- Node1&#45;&gt;Node20 -->
<g id="edge20" class="edge"><title>Node1&#45;&gt;Node20</title>
<path fill="none" stroke="midnightblue" d="M180.187,-398.341C317.573,-389.249 767.962,-359.444 911.576,-349.94"/>
<polygon fill="midnightblue" stroke="midnightblue" points="912.025,-353.418 921.772,-349.265 911.563,-346.433 912.025,-353.418"/>
</g>
<!-- Node5 -->
<g id="node5" class="node"><title>Node5</title>
<polygon fill="none" stroke="#bfbfbf" points="1065,-0.5 1065,-19.5 1113,-19.5 1113,-0.5 1065,-0.5"/>
<text text-anchor="middle" x="1089" y="-7.5" font-family="Helvetica,sans-Serif" font-size="10.00">stdlib.h</text>
</g>
<!-- Node4&#45;&gt;Node5 -->
<g id="edge4" class="edge"><title>Node4&#45;&gt;Node5</title>
<path fill="none" stroke="midnightblue" d="M944.007,-57.6048C972.756,-48.3642 1022.18,-32.4766 1055.23,-21.8559"/>
<polygon fill="midnightblue" stroke="midnightblue" points="1056.46,-25.1343 1064.91,-18.742 1054.32,-18.4701 1056.46,-25.1343"/>
</g>
<!-- Node6 -->
<g id="node6" class="node"><title>Node6</title>
<polygon fill="none" stroke="#bfbfbf" points="1001,-0.5 1001,-19.5 1047,-19.5 1047,-0.5 1001,-0.5"/>
<text text-anchor="middle" x="1024" y="-7.5" font-family="Helvetica,sans-Serif" font-size="10.00">stdio.h</text>
</g>
<!-- Node4&#45;&gt;Node6 -->
<g id="edge5" class="edge"><title>Node4&#45;&gt;Node6</title>
<path fill="none" stroke="midnightblue" d="M937.549,-56.324C953.992,-47.7034 979.435,-34.3643 998.468,-24.3855"/>
<polygon fill="midnightblue" stroke="midnightblue" points="1000.26,-27.3977 1007.49,-19.6545 997.011,-21.198 1000.26,-27.3977"/>
</g>
<!-- Node7 -->
<g id="node7" class="node"><title>Node7</title>
<polygon fill="none" stroke="#bfbfbf" points="779,-0.5 779,-19.5 835,-19.5 835,-0.5 779,-0.5"/>
<text text-anchor="middle" x="807" y="-7.5" font-family="Helvetica,sans-Serif" font-size="10.00">stdbool.h</text>
</g>
<!-- Node4&#45;&gt;Node7 -->
<g id="edge6" class="edge"><title>Node4&#45;&gt;Node7</title>
<path fill="none" stroke="midnightblue" d="M902.936,-56.4435C884.425,-47.6751 855.419,-33.9355 834.145,-23.8579"/>
<polygon fill="midnightblue" stroke="midnightblue" points="835.515,-20.6343 824.979,-19.5164 832.518,-26.9604 835.515,-20.6343"/>
</g>
<!-- Node8 -->
<g id="node8" class="node"><title>Node8</title>
<polygon fill="none" stroke="#bfbfbf" points="853,-0.5 853,-19.5 915,-19.5 915,-0.5 853,-0.5"/>
<text text-anchor="middle" x="884" y="-7.5" font-family="Helvetica,sans-Serif" font-size="10.00">sysexits.h</text>
</g>
<!-- Node4&#45;&gt;Node8 -->
<g id="edge7" class="edge"><title>Node4&#45;&gt;Node8</title>
<path fill="none" stroke="midnightblue" d="M914.89,-56.083C909.718,-48.5341 902.154,-37.4948 895.806,-28.2298"/>
<polygon fill="midnightblue" stroke="midnightblue" points="898.536,-26.0221 889.996,-19.7511 892.761,-29.9787 898.536,-26.0221"/>
</g>
<!-- Node9 -->
<g id="node9" class="node"><title>Node9</title>
<polygon fill="none" stroke="#bfbfbf" points="452.5,-0.5 452.5,-19.5 499.5,-19.5 499.5,-0.5 452.5,-0.5"/>
<text text-anchor="middle" x="476" y="-7.5" font-family="Helvetica,sans-Serif" font-size="10.00">errno.h</text>
</g>
<!-- Node4&#45;&gt;Node9 -->
<g id="edge8" class="edge"><title>Node4&#45;&gt;Node9</title>
<path fill="none" stroke="midnightblue" d="M897.608,-58.8285C893.113,-57.7796 888.427,-56.7793 884,-56 746.147,-31.7358 579.65,-18.2147 509.614,-13.2351"/>
<polygon fill="midnightblue" stroke="midnightblue" points="509.828,-9.74158 499.608,-12.5355 509.339,-16.7245 509.828,-9.74158"/>
</g>
<!-- Node10 -->
<g id="node10" class="node"><title>Node10</title>
<polygon fill="none" stroke="#bfbfbf" points="933.5,-0.5 933.5,-19.5 982.5,-19.5 982.5,-0.5 933.5,-0.5"/>
<text text-anchor="middle" x="958" y="-7.5" font-family="Helvetica,sans-Serif" font-size="10.00">string.h</text>
</g>
<!-- Node4&#45;&gt;Node10 -->
<g id="edge9" class="edge"><title>Node4&#45;&gt;Node10</title>
<path fill="none" stroke="midnightblue" d="M927.11,-56.083C932.282,-48.5341 939.846,-37.4948 946.194,-28.2298"/>
<polygon fill="midnightblue" stroke="midnightblue" points="949.239,-29.9787 952.004,-19.7511 943.464,-26.0221 949.239,-29.9787"/>
</g>
<!-- Node11 -->
<g id="node11" class="node"><title>Node11</title>
<polygon fill="none" stroke="#bfbfbf" points="713,-0.5 713,-19.5 761,-19.5 761,-0.5 713,-0.5"/>
<text text-anchor="middle" x="737" y="-7.5" font-family="Helvetica,sans-Serif" font-size="10.00">limits.h</text>
</g>
<!-- Node4&#45;&gt;Node11 -->
<g id="edge10" class="edge"><title>Node4&#45;&gt;Node11</title>
<path fill="none" stroke="midnightblue" d="M897.696,-58.1609C865.698,-48.7701 807.942,-31.8198 771.085,-21.0032"/>
<polygon fill="midnightblue" stroke="midnightblue" points="771.863,-17.5841 761.282,-18.1264 769.892,-24.3008 771.863,-17.5841"/>
</g>
<!-- Node13 -->
<g id="node13" class="node"><title>Node13</title>
<polygon fill="none" stroke="#bfbfbf" points="310,-56.5 310,-75.5 378,-75.5 378,-56.5 310,-56.5"/>
<text text-anchor="middle" x="344" y="-63.5" font-family="Helvetica,sans-Serif" font-size="10.00">sys/types.h</text>
</g>
<!-- Node12&#45;&gt;Node13 -->
<g id="edge12" class="edge"><title>Node12&#45;&gt;Node13</title>
<path fill="none" stroke="midnightblue" d="M545.274,-114.051C505.397,-104.729 434.27,-88.1021 388.131,-77.3164"/>
<polygon fill="midnightblue" stroke="midnightblue" points="388.65,-73.8434 378.116,-74.9751 387.057,-80.6596 388.65,-73.8434"/>
</g>
<!-- Node14 -->
<g id="node14" class="node"><title>Node14</title>
<polygon fill="none" stroke="#bfbfbf" points="538.5,-56.5 538.5,-75.5 611.5,-75.5 611.5,-56.5 538.5,-56.5"/>
<text text-anchor="middle" x="575" y="-63.5" font-family="Helvetica,sans-Serif" font-size="10.00">sys/socket.h</text>
</g>
<!-- Node12&#45;&gt;Node14 -->
<g id="edge13" class="edge"><title>Node12&#45;&gt;Node14</title>
<path fill="none" stroke="midnightblue" d="M575,-112.083C575,-105.006 575,-94.8611 575,-85.9865"/>
<polygon fill="midnightblue" stroke="midnightblue" points="578.5,-85.751 575,-75.7511 571.5,-85.7511 578.5,-85.751"/>
</g>
<!-- Node15 -->
<g id="node15" class="node"><title>Node15</title>
<polygon fill="none" stroke="#bfbfbf" points="629.5,-56.5 629.5,-75.5 678.5,-75.5 678.5,-56.5 629.5,-56.5"/>
<text text-anchor="middle" x="654" y="-63.5" font-family="Helvetica,sans-Serif" font-size="10.00">netdb.h</text>
</g>
<!-- Node12&#45;&gt;Node15 -->
<g id="edge14" class="edge"><title>Node12&#45;&gt;Node15</title>
<path fill="none" stroke="midnightblue" d="M587.693,-112.324C599.901,-103.979 618.578,-91.2122 633.003,-81.3524"/>
<polygon fill="midnightblue" stroke="midnightblue" points="635.058,-84.1871 641.339,-75.6545 631.108,-78.4082 635.058,-84.1871"/>
</g>
<!-- Node16 -->
<g id="node16" class="node"><title>Node16</title>
<polygon fill="none" stroke="#bfbfbf" points="396.5,-56.5 396.5,-75.5 447.5,-75.5 447.5,-56.5 396.5,-56.5"/>
<text text-anchor="middle" x="422" y="-63.5" font-family="Helvetica,sans-Serif" font-size="10.00">unistd.h</text>
</g>
<!-- Node12&#45;&gt;Node16 -->
<g id="edge15" class="edge"><title>Node12&#45;&gt;Node16</title>
<path fill="none" stroke="midnightblue" d="M550.757,-112.444C525.129,-103.399 484.515,-89.064 455.762,-78.9158"/>
<polygon fill="midnightblue" stroke="midnightblue" points="456.725,-75.5442 446.13,-75.5164 454.395,-82.1452 456.725,-75.5442"/>
</g>
<!-- Node17 -->
<g id="node17" class="node"><title>Node17</title>
<polygon fill="none" stroke="#bfbfbf" points="696.5,-56.5 696.5,-75.5 761.5,-75.5 761.5,-56.5 696.5,-56.5"/>
<text text-anchor="middle" x="729" y="-63.5" font-family="Helvetica,sans-Serif" font-size="10.00">netinet/in.h</text>
</g>
<!-- Node12&#45;&gt;Node17 -->
<g id="edge16" class="edge"><title>Node12&#45;&gt;Node17</title>
<path fill="none" stroke="midnightblue" d="M599.402,-112.444C625.197,-103.399 666.077,-89.064 695.018,-78.9158"/>
<polygon fill="midnightblue" stroke="midnightblue" points="696.434,-82.1283 704.712,-75.5164 694.118,-75.5226 696.434,-82.1283"/>
</g>
<!-- Node18 -->
<g id="node18" class="node"><title>Node18</title>
<polygon fill="none" stroke="#bfbfbf" points="780,-56.5 780,-75.5 842,-75.5 842,-56.5 780,-56.5"/>
<text text-anchor="middle" x="811" y="-63.5" font-family="Helvetica,sans-Serif" font-size="10.00">arpa/inet.h</text>
</g>
<!-- Node12&#45;&gt;Node18 -->
<g id="edge17" class="edge"><title>Node12&#45;&gt;Node18</title>
<path fill="none" stroke="midnightblue" d="M604.89,-114.161C646.72,-104.59 722.871,-87.1651 769.979,-76.3861"/>
<polygon fill="midnightblue" stroke="midnightblue" points="770.888,-79.7688 779.855,-74.1264 769.326,-72.9451 770.888,-79.7688"/>
</g>
<!-- Node19 -->
<g id="node19" class="node"><title>Node19</title>
<polygon fill="none" stroke="#bfbfbf" points="466,-56.5 466,-75.5 520,-75.5 520,-56.5 466,-56.5"/>
<text text-anchor="middle" x="493" y="-63.5" font-family="Helvetica,sans-Serif" font-size="10.00">ifaddrs.h</text>
</g>
<!-- Node12&#45;&gt;Node19 -->
<g id="edge18" class="edge"><title>Node12&#45;&gt;Node19</title>
<path fill="none" stroke="midnightblue" d="M561.825,-112.324C549.153,-103.979 529.767,-91.2122 514.794,-81.3524"/>
<polygon fill="midnightblue" stroke="midnightblue" points="516.419,-78.2313 506.142,-75.6545 512.569,-84.0776 516.419,-78.2313"/>
</g>
<!-- Node12&#45;&gt;Node4 -->
<g id="edge19" class="edge"><title>Node12&#45;&gt;Node4</title>
<path fill="none" stroke="midnightblue" d="M604.799,-116.349C669.06,-106.32 820.292,-82.7175 887.637,-72.207"/>
<polygon fill="midnightblue" stroke="midnightblue" points="888.358,-75.6368 897.699,-70.6366 887.279,-68.7205 888.358,-75.6368"/>
</g>
<!-- Node21 -->
<g id="node21" class="node"><title>Node21</title>
<polygon fill="none" stroke="#bfbfbf" points="1090,-224.5 1090,-243.5 1152,-243.5 1152,-224.5 1090,-224.5"/>
<text text-anchor="middle" x="1121" y="-231.5" font-family="Helvetica,sans-Serif" font-size="10.00">sys/time.h</text>
</g>
<!-- Node20&#45;&gt;Node21 -->
<g id="edge21" class="edge"><title>Node20&#45;&gt;Node21</title>
<path fill="none" stroke="midnightblue" d="M973.434,-336.477C990.367,-327.958 1016.58,-314.128 1038,-300 1061.68,-284.38 1087.11,-263.849 1103.49,-250.079"/>
<polygon fill="midnightblue" stroke="midnightblue" points="1105.82,-252.696 1111.17,-243.556 1101.29,-247.359 1105.82,-252.696"/>
</g>
<!-- Node20&#45;&gt;Node4 -->
<g id="edge22" class="edge"><title>Node20&#45;&gt;Node4</title>
<path fill="none" stroke="midnightblue" d="M967.368,-336.389C1007.97,-304.616 1140.26,-191.676 1080,-112 1064.88,-92.0133 996.357,-78.3492 954.353,-71.6859"/>
<polygon fill="midnightblue" stroke="midnightblue" points="954.709,-68.1997 944.294,-70.1431 953.648,-75.1188 954.709,-68.1997"/>
</g>
<!-- Node20&#45;&gt;Node12 -->
<g id="edge23" class="edge"><title>Node20&#45;&gt;Node12</title>
<path fill="none" stroke="midnightblue" d="M941.064,-336.297C882.735,-302.31 670.004,-178.356 598.572,-136.735"/>
<polygon fill="midnightblue" stroke="midnightblue" points="600.235,-133.653 589.832,-131.643 596.711,-139.701 600.235,-133.653"/>
</g>
<!-- Node22 -->
<g id="node22" class="node"><title>Node22</title>
<g id="a_node22"><a xlink:href="../../d3/d76/packet_8h.html" target="_top" xlink:title="Utilitaires pour créer des paquets (header)">
<polygon fill="none" stroke="black" points="549,-280.5 549,-299.5 603,-299.5 603,-280.5 549,-280.5"/>
<text text-anchor="middle" x="576" y="-287.5" font-family="Helvetica,sans-Serif" font-size="10.00">packet.h</text>
</a>
</g>
</g>
<!-- Node20&#45;&gt;Node22 -->
<g id="edge24" class="edge"><title>Node20&#45;&gt;Node22</title>
<path fill="none" stroke="midnightblue" d="M921.943,-340.16C850.928,-330.069 687.508,-306.846 613.561,-296.338"/>
<polygon fill="midnightblue" stroke="midnightblue" points="613.715,-292.824 603.322,-294.883 612.73,-299.755 613.715,-292.824"/>
</g>
<!-- Node32 -->
<g id="node32" class="node"><title>Node32</title>
<g id="a_node32"><a xlink:href="../../d0/d91/time__util_8h.html" target="_top" xlink:title="Utilitaires temps (header)">
<polygon fill="none" stroke="black" points="1090,-280.5 1090,-299.5 1152,-299.5 1152,-280.5 1090,-280.5"/>
<text text-anchor="middle" x="1121" y="-287.5" font-family="Helvetica,sans-Serif" font-size="10.00">time_util.h</text>
</a>
</g>
</g>
<!-- Node20&#45;&gt;Node32 -->
<g id="edge58" class="edge"><title>Node20&#45;&gt;Node32</title>
<path fill="none" stroke="midnightblue" d="M982.145,-336.444C1010.02,-327.32 1054.35,-312.813 1085.4,-302.651"/>
<polygon fill="midnightblue" stroke="midnightblue" points="1086.56,-305.953 1094.98,-299.516 1084.38,-299.3 1086.56,-305.953"/>
</g>
<!-- Node23 -->
<g id="node23" class="node"><title>Node23</title>
<polygon fill="none" stroke="#bfbfbf" points="863.5,-112.5 863.5,-131.5 954.5,-131.5 954.5,-112.5 863.5,-112.5"/>
<text text-anchor="middle" x="909" y="-119.5" font-family="Helvetica,sans-Serif" font-size="10.00">netinet/ip_icmp.h</text>
</g>
<!-- Node22&#45;&gt;Node23 -->
<g id="edge25" class="edge"><title>Node22&#45;&gt;Node23</title>
<path fill="none" stroke="midnightblue" d="M599.95,-280.397C643.115,-264.516 736.326,-228.496 810,-188 838.438,-172.369 869.44,-151.305 889.036,-137.449"/>
<polygon fill="midnightblue" stroke="midnightblue" points="891.078,-140.292 897.186,-131.635 887.013,-134.593 891.078,-140.292"/>
</g>
<!-- Node24 -->
<g id="node24" class="node"><title>Node24</title>
<polygon fill="none" stroke="#bfbfbf" points="972.5,-112.5 972.5,-131.5 1055.5,-131.5 1055.5,-112.5 972.5,-112.5"/>
<text text-anchor="middle" x="1014" y="-119.5" font-family="Helvetica,sans-Serif" font-size="10.00">netinet/icmp6.h</text>
</g>
<!-- Node22&#45;&gt;Node24 -->
<g id="edge26" class="edge"><title>Node22&#45;&gt;Node24</title>
<path fill="none" stroke="midnightblue" d="M603.018,-281.908C633.455,-273.698 684.256,-259.328 727,-244 823.869,-209.263 935.324,-159.302 986.143,-135.95"/>
<polygon fill="midnightblue" stroke="midnightblue" points="987.86,-139.013 995.476,-131.647 984.929,-132.656 987.86,-139.013"/>
</g>
<!-- Node25 -->
<g id="node25" class="node"><title>Node25</title>
<polygon fill="none" stroke="#bfbfbf" points="309.5,-112.5 309.5,-131.5 374.5,-131.5 374.5,-112.5 309.5,-112.5"/>
<text text-anchor="middle" x="342" y="-119.5" font-family="Helvetica,sans-Serif" font-size="10.00">netinet/ip.h</text>
</g>
<!-- Node22&#45;&gt;Node25 -->
<g id="edge27" class="edge"><title>Node22&#45;&gt;Node25</title>
<path fill="none" stroke="midnightblue" d="M548.794,-284.678C501.675,-275.685 405.218,-250.345 356,-188 345.615,-174.845 342.507,-155.705 341.761,-141.599"/>
<polygon fill="midnightblue" stroke="midnightblue" points="345.26,-141.51 341.576,-131.576 338.261,-141.639 345.26,-141.51"/>
</g>
<!-- Node26 -->
<g id="node26" class="node"><title>Node26</title>
<polygon fill="none" stroke="#bfbfbf" points="221,-112.5 221,-131.5 291,-131.5 291,-112.5 221,-112.5"/>
<text text-anchor="middle" x="256" y="-119.5" font-family="Helvetica,sans-Serif" font-size="10.00">netinet/ip6.h</text>
</g>
<!-- Node22&#45;&gt;Node26 -->
<g id="edge28" class="edge"><title>Node22&#45;&gt;Node26</title>
<path fill="none" stroke="midnightblue" d="M548.971,-286.519C511.767,-282.212 443.536,-271.059 392,-244 340.213,-216.81 292.222,-165.691 269.607,-139.454"/>
<polygon fill="midnightblue" stroke="midnightblue" points="272.074,-136.951 262.941,-131.581 266.731,-141.475 272.074,-136.951"/>
</g>
<!-- Node22&#45;&gt;Node13 -->
<g id="edge29" class="edge"><title>Node22&#45;&gt;Node13</title>
<path fill="none" stroke="midnightblue" d="M548.8,-288.047C475.48,-283.771 275.033,-260.334 212,-132 193.259,-93.8444 254.663,-77.8281 299.934,-71.2911"/>
<polygon fill="midnightblue" stroke="midnightblue" points="300.437,-74.7551 309.887,-69.9651 299.512,-67.8164 300.437,-74.7551"/>
</g>
<!-- Node22&#45;&gt;Node9 -->
<g id="edge30" class="edge"><title>Node22&#45;&gt;Node9</title>
<path fill="none" stroke="midnightblue" d="M548.77,-289.237C497.636,-288.696 384.771,-282.766 300,-244 240.377,-216.734 219.515,-195.699 204,-132 179.235,-30.3246 363.797,-13.7914 442.055,-11.3225"/>
<polygon fill="midnightblue" stroke="midnightblue" points="442.451,-14.8136 452.359,-11.0601 442.273,-7.81589 442.451,-14.8136"/>
</g>
<!-- Node22&#45;&gt;Node4 -->
<g id="edge31" class="edge"><title>Node22&#45;&gt;Node4</title>
<path fill="none" stroke="midnightblue" d="M603.024,-284.652C697.332,-268.864 1009.09,-211.297 1064,-132 1092.77,-90.4512 1004.95,-74.9947 954.263,-69.627"/>
<polygon fill="midnightblue" stroke="midnightblue" points="954.36,-66.1197 944.066,-68.6289 953.678,-73.0865 954.36,-66.1197"/>
</g>
<!-- Node27 -->
<g id="node27" class="node"><title>Node27</title>
<g id="a_node27"><a xlink:href="../../d7/d13/icmp__util_8h.html" target="_top" xlink:title="Utilitaires ICMP (header)">
<polygon fill="none" stroke="black" points="737,-168.5 737,-187.5 801,-187.5 801,-168.5 737,-168.5"/>
<text text-anchor="middle" x="769" y="-175.5" font-family="Helvetica,sans-Serif" font-size="10.00">icmp_util.h</text>
</a>
</g>
</g>
<!-- Node22&#45;&gt;Node27 -->
<g id="edge32" class="edge"><title>Node22&#45;&gt;Node27</title>
<path fill="none" stroke="midnightblue" d="M591.144,-280.368C624.545,-261.332 704.757,-215.615 745.05,-192.65"/>
<polygon fill="midnightblue" stroke="midnightblue" points="746.971,-195.584 753.926,-187.591 743.505,-189.502 746.971,-195.584"/>
</g>
<!-- Node29 -->
<g id="node29" class="node"><title>Node29</title>
<g id="a_node29"><a xlink:href="../../d4/dbd/ip__util_8h.html" target="_top" xlink:title="Utilitaires IP (header)">
<polygon fill="none" stroke="black" points="387,-168.5 387,-187.5 437,-187.5 437,-168.5 387,-168.5"/>
<text text-anchor="middle" x="412" y="-175.5" font-family="Helvetica,sans-Serif" font-size="10.00">ip_util.h</text>
</a>
</g>
</g>
<!-- Node22&#45;&gt;Node29 -->
<g id="edge42" class="edge"><title>Node22&#45;&gt;Node29</title>
<path fill="none" stroke="midnightblue" d="M562.23,-280.34C548.049,-271.377 525.352,-256.906 506,-244 480.35,-226.894 451.205,-206.606 432.259,-193.301"/>
<polygon fill="midnightblue" stroke="midnightblue" points="434.271,-190.438 424.079,-187.546 430.243,-196.162 434.271,-190.438"/>
</g>
<!-- Node30 -->
<g id="node30" class="node"><title>Node30</title>
<g id="a_node30"><a xlink:href="../../da/d14/udp__util_8h.html" target="_top" xlink:title="Utilitaires IP (header)">
<polygon fill="none" stroke="black" points="514.5,-224.5 514.5,-243.5 573.5,-243.5 573.5,-224.5 514.5,-224.5"/>
<text text-anchor="middle" x="544" y="-231.5" font-family="Helvetica,sans-Serif" font-size="10.00">udp_util.h</text>
</a>
</g>
</g>
<!-- Node22&#45;&gt;Node30 -->
<g id="edge51" class="edge"><title>Node22&#45;&gt;Node30</title>
<path fill="none" stroke="midnightblue" d="M570.716,-280.083C566.289,-272.613 559.837,-261.724 554.382,-252.52"/>
<polygon fill="midnightblue" stroke="midnightblue" points="557.295,-250.57 549.186,-243.751 551.273,-254.138 557.295,-250.57"/>
</g>
<!-- Node22&#45;&gt;Node12 -->
<g id="edge57" class="edge"><title>Node22&#45;&gt;Node12</title>
<path fill="none" stroke="midnightblue" d="M582.49,-280.387C596.707,-260.411 628.166,-209.467 613,-168 608.943,-156.908 600.812,-146.665 593.109,-138.763"/>
<polygon fill="midnightblue" stroke="midnightblue" points="595.362,-136.075 585.714,-131.695 590.525,-141.135 595.362,-136.075"/>
</g>
<!-- Node27&#45;&gt;Node23 -->
<g id="edge33" class="edge"><title>Node27&#45;&gt;Node23</title>
<path fill="none" stroke="midnightblue" d="M791.183,-168.444C814.428,-159.478 851.149,-145.314 877.415,-135.183"/>
<polygon fill="midnightblue" stroke="midnightblue" points="878.85,-138.381 886.92,-131.516 876.331,-131.85 878.85,-138.381"/>
</g>
<!-- Node27&#45;&gt;Node24 -->
<g id="edge34" class="edge"><title>Node27&#45;&gt;Node24</title>
<path fill="none" stroke="midnightblue" d="M801.029,-169.94C842.807,-160.732 916.303,-144.533 965.078,-133.783"/>
<polygon fill="midnightblue" stroke="midnightblue" points="966.078,-137.146 975.09,-131.576 964.571,-130.311 966.078,-137.146"/>
</g>
<!-- Node27&#45;&gt;Node13 -->
<g id="edge35" class="edge"><title>Node27&#45;&gt;Node13</title>
<path fill="none" stroke="midnightblue" d="M736.797,-172.147C691.715,-165.039 607.411,-150.597 537,-132 479.261,-116.75 413.696,-93.3277 375.767,-79.1557"/>
<polygon fill="midnightblue" stroke="midnightblue" points="376.878,-75.8343 366.286,-75.5904 374.414,-82.3863 376.878,-75.8343"/>
</g>
<!-- Node27&#45;&gt;Node9 -->
<g id="edge36" class="edge"><title>Node27&#45;&gt;Node9</title>
<path fill="none" stroke="midnightblue" d="M763.167,-168.175C755.158,-154.836 743.033,-129.268 755,-112 783.135,-71.4007 883.781,-92.95 851,-56 828.52,-30.6616 598.018,-16.9098 509.951,-12.5481"/>
<polygon fill="midnightblue" stroke="midnightblue" points="509.858,-9.03962 499.7,-12.0512 509.519,-16.0314 509.858,-9.03962"/>
</g>
<!-- Node27&#45;&gt;Node4 -->
<g id="edge37" class="edge"><title>Node27&#45;&gt;Node4</title>
<path fill="none" stroke="midnightblue" d="M765.46,-168.412C760.529,-154.928 753.518,-128.621 766,-112 769.756,-106.998 843.705,-87.0751 888.083,-75.4836"/>
<polygon fill="midnightblue" stroke="midnightblue" points="889.072,-78.8429 897.868,-72.9375 887.309,-72.0685 889.072,-78.8429"/>
</g>
<!-- Node28 -->
<g id="node28" class="node"><title>Node28</title>
<g id="a_node28"><a xlink:href="../../dc/d31/checksum_8h.html" target="_top" xlink:title="Internet Checksum. (header)">
<polygon fill="none" stroke="black" points="775,-112.5 775,-131.5 845,-131.5 845,-112.5 775,-112.5"/>
<text text-anchor="middle" x="810" y="-119.5" font-family="Helvetica,sans-Serif" font-size="10.00">checksum.h</text>
</a>
</g>
</g>
<!-- Node27&#45;&gt;Node28 -->
<g id="edge38" class="edge"><title>Node27&#45;&gt;Node28</title>
<path fill="none" stroke="midnightblue" d="M775.77,-168.083C781.562,-160.455 790.058,-149.264 797.138,-139.941"/>
<polygon fill="midnightblue" stroke="midnightblue" points="800.096,-141.832 803.356,-131.751 794.521,-137.599 800.096,-141.832"/>
</g>
<!-- Node27&#45;&gt;Node12 -->
<g id="edge41" class="edge"><title>Node27&#45;&gt;Node12</title>
<path fill="none" stroke="midnightblue" d="M738.26,-168.444C704.763,-159.12 651.072,-144.175 614.478,-133.989"/>
<polygon fill="midnightblue" stroke="midnightblue" points="615.214,-130.561 604.642,-131.251 613.337,-137.304 615.214,-130.561"/>
</g>
<!-- Node28&#45;&gt;Node5 -->
<g id="edge39" class="edge"><title>Node28&#45;&gt;Node5</title>
<path fill="none" stroke="midnightblue" d="M845.235,-112.818C887.302,-102.841 954.989,-86.0662 979,-76 1012.12,-62.1172 1047.33,-39.8021 1068.75,-25.2694"/>
<polygon fill="midnightblue" stroke="midnightblue" points="1070.79,-28.1172 1077.04,-19.5648 1066.82,-22.3507 1070.79,-28.1172"/>
</g>
<!-- Node28&#45;&gt;Node6 -->
<g id="edge40" class="edge"><title>Node28&#45;&gt;Node6</title>
<path fill="none" stroke="midnightblue" d="M842.684,-112.489C878.726,-102.793 934.117,-86.8891 953,-76 975.268,-63.1589 996.408,-42.2836 1009.74,-27.6641"/>
<polygon fill="midnightblue" stroke="midnightblue" points="1012.62,-29.6919 1016.63,-19.8873 1007.38,-25.0481 1012.62,-29.6919"/>
</g>
<!-- Node29&#45;&gt;Node25 -->
<g id="edge43" class="edge"><title>Node29&#45;&gt;Node25</title>
<path fill="none" stroke="midnightblue" d="M400.753,-168.324C390.203,-160.185 374.199,-147.839 361.558,-138.087"/>
<polygon fill="midnightblue" stroke="midnightblue" points="363.507,-135.171 353.451,-131.834 359.231,-140.713 363.507,-135.171"/>
</g>
<!-- Node29&#45;&gt;Node26 -->
<g id="edge44" class="edge"><title>Node29&#45;&gt;Node26</title>
<path fill="none" stroke="midnightblue" d="M387.281,-168.444C361.152,-159.399 319.741,-145.064 290.424,-134.916"/>
<polygon fill="midnightblue" stroke="midnightblue" points="291.198,-131.48 280.603,-131.516 288.908,-138.095 291.198,-131.48"/>
</g>
<!-- Node29&#45;&gt;Node13 -->
<g id="edge45" class="edge"><title>Node29&#45;&gt;Node13</title>
<path fill="none" stroke="midnightblue" d="M415.529,-168.355C420.278,-155.251 427.041,-129.986 417,-112 408.844,-97.3909 393.78,-86.9362 379.446,-79.8038"/>
<polygon fill="midnightblue" stroke="midnightblue" points="380.762,-76.557 370.211,-75.5863 377.854,-82.9244 380.762,-76.557"/>
</g>
<!-- Node29&#45;&gt;Node9 -->
<g id="edge46" class="edge"><title>Node29&#45;&gt;Node9</title>
<path fill="none" stroke="midnightblue" d="M410.235,-168.271C407.052,-154.596 399.125,-128.029 383,-112 351.701,-80.887 273.957,-90.8762 301,-56 318.165,-33.8631 396.547,-20.7123 442.381,-14.7832"/>
<polygon fill="midnightblue" stroke="midnightblue" points="442.964,-18.2377 452.455,-13.5283 442.099,-11.2914 442.964,-18.2377"/>
</g>
<!-- Node29&#45;&gt;Node16 -->
<g id="edge47" class="edge"><title>Node29&#45;&gt;Node16</title>
<path fill="none" stroke="midnightblue" d="M424.497,-168.302C434.874,-160.251 448.887,-147.245 455,-132 461.877,-114.848 450.174,-96.1159 438.848,-83.1862"/>
<polygon fill="midnightblue" stroke="midnightblue" points="441.078,-80.4519 431.659,-75.6024 435.998,-85.2677 441.078,-80.4519"/>
</g>
<!-- Node29&#45;&gt;Node4 -->
<g id="edge48" class="edge"><title>Node29&#45;&gt;Node4</title>
<path fill="none" stroke="midnightblue" d="M437.104,-171.54C475.182,-163.222 549.801,-146.78 613,-132 649.527,-123.457 658.374,-120.109 695,-112 763.345,-96.8682 843.841,-81.3992 887.95,-73.1229"/>
<polygon fill="midnightblue" stroke="midnightblue" points="888.646,-76.5535 897.832,-71.2749 887.359,-69.6728 888.646,-76.5535"/>
</g>
<!-- Node29&#45;&gt;Node28 -->
<g id="edge49" class="edge"><title>Node29&#45;&gt;Node28</title>
<path fill="none" stroke="midnightblue" d="M437.199,-173.581C503.058,-164.645 681.021,-140.5 764.988,-129.107"/>
<polygon fill="midnightblue" stroke="midnightblue" points="765.55,-132.563 774.989,-127.75 764.609,-125.627 765.55,-132.563"/>
</g>
<!-- Node29&#45;&gt;Node12 -->
<g id="edge50" class="edge"><title>Node29&#45;&gt;Node12</title>
<path fill="none" stroke="midnightblue" d="M437.112,-168.681C464.59,-159.578 508.842,-144.917 539.782,-134.667"/>
<polygon fill="midnightblue" stroke="midnightblue" points="540.93,-137.974 549.322,-131.507 538.728,-131.329 540.93,-137.974"/>
</g>
<!-- Node31 -->
<g id="node31" class="node"><title>Node31</title>
<polygon fill="none" stroke="#bfbfbf" points="531.5,-168.5 531.5,-187.5 604.5,-187.5 604.5,-168.5 531.5,-168.5"/>
<text text-anchor="middle" x="568" y="-175.5" font-family="Helvetica,sans-Serif" font-size="10.00">netinet/udp.h</text>
</g>
<!-- Node30&#45;&gt;Node31 -->
<g id="edge52" class="edge"><title>Node30&#45;&gt;Node31</title>
<path fill="none" stroke="midnightblue" d="M547.963,-224.083C551.213,-216.77 555.919,-206.181 559.954,-197.103"/>
<polygon fill="midnightblue" stroke="midnightblue" points="563.248,-198.311 564.111,-187.751 556.851,-195.468 563.248,-198.311"/>
</g>
<!-- Node30&#45;&gt;Node25 -->
<g id="edge53" class="edge"><title>Node30&#45;&gt;Node25</title>
<path fill="none" stroke="midnightblue" d="M514.227,-231.805C478.397,-228.941 418.067,-219.409 378,-188 362.805,-176.088 353.072,-155.887 347.608,-141.16"/>
<polygon fill="midnightblue" stroke="midnightblue" points="350.893,-139.948 344.367,-131.602 344.264,-142.196 350.893,-139.948"/>
</g>
<!-- Node30&#45;&gt;Node4 -->
<g id="edge54" class="edge"><title>Node30&#45;&gt;Node4</title>
<path fill="none" stroke="midnightblue" d="M558.022,-224.327C598.294,-199.52 714.036,-128.968 755,-112 799.501,-93.5672 853.831,-80.4967 887.934,-73.3496"/>
<polygon fill="midnightblue" stroke="midnightblue" points="888.74,-76.7572 897.835,-71.3223 887.336,-69.8995 888.74,-76.7572"/>
</g>
<!-- Node30&#45;&gt;Node29 -->
<g id="edge55" class="edge"><title>Node30&#45;&gt;Node29</title>
<path fill="none" stroke="midnightblue" d="M523.084,-224.444C501.264,-215.517 466.85,-201.439 442.108,-191.317"/>
<polygon fill="midnightblue" stroke="midnightblue" points="443.399,-188.063 432.818,-187.516 440.748,-194.542 443.399,-188.063"/>
</g>
<!-- Node30&#45;&gt;Node12 -->
<g id="edge56" class="edge"><title>Node30&#45;&gt;Node12</title>
<path fill="none" stroke="midnightblue" d="M537.2,-224.348C528.113,-211.662 514.126,-187.414 523,-168 528.777,-155.36 540.052,-144.911 550.631,-137.274"/>
<polygon fill="midnightblue" stroke="midnightblue" points="552.849,-140.001 559.217,-131.533 548.958,-134.182 552.849,-140.001"/>
</g>
<!-- Node32&#45;&gt;Node5 -->
<g id="edge59" class="edge"><title>Node32&#45;&gt;Node5</title>
<path fill="none" stroke="midnightblue" d="M1152.16,-283.531C1176.83,-277.688 1210.58,-266.101 1232,-244 1253.43,-221.885 1256,-209.795 1256,-179 1256,-179 1256,-179 1256,-121 1256,-90.2048 1254.3,-77.2374 1232,-56 1202.45,-27.8603 1155.46,-17.3096 1123.48,-13.3582"/>
<polygon fill="midnightblue" stroke="midnightblue" points="1123.57,-9.84796 1113.25,-12.2553 1122.82,-16.8076 1123.57,-9.84796"/>
</g>
<!-- Node32&#45;&gt;Node6 -->
<g id="edge60" class="edge"><title>Node32&#45;&gt;Node6</title>
<path fill="none" stroke="midnightblue" d="M1137.02,-280.482C1164.57,-264.537 1218,-227.377 1218,-179 1218,-179 1218,-179 1218,-121 1218,-84.3684 1112.01,-41.7915 1056.71,-22.0717"/>
<polygon fill="midnightblue" stroke="midnightblue" points="1057.61,-18.6771 1047.02,-18.6622 1055.29,-25.2809 1057.61,-18.6771"/>
</g>
<!-- Node32&#45;&gt;Node21 -->
<g id="edge61" class="edge"><title>Node32&#45;&gt;Node21</title>
<path fill="none" stroke="midnightblue" d="M1121,-280.083C1121,-273.006 1121,-262.861 1121,-253.986"/>
<polygon fill="midnightblue" stroke="midnightblue" points="1124.5,-253.751 1121,-243.751 1117.5,-253.751 1124.5,-253.751"/>
</g>
</g>
</svg>
