<?xml version="1.0" encoding="UTF-8" standalone="no"?>
<!DOCTYPE svg PUBLIC "-//W3C//DTD SVG 1.1//EN"
 "http://www.w3.org/Graphics/SVG/1.1/DTD/svg11.dtd">
<!-- Generated by graphviz version 2.30.1 (20130712.1527)
 -->
<!-- Title: reverse_dns_v4 Pages: 1 -->
<svg width="560pt" height="71pt"
 viewBox="0.00 0.00 560.00 71.00" xmlns="http://www.w3.org/2000/svg" xmlns:xlink="http://www.w3.org/1999/xlink">
<g id="graph0" class="graph" transform="scale(1 1) rotate(0) translate(4 67)">
<title>reverse_dns_v4</title>
<!-- Node1 -->
<g id="node1" class="node"><title>Node1</title>
<polygon fill="#bfbfbf" stroke="black" points="0,-24.5 0,-43.5 86,-43.5 86,-24.5 0,-24.5"/>
<text text-anchor="middle" x="43" y="-31.5" font-family="Helvetica,sans-Serif" font-size="10.00">reverse_dns_v4</text>
</g>
<!-- Node2 -->
<g id="node2" class="node"><title>Node2</title>
<g id="a_node2"><a xlink:href="../../d5/d74/ping__icmp_8c_a8840388a584c45eb700d7451452e2b72.html#a8840388a584c45eb700d7451452e2b72" target="_top" xlink:title="Initialisation des différentes structures et création d&#39;un paquet icmp4_packet.">
<polygon fill="none" stroke="black" points="122.5,-43.5 122.5,-62.5 219.5,-62.5 219.5,-43.5 122.5,-43.5"/>
<text text-anchor="middle" x="171" y="-50.5" font-family="Helvetica,sans-Serif" font-size="10.00">init_domaine_IPv4</text>
</a>
</g>
</g>
<!-- Node1&#45;&gt;Node2 -->
<g id="edge1" class="edge"><title>Node1&#45;&gt;Node2</title>
<path fill="none" stroke="midnightblue" d="M96.2874,-41.8846C104.933,-43.1882 113.855,-44.5337 122.377,-45.8188"/>
<polygon fill="midnightblue" stroke="midnightblue" points="96.7168,-38.4099 86.3067,-40.3796 95.673,-45.3316 96.7168,-38.4099"/>
</g>
<!-- Node3 -->
<g id="node3" class="node"><title>Node3</title>
<g id="a_node3"><a xlink:href="../../d1/d3e/address_8c_a81aae144fa0d9a0bd3da2e56e852b54a.html#a81aae144fa0d9a0bd3da2e56e852b54a" target="_top" xlink:title="Afficher un hôte.">
<polygon fill="none" stroke="black" points="133.5,-5.5 133.5,-24.5 208.5,-24.5 208.5,-5.5 133.5,-5.5"/>
<text text-anchor="middle" x="171" y="-12.5" font-family="Helvetica,sans-Serif" font-size="10.00">print_host_v4</text>
</a>
</g>
</g>
<!-- Node1&#45;&gt;Node3 -->
<g id="edge2" class="edge"><title>Node1&#45;&gt;Node3</title>
<path fill="none" stroke="midnightblue" d="M96.5659,-26.0734C108.988,-24.2003 121.966,-22.2433 133.496,-20.5046"/>
<polygon fill="midnightblue" stroke="midnightblue" points="95.673,-22.6684 86.3067,-27.6204 96.7168,-29.5901 95.673,-22.6684"/>
</g>
<!-- Node4 -->
<g id="node4" class="node"><title>Node4</title>
<g id="a_node4"><a xlink:href="../../d5/d74/ping__icmp_8c_adb099e6aac6f37e8b98243533c024332.html#adb099e6aac6f37e8b98243533c024332" target="_top" xlink:title="Réponse du paquet par une réception d&#39;un paquet ICMP_ECHO REPLY.">
<polygon fill="none" stroke="black" points="256,-5.5 256,-24.5 330,-24.5 330,-5.5 256,-5.5"/>
<text text-anchor="middle" x="293" y="-12.5" font-family="Helvetica,sans-Serif" font-size="10.00">answer_send</text>
</a>
</g>
</g>
<!-- Node3&#45;&gt;Node4 -->
<g id="edge3" class="edge"><title>Node3&#45;&gt;Node4</title>
<path fill="none" stroke="midnightblue" d="M218.8,-15C231.154,-15 244.294,-15 255.981,-15"/>
<polygon fill="midnightblue" stroke="midnightblue" points="218.656,-11.5001 208.656,-15 218.656,-18.5001 218.656,-11.5001"/>
</g>
<!-- Node5 -->
<g id="node5" class="node"><title>Node5</title>
<g id="a_node5"><a xlink:href="../../d5/d74/ping__icmp_8c_a291ab2abf1ed6e77d7a8f41281d88a17.html#a291ab2abf1ed6e77d7a8f41281d88a17" target="_top" xlink:title="Fonction réalisant l&#39;affichage et l&#39;application de Ping.">
<polygon fill="none" stroke="black" points="366,-5.5 366,-24.5 406,-24.5 406,-5.5 366,-5.5"/>
<text text-anchor="middle" x="386" y="-12.5" font-family="Helvetica,sans-Serif" font-size="10.00">pi_ng</text>
</a>
</g>
</g>
<!-- Node4&#45;&gt;Node5 -->
<g id="edge4" class="edge"><title>Node4&#45;&gt;Node5</title>
<path fill="none" stroke="midnightblue" d="M340.361,-15C349.388,-15 358.368,-15 365.883,-15"/>
<polygon fill="midnightblue" stroke="midnightblue" points="340.227,-11.5001 330.227,-15 340.227,-18.5001 340.227,-11.5001"/>
</g>
<!-- Node6 -->
<g id="node6" class="node"><title>Node6</title>
<g id="a_node6"><a xlink:href="../../d5/d74/ping__icmp_8c_a21469bf5e3430dbf282e52280882d1af.html#a21469bf5e3430dbf282e52280882d1af" target="_top" xlink:title="Fonction réalisant l&#39;affichage et l&#39;application de Ping avec le choix précis des attentes.">
<polygon fill="none" stroke="black" points="442,-0 442,-30 552,-30 552,-0 442,-0"/>
<text text-anchor="start" x="450" y="-18" font-family="Helvetica,sans-Serif" font-size="10.00">pi_ng_choix_sleep_et</text>
<text text-anchor="middle" x="497" y="-7" font-family="Helvetica,sans-Serif" font-size="10.00">_attente_reception</text>
</a>
</g>
</g>
<!-- Node5&#45;&gt;Node6 -->
<g id="edge5" class="edge"><title>Node5&#45;&gt;Node6</title>
<path fill="none" stroke="midnightblue" d="M416.364,-15C424.264,-15 433.067,-15 441.857,-15"/>
<polygon fill="midnightblue" stroke="midnightblue" points="416.236,-11.5001 406.236,-15 416.236,-18.5001 416.236,-11.5001"/>
</g>
</g>
</svg>
