<?xml version="1.0" encoding="UTF-8" standalone="no"?>
<!DOCTYPE svg PUBLIC "-//W3C//DTD SVG 1.1//EN"
 "http://www.w3.org/Graphics/SVG/1.1/DTD/svg11.dtd">
<!-- Generated by graphviz version 2.30.1 (20130712.1527)
 -->
<!-- Title: print_host_v6 Pages: 1 -->
<svg width="206pt" height="66pt"
 viewBox="0.00 0.00 206.00 66.00" xmlns="http://www.w3.org/2000/svg" xmlns:xlink="http://www.w3.org/1999/xlink">
<g id="graph0" class="graph" transform="scale(1 1) rotate(0) translate(4 62)">
<title>print_host_v6</title>
<!-- Node1 -->
<g id="node1" class="node"><title>Node1</title>
<polygon fill="#bfbfbf" stroke="black" points="0.5,-19.5 0.5,-38.5 75.5,-38.5 75.5,-19.5 0.5,-19.5"/>
<text text-anchor="middle" x="38" y="-26.5" font-family="Helvetica,sans-Serif" font-size="10.00">print_host_v6</text>
</g>
<!-- Node2 -->
<g id="node2" class="node"><title>Node2</title>
<g id="a_node2"><a xlink:href="../../d9/d9b/address_8h_a52138d7436e1d946641e32af4afc9788.html#a52138d7436e1d946641e32af4afc9788" target="_top" xlink:title="Afficher une addresse IP.">
<polygon fill="none" stroke="black" points="131,-38.5 131,-57.5 179,-57.5 179,-38.5 131,-38.5"/>
<text text-anchor="middle" x="155" y="-45.5" font-family="Helvetica,sans-Serif" font-size="10.00">print_ip</text>
</a>
</g>
</g>
<!-- Node1&#45;&gt;Node2 -->
<g id="edge1" class="edge"><title>Node1&#45;&gt;Node2</title>
<path fill="none" stroke="midnightblue" d="M75.7029,-35.064C90.1602,-37.4525 106.645,-40.1761 120.747,-42.506"/>
<polygon fill="midnightblue" stroke="midnightblue" points="120.557,-46.022 130.994,-44.199 121.698,-39.1156 120.557,-46.022"/>
</g>
<!-- Node3 -->
<g id="node3" class="node"><title>Node3</title>
<g id="a_node3"><a xlink:href="../../d9/d9b/address_8h_a96f347b195842baf69eb4985409698ee.html#a96f347b195842baf69eb4985409698ee" target="_top" xlink:title="Obtenir le nom d&#39;un hôte à partir de son adresse IPv6.">
<polygon fill="none" stroke="black" points="112,-0.5 112,-19.5 198,-19.5 198,-0.5 112,-0.5"/>
<text text-anchor="middle" x="155" y="-7.5" font-family="Helvetica,sans-Serif" font-size="10.00">reverse_dns_v6</text>
</a>
</g>
</g>
<!-- Node1&#45;&gt;Node3 -->
<g id="edge2" class="edge"><title>Node1&#45;&gt;Node3</title>
<path fill="none" stroke="midnightblue" d="M75.7029,-22.936C83.9237,-21.5778 92.8,-20.1113 101.521,-18.6704"/>
<polygon fill="midnightblue" stroke="midnightblue" points="102.343,-22.0821 111.639,-16.9988 101.202,-15.1758 102.343,-22.0821"/>
</g>
</g>
</svg>
