<?xml version="1.0" encoding="UTF-8" standalone="no"?>
<!DOCTYPE svg PUBLIC "-//W3C//DTD SVG 1.1//EN"
 "http://www.w3.org/Graphics/SVG/1.1/DTD/svg11.dtd">
<!-- Generated by graphviz version 2.30.1 (20130712.1527)
 -->
<!-- Title: get_source_ipv6 Pages: 1 -->
<svg width="266pt" height="28pt"
 viewBox="0.00 0.00 266.00 28.00" xmlns="http://www.w3.org/2000/svg" xmlns:xlink="http://www.w3.org/1999/xlink">
<g id="graph0" class="graph" transform="scale(1 1) rotate(0) translate(4 24)">
<title>get_source_ipv6</title>
<!-- Node1 -->
<g id="node1" class="node"><title>Node1</title>
<polygon fill="#bfbfbf" stroke="black" points="0,-0.5 0,-19.5 88,-19.5 88,-0.5 0,-0.5"/>
<text text-anchor="middle" x="44" y="-7.5" font-family="Helvetica,sans-Serif" font-size="10.00">get_source_ipv6</text>
</g>
<!-- Node2 -->
<g id="node2" class="node"><title>Node2</title>
<g id="a_node2"><a xlink:href="../../d9/d9b/address_8h_a58de0fb218e18cdb0185b96c6171ed9d.html#a58de0fb218e18cdb0185b96c6171ed9d" target="_top" xlink:title="Obtenir une adresse IPv6.">
<polygon fill="none" stroke="black" points="124.5,-0.5 124.5,-19.5 177.5,-19.5 177.5,-0.5 124.5,-0.5"/>
<text text-anchor="middle" x="151" y="-7.5" font-family="Helvetica,sans-Serif" font-size="10.00">get_ipv6</text>
</a>
</g>
</g>
<!-- Node1&#45;&gt;Node2 -->
<g id="edge1" class="edge"><title>Node1&#45;&gt;Node2</title>
<path fill="none" stroke="midnightblue" d="M88.0105,-10C96.6916,-10 105.731,-10 114.136,-10"/>
<polygon fill="midnightblue" stroke="midnightblue" points="114.368,-13.5001 124.368,-10 114.368,-6.5001 114.368,-13.5001"/>
</g>
<!-- Node3 -->
<g id="node3" class="node"><title>Node3</title>
<g id="a_node3"><a xlink:href="../../d9/d9b/address_8h_ac2527f2c331db757a25840db6b1068b9.html#ac2527f2c331db757a25840db6b1068b9" target="_top" xlink:title="Obtenir une adresse IP.">
<polygon fill="none" stroke="black" points="214.5,-0.5 214.5,-19.5 257.5,-19.5 257.5,-0.5 214.5,-0.5"/>
<text text-anchor="middle" x="236" y="-7.5" font-family="Helvetica,sans-Serif" font-size="10.00">get_ip</text>
</a>
</g>
</g>
<!-- Node2&#45;&gt;Node3 -->
<g id="edge2" class="edge"><title>Node2&#45;&gt;Node3</title>
<path fill="none" stroke="midnightblue" d="M177.807,-10C186.197,-10 195.591,-10 204.302,-10"/>
<polygon fill="midnightblue" stroke="midnightblue" points="204.477,-13.5001 214.476,-10 204.476,-6.5001 204.477,-13.5001"/>
</g>
</g>
</svg>
