<?xml version="1.0" encoding="UTF-8" standalone="no"?>
<!DOCTYPE svg PUBLIC "-//W3C//DTD SVG 1.1//EN"
 "http://www.w3.org/Graphics/SVG/1.1/DTD/svg11.dtd">
<!-- Generated by graphviz version 2.30.1 (20130712.1527)
 -->
<!-- Title: extract_ipv4 Pages: 1 -->
<svg width="212pt" height="66pt"
 viewBox="0.00 0.00 212.00 66.00" xmlns="http://www.w3.org/2000/svg" xmlns:xlink="http://www.w3.org/1999/xlink">
<g id="graph0" class="graph" transform="scale(1 1) rotate(0) translate(4 62)">
<title>extract_ipv4</title>
<!-- Node1 -->
<g id="node1" class="node"><title>Node1</title>
<polygon fill="#bfbfbf" stroke="black" points="0,-19.5 0,-38.5 70,-38.5 70,-19.5 0,-19.5"/>
<text text-anchor="middle" x="35" y="-26.5" font-family="Helvetica,sans-Serif" font-size="10.00">extract_ipv4</text>
</g>
<!-- Node2 -->
<g id="node2" class="node"><title>Node2</title>
<g id="a_node2"><a xlink:href="../../d5/d74/ping__icmp_8c_a8840388a584c45eb700d7451452e2b72.html#a8840388a584c45eb700d7451452e2b72" target="_top" xlink:title="Initialisation des différentes structures et création d&#39;un paquet icmp4_packet.">
<polygon fill="none" stroke="black" points="106.5,-38.5 106.5,-57.5 203.5,-57.5 203.5,-38.5 106.5,-38.5"/>
<text text-anchor="middle" x="155" y="-45.5" font-family="Helvetica,sans-Serif" font-size="10.00">init_domaine_IPv4</text>
</a>
</g>
</g>
<!-- Node1&#45;&gt;Node2 -->
<g id="edge1" class="edge"><title>Node1&#45;&gt;Node2</title>
<path fill="none" stroke="midnightblue" d="M80.2502,-36.125C88.7673,-37.4964 97.7227,-38.9384 106.342,-40.3263"/>
<polygon fill="midnightblue" stroke="midnightblue" points="80.5597,-32.6299 70.1305,-34.4956 79.4469,-39.5409 80.5597,-32.6299"/>
</g>
<!-- Node3 -->
<g id="node3" class="node"><title>Node3</title>
<g id="a_node3"><a xlink:href="../../de/df3/packet_8c_a4b88c80657bb9a94505d743b92db9652.html#a4b88c80657bb9a94505d743b92db9652" target="_top" xlink:title="Paquet UDP.">
<polygon fill="none" stroke="black" points="110,-0.5 110,-19.5 200,-19.5 200,-0.5 110,-0.5"/>
<text text-anchor="middle" x="155" y="-7.5" font-family="Helvetica,sans-Serif" font-size="10.00">udp4_packet_init</text>
</a>
</g>
</g>
<!-- Node1&#45;&gt;Node3 -->
<g id="edge2" class="edge"><title>Node1&#45;&gt;Node3</title>
<path fill="none" stroke="midnightblue" d="M80.0203,-21.912C89.7597,-20.3438 100.082,-18.6817 109.828,-17.1125"/>
<polygon fill="midnightblue" stroke="midnightblue" points="79.4469,-18.4591 70.1305,-23.5044 80.5597,-25.3701 79.4469,-18.4591"/>
</g>
</g>
</svg>
