<?xml version="1.0" encoding="UTF-8" standalone="no"?>
<!DOCTYPE svg PUBLIC "-//W3C//DTD SVG 1.1//EN"
 "http://www.w3.org/Graphics/SVG/1.1/DTD/svg11.dtd">
<!-- Generated by graphviz version 2.30.1 (20130712.1527)
 -->
<!-- Title: get_ip Pages: 1 -->
<svg width="412pt" height="142pt"
 viewBox="0.00 0.00 412.00 142.00" xmlns="http://www.w3.org/2000/svg" xmlns:xlink="http://www.w3.org/1999/xlink">
<g id="graph0" class="graph" transform="scale(1 1) rotate(0) translate(4 138)">
<title>get_ip</title>
<!-- Node1 -->
<g id="node1" class="node"><title>Node1</title>
<polygon fill="#bfbfbf" stroke="black" points="0.5,-57.5 0.5,-76.5 43.5,-76.5 43.5,-57.5 0.5,-57.5"/>
<text text-anchor="middle" x="22" y="-64.5" font-family="Helvetica,sans-Serif" font-size="10.00">get_ip</text>
</g>
<!-- Node2 -->
<g id="node2" class="node"><title>Node2</title>
<g id="a_node2"><a xlink:href="../../d1/d3e/address_8c_af637c541dd7ff290a03bef9fcc4d9a8f.html#af637c541dd7ff290a03bef9fcc4d9a8f" target="_top" xlink:title="Obtenir une adresse IPv4.">
<polygon fill="none" stroke="black" points="80.5,-76.5 80.5,-95.5 133.5,-95.5 133.5,-76.5 80.5,-76.5"/>
<text text-anchor="middle" x="107" y="-83.5" font-family="Helvetica,sans-Serif" font-size="10.00">get_ipv4</text>
</a>
</g>
</g>
<!-- Node1&#45;&gt;Node2 -->
<g id="edge1" class="edge"><title>Node1&#45;&gt;Node2</title>
<path fill="none" stroke="midnightblue" d="M53.4571,-73.9721C62.2972,-75.9957 71.8582,-78.1844 80.3704,-80.133"/>
<polygon fill="midnightblue" stroke="midnightblue" points="54.0457,-70.5164 43.5169,-71.6966 52.4837,-77.3399 54.0457,-70.5164"/>
</g>
<!-- Node6 -->
<g id="node6" class="node"><title>Node6</title>
<g id="a_node6"><a xlink:href="../../d1/d3e/address_8c_a58de0fb218e18cdb0185b96c6171ed9d.html#a58de0fb218e18cdb0185b96c6171ed9d" target="_top" xlink:title="Obtenir une adresse IPv6.">
<polygon fill="none" stroke="black" points="80.5,-38.5 80.5,-57.5 133.5,-57.5 133.5,-38.5 80.5,-38.5"/>
<text text-anchor="middle" x="107" y="-45.5" font-family="Helvetica,sans-Serif" font-size="10.00">get_ipv6</text>
</a>
</g>
</g>
<!-- Node1&#45;&gt;Node6 -->
<g id="edge5" class="edge"><title>Node1&#45;&gt;Node6</title>
<path fill="none" stroke="midnightblue" d="M53.4571,-60.0279C62.2972,-58.0043 71.8582,-55.8156 80.3704,-53.867"/>
<polygon fill="midnightblue" stroke="midnightblue" points="52.4837,-56.6601 43.5169,-62.3034 54.0457,-63.4836 52.4837,-56.6601"/>
</g>
<!-- Node3 -->
<g id="node3" class="node"><title>Node3</title>
<g id="a_node3"><a xlink:href="../../d1/d3e/address_8c_a79cf7a5008448aa62a64f8f1fe64fb4a.html#a79cf7a5008448aa62a64f8f1fe64fb4a" target="_top" xlink:title="Obtenir l&#39;adresse IPv4 de la machine.">
<polygon fill="none" stroke="black" points="177,-114.5 177,-133.5 265,-133.5 265,-114.5 177,-114.5"/>
<text text-anchor="middle" x="221" y="-121.5" font-family="Helvetica,sans-Serif" font-size="10.00">get_source_ipv4</text>
</a>
</g>
</g>
<!-- Node2&#45;&gt;Node3 -->
<g id="edge2" class="edge"><title>Node2&#45;&gt;Node3</title>
<path fill="none" stroke="midnightblue" d="M143.499,-98.0445C159.048,-103.32 177.043,-109.425 191.672,-114.389"/>
<polygon fill="midnightblue" stroke="midnightblue" points="144.289,-94.6166 133.695,-94.718 142.04,-101.245 144.289,-94.6166"/>
</g>
<!-- Node5 -->
<g id="node5" class="node"><title>Node5</title>
<g id="a_node5"><a xlink:href="../../d5/d74/ping__icmp_8c_a8840388a584c45eb700d7451452e2b72.html#a8840388a584c45eb700d7451452e2b72" target="_top" xlink:title="Initialisation des différentes structures et création d&#39;un paquet icmp4_packet.">
<polygon fill="none" stroke="black" points="172.5,-76.5 172.5,-95.5 269.5,-95.5 269.5,-76.5 172.5,-76.5"/>
<text text-anchor="middle" x="221" y="-83.5" font-family="Helvetica,sans-Serif" font-size="10.00">init_domaine_IPv4</text>
</a>
</g>
</g>
<!-- Node2&#45;&gt;Node5 -->
<g id="edge4" class="edge"><title>Node2&#45;&gt;Node5</title>
<path fill="none" stroke="midnightblue" d="M143.905,-86C152.977,-86 162.862,-86 172.412,-86"/>
<polygon fill="midnightblue" stroke="midnightblue" points="143.695,-82.5001 133.695,-86 143.695,-89.5001 143.695,-82.5001"/>
</g>
<!-- Node4 -->
<g id="node4" class="node"><title>Node4</title>
<g id="a_node4"><a xlink:href="../../de/df3/packet_8c_a4b88c80657bb9a94505d743b92db9652.html#a4b88c80657bb9a94505d743b92db9652" target="_top" xlink:title="Paquet UDP.">
<polygon fill="none" stroke="black" points="311,-114.5 311,-133.5 401,-133.5 401,-114.5 311,-114.5"/>
<text text-anchor="middle" x="356" y="-121.5" font-family="Helvetica,sans-Serif" font-size="10.00">udp4_packet_init</text>
</a>
</g>
</g>
<!-- Node3&#45;&gt;Node4 -->
<g id="edge3" class="edge"><title>Node3&#45;&gt;Node4</title>
<path fill="none" stroke="midnightblue" d="M275.304,-124C287.034,-124 299.335,-124 310.667,-124"/>
<polygon fill="midnightblue" stroke="midnightblue" points="275.181,-120.5 265.181,-124 275.181,-127.5 275.181,-120.5"/>
</g>
<!-- Node7 -->
<g id="node7" class="node"><title>Node7</title>
<g id="a_node7"><a xlink:href="../../d1/d3e/address_8c_a4cd830d7caea78032021132d23d75bb9.html#a4cd830d7caea78032021132d23d75bb9" target="_top" xlink:title="Obtenir l&#39;adresse IPv6 de la machine.">
<polygon fill="none" stroke="black" points="177,-38.5 177,-57.5 265,-57.5 265,-38.5 177,-38.5"/>
<text text-anchor="middle" x="221" y="-45.5" font-family="Helvetica,sans-Serif" font-size="10.00">get_source_ipv6</text>
</a>
</g>
</g>
<!-- Node6&#45;&gt;Node7 -->
<g id="edge6" class="edge"><title>Node6&#45;&gt;Node7</title>
<path fill="none" stroke="midnightblue" d="M143.785,-48C154.308,-48 165.93,-48 176.862,-48"/>
<polygon fill="midnightblue" stroke="midnightblue" points="143.695,-44.5001 133.695,-48 143.695,-51.5001 143.695,-44.5001"/>
</g>
<!-- Node9 -->
<g id="node9" class="node"><title>Node9</title>
<g id="a_node9"><a xlink:href="../../d1/d4c/traceroute_8c_a6466354b99f01aad9924d61294ed38cd.html#a6466354b99f01aad9924d61294ed38cd" target="_top" xlink:title="Traceroute IPv6+ICMP.">
<polygon fill="none" stroke="black" points="170,-0.5 170,-19.5 272,-19.5 272,-0.5 170,-0.5"/>
<text text-anchor="middle" x="221" y="-7.5" font-family="Helvetica,sans-Serif" font-size="10.00">traceroute_icmp_v6</text>
</a>
</g>
</g>
<!-- Node6&#45;&gt;Node9 -->
<g id="edge8" class="edge"><title>Node6&#45;&gt;Node9</title>
<path fill="none" stroke="midnightblue" d="M143.499,-35.9555C159.048,-30.6801 177.043,-24.5748 191.672,-19.6113"/>
<polygon fill="midnightblue" stroke="midnightblue" points="142.04,-32.7546 133.695,-39.282 144.289,-39.3834 142.04,-32.7546"/>
</g>
<!-- Node8 -->
<g id="node8" class="node"><title>Node8</title>
<g id="a_node8"><a xlink:href="../../de/df3/packet_8c_a65b5fff2654c7ea3bb5da793d18043ed.html#a65b5fff2654c7ea3bb5da793d18043ed" target="_top" xlink:title="Construire un paquet IPv6 + ICMP.">
<polygon fill="none" stroke="black" points="308.5,-38.5 308.5,-57.5 403.5,-57.5 403.5,-38.5 308.5,-38.5"/>
<text text-anchor="middle" x="356" y="-45.5" font-family="Helvetica,sans-Serif" font-size="10.00">icmp6_packet_init</text>
</a>
</g>
</g>
<!-- Node7&#45;&gt;Node8 -->
<g id="edge7" class="edge"><title>Node7&#45;&gt;Node8</title>
<path fill="none" stroke="midnightblue" d="M275.441,-48C286.34,-48 297.726,-48 308.365,-48"/>
<polygon fill="midnightblue" stroke="midnightblue" points="275.181,-44.5001 265.181,-48 275.181,-51.5001 275.181,-44.5001"/>
</g>
</g>
</svg>
