<?xml version="1.0" encoding="UTF-8" standalone="no"?>
<!DOCTYPE svg PUBLIC "-//W3C//DTD SVG 1.1//EN"
 "http://www.w3.org/Graphics/SVG/1.1/DTD/svg11.dtd">
<!-- Generated by graphviz version 2.30.1 (20130712.1527)
 -->
<!-- Title: get_source_ipv4 Pages: 1 -->
<svg width="308pt" height="66pt"
 viewBox="0.00 0.00 308.00 66.00" xmlns="http://www.w3.org/2000/svg" xmlns:xlink="http://www.w3.org/1999/xlink">
<g id="graph0" class="graph" transform="scale(1 1) rotate(0) translate(4 62)">
<title>get_source_ipv4</title>
<!-- Node1 -->
<g id="node1" class="node"><title>Node1</title>
<polygon fill="#bfbfbf" stroke="black" points="0,-19.5 0,-38.5 88,-38.5 88,-19.5 0,-19.5"/>
<text text-anchor="middle" x="44" y="-26.5" font-family="Helvetica,sans-Serif" font-size="10.00">get_source_ipv4</text>
</g>
<!-- Node2 -->
<g id="node2" class="node"><title>Node2</title>
<g id="a_node2"><a xlink:href="../../d9/d9b/address_8h_a1f7b5c9308c7885935d49fd0816e1e2d.html#a1f7b5c9308c7885935d49fd0816e1e2d" target="_top" xlink:title="Rechercher une adresse IPv4 parmi celles des interfaces de la machine.">
<polygon fill="none" stroke="black" points="124,-38.5 124,-57.5 220,-57.5 220,-38.5 124,-38.5"/>
<text text-anchor="middle" x="172" y="-45.5" font-family="Helvetica,sans-Serif" font-size="10.00">get_interface_ipv4</text>
</a>
</g>
</g>
<!-- Node1&#45;&gt;Node2 -->
<g id="edge1" class="edge"><title>Node1&#45;&gt;Node2</title>
<path fill="none" stroke="midnightblue" d="M88.0096,-35.4856C96.3106,-36.7373 105.128,-38.067 113.798,-39.3743"/>
<polygon fill="midnightblue" stroke="midnightblue" points="113.458,-42.8625 123.868,-40.8928 114.502,-35.9408 113.458,-42.8625"/>
</g>
<!-- Node3 -->
<g id="node3" class="node"><title>Node3</title>
<g id="a_node3"><a xlink:href="../../d9/d9b/address_8h_af637c541dd7ff290a03bef9fcc4d9a8f.html#af637c541dd7ff290a03bef9fcc4d9a8f" target="_top" xlink:title="Obtenir une adresse IPv4.">
<polygon fill="none" stroke="black" points="145.5,-0.5 145.5,-19.5 198.5,-19.5 198.5,-0.5 145.5,-0.5"/>
<text text-anchor="middle" x="172" y="-7.5" font-family="Helvetica,sans-Serif" font-size="10.00">get_ipv4</text>
</a>
</g>
</g>
<!-- Node1&#45;&gt;Node3 -->
<g id="edge2" class="edge"><title>Node1&#45;&gt;Node3</title>
<path fill="none" stroke="midnightblue" d="M88.0096,-22.5144C103.384,-20.196 120.531,-17.6105 135.229,-15.3941"/>
<polygon fill="midnightblue" stroke="midnightblue" points="136.072,-18.8066 145.438,-13.8546 135.028,-11.8849 136.072,-18.8066"/>
</g>
<!-- Node4 -->
<g id="node4" class="node"><title>Node4</title>
<g id="a_node4"><a xlink:href="../../d9/d9b/address_8h_ac2527f2c331db757a25840db6b1068b9.html#ac2527f2c331db757a25840db6b1068b9" target="_top" xlink:title="Obtenir une adresse IP.">
<polygon fill="none" stroke="black" points="256.5,-0.5 256.5,-19.5 299.5,-19.5 299.5,-0.5 256.5,-0.5"/>
<text text-anchor="middle" x="278" y="-7.5" font-family="Helvetica,sans-Serif" font-size="10.00">get_ip</text>
</a>
</g>
</g>
<!-- Node3&#45;&gt;Node4 -->
<g id="edge3" class="edge"><title>Node3&#45;&gt;Node4</title>
<path fill="none" stroke="midnightblue" d="M198.708,-10C213.035,-10 230.976,-10 246.068,-10"/>
<polygon fill="midnightblue" stroke="midnightblue" points="246.461,-13.5001 256.461,-10 246.461,-6.5001 246.461,-13.5001"/>
</g>
</g>
</svg>
